<?xml version="1.0" encoding="utf-8"?>
<!-- Generator: Adobe Illustrator 25.4.1, SVG Export Plug-In . SVG Version: 6.00 Build 0)  -->
<svg version="1.1" id="Calque_1" xmlns="http://www.w3.org/2000/svg" xmlns:xlink="http://www.w3.org/1999/xlink" x="0px" y="0px"
	 viewBox="0 0 1620 1920" style="enable-background:new 0 0 1620 1920;" xml:space="preserve">
<style type="text/css">
	.st0{fill:#FAF1E4;}
	.st1{fill:#F0D7AF;}
	.st2{fill:#F5E5CA;}
	.st3{fill:#EBCA94;}
</style>
<path class="st0" d="M0,878.4c162.1,239.6,355.5,498.9,369.8,750.7L1620,1790.3V90.8C972.3,257.9,593.8-174.2,26,85.1
	c-9,4.1-17.7,8.2-26,12.5V878.4z"/>
<path class="st1" d="M1620,67.8c-444.2-13.4-674,396.9-894.9,819c-99.4,190,502.5,361.7,894.9,451.5V67.8z"/>
<path class="st2" d="M1620,1406.5c-144.1-23-301.6-58.8-403.2-95C990.9,1231,725.1,887.1,725.1,887.1
	C426.9,1078.4,170.7,902.2,0,703.5v1053.7c246.5,49.5,502.4-5.8,507.4-5.8c4.2,0,638.4-15.8,1112.6-27.5V1406.5z"/>
<path class="st3" d="M1620,1169.7c-294.9-296.8-894.9-282.6-894.9-282.6c441.6,818.1-222.6,863.6-222.6,863.6
	S1286.4,2012,1620,1885.4V1169.7z"/>
</svg>
