<?xml version="1.0" encoding="utf-8"?>
<!-- Generator: Adobe Illustrator 25.4.1, SVG Export Plug-In . SVG Version: 6.00 Build 0)  -->
<svg version="1.1" id="Calque_1" xmlns="http://www.w3.org/2000/svg" xmlns:xlink="http://www.w3.org/1999/xlink" x="0px" y="0px"
	 viewBox="0 0 1440 570" style="enable-background:new 0 0 1440 570;" xml:space="preserve">
<style type="text/css">
	.st0{fill:#0C7189;}
	.st1{display:none;opacity:0.5;fill:#0D4F6C;enable-background:new    ;}
	.st2{font-family:'HearthStone';}
	.st3{font-size:300px;}
	.st4{opacity:0.25;}
	.st5{fill:#0D4F6C;}
</style>
<g>
	<path class="st0" d="M1440,0H0v473.3c0,0,120.3-78.2,379.1-80.2c258.7-2,425.2,170.5,677.9,170.5s383.1-80.2,383.1-80.2L1440,0
		L1440,0z"/>
</g>
<text transform="matrix(1 0 0 1 -63 346.0812)" class="st1 st2 st3">Portfolio</text>
<g class="st4">
	<path class="st5" d="M262.2,29.3c-7.2-4.2-16.3-5.9-27.2-5.1s-23.8,4.9-38.8,12.3c-8,4-16.1,9-24.3,14.9S155.7,63.7,148,70.6
		S133,84.7,126.2,92c-6.8,7.4-12.8,14.6-18,21.6c4.6-19,8-35.2,10.1-48.6s2.4-22.9,1-28.5c-1-3.6-2.7-6.2-5.1-7.8
		c-2.4-1.6-5.2-2.2-8.2-2c-3.1,0.3-6.4,1.5-9.8,3.6s-6.5,5-9.3,8.5c-6.9,7.9-16.6,22.2-29,43s-28,49.6-46.8,86.4
		c-1.2,2.2-0.5,3.7,2.1,4.5c1,0.4,2,0.4,3.1-0.1s1.8-1.2,2.2-2.2c18.4-36.2,33.7-64.6,45.9-85.2s21.8-34.7,28.8-42.3
		c5.4-6.4,8.3-5.9,8.7,1.5c0.4,6.2-0.4,14.7-2.2,25.5c-1.9,10.8-4.6,23.4-8,37.8c-4,16.2-8.7,33.8-14.1,52.8
		c-6.8,12-13.6,24.9-20.2,38.7c-6.7,13.8-13.4,28.7-20,44.7L33,254.6c-10.2-0.2-20.7-0.8-31.5-1.8c-0.5,0-1-0.1-1.5-0.2v7.6
		c10.2,1.1,20.2,1.7,30,1.9c-10.3,26-20.3,54.1-30,84.4V373c2.7-9,5.5-17.7,8.2-26.3c9.9-30.4,20-58.6,30.1-84.6h8.1
		c-5.6,17-11.3,33.9-17.1,50.7c-5.8,16.8-11.5,33.1-17.2,48.8C8,372.8,4,383.7,0,394.3v46.2c6.4-15.5,13.1-32.5,20.1-51
		c7.4-19.5,14.9-40.2,22.6-62.1s15.1-44,22.4-66.1c27.6-2.3,53.8-7.3,78.6-15.1c24.8-7.7,47.2-19,67.2-33.8
		c11.6-8.6,21.9-18.5,31.1-29.6c9.1-11.1,16.7-22.7,22.9-34.9c6.2-12.2,10.9-24.5,14.1-36.8s4.7-23.8,4.6-34.5s-1.9-20.2-5.4-28.5
		C274.7,39.7,269.4,33.5,262.2,29.3z M58.2,225.6c-3,9.5-6.1,19.2-9.3,29h-7.5l3.6-9c3.8-8.8,7.5-17.2,11.1-25.2s7.2-15.7,10.8-23.1
		C64.1,206.7,61.2,216.1,58.2,225.6z M259.2,112.4c-3.6,13-8.8,25.9-15.6,38.7s-14.7,24-23.7,33.6c-8.2,8.6-17.5,16.8-27.8,24.4
		c-10.3,7.7-21.8,14.6-34.4,20.6c-12.6,6-26.5,11.1-41.5,15.3c-15.1,4.2-31.4,7-48.8,8.4l11.7-36.9c4.6-14.8,8.9-29.2,12.9-43.2
		s7.7-27.3,11.1-39.9c5.8-8.6,12.2-17.2,19.3-25.8s14.8-16.8,23.1-24.8c8.3-7.9,17-15.3,26.1-22.2s18.5-12.9,28-18.1
		c15.2-7.2,27.5-10,36.9-8.5c9.4,1.5,16.4,5.9,21,13.2s6.9,16.8,6.9,28.4C264.6,87.1,262.8,99.4,259.2,112.4z"/>
	<path class="st5" d="M926.7,219c2.2,0.5,5.1-0.5,8.7-2.9c4-3.4,6.5-6.7,7.4-9.9s0.8-5.7-0.3-7.7c-1.1-1.9-2.9-3-5.4-3.3
		s-5.1,0.8-7.7,3.1c-2.8,2.8-4.8,5.8-5.8,8.9c-1.1,3.1-1.4,5.7-0.9,7.8C923.1,217.2,924.5,218.5,926.7,219z"/>
	<path class="st5" d="M1106.7,260.9c1-0.8,1.4-1.7,1.4-2.7c-0.1-1-0.5-1.7-1.2-2.2c-0.7-0.5-1.6-0.8-2.5-0.8c-1,0-2,0.4-3,1.2
		c-9,8.4-18.7,15.8-29,22.1c-10.3,6.3-19.7,10.6-28,13.1c-5.4,1.6-9.7,2.1-12.9,1.5c6.2-9.8,10.3-18.8,12.3-27.2
		c2-8.3,2.4-15.5,1.2-21.8c-1.2-6.2-3.7-11.1-7.5-14.7c-3.8-3.6-8.4-5.5-13.8-5.8c-5.4-0.3-11.3,1.3-17.7,4.6
		c-6.4,3.4-12.7,9.1-18.9,17.1c-2.8,3.6-5.4,7.7-7.8,12.3c-1.1,1-3,2.8-5.8,5.4c-3.9,3.6-8.7,7.9-14.4,12.9s-12,10.2-18.8,15.6
		s-13.5,10.2-20.1,14.4c-6.4,4-11.4,6.6-15,7.8c-3.6,1.2-6.2,1.2-7.7-0.1c-1.5-1.3-2-3.7-1.5-7.2s1.9-8,4.1-13.3
		c3.6-9.4,7.7-18.8,12.3-28.1c4.6-9.3,9-18.1,13.2-26.6c0.8-1.6,0.6-3.1-0.5-4.6s-2.7-2.6-4.7-3.3s-4.2-0.8-6.5-0.1
		c-2.3,0.6-4.2,2.3-5.5,5.1c-2.4,5.4-5,10.8-7.6,16.1c-1.3,2.6-2.6,5.2-3.8,7.8c-4.4,3.7-9,7.7-14,11.9
		c-6.4,5.4-13.1,10.6-20.1,15.8c-7,5.1-14,9.9-21,14.2c-7,4.4-13.8,8-20.4,10.8c-10.2,4.4-17.3,5.2-21.3,2.2
		c-4-2.9-5.9-8.9-5.7-18.1c0-5,0.6-10.7,1.8-17s2.9-13.1,5.1-20.6c6.4-6.2,13.2-14.1,20.6-23.9c7.3-9.7,14.6-20.2,22-31.6
		c7.4-11.4,14.6-23.3,21.6-35.9c7-12.5,13.4-24.8,19.2-36.9s10.8-23.5,15-34.4c4.2-10.8,7.2-20.3,9-28.5c1-4.8,1.4-9.2,1.3-13.2
		c-0.1-4-0.8-7.1-1.9-9.5c-1.2-2.3-3-3.6-5.2-3.9c-2.3-0.3-5.2,0.8-8.6,3.1c-6.6,4.8-13.9,12.8-22,24s-16.3,24.3-24.6,39.1
		c-8.3,14.9-16.5,30.8-24.5,47.7s-15.2,33.5-21.6,49.8c-6.4,16.3-11.7,31.5-15.9,45.5c-0.7,2.3-1.3,4.5-1.9,6.7
		c-8.9,8.2-18.4,15.5-28.5,21.7c-10.3,6.3-19.7,10.6-28,13.1c-5.4,1.6-9.7,2.1-12.9,1.5c6.2-9.8,10.3-18.8,12.3-27.2
		c2-8.3,2.4-15.5,1.2-21.8c-1.2-6.2-3.7-11.1-7.5-14.7c-3.8-3.6-8.4-5.5-13.8-5.8c-5.4-0.3-11.3,1.3-17.7,4.6
		c-6.4,3.4-12.7,9.1-18.9,17.1c-2.5,3.3-4.9,6.9-7.1,11c-14.9,12.3-29.1,21.9-42.7,28.8c-13.6,6.9-25.8,12.1-36.6,15.5
		c3-8.6,6.6-18.2,10.8-28.7s8.7-21.1,13.6-32c4.9-10.8,10.1-21.3,15.6-31.5s11-19.3,16.6-27.3c0.2-0.2,0.6-0.2,1.4,0
		c0.7,0.2,1.4,0.3,2.2,0.3s1.6-0.2,2.4-0.6c0.8-0.4,1.3-1.3,1.5-2.7c0.8-3.8,0.7-6.8-0.3-8.9c-1-2.1-2.5-3.4-4.5-3.9
		s-4.4-0.1-7.2,1.2s-5.5,3.4-8.1,6.1c-3,2.6-6.4,6.7-10.2,12.3s-7.7,12.1-11.7,19.5s-8.1,15.5-12.1,24.1c-4.1,8.7-8,17.4-11.6,26.1
		c-0.2,0.6-0.5,1.1-0.7,1.7c-5.3,4.5-11.1,9.4-17.5,14.7c-6.5,5.4-13.2,10.6-20.1,15.8c-6.9,5.1-13.9,9.9-21,14.2
		c-7.1,4.4-14,8-20.5,10.8c-8.6,3.8-15.4,5.7-20.4,5.5c-5-0.1-8.7-1.5-10.9-4.2c-2.3-2.7-3.6-6.3-3.8-10.8c-0.2-4.5,0.1-9.4,1-14.7
		c0.9-5.3,2.2-10.6,3.9-15.9c1.7-5.3,3.3-9.9,5-14c6.8-9.6,13.5-19.6,20.1-30s12.8-20.8,18.6-31.2c0.4-1,0.9-1.9,1.5-2.7
		s1.1-1.7,1.5-2.7c4.8-0.4,10.2-0.9,16.2-1.5s12-1.1,18-1.4c6-0.3,11.9-0.4,17.6-0.3c5.7,0.1,10.6,0.6,14.8,1.4c-3.4,1-6.8,2-10.2,3
		s-6.7,2.1-9.9,3.3c-1.2,0.6-2,1.3-2.4,2.2s-0.4,1.8-0.1,2.5c0.3,0.8,0.9,1.5,1.8,2c0.9,0.5,1.9,0.4,3.1-0.2c1.8-0.6,4.1-1.3,7-2.2
		s5.9-1.8,9-2.7s5.9-1.9,8.4-3s4.1-2.2,5-3.5c1.6-2.8,1.3-4.7-0.9-5.9c-2.2-1.1-4.4-1.9-6.6-2.5c-4.2-1-9.1-1.6-14.9-1.8
		c-5.7-0.2-11.5-0.2-17.5,0.1s-12,0.7-18,1.2s-11.4,1.1-16.2,1.7c4.6-9,8.8-17.6,12.6-25.7c3.8-8.1,7.1-15.5,9.9-22.3
		c3.2-8.6,4.8-15.2,5-19.7c0.1-4.5-0.9-7.1-3-7.9s-5,0.1-8.7,2.7s-7.8,6.8-12.1,12.6c-7.4,9.8-14.1,20.2-20,31.2
		c-5.9,11-11.5,21.9-16.9,32.7c-8.6,1-17.6,2.1-26.9,3.3s-19,2.5-29.2,3.9c-1.4,0.2-2.4,0.7-3,1.5s-0.9,1.6-0.9,2.5s0.4,1.7,1,2.4
		c0.7,0.7,1.8,1,3.1,0.8c9.4-1.4,18.4-2.6,27-3.8c8.6-1.1,17-2.1,25.2-3.2c-2,4.2-4.6,9.8-7.8,16.7c-3.2,6.9-6.5,14.5-9.8,22.6
		c-2.9,7.1-5.6,14.5-8.2,22.1c-10.7,11.3-20.1,21.2-28.1,29.6c-8.1,8.5-15.3,16-21.5,22.4s-11.7,11.9-16.4,16.5
		c-4.7,4.6-8.9,8.7-12.4,12.3c-4.2,4-7.5,6.7-9.9,8s-4,1.4-4.6,0.3c-0.7-1.1-0.7-3.3,0.1-6.6c0.8-3.3,2.3-7.4,4.5-12.2
		c2.8-6.2,6-12.5,9.6-18.9s7.2-12.8,10.8-19c3.6-6.3,6.9-12.4,10-18.3s5.4-11.5,7-17c1.2-3.6,1.4-6,0.8-7.2
		c-0.7-1.2-1.9-1.5-3.4-1.1c-1.6,0.5-3.5,1.5-5.6,3s-4,3.1-5.5,4.7c-1.8,1.8-4.2,4-7,6.4c-2.9,2.5-6,4.9-9.2,7.1s-6.3,4-9.3,5.5
		s-5.5,2.1-7.6,1.8c-2.1-0.3-3.6-1.6-4.4-4s-0.5-6.4,0.9-12c10.2-16.2,18.4-30.9,24.6-44.1c6.2-13.2,10.5-23.8,12.9-31.8
		c1.2-4,1.9-7.6,2.1-10.8s-0.2-5.7-1.2-7.5s-2.6-2.7-4.8-2.7c-2.2,0-4.9,1.3-8.1,3.9c-2.8,2.2-6.1,5.8-9.8,10.8
		c-3.7,5-7.5,11.6-11.2,19.8c-1.8,3.6-3.6,7.8-5.4,12.6s-3.6,9.9-5.2,15.1c-1.7,5.3-3.3,10.8-4.8,16.4c-1.5,5.6-2.8,11.1-3.8,16.5
		c-0.1,0.4-0.1,0.7-0.2,1c-8.9,8.2-18.4,15.4-28.5,21.6c-10.3,6.3-19.6,10.6-28,13.1c-5.4,1.6-9.7,2.1-12.9,1.5
		c6.2-9.8,10.3-18.8,12.3-27.2c2-8.3,2.4-15.5,1.2-21.8c-1.2-6.2-3.7-11.1-7.5-14.7c-3.8-3.6-8.4-5.5-13.8-5.8s-11.3,1.3-17.7,4.6
		c-6.4,3.4-12.7,9.1-18.9,17.1c-3.4,4.4-6.6,9.6-9.4,15.4c-2.9,5.9-5.2,12-7.1,18.1c-1.8,6.2-2.8,12.3-3,18.3s0.7,11.4,2.7,16.2
		c2.2,5.6,5.6,9.2,10.2,10.7c4.6,1.5,9.6,1.5,15-0.2c5.4-1.6,10.9-4.5,16.5-8.8c5.6-4.3,10.6-9.5,15-15.5c2.8,1,5.9,1.3,9.3,0.9
		s6.7-1.1,9.9-2.1c9-2.8,19-7.5,30-14.1c8.4-5.1,16.4-10.8,23.9-17.3c0.1,2.8,0.4,5.2,1,7.2c1.4,4.5,3.8,7.5,7.2,9
		c3.4,1.5,7.5,1.6,12.5,0.4c4.9-1.2,10.1-3.6,15.8-7.2c-0.6,1.2-0.8,1.6-0.5,1.2s0.7-1,1.2-1.8s0.8-1.3,1-1.5s0,0.4-0.6,1.8
		c-2.2,4.2-4.7,9.4-7.5,15.6s-5.5,12.7-8.2,19.3c-2.7,6.7-5.1,13.4-7,20c-2,6.6-3.3,12.3-3.9,17.1c-0.2,2.8,0.1,5.4,0.9,7.8
		s2.4,3.7,4.8,3.9c2.4,0.2,5.9-1,10.5-3.8c4.6-2.7,10.5-7.8,17.7-15.1c4.8-5,9.9-10.1,15.3-15.5c5.4-5.3,11.2-11.1,17.4-17.4
		c6.2-6.3,12.9-13.2,20.1-20.7c4.5-4.7,9.3-9.7,14.5-15.1c-1.1,4.3-1.9,8.5-2.6,12.5c-1.3,8-1.6,15.2-0.9,21.6s3,11.4,6.9,14.8
		c3.9,3.5,9.5,5.2,16.9,5.1s17.2-2.7,29.4-7.9c6.8-3,13.8-6.8,21.1-11.2c7.3-4.5,14.5-9.3,21.6-14.6c7.1-5.2,14-10.5,20.7-16
		c2.3-1.9,4.6-3.8,6.8-5.6c-1.2,3-2.3,5.9-3.4,8.8c-3,8-5.4,15-7.2,21c-5.2,0-9.5,0.2-13.1,0.6c-3.5,0.4-6.2,0.8-8.2,1.2
		c-5.8,1.4-8.9,3-9.4,4.8s1.3,3.5,5.2,5.1c2.4,1,5.8,1.4,10.2,1.2c4.4-0.2,8.2-0.5,11.4-0.9c-4.8,14.4-8.4,28.9-10.8,43.3
		c-2.4,14.5-3.6,27.5-3.6,38.9c0,7.2,0.9,13.7,2.7,19.6c0.2,0.6,0.4,1.2,0.6,1.8c7.3,2,14.6,4.1,21.8,6.3c3.9-3.7,8.2-9.7,13-18.2
		c1.8-3.4,3.9-8,6.5-13.7c2.5-5.7,4.9-12,7.3-18.9c2.4-6.9,4.4-14,6.2-21.2c1.7-7.2,2.7-14,3-20.4s-0.4-12-2-16.8s-4.6-8.3-9-10.5
		c10.4-4,21.6-9.3,33.6-15.9c8.4-4.6,17-10.2,26-16.9c-1.1,2.8-2,5.6-2.9,8.5c-1.8,6.2-2.8,12.3-3,18.3s0.7,11.4,2.7,16.2
		c2.2,5.6,5.6,9.2,10.2,10.7c4.6,1.5,9.6,1.5,15-0.2c5.4-1.6,10.9-4.5,16.5-8.8s10.6-9.5,15-15.5c2.8,1,5.9,1.3,9.3,0.9
		c3.4-0.4,6.7-1.1,9.9-2.1c9-2.8,19-7.5,30-14.1c7.6-4.6,14.9-9.8,21.8-15.5c-1.3,5.9-2.2,11.2-2.6,15.8c-0.6,7.4-0.3,14.1,0.8,20.1
		s3.4,10.7,6.9,14.1s8.3,5.2,14.5,5.5s14.1-1.7,23.7-5.8c6.8-3,13.8-6.8,21.1-11.2c7.3-4.5,14.5-9.3,21.8-14.6
		c7.2-5.2,14.1-10.5,20.7-16c0.8-0.7,1.6-1.3,2.4-2c-1.2,3.1-2.4,6.2-3.6,9.3c-2,5.6-3.4,11.5-4.2,17.7c-1.2,7.6-0.8,13.1,1.2,16.5
		s5.1,5.2,9.1,5.6c4.1,0.3,8.9-0.7,14.4-3s11.2-5.3,17.2-9.2c6.8-4.4,13.7-9.3,20.7-14.8s13.4-10.8,19.2-15.9c2.9-2.5,5.5-4.9,7.9-7
		c-0.6,1.7-1.1,3.4-1.6,5.1c-1.8,6.2-2.8,12.3-3,18.3s0.7,11.4,2.7,16.2c2.2,5.6,5.6,9.2,10.2,10.7s9.6,1.5,15-0.2
		c5.4-1.6,10.9-4.5,16.5-8.8s10.6-9.5,15-15.5c2.8,1,5.9,1.3,9.3,0.9s6.7-1.1,9.9-2.1c9-2.8,19-7.5,30-14.1
		C1087.1,277.7,1097.3,269.9,1106.7,260.9z M815.2,218.7c4.1-9.9,8.7-20.9,14-33c5.2-12.1,10.8-24.7,17-37.8
		c6.1-13.1,12.2-25.4,18.3-37.1c6.1-11.6,12-21.9,17.7-30.9s10.7-15.6,15.1-19.8c1.8-1.6,2.9-2,3.5-1.4c0.5,0.7,0.6,2.1,0.3,4.2
		c-0.3,2.1-0.9,4.6-1.6,7.3c-0.8,2.8-1.5,5.4-2.1,7.8c-3.4,11.4-8.5,24.4-15.1,39.1c-6.7,14.7-14.2,29.7-22.7,44.9
		c-8.4,15.2-17.2,29.8-26.5,43.8s-18.2,26-26.5,36C808.2,236.4,811.1,228.6,815.2,218.7z M523.8,157.8c4.8-9.1,9.8-18,15-26.9
		c-3.4,9-7.3,18-11.5,27c-4.3,9-8.9,17.9-13.6,26.7c-0.6,0-1.3,0.1-2,0.1c-0.7,0.1-1.4,0.1-1.9,0.1C514.3,176,519,166.9,523.8,157.8
		z M498.3,207.9c2.4-4.9,4.9-9.9,7.5-15.1c0.6-0.2,1.2-0.3,1.8-0.3s1.2-0.1,1.8-0.3c-0.2,0.4-0.4,0.8-0.4,1
		c-0.1,0.3-0.3,0.7-0.5,1.1c-2.8,4.6-5.6,9.4-8.4,14.2c-2.8,4.9-5.7,9.7-8.7,14.2C493.6,217.8,495.9,212.8,498.3,207.9z
		 M365.4,228.8c0.2-1.4,0.6-3.1,1.2-5.1s1.6-5,3.1-9s4.1-10.1,7.7-18.3c3-6.2,5.3-10.7,7-13.5s2.9-4.6,3.8-5.4
		c0.8-0.8,1.2-0.8,1.4,0.1c0.1,0.9-0.1,2-0.5,3.2c-0.8,2.8-2.1,6.3-3.9,10.3c-1.8,4.1-3.9,8.6-6.1,13.5c-2.3,4.9-4.8,10-7.5,15.3
		s-5.5,10.5-8.2,15.4C364.5,232.4,365.2,230.2,365.4,228.8z M264,295.7c-3,4.2-6.5,8.2-10.5,12s-7.8,6.4-11.2,7.7
		c-3.5,1.3-6.5,0.9-9-1.3c-2.5-2.2-3.8-7.3-3.8-15.3c0-3.8,0.4-7.9,1.2-12.3s1.9-8.8,3.4-13.2c1.5-4.4,3.3-8.7,5.6-12.9
		c2.2-4.2,4.7-8,7.5-11.4c3-3.8,6.1-7.1,9.4-9.9c3.3-2.8,6.5-4.6,9.6-5.4c3.1-0.8,5.9-0.3,8.5,1.4s4.8,5.2,6.6,10.4
		c-3,1.2-6,4-9,8.5s-5.5,9.4-7.5,14.7c-2,5.3-3.2,10.5-3.6,15.6C260.9,289.2,261.8,293.1,264,295.7z M269.4,287.3
		c-0.4-1.8-0.2-4.4,0.6-7.7c0.8-3.3,1.8-6.7,3.1-10.2c1.3-3.5,2.8-6.8,4.5-9.9s3.3-5.3,5-6.8c0,2.4-0.4,5.1-1.2,8.1
		c-0.8,3-1.9,6.1-3.1,9.3c-1.3,3.2-2.8,6.3-4.4,9.1C272.3,282.2,270.8,284.9,269.4,287.3z M598.9,330.6c0.3,5.9-0.4,12.5-2,19.7
		s-3.7,14.2-6.1,21.1c-2.5,6.9-5.1,13.3-7.8,19.2c-2.7,5.9-5,10.7-7.1,14.2c-3.8,6.6-6.6,10.3-8.5,11.1c-1.9,0.8-3.1-0.5-3.6-3.8
		s-0.4-8.1,0.1-14.4c0.6-6.3,1.5-13.3,2.7-21s2.6-15.6,4.2-23.7c1.6-8.1,3.1-15.5,4.5-22c1.4-6.6,2.7-12,3.8-16.2s1.8-6.3,1.9-6.3
		c6.2,0.8,10.6,3.2,13.4,7.2C597.1,319.8,598.6,324.7,598.9,330.6z M703.5,295.7c-3,4.2-6.5,8.2-10.5,12s-7.8,6.4-11.2,7.7
		c-3.5,1.3-6.5,0.9-9-1.3c-2.5-2.2-3.8-7.3-3.8-15.3c0-3.8,0.4-7.9,1.2-12.3s1.9-8.8,3.4-13.2c1.5-4.4,3.3-8.7,5.6-12.9
		c2.2-4.2,4.7-8,7.5-11.4c3-3.8,6.1-7.1,9.4-9.9c3.3-2.8,6.5-4.6,9.6-5.4c3.1-0.8,5.9-0.3,8.5,1.4s4.8,5.2,6.6,10.4
		c-3,1.2-6,4-9,8.5s-5.5,9.4-7.5,14.7c-2,5.3-3.2,10.5-3.6,15.6C700.4,289.2,701.3,293.1,703.5,295.7z M708.9,287.3
		c-0.4-1.8-0.2-4.4,0.6-7.7c0.8-3.3,1.8-6.7,3.1-10.2s2.8-6.8,4.5-9.9s3.3-5.3,4.9-6.8c0,2.4-0.4,5.1-1.2,8.1s-1.9,6.1-3.2,9.3
		c-1.3,3.2-2.8,6.3-4.4,9.1C711.8,282.2,710.3,284.9,708.9,287.3z M1020.6,295.7c-3,4.2-6.5,8.2-10.5,12s-7.8,6.4-11.2,7.7
		c-3.5,1.3-6.5,0.9-9-1.3c-2.5-2.2-3.8-7.3-3.8-15.3c0-3.8,0.4-7.9,1.2-12.3s2-8.8,3.5-13.2c1.5-4.4,3.3-8.7,5.5-12.9
		c2.2-4.2,4.7-8,7.5-11.4c3-3.8,6.1-7.1,9.5-9.9c3.3-2.8,6.5-4.6,9.6-5.4c3.1-0.8,5.9-0.3,8.5,1.4s4.8,5.2,6.6,10.4
		c-3,1.2-6,4-9,8.5s-5.5,9.4-7.5,14.7c-2,5.3-3.2,10.5-3.6,15.6C1017.5,289.2,1018.4,293.1,1020.6,295.7z M1026,287.3
		c-0.4-1.8-0.2-4.4,0.6-7.7c0.8-3.3,1.8-6.7,3.2-10.2c1.3-3.5,2.8-6.8,4.5-9.9s3.3-5.3,4.9-6.8c0,2.4-0.4,5.1-1.2,8.1
		c-0.8,3-1.9,6.1-3.2,9.3c-1.3,3.2-2.8,6.3-4.3,9.1C1028.9,282.2,1027.4,284.9,1026,287.3z"/>
</g>
</svg>
