<?xml version="1.0" encoding="utf-8"?>
<!-- Generator: Adobe Illustrator 25.4.1, SVG Export Plug-In . SVG Version: 6.00 Build 0)  -->
<svg version="1.1" id="Calque_1" xmlns="http://www.w3.org/2000/svg" xmlns:xlink="http://www.w3.org/1999/xlink" x="0px" y="0px"
	 viewBox="0 0 1440 570" style="enable-background:new 0 0 1440 570;" xml:space="preserve">
<style type="text/css">
	.st0{fill:#0C7189;}
	.st1{opacity:0.25;}
	.st2{fill:#0D4F6C;}
	.st3{display:none;opacity:0.5;fill:#0D4F6C;enable-background:new    ;}
	.st4{font-family:'HearthStone';}
	.st5{font-size:300px;}
</style>
<g>
	<path class="st0" d="M1440,0H0v473.3c0,0,120.3-78.2,379.1-80.2c258.7-2,425.2,170.5,677.9,170.5s383.1-80.2,383.1-80.2L1440,0
		L1440,0z"/>
</g>
<g class="st1">
	<g>
		<path class="st2" d="M60.8,219.2c0.5-1,0.5-2,0.1-3c-1.2-1.8-3-2.2-5.4-1.2c-13,6.4-24.6,16.6-34.8,30.5C13,256,6.1,267.6,0,280.4
			V299c0.4-1,0.8-2.1,1.2-3.1c4.6-11.6,9.8-22.3,15.6-32.1C22.6,254,29,245.5,36,238.2s14.5-12.9,22.5-16.9
			C59.5,220.9,60.2,220.2,60.8,219.2z"/>
		<path class="st2" d="M358.5,225.8c-2.2-1.4-5.5-1.7-9.8-0.8s-9.6,2.6-15.9,5.1s-13.4,5.8-21.3,9.9c-7.9,4.1-16.5,8.8-25.6,13.9
			c2-17.4,4.3-34.8,6.9-52.2s5.2-34.3,8-50.7c2.7-16.4,5.3-32,8-46.6c2.6-14.7,5-28.1,7.2-40.4c1-5.6,2-10.8,2.9-15.6
			s1.7-9.4,2.5-13.8c0-0.4-0.3-1.2-0.9-2.6c-0.6-1.3-1.5-2.4-2.7-3.4c-0.6-0.6-1.7-1.3-3.3-2.1c-1.6-0.6-3.3-0.6-5.1,0
			c-2,0.6-3.7,1.9-5.1,3.9c0,0.2-0.1,0.4-0.2,0.5s-0.1,0.3-0.1,0.4c-5,13.8-11.1,29.1-18.3,45.8c-7.2,16.7-15.3,34.4-24.1,53
			c-8.9,18.6-18.6,37.9-29.1,57.8s-21.5,39.9-32.9,59.9c-9,16.2-18.3,32.2-27.9,48c-9.6,15.8-19.3,31.2-29.1,46.2
			c-16.4,10.2-32,19.7-46.8,28.4c-14.8,8.7-27.9,15.9-39.3,21.8c-1,0.4-1.7,1.1-2.1,2.1c-0.4,1-0.4,1.9,0,2.7c1.2,2.2,3,2.6,5.4,1.2
			c9.8-4.8,20.8-10.7,33.1-17.6s25.4-14.5,39.4-22.9c-10.4,15.6-20.8,30.5-31,44.7c-10,13.8-20,26.8-29.9,38.9c4.1-1.5,8.5-3,13-4.5
			c9-11.3,18.1-23.3,27.3-36.1c11.8-16.3,23.6-33.6,35.4-51.8c7-4,14.1-8.1,21.3-12.5c7.2-4.3,14.4-8.6,21.6-13
			c13.2-7.8,26.2-15.5,39.1-23.2s25.4-15,37.4-22.1c-2.4,24.8-4,48.8-4.6,72c-0.5,17.9-0.2,34.5,0.9,49.6c5.2-0.6,10.4-1.1,15.7-1.6
			c-1.1-18-1.1-37.9,0-59.6c1.2-22.9,3.1-46.4,5.7-70.6c9-4.6,17.8-9.3,26.4-14.1c8.6-4.8,16.1-8.9,22.6-12.3
			c6.5-3.4,11.6-5.5,15.5-6.4c3.8-0.9,5.3,0.2,4.6,3.3c-0.7,3.1-4,8.7-10,16.8c-6,8.1-15.4,19.6-28.2,34.3c-0.8,0.8-1.2,1.7-1,2.7
			c0.1,1,0.6,1.7,1.6,2.1c2,1.2,3.9,0.9,5.7-0.9c9-10.6,16.4-19.8,22.4-27.8c5.9-7.9,10.3-14.6,13.2-20c2.9-5.4,4.4-9.8,4.6-13
			C361.7,229.2,360.7,227,358.5,225.8z M281.7,160.1c-2.6,16.6-5.1,33.8-7.5,51.5s-4.5,35.4-6.3,52.9c-12.6,7.4-25.7,15.3-39.3,23.7
			c-13.6,8.4-27.3,17-41.1,25.8c-5.2,3.2-10.3,6.4-15.1,9.4c-4.9,3.1-10,6.3-15.1,9.5c8.6-13.4,17-27,25.3-40.8s16.4-27.7,24.5-41.7
			c18.2-32.2,35-63.8,50.5-94.6c15.5-30.9,28.7-59.2,39.5-85c-2.4,12.6-4.9,26.5-7.5,41.7C286.9,127.6,284.3,143.5,281.7,160.1z"/>
	</g>
	<path class="st2" d="M953.7,255c-1-0.1-2,0.3-3,1c-10.4,7.6-19.9,14.6-28.3,21c-8.5,6.4-16.3,11.9-23.2,16.5c-2,1.4-4.7,3.3-8,5.5
		c-3.3,2.3-6.8,4.6-10.4,6.9c-3.6,2.3-7.2,4.3-10.8,6s-6.7,2.5-9.3,2.5s-4.5-1-5.8-3.2c-1.3-2.1-1.4-5.7-0.2-10.9
		c0.6-2.6,1.5-5.5,2.5-8.7c1.1-3.2,2.4-6.5,3.9-9.8s3.1-6.6,4.8-9.9s3.2-6.2,4.7-8.8c0.4-0.6,0.8-1.2,1-1.8s0.6-1.2,1-1.8
		c3.8-1,7.5-2.2,11.2-3.6s7.3-3,11-4.8c5.8-3,10.5-6.3,14.2-10.1c3.7-3.7,5.9-7.1,6.8-10.4c0.8-3.2,0-5.7-2.4-7.6
		c-2.4-1.9-6.8-2.5-13.2-1.9s-12.6,3-18.6,7c-6,4.1-11.6,9.2-16.8,15.3c-3.5,4.1-6.7,8.5-9.6,13.2c-3.5,2.7-8,6.4-13.5,11.1
		c-6,5.1-12.7,10.5-20,16.2s-15.1,11.2-23.4,16.5c-8.3,5.3-16.6,9.5-24.8,12.5c-5.2,2-9.1,2.5-11.7,1.5c-2.6-1-4.3-2.9-5.1-5.7
		c-0.8-2.8-0.8-6.2-0.1-10.3c0.7-4.1,1.7-8.1,3-12.2c1.3-4,2.7-7.8,4.2-11.4s2.9-6.3,4.1-8.1c2.6-4.8,5.9-9.8,10-15.1
		c4.1-5.3,8.6-9.6,13.5-13s10.1-5.3,15.8-5.9c5.6-0.5,11.3,1.8,17.1,6.8c1,0.8,2,1.2,3.2,1c1.1-0.1,2-0.5,2.7-1.2s1.1-1.5,1.2-2.6
		c0.1-1-0.4-1.9-1.3-2.7c-5.2-4.4-10.5-7.4-15.9-8.9s-10.7-1.8-15.9-0.9c-5.2,0.9-10.3,2.8-15.3,5.5c-5,2.8-9.7,6.3-14.1,10.5
		c-4.5,4.3-8.8,9.7-13,16.2c-4.9,3.8-9.8,7.9-14.6,12.2c-5,4.5-10.2,9-15.4,13.5c-5.3,4.5-10.7,8.8-16.2,12.8s-11.4,7.4-17.6,10.2
		c-2.6,1.4-4.3,1.1-5.1-0.9s-1-5-0.8-8.8c0.3-3.9,1.1-8.4,2.2-13.5c1.2-5.1,2.4-10.1,3.8-15c1.3-4.9,2.4-9.3,3.5-13.4
		c1-4,1.6-6.9,1.8-8.7c0.6-5.2,0.8-9.8,0.5-13.9c-0.3-4.1-1.4-6.9-3.3-8.4c-1.9-1.5-4.7-1.2-8.4,0.8s-8.7,6.4-14.8,13.2
		c-3.6,4-7.4,8.7-11.2,14c-3.9,5.3-7.8,10.8-11.6,16.5s-7.5,11.5-11.1,17.4s-6.8,11.4-9.6,16.4c0.6-3.6,1.6-8.3,3.1-14.1
		c1.5-5.8,3.2-11.8,5.1-18c1.9-6.2,3.9-12,6-17.4s4-9.3,5.8-11.7s2.1-4.2,0.9-5.5c-1.2-1.3-3-2-5.4-2.1s-4.9,0.4-7.6,1.4
		c-2.7,1-4.8,2.6-6.1,4.8c-2.2,3.8-4.5,9-6.9,15.6c-0.3,0.9-0.6,1.8-0.9,2.7c-10.3,7.5-19.6,14.4-28,20.7
		c-8.5,6.4-16.3,11.9-23.2,16.5c-2,1.4-4.6,3.3-7.9,5.5c-3.3,2.3-6.8,4.6-10.4,6.9c-3.6,2.3-7.2,4.3-10.8,6s-6.7,2.5-9.3,2.5
		s-4.5-1-5.9-3.2c-1.3-2.1-1.4-5.7-0.1-10.9c0.6-2.6,1.5-5.5,2.5-8.7c1.1-3.2,2.4-6.5,3.9-9.8s3.1-6.6,4.8-9.9s3.2-6.2,4.6-8.8
		c0.4-0.6,0.8-1.2,1.1-1.8c0.3-0.6,0.6-1.2,1-1.8c3.8-1,7.5-2.2,11.2-3.6s7.4-3,11-4.8c5.8-3,10.5-6.3,14.2-10.1
		c3.7-3.7,5.9-7.1,6.8-10.4c0.8-3.2,0-5.7-2.4-7.6c-2.4-1.9-6.8-2.5-13.2-1.9s-12.6,3-18.6,7c-6,4.1-11.6,9.2-16.8,15.3
		c-3.4,4-6.5,8.3-9.4,12.8c-10.1,5.1-19.8,9.9-29,14.5c-9.4,4.7-18.4,9.4-27,13.9c4.2-10.8,8-20.9,11.2-30.4
		c3.3-9.5,6-17.7,8.2-24.8c0.4-1.2-0.1-2.4-1.3-3.8c-1.3-1.3-3-2.3-5.1-3s-4.3-0.8-6.6-0.5c-2.3,0.4-4.2,1.8-5.5,4.2
		c-0.6,0.8-1.3,1.6-2,2.2c-0.7,0.7-1.5,1.6-2.2,2.5c-1.4,1.4-2.8,2.9-4.2,4.4c-1.4,1.5-2.9,3.1-4.5,4.6c-0.2-5.8-2.4-9.9-6.4-12.3
		c-4.1-2.4-9.5-3-16.1-1.8c-6.2,1.2-12.3,3.5-18.3,6.9s-11.5,7.5-16.5,12.3s-9.2,10-12.6,15.6c-3.4,5.6-5.6,11.1-6.6,16.5
		c-0.8,4.2-0.7,7.9,0.3,11.1s2.9,5.5,5.5,6.9c2.7,1.4,6.2,1.7,10.6,0.9c4.4-0.8,9.8-3.2,16.2-7.2c4.4-2.6,8.9-5.8,13.6-9.8
		c4.7-3.9,9.3-8,14-12.4c4.6-4.4,9.1-8.8,13.5-13.2c4.4-4.4,8.4-8.6,12-12.6c-2.8,8.2-6,17.2-9.6,26.9s-7.6,19.8-12,30.1
		c-15,8.8-29.8,18-44.4,27.5s-28.5,19.8-41.7,30.8c-17,14.1-29.4,26.8-37.2,38.2c3-0.2,6-0.3,9.1-0.5c7.5-9.6,18.5-20.6,33.2-32.9
		c11.8-9.6,24.2-18.8,37.2-27.5s26.1-16.9,39.3-24.8c-5.8,14-12.4,28.5-19.8,43.4c-7.3,14.7-15.5,28.3-24.5,40.7
		c6.3,0.2,12.6,0.4,18.9,0.8c9.9-14.2,18.9-29.7,27-46.6c8.6-18.1,16.3-35.5,23.1-52.3c9.6-5.2,19.7-10.5,30.3-15.9
		c7.6-3.9,15.6-7.9,23.9-12.1c-3.1,6.1-5.5,12.2-7.3,18.1c-2.1,7-3.2,13.6-3.4,19.7c-0.2,6.1,1,10.9,3.6,14.2c2.8,4.2,7,6,12.4,5.2
		c5.5-0.7,11.3-2.5,17.6-5.5c6.2-3,12.1-6.5,17.8-10.4s10.1-6.9,13.4-9.1c7-4.8,14.8-10.4,23.4-16.8c6.1-4.5,12.6-9.4,19.5-14.5
		c-0.7,2.1-1.3,4.2-1.9,6.4c-2.1,7.2-3.9,14.2-5.6,20.9c-1.6,6.7-2.5,12.1-2.7,16.3c-0.4,3.6,0.4,6.2,2.4,7.8c2,1.6,4.3,2.5,6.9,2.9
		c2.6,0.3,5,0.1,7.2-0.8c2.2-0.8,3.4-1.8,3.6-3c-0.2,0-0.3-0.1-0.3-0.3v-0.6V317c2.4-4.6,5.5-10.2,9.3-17c3.8-6.7,8-13.7,12.6-20.9
		c4.6-7.2,9.3-14.2,14.2-21c4.9-6.8,9.5-12.6,14-17.4c1.8-2,2.9-2.9,3.3-2.6c0.4,0.3,0.5,1.2,0.5,2.6c-0.1,1.4-0.4,3.1-0.9,4.9
		c-0.5,1.9-0.9,3.5-1.1,4.6c-0.8,4.4-1.9,9.1-3.4,14.1s-2.9,10.1-4.1,15.1c-1.2,5.1-1.9,10-2.2,14.9c-0.3,4.8,0.5,9.2,2.2,13.2
		c1.6,3.6,4.2,6,7.8,7.1s8.7,0.1,15.3-2.9c6.2-3,12.1-6.5,17.9-10.6c5.7-4.1,11.2-8.4,16.7-12.9c5.4-4.5,10.7-9.1,15.9-13.8
		c0.5-0.4,1-0.9,1.5-1.3c-0.7,1.6-1.3,3.2-1.9,4.8c-2.7,7.2-4.4,14.2-5.2,20.9c-0.8,6.7-0.1,12.2,2.1,16.5c2.2,4.3,6.1,7,11.7,8.2
		s13.4-0.2,23.4-4.2c7.6-3,15.1-6.7,22.5-11.1s14.7-9.2,21.9-14.4c7.2-5.2,14.1-10.6,20.9-16.2c1.3-1.1,2.6-2.2,3.9-3.3
		c-1.5,3.6-2.8,7.2-3.9,10.8c-2.1,7-3.2,13.6-3.5,19.7c-0.2,6.1,1,10.9,3.6,14.2c2.8,4.2,7,6,12.5,5.2c5.5-0.7,11.3-2.5,17.5-5.5
		s12.1-6.5,17.8-10.4s10.1-6.9,13.4-9.1c7-4.8,14.8-10.4,23.4-16.8c8.6-6.4,18-13.4,28.2-21c1.2-0.8,1.8-1.7,1.8-2.7
		s-0.3-1.8-0.9-2.6C955.5,255.5,954.7,255.1,953.7,255z M886.8,241.2c3.4-3.5,7-6.3,10.8-8.5c3.6-2,6.3-3,8.2-3s2.6,0.7,2.2,1.9
		c-0.4,1.3-2,3.2-4.7,5.6s-6.8,5-12.2,7.8c-4,2.2-8.2,4-12.6,5.4C880.7,247.8,883.4,244.7,886.8,241.2z M558.3,241.2
		c3.4-3.5,7-6.3,10.8-8.5c3.6-2,6.3-3,8.2-3s2.6,0.7,2.2,1.9c-0.4,1.3-1.9,3.2-4.6,5.6s-6.8,5-12.1,7.8c-4,2.2-8.2,4-12.6,5.4
		C552.2,247.8,554.9,244.7,558.3,241.2z M451,242.3c-0.3,2.6-0.9,5.4-1.6,8.4c-6.6,6.8-13.5,13.4-20.6,19.6
		c-7.1,6.3-13.8,11.2-19.9,14.8c-6.2,3.6-10.2,4.9-12,3.9s-2.5-3-2.1-6c0.6-4.2,2.2-8.5,4.9-13c2.7-4.5,6-8.8,9.9-12.9
		s8.1-7.8,12.6-11.2s8.9-6.2,13.4-8.4c4.2-2,7.4-3,9.8-3c2.3,0,3.9,0.7,4.8,2C451,237.7,451.3,239.7,451,242.3z"/>
</g>
<text transform="matrix(1 0 0 1 -63 346.0812)" class="st3 st4 st5">Agence</text>
</svg>
