<?xml version="1.0" encoding="utf-8"?>
<!-- Generator: Adobe Illustrator 25.4.1, SVG Export Plug-In . SVG Version: 6.00 Build 0)  -->
<svg version="1.1" id="Calque_1" xmlns="http://www.w3.org/2000/svg" xmlns:xlink="http://www.w3.org/1999/xlink" x="0px" y="0px"
	 viewBox="0 0 1440 570" style="enable-background:new 0 0 1440 570;" xml:space="preserve">
<style type="text/css">
	.st0{fill:#0C7189;}
	.st1{display:none;opacity:0.5;fill:#0D4F6C;enable-background:new    ;}
	.st2{font-family:'HearthStone';}
	.st3{font-size:300px;}
	.st4{opacity:0.25;}
	.st5{fill:#0D4F6C;}
</style>
<path class="st0" d="M1440,0H0v473.3c0,0,120.3-78.2,379.1-80.2c258.7-2,425.2,170.5,677.9,170.5s383.1-80.2,383.1-80.2L1440,0
	L1440,0z"/>
<text transform="matrix(1 0 0 1 -63 346.0812)" class="st1 st2 st3">Services</text>
<g class="st4">
	<path class="st5" d="M611.1,219c2.2,0.5,5.1-0.5,8.7-2.9c4-3.4,6.5-6.7,7.4-9.9s0.8-5.7-0.3-7.7c-1.1-1.9-2.9-3-5.4-3.3
		s-5.1,0.8-7.7,3.1c-2.8,2.8-4.8,5.8-5.8,8.9c-1.1,3.1-1.4,5.7-0.9,7.8C607.5,217.2,608.9,218.5,611.1,219z"/>
	<path class="st5" d="M944.7,255.3c-1-0.3-2.1,0-3.3,0.8c-3,2-7.1,4.9-12.3,8.7c-5.2,3.8-10.6,7.8-16,12c-5.5,4.2-10.9,8.2-16,12
		c-5.2,3.8-9.3,6.6-12.3,8.4c-1-2.4-2.1-5.7-3.3-10s-2.2-8.8-3.1-13.5c-0.9-4.7-1.4-9.2-1.5-13.6s0.4-7.8,1.6-10.2
		c1.8-3.6,4.2-6.2,7.2-7.7s6-2.3,9-2.4c3-0.1,5.6,0.3,7.8,1.2s3.3,1.8,3.3,2.5c0.8,1,1.7,1.5,2.9,1.5c1.1,0,2.1-0.3,3-0.9
		c0.9-0.6,1.4-1.4,1.6-2.5c0.2-1.1-0.2-2.2-1.2-3.5c-2.4-2.6-5.4-4.4-8.9-5.5s-7.3-1.6-11.2-1.5c-4,0.1-8,0.9-12,2.2
		c-4,1.4-7.6,3.2-10.8,5.4c-5.8,4-9.3,9-10.5,15c-0.2,0.9-0.3,1.8-0.5,2.7c-10.2,7.5-19.5,14.4-27.9,20.7
		c-8.5,6.4-16.3,11.9-23.2,16.5c-2,1.4-4.7,3.3-8,5.5c-3.3,2.3-6.8,4.6-10.4,6.9c-3.6,2.3-7.2,4.3-10.8,6s-6.7,2.5-9.3,2.5
		s-4.5-1-5.8-3.2c-1.3-2.1-1.4-5.7-0.2-10.9c0.6-2.6,1.5-5.5,2.5-8.7c1.1-3.2,2.4-6.5,3.9-9.8s3.1-6.6,4.8-9.9s3.2-6.2,4.7-8.8
		c0.4-0.6,0.8-1.2,1-1.8s0.6-1.2,1-1.8c3.8-1,7.5-2.2,11.2-3.6s7.3-3,11-4.8c5.8-3,10.5-6.3,14.2-10.1c3.7-3.7,5.9-7.1,6.8-10.4
		c0.8-3.2,0-5.7-2.4-7.6c-2.4-1.9-6.8-2.5-13.2-1.9s-12.6,3-18.6,7c-6,4.1-11.6,9.2-16.8,15.3c-3.5,4.1-6.7,8.5-9.6,13.2
		c-3.5,2.7-8,6.4-13.5,11.1c-6,5.1-12.7,10.5-20,16.2s-15.1,11.2-23.4,16.5c-8.3,5.3-16.6,9.5-24.8,12.5c-5.2,2-9.1,2.5-11.7,1.5
		c-2.6-1-4.3-2.9-5.1-5.7c-0.8-2.8-0.8-6.2-0.1-10.3c0.7-4.1,1.7-8.1,3-12.2c1.3-4,2.7-7.8,4.2-11.4s2.9-6.3,4-8.1
		c2.6-4.8,5.9-9.8,10.1-15.1c4.1-5.3,8.6-9.6,13.5-13s10.1-5.3,15.8-5.9c5.6-0.5,11.3,1.8,17.1,6.8c1,0.8,2,1.2,3.2,1
		c1.1-0.1,2-0.5,2.7-1.2s1.1-1.5,1.2-2.6c0.1-1-0.4-1.9-1.3-2.7c-5.2-4.4-10.5-7.4-15.9-8.9s-10.7-1.8-15.9-0.9
		c-5.2,0.9-10.3,2.8-15.3,5.5c-5,2.8-9.7,6.3-14.1,10.5c-4.6,4.4-9.1,10-13.3,16.6c-0.3,0.4-0.6,0.9-0.8,1.3
		c-1.1,1.1-2.8,2.6-4.9,4.5c-3.9,3.6-8.7,7.9-14.4,12.9s-12,10.2-18.8,15.6s-13.5,10.2-20.1,14.4c-6.4,4-11.4,6.6-15,7.8
		c-3.6,1.2-6.1,1.2-7.6-0.1c-1.5-1.3-2-3.7-1.5-7.2s1.9-8,4-13.3c3.6-9.4,7.7-18.8,12.3-28.1c4.6-9.3,9-18.1,13.2-26.6
		c0.8-1.6,0.6-3.1-0.4-4.6c-1.1-1.5-2.7-2.6-4.7-3.3s-4.2-0.8-6.4-0.1c-2.3,0.6-4.2,2.3-5.6,5.1c-2.4,5.4-4.9,10.8-7.6,16.1
		c-1,1.9-1.9,3.9-2.9,5.8c-4.6,2.5-9.6,4.8-14.8,7.1c-6.3,2.7-12.4,4-18.1,4c-4.2,0-7.7-0.9-10.5-2.7c-2.8-1.8-5.1-4.1-6.9-6.8
		c-1.8-2.7-3.2-5.7-4.2-9.1c-1-3.4-1.8-6.6-2.4-9.6c4.4-7.8,8.1-15,11.2-21.6c3.1-6.6,5.2-11.9,6.5-15.9c1.6-4.8,2.1-8.9,1.6-12.1
		c-0.5-3.3-1.6-5.5-3.5-6.6c-1.8-1.1-4-1.1-6.8,0.1c-2.7,1.2-5.5,3.9-8.5,8.1c-3,4.6-5.7,11-8,19.2s-2.7,17.7-1,28.5
		c-5.8,9.8-12.2,20.1-19.2,30.8s-14.5,20.4-22.5,29c-6.8,7.6-11.9,12-15.3,13.2s-5.4-0.1-6-3.9c-0.6-4.2-0.5-9.9,0.5-17.2
		c0.9-7.3,2.1-14.9,3.8-22.8c1.6-7.9,3.4-15.5,5.5-22.6c2.1-7.2,4-12.8,5.9-16.8c2.2-4.4,2.6-7.4,1.2-9s-3.4-2.1-6.1-1.6
		s-5.5,1.8-8.2,3.8c-2.8,2-4.6,4.3-5.4,6.9c-1.6,3.8-3.4,9.3-5.4,16.4c-1,3.6-1.9,7.2-2.8,11.1c-10.5,11.1-19.7,20.8-27.7,29.1
		c-8.1,8.5-15.3,16-21.5,22.4S382,320.4,377.3,325c-4.7,4.6-8.9,8.7-12.4,12.3c-4.2,4-7.5,6.7-9.9,8s-4,1.4-4.6,0.3
		c-0.7-1.1-0.7-3.3,0.1-6.6c0.8-3.3,2.3-7.4,4.5-12.2c2.8-6.2,6-12.5,9.6-18.9s7.2-12.8,10.8-19c3.6-6.3,6.9-12.4,10-18.3
		s5.4-11.5,7-17c1.2-3.6,1.4-6,0.8-7.2c-0.7-1.2-1.9-1.5-3.4-1.1c-1.6,0.5-3.5,1.5-5.6,3s-4,3.1-5.5,4.7c-1.8,1.8-4.2,4-7,6.4
		c-2.9,2.5-6,4.9-9.2,7.1s-6.3,4-9.3,5.5s-5.5,2.1-7.6,1.8c-2.1-0.3-3.6-1.6-4.4-4s-0.5-6.4,0.9-12c10.2-16.2,18.4-30.9,24.6-44.1
		c6.2-13.2,10.5-23.8,12.9-31.8c1.2-4,1.9-7.6,2.1-10.8s-0.2-5.7-1.2-7.5s-2.6-2.7-4.8-2.7c-2.2,0-4.9,1.3-8.1,3.9
		c-2.8,2.2-6.1,5.8-9.8,10.8c-3.7,5-7.5,11.6-11.2,19.8c-1.8,3.6-3.6,7.8-5.4,12.6s-3.6,9.9-5.2,15.1c-1.7,5.3-3.3,10.8-4.8,16.4
		c-1.5,5.6-2.8,11.1-3.8,16.5c0,0.2-0.1,0.4-0.1,0.6c-10.2,7.5-19.6,14.4-28,20.7c-8.5,6.4-16.3,11.9-23.2,16.5
		c-2,1.4-4.6,3.3-7.9,5.5c-3.3,2.3-6.8,4.6-10.4,6.9s-7.2,4.3-10.8,6s-6.7,2.5-9.3,2.5s-4.5-1-5.9-3.2c-1.3-2.1-1.4-5.7-0.1-10.9
		c0.6-2.6,1.5-5.5,2.5-8.7c1.1-3.2,2.4-6.5,3.9-9.8s3.1-6.6,4.8-9.9s3.2-6.2,4.6-8.8c0.4-0.6,0.8-1.2,1.1-1.8c0.3-0.6,0.6-1.2,1-1.8
		c3.8-1,7.5-2.2,11.2-3.6c3.7-1.4,7.4-3,11-4.8c5.8-3,10.5-6.3,14.2-10.1c3.7-3.7,5.9-7.1,6.8-10.4c0.8-3.2,0-5.7-2.4-7.6
		c-2.4-1.9-6.8-2.5-13.2-1.9c-6.4,0.6-12.6,3-18.6,7c-6,4.1-11.6,9.2-16.8,15.3c-3.1,3.6-6,7.5-8.6,11.6h-0.1
		c-21.2,0.6-41.8,3.4-61.8,8.4s-39.3,11.5-57.9,19.5c-6.2-8.6-13.8-17.3-22.6-26.1c-8.9-8.8-17.9-17.7-26.9-26.7
		S46.4,212,38.5,202.5S24.5,183.2,20,173s-6.7-20.9-6.6-31.9c0.1-11.1,3.8-22.7,10.9-35C33.1,90.9,45,77.9,60.1,67.2
		s31.5-18.8,49.4-24.4c17.8-5.6,36.2-8.6,55.4-9.2c19.1-0.5,37.1,1.9,54.1,7.1S251.1,54,264.3,65c13.2,11,22.9,25.1,29.1,42.3
		c0.4,1.2,1.1,1.9,2.2,2.1s2.1,0.1,3.1-0.3s1.8-1,2.4-1.8s0.7-1.8,0.3-3c-5.2-14.4-12.9-26.7-23-37.1
		c-10.1-10.3-21.8-18.6-34.9-24.9C230.4,36,216,31.6,200.5,29s-31.3-3.5-47.2-2.7c-16,0.8-31.8,3.3-47.2,7.5
		C90.5,38,76,43.7,62.5,51S37,67,26.5,77.1S7.9,98.7,2.1,111.5c-0.8,1.6-1.5,3.3-2.1,4.9v55.3c1,2.6,2.1,5.1,3.3,7.6
		c5,10.2,11.6,20,19.7,29.4s16.6,18.6,25.6,27.6s17.9,18,26.7,26.8C84.1,272,91.7,281,98.1,290c-15,7.2-29.9,15.6-44.7,25.2
		s-28.9,20.1-42.3,31.5c-3.8,3.2-7.5,6.5-11.1,9.8v9.8c5.5-5.2,11.2-10.3,17.1-15.3c13.2-11.1,27-21.3,41.5-30.8
		c14.5-9.4,29-17.6,43.6-24.6c12.2,18.4,20,35.6,23.4,51.5s3.6,30.5,0.6,44c-3,13.4-8.6,25.5-16.8,36.3c-0.5,0.6-1,1.2-1.5,1.8
		c8.2-2.4,16.8-4.8,26-7.1c5.1-8.6,8.9-17.9,11.2-27.9c3.4-14.7,3.1-30.9-0.8-48.5c-3.9-17.6-12.9-36.6-26.9-57
		c17.8-7.6,36.3-13.7,55.5-18.3c18.1-4.3,36.6-6.9,55.5-7.6c-0.2,0.3-0.3,0.6-0.5,0.9c-3.9,7.3-6.9,14.5-9,21.4
		c-2.1,7-3.2,13.6-3.4,19.7s1,10.9,3.6,14.2c2.8,4.2,7,6,12.4,5.2c5.5-0.7,11.3-2.5,17.6-5.5c6.2-3,12.1-6.5,17.8-10.4
		c5.7-3.9,10.1-6.9,13.4-9.1c7-4.8,14.8-10.4,23.4-16.8c6.9-5.2,14.4-10.7,22.4-16.6c0,3.2,0.3,6.1,1,8.4c1.4,4.5,3.8,7.5,7.2,9
		c3.4,1.5,7.5,1.6,12.5,0.4c4.9-1.2,10.1-3.6,15.8-7.2c-0.6,1.2-0.8,1.6-0.5,1.2s0.7-1,1.2-1.8s0.8-1.3,1-1.5s0,0.4-0.6,1.8
		c-2.2,4.2-4.7,9.4-7.5,15.6s-5.5,12.7-8.2,19.3c-2.7,6.7-5.1,13.4-7,20c-2,6.6-3.3,12.3-3.9,17.1c-0.2,2.8,0.1,5.4,0.9,7.8
		s2.4,3.7,4.8,3.9c2.4,0.2,5.9-1,10.5-3.8c4.6-2.7,10.5-7.8,17.7-15.1c4.8-5,9.9-10.1,15.3-15.5c5.4-5.3,11.2-11.1,17.4-17.4
		c6.2-6.3,12.9-13.2,20.1-20.7c5-5.2,10.4-10.9,16.2-16.9c-1.2,7.6-2,14.9-2.3,22.2c-0.3,7.8,0.4,14.3,1.9,19.5
		c1.8,6,4.5,9.5,8.1,10.5s7.5,0.6,11.7-1.3s8.4-4.7,12.6-8.4c4.2-3.7,7.8-7.3,10.8-10.9c6.8-8,13.2-16.4,19.2-25.1
		s11.6-17.3,16.8-26c2.8,9.2,6.8,15.7,12,19.4c5.2,3.7,11,5.5,17.4,5.5c6.8,0,13.7-1.5,20.9-4.6c2.9-1.3,5.6-2.5,8.3-3.8v0.1
		c-2.4,5.4-4.6,10.9-6.6,16.5s-3.4,11.5-4.2,17.7c-1.2,7.6-0.8,13.1,1.2,16.5s5.1,5.2,9.1,5.6c4.1,0.3,8.9-0.7,14.4-3
		s11.2-5.3,17.2-9.2c6.8-4.4,13.7-9.3,20.7-14.8s13.4-10.8,19.2-15.9c1.7-1.5,3.4-3,4.9-4.4c-0.2,0.5-0.4,1-0.6,1.5
		c-2.7,7.2-4.4,14.2-5.2,20.9c-0.8,6.7-0.1,12.2,2.1,16.5c2.2,4.3,6.1,7,11.7,8.2s13.4-0.2,23.4-4.2c7.6-3,15.1-6.7,22.5-11.1
		s14.7-9.2,21.9-14.4c7.2-5.2,14.1-10.6,20.9-16.2c1.3-1.1,2.6-2.2,3.9-3.3c-1.5,3.6-2.8,7.2-3.9,10.8c-2.1,7-3.2,13.6-3.5,19.7
		c-0.2,6.1,1,10.9,3.6,14.2c2.8,4.2,7,6,12.5,5.2c5.5-0.7,11.3-2.5,17.5-5.5s12.1-6.5,17.8-10.4s10.1-6.9,13.4-9.1
		c7-4.8,14.8-10.4,23.4-16.8c7.1-5.3,14.7-10.9,22.9-17c0.1,2.3,0.4,4.6,0.8,7c1.2,6.5,2.9,12.9,5.2,19.2c2.3,6.3,4,11.7,5.2,16
		c-2.6,2.2-5.2,4.5-7.7,6.9s-5,5.1-7.6,8.1c-3.4,4-5.5,7.5-6.5,10.5s-0.8,5.4,0.2,7.2c1,1.8,2.7,3,5.1,3.6c2.4,0.6,5.2,0.7,8.4,0.3
		c6-0.8,10.9-2.5,14.8-5.2s6.9-5.9,9-9.6s3.3-7.8,3.8-12.3c0.4-4.5-0.1-8.9-1.5-13.3c3.2-2,7.4-5,12.6-8.9
		c5.2-3.9,10.6-7.9,16.2-12.1c5.6-4.2,11-8.2,16.4-12.2c5.3-3.9,9.5-6.8,12.8-8.5c1.2-0.6,1.9-1.4,2.1-2.4c0.2-1,0.1-1.9-0.3-2.7
		C946.4,256.2,945.7,255.6,944.7,255.3z M794.7,241.2c3.4-3.5,7-6.3,10.8-8.5c3.6-2,6.3-3,8.2-3s2.6,0.7,2.2,1.9
		c-0.4,1.3-2,3.2-4.7,5.6s-6.8,5-12.2,7.8c-4,2.2-8.2,4-12.6,5.4C788.6,247.8,791.3,244.7,794.7,241.2z M348.3,228.8
		c0.2-1.4,0.6-3.1,1.2-5.1s1.6-5,3.1-9s4.1-10.1,7.7-18.3c3-6.2,5.3-10.7,7-13.5s2.9-4.6,3.8-5.4c0.8-0.8,1.2-0.8,1.4,0.1
		c0.1,0.9-0.1,2-0.5,3.2c-0.8,2.8-2.1,6.3-3.9,10.3c-1.8,4.1-3.9,8.6-6.1,13.5c-2.3,4.9-4.8,10-7.5,15.3s-5.5,10.5-8.2,15.4
		C347.4,232.4,348.1,230.2,348.3,228.8z M263.7,241.2c3.4-3.5,7-6.3,10.8-8.5c3.6-2,6.3-3,8.2-3c1.9,0,2.6,0.7,2.2,1.9
		c-0.4,1.3-1.9,3.2-4.6,5.6s-6.8,5-12.1,7.8c-4,2.2-8.2,4-12.6,5.4C257.6,247.8,260.3,244.7,263.7,241.2z M527.2,208.4
		c1.9-5,3.8-9.2,5.5-12.6c1.6-2.4,2.6-3.5,3.1-3.5c0.5,0.1,0.7,0.8,0.6,2c-0.1,1.2-0.4,2.6-0.8,4.2c-0.4,1.6-0.7,2.8-0.9,3.6
		c-1.8,6-5.3,14.1-10.5,24.3C524.4,219.4,525.3,213.4,527.2,208.4z M867.9,326.6c-1.8,3.2-4.7,5.9-8.7,8.1c-2.2,1.4-3.6,1.7-4.3,0.8
		c-0.7-0.9,1-3.8,5.2-8.8c3.4-4,6.9-7.5,10.5-10.5C870.6,319.9,869.7,323.4,867.9,326.6z"/>
</g>
</svg>
