<?xml version="1.0" encoding="utf-8"?>
<!-- Generator: Adobe Illustrator 25.4.1, SVG Export Plug-In . SVG Version: 6.00 Build 0)  -->
<svg version="1.1" id="Calque_1" xmlns="http://www.w3.org/2000/svg" xmlns:xlink="http://www.w3.org/1999/xlink" x="0px" y="0px"
	 viewBox="0 0 1440 570" style="enable-background:new 0 0 1440 570;" xml:space="preserve">
<style type="text/css">
	.st0{fill:#0C7189;}
	.st1{fill:none;}
	.st2{display:none;opacity:0.5;fill:#0D4F6C;}
	.st3{font-family:'HearthStone';}
	.st4{font-size:300px;}
	.st5{opacity:0.25;}
	.st6{fill:#0D4F6C;}
</style>
<g>
	<path class="st0" d="M1440,0H0v473.3c0,0,120.3-78.2,379.1-80.2c258.7-2,425.2,170.5,677.9,170.5s383.1-80.2,383.1-80.2L1440,0
		L1440,0z"/>
</g>
<rect x="-63" y="49.9" class="st1" width="1545" height="570"/>
<text transform="matrix(1 0 0 1 -63 346.0812)" class="st2 st3 st4">Contact</text>
<g class="st5">
	<path class="st6" d="M1081.9,276.6c6.7-5.5,12.8-10.6,18.4-15.4c1-0.8,1.4-1.7,1.4-2.7c-0.1-1-0.5-1.8-1-2.4
		c-0.6-0.6-1.5-0.9-2.6-1c-1.1-0.1-2.2,0.3-3.1,1c-5.4,4.6-11.4,9.6-17.9,15c-6.5,5.4-13.2,10.6-20.1,15.8
		c-6.9,5.1-13.9,9.9-21,14.2c-7.1,4.4-14,8-20.5,10.8c-8.6,3.8-15.4,5.7-20.4,5.5c-5-0.1-8.7-1.5-11-4.2c-2.3-2.7-3.6-6.3-3.8-10.8
		c-0.2-4.5,0.2-9.4,1.1-14.7c0.9-5.3,2.2-10.6,3.9-15.9c1.7-5.3,3.3-9.9,5-14c6.8-9.6,13.5-19.6,20.1-30
		c6.6-10.4,12.8-20.8,18.6-31.2c0.4-1,0.9-1.9,1.5-2.7c0.6-0.8,1.1-1.7,1.5-2.7c4.8-0.4,10.2-0.9,16.2-1.5c6-0.6,12-1.1,18-1.4
		c6-0.3,11.8-0.4,17.5-0.3c5.7,0.1,10.6,0.6,14.8,1.4c-3.4,1-6.8,2-10.2,3c-3.4,1-6.7,2.1-9.9,3.3c-1.2,0.6-2,1.3-2.4,2.2
		c-0.4,0.9-0.5,1.8-0.1,2.5c0.3,0.8,0.9,1.5,1.8,2c0.9,0.5,2,0.4,3.1-0.2c1.8-0.6,4.1-1.3,7.1-2.2c2.9-0.9,5.9-1.8,9-2.7
		c3.1-0.9,5.9-1.9,8.4-3c2.5-1.1,4.1-2.2,5-3.5c1.6-2.8,1.3-4.7-0.9-5.9c-2.2-1.1-4.4-1.9-6.6-2.5c-4.2-1-9.2-1.6-14.8-1.8
		c-5.7-0.2-11.6-0.2-17.6,0.1c-6,0.3-12,0.7-18,1.2c-6,0.5-11.4,1.1-16.2,1.7c4.6-9,8.8-17.6,12.6-25.7c3.8-8.1,7.1-15.5,9.9-22.3
		c3.2-8.6,4.8-15.2,4.9-19.7c0.1-4.5-0.9-7.1-3-7.9c-2.1-0.8-5,0.1-8.7,2.7c-3.7,2.6-7.8,6.8-12.2,12.6c-7.4,9.8-14.1,20.2-20,31.2
		c-5.9,11-11.5,21.9-17,32.7c-8.6,1-17.5,2.1-26.8,3.3c-9.3,1.2-19,2.5-29.2,3.9c-1.4,0.2-2.4,0.7-3,1.5c-0.6,0.8-0.9,1.6-0.9,2.5
		c0,0.9,0.4,1.7,1.1,2.4c0.7,0.7,1.8,1,3.1,0.8c9.4-1.4,18.4-2.6,27-3.8c8.6-1.1,17-2.1,25.2-3.2c-2,4.2-4.6,9.8-7.8,16.7
		c-3.2,6.9-6.5,14.5-9.8,22.6c-2.9,7.1-5.6,14.5-8.1,22c-3.6,2.8-8.3,6.7-14.2,11.7c-6,5.1-12.7,10.5-20,16.2
		c-7.3,5.7-15.1,11.2-23.4,16.5c-8.3,5.3-16.6,9.5-24.8,12.5c-5.2,2-9.1,2.5-11.7,1.5c-2.6-1-4.3-2.9-5.1-5.7
		c-0.8-2.8-0.8-6.2-0.1-10.3c0.7-4.1,1.7-8.1,3-12.2c1.3-4,2.7-7.8,4.2-11.4s2.9-6.3,4.1-8.1c2.6-4.8,5.9-9.8,10-15.1
		c4.1-5.3,8.6-9.6,13.5-13c4.9-3.4,10.1-5.3,15.8-5.9c5.6-0.5,11.3,1.8,17.1,6.8c1,0.8,2,1.2,3.2,1c1.1-0.1,2-0.5,2.7-1.2
		c0.7-0.7,1.1-1.5,1.2-2.6c0.1-1-0.4-1.9-1.3-2.7c-5.2-4.4-10.5-7.4-15.9-8.9c-5.4-1.5-10.7-1.8-15.9-0.9
		c-5.2,0.9-10.3,2.8-15.3,5.5c-5,2.8-9.7,6.3-14.1,10.5c-4.5,4.3-8.8,9.7-13,16.2c-2.6,2.1-6.2,5.2-10.9,9.6
		c-5.2,4.8-11.1,9.9-17.5,15.3c-6.5,5.4-13.3,10.5-20.2,15.3c-7,4.8-13.6,8.2-19.8,10.2c-7,2.2-11.6,2.3-13.8,0.3
		c-2.2-2-3-5.9-2.4-11.7c0.4-4.4,1.4-9.3,3-14.7c1.6-5.4,3.2-10.7,5-15.9c1.7-5.2,3.3-10,4.8-14.5s2.4-8,2.8-10.7
		c1-6.2,0.8-10.4-0.5-12.6c-1.3-2.2-3.1-2.9-5.5-2.2c-2.4,0.7-5.2,2.5-8.4,5.4c-3.2,2.9-6.2,6.4-9,10.4c-2.4-3.8-5.2-6.5-8.4-8.2
		c-3.2-1.7-6.6-2.6-10.2-2.6c-3.6,0-7.3,0.7-11,2c-3.7,1.3-7.3,3.1-10.9,5.2c-5.4,3.4-10.4,7.6-15,12.6c-1.8,2-3.5,4-5.2,6.1
		c-0.1,0.1-0.2,0.1-0.2,0.2c-5.4,4.6-11.4,9.6-17.9,15c-6.5,5.4-13.2,10.6-20.1,15.8c-6.9,5.1-13.9,9.9-21,14.2
		c-7.1,4.4-14,8-20.5,10.8c-8.6,3.8-15.4,5.7-20.4,5.5c-5-0.1-8.7-1.5-10.9-4.2c-2.3-2.7-3.6-6.3-3.8-10.8c-0.2-4.5,0.1-9.4,1-14.7
		c0.9-5.3,2.2-10.6,3.9-15.9c1.7-5.3,3.3-9.9,5-14c6.8-9.6,13.5-19.6,20.1-30c6.6-10.4,12.8-20.8,18.6-31.2c0.4-1,0.9-1.9,1.5-2.7
		c0.6-0.8,1.1-1.7,1.5-2.7c4.8-0.4,10.2-0.9,16.2-1.5c6-0.6,12-1.1,18-1.4c6-0.3,11.9-0.4,17.6-0.3c5.7,0.1,10.6,0.6,14.8,1.4
		c-3.4,1-6.8,2-10.2,3c-3.4,1-6.7,2.1-9.9,3.3c-1.2,0.6-2,1.3-2.4,2.2c-0.4,0.9-0.4,1.8-0.1,2.5c0.3,0.8,0.9,1.5,1.8,2
		c0.9,0.5,1.9,0.4,3.1-0.2c1.8-0.6,4.1-1.3,7-2.2c2.9-0.9,5.9-1.8,9-2.7c3.1-0.9,5.9-1.9,8.4-3c2.5-1.1,4.1-2.2,5-3.5
		c1.6-2.8,1.3-4.7-0.9-5.9c-2.2-1.1-4.4-1.9-6.6-2.5c-4.2-1-9.2-1.6-14.9-1.8c-5.7-0.2-11.5-0.2-17.5,0.1c-6,0.3-12,0.7-18,1.2
		c-6,0.5-11.4,1.1-16.2,1.7c4.6-9,8.8-17.6,12.6-25.7c3.8-8.1,7.1-15.5,9.9-22.3c3.2-8.6,4.8-15.2,5-19.7c0.1-4.5-0.9-7.1-3-7.9
		c-2.1-0.8-5,0.1-8.7,2.7c-3.7,2.6-7.8,6.8-12.1,12.6c-7.4,9.8-14.1,20.2-20,31.2c-5.9,11-11.5,21.9-16.9,32.7
		c-8.6,1-17.6,2.1-26.9,3.3c-9.3,1.2-19,2.5-29.2,3.9c-1.4,0.2-2.4,0.7-3,1.5c-0.6,0.8-0.9,1.6-0.9,2.5c0,0.9,0.4,1.7,1,2.4
		c0.7,0.7,1.8,1,3.1,0.8c9.4-1.4,18.4-2.6,27-3.8c8.6-1.1,17-2.1,25.2-3.2c-2,4.2-4.6,9.8-7.8,16.7c-3.2,6.9-6.5,14.5-9.8,22.6
		c-2.9,7.1-5.6,14.5-8.1,22c-5.1,4-10.2,8.2-15.1,12.6c-5,4.5-10.2,9-15.5,13.5c-5.3,4.5-10.7,8.8-16.2,12.8
		c-5.5,4-11.4,7.4-17.6,10.2c-2.6,1.4-4.3,1.1-5.1-0.9c-0.8-2-1-5-0.8-8.8c0.3-3.9,1.1-8.4,2.2-13.5c1.2-5.1,2.4-10.1,3.8-15
		c1.3-4.9,2.4-9.3,3.5-13.4c1-4,1.6-6.9,1.8-8.7c0.6-5.2,0.8-9.8,0.5-13.9c-0.3-4.1-1.4-6.9-3.3-8.4c-1.9-1.5-4.7-1.2-8.4,0.8
		c-3.7,2-8.7,6.4-14.8,13.2c-3.6,4-7.4,8.7-11.2,14c-3.9,5.3-7.8,10.8-11.6,16.5c-3.8,5.7-7.5,11.5-11.1,17.4
		c-3.6,5.9-6.8,11.4-9.6,16.4c0.6-3.6,1.6-8.3,3.1-14.1c1.5-5.8,3.2-11.8,5.1-18c1.9-6.2,3.9-12,6-17.4c2.1-5.4,4-9.3,5.8-11.7
		c1.8-2.4,2.1-4.2,0.9-5.5c-1.2-1.3-3-2-5.4-2.1c-2.4-0.1-4.9,0.4-7.6,1.4c-2.7,1-4.8,2.6-6.1,4.8c-2.2,3.8-4.5,9-6.9,15.6
		c-0.4,1-0.8,2.1-1.1,3.2c-8.9,8.2-18.3,15.4-28.4,21.6c-10.3,6.3-19.6,10.6-28,13.1c-5.4,1.6-9.7,2.1-12.9,1.5
		c6.2-9.8,10.3-18.8,12.3-27.2c2-8.3,2.4-15.5,1.2-21.8c-1.2-6.2-3.7-11.1-7.5-14.7c-3.8-3.6-8.4-5.5-13.8-5.8
		c-5.4-0.3-11.3,1.3-17.7,4.6c-6.4,3.4-12.7,9.1-18.9,17.1c-2.4,3.1-4.7,6.6-6.8,10.4c0,0-0.1,0.1-0.1,0.1c-3.2,4.2-9,11.5-17.4,22
		c-8.4,10.5-18.8,22.7-31.2,36.5c-12.4,13.8-26.5,28.6-42.1,44.2c-15.7,15.7-32.2,30.9-49.7,45.8c-1.7,1.5-3.5,2.9-5.3,4.4
		c4.5-0.8,9.1-1.6,13.8-2.3c16.4-14,32.1-28.4,46.9-43.3c15.8-15.9,29.9-30.8,42.5-44.7c12.5-13.9,23-26.1,31.5-36.8
		c0.3-0.4,0.6-0.8,0.9-1.1c-1.5,5.7-2.4,11.2-2.6,16.7c-0.2,6,0.7,11.4,2.7,16.2c2.2,5.6,5.6,9.2,10.2,10.7c4.6,1.5,9.6,1.5,15-0.2
		c5.4-1.6,10.9-4.5,16.5-8.8c5.6-4.3,10.6-9.5,15-15.5c2.8,1,5.9,1.3,9.3,0.9c3.4-0.4,6.7-1.1,9.9-2.1c9-2.8,19-7.5,30-14.1
		c7.1-4.3,13.9-9.1,20.4-14.4c-0.5,1.5-0.9,3-1.3,4.5c-2.1,7.2-3.9,14.2-5.6,20.9c-1.6,6.7-2.5,12.1-2.7,16.3
		c-0.4,3.6,0.4,6.2,2.4,7.8c2,1.6,4.3,2.5,6.9,2.9c2.6,0.3,5,0.1,7.2-0.8c2.2-0.8,3.4-1.8,3.6-3c-0.2,0-0.3-0.1-0.3-0.3v-0.6V317
		c2.4-4.6,5.5-10.2,9.3-17c3.8-6.7,8-13.7,12.6-20.9c4.6-7.2,9.3-14.2,14.2-21c4.9-6.8,9.5-12.6,14-17.4c1.8-2,2.9-2.9,3.3-2.6
		c0.4,0.3,0.5,1.2,0.5,2.6c-0.1,1.4-0.4,3.1-0.9,4.9c-0.5,1.9-0.9,3.5-1.1,4.6c-0.8,4.4-1.9,9.1-3.4,14.1c-1.5,5-2.9,10.1-4.1,15.1
		c-1.2,5.1-1.9,10-2.2,14.9c-0.3,4.8,0.5,9.2,2.2,13.2c1.6,3.6,4.2,6,7.8,7.1c3.6,1.1,8.7,0.1,15.3-2.9c6.2-3,12.1-6.5,17.9-10.6
		c5.7-4.1,11.2-8.4,16.6-12.9s10.7-9.1,15.9-13.8c2.4-2.1,4.7-4.2,7.1-6.2c-1.6,5.7-2.8,11.2-3.7,16.6c-1.3,8-1.6,15.2-0.9,21.6
		c0.7,6.4,3,11.4,6.9,14.8c3.9,3.5,9.5,5.2,16.9,5.1c7.4-0.1,17.2-2.7,29.4-7.9c6.8-3,13.8-6.8,21.1-11.2
		c7.3-4.5,14.5-9.3,21.6-14.6c7.1-5.2,14-10.5,20.7-16c0.7-0.5,1.3-1.1,2-1.6c-1.3,3.1-2.5,6.2-3.5,9.4c-1.9,6.3-2.9,12.5-3.2,18.5
		c-0.2,6.4,0.6,11,2.2,13.8c1.7,2.8,3.9,4.5,6.5,5c2.6,0.5,5.5,0.1,8.7-1.2c3.2-1.3,6.3-3,9.3-5.2c5.6-3.8,11-8.3,16.3-13.5
		c5.3-5.2,10.4-10.7,15.2-16.5c4.8-5.8,9.2-11.7,13.3-17.7c4.1-6,7.8-11.7,11.2-17.1c0.4-0.8,0,0.7-1,4.4c-1.1,3.7-2.3,8.5-3.6,14.2
		c-1.3,5.8-2.4,12.1-3.3,18.9c-0.9,6.8-1,12.9-0.2,18.2c0.8,5.3,2.9,9.4,6.3,12.1c3.4,2.8,8.7,3,15.9,0.6
		c7.2-2.4,14.8-6.2,22.8-11.5c8-5.3,15.7-10.9,23.1-16.8c6.8-5.4,13.1-10.7,18.8-15.7c-0.4,1.1-0.9,2.2-1.3,3.3
		c-2.7,7.2-4.4,14.2-5.2,20.9c-0.8,6.7-0.1,12.2,2.1,16.5c2.2,4.3,6.1,7,11.7,8.2s13.4-0.2,23.4-4.2c7.6-3,15.1-6.7,22.5-11.1
		c7.4-4.4,14.7-9.2,21.9-14.4c7.2-5.2,14.1-10.6,20.9-16.2c3.3-2.7,6.5-5.4,9.6-8.1c-1.4,5.3-2.5,10.4-3.3,15.3
		c-1.3,8-1.6,15.2-0.9,21.6c0.7,6.4,3,11.4,6.9,14.8c3.9,3.5,9.5,5.2,17,5.1c7.4-0.1,17.2-2.7,29.4-7.9c6.8-3,13.8-6.8,21.1-11.2
		c7.3-4.5,14.5-9.3,21.6-14.6C1068.3,287.5,1075.2,282.1,1081.9,276.6z M1037.1,157.8c4.8-9.1,9.8-18,15-26.9c-3.4,9-7.3,18-11.5,27
		c-4.3,9-8.8,17.9-13.7,26.7c-0.6,0-1.3,0.1-1.9,0.1c-0.7,0.1-1.4,0.1-2,0.1C1027.6,176,1032.3,166.9,1037.1,157.8z M1011.6,207.9
		c2.4-4.9,4.9-9.9,7.5-15.1c0.6-0.2,1.2-0.3,1.8-0.3c0.6,0,1.2-0.1,1.8-0.3c-0.2,0.4-0.4,0.8-0.5,1c-0.1,0.3-0.3,0.7-0.5,1.1
		c-2.8,4.6-5.6,9.4-8.4,14.2c-2.8,4.9-5.7,9.7-8.7,14.2C1006.9,217.8,1009.2,212.8,1011.6,207.9z M662.1,157.8
		c4.8-9.1,9.8-18,15-26.9c-3.4,9-7.3,18-11.5,27c-4.3,9-8.9,17.9-13.6,26.7c-0.6,0-1.3,0.1-2,0.1c-0.7,0.1-1.4,0.1-1.9,0.1
		C652.6,176,657.3,166.9,662.1,157.8z M636.6,207.9c2.4-4.9,4.9-9.9,7.5-15.1c0.6-0.2,1.2-0.3,1.8-0.3s1.2-0.1,1.8-0.3
		c-0.2,0.4-0.4,0.8-0.4,1c-0.1,0.3-0.3,0.7-0.5,1.1c-2.8,4.6-5.6,9.4-8.4,14.2c-2.8,4.9-5.7,9.7-8.7,14.2
		C631.9,217.8,634.2,212.8,636.6,207.9z M383.7,295.7c-3,4.2-6.5,8.2-10.5,12c-4,3.8-7.8,6.4-11.2,7.7c-3.5,1.3-6.5,0.9-9-1.3
		c-2.5-2.2-3.8-7.3-3.8-15.3c0-3.8,0.4-7.9,1.2-12.3c0.8-4.4,1.9-8.8,3.4-13.2c1.5-4.4,3.3-8.7,5.6-12.9c2.2-4.2,4.7-8,7.5-11.4
		c3-3.8,6.1-7.1,9.4-9.9c3.3-2.8,6.5-4.6,9.6-5.4c3.1-0.8,5.9-0.3,8.5,1.4c2.6,1.7,4.8,5.2,6.6,10.4c-3,1.2-6,4-9,8.5
		s-5.5,9.4-7.5,14.7c-2,5.3-3.2,10.5-3.6,15.6C380.6,289.2,381.5,293.1,383.7,295.7z M389.1,287.3c-0.4-1.8-0.2-4.4,0.6-7.7
		c0.8-3.3,1.8-6.7,3.1-10.2c1.3-3.5,2.8-6.8,4.5-9.9c1.7-3.1,3.3-5.3,5-6.8c0,2.4-0.4,5.1-1.2,8.1c-0.8,3-1.9,6.1-3.1,9.3
		c-1.3,3.2-2.8,6.3-4.4,9.1C392,282.2,390.5,284.9,389.1,287.3z M766,263.6c-3.3,5.2-6.9,10.3-10.6,15.3c-3.8,5-7.9,9.8-12.3,14.4
		c-4.4,4.6-9,8.7-13.8,12.3s-8.1,4.5-9.9,2.7s-2.2-5.1-1.2-9.9c1-4.2,2.5-8.9,4.6-14.1c2.1-5.2,4.7-10.4,7.7-15.5s6.3-9.8,9.9-14.2
		c3.6-4.4,7.3-7.9,11.1-10.5c4.6-3.2,9.1-4.8,13.5-4.8c4.4,0,7.9,3.1,10.5,9.3C772.5,253.4,769.3,258.4,766,263.6z"/>
	<path class="st6" d="M0,285.4c4.1-9.7,9-20.4,14.7-32.1c8.4-17.3,18.2-35.1,29.5-53.5c11.3-18.4,23.7-36.8,37.4-55.1
		c13.6-18.3,28-35.1,43.4-50.4c15.3-15.3,31.3-28.4,48.1-39.1c16.8-10.8,33.9-18,51.3-21.6c12.6-2.6,23.1-2.7,31.6-0.3
		c8.5,2.4,15.1,6.4,19.8,12.1c4.7,5.7,7.5,12.7,8.4,20.9c0.9,8.2-0.1,16.9-2.9,25.9c-2.8,9.1-7.4,18.3-13.8,27.6
		c-6.4,9.3-14.5,17.8-24.3,25.4c-2.2,1.8-2.5,3.5-0.9,5.1c0.6,0.8,1.4,1.2,2.6,1.2c1.1,0,2.1-0.4,3.1-1.2
		c12.6-10.6,22.4-21.8,29.5-33.6c7.1-11.8,11.6-23.1,13.5-34c1.9-10.9,1.2-20.9-1.9-30c-3.2-9.1-8.9-16.2-17-21.5
		c-8.1-5.2-18.6-8-31.5-8.5c-12.9-0.5-28,2.5-45.5,8.8C178.5,37.6,162,46.7,146,58.7c-16.1,12-31.5,25.8-46.1,41.2
		c-14.6,15.5-28.3,32.2-41.1,50.1c-12.8,17.9-24.5,35.7-35.1,53.2C14.9,218,7,232.2,0,246V285.4z"/>
</g>
</svg>
