<?xml version="1.0" encoding="utf-8"?>
<!-- Generator: Adobe Illustrator 25.4.1, SVG Export Plug-In . SVG Version: 6.00 Build 0)  -->
<svg version="1.1" id="Calque_1" xmlns="http://www.w3.org/2000/svg" xmlns:xlink="http://www.w3.org/1999/xlink" x="0px" y="0px"
	 viewBox="0 0 406 306" style="enable-background:new 0 0 406 306;" xml:space="preserve">
<style type="text/css">
	.st0{fill:#B9E59F;}
	.st1{fill:#FFFFFF;}
	.st2{fill:#231F20;}
	.st3{fill:#EBCA94;}
	.st4{fill:#E6E7E8;}
	.st5{fill:none;}
</style>
<g id="_013">
	<path class="st0" d="M179.4,273.2c-19.4,1-38.6,7.8-58,6.5c-36.2-2.5-65.9-34.3-74.2-69.8c-4.3-18.4-3.5-38.8,7.2-54.3
		c4-5.7,9.1-10.6,13.1-16.2C80.5,121.3,81.3,96.7,93.4,78c14.1-21.8,40.6-31.7,65.7-38.3c14.8-3.8,29.7-7,44.7-9.5
		c22.5-3.7,47.5-5.3,66.1,8c13.9,9.9,21.5,26.3,31,40.3c12.7,18.7,29.8,34,43.2,52.1c15.3,20.5,19.8,40,17.4,61.2l-0.2,1.8
		c-1.4,9.6-3.8,18.9-7.2,28.1c-10.3,28.5-33.1,53.7-63.5,60.3C254,290.3,216.7,271.3,179.4,273.2z"/>
	<path class="st1" d="M158.1,231.8c-18.4-9.1-38.1-15.5-58.3-19.2c10.4-6.9,11-24.6,12.7-37c5.6-39.8,45.1-65.2,75.8-86.1
		c2.5-1.8,5.3-3.5,8-5.1c3.3-1.7,12.3-7.1,14.7-2.1c2.2,4.8-3.4,13.5-6.2,17.1c1.8-2.7,4-5.4,6.2-7.9c0.7-0.9,1.6-1.6,2.7-1.9
		c2-0.5,4.1,1.5,4.4,3.6c0.3,2.1-0.5,4.2-1.5,6c-2.2,4.5-5.2,8.8-8.5,12.5c2.2-2.5,10.6-12.1,10.4-2.4c-0.1,6.1-2.6,11.9-7.1,16.1
		c1.9-1.7,4-3.2,6.2-4.5c0.6-0.5,1.4-0.7,2.2-0.6c0.8,0.4,1.4,1.2,1.5,2.1c1.4,6.2-2,10.7-4.4,16c-1.8,4.2-3,8-5.3,12
		c-8.5,14.4-17.5,28.6-27.2,42.2C182,196,158.2,231.9,158.1,231.8z"/>
	<path class="st2" d="M158.1,232.3c-0.1,0-0.1,0-0.2-0.1l0,0c-18.4-9.1-38-15.5-58.1-19.1c-0.3-0.1-0.5-0.3-0.4-0.6
		c0-0.1,0.1-0.2,0.2-0.3c8.8-5.8,10.5-19.9,11.8-31.2c0.2-1.9,0.4-3.8,0.7-5.5c5.4-38.5,42.6-63.7,72.3-84l3.6-2.4
		c2.5-1.8,5.3-3.6,8-5.1l0.7-0.4c3.1-1.6,8.8-4.8,12.3-3.7c1,0.3,1.9,1.1,2.3,2c1.2,2.5,0.4,6.1-1.1,9.3c0.1-0.1,0.1-0.2,0.2-0.2
		c0.8-1,1.8-1.7,3.1-2.1c1-0.2,2,0,2.9,0.6c1.1,0.8,1.9,2,2.1,3.4c0.3,2.2-0.5,4.4-1.5,6.3c-1.1,2.2-2.4,4.5-3.9,6.6
		c1.5-1.1,3-1.7,4.2-1.3c1.2,0.4,1.7,1.9,1.7,4.6c-0.1,4.5-1.5,9-4,12.6c0.8-0.5,1.5-1,2.3-1.5c0.7-0.6,1.7-0.8,2.6-0.6
		c1,0.4,1.7,1.4,1.8,2.5c1.1,5.1-0.8,9-2.9,13c-0.5,1-1,2.1-1.5,3.3c-0.6,1.4-1.2,2.9-1.7,4.3c-0.9,2.6-2.1,5.3-3.6,7.7
		C203,166,194,179.8,185,192.6c-1.2,1.7-7.6,11.4-13.8,20.7l-8.7,12.9C159,231.5,158.4,232.3,158.1,232.3z M101.1,212.4
		c19.7,3.8,38.8,10.1,56.8,18.8c1.2-1.7,6.8-10.2,12.2-18.3c6.2-9.3,12.6-18.9,13.8-20.7c9.1-12.7,17.9-26.6,27.1-42.2
		c1.3-2.4,2.5-5,3.5-7.6c0.5-1.4,1.1-2.9,1.7-4.3c0.5-1.1,1-2.2,1.6-3.3c2-4,3.9-7.6,2.9-12.4c-0.2-0.7-0.5-1.5-1.1-1.7
		c-0.6-0.1-1.3,0.1-1.8,0.5c-2.1,1.3-4.2,2.7-6.1,4.5c-0.2,0.2-0.5,0.1-0.7-0.1c-0.2-0.2-0.1-0.5,0-0.7c4.3-4.2,6.8-9.8,6.9-15.8
		c0-2-0.3-3.4-1-3.7c-1.3-0.5-4.2,1.6-8.3,6.3l-0.1,0.1c-0.2,0.2-0.5,0.2-0.7,0l0,0c-0.2-0.2-0.2-0.5,0-0.7l0,0l0,0
		c3.4-3.8,6.1-7.9,8.5-12.4c0.9-1.8,1.7-3.8,1.4-5.7c-0.2-1.1-0.8-2-1.7-2.7c-0.6-0.4-1.3-0.6-2-0.4c-1,0.3-1.8,1-2.4,1.8
		c-1.3,1.4-2.5,3-3.8,4.5c-1.2,1.9-2.3,3.3-2.4,3.4c-0.2,0.2-0.5,0.2-0.7,0.1c-0.2-0.2-0.3-0.5-0.1-0.7c0.8-1.2,1.6-2.3,2.5-3.6
		c2.6-4.2,5.2-9.7,3.7-13c-0.3-0.7-1-1.3-1.7-1.5c-3.1-1-8.8,2-11.5,3.6l-0.7,0.4c-2.7,1.5-5.4,3.3-7.9,5.1l-3.6,2.4
		c-29.6,20.2-66.6,45.3-71.9,83.3c-0.2,1.7-0.5,3.6-0.7,5.4C111,192.2,109.4,205.8,101.1,212.4z"/>
	<path class="st1" d="M117,36.6l69.9-17.2c2.9-0.7,5.7,1,6.4,3.9l36.9,149.6c0.7,2.9-1,5.7-3.9,6.4l-69.9,17.2
		c-2.9,0.7-5.7-1-6.4-3.9L113.1,42.9C112.4,40.2,114.1,37.3,117,36.6z"/>
	<path class="st2" d="M155,197.1c-1,0-2-0.3-3-0.8c-1.3-0.8-2.2-2-2.6-3.6L112.6,43.1c-0.7-3.1,1.1-6.2,4.3-7l69.8-17.2
		c3.1-0.7,6.2,1.1,7,4.3l36.9,149.6c0.7,3.1-1.1,6.2-4.3,7L156.4,197C156,197,155.4,197.1,155,197.1z M188.1,19.7
		c-0.4,0-0.8,0-1.1,0.1L117.1,37c-2.5,0.6-4.1,3.2-3.5,5.7l36.9,149.6c0.6,2.5,3.2,4.1,5.7,3.5l69.9-17.2l0,0
		c2.5-0.6,4.1-3.2,3.5-5.7L192.7,23.4C192.2,21.3,190.4,19.7,188.1,19.7z"/>
	<rect x="133.6" y="40.6" transform="matrix(0.971 -0.239 0.239 0.971 -19.895 43.7871)" class="st3" width="73.9" height="126.7"/>
	<path class="st1" d="M180.4,173.1l13.6-3.4c1.7-0.4,3.5,0.6,3.9,2.3l1.3,5.2c0.4,1.7-0.6,3.5-2.3,3.9l-13.6,3.4
		c-1.7,0.4-3.5-0.6-3.9-2.3l-1.3-5.2C177.5,175.3,178.7,173.5,180.4,173.1z"/>
	<path class="st4" d="M182.4,185.2c-1.7,0-3.3-1.2-3.7-2.9l-1.3-5.2c-0.5-2,0.8-4,2.7-4.5l13.6-3.4c2-0.5,4.1,0.7,4.6,2.7l1.3,5.2
		c0.5,2-0.7,4.1-2.7,4.6l0,0l-13.6,3.4C183,185.2,182.7,185.2,182.4,185.2z M194.8,170.1c-0.2,0-0.4,0-0.6,0.1l-13.6,3.4
		c-0.7,0.2-1.3,0.6-1.6,1.2c-0.4,0.6-0.5,1.3-0.3,2l1.3,5.2c0.4,1.4,1.8,2.3,3.3,2l0,0l13.6-3.4c1.4-0.4,2.3-1.8,2-3.3l0,0l-1.3-5.2
		c-0.2-0.7-0.6-1.3-1.2-1.6C195.8,170.3,195.4,170.1,194.8,170.1L194.8,170.1z M196.9,181.2L196.9,181.2z"/>
	<path class="st4" d="M140.5,38.7c-0.2,0-0.4-0.2-0.5-0.4c-0.1-0.3,0.1-0.5,0.4-0.6l0,0l20.5-5c0.3-0.1,0.5,0.1,0.6,0.4l0,0
		c0.1,0.3-0.1,0.5-0.4,0.6l-20.5,5H140.5z"/>
	<path class="st4" d="M163.7,33c-0.2,0-0.4-0.2-0.5-0.4c-0.1-0.3,0.1-0.5,0.4-0.6l2.7-0.7c0.3-0.1,0.6,0.1,0.6,0.4
		c0.1,0.3-0.1,0.6-0.4,0.6l-2.7,0.7H163.7z"/>
	<path class="st1" d="M157.3,140.7l42.5-10.5c3.8-0.9,7.5,1.3,8.5,5.1l0.7,3.1c0.9,3.8-1.3,7.5-5.1,8.5l-42.5,10.5
		c-3.8,0.9-7.5-1.3-8.5-5.1l-0.7-3.1C151.3,145.5,153.6,141.6,157.3,140.7z"/>
	<path class="st2" d="M159.7,158.2c-3.5,0-6.5-2.3-7.3-5.7l-0.7-3.1c-1-4.1,1.4-8.1,5.5-9.2l42.6-10.5c4.1-1,8.1,1.4,9.1,5.5l0,0
		l0.7,3.1c1,4.1-1.4,8.1-5.5,9.1l0,0l-42.6,10.4C160.9,158.1,160.3,158.2,159.7,158.2z M201.6,130.6c-0.5,0-1,0.1-1.5,0.2
		l-42.6,10.4c-3.5,0.8-5.6,4.4-4.8,7.8l0,0l0.7,3.1c0.8,3.5,4.4,5.6,7.8,4.8l42.6-10.5c3.5-0.8,5.6-4.4,4.8-7.8l-0.7-3.1
		C207.1,132.6,204.5,130.6,201.6,130.6L201.6,130.6z M203.9,147L203.9,147z"/>
	<rect x="142.4" y="101.1" transform="matrix(0.971 -0.239 0.239 0.971 -20.4343 44.027)" class="st1" width="57.8" height="10.4"/>
	<circle class="st3" cx="149.7" cy="112" r="1.7"/>
	<circle class="st3" cx="156.2" cy="110.3" r="1.7"/>
	<circle class="st3" cx="162.6" cy="108.8" r="1.7"/>
	<circle class="st3" cx="168.9" cy="107.2" r="1.7"/>
	
		<rect x="146.5" y="117.5" transform="matrix(0.971 -0.239 0.239 0.971 -24.2331 45.4719)" class="st1" width="57.8" height="10.4"/>
	<circle class="st3" cx="153.7" cy="128.4" r="1.7"/>
	<circle class="st3" cx="160.1" cy="126.8" r="1.7"/>
	<circle class="st3" cx="166.5" cy="125.2" r="1.7"/>
	<circle class="st3" cx="173" cy="123.7" r="1.7"/>
	<rect x="150.4" y="66.3" transform="matrix(0.971 -0.239 0.239 0.971 -13.0628 41.1939)" class="st1" width="25.8" height="16.4"/>
	<path class="st1" d="M155.4,69.8c-0.1,0-0.2,0-0.2-0.1c-0.1-0.1-0.2-0.2-0.2-0.3l-1.2-5c-0.9-3.7,1.3-7.4,5-8.3l0,0l0,0
		c3.7-0.9,7.4,1.3,8.3,5.1l1.2,5c0.1,0.2-0.1,0.5-0.3,0.6l-12.5,3.1L155.4,69.8z M160.4,56.9c-0.5,0-0.9,0.1-1.4,0.2l0,0
		c-3.2,0.8-5.2,4-4.4,7.2l0,0l1.1,4.5l11.6-2.9l-1.1-4.5C165.6,58.8,163.2,56.9,160.4,56.9z M158.9,56.6L158.9,56.6z"/>
	<circle class="st3" cx="162.8" cy="72" r="2.4"/>
	<rect x="162.9" y="72.4" transform="matrix(0.971 -0.239 0.239 0.971 -13.2382 41.2645)" class="st3" width="1.3" height="5.7"/>
	<path class="st1" d="M168,94.9h-0.1h-0.2l-0.3-0.1c-8-1.3-15.4-5.2-21.1-11.1c-2.6-2.9-4.9-6.1-6.4-9.7c-0.9-1.9-1.6-4.1-2-6.2
		c-0.1-0.5,0.1-1.1,0.7-1.2c0.4-0.2,0.9-0.4,1.4-0.7c2.1-1.1,3.9-3,4.7-5.3c0.6-1.7,0.6-3.6,0.1-5.2c-0.2-0.5,0.1-1,0.5-1.2h0.1
		l3-1.4c1.2-0.5,2.5-1.1,3.9-1.6c2.6-1.2,5.5-1.9,8.5-2.3c2-0.2,4.2-0.4,6.2-0.5l3.3-0.2c0.5-0.1,0.9,0.2,1,0.7l0,0l0.1,0.4
		c0.1,0.5,0.3,1,0.5,1.5c0.9,2,2.6,3.7,4.7,4.5c1.6,0.6,3.5,0.9,5.2,0.7c0.6-0.1,1.3,0.3,1.4,1c0,0,0,0,0,0.1
		c0.9,3.4,1.2,6.8,1,10.3c-0.5,9.4-4.5,17.6-11.7,24.5c-0.8,0.7-1.6,1.4-2.3,2l-1.1,0.9c-0.1,0.1-0.1,0.1-0.2,0.1L168,94.9L168,94.9
		z M168.5,94.3L168.5,94.3z M145.7,55.1c0.6,1.9,0.5,4-0.1,5.9c-0.9,2.5-2.7,4.6-5.2,5.8c-0.5,0.3-1,0.5-1.5,0.8c0,0-0.1,0-0.1,0.1
		c0.5,2,1.1,4.1,2,6c1.5,3.5,3.7,6.6,6.3,9.4c5.5,5.7,12.7,9.5,20.6,10.7c0.1,0,0.3,0.1,0.4,0.1h0.1h0.2l1-0.9
		c0.8-0.6,1.6-1.3,2.3-2c7-6.7,10.9-14.7,11.4-23.7c0.2-3.4-0.1-6.7-1-9.9c0-0.1,0-0.2-0.1-0.2l0,0c-0.1,0-0.2,0-0.3,0
		c-1.9,0.2-3.9-0.1-5.7-0.8c-2.3-0.9-4.3-2.7-5.3-5.1c-0.2-0.5-0.4-1.1-0.5-1.6l-0.1-0.4l-3.3,0.3c-2,0.2-4.2,0.3-6.1,0.5
		c-2.9,0.3-5.5,1.1-8.1,2.2c-1.3,0.5-2.5,1.1-3.9,1.6C147.7,54.2,146.7,54.6,145.7,55.1L145.7,55.1z"/>
	<path class="st1" d="M110,192.8c0,0,8-67.5,16-74.9c9.4-8.8,18-14.8,19.5-9.7c1.5,5,3.1,13.3-9.9,22.7l1.8,16.7
		c0,0,12.6,8.8,6.1,36.3"/>
	<path class="st2" d="M110,193.3L110,193.3c-0.3,0-0.5-0.3-0.5-0.5c0.3-2.7,8.1-67.8,16.1-75.1c9.1-8.5,15.3-12.4,18.3-11.6
		c1,0.3,1.7,1,1.9,2c3.6,11.4-3.3,18.3-9.8,23.1l1.8,16.2c1.6,1.2,12.3,10.6,6.1,36.7c-0.1,0.2-0.3,0.4-0.5,0.3l0,0
		c-0.2-0.1-0.4-0.3-0.3-0.6c6.4-27-5.7-35.7-5.9-35.8c-0.1-0.1-0.2-0.2-0.2-0.3l-1.8-16.7c0-0.2,0.1-0.3,0.2-0.4
		c12-8.8,11.4-16.5,9.7-22.3c-0.1-0.7-0.6-1.2-1.3-1.4c-2.6-0.7-8.9,3.4-17.4,11.4c-7.7,7.2-15.8,73.9-15.9,74.6
		C110.4,193.1,110.2,193.3,110,193.3z"/>
	<polygon class="st2" points="69.9,237.9 100.9,200.3 164.8,228.6 146,270.1 	"/>
	<line class="st5" x1="99.7" y1="212.6" x2="147.9" y2="237.4"/>
	<path class="st1" d="M307.8,224.7c0,0-24-47.3-42.2-68.6c-2.4-3-5.6-3.4-7.8-1.9c-2.6,1.7-2.7,7.7-2.7,7.7s-6.9-4-10.2-3.2
		c-3.3,0.8-3.7,6-3.7,6s-7.3-2.4-10.3,0.2c-3,2.6-3.1,7.3-3.1,7.3s-38.8-31.2-43-33.8c-4.3-2.6-11.9,2-8.1,7.5
		c2.3,3.5,21.9,22.9,28.2,29.1c6.3,6.2,21.1,23,22.7,27.9c1.6,4.9,3.1,10.6-7,11.3c-10.1,0.7-18.9,2.4-23.4,6.2
		c-4.4,3.8-7.3,9.4-5.1,10.5c2.2,1.1,37.7-3,51.2,2.5c13.5,5.5,31.1,25.7,31.1,25.7L307.8,224.7z"/>
	<path class="st2" d="M274.2,259.7L274.2,259.7c-0.1,0-0.3-0.1-0.4-0.2c-0.2-0.2-17.6-20.1-30.9-25.5c-9.3-3.8-29.2-3-41.1-2.5
		c-6.4,0.2-9.3,0.3-10.1,0c-0.6-0.3-1-0.9-1-1.5c-0.3-2.3,2.4-6.7,6-9.8c4-3.4,12-5.5,23.7-6.3c3.6-0.2,5.9-1.1,6.9-2.7
		c1.3-2,0.5-5-0.4-7.8c-1.6-4.8-16-21.3-22.6-27.7s-26-25.8-28.3-29.2c-1.6-2-1.4-5,0.4-6.8c1.9-2,5.7-3.1,8.5-1.4
		c4,2.4,36.7,28.7,42.3,33.2c0.2-2.5,1.3-5,3.2-6.7c2.7-2.3,8.5-1,10.3-0.5c0.2-1.5,1-5.2,4-5.9c3-0.7,7.9,1.8,9.9,2.9
		c0.1-1.7,0.7-5.8,3-7.3c2.6-1.7,6-1,8.6,1.9c17.9,21.1,42.1,68.3,42.3,68.7c0.1,0.2,0.1,0.4-0.1,0.6l-33.6,34.5
		C274.6,259.7,274.4,259.7,274.2,259.7z M217.9,230.1c9.6,0,19.7,0.6,25.6,3.1c12.5,5.1,28.2,22.3,30.9,25.4l32.9-33.9
		c-2.1-4.3-24.8-48.2-41.9-68.2c-2.1-2.5-5-3.3-7.1-1.8c-1.9,1.3-2.4,5.7-2.5,7.3c0,0.2-0.1,0.3-0.3,0.4s-0.4,0.1-0.5,0
		c-0.1,0-6.7-3.9-9.8-3.1c-2.9,0.7-3.3,5.5-3.3,5.6c0,0.3-0.3,0.5-0.5,0.5h-0.1c-0.1,0-7.1-2.3-9.9,0.1c-2.7,2.4-3,6.9-3,7
		c0,0.2-0.1,0.4-0.3,0.4c-0.2,0.1-0.4,0.1-0.5-0.1c-0.4-0.3-38.7-31.2-43-33.7c-2.3-1.4-5.5-0.4-7.1,1.3c-1.5,1.5-1.6,3.9-0.3,5.6
		c2.3,3.4,21.7,22.7,28.2,29c5.9,5.8,21.1,22.9,22.8,28.1c1,3.1,1.9,6.3,0.3,8.8c-1.2,1.8-3.8,3-7.7,3.2
		c-11.5,0.8-19.2,2.9-23.1,6.1c-3.6,3.1-5.9,7.1-5.7,8.9c0,0.3,0.2,0.6,0.4,0.7c0.6,0.3,5,0.1,9.6-0.1
		C206.5,230.4,212.1,230.1,217.9,230.1L217.9,230.1z"/>
	<polygon class="st2" points="304.2,211 255.3,250.9 279.7,286.8 336.1,239.9 	"/>
	<rect x="233.5" y="43.5" class="st1" width="62.7" height="46.2"/>
	<path class="st4" d="M296.2,90.4h-62.6c-0.3,0-0.5-0.2-0.5-0.5V43.5c0-0.3,0.2-0.5,0.5-0.5h62.7c0.3,0,0.5,0.2,0.5,0.5v46.3
		C296.8,90.1,296.5,90.4,296.2,90.4z M234,89.3h61.6V44.1h-61.7L234,89.3z"/>
	<path class="st3" d="M286.4,58.3c-0.2,0.3-0.4,0.6-0.6,0.8l-21.7,21.6c-0.4,0.6-1.1,0.7-1.7,0.4c-0.2-0.1-0.3-0.2-0.4-0.4
		l-12.1-12.6c-0.5-0.4-0.6-1.1-0.2-1.6c0.1-0.1,0.2-0.2,0.3-0.3l3.1-2.7c0.4-0.5,1.1-0.6,1.6-0.2c0.1,0.1,0.1,0.1,0.2,0.2l7.2,7.3
		c0.4,0.6,1.1,0.7,1.7,0.4c0.2-0.1,0.3-0.2,0.4-0.4L281,54c0.4-0.5,1.1-0.7,1.6-0.3c0.1,0.1,0.2,0.2,0.3,0.3
		c0.9,0.9,1.9,1.9,2.9,2.9c0.2,0.3,0.4,0.5,0.6,0.8V58.3z"/>
	<path class="st4" d="M232.9,115.2c-0.3,0-0.5-0.2-0.5-0.5s0.2-0.5,0.5-0.5c5.3-0.5,9.5-2.6,12.4-6.4c6.7-8.7,4.6-23.1,4.6-23.3
		c0-0.3,0.1-0.5,0.4-0.6l0,0c0.3,0,0.5,0.2,0.6,0.4c0.1,0.6,2.2,15.1-4.8,24C243,112.4,238.6,114.6,232.9,115.2L232.9,115.2z"/>
	<path class="st1" d="M149.6,242.3c-0.1,0-0.1,0-0.2,0l-53.1-24.8c-0.3-0.1-0.4-0.4-0.3-0.6c0.1-0.3,0.4-0.4,0.6-0.3
		c0,0,0.1,0,0.1,0.1l53.1,24.8c0.3,0.1,0.4,0.4,0.2,0.7l0,0C150,242.2,149.8,242.3,149.6,242.3z"/>
	<path class="st1" d="M265.6,257.4c-0.2,0-0.3-0.1-0.4-0.2c-0.2-0.2-0.1-0.5,0.1-0.7l42.1-32.2c0.2-0.2,0.5-0.1,0.7,0.1
		c0.2,0.2,0.1,0.5-0.1,0.7l-42.2,32.2C265.9,257.4,265.7,257.4,265.6,257.4z"/>
</g>
</svg>
