<?xml version="1.0" encoding="utf-8"?>
<!-- Generator: Adobe Illustrator 25.4.1, SVG Export Plug-In . SVG Version: 6.00 Build 0)  -->
<svg version="1.1" id="Calque_1" xmlns="http://www.w3.org/2000/svg" xmlns:xlink="http://www.w3.org/1999/xlink" x="0px" y="0px"
	 viewBox="0 0 892 217" style="enable-background:new 0 0 892 217;" xml:space="preserve">
<style type="text/css">
	.st0{display:none;}
	.st1{display:inline;fill:#FFFFFF;stroke:#0C7189;stroke-width:3;stroke-miterlimit:10;}
	.st2{fill:#FFFFFF;}
	.st3{fill:#0C7189;}
</style>
<g>
	<g class="st0">
		<path class="st1" d="M4.4,207.5V66.9h27.2v140.6H4.4z M24.4,155.5v-22.2H57c4.3,0,8.1-0.9,11.6-2.7c3.5-1.8,6.2-4.3,8.1-7.6
			c1.9-3.3,2.9-7.2,2.9-11.9c0-4.5-1-8.4-2.9-11.7c-1.9-3.3-4.6-5.8-8.1-7.6c-3.5-1.8-7.3-2.7-11.6-2.7H24.4V66.9h35.4
			c8.9,0,17,1.8,24.1,5.4c7.1,3.6,12.8,8.7,16.9,15.3c4.1,6.6,6.2,14.4,6.2,23.5c0,9.1-2.1,16.9-6.2,23.6
			c-4.1,6.7-9.8,11.8-16.9,15.4c-7.1,3.6-15.2,5.4-24.1,5.4H24.4z"/>
		<path class="st1" d="M127.6,207.5V66.9h27.2v140.6H127.6z M147.6,148.9v-21.4H180c6.8,0,12-1.7,15.6-5.1c3.6-3.4,5.4-8,5.4-13.9
			c0-5.6-1.8-10.2-5.4-13.9c-3.6-3.7-8.7-5.5-15.4-5.5h-32.6V66.9h35.2c8.9,0,16.8,1.8,23.7,5.3c6.9,3.5,12.2,8.4,16,14.5
			c3.8,6.1,5.7,13.2,5.7,21.2c0,8.3-1.9,15.4-5.7,21.5c-3.8,6.1-9.2,10.8-16.1,14.3c-6.9,3.5-15,5.2-24.2,5.2H147.6z M204.4,207.5
			l-46.6-60.8l25.2-7.8l54.4,68.6H204.4z"/>
		<path class="st1" d="M255.6,207.5V66.9h27.2v140.6H255.6z"/>
		<path class="st1" d="M311.6,207.5V66.9h19l8.2,27.4v113.2H311.6z M408.8,207.5L325.4,99.7l5.2-32.8l83.6,107.8L408.8,207.5z
			 M408.8,207.5l-7.8-26.4V66.9h27.2v140.6H408.8z"/>
		<path class="st1" d="M447,91.1V66.9h117v24.2H447z M491.8,207.5V69.9h27.4v137.6H491.8z"/>
	</g>
</g>
<g>
	<g>
		<path class="st2" d="M91.9,72.3c-7.1-3.6-15.2-5.4-24.1-5.4H39.6h-7.2h-20v140.6h27.2v-52h28.2c8.9,0,17-1.8,24.1-5.4
			c7.1-3.6,12.8-8.7,16.9-15.4c4.1-6.7,6.2-14.5,6.2-23.6c0-9.1-2.1-16.9-6.2-23.5C104.7,81,99,75.9,91.9,72.3z M84.7,123
			c-1.9,3.3-4.6,5.8-8.1,7.6c-3.5,1.8-7.3,2.7-11.6,2.7H39.6V89.1H65c4.3,0,8.1,0.9,11.6,2.7c3.5,1.8,6.2,4.3,8.1,7.6
			c1.9,3.3,2.9,7.2,2.9,11.7C87.6,115.8,86.6,119.7,84.7,123z"/>
		<path class="st3" d="M67.8,66.9c8.9,0,17,1.8,24.1,5.4c7.1,3.6,12.8,8.7,16.9,15.3c4.1,6.6,6.2,14.4,6.2,23.5
			c0,9.1-2.1,16.9-6.2,23.6c-4.1,6.7-9.8,11.8-16.9,15.4c-7.1,3.6-15.2,5.4-24.1,5.4H39.6v52H12.4V66.9h20h7.2H67.8 M39.6,133.3H65
			c4.3,0,8.1-0.9,11.6-2.7c3.5-1.8,6.2-4.3,8.1-7.6c1.9-3.3,2.9-7.2,2.9-11.9c0-4.5-1-8.4-2.9-11.7c-1.9-3.3-4.6-5.8-8.1-7.6
			c-3.5-1.8-7.3-2.7-11.6-2.7H39.6V133.3 M67.8,60.9H39.6h-7.2h-20c-3.3,0-6,2.7-6,6v140.6c0,3.3,2.7,6,6,6h27.2c3.3,0,6-2.7,6-6
			v-46h22.2c9.8,0,18.9-2,26.8-6c8.1-4.1,14.6-10,19.3-17.6c4.7-7.6,7.1-16.6,7.1-26.8c0-10.2-2.4-19.1-7.1-26.7
			c-4.7-7.5-11.2-13.4-19.3-17.5C86.7,62.9,77.6,60.9,67.8,60.9L67.8,60.9z M45.6,95.1H65c3.3,0,6.2,0.7,8.8,2
			c2.5,1.3,4.3,3,5.7,5.3c1.4,2.3,2.1,5.2,2.1,8.6c0,3.6-0.7,6.5-2.1,8.8c-1.4,2.3-3.2,4-5.7,5.3c-2.6,1.4-5.5,2-8.8,2H45.6V95.1
			L45.6,95.1z"/>
	</g>
	<g>
		<path class="st2" d="M213,143.7c6.9-3.5,12.3-8.2,16.1-14.3c3.8-6.1,5.7-13.2,5.7-21.5c0-8-1.9-15.1-5.7-21.2
			c-3.8-6.1-9.1-11-16-14.5c-6.9-3.5-14.8-5.3-23.7-5.3h-28h-7.2h-20v140.6h27.2v-58.6h4.7l44.9,58.6h33l-46.9-59.1
			C202.9,147.6,208.2,146.1,213,143.7z M161.4,89.1h25.4c6.7,0,11.8,1.8,15.4,5.5c3.6,3.7,5.4,8.3,5.4,13.9c0,5.9-1.8,10.5-5.4,13.9
			c-3.6,3.4-8.8,5.1-15.6,5.1h-25.2V89.1z"/>
		<path class="st3" d="M189.4,66.9c8.9,0,16.8,1.8,23.7,5.3c6.9,3.5,12.2,8.4,16,14.5c3.8,6.1,5.7,13.2,5.7,21.2
			c0,8.3-1.9,15.4-5.7,21.5c-3.8,6.1-9.2,10.8-16.1,14.3c-4.8,2.4-10.1,3.9-15.9,4.7l46.9,59.1h-33l-44.9-58.6h-4.7v58.6h-27.2V66.9
			h20h7.2H189.4 M161.4,127.5h25.2c6.8,0,12-1.7,15.6-5.1c3.6-3.4,5.4-8,5.4-13.9c0-5.6-1.8-10.2-5.4-13.9
			c-3.6-3.7-8.7-5.5-15.4-5.5h-25.4V127.5 M189.4,60.9h-28h-7.2h-20c-3.3,0-6,2.7-6,6v140.6c0,3.3,2.7,6,6,6h27.2c3.3,0,6-2.7,6-6
			v-47l38.8,50.7c1.1,1.5,2.9,2.4,4.8,2.4h33c2.3,0,4.4-1.3,5.4-3.4c1-2.1,0.7-4.5-0.7-6.3l-40.9-51.6c2.8-0.8,5.4-1.9,7.9-3.1
			c7.9-4,14.1-9.5,18.5-16.5c4.4-7,6.6-15.3,6.6-24.7c0-9.1-2.2-17.3-6.6-24.4c-4.4-7-10.5-12.7-18.4-16.7
			C208.1,62.9,199.3,60.9,189.4,60.9L189.4,60.9z M167.4,95.1h19.4c5,0,8.7,1.2,11.1,3.7c2.5,2.5,3.7,5.7,3.7,9.7
			c0,4.2-1.2,7.3-3.5,9.5c-2.4,2.3-6.3,3.5-11.5,3.5h-19.2V95.1L167.4,95.1z"/>
	</g>
	<g>
		<rect x="259.4" y="66.9" class="st2" width="27.2" height="140.6"/>
		<path class="st3" d="M286.6,66.9v140.6h-27.2V66.9H286.6 M286.6,60.9h-27.2c-3.3,0-6,2.7-6,6v140.6c0,3.3,2.7,6,6,6h27.2
			c3.3,0,6-2.7,6-6V66.9C292.6,63.6,289.9,60.9,286.6,60.9L286.6,60.9z"/>
	</g>
	<g>
		<polygon class="st2" points="404.8,157.7 334.4,66.9 315.4,66.9 315.4,207.5 342.6,207.5 342.6,117 412.6,207.5 432,207.5 
			432,66.9 404.8,66.9 		"/>
		<path class="st3" d="M432,66.9v140.6h-19.4l-70-90.5v90.5h-27.2V66.9h19l70.4,90.8V66.9H432 M432,60.9h-27.2c-3.3,0-6,2.7-6,6
			v73.3l-59.7-76.9c-1.1-1.5-2.9-2.3-4.7-2.3h-19c-3.3,0-6,2.7-6,6v140.6c0,3.3,2.7,6,6,6h27.2c3.3,0,6-2.7,6-6v-72.9l59.3,76.6
			c1.1,1.5,2.9,2.3,4.7,2.3H432c3.3,0,6-2.7,6-6V66.9C438,63.6,435.3,60.9,432,60.9L432,60.9z"/>
	</g>
	<g>
		<polygon class="st2" points="567.8,66.9 450.8,66.9 450.8,91.1 495.6,91.1 495.6,207.5 523,207.5 523,91.1 567.8,91.1 		"/>
		<path class="st3" d="M567.8,66.9v24.2H523v116.4h-27.4V91.1h-44.8V66.9H567.8 M567.8,60.9h-117c-3.3,0-6,2.7-6,6v24.2
			c0,3.3,2.7,6,6,6h38.8v110.4c0,3.3,2.7,6,6,6H523c3.3,0,6-2.7,6-6V97.1h38.8c3.3,0,6-2.7,6-6V66.9
			C573.8,63.6,571.1,60.9,567.8,60.9L567.8,60.9z"/>
	</g>
</g>
</svg>
