<svg width="250" height="250" viewBox="0 0 250 250" fill="none" xmlns="http://www.w3.org/2000/svg">
<g filter="url(#filter0_i_74_19)">
<path d="M107.534 0C118.84 0 130.021 0 141.327 0C142.08 0.250747 142.96 0.501493 143.714 0.626867C213.812 11.5343 260.795 76.6031 247.856 146.436C238.936 194.705 210.169 227.678 163.688 242.974C117.207 258.394 74.8718 248.114 38.5665 215.266C16.5823 195.457 4.64808 169.881 0 140.92C0 129.636 0 118.478 0 107.194C0.251248 105.815 0.628125 104.311 0.879372 102.932C6.53244 72.8419 20.8536 47.7672 44.4708 27.9582C62.8119 12.6627 84.1679 4.13732 107.534 0ZM62.9375 61.5583C61.1788 61.5583 60.5507 61.5583 59.9225 61.5583C54.8976 61.1822 50.1239 62.0598 49.4958 67.827C48.8677 73.7195 53.2645 75.4748 58.2894 76.1016C69.2187 77.6061 80.0223 79.2359 90.9516 80.6151C100.373 81.7434 100.373 81.618 100.373 91.2718C100.373 95.7852 100.499 100.424 100.373 104.937C99.8709 117.726 101.881 130.639 97.7353 143.302C95.0972 151.576 93.0872 160.102 90.9516 168.502C87.5598 181.29 84.0423 194.203 80.7761 206.991C79.3942 212.508 81.7811 216.896 86.6804 218.4C90.9516 219.779 94.9716 217.272 96.9815 211.756C97.9865 208.997 98.7403 206.239 99.6196 203.481C105.398 184.675 111.177 165.744 116.956 146.938C117.835 143.929 118.966 141.797 122.734 141.672C126.378 141.672 128.011 143.427 128.89 146.561C129.392 148.191 129.895 149.696 130.523 151.326C137.056 170.758 143.714 190.317 150.246 209.75C151.377 212.884 152.382 216.269 155.899 217.523C158.788 218.526 161.678 218.526 164.19 216.394C167.582 213.511 167.456 210 166.326 206.114C160.924 188.185 156.653 169.881 149.995 152.454C141.955 131.015 143.588 109.2 143.462 87.2598C143.462 83.7494 145.095 81.8688 148.487 81.4927C153.387 80.8658 158.412 80.1136 163.311 79.4867C172.984 78.233 182.657 76.9792 192.33 75.7255C196.601 75.0986 199.365 72.7165 199.239 68.3285C198.988 63.5643 195.847 61.5583 191.199 61.5583C189.692 61.5583 188.31 61.5583 186.803 61.6837C167.456 62.5613 148.362 65.3195 129.016 65.5703C106.529 65.821 84.2935 63.4389 62.9375 61.5583ZM122.734 55.7911C131.026 55.7911 138.061 49.2717 138.312 41.1224C138.563 33.0986 130.9 25.4508 122.86 25.5762C114.694 25.7015 108.036 32.4717 108.036 40.8717C107.911 49.3971 114.192 55.7911 122.734 55.7911Z" fill="#B5DEFF"/>
</g>
<defs>
<filter id="filter0_i_74_19" x="0" y="0" width="250" height="254" filterUnits="userSpaceOnUse" color-interpolation-filters="sRGB">
<feFlood flood-opacity="0" result="BackgroundImageFix"/>
<feBlend mode="normal" in="SourceGraphic" in2="BackgroundImageFix" result="shape"/>
<feColorMatrix in="SourceAlpha" type="matrix" values="0 0 0 0 0 0 0 0 0 0 0 0 0 0 0 0 0 0 127 0" result="hardAlpha"/>
<feOffset dy="4"/>
<feGaussianBlur stdDeviation="2"/>
<feComposite in2="hardAlpha" operator="arithmetic" k2="-1" k3="1"/>
<feColorMatrix type="matrix" values="0 0 0 0 0 0 0 0 0 0 0 0 0 0 0 0 0 0 0.25 0"/>
<feBlend mode="normal" in2="shape" result="effect1_innerShadow_74_19"/>
</filter>
</defs>
</svg>
