<?xml version="1.0" encoding="utf-8"?>
<!-- Generator: Adobe Illustrator 25.4.1, SVG Export Plug-In . SVG Version: 6.00 Build 0)  -->
<svg version="1.1" id="Calque_1" xmlns="http://www.w3.org/2000/svg" xmlns:xlink="http://www.w3.org/1999/xlink" x="0px" y="0px"
	 viewBox="0 0 344.3 270" style="enable-background:new 0 0 344.3 270;" xml:space="preserve">
<style type="text/css">
	.st0{fill:none;}
	.st1{display:none;}
	.st2{font-family:'BellMT';}
	.st3{font-size:79px;}
	.st4{fill:#EBCA94;}
</style>
<rect x="41.2" y="33" class="st0" width="330" height="198"/>
<text transform="matrix(1 0 0 1 41.1915 85.7715)" class="st1 st2 st3">‘‘</text>
<g>
	<path class="st4" d="M84.7,265c-20.9,0-39.1-7.6-54.7-22.7c-15.6-15.1-23.4-34-23.4-56.7c0-43.1,23-84.3,69.1-123.5
		c46-39.1,75.3-58.7,87.7-58.7c8.9,0,13.3,4,13.3,12c0,3.6-15.6,18.2-46.7,44c-33.8,28-50.7,52-50.7,72.1
		c0,11.6,10.2,22.5,30.7,32.7c22.7,11.1,34,27.1,34,48c0,14.2-5.5,26.6-16.4,37C116.8,259.8,102.4,265,84.7,265z"/>
	<path class="st4" d="M244.3,265c-20.9,0-39.1-7.6-54.7-22.7c-15.6-15.1-23.4-34-23.4-56.7c0-43.1,23-84.3,69.1-123.5
		C281.3,23,310.6,3.4,323,3.4c8.9,0,13.3,4,13.3,12c0,3.6-15.6,18.2-46.7,44c-33.8,28-50.7,52-50.7,72.1c0,11.6,10.2,22.5,30.7,32.7
		c22.7,11.1,34,27.1,34,48c0,14.2-5.5,26.6-16.4,37C276.4,259.8,262.1,265,244.3,265z"/>
</g>
</svg>
