<svg width="251" height="251" viewBox="0 0 251 251" fill="none" xmlns="http://www.w3.org/2000/svg">
<g filter="url(#filter0_i_74_30)">
<path d="M124.901 250.001C55.9012 250.301 -0.298804 193.401 0.00119551 124.501C0.301196 56.0012 56.4012 -0.298807 125.501 0.00119341C194.201 0.201193 250.201 56.5012 250.001 125.401C249.801 193.901 193.701 250.401 124.901 250.001ZM137.801 131.301C137.601 131.301 137.301 131.301 137.101 131.301C135.801 127.501 134.501 123.701 133.201 119.801C131.701 115.401 130.201 111.001 128.701 106.701C128.101 105.101 127.001 103.801 125.201 103.801C123.201 103.801 122.101 105.101 121.501 106.801C121.301 107.301 121.201 107.701 121.001 108.201C118.601 115.301 116.201 122.301 113.801 129.401C113.601 130.101 113.601 131.001 112.401 131.401C111.601 128.901 110.701 126.501 109.901 124.101C108.001 118.301 106.001 112.501 104.101 106.801C103.301 104.601 101.401 103.501 99.6012 104.001C97.6012 104.501 96.6012 106.301 97.1012 108.901C97.2012 109.501 97.4012 110.201 97.6012 110.801C101.201 121.301 104.701 131.901 108.301 142.401C109.001 144.601 110.001 146.601 112.701 146.501C115.401 146.501 116.401 144.501 117.201 142.401C119.501 135.601 121.801 128.901 124.201 122.101C124.401 121.401 124.401 120.401 125.201 120.401C126.101 120.401 126.101 121.401 126.301 122.101C128.701 128.901 131.001 135.801 133.301 142.601C134.001 144.701 135.101 146.501 137.601 146.601C140.001 146.701 141.201 145.001 141.901 143.001C145.701 131.801 149.501 120.501 153.201 109.301C154.001 106.801 153.201 104.801 151.101 104.101C148.901 103.401 147.101 104.401 146.301 106.901C144.401 112.401 142.601 118.001 140.701 123.501C139.701 126.001 138.701 128.701 137.801 131.301ZM61.0012 119.901C62.0012 120.601 62.1012 121.301 62.3012 122.001C63.4012 125.201 64.5012 128.401 65.6012 131.701C67.0012 135.601 68.3012 139.501 69.7012 143.401C70.4012 145.201 71.6012 146.501 73.7012 146.401C75.9012 146.401 77.0012 145.001 77.8012 143.101C78.0012 142.701 78.1012 142.301 78.2012 141.901C81.9012 131.001 85.5012 120.001 89.2012 109.101C90.0012 106.601 89.3012 104.501 87.3012 103.801C85.1012 103.001 83.2012 104.101 82.3012 106.701C80.7012 111.501 79.2012 116.301 77.5012 121.001C76.3012 124.401 75.1012 127.801 74.0012 131.201C72.9012 130.901 72.9012 130.101 72.7012 129.501C70.2012 122.301 67.8012 115.101 65.3012 107.801C65.0012 106.901 64.7012 105.901 64.2012 105.101C63.4012 104.001 62.2012 103.401 60.8012 103.501C58.9012 103.701 58.1012 105.101 57.5012 106.701C55.0012 114.101 52.5012 121.401 49.9012 128.801C49.6012 129.601 49.7012 130.601 48.6012 131.001C47.8012 129.701 47.4012 128.301 47.0012 127.001C44.7012 120.201 42.4012 113.301 40.1012 106.501C39.3012 104.101 37.4012 103.001 35.5012 103.701C33.5012 104.401 32.6012 106.301 33.2012 108.701C33.3012 109.301 33.5012 109.801 33.7012 110.301C37.3012 120.901 40.9012 131.501 44.5012 142.101C45.2012 144.201 46.3012 146.101 48.8012 146.101C51.3012 146.101 52.5012 144.401 53.2012 142.201C54.8012 137.501 56.4012 132.801 58.0012 128.201C58.9012 125.601 60.0012 122.801 61.0012 119.901ZM188.401 119.801C189.801 121.101 189.901 122.401 190.301 123.501C192.501 129.901 194.601 136.301 196.801 142.601C197.501 144.701 198.701 146.501 201.301 146.401C203.701 146.301 204.801 144.601 205.501 142.601C206.401 139.801 207.401 137.101 208.301 134.301C211.001 126.301 213.701 118.301 216.401 110.301C216.601 109.801 216.701 109.401 216.801 108.901C217.301 106.501 216.401 104.601 214.301 104.001C212.601 103.501 210.601 104.601 209.801 106.801C207.901 112.201 206.201 117.601 204.301 122.901C203.301 125.801 202.301 128.601 201.301 131.601C200.401 131.101 200.301 130.501 200.201 130.001C197.601 122.501 195.001 115.001 192.401 107.401C191.801 105.601 190.901 103.901 188.601 103.901C186.301 103.901 185.401 105.501 184.701 107.501C182.201 115.001 179.501 122.601 176.901 130.101C176.701 130.601 176.801 131.301 175.701 131.301C174.501 127.701 173.201 124.001 171.901 120.401C170.401 115.901 168.901 111.301 167.301 106.801C166.501 104.501 164.501 103.401 162.601 104.001C160.801 104.601 159.601 106.701 160.301 108.701C164.101 120.201 168.001 131.601 171.901 143.101C172.601 145.101 173.901 146.501 176.201 146.401C178.401 146.401 179.501 144.901 180.201 143.001C181.701 138.801 183.101 134.601 184.601 130.301C185.901 126.901 187.101 123.501 188.401 119.801Z" fill="#B5DEFF"/>
</g>
<defs>
<filter id="filter0_i_74_30" x="0" y="0" width="250.002" height="254.003" filterUnits="userSpaceOnUse" color-interpolation-filters="sRGB">
<feFlood flood-opacity="0" result="BackgroundImageFix"/>
<feBlend mode="normal" in="SourceGraphic" in2="BackgroundImageFix" result="shape"/>
<feColorMatrix in="SourceAlpha" type="matrix" values="0 0 0 0 0 0 0 0 0 0 0 0 0 0 0 0 0 0 127 0" result="hardAlpha"/>
<feOffset dy="4"/>
<feGaussianBlur stdDeviation="2"/>
<feComposite in2="hardAlpha" operator="arithmetic" k2="-1" k3="1"/>
<feColorMatrix type="matrix" values="0 0 0 0 0 0 0 0 0 0 0 0 0 0 0 0 0 0 0.25 0"/>
<feBlend mode="normal" in2="shape" result="effect1_innerShadow_74_30"/>
</filter>
</defs>
</svg>
