<?xml version="1.0" encoding="utf-8"?>
<!-- Generator: Adobe Illustrator 25.4.1, SVG Export Plug-In . SVG Version: 6.00 Build 0)  -->
<svg version="1.1" id="Calque_1" xmlns="http://www.w3.org/2000/svg" xmlns:xlink="http://www.w3.org/1999/xlink" x="0px" y="0px"
	 viewBox="0 0 40 40" style="enable-background:new 0 0 40 40;" xml:space="preserve">
<style type="text/css">
	.st0{fill:#0C7189;}
</style>
<g>
	<path class="st0" d="M20,1.2c10.4,0,18.8,8.4,18.8,18.8c0,10.4-8.3,18.7-18.8,18.8C9.5,38.7,1.2,30.4,1.2,20
		C1.2,9.6,9.6,1.2,20,1.2 M11.9,13.8c-0.7,0.3-1.1,0.9-1.1,1.7v2.2c0,1.6,1.2,1.6,1.4,1.6c0.3,0,0.6-0.1,0.9-0.3c2-1,4-1.9,6-2.8
		c0.4-0.2,0.8-0.4,0.9-0.4c0.1,0,0.6,0.2,1,0.4c1,0.5,2,1,3,1.5c1,0.5,2,0.9,3,1.4c0.3,0.1,0.5,0.3,0.9,0.3c0.1,0,1.4,0,1.4-1.6
		v-1.1v-1.2c0-1-0.6-1.4-0.9-1.6L28,13.8c-1.2-0.5-2.4-1.1-3.6-1.7c-1.2-0.6-2.4-1.2-3.6-1.7c-0.3-0.1-0.6-0.2-0.9-0.2
		c-0.3,0-0.6,0.1-0.8,0.2c-1.2,0.6-2.4,1.1-3.6,1.7C14.3,12.7,13.1,13.2,11.9,13.8 M11.8,19.8c-0.7,0.3-1.1,0.9-1.1,1.7v2.2
		c0,1.5,0.8,1.7,1.3,1.7c0.4,0,0.6-0.1,1-0.3l6.8-3.2c1.2,0.6,2.5,1.2,3.6,1.7c1.1,0.5,2.2,1,3.4,1.6c0.2,0.1,0.5,0.2,0.8,0.2
		c0.5,0,1.3-0.3,1.4-1.4c0.1-0.4,0.1-0.8,0.1-1.2V22c0.1-0.9-0.3-1.6-1.3-2.2l-0.1-0.1l-6.9-3.3c-0.2-0.1-0.5-0.3-1-0.3
		c-0.2,0-0.4,0-0.6,0.1l-0.2,0.1c-1.6,0.8-3.1,1.5-4.7,2.3C13.5,19,12.7,19.4,11.8,19.8 M19.2,24.6L19.2,24.6
		c-0.9,0.3-1.4,0.9-1.4,1.7v2.2c0,1.3,0.9,1.6,1.4,1.6c0.3,0,0.6-0.1,0.8-0.3c0.5-0.2,0.9-0.4,1.4-0.6c0.5-0.2,0.9-0.4,1.4-0.6
		c0.4-0.2,0.7-0.3,1.1-0.4c0.6-0.2,1.2-0.4,1.8-0.7l0.7-1.1v-0.1l-0.8-1.1c-0.4-0.2-0.9-0.3-1.1-0.6c-0.9-0.6-1.8-0.9-2.7-0.9
		C20.9,23.8,20,24,19.2,24.6 M20,21.8L20,21.8L20,21.8 M29,23.7L29,23.7L29,23.7 M20,0C8.9,0,0,8.9,0,20c0,11.2,9,19.9,20,20
		c11.2-0.1,20-9,20-20C40,8.9,31.1,0,20,0L20,0z M12.2,18.1C12,18.1,12,18,12,17.7c0-0.7,0-1.5,0-2.2c0-0.3,0.1-0.5,0.4-0.6
		c2.4-1.1,4.8-2.3,7.2-3.4c0.1,0,0.2-0.1,0.4-0.1s0.2,0,0.3,0.1c2.4,1.1,4.8,2.3,7.2,3.4c0.3,0.2,0.4,0.3,0.4,0.6c0,0.4,0,0.8,0,1.2
		c0,0.4,0,0.8,0,1.1c0,0.3,0,0.4-0.2,0.4c-0.1,0-0.2,0-0.3-0.1c-2-1-4-1.9-6-2.9c-0.8-0.4-1.1-0.5-1.5-0.5c-0.4,0-0.7,0.2-1.4,0.5
		c-2,0.9-4,1.8-6,2.8C12.3,18.1,12.2,18.1,12.2,18.1L12.2,18.1z M12,24.2c-0.1,0-0.1-0.1-0.1-0.5c0-0.8,0-1.5,0-2.2
		c0-0.3,0.1-0.5,0.4-0.6c2.5-1.2,4.9-2.3,7.3-3.5c0.1,0,0.2,0,0.2,0c0.2,0,0.3,0.1,0.5,0.1c2.3,1.1,4.6,2.2,6.9,3.3
		c0.5,0.3,0.8,0.6,0.7,1.1c0,0.2,0,0.5,0,0.8c0,0.4,0,0.8-0.1,1c0,0.3,0,0.4-0.2,0.4c-0.1,0-0.2,0-0.3-0.1c-1.2-0.6-2.3-1.1-3.4-1.6
		c-1.2-0.5-2.5-1.1-3.7-1.7c-0.1-0.1-0.2-0.1-0.3-0.1c-0.1,0-0.3,0.1-0.5,0.1c-2.3,1.1-4.6,2.2-6.9,3.3C12.3,24.1,12.1,24.2,12,24.2
		L12,24.2z M19.2,28.9c-0.1,0-0.2-0.1-0.2-0.4c0-0.8,0-1.5,0-2.2c0-0.3,0.2-0.5,0.5-0.6h0.1c0.7-0.5,1.4-0.7,2.2-0.7
		c0.7,0,1.4,0.2,2,0.7c0.4,0.3,0.9,0.5,1.4,0.7v0.1c-0.9,0.4-1.8,0.7-2.8,1.1s-1.9,0.8-2.9,1.2C19.4,28.9,19.3,28.9,19.2,28.9
		L19.2,28.9z"/>
</g>
</svg>
