<?xml version="1.0" encoding="utf-8"?>
<!-- Generator: Adobe Illustrator 25.4.1, SVG Export Plug-In . SVG Version: 6.00 Build 0)  -->
<svg version="1.1" id="Calque_1" xmlns="http://www.w3.org/2000/svg" xmlns:xlink="http://www.w3.org/1999/xlink" x="0px" y="0px"
	 viewBox="0 0 448 512" style="enable-background:new 0 0 448 512;" xml:space="preserve">
<style type="text/css">
	.st0{fill:#EBCA94;}
</style>
<g>
	<path class="st0" d="M313.6,67.8L313.6,67.8c-31.2-13-64.3-20.6-96.3-28l-14.6-3.2c-17.5-3.9-24.5,3.1-27.3,9.7
		c-2.6,6.3-6.3,7.6-13.8,9.7l-1.1,0.3c-0.4,0.1-0.8,0.2-1.2,0.4c-0.6,0.2-1.1,0.3-1.7,0.5C61.7,84.1,1.3,162.9,0,262.7l0,0.3l0,0.3
		c0.2,2.1,0.4,4.2,0.6,6.4c0.2,2.2,0.5,4.4,0.6,6.7C2,288.2,3.1,297,4.7,305.2c21.2,102.6,109.9,169.6,215.7,169.6
		c15.9,0,32.2-1.5,48.6-4.6c94.8-18,167.9-98,177.7-194.4C456.3,180.1,410.2,108.2,313.6,67.8z M361.8,374.5L361.8,374.5
		c-43.7,47.8-95.6,59.2-131.1,60.4c-101.9,0-181.3-64.4-188.9-153.3C31.5,164,116.3,99.5,191.9,80.1c2-0.5,4.3-0.7,6.8-0.7
		c2.6,0,5.3,0.3,7.9,0.8c33.8,6.9,66.6,14.2,97.5,27c54.6,22.8,92.5,65.2,103.8,116.3C419,275.6,402.2,330.6,361.8,374.5z"/>
	<path class="st0" d="M324.3,321.5c-2.6-2.6-5.1-5.2-7.7-7.9c-2.6-2.7-5.2-5.4-7.8-8c-15-15.3-30.5-31.1-46.6-46.3
		c-2.1-2-4.6-4.8-4.6-6.9c0-2.2,2.5-5,4.7-7.1c19.7-19.4,38.3-38.9,55.4-58.2l3.6-3.7c4-4.3,8.5-9.2,8.5-15.6c0-4-1.8-7.6-5.3-10.6
		c-9.4-8.6-19,0.1-24.8,5.2l-0.3,0.3c-0.2,0.2-0.4,0.4-0.6,0.5c-0.6,0.5-1.3,1.2-2,2c-21.8,18.9-38.6,34.1-55.2,50.9
		c-5,5.2-9.2,7.9-12.6,8c-2.1-0.2-5.5-1.2-10.9-7.4c-11.5-13.5-23.5-25.3-35.4-34.8c-2.8-2.4-5.9-5.6-10.3-10.6l-0.9-1
		c-8-8.7-15.5-16.9-24.5-17.3l-0.4,0c-4.2,0-8.3,1.8-11.5,5c-1.9,1.9-4.4,5-4.4,10c0,9.1,8.5,17.3,17.6,26l1,1
		c4.6,4.3,8.1,7.8,10.5,10.8c11.5,14.3,24.8,27.2,35.4,37.6c3.5,3.5,5.2,6,5.1,7.5l0,0.5c0,2.4-3,5.5-5.7,7.7
		c-14.2,12.6-28,26.2-41.4,39.3l-6.7,6.6c-2.6,2.5-5.2,5.1-7.8,7.6c-2.5,2.5-4.9,4.9-7.6,7.5l-0.7,0.7c-5,5-11.3,11.2-11.3,19.3
		l0.1,1.5c1,4.9,3.5,9,7.8,13c14.1,13,26.8,0.3,32.1-5c4.3-4.2,8.5-8.4,12.8-12.6c4.2-4.2,8.3-8.3,12.7-12.5l35.1-35.1
		c2.3-2.3,4.7-4.4,7.4-6.9l0.7-0.6c0.3-0.3,0.6-0.5,0.9-0.8c0,0,0,0,0,0c1.3,1.3,2.5,2.5,3.8,3.7c1.2,1.1,2.3,2.2,3.4,3.2
		c3.6,3.7,7.1,7.4,10.7,11c3.5,3.5,6.9,7.1,10.4,10.7l38.5,39.4l2.6,2.6c4.8,4.8,10.3,10.3,17.8,10.3c3.4,0,8.5-1.2,13.5-6.6
		c4.3-4.3,6.4-8.9,6.4-13.8C336,333.6,330,326.8,324.3,321.5z"/>
</g>
</svg>
