<?xml version="1.0" encoding="utf-8"?>
<!-- Generator: Adobe Illustrator 25.4.1, SVG Export Plug-In . SVG Version: 6.00 Build 0)  -->
<svg version="1.1" id="Calque_1" xmlns="http://www.w3.org/2000/svg" xmlns:xlink="http://www.w3.org/1999/xlink" x="0px" y="0px"
	 viewBox="0 0 147.4 147.4" style="enable-background:new 0 0 147.4 147.4;" xml:space="preserve">
<style type="text/css">
	.st0{fill:#0D4F6C;}
</style>
<g>
	<path class="st0" d="M102.1,14.7c-10.1-4.2-21-6.7-31.4-9.1l-4.5-1c-4.9-1.1-5.8,1-6.1,1.7c-1.4,3.4-3.9,4-6.4,4.7
		c-0.3,0.1-0.7,0.2-1,0.3C22.4,19.8,3.2,44.7,2.8,76.3c0.1,1.4,0.3,2.8,0.4,4.3c0.2,3,0.5,6.1,1.1,9.1c7.7,37.3,43.6,59.7,83.7,52.1
		c30-5.7,53.1-30.9,56.2-61.5C147.2,50.1,132.7,27.5,102.1,14.7z M120.7,114.6c-15,16.4-32.7,20.2-44.8,20.6h0h0
		c-34.7,0-61.8-22.1-64.4-52.5C8,42.5,36.9,20.6,62.6,14c1.7-0.4,3.8-0.4,5.9,0c11.7,2.4,22.3,4.8,32.4,9
		c18.7,7.8,31.6,22.3,35.5,39.9C140.2,80.7,134.6,99.5,120.7,114.6z"/>
	<path class="st0" d="M43.7,104.6c2.4,2.2,4.4,1.1,7.1-1.6c2.8-2.7,5.5-5.5,8.3-8.2c3.8-3.8,7.7-7.7,11.5-11.5
		c0.9-0.9,1.8-1.7,2.8-2.6c0.5-0.4,0.9-0.8,1.4-1.3l0.5-0.5l0.5,0.5c0.4,0.4,0.9,0.8,1.3,1.2c0.8,0.8,1.6,1.5,2.4,2.3
		c2.3,2.4,4.6,4.7,6.9,7.1c4.2,4.3,8.4,8.6,12.6,12.9l0.6,0.6c1.4,1.4,2.8,2.9,4.3,2.9c0,0,0,0,0,0c0.8,0,1.7-0.4,2.6-1.4
		c0.9-0.9,1.4-1.8,1.4-2.8c0-1.7-1.5-3.4-3.1-4.9c-1.7-1.7-3.4-3.5-5.1-5.2c-4.9-5-10-10.2-15.2-15.1c-1.6-1.5-2.3-2.8-2.3-4.1
		c0-1.3,0.7-2.6,2.3-4.1c6.4-6.3,12.5-12.7,18.1-19c0.3-0.3,0.6-0.6,0.9-0.9c1.1-1.2,2.4-2.5,2.4-3.7c0-0.6-0.3-1.1-0.9-1.6
		c-1.4-1.3-2.8-0.1-4.8,1.7c-0.3,0.3-0.6,0.5-0.8,0.8c-6.9,6-12.6,11.1-18.1,16.7c-2.3,2.4-4.2,3.4-6,3.4c-1.8-0.1-3.5-1.1-5.4-3.3
		c-3.5-4.1-7.3-7.9-11.3-11.1c-1.2-1-2.4-2.3-3.6-3.7c-2.3-2.5-4.6-5.1-6.6-5.2c-0.7,0-1.4,0.3-2,0.9c-0.5,0.5-0.7,0.9-0.7,1.5
		c0,2,2.8,4.6,5.3,7c1.4,1.3,2.7,2.6,3.7,3.8c3.6,4.5,7.8,8.6,11.4,12.1c1.7,1.7,2.5,3,2.4,4.4c0,1.4-0.8,2.8-2.7,4.4
		c-5.4,4.8-10.6,10-15.7,15c-1.7,1.6-3.3,3.3-5,4.9c-1.5,1.5-3.2,3.1-3.2,4.8C42.1,102.7,42.6,103.6,43.7,104.6z"/>
</g>
</svg>
