<svg width="250" height="250" viewBox="0 0 250 250" fill="none" xmlns="http://www.w3.org/2000/svg">
<g filter="url(#filter0_i_74_22)">
<path d="M250 125.034C250.133 193.417 194.969 248.853 127.127 249.981C57.7587 251.176 -0.723432 195.01 0.00676488 123.574C0.736962 56.1872 55.0371 1.2158 122.813 0.020767C192.58 -1.24065 250.133 55.125 250 125.034ZM141.931 80.9509C141.399 77.8969 138.611 78.428 136.686 77.8305C134.562 77.1666 134.031 78.76 133.566 80.3534C128.787 97.2166 124.008 114.08 119.095 130.943C115.643 142.96 112.059 154.91 108.541 166.927C107.611 169.981 108.076 170.777 110.798 171.574C115.245 172.835 115.577 172.636 116.573 169.25C121.352 152.454 126.132 135.657 130.978 118.926C134.363 107.109 137.881 95.2912 141.333 83.4073C141.599 82.6106 141.731 81.814 141.931 80.9509ZM101.438 96.3535C101.504 94.8929 97.6541 90.8431 96.3264 90.8431C95.8618 90.8431 95.3307 91.1086 94.9988 91.3742C93.9367 92.1709 93.0073 93.034 92.2108 94.1626C90.684 96.2871 88.6262 98.0133 86.7675 99.7394C84.776 101.598 82.851 103.656 80.9259 105.515C79.0008 107.441 77.0758 109.499 75.1507 111.424C71.2342 115.275 67.3841 119.192 63.4012 123.043C61.7416 124.702 61.7416 125.964 63.4012 127.623C67.3177 131.408 71.1678 135.325 75.0179 139.175C81.2578 145.416 87.564 151.657 93.8039 157.964C95.3307 159.491 96.7247 159.624 98.2515 158.03C98.7162 157.566 99.1808 157.101 99.6455 156.636C102.102 154.113 102.035 153.781 99.5127 151.192C91.5469 143.225 83.5812 135.258 75.6818 127.292C73.4248 125.034 73.4248 125.034 75.7481 122.644C83.7803 114.611 91.8125 106.578 99.7783 98.6108C100.508 97.8805 101.371 97.283 101.438 96.3535ZM187.999 124.835C187.933 123.574 187.136 122.976 186.539 122.379C182.689 118.528 178.839 114.677 174.922 110.827C168.682 104.586 162.376 98.3452 156.136 92.0381C154.609 90.5111 153.149 90.4447 151.689 92.1045C151.224 92.5692 150.759 93.034 150.295 93.4987C147.971 95.8888 147.971 96.3535 150.295 98.7436C158.46 106.91 166.492 115.076 174.723 123.109C176.183 124.57 176.25 125.433 174.723 126.893C169.479 131.939 164.368 137.184 159.256 142.296C156.07 145.549 152.817 148.736 149.631 151.989C148.635 152.985 147.971 154.113 149.166 155.242C150.693 156.703 151.622 159.159 154.278 159.093C154.543 159.093 154.875 158.827 155.074 158.561C159.588 154.047 164.102 149.532 168.55 145.018C171.935 141.632 175.055 137.914 178.706 134.86C180.83 133.134 182.091 130.744 184.481 129.217C186.008 128.287 187.535 126.628 187.999 124.835Z" fill="#B5DEFF"/>
</g>
<defs>
<filter id="filter0_i_74_22" x="0" y="0" width="250" height="254" filterUnits="userSpaceOnUse" color-interpolation-filters="sRGB">
<feFlood flood-opacity="0" result="BackgroundImageFix"/>
<feBlend mode="normal" in="SourceGraphic" in2="BackgroundImageFix" result="shape"/>
<feColorMatrix in="SourceAlpha" type="matrix" values="0 0 0 0 0 0 0 0 0 0 0 0 0 0 0 0 0 0 127 0" result="hardAlpha"/>
<feOffset dy="4"/>
<feGaussianBlur stdDeviation="2"/>
<feComposite in2="hardAlpha" operator="arithmetic" k2="-1" k3="1"/>
<feColorMatrix type="matrix" values="0 0 0 0 0 0 0 0 0 0 0 0 0 0 0 0 0 0 0.25 0"/>
<feBlend mode="normal" in2="shape" result="effect1_innerShadow_74_22"/>
</filter>
</defs>
</svg>
