<?xml version="1.0" encoding="utf-8"?>
<!-- Generator: Adobe Illustrator 25.4.1, SVG Export Plug-In . SVG Version: 6.00 Build 0)  -->
<svg version="1.1" id="Calque_1" xmlns="http://www.w3.org/2000/svg" xmlns:xlink="http://www.w3.org/1999/xlink" x="0px" y="0px"
	 viewBox="0 0 425.2 425.2" style="enable-background:new 0 0 425.2 425.2;" xml:space="preserve">
<style type="text/css">
	.st0{fill:#FFFFFF;}
</style>
<g>
	<path class="st0" d="M313.3,4c-13.1,5.3-22.8,15.2-32.9,24.4c-48.4,44.1-94.1,91-139.1,138.5c-12.2,12.8-25.2,24.8-37.9,37.2
		c-9.7,9.5-9.7,18.5,0,28.2c43.8,44.2,89.6,86.3,134.9,128.8c17.3,16.2,35.2,31.7,55,44.9c8,5.4,16.4,10.3,25,14.6
		c2.9,1.4,5.8,2,9.1,2c3.8,0,4.8-1.9,4.4-5.2c-0.7-4.9-2.7-9.2-6.2-12.6c-36.5-35.1-71.6-71.6-107.5-107.2
		c-26.9-26.7-54.2-52.8-83.1-77.3c-3.3-2.8-2.2-4.3,0.2-6.7c35.4-33.9,71.1-67.4,106-101.8C265.7,87.5,289,61.9,312,36.2
		c5.3-5.9,9.8-12.4,11.7-20.3c1.1-4.7,0.8-9-3.9-11.8C317.7,4,315.5,4,313.3,4z"/>
</g>
</svg>
