<svg width="250" height="250" viewBox="0 0 250 250" fill="none" xmlns="http://www.w3.org/2000/svg">
<g filter="url(#filter0_i_74_14)">
<path d="M124.985 0.00604847C192.942 -0.675785 252.318 56.371 249.931 129.498C247.772 193.988 193.51 252.171 120.213 249.841C56.0066 247.796 -2.68795 193.533 0.0962001 119.554C2.48262 54.8369 56.4611 -0.278049 124.985 0.00604847ZM151.52 74.4964C134.247 74.4964 116.974 74.4964 99.7008 74.4964C96.1211 74.4964 95.3825 75.2919 95.3825 78.7578C95.3825 94.44 95.3825 110.179 95.3825 125.861C95.3825 127.282 95.4393 128.702 95.3825 130.123C95.3257 131.259 95.837 131.657 96.9166 131.657C97.9962 131.6 99.0757 131.657 100.155 131.657C102.939 131.657 102.939 131.657 102.939 128.986C102.939 114.611 102.939 100.236 102.939 85.8603C102.939 83.1898 103.962 82.1102 106.633 82.1102C136.577 82.1102 166.577 82.1102 196.521 82.1102C199.362 82.1102 200.385 83.1329 200.385 85.9739C200.385 96.8833 200.385 107.793 200.385 118.702C200.385 124.043 200.385 129.384 200.385 134.782C200.385 136.543 199.589 137.68 198.112 137.964C197.487 138.077 196.805 138.077 196.123 138.077C169.248 138.077 142.429 138.077 115.553 138.077C113.508 138.077 113.508 138.134 113.508 140.123C113.508 144.328 113.508 148.475 113.508 152.68C113.508 154.782 113.508 154.839 115.61 154.839C125.44 154.839 135.27 154.839 145.1 154.839C146.406 154.839 146.804 155.237 146.747 156.487C146.69 158.476 146.747 160.464 146.747 162.453C146.747 164.328 146.634 164.442 144.759 164.498C138.793 164.498 132.827 164.498 126.86 164.498C126.292 164.498 125.724 164.498 125.213 164.555C123.963 164.783 123.167 165.919 123.338 167.112C123.508 168.362 124.19 169.158 125.497 169.328C125.951 169.385 126.406 169.385 126.86 169.385C143.338 169.385 159.759 169.385 176.237 169.385C176.691 169.385 177.146 169.385 177.6 169.328C178.964 169.214 179.816 168.249 179.816 166.885C179.816 165.408 178.85 164.498 177.089 164.498C170.839 164.498 164.532 164.442 158.282 164.498C156.975 164.498 156.407 164.101 156.463 162.737C156.577 160.692 156.577 158.646 156.463 156.601C156.407 155.18 156.918 154.839 158.282 154.839C173.396 154.896 188.566 154.896 203.68 154.896C207.09 154.896 208.112 153.873 208.112 150.407C208.112 126.657 208.112 102.906 208.112 79.1556C208.112 75.6896 207.033 74.61 203.567 74.61C186.18 74.4964 168.85 74.4964 151.52 74.4964ZM42.3699 129.895C42.3699 139.952 42.3699 149.953 42.3699 160.01C42.3699 163.305 44.1313 165.18 47.3132 165.18C58.6771 165.18 70.041 165.18 81.4049 165.237C82.7117 165.237 83.0527 164.726 83.0527 163.533C82.9958 160.805 83.0527 158.021 83.0527 155.294C83.0527 152.85 83.0526 152.85 80.6662 152.85C71.3478 152.85 62.0294 152.85 52.711 152.85C49.4723 152.85 47.5973 151.089 47.5973 148.078C47.5973 133.532 47.5973 119.043 47.5973 104.497C47.5973 101.486 49.3019 99.6674 52.3133 99.6106C62.4272 99.5538 72.5979 99.5538 82.7117 99.6106C84.7572 99.6106 86.1777 100.633 87.03 102.508C87.4277 103.361 87.3709 104.27 87.3709 105.236C87.3709 113.418 87.3709 121.657 87.3709 129.839C87.3709 131.202 87.7687 131.884 89.1891 131.714C89.4732 131.657 89.8142 131.714 90.0983 131.714C92.2574 131.714 92.3142 131.714 92.3142 129.498C92.3142 119.782 92.3142 110.009 92.3142 100.292C92.3142 96.3719 91.0074 95.065 87.0868 95.065C74.0183 95.065 61.0067 95.065 47.9382 95.065C43.9608 95.065 42.4267 96.656 42.4267 100.633C42.3699 110.349 42.3699 120.122 42.3699 129.895ZM109.246 155.066C109.246 149.328 109.246 143.532 109.246 137.793C109.246 135.691 108.565 135.009 106.519 135.009C100.837 135.009 95.0984 135.009 89.4164 135.009C87.1437 135.009 86.5186 135.634 86.5186 137.907C86.5186 149.271 86.5186 160.635 86.5186 171.942C86.5186 174.328 87.2005 174.953 89.6437 175.01C95.0984 175.01 100.553 175.01 106.008 175.01C108.735 175.01 109.303 174.442 109.303 171.658C109.303 166.146 109.246 160.635 109.246 155.066Z" fill="#B5DEFF"/>
<path d="M67.3139 161.714C65.6093 161.657 64.2457 160.237 64.3025 158.532C64.3593 156.771 65.723 155.464 67.4844 155.521C69.0753 155.578 70.6095 157.112 70.5526 158.76C70.439 160.464 69.0753 161.771 67.3139 161.714Z" fill="#B5DEFF"/>
<path d="M107.031 152.737C107.031 156.828 107.031 160.862 107.031 164.953C107.031 167.339 106.292 168.078 103.962 168.078C99.8146 168.078 95.7236 168.078 91.5758 168.078C89.6439 168.078 88.7916 167.339 88.7916 165.407C88.7348 156.998 88.7348 148.589 88.7916 140.18C88.7916 138.305 89.7008 137.452 91.519 137.452C95.7236 137.395 99.9851 137.395 104.19 137.452C106.122 137.452 106.974 138.418 106.974 140.464C107.031 144.612 107.031 148.646 107.031 152.737Z" fill="#B5DEFF"/>
</g>
<defs>
<filter id="filter0_i_74_14" x="0.000976562" y="0" width="250" height="253.909" filterUnits="userSpaceOnUse" color-interpolation-filters="sRGB">
<feFlood flood-opacity="0" result="BackgroundImageFix"/>
<feBlend mode="normal" in="SourceGraphic" in2="BackgroundImageFix" result="shape"/>
<feColorMatrix in="SourceAlpha" type="matrix" values="0 0 0 0 0 0 0 0 0 0 0 0 0 0 0 0 0 0 127 0" result="hardAlpha"/>
<feOffset dy="4"/>
<feGaussianBlur stdDeviation="2"/>
<feComposite in2="hardAlpha" operator="arithmetic" k2="-1" k3="1"/>
<feColorMatrix type="matrix" values="0 0 0 0 0 0 0 0 0 0 0 0 0 0 0 0 0 0 0.25 0"/>
<feBlend mode="normal" in2="shape" result="effect1_innerShadow_74_14"/>
</filter>
</defs>
</svg>
