<?xml version="1.0" encoding="utf-8"?>
<!-- Generator: Adobe Illustrator 25.4.1, SVG Export Plug-In . SVG Version: 6.00 Build 0)  -->
<svg version="1.1" id="Calque_1" xmlns="http://www.w3.org/2000/svg" xmlns:xlink="http://www.w3.org/1999/xlink" x="0px" y="0px"
	 viewBox="0 0 40 40" style="enable-background:new 0 0 40 40;" xml:space="preserve">
<style type="text/css">
	.st0{fill:#0C7189;}
	.st1{fill:#FFFFFF;}
</style>
<g id="Sass">
	<circle class="st0" cx="20" cy="20" r="16.8"/>
	<path class="st0" d="M20,40C9,40,0,31,0,20C0,9,9,0,20,0c11,0,20,9,20,20C40,31,31,40,20,40z M20,2.6C10.4,2.6,2.6,10.4,2.6,20
		S10.4,37.4,20,37.4c7.8,0,14.4-5.2,16.6-12.3c-0.4,0.3-0.9,0.5-1.4,0.6L33,26l0.8-2.1c0-0.2,0.1-0.5,0.4-0.8
		c0.3-0.3,0.5-0.6,0.4-0.7c0-0.1-0.2-0.3-0.5-0.6c-0.8-0.5-1.7-0.6-2.9-0.5c0,0.9-0.3,1.8-0.9,2.5c-0.8,1-1.9,1.6-3.1,1.6
		c-0.6,0-1-0.1-1.3-0.3c0,0,0,0-0.1,0.1c-1,1.1-2.5,1.6-4,1.2c-0.4-0.1-0.8-0.3-1-0.5c-0.5,0.6-1.3,1.4-2.6,0.8c0,0,0,0,0,0l-0.1,0
		l0-0.1c-0.1-0.1-0.2-0.1-0.3-0.2c-0.6,0.7-1.4,0.8-1.9,0.8c0,0,0,0,0,0c-0.9,0-1.5-0.5-1.9-0.9c-0.6,1.5-1.8,2.6-3.4,3.3
		c-0.4,0.2-0.8,0.3-1.2,0.4l-0.8,0.2H7.7l-0.2-0.1c-2.3-1-3.1-2.9-2.3-5.2c0.2-0.5,0.5-1.1,1-1.6C7,22.7,8,22,8.9,21.5
		c-1.9-1.3-4-2.8-5.1-5.4l-0.1-0.2v-1.4l0.1-0.2c0.9-2.5,2.6-4.6,5.1-6.3c3.6-2.4,6.7-3.5,9.9-3.7c1.8-0.1,3.4,0.2,4.8,0.9
		c2.1,1.1,3.1,3.4,2.4,5.7c-0.5,1.7-1.3,3-2.5,4.1c0.7-0.1,1.4,0,1.9,0.5c0.1,0.1,0.2,0.2,0.3,0.3c0.3-0.9,0.8-1.4,1.5-1.5l0.2,0
		c0.4-0.1,1.4-0.3,2.2,0.3c0.4,0.3,1.1,1.1,0.4,2.4c-0.1,0.4-0.1,0.8,0,1.2c1.4-0.5,2.9-0.4,4.4,0c1.3,0.4,2.3,1.2,2.9,2.3
		c0-0.1,0-0.2,0-0.3C37.4,10.4,29.6,2.6,20,2.6z M8.2,27.8h0.3c0.1,0,0.2-0.1,0.3-0.1c0.3-0.1,0.6-0.2,0.9-0.3
		c1.8-0.8,2.7-2.7,2.2-4.7c0,0,0,0,0,0c-0.3,0.3-0.6,0.4-0.7,0.5c-1,0.5-2.2,1.2-3.1,2.2c-0.2,0.3-0.4,0.5-0.5,0.7
		C7.3,26.9,7.4,27.3,8.2,27.8z M16.4,20.2l-0.3,0.9c-0.4,1.5-0.5,2.5,0,3.5l2.4-4.7c-0.2-0.3-0.3-0.6-0.4-1.1c0,0,0,0,0,0
		c-0.1,0.1-0.5,0.2-0.7,0.4C17.1,19.6,16.7,20,16.4,20.2z M28.4,22.1c-0.2,0.2-0.4,0.4-0.5,0.6c0.1-0.1,0.2-0.2,0.3-0.3
		C28.3,22.2,28.4,22.1,28.4,22.1z M18.8,20.3l0,0.2C18.9,20.4,18.9,20.3,18.8,20.3C18.9,20.3,18.8,20.3,18.8,20.3z M11,12.1
		c-0.5,0.4-0.9,0.8-1.3,1.2c-0.7,0.7-1,1.4-1,2c0,0.6,0.4,1.2,1.2,1.9c0.6,0.5,1.1,1,1.7,1.4c0.3,0.3,0.6,0.5,1,0.8
		c0.2-0.1,0.4-0.2,0.7-0.4c0.8-0.4,1.6-0.8,2.1-1.4c0,0,0,0,0,0c-0.5,0-0.9-0.1-1.4-0.3c-1.6-0.4-2.6-1.6-2.8-3.1L11,12.1z
		 M20.6,18.1c0.1,0,0.1,0.1,0.2,0.1c0.3-0.6,0.5-1.2,0.7-1.8c0-0.1,0-0.1,0.1-0.2c-0.5,0.2-1,0.5-1.5,0.7
		C20.3,17.2,20.5,17.6,20.6,18.1z M11.7,11.6l1.7,1.6c0.9,0.8,1.8,0.9,3.6,0.5c1.8-0.4,3.3-1.3,4.4-2.7c0.8-1,0.7-1.5,0.6-1.8
		c-0.2-0.4-0.6-0.5-1.8-0.6c-1.6-0.1-3.2,0.3-5.1,1.1C13.7,10.4,12.6,11,11.7,11.6z"/>
	<path class="st1" d="M11.4,22.7c-0.7,0.5-1.4,0.9-2,1.5c-0.7,0.5-1.1,1.2-1.2,2.1c-0.1,0.9,0.3,1.2,1.2,1c1.7-0.4,2.9-2,2.9-3.8
		c0-0.1,0-0.2,0-0.3C12.2,22.2,12.1,22.2,11.4,22.7z"/>
	<path class="st1" d="M24.3,22.6c-0.4,0.5-0.9,1-1.3,1.6C23.8,23.9,24.3,23.5,24.3,22.6z"/>
	<path class="st1" d="M18.4,18.7c-0.3-0.1-0.5,0-0.7,0.2c-1.2,0.8-2.1,3.6-1.7,5c0,0.1,0.1,0.3,0.3,0.4c0.2,0,0.3-0.2,0.4-0.3
		c0.8-1.5,1.4-3.1,1.8-4.6C18.6,19,18.6,18.8,18.4,18.7z"/>
	<path class="st1" d="M27.4,22.8c0,0.1-0.1,0.3,0,0.4c0.1,0.2,0.3,0,0.4-0.1c0.7-0.4,1-1.1,0.8-2C27.9,21.6,27.7,22.2,27.4,22.8z"/>
	<path class="st1" d="M20,1.3C9.7,1.3,1.3,9.7,1.3,20S9.7,38.7,20,38.7c10.3,0,18.7-8.4,18.7-18.7S30.3,1.3,20,1.3z M35,24.3
		c0-0.1,0-0.2,0.1-0.2c1.2-1.1,1.2-2.5-0.3-3.4c-1.4-0.9-3-0.9-4.6-0.5c-0.4,0.1-0.4,0.3-0.3,0.7c0.3,1.6-1,3.2-2.7,3.3
		c-0.5,0-0.8-0.3-0.8-0.8c0-1,0.5-1.8,1.2-2.4c0.4-0.4,0.5-0.7,0.2-1.3c-0.3-0.5-0.4-1-0.6-1.7c-0.6,1-1.2,1.9-1.7,2.8
		c-0.2,0.2,0,0.5,0,0.7c0.6,2.1-1.3,4.1-3.4,3.6c-0.6-0.1-0.6-0.5-0.3-0.9c0.5-0.7,1.1-1.4,1.6-2c0.4-0.5,0.5-0.8,0.2-1.4
		c-0.3-0.5-0.4-1.1-0.7-1.8c-0.3,0.3-0.4,0.6-0.5,0.9c-0.6,1.6-1.4,3.1-2.3,4.5c-0.1,0.1-0.1,0.2-0.2,0.3c-0.3,0.4-0.7,1-1.3,0.7
		c-0.6-0.2-0.8-0.9-0.7-1.5c0-0.1,0-0.2-0.1-0.5c-0.3,0.7-0.6,1.2-0.8,1.7c-0.2,0.5-0.6,0.8-1.2,0.8c-0.6,0-0.9-0.4-1.1-0.9
		c-0.7-1.4-0.6-2.8-0.1-4.4c-0.5,0.3-0.8,0.5-1.2,0.6c-0.4,0.2-0.5,0.4-0.4,0.9c0.7,2.6-0.5,5.2-3,6.3c-0.5,0.2-1,0.3-1.5,0.5
		c-0.3,0-0.5,0-0.8,0c-1.6-0.7-2.2-1.9-1.6-3.5c0.2-0.4,0.4-0.8,0.7-1.1c1-1.1,2.2-1.8,3.5-2.5c0.6-0.3,0.7-0.5,0.1-0.9
		c-2.2-1.5-4.6-2.9-5.6-5.5c0-0.3,0-0.6,0-1c0.9-2.4,2.5-4.2,4.6-5.6c2.8-1.8,5.8-3.3,9.2-3.5c1.4-0.1,2.8,0.1,4.2,0.8
		c1.6,0.8,2.3,2.4,1.8,4.2c-1,3.2-3.3,4.9-6.5,5.6c-1.3,0.3-2.7,0.4-4.1,0c-1.1-0.3-1.7-1-1.8-1.9c1.5,1.3,3.1,1.2,4.8,0.9
		c2.1-0.5,3.8-1.5,5.1-3.2c0.7-0.9,1.3-2,0.7-3.1c-0.6-1.2-1.8-1.2-2.9-1.3c-2-0.1-3.9,0.4-5.7,1.2c-2.1,0.9-4.1,2.1-5.7,3.8
		c-1.9,2-1.8,4,0.3,5.8c1,0.9,2,1.7,3,2.5c0.3,0.2,0.5,0.2,0.8,0c1.2-0.7,2.5-1.2,3.5-2.3c0.3-0.4,0.7-0.6,1.2-0.8
		c1.1-0.5,1.7-0.2,1.8,1c0,0.4,0.1,0.6,0.6,0.7c0.5,0,0.5,0.4,0.4,0.8c-0.2,0.8-0.4,1.6-0.6,2.4c-0.1,0.4-0.1,0.8-0.1,1.3
		c0.5-0.4,0.6-0.9,0.8-1.3c0.8-1.9,1.8-3.8,2.5-5.8c0.2-0.5,1.3-0.8,1.8-0.4c0.3,0.3,0.1,0.5,0,0.8c-0.3,1-0.3,1.9,0.3,3
		c0.8-1.3,1.5-2.4,2-3.8c0.1-0.4,0.1-0.9,0.6-1c0.4-0.1,0.9-0.3,1.3,0c0.4,0.3,0,0.8-0.1,1.1c-0.2,0.9-0.1,1.7,0.3,2.5
		c0.2,0.5,0.4,0.6,1,0.4c1.3-0.5,2.7-0.6,4-0.2c1.6,0.5,2.6,1.9,2.5,3.3C36.5,23.5,35.9,24.2,35,24.3z"/>
</g>
</svg>
