<svg width="250" height="250" viewBox="0 0 250 250" fill="none" xmlns="http://www.w3.org/2000/svg">
<g filter="url(#filter0_i_74_25)">
<path d="M106.7 49.6999C74.9001 49.8999 49.9001 75.2999 49.8001 106.9C49.7001 139.2 75.6001 164.3 107.3 164.5C139 164.1 164.7 138.9 164.5 106.8C164.3 74.8999 138.8 49.4999 106.7 49.6999ZM82.6001 115.8C81.1001 121.7 76.5001 125.3 70.5001 125.4C69.1001 125.4 67.7001 125.4 66.3001 125.4C64.4001 125.4 62.5001 125.4 60.6001 125.4C59.2001 125.4 58.5001 124.7 58.5001 123.3C58.5001 121.7 58.5001 120 58.5001 118.4C58.5001 116.8 59.3001 116.1 60.9001 116.1C63.6001 116.1 66.3001 116.1 69.0001 116.1C70.0001 116.1 70.9001 116 71.8001 115.6C74.3001 114.3 74.7001 111.8 72.6001 109.9C71.2001 108.6 69.3001 108 67.6001 107.2C66.4001 106.6 65.1001 106 63.9001 105.3C59.1001 102.2 57.3001 97.3999 59.0001 91.7999C60.5001 86.4999 65.1001 82.8999 70.4001 82.7999C73.8001 82.7999 77.2001 82.7999 80.6001 82.7999C82.3001 82.7999 83.0001 83.4999 83.0001 85.1999C83.0001 86.6999 83.0001 88.1999 83.0001 89.6999C83.0001 91.3999 82.2001 92.0999 80.6001 92.0999C77.9001 92.0999 75.2001 92.0999 72.5001 92.0999C71.6001 92.0999 70.7001 92.1999 69.9001 92.4999C67.5001 93.3999 66.9001 95.9999 68.7001 97.7999C69.7001 98.7999 71.0001 99.3999 72.2001 99.8999C73.7001 100.5 75.2001 101.1 76.7001 101.9C82.0001 104.8 84.1001 109.8 82.6001 115.8ZM103.4 99.3999C104 99.3999 104.7 99.3999 105.3 99.3999C106.5 99.3999 107.2 100.1 107.2 101.3C107.2 103.1 107.2 104.8 107.2 106.6C107.2 108 106.4 108.7 105 108.7C103.3 108.7 101.6 108.8 99.9001 108.7C98.6001 108.6 98.1001 109.1 98.1001 110.4C97.9001 116 97.9001 116 103.5 116C105.9 116 108.3 116 110.7 116C112.4 116 113.3 116.7 113.2 118.5C113.2 120 113.2 121.5 113.2 123C113.2 124.4 112.5 125.3 111 125.3C104.3 125.3 97.6001 125.3 90.9001 125.3C89.0001 125.3 88.6001 124.1 88.6001 122.5C88.6001 116.3 88.6001 110.1 88.6001 104C88.6001 97.8999 88.6001 91.5999 88.6001 85.4999C88.6001 83.1999 89.0001 82.6999 91.4001 82.6999C97.7001 82.6999 104 82.6999 110.3 82.6999C112.7 82.6999 113 83.0999 113 85.4999C113 86.8999 113 88.2999 113 89.6999C113 91.3999 112.2 92.0999 110.6 92.0999C107 92.0999 103.4 92.0999 99.8001 92.0999C98.3001 92.0999 97.8001 92.5999 97.8001 94.0999C98.1001 99.3999 98.0001 99.3999 103.4 99.3999ZM152.8 92.2999C154.8 95.9999 155.9 99.8999 155.8 104.1C155.7 110.9 153.6 116.8 148.3 121.2C141.4 127.1 133 126.8 126.1 120.9C116.9 112.9 116.7 95.7999 125.7 87.4999C134.5 79.4999 147 81.6999 152.8 92.2999Z" fill="#B5DEFF"/>
<path d="M125 0C56 0 0 56 0 125C0 194 56 250 125 250C194 250 250 194 250 125C250 56 194 0 125 0ZM199.8 197.2C192.1 206 179.7 206.8 171.9 198.6C166.5 193 161.7 186.9 156.6 181C153.4 177.3 150.1 173.6 147 169.8C146.1 168.7 145.4 169 144.4 169.6C136.7 174.3 128.3 177.5 119.4 178.9C101.2 181.8 84.2 178.7 68.6 168.9C53.4 159.4 43.2 146 37.5 129C35.5 122.9 34.2 114.6 34.2 107C34.4 87.4 41.2 70.3 54.9 56.3C67 43.8 81.9 36.5 99.2 34.7C117 32.8 133.5 36.8 148.2 47C165.5 59.1 176 75.6 179.1 96.6C181.7 114.4 178.2 131 168.5 146.2C167.5 147.8 168.2 148.4 169.3 149.2C178.5 156.2 187.6 163.2 196.8 170.3C205.4 176.8 206.7 189.2 199.8 197.2Z" fill="#B5DEFF"/>
<path d="M131.9 94.9002C127.6 99.9002 127.4 107.3 131.3 112.6C134.3 116.7 139.6 117 143 113.3C145.3 110.7 146.2 107.7 146.4 104.3C146.4 100.8 145.4 97.9002 143.4 95.3002C140.3 91.2002 135.2 91.1002 131.9 94.9002Z" fill="#B5DEFF"/>
</g>
<defs>
<filter id="filter0_i_74_25" x="0" y="0" width="250" height="254" filterUnits="userSpaceOnUse" color-interpolation-filters="sRGB">
<feFlood flood-opacity="0" result="BackgroundImageFix"/>
<feBlend mode="normal" in="SourceGraphic" in2="BackgroundImageFix" result="shape"/>
<feColorMatrix in="SourceAlpha" type="matrix" values="0 0 0 0 0 0 0 0 0 0 0 0 0 0 0 0 0 0 127 0" result="hardAlpha"/>
<feOffset dy="4"/>
<feGaussianBlur stdDeviation="2"/>
<feComposite in2="hardAlpha" operator="arithmetic" k2="-1" k3="1"/>
<feColorMatrix type="matrix" values="0 0 0 0 0 0 0 0 0 0 0 0 0 0 0 0 0 0 0.25 0"/>
<feBlend mode="normal" in2="shape" result="effect1_innerShadow_74_25"/>
</filter>
</defs>
</svg>
