<svg width="250" height="250" viewBox="0 0 250 250" fill="none" xmlns="http://www.w3.org/2000/svg">
<g filter="url(#filter0_i_74_10)">
<path d="M0 135.062C0 128.443 0 121.748 0 115.129C0.0752004 114.452 0.225599 113.85 0.3008 113.173C0.676802 108.133 1.50401 103.169 2.63201 98.2041C5.86563 83.9122 11.3553 70.4476 19.2513 58.0362C28.4258 43.669 40.0066 31.6336 53.9939 21.9301C67.3796 12.7532 82.0436 6.50982 97.8357 2.89922C108.138 0.492146 118.591 -0.184842 129.119 0.0408206C140.625 0.341704 151.83 2.29745 162.809 5.75761C173.262 9.06733 183.038 13.8063 192.287 19.6735C205.222 27.7973 216.201 38.0274 225.225 50.2884C234.776 63.3016 241.844 77.5936 245.981 93.3148C249.966 108.434 250.869 123.704 249.214 139.2C247.785 152.138 244.251 164.624 238.912 176.509C232.745 190.199 224.323 202.46 213.72 213.142C204.696 222.243 194.543 229.766 183.263 235.708C172.735 241.274 161.606 245.261 149.95 247.668C145.062 248.646 140.098 249.248 135.21 250C128.442 250 121.674 250 114.831 250C114.53 249.925 114.229 249.774 113.853 249.774C104.303 249.022 94.9781 246.916 85.8789 243.982C67.154 237.889 50.8355 227.81 36.8482 214.044C27.2977 204.642 19.4769 193.96 13.3857 182.076C8.12164 171.77 4.28642 160.863 2.03041 149.43C1.2032 144.691 0.526403 139.952 0 135.062ZM80.69 65.7839C79.3364 65.8591 78.3588 66.6113 77.4564 67.514C74.0724 70.8989 70.6884 74.2839 67.3044 77.6688C65.1235 79.9254 64.9731 81.2794 66.9284 83.7617C70.3124 88.0493 73.6964 92.2617 77.2308 96.4741C78.3588 97.7528 78.2836 98.8059 77.5316 100.235C76.0276 103.093 74.4484 106.027 73.7716 109.262C73.3956 110.992 72.418 111.593 70.6884 111.744C65.2739 112.27 59.8595 112.872 54.4451 113.549C51.3619 113.925 50.4595 115.054 50.3843 118.138C50.3843 122.501 50.3843 126.939 50.3843 131.301C50.3843 135.589 51.2115 136.492 55.4979 137.018C60.6115 137.62 65.8004 138.146 70.9892 138.673C72.3428 138.823 73.2452 139.2 73.6212 140.629C74.3732 144.089 76.0276 147.248 77.682 150.332C78.3588 151.611 78.2084 152.589 77.306 153.717C73.7716 157.93 70.3124 162.292 66.9284 166.58C65.0483 168.912 65.1235 170.341 67.3044 172.522C70.6884 175.983 74.1476 179.443 77.6068 182.828C79.7876 185.009 81.2916 185.084 83.698 183.129C87.9845 179.668 92.3461 176.208 96.5573 172.748C97.6853 171.845 98.5877 171.77 99.7909 172.447C102.874 174.102 106.033 175.682 109.492 176.509C110.921 176.81 111.372 177.713 111.522 179.067C112.049 184.407 112.575 189.748 113.177 195.089C113.628 198.775 114.756 199.677 118.365 199.677C122.652 199.677 126.863 199.677 131.149 199.677C135.361 199.677 136.338 198.85 136.79 194.713C137.391 189.522 137.918 184.257 138.444 179.067C138.594 177.788 138.895 176.885 140.249 176.584C143.858 175.757 147.092 174.102 150.326 172.372C151.529 171.77 152.356 171.996 153.409 172.748C157.545 176.133 161.756 179.518 165.967 182.903C168.75 185.16 170.103 185.084 172.66 182.527C175.894 179.292 179.127 176.058 182.361 172.823C184.843 170.341 184.918 168.987 182.737 166.279C179.353 162.067 176.044 157.854 172.585 153.717C171.532 152.514 171.607 151.461 172.284 150.107C173.863 147.173 175.367 144.239 176.119 140.93C176.495 139.275 177.398 138.748 179.052 138.598C184.467 138.071 189.881 137.469 195.295 136.792C198.454 136.416 199.431 135.213 199.431 132.054C199.431 127.616 199.431 123.177 199.431 118.664C199.431 114.903 198.529 113.775 194.769 113.324C189.43 112.722 184.091 112.12 178.751 111.669C177.323 111.518 176.571 110.992 176.195 109.638C175.367 106.253 173.863 103.093 172.209 100.085C171.457 98.7307 171.607 97.6776 172.66 96.4741C176.195 92.2617 179.654 87.8989 183.038 83.6113C184.843 81.3547 184.767 79.9255 182.662 77.8193C179.203 74.2839 175.743 70.8237 172.209 67.3636C170.103 65.2574 168.524 65.1822 166.268 67.0627C161.982 70.5228 157.62 73.983 153.409 77.5184C152.281 78.4963 151.303 78.5715 150.025 77.8193C146.942 76.1644 143.783 74.5848 140.249 73.8326C138.82 73.5317 138.444 72.4786 138.369 71.1998C137.842 65.8591 137.316 60.5185 136.639 55.1778C136.188 51.6424 135.06 50.7397 131.601 50.6645C127.314 50.6645 122.953 50.6645 118.666 50.6645C114.681 50.6645 113.628 51.4919 113.177 55.5539C112.575 60.7441 112.049 66.0096 111.522 71.1998C111.372 72.629 110.921 73.6069 109.417 73.9078C106.033 74.66 102.949 76.2396 99.8661 77.8945C98.5877 78.5715 97.6101 78.4963 96.4821 77.5184C92.2709 73.983 87.9093 70.5981 83.6228 67.1379C82.7204 66.3857 81.818 65.7839 80.69 65.7839Z" fill="#B5DEFF"/>
<path d="M124.908 103.019C136.789 102.342 147.242 113.399 147.167 125.284C147.092 136.793 136.94 147.399 124.908 147.399C113.327 147.399 102.648 137.319 102.648 124.983C102.724 113.249 113.026 102.342 124.908 103.019Z" fill="#B5DEFF"/>
</g>
<defs>
<filter id="filter0_i_74_10" x="0" y="0" width="250" height="254" filterUnits="userSpaceOnUse" color-interpolation-filters="sRGB">
<feFlood flood-opacity="0" result="BackgroundImageFix"/>
<feBlend mode="normal" in="SourceGraphic" in2="BackgroundImageFix" result="shape"/>
<feColorMatrix in="SourceAlpha" type="matrix" values="0 0 0 0 0 0 0 0 0 0 0 0 0 0 0 0 0 0 127 0" result="hardAlpha"/>
<feOffset dy="4"/>
<feGaussianBlur stdDeviation="2"/>
<feComposite in2="hardAlpha" operator="arithmetic" k2="-1" k3="1"/>
<feColorMatrix type="matrix" values="0 0 0 0 0 0 0 0 0 0 0 0 0 0 0 0 0 0 0.25 0"/>
<feBlend mode="normal" in2="shape" result="effect1_innerShadow_74_10"/>
</filter>
</defs>
</svg>
