<?xml version="1.0" encoding="utf-8"?>
<!-- Generator: Adobe Illustrator 25.4.1, SVG Export Plug-In . SVG Version: 6.00 Build 0)  -->
<svg version="1.1" id="Calque_1" xmlns="http://www.w3.org/2000/svg" xmlns:xlink="http://www.w3.org/1999/xlink" x="0px" y="0px"
	 viewBox="0 0 40 40" style="enable-background:new 0 0 40 40;" xml:space="preserve">
<style type="text/css">
	.st0{fill:#0C7189;}
</style>
<g>
	<path class="st0" d="M20,40C9.4,40.4,0,30.8,0,19.9C0,9.4,9.3,0,20.1,0c10.6,0,20,9.4,19.9,20.2C39.9,30.7,30.7,40.4,20,40z
		 M33.8,20.2c0-0.8,0.1-1.4-0.8-1.5c-1.1-0.1-1.4-0.9-1.6-1.9c-0.3-1.5-0.1-3-0.2-4.5c-0.1-2.6-1.5-3.9-4-3.9
		c-0.6,0-1.1,0.1-1.1,0.9c0,0.6-0.2,1.4,0.9,1.4c1.2,0,1.5,0.7,1.6,1.7c0.1,0.8,0,1.6,0.1,2.5c0.1,1.8,0.3,3.5,1.8,4.8
		c0.4,0.3,0.4,0.6,0,0.9c-0.8,0.6-1.1,1.5-1.4,2.5c-0.4,1.3-0.3,2.6-0.3,3.9c0,1.9-0.1,2-1.9,2.5c-0.7,0.2-0.6,0.6-0.6,1.1
		c0,0.4-0.1,0.9,0.5,1.1c1.6,0.4,3.5-0.6,4.1-2.1c0.3-0.9,0.4-1.7,0.4-2.6c0-1.3-0.1-2.6,0.2-3.8c0.2-0.8,0.5-1.5,1.3-1.6
		C33.7,21.3,33.9,20.8,33.8,20.2z M6.2,20c0.1,0.5-0.2,1.2,0.7,1.4c1.1,0.2,1.5,0.9,1.7,1.8c0.3,1.5,0.1,3,0.2,4.4
		c0.2,2.7,1.5,4,4,4c0.6,0,1.1-0.1,1.1-0.9c0-0.6,0.2-1.4-0.9-1.4c-1.1,0-1.5-0.7-1.6-1.6c-0.1-1,0-2-0.1-3c-0.1-1.5-0.4-3-1.6-4.1
		c-0.5-0.5-0.4-0.9,0.1-1.2c0.7-0.5,0.9-1.3,1.2-2.1c0.5-1.4,0.3-2.9,0.4-4.4c0.1-1.7,0.2-1.9,1.9-2.2c0.8-0.2,0.7-0.7,0.7-1.2
		c0-0.5,0-1-0.7-1c-1.8,0-3.4,0.3-4,2.4c-0.3,1-0.4,1.9-0.3,2.9c0,1.1,0.1,2.3-0.2,3.4c-0.2,0.8-0.6,1.4-1.4,1.5
		C6.2,18.7,6.1,19.3,6.2,20z M14.3,21.4c0.9,0,1.6-0.6,1.6-1.3c0-0.7-0.7-1.4-1.5-1.4c-0.9,0-1.3,0.5-1.3,1.4
		C13,21,13.5,21.4,14.3,21.4z M25.5,21.4c0.9,0,1.5-0.4,1.5-1.3c0-0.9-0.4-1.4-1.3-1.4c-0.8,0-1.6,0.7-1.5,1.4
		C24.2,20.9,24.7,21.4,25.5,21.4z M21.4,20.1c0-0.9-0.4-1.4-1.3-1.4c-0.9,0-1.4,0.4-1.4,1.3c0,0.9,0.4,1.4,1.3,1.4
		C20.9,21.4,21.3,21,21.4,20.1z"/>
</g>
</svg>
