<?xml version="1.0" encoding="utf-8"?>
<!-- Generator: Adobe Illustrator 25.4.1, SVG Export Plug-In . SVG Version: 6.00 Build 0)  -->
<svg version="1.1" id="Calque_1" xmlns="http://www.w3.org/2000/svg" xmlns:xlink="http://www.w3.org/1999/xlink" x="0px" y="0px"
	 viewBox="0 0 40 40" style="enable-background:new 0 0 40 40;" xml:space="preserve">
<style type="text/css">
	.st0{fill:#0C7189;}
</style>
<g>
	<path class="st0" d="M40,20c0,3.7,0,7.3,0,11c-0.1,2.9-1.1,5.4-3.5,7.2c-1.3,1-2.8,1.5-4.3,1.7c-0.5,0.1-1,0.1-1.4,0.1
		c-7.3,0-14.5,0-21.8,0c-3.3,0-6-1.4-7.7-4.4C0.4,34.2,0,32.7,0,31.2C0,23.7,0,16.3,0,8.9c0-3.3,1.4-5.9,4.3-7.6
		C5.8,0.4,7.3,0,8.9,0C16.3,0,23.7,0,31.1,0c3.3,0,5.9,1.5,7.7,4.4C39.6,5.8,40,7.4,40,9C40,12.7,40,16.3,40,20z M7.5,18.9
		c0,3.3,0,6.5,0,9.8c0,1,0.6,1.7,1.6,1.7c2.1,0,4.3,0,6.4,0c1.1,0,1.7-0.7,1.7-1.7c0-6.5,0-13,0-19.5c0-1.1-0.6-1.7-1.7-1.7
		c-2.1,0-4.2,0-6.3,0C8,7.5,7.5,8,7.5,9.2C7.5,12.4,7.5,15.7,7.5,18.9z M32.5,14.3c0-1.7,0-3.5,0-5.2c0-1-0.6-1.6-1.6-1.6
		c-2.1,0-4.3,0-6.4,0c-1.1,0-1.7,0.6-1.7,1.7c0,3.5,0,6.9,0,10.4c0,1.1,0.6,1.7,1.7,1.7c2.1,0,4.3,0,6.4,0c1.1,0,1.7-0.6,1.7-1.7
		C32.5,17.8,32.5,16.1,32.5,14.3z"/>
</g>
</svg>
