<?xml version="1.0" encoding="utf-8"?>
<!-- Generator: Adobe Illustrator 25.4.1, SVG Export Plug-In . SVG Version: 6.00 Build 0)  -->
<svg version="1.1" id="Calque_1" xmlns="http://www.w3.org/2000/svg" xmlns:xlink="http://www.w3.org/1999/xlink" x="0px" y="0px"
	 viewBox="0 0 40 40" style="enable-background:new 0 0 40 40;" xml:space="preserve">
<style type="text/css">
	.st0{fill:#0C7189;}
</style>
<g>
	<path class="st0" d="M30.5,40H9.3c-3.5,0-6.3-1.6-8-4.6C0.5,34.1,0,32.5,0,30.9V9.2c0-3.5,1.5-6.1,4.5-7.9C6,0.4,7.5,0,9.2,0h21.6
		c3.4,0,6.1,1.5,8,4.5C39.6,6,40,7.6,40,9.3v21.4c-0.1,3.2-1.3,5.7-3.6,7.5c-1.2,0.9-2.7,1.5-4.4,1.8C31.4,40,30.9,40,30.5,40z
		 M9.2,1.2c-1.5,0-2.8,0.4-4.2,1.2C2.5,3.9,1.2,6.2,1.2,9.2v21.7c0,1.4,0.4,2.7,1.2,4c1.5,2.7,3.9,4,7,4h21.2c0.4,0,0.8,0,1.2-0.1
		c1.6-0.2,2.9-0.7,3.9-1.5c2-1.5,3.1-3.7,3.2-6.5V9.3c0-1.5-0.4-2.9-1.1-4.2c-1.6-2.6-4-4-7-4H9.2z M15.6,30.7H9.4
		c-1.3,0-2.1-0.9-2.1-2.2V9.5C7.3,8,8,7.3,9.5,7.3h6.1c1.4,0,2.2,0.8,2.2,2.2v18.9C17.9,29.8,17,30.7,15.6,30.7z M9.5,8.4
		c-0.8,0-1.1,0.2-1.1,1.1v18.9c0,0.3,0.1,1.1,1,1.1h6.2c0.9,0,1.1-0.6,1.1-1.1V9.5c0-0.7-0.3-1.1-1.1-1.1H9.5z M30.6,21.8h-6.2
		c-1.4,0-2.2-0.8-2.2-2.2V9.5c0-1.4,0.8-2.2,2.2-2.2h6.2c1.3,0,2.1,0.8,2.1,2.1v5c0,1.7,0,3.4,0.1,5.1C32.8,21,32,21.8,30.6,21.8z
		 M24.4,8.4c-0.7,0-1.1,0.3-1.1,1.1v10.1c0,0.7,0.3,1.1,1.1,1.1h6.2c0.7,0,1.1-0.3,1.1-1.1c-0.1-1.7-0.1-3.4-0.1-5.1v-5
		c0-0.7-0.3-1-1-1H24.4z"/>
</g>
</svg>
