<?xml version="1.0" encoding="utf-8"?>
<!-- Generator: Adobe Illustrator 25.4.1, SVG Export Plug-In . SVG Version: 6.00 Build 0)  -->
<svg version="1.1" id="Calque_1" xmlns="http://www.w3.org/2000/svg" xmlns:xlink="http://www.w3.org/1999/xlink" x="0px" y="0px"
	 viewBox="0 0 52 52" style="enable-background:new 0 0 52 52;" xml:space="preserve">
<style type="text/css">
	.st0{opacity:0.75;fill:#0D4F6C;enable-background:new    ;}
	.st1{opacity:0.25;fill:#0D4F6C;enable-background:new    ;}
	.st2{opacity:0.5;fill:#0D4F6C;enable-background:new    ;}
</style>
<path class="st0" d="M35.2,2c-2.4,0.9-4,2.4-4.6,4.3c-1.3,3.6,1.2,7.8,1.2,7.9l19.6,34.4V8.9c0-0.1,0-4.9-2.8-7.4
	c-1.2-1-2.6-1.5-4.4-1.5c-0.5,0-1.2,0.1-1.8,0.2L39.1,1L35.2,2z"/>
<path class="st1" d="M1.9,35.6l-1,3.7l-0.8,3.3c-0.4,2.6,0.1,4.8,1.4,6.2c2.2,2.6,6.1,2.8,7.2,2.8h0.1h39.2L13.9,32
	c0,0-2.6-1.6-5.5-1.6c-0.7,0-1.5,0.1-2.3,0.4C4.3,31.5,2.8,33.1,1.9,35.6z"/>
<path class="st2" d="M12.4,17.8c-1.6,2-2.3,4.1-1.9,6c0.7,3.7,4.9,6.1,4.9,6.2l34,19.8L29.8,15.5c0-0.1-2.4-4.3-6.2-4.9
	c-0.4-0.1-0.7-0.1-1.1-0.1c-1.6,0-3.3,0.7-5,2.1L15.2,15L12.4,17.8z"/>
</svg>
