<?xml version="1.0" encoding="utf-8"?>
<!-- Generator: Adobe Illustrator 25.4.1, SVG Export Plug-In . SVG Version: 6.00 Build 0)  -->
<svg version="1.1" id="Calque_1" xmlns="http://www.w3.org/2000/svg" xmlns:xlink="http://www.w3.org/1999/xlink" x="0px" y="0px"
	 viewBox="0 0 120 120" style="enable-background:new 0 0 120 120;" xml:space="preserve">
<style type="text/css">
	.st0{fill:#EBCA94;}
	.st1{fill:#FFFFFF;}
</style>
<circle class="st0" cx="60" cy="60" r="60"/>
<path class="st1" d="M111.8,59.3c0,6.2-3.7,11.2-8.3,11.2c-5.6,0-5.5-5.6-9.6-5.6c-2.3,0-4.2,1.9-4.2,4.3v23.7
	c0,3.1-2.5,5.6-5.5,5.6H71.6c-2.3,0-4.2-1.9-4.2-4.3c0-4.3,5.5-4.1,5.5-9.7c0-4.6-5-8.4-11.1-8.4c-6.1,0-11.1,3.8-11.1,8.4
	c0,5.7,5.5,5.6,5.5,9.7c0,2.4-1.9,4.3-4.2,4.3H28.5c-3.1,0-5.5-2.5-5.5-5.6V69.2c0-2.4,1.9-4.3,4.2-4.3c4.1,0,4,5.6,9.6,5.6
	c4.6,0,8.3-5,8.3-11.2s-3.7-11.4-8.3-11.4c-5.6,0-5.5,5.6-9.6,5.6c-2.3,0-4.2-1.8-4.2-4.1V36.9c0-3.1,2.5-5.4,5.5-5.4h23.5
	c2.3-0.3,4.2-2.1,4.2-4.4c0-4.1-5.5-4.1-5.5-9.7c0-4.6,5-8.2,11.1-8.2c6.1,0,11.1,3.8,11.1,8.2c0,5.7-5.5,5.6-5.5,9.7
	c0,2.4,1.9,4.3,4.2,4.3H84c3.1,0,5.5,2.5,5.5,5.4v12.5c0,2.4,1.9,4.3,4.2,4.3c4.1,0,4-5.6,9.6-5.6C108,47.9,111.8,53.1,111.8,59.3z"
	/>
</svg>
