<svg width="250" height="250" viewBox="0 0 250 250" fill="none" xmlns="http://www.w3.org/2000/svg">
<g filter="url(#filter0_i_76_33)">
<path d="M125.072 249.996C55.7718 250.496 3.07184 194.196 0.17184 132.196C-1.52816 96.8961 9.37184 65.7961 33.4718 39.9961C60.0718 11.4961 93.3718 -1.80389 132.272 0.196106C195.272 3.39611 246.772 54.9961 249.772 118.096C251.472 153.796 240.272 184.996 215.572 210.896C191.072 236.896 160.672 249.696 125.072 249.996ZM171.872 75.4961C174.472 75.4961 176.872 75.4961 179.172 75.4961C181.872 75.4961 182.072 75.6961 182.072 78.2961C182.072 89.0961 182.072 99.8961 182.072 110.696C182.072 113.696 181.872 113.896 178.872 113.896C168.572 113.896 158.172 113.896 147.872 113.896C144.072 113.896 142.572 115.396 142.572 119.196C142.572 127.196 142.572 135.296 142.572 143.296C142.572 146.496 142.272 146.796 139.072 146.796C121.472 146.796 103.872 146.796 86.2718 146.796C85.5718 146.796 84.8718 146.796 84.1718 146.696C83.0718 146.396 82.2718 145.696 82.5718 144.396C82.9718 142.496 82.7718 140.496 82.7718 138.596C82.7718 135.496 81.1718 133.896 77.9718 133.896C74.4718 133.896 71.0718 133.896 67.5718 133.896C65.9718 133.896 65.2718 133.396 65.2718 131.696C65.2718 113.796 65.2718 95.7961 65.2718 77.8961C65.2718 76.1961 66.0718 75.4961 67.6718 75.4961C68.4718 75.4961 69.1718 75.4961 69.9718 75.4961C96.4718 75.4961 122.872 75.4961 149.372 75.4961C150.772 75.4961 152.172 75.5961 153.372 74.7961C156.272 72.8961 158.472 70.1961 161.372 67.3961C159.872 67.3961 158.972 67.3961 158.172 67.3961C127.572 67.3961 96.8718 67.3961 66.2718 67.3961C60.1718 67.3961 57.1718 70.5961 57.1718 76.6961C57.1718 94.5961 57.1718 112.596 57.1718 130.496C57.1718 133.796 57.1718 133.796 53.8718 133.896C50.7718 133.896 49.2718 135.196 49.2718 138.296C49.2718 155.296 49.2718 172.296 49.2718 189.196C49.2718 192.396 51.0718 193.996 54.2718 193.996C61.8718 193.996 69.4718 193.996 77.1718 193.996C81.2718 193.996 82.7718 192.496 82.7718 188.396C82.7718 182.196 82.7718 175.896 82.7718 169.696C82.7718 167.196 83.3718 166.596 85.7718 166.596C90.6718 166.596 95.4718 166.596 100.372 166.596C102.972 166.596 105.672 166.596 108.272 166.596C108.872 166.596 109.572 166.696 109.772 167.396C109.972 167.996 109.672 168.496 109.172 168.896C106.772 170.596 104.872 172.796 102.772 174.796C100.272 177.096 96.8718 178.796 97.3718 183.196C97.5718 185.196 98.0718 185.796 100.072 185.796C110.172 185.696 120.272 185.796 130.472 185.796C133.772 185.796 137.172 185.796 140.472 185.796C141.972 185.796 142.572 186.496 142.372 187.996C141.872 191.696 143.872 194.096 147.572 194.096C163.372 194.196 179.172 194.196 194.972 194.096C198.472 194.096 200.472 191.896 200.472 188.396C200.472 165.396 200.472 142.396 200.472 119.396C200.472 118.596 200.472 117.896 200.072 117.196C198.972 115.096 197.372 113.996 194.972 114.096C189.572 114.196 190.172 114.696 190.072 109.196C190.072 98.3961 190.072 87.5961 190.072 76.7961C190.072 70.8961 188.172 68.4961 182.472 67.6961C180.572 67.3961 178.272 66.6961 176.672 68.7961C175.172 70.7961 173.672 72.9961 171.872 75.4961ZM143.572 99.5961C144.072 99.2961 144.672 98.9961 145.172 98.6961C147.572 96.8961 149.872 95.0961 152.172 93.2961C156.272 90.1961 159.972 86.6961 163.372 82.8961C168.872 76.5961 173.472 69.5961 178.472 62.8961C179.572 61.3961 180.672 59.8961 181.372 58.0961C181.572 57.5961 181.972 57.0961 181.372 56.5961C180.872 56.0961 180.172 56.1961 179.672 56.5961C178.872 57.0961 178.072 57.5961 177.272 58.1961C175.472 59.5961 173.772 61.0961 171.972 62.4961C159.672 71.2961 148.872 81.4961 140.672 94.2961C140.272 94.9961 139.372 95.6961 139.972 96.4961C140.972 97.5961 141.972 98.8961 143.572 99.5961ZM141.572 103.396C141.572 101.996 140.672 100.896 138.672 99.2961C137.472 98.3961 136.372 98.0961 134.872 98.5961C129.572 100.496 123.672 109.196 124.272 114.696C124.372 115.796 124.972 115.996 125.872 115.596C127.172 115.096 128.472 114.596 129.672 114.096C133.072 112.696 136.572 111.296 139.072 108.196C140.272 106.696 140.972 104.896 141.572 103.396Z" fill="#B5DEFF"/>
<path d="M146.472 151.496C146.472 141.696 146.472 131.796 146.472 121.996C146.472 119.296 146.672 119.196 149.272 119.196C163.972 119.196 178.672 119.196 193.272 119.196C195.972 119.196 196.472 119.696 196.472 122.496C196.472 141.996 196.472 161.396 196.472 180.896C196.472 183.596 195.772 184.296 193.172 184.296C178.572 184.296 163.972 184.296 149.372 184.296C146.672 184.296 146.372 183.996 146.372 181.296C146.472 171.296 146.472 161.396 146.472 151.496Z" fill="#B5DEFF"/>
<path d="M51.2715 160.496C51.2715 154.496 51.3715 148.596 51.2715 142.596C51.2715 140.696 51.7715 139.896 53.8715 139.896C61.9715 139.996 70.0715 139.896 78.1715 139.896C80.4715 139.896 80.9715 140.396 80.9715 142.696C80.9715 154.496 80.9715 166.396 80.9715 178.196C80.9715 180.696 80.3715 181.196 77.8715 181.196C70.0715 181.196 62.2715 181.196 54.3715 181.196C51.6715 181.196 51.2715 180.796 51.2715 178.096C51.2715 172.296 51.2715 166.396 51.2715 160.496Z" fill="#B5DEFF"/>
<path d="M129.672 156.596C129.672 159.796 126.572 162.996 123.472 162.896C120.172 162.796 117.272 159.896 117.172 156.596C117.072 153.296 120.172 150.196 123.572 150.196C126.872 150.396 129.572 153.196 129.672 156.596Z" fill="#B5DEFF"/>
<path d="M171.371 193.396C168.971 193.396 167.271 191.696 167.271 189.196C167.271 186.896 169.071 184.996 171.171 184.896C173.271 184.796 175.572 186.996 175.572 189.096C175.672 191.196 173.571 193.296 171.371 193.396Z" fill="#B5DEFF"/>
<path d="M66.2717 191.296C63.7717 191.296 62.4717 189.896 62.4717 187.396C62.4717 185.196 64.0717 183.596 66.1717 183.596C68.3717 183.596 70.1717 185.396 70.0717 187.496C70.0717 189.596 68.2717 191.296 66.2717 191.296Z" fill="#B5DEFF"/>
<path d="M65.8721 138.796C64.6721 138.796 63.3721 138.896 62.1721 138.796C61.2721 138.696 60.5721 138.396 60.4721 137.296C60.3721 136.296 60.6721 135.496 61.7721 135.296C64.4721 134.596 67.2721 134.796 69.9721 135.196C70.8721 135.296 71.5721 136.096 71.3721 137.196C71.2721 138.196 70.5721 138.796 69.5721 138.896C68.3721 138.896 67.0721 138.796 65.8721 138.796Z" fill="#B5DEFF"/>
</g>
<defs>
<filter id="filter0_i_76_33" x="0" y="0" width="249.939" height="254" filterUnits="userSpaceOnUse" color-interpolation-filters="sRGB">
<feFlood flood-opacity="0" result="BackgroundImageFix"/>
<feBlend mode="normal" in="SourceGraphic" in2="BackgroundImageFix" result="shape"/>
<feColorMatrix in="SourceAlpha" type="matrix" values="0 0 0 0 0 0 0 0 0 0 0 0 0 0 0 0 0 0 127 0" result="hardAlpha"/>
<feOffset dy="4"/>
<feGaussianBlur stdDeviation="2"/>
<feComposite in2="hardAlpha" operator="arithmetic" k2="-1" k3="1"/>
<feColorMatrix type="matrix" values="0 0 0 0 0 0 0 0 0 0 0 0 0 0 0 0 0 0 0.25 0"/>
<feBlend mode="normal" in2="shape" result="effect1_innerShadow_76_33"/>
</filter>
</defs>
</svg>
