<?xml version="1.0" encoding="utf-8"?>
<!-- Generator: Adobe Illustrator 25.4.1, SVG Export Plug-In . SVG Version: 6.00 Build 0)  -->
<svg version="1.1" id="Calque_1" xmlns="http://www.w3.org/2000/svg" xmlns:xlink="http://www.w3.org/1999/xlink" x="0px" y="0px"
	 viewBox="0 0 40 40" style="enable-background:new 0 0 40 40;" xml:space="preserve">
<style type="text/css">
	.st0{fill:#FFFFFF;}
	.st1{fill:#0C7189;}
</style>
<g id="html5">
	<g>
		<path class="st0" d="M3,0.7c11,0,22.1,0,33.1,0c0.5,0,1-0.1,0.8,0.7c-0.4,3.6-0.7,7.2-1,10.8c-0.6,7.3-1.3,14.7-1.9,22
			c-0.1,0.9-0.4,1.4-1.4,1.7c-3.9,1-7.9,2.2-11.8,3.3c-0.5,0.1-1,0.2-1.5,0.1c-4.2-1.2-8.5-2.3-12.7-3.5c-0.5-0.1-0.7-0.4-0.8-1
			c-0.4-4.3-0.8-8.6-1.1-12.9c-0.4-4.7-0.9-9.5-1.3-14.2C3.3,5.3,2.9,3,3,0.7z M19.9,7.9C19.9,7.9,19.9,7.9,19.9,7.9
			c-3.1,0-6.3,0-9.4,0c-0.7,0-1.2,0-1.1,1c0.4,3.5,0.7,7.1,0.9,10.6c0.1,0.8,0.4,1.2,1.2,1.1c0.3,0,0.7,0,1,0c3.7,0,7.4,0,11.1,0
			c1,0,1.6,0.2,1.4,1.4c-0.2,1.1-0.2,2.2-0.3,3.3c0,0.7-0.4,1-1,1.3c-2.6,1-5.2,1.1-7.8,0c-0.7-0.3-1-0.6-1.1-1.4
			C14.6,23,14.6,23,12.3,23c-0.3,0-0.5,0-0.8,0c-0.6,0-0.8,0.3-0.7,0.9c0.2,1.5,0.3,3,0.4,4.6c0.1,0.8,0.5,1.1,1.2,1.3
			c2.2,0.6,4.5,1.2,6.7,1.9c0.6,0.2,1.3,0.1,1.9,0c2.2-0.6,4.3-1.2,6.5-1.8c0.8-0.2,1.1-0.6,1.2-1.4c0.3-3.5,0.6-6.9,0.9-10.4
			c0.1-1.5,0.1-1.5-1.4-1.5c-3.5,0-7,0-10.5,0c-3.4,0-3.4,0-3.7-3.4c-0.1-1,0.2-1.2,1.1-1.2c4.1,0,8.2,0,12.3,0c2.9,0,2.9,0,3.2-2.8
			c0.1-1-0.2-1.4-1.2-1.4C26.1,7.9,23,7.9,19.9,7.9z"/>
		<path class="st1" d="M19.9,40c-0.2,0-0.4,0-0.7-0.1c-3-0.8-6-1.7-8.9-2.5l-3.7-1c-0.8-0.2-1.2-0.7-1.3-1.6C5,31.4,4.6,28,4.3,24.6
			l-0.6-7C3.4,14.3,3.1,11,2.8,7.7C2.8,7,2.7,6.4,2.6,5.7c-0.2-1.6-0.4-3.3-0.3-5l0-0.7h5.4c9.5,0,18.9,0,28.4,0c0.5,0,1,0,1.3,0.4
			c0.3,0.4,0.2,1,0.1,1.2l-0.3,3.2c-0.2,2.5-0.5,5-0.7,7.5c-0.6,7.3-1.3,14.7-1.9,22c-0.1,0.9-0.3,1.9-1.9,2.3
			c-3.2,0.8-6.3,1.7-9.5,2.6L21,39.8C20.7,39.9,20.3,40,19.9,40z M3.7,1.4c0,1.4,0.1,2.8,0.3,4.2c0.1,0.7,0.1,1.4,0.2,2
			c0.3,3.3,0.6,6.6,0.9,9.9l0.6,7c0.3,3.4,0.6,6.9,0.9,10.3c0,0.3,0.1,0.3,0.3,0.4l3.7,1c3,0.8,6,1.7,8.9,2.5c0.3,0.1,0.6,0,1.1-0.1
			l2.3-0.6c3.2-0.9,6.3-1.8,9.5-2.6c0.6-0.2,0.8-0.4,0.8-1.1c0.6-7.3,1.2-14.7,1.9-22c0.2-2.5,0.5-5,0.7-7.5l0.3-3.3l-0.1,0
			c-9.5,0-18.9,0-28.4,0H3.7z M19.9,32.5c-0.4,0-0.7,0-1-0.1l-0.6-0.2c-2-0.6-4.1-1.2-6.1-1.7c-1-0.3-1.6-0.9-1.7-1.9
			c-0.1-1.5-0.2-3-0.4-4.5c-0.1-0.5,0-0.9,0.3-1.2c0.2-0.3,0.6-0.4,1.1-0.4c0.3,0,0.7,0,1,0c2.6,0,2.9,0.3,3.2,2.9
			c0,0.4,0.2,0.6,0.7,0.8c2.4,0.9,4.8,0.9,7.3,0c0.5-0.2,0.6-0.4,0.6-0.7l0-0.4c0-1,0.1-2,0.3-3c0.1-0.4,0-0.5,0-0.5
			c0,0-0.1-0.1-0.7-0.1c-2.7,0-5.3,0-8,0l-3.5,0c-0.2,0-0.4,0-0.6,0c-0.7,0-1.8-0.1-1.9-1.8c-0.3-3.9-0.6-7.4-0.9-10.6
			c-0.1-0.6,0-1,0.3-1.3c0.4-0.4,1-0.4,1.4-0.4c2.3,0,4.6,0,6.9,0l2.5,0l2.6,0c2.2,0,4.4,0,6.7,0c0.4,0,1.1,0,1.5,0.5
			c0.4,0.5,0.4,1.1,0.4,1.6c-0.3,3.2-0.6,3.5-3.9,3.5l-2.8,0c-3.2,0-6.3,0-9.5,0c-0.3,0-0.4,0-0.4,0c0,0,0,0.1,0,0.4
			c0.3,2.8,0.3,2.7,3.1,2.8l10.5,0c0.9,0,1.5,0,1.8,0.4c0.4,0.4,0.3,0.9,0.3,1.8c-0.1,1.2-0.2,2.4-0.3,3.5c-0.2,2.3-0.4,4.6-0.6,6.8
			c-0.1,1.1-0.6,1.7-1.7,2c-2.1,0.5-4.2,1.1-6.4,1.7l-0.1,0C20.7,32.4,20.3,32.5,19.9,32.5z M11.4,23.7c0,0,0,0.1,0,0.1
			c0.2,1.5,0.3,3.1,0.4,4.6c0,0.4,0.1,0.6,0.7,0.7c2,0.5,4.1,1.1,6.1,1.7l0.6,0.2c0.5,0.1,1,0.1,1.5,0l0.1,0
			c2.1-0.6,4.2-1.2,6.4-1.8c0.5-0.1,0.6-0.3,0.7-0.8c0.2-2.3,0.4-4.6,0.6-6.9c0.1-1.2,0.2-2.4,0.3-3.5c0-0.3,0-0.6,0-0.7
			c-0.2,0-0.5,0-0.8,0l-10.5,0c-3.7,0-4-0.3-4.4-3.9c-0.1-0.6-0.1-1.2,0.3-1.6c0.4-0.4,0.9-0.5,1.5-0.5c3.2,0,6.3,0,9.5,0l2.8,0
			c2.3,0,2.3,0,2.5-2.2c0.1-0.5,0-0.6,0-0.6c0,0,0-0.1-0.5-0.1c-2.2,0-4.5,0-6.7,0l-1.9,0v0l-3.2,0c-2.3,0-4.6,0-6.9,0
			c-0.1,0-0.3,0-0.4,0c0,0,0,0.1,0,0.2c0.3,3.2,0.6,6.7,0.9,10.6c0,0.5,0.1,0.5,0.5,0.5c0.2,0,0.5,0,0.7,0l3.4,0c2.7,0,5.3,0,8,0
			c0.7,0,1.3,0.1,1.8,0.6c0.3,0.4,0.4,0.9,0.3,1.6c-0.2,0.9-0.2,1.9-0.2,2.8l0,0.4c-0.1,1.2-0.8,1.7-1.5,1.9c-2.9,1.1-5.6,1.1-8.3,0
			c-1-0.4-1.4-1-1.5-1.9c-0.2-1.7-0.2-1.7-2-1.7C12,23.7,11.8,23.7,11.4,23.7C11.5,23.7,11.4,23.7,11.4,23.7z"/>
	</g>
</g>
</svg>
