<?xml version="1.0" encoding="utf-8"?>
<!-- Generator: Adobe Illustrator 25.4.1, SVG Export Plug-In . SVG Version: 6.00 Build 0)  -->
<svg version="1.1" id="Calque_1" xmlns="http://www.w3.org/2000/svg" xmlns:xlink="http://www.w3.org/1999/xlink" x="0px" y="0px"
	 viewBox="0 0 40 40" style="enable-background:new 0 0 40 40;" xml:space="preserve">
<style type="text/css">
	.st0{fill:#FFFFFF;}
	.st1{fill:#0C7189;}
</style>
<g id="Id">
	<rect x="4.9" y="4.4" class="st0" width="30.2" height="30.8"/>
	<g>
		<path class="st0" d="M39.3,6.9c-0.1-1.1-0.4-2-1-2.9c-1.1-1.7-2.6-2.8-4.6-3.2c-0.3-0.1-0.6-0.1-0.9-0.1c-0.1,0-0.3,0-0.4,0
			c-8.2,0-16.5,0-24.7,0c-0.1,0-0.3,0-0.4,0C4.4,0.8,1.8,2.8,1,5.7C0.8,6.4,0.7,7,0.7,7.7c0,0.1,0,0.1,0,0.2c0,8.1,0,16.2,0,24.3
			c0,0.1,0,0.1,0,0.2c0,0.8,0.1,1.6,0.4,2.3c0.9,2.4,2.5,3.9,5,4.5c0.2,0.1,0.5,0.1,0.7,0.1c0.2,0,0.4,0,0.6,0.1c8.5,0,17,0,25.4,0
			c0.2,0,0.4,0,0.6-0.1c2.3-0.3,4-1.5,5.2-3.6c0.4-0.7,0.6-1.5,0.8-2.3c0-0.1,0-0.2,0-0.3c0-0.1,0-0.1,0-0.2c0-8.6,0-17.2,0-25.8
			C39.3,7,39.3,7,39.3,6.9z M14.7,27.6c0,0.1,0,0.2,0,0.2c0,0.1-0.1,0.2-0.2,0.2c-0.1,0-0.2,0-0.3,0c-0.9,0-1.8,0-2.7,0
			c0,0-0.1,0-0.1,0c-0.2,0-0.2-0.1-0.2-0.2c0-0.1,0-0.1,0-0.2c0-2.8,0-5.6,0-8.4c0-2.8,0-5.5,0-8.3c0-0.4,0-0.4,0.4-0.4
			c1,0,1.9,0,2.9,0c0.3,0,0.3,0.1,0.3,0.3c0,1,0,1.9,0,2.9C14.7,18.4,14.7,23,14.7,27.6z M29.1,27.3c-1,0.4-2,0.7-3,0.8
			c-0.9,0.1-1.7,0.2-2.6,0.1c-1.4-0.1-2.7-0.5-3.9-1.3c-1.1-0.9-1.8-2-2.1-3.4c-0.2-0.9-0.2-1.7-0.2-2.6c0.1-1.7,0.8-3.2,2-4.3
			c0.9-0.9,2-1.5,3.3-1.8c0.8-0.2,1.5-0.2,2.3-0.2c0.2,0,0.4,0,0.6,0c0.1,0,0.1,0,0.1-0.1c0,0,0-0.1,0-0.1c0-1.6,0-3.2,0-4.8
			c0,0,0-0.1,0-0.1c0-0.2,0-0.3,0.3-0.3c1,0,2,0,3.1,0c0.2,0,0.3,0,0.3,0.3c0,2.8,0,5.5,0,8.3c0,2.2,0,4.4,0,6.6c0,0.6,0,1.1,0,1.7
			c0,0.3,0,0.6,0.1,0.9C29.3,27.1,29.3,27.2,29.1,27.3z"/>
		<path class="st1" d="M7.3,40l-0.6-0.1c-0.3,0-0.5-0.1-0.8-0.1c-2.6-0.7-4.4-2.3-5.4-4.9C0.1,34,0.1,33.1,0,32.4l0-0.2l0-0.1L0,7.8
			l0-0.2c0-0.6,0.1-1.3,0.3-2.1C1.2,2.3,4,0.1,7.2,0l0.4,0l25.1,0c0.4,0,0.7,0,1,0.1c2.2,0.4,3.9,1.6,5,3.5c0.6,1,1,2.1,1.1,3.2
			l0,0.3L40,33l0,0.2c0,0.2,0,0.3,0,0.4c-0.1,0.9-0.4,1.8-0.9,2.5c-1.3,2.3-3.2,3.6-5.7,3.9L32.8,40L7.3,40z M1.3,32.4
			c0,0.6,0.1,1.4,0.4,2c0.8,2.2,2.3,3.5,4.5,4.1c0.2,0.1,0.4,0.1,0.6,0.1l0.6,0.1l25.8-0.1c2.1-0.3,3.6-1.3,4.7-3.2
			c0.3-0.6,0.6-1.3,0.7-2.1l0-0.1c0-0.1,0-0.3,0-0.3l0-25.7c0,0,0-0.1,0-0.2c-0.1-0.9-0.4-1.7-0.9-2.5c-1-1.6-2.3-2.5-4.2-2.9
			c-0.3-0.1-0.5-0.1-0.8-0.1l-0.4,0l-25.1,0c-2.6,0.1-4.9,2-5.6,4.6C1.4,6.5,1.4,7.1,1.3,7.6c0,0.1,0,0.2,0,0.2l0,24.3
			C1.4,32.2,1.4,32.3,1.3,32.4z M40,33.2L40,33.2C40,33.2,40,33.2,40,33.2z M24.1,28.9c-0.2,0-0.5,0-0.7,0c-1.7-0.1-3.1-0.6-4.2-1.5
			c-1.2-0.9-2-2.2-2.4-3.8c-0.2-0.9-0.3-1.9-0.2-2.8c0.2-1.9,0.9-3.5,2.2-4.8c1-1,2.2-1.6,3.6-2c0.8-0.2,1.6-0.3,2.4-0.2
			c0,0,0,0,0.1,0l0-4.4c0-0.6,0.3-0.9,0.9-0.9H29c0.6,0,0.9,0.3,0.9,1l0,14.9c0,0.5,0,1.1,0,1.6c0,0.2,0,0.3,0,0.5l0,0.4
			c0,0.5-0.2,0.9-0.7,1.1h0c-1,0.4-2,0.7-3.1,0.9C25.5,28.9,24.8,28.9,24.1,28.9z M24.7,15.2c-0.7,0-1.3,0.1-1.9,0.2
			c-1.2,0.3-2.2,0.8-3,1.6c-1.1,1.1-1.7,2.4-1.8,3.9c-0.1,0.8,0,1.6,0.2,2.4c0.3,1.3,0.9,2.3,1.9,3c0.9,0.7,2.1,1.1,3.5,1.2
			c0.8,0,1.6,0,2.5-0.1c1-0.1,1.8-0.4,2.7-0.7l0-0.2c0-0.2,0-0.4,0-0.6c0-0.6,0-1.1,0-1.7l0-14.5l-2.3,0v4.5c0,0.4-0.1,0.6-0.2,0.7
			l-0.2,0.2l-0.4,0c-0.2,0-0.4,0-0.6,0C24.8,15.2,24.8,15.2,24.7,15.2z M29.1,27.3l-0.2-0.6c0,0,0,0,0,0L29.1,27.3l-0.3-0.6
			L29.1,27.3z M28.8,26.6L28.8,26.6L28.8,26.6z M14.4,28.7c0,0-0.1,0-0.1,0l-2.9,0c-0.5,0-0.8-0.3-0.9-0.8c0-0.1,0-0.2,0-0.3V11
			c0-0.7,0.3-1.1,1-1.1h2.9c0.6,0,1,0.4,1,1l0,16.7h-0.7l0.7,0.1c0,0.1,0,0.2,0,0.3c0,0.5-0.4,0.8-0.9,0.8
			C14.5,28.7,14.4,28.7,14.4,28.7z M11.8,11.2l0,16.1h2.3l0-16.1L11.8,11.2z"/>
	</g>
	<path class="st1" d="M24.4,25.7c-0.1,0-0.1,0-0.2,0c-0.6,0-1.1-0.1-1.6-0.3c-1-0.4-1.6-1.1-2-2.2c-0.3-0.7-0.4-1.4-0.3-2.2
		c0-0.4,0.1-0.8,0.2-1.3c0.3-0.9,0.9-1.6,1.7-2.2c0.9-0.5,1.8-0.8,2.9-0.7c0.2,0,0.4,0,0.6,0.1c0.4,0.1,0.6,0.4,0.6,0.9l0,6.9
		c0,0.5-0.2,0.8-0.7,0.9c-0.2,0-0.5,0-0.7,0.1C24.7,25.7,24.5,25.7,24.4,25.7z M24.6,18.2c-0.6,0-1.2,0.2-1.7,0.5
		c-0.6,0.4-1,0.8-1.2,1.4c-0.1,0.3-0.1,0.5-0.1,0.9c0,0.6,0,1.1,0.2,1.7c0.2,0.7,0.7,1.1,1.3,1.4c0.3,0.1,0.7,0.2,1.1,0.2
		c0.2,0,0.4,0,0.6,0c0.1,0,0.1,0,0.2,0v-6.1c0,0,0,0,0,0C24.9,18.2,24.7,18.2,24.6,18.2z M25,17.7C25,17.7,25,17.8,25,17.7L25,17.7z
		"/>
</g>
</svg>
