<?xml version="1.0" encoding="utf-8"?>
<!-- Generator: Adobe Illustrator 25.4.1, SVG Export Plug-In . SVG Version: 6.00 Build 0)  -->
<svg version="1.1" id="Calque_1" xmlns="http://www.w3.org/2000/svg" xmlns:xlink="http://www.w3.org/1999/xlink" x="0px" y="0px"
	 viewBox="0 0 40 40" style="enable-background:new 0 0 40 40;" xml:space="preserve">
<style type="text/css">
	.st0{fill:#0C7189;}
</style>
<g>
	<path class="st0" d="M0,25.6c0-4.4,0-8.8,0-13.2c0-0.1,0-0.1,0.1-0.1c13.3,0,26.6,0,39.8,0c0,0.1,0,0.2,0,0.3c0,4.2,0,8.5,0,12.7
		c0,0.4,0,0.4-0.4,0.4c-6.5,0-12.9,0-19.4,0c-0.2,0-0.2,0-0.2,0.2c0,0.6,0,1.1,0,1.7c0,0.3,0,0.3-0.3,0.3c-2.8,0-5.6,0-8.4,0
		c-0.3,0-0.3,0-0.3-0.3c0-0.6,0-1.2,0-1.7c0-0.1,0-0.2-0.2-0.2c-0.1,0-0.1,0-0.2,0c-3.5,0-7,0-10.5,0C0.2,25.6,0.1,25.6,0,25.6z
		 M31.1,14.5c-2.1,0-4.3,0-6.4,0c-0.2,0-0.2,0-0.2,0.2c0,2.8,0,5.6,0,8.4c0,0.2,0,0.2,0.2,0.2c1.3,0,2.6,0,3.9,0
		c0.3,0,0.3,0,0.3-0.3c0-2,0-4,0-6.1c0-0.1,0-0.1,0-0.2c0-0.1,0.1-0.2,0.2-0.2c0.6,0,1.3,0,1.9,0c0.1,0,0.2,0.1,0.2,0.2
		c0,0.1,0,0.1,0,0.2c0,2,0,4.1,0,6.1c0,0.2,0,0.2,0.2,0.2c0.6,0,1.2,0,1.7,0c0.2,0,0.2,0,0.2-0.2c0-1.4,0-2.8,0-4.3c0-0.7,0-1.3,0-2
		c0-0.1,0-0.2,0.2-0.2c0.6,0,1.3,0,1.9,0c0.1,0,0.1,0.1,0.1,0.2c0,0.1,0,0.1,0,0.2c0,2,0,4.1,0,6.1c0,0.2,0,0.2,0.2,0.2
		c0.6,0,1.2,0,1.8,0c0.2,0,0.2,0,0.2-0.2c0-2.8,0-5.6,0-8.4c0-0.2,0-0.2-0.2-0.2C35.4,14.5,33.2,14.5,31.1,14.5z M13.3,20
		c0,1.8,0,3.6,0,5.3c0,0.2,0,0.2,0.2,0.2c1.3,0,2.7,0,4,0c0.2,0,0.2,0,0.2-0.2c0-0.6,0-1.2,0-1.8c0-0.2,0-0.2,0.2-0.2
		c1.3,0,2.6,0,4,0c0.2,0,0.2,0,0.2-0.2c0-2.8,0-5.6,0-8.4c0-0.2,0-0.2-0.2-0.2c-2.8,0-5.6,0-8.4,0c-0.3,0-0.3,0-0.3,0.3
		C13.3,16.5,13.3,18.2,13.3,20z M2.2,18.9c0,1.4,0,2.8,0,4.2c0,0.2,0,0.2,0.3,0.2c1.3,0,2.6,0,3.9,0c0.3,0,0.3,0,0.3-0.3
		c0-2.1,0-4.1,0-6.2c0-0.2,0-0.2,0.2-0.2c0.6,0,1.1,0,1.7,0c0.3,0,0.3,0,0.3,0.3c0,2,0,4.1,0,6.1c0,0.2,0,0.2,0.2,0.2
		c0.6,0,1.2,0,1.7,0c0.2,0,0.2,0,0.2-0.2c0-2.8,0-5.6,0-8.4c0-0.2,0-0.2-0.2-0.2c-2.8,0-5.6,0-8.4,0c-0.2,0-0.2,0-0.2,0.2
		C2.2,16.1,2.2,17.5,2.2,18.9z"/>
	<path class="st0" d="M20,18.9c0,0.7,0,1.3,0,2c0,0.2,0,0.2-0.2,0.2c-0.6,0-1.2,0-1.8,0c-0.2,0-0.2,0-0.2-0.2c0-1.4,0-2.7,0-4.1
		c0-0.2,0-0.2,0.2-0.2c0.6,0,1.2,0,1.8,0c0.2,0,0.2,0,0.2,0.2C20,17.5,20,18.2,20,18.9z"/>
</g>
</svg>
