<?xml version="1.0" encoding="utf-8"?>
<!-- Generator: Adobe Illustrator 25.4.1, SVG Export Plug-In . SVG Version: 6.00 Build 0)  -->
<svg version="1.1" id="Calque_1" xmlns="http://www.w3.org/2000/svg" xmlns:xlink="http://www.w3.org/1999/xlink" x="0px" y="0px"
	 viewBox="0 0 42 40" style="enable-background:new 0 0 42 40;" xml:space="preserve">
<style type="text/css">
	.st0{fill:#0C7189;}
</style>
<g>
	<path class="st0" d="M17.2,0c3.4,0,6.2,0.5,8.9,1.8c3.4,1.7,5.8,4.4,7.3,7.9c1.2,2.7,1.6,5.5,1.8,8.4c0.2,2.8,0,5.6-0.7,8.3
		c-1,4.5-3.3,8.2-7.2,10.8c-2.3,1.5-4.8,2.2-7.5,2.4c-2.5,0.2-4.9,0.1-7.3-0.5C7.2,38,3.6,34.7,1.6,29.6c-0.9-2.1-1.3-4.4-1.5-6.7
		c-0.3-3.6-0.2-7.1,0.7-10.6c0.7-2.8,2-5.4,4-7.5c2.4-2.5,5.4-3.9,8.7-4.5C15,0.1,16.3,0,17.2,0z M30.5,20c0-2.9-0.2-5.6-1.2-8.3
		C28,8.2,25.7,5.6,22,4.6c-2.9-0.8-5.9-0.8-8.8,0.1c-1.9,0.6-3.6,1.6-4.9,3.1c-1.7,2-2.6,4.4-3.1,7c-0.5,2.6-0.5,5.2-0.3,7.8
		c0.2,2.7,0.8,5.2,2,7.6c1.4,2.6,3.5,4.3,6.3,5.1c2.2,0.7,4.4,0.8,6.6,0.5c1.5-0.2,3-0.6,4.4-1.3c2.8-1.5,4.5-4,5.4-7
		C30.3,25,30.5,22.5,30.5,20z"/>
	<path class="st0" d="M42,36.4c0,2-1.6,3.6-3.6,3.6c-2,0-3.5-1.6-3.5-3.6c0-2,1.6-3.6,3.6-3.6C40.4,32.9,42,34.5,42,36.4z"/>
</g>
</svg>
