<?xml version="1.0" encoding="utf-8"?>
<!-- Generator: Adobe Illustrator 25.4.1, SVG Export Plug-In . SVG Version: 6.00 Build 0)  -->
<svg version="1.1" id="Calque_1" xmlns="http://www.w3.org/2000/svg" xmlns:xlink="http://www.w3.org/1999/xlink" x="0px" y="0px"
	 viewBox="0 0 45 40" style="enable-background:new 0 0 45 40;" xml:space="preserve">
<style type="text/css">
	.st0{display:none;fill:#FFFFFF;}
	.st1{fill:#0C7189;}
</style>
<g id="react">
	<path class="st0" d="M44.6,18.2c-0.6-1.2-1.5-2-2.5-2.8c-1.8-1.3-3.8-2.1-5.9-2.8c-0.4-0.1-0.5-0.3-0.4-0.7
		c0.4-1.6,0.6-3.2,0.6-4.9c0-2-0.2-3.1-0.8-4.5c-0.9-2-2.3-2.7-4.2-2.6c-1.4,0.1-2.7,0.6-4,1.3c-1.7,0.9-3.2,2.1-4.6,3.4
		c-0.2,0.2-0.3,0.2-0.6,0c-0.8-0.8-1.7-1.5-2.6-2.2c-1.7-1.2-3.4-2.1-5.5-2.5c-2-0.3-3.7,0.5-4.6,2.3C8.9,3.8,8.7,5.2,8.7,6.6
		c0,1.8,0.2,3.5,0.6,5.2c0.2,0.6,0.2,0.6-0.5,0.8c-1,0.3-2,0.7-3,1.1c-1.8,0.8-3.5,1.8-4.7,3.4c-1.4,1.7-1.5,3.5-0.3,5.3
		c0.5,0.8,1.1,1.4,1.9,2c1.8,1.4,3.9,2.4,6.1,3c0.6,0.2,0.6,0.2,0.5,0.8c-0.5,2.1-0.8,4.3-0.5,6.5c0.1,1.1,0.4,2.2,0.9,3.2
		c0.8,1.5,2.1,2.2,3.8,2.1c1.3,0,2.5-0.4,3.7-1c1.9-0.9,3.5-2.2,5.1-3.6c0.3-0.3,0.4-0.2,0.7,0c0.6,0.5,1.2,1.1,1.8,1.6
		c1.7,1.3,3.5,2.4,5.6,2.9c2.3,0.5,4.2-0.4,5.2-2.5c0.5-1.1,0.7-2.2,0.8-3.4c0.1-2-0.1-4-0.5-5.9c-0.1-0.4,0-0.6,0.4-0.7
		c1.5-0.5,3-1.1,4.4-1.9c1.5-0.9,2.9-1.8,3.8-3.3C45.1,20.9,45.2,19.6,44.6,18.2z"/>
	<path class="st1" d="M36.2,7.1c0,1.6-0.2,3.3-0.6,4.9c-0.1,0.4,0,0.6,0.4,0.7c2.1,0.6,4.1,1.5,5.9,2.8c1,0.7,2,1.6,2.5,2.8
		c0.7,1.3,0.5,2.7-0.2,3.9c-0.9,1.5-2.3,2.5-3.8,3.3c-1.4,0.8-2.9,1.4-4.4,1.9c-0.4,0.1-0.5,0.3-0.4,0.7c0.5,1.9,0.7,3.9,0.5,5.9
		c-0.1,1.2-0.3,2.3-0.8,3.4c-0.9,2.1-2.8,3-5.2,2.5c-2.1-0.5-3.9-1.6-5.6-2.9c-0.6-0.5-1.2-1-1.8-1.6c-0.3-0.2-0.4-0.3-0.7,0
		c-1.5,1.4-3.2,2.7-5.1,3.6c-1.2,0.6-2.4,1-3.7,1c-1.7,0-3-0.6-3.8-2.1c-0.5-1-0.8-2-0.9-3.2c-0.3-2.2,0.1-4.3,0.5-6.5
		c0.1-0.6,0.1-0.6-0.5-0.8c-2.2-0.7-4.3-1.6-6.1-3c-0.7-0.6-1.4-1.2-1.9-2c-1.2-1.8-1.1-3.6,0.3-5.3c1.3-1.6,3-2.5,4.7-3.4
		c1-0.5,2-0.8,3-1.1c0.6-0.2,0.6-0.2,0.5-0.8c-0.4-1.7-0.7-3.5-0.6-5.2c0-1.4,0.2-2.9,0.8-4.2c0.9-1.8,2.5-2.7,4.6-2.3
		c2.1,0.3,3.8,1.3,5.5,2.5c0.9,0.7,1.8,1.4,2.6,2.2c0.2,0.2,0.3,0.2,0.6,0c1.4-1.3,2.9-2.5,4.6-3.4c1.2-0.7,2.5-1.2,4-1.3
		c1.8-0.1,3.3,0.6,4.2,2.6C36.1,4,36.2,5.1,36.2,7.1z M22.1,27.2c1.3,0,2.4-0.1,3.4-0.1c0.8,0,1.3-0.2,1.6-0.9
		c0-0.1,0.1-0.1,0.1-0.2c1.1-1.8,2.2-3.6,3.1-5.5c0.2-0.3,0.3-0.6,0.1-1c-1.1-2.2-2.3-4.3-3.7-6.3c-0.2-0.2-0.3-0.4-0.6-0.4
		c-0.8,0-1.5-0.1-2.3-0.1c-1.6,0-3.3,0-4.9,0.1c-0.5,0-0.8,0.2-1,0.6c-1.3,2-2.5,4.1-3.6,6.2c-0.1,0.2-0.1,0.4,0,0.7
		c0.3,0.6,0.6,1.1,0.9,1.7c0.9,1.6,1.8,3.2,2.8,4.7c0.2,0.2,0.3,0.4,0.6,0.4C20,27.2,21.2,27.3,22.1,27.2z M2,19.9
		c0,0.8,0.4,1.4,0.9,2c1.8,1.9,4.2,2.9,6.7,3.7c0.3,0.1,0.4-0.1,0.5-0.3c0.5-1.6,1.1-3.1,1.8-4.6c0.2-0.5,0.2-0.9,0-1.4
		c-0.7-1.5-1.3-3-1.7-4.5c-0.1-0.4-0.3-0.5-0.6-0.3c-1,0.3-2,0.7-3,1.1c-1.4,0.6-2.7,1.4-3.8,2.6C2.3,18.7,1.9,19.2,2,19.9z
		 M13.3,38c0.6,0,1.2-0.1,1.7-0.3c2.3-0.8,4.2-2.1,5.9-3.8c0.2-0.2,0.2-0.3,0-0.6c-1.2-1.4-2.3-2.8-3.4-4.2
		c-0.1-0.2-0.3-0.2-0.5-0.3c-1.8-0.1-3.5-0.4-5.2-0.7c-0.4-0.1-0.6,0.1-0.7,0.5c-0.4,1.8-0.6,3.6-0.5,5.4c0,0.9,0.2,1.9,0.6,2.7
		C11.7,37.6,12.4,38.1,13.3,38z M34.5,32.8c-0.1-1.5-0.2-3-0.6-4.4c-0.1-0.3-0.2-0.4-0.5-0.3c-1.7,0.4-3.5,0.6-5.3,0.8
		c-0.4,0-0.6,0.2-0.8,0.5c-1,1.4-2,2.8-3.2,4c-0.2,0.2-0.2,0.4,0,0.6c0.8,0.7,1.5,1.4,2.4,1.9c1.3,0.9,2.7,1.7,4.3,2
		c1.5,0.3,2.4-0.2,3-1.6C34.3,35.2,34.4,34,34.5,32.8z M13.3,1.9c-1,0-1.7,0.5-2.2,1.6c-0.3,0.8-0.5,1.7-0.5,2.6
		c-0.1,1.8,0.2,3.5,0.5,5.2c0.1,0.5,0.2,0.6,0.7,0.5c1.7-0.3,3.3-0.6,5-0.8c0.3,0,0.5-0.2,0.7-0.4c1-1.4,2.1-2.8,3.3-4
		c0.3-0.3,0.2-0.5-0.1-0.8c-1.2-1.1-2.5-2.1-4-2.9C15.7,2.5,14.6,2,13.3,1.9z M34.4,7c0-1.1-0.1-2.3-0.5-3.4c-0.5-1.5-1.4-2-3-1.7
		c-2.7,0.6-4.8,2.3-6.8,4.2c-0.2,0.1-0.1,0.3,0,0.4c1.2,1.3,2.3,2.7,3.3,4.2c0.2,0.2,0.4,0.3,0.6,0.4c1.8,0.2,3.5,0.4,5.2,0.8
		c0.3,0.1,0.4,0,0.5-0.3C34.1,10.1,34.3,8.6,34.4,7z M43.1,20c0-0.8-0.4-1.4-0.9-1.9c-1.9-1.9-4.3-2.8-6.8-3.6
		c-0.2-0.1-0.4,0-0.4,0.2c-0.5,1.7-1.2,3.4-2,5c-0.1,0.2-0.1,0.4,0,0.6c0.8,1.6,1.5,3.3,2,5c0.1,0.3,0.2,0.4,0.5,0.3
		c2.2-0.7,4.3-1.6,6.1-3.1C42.3,21.8,43,21.1,43.1,20z M29.1,26.8c0.1,0,0.2,0,0.2,0c1.2-0.1,2.4-0.4,3.5-0.6
		c0.3-0.1,0.4-0.2,0.3-0.5c-0.4-1.1-0.8-2.1-1.2-3.1c0-0.1-0.1-0.3-0.2-0.3c-0.1,0-0.2,0.2-0.2,0.3c-0.5,0.9-1,1.9-1.6,2.8
		C29.7,25.9,29.4,26.3,29.1,26.8z M15.7,26.9c0.2,0,0.1-0.2,0-0.4c-0.8-1.3-1.6-2.6-2.3-3.9c0-0.1-0.1-0.2-0.2-0.2
		c-0.1,0-0.1,0.1-0.2,0.2c-0.5,1.1-0.8,2.2-1.2,3.3c-0.1,0.2,0,0.3,0.2,0.4C13.3,26.5,14.4,26.7,15.7,26.9z M20.7,29.1
		c-0.1,0-0.3,0-0.4,0c-0.1,0-0.3,0-0.3,0.1c-0.1,0.1,0.1,0.2,0.1,0.3c0.7,0.9,1.4,1.7,2.1,2.6c0.2,0.2,0.4,0.3,0.6,0
		c0.6-0.8,1.3-1.6,1.9-2.4c0.1-0.1,0.3-0.3,0.2-0.4c-0.1-0.2-0.3-0.1-0.5-0.1C23.3,29.1,22,29.3,20.7,29.1z M22.5,10.9
		c0.7,0,1.4,0,2.1,0c0.1,0,0.3,0.1,0.4-0.1c0.1-0.1-0.1-0.2-0.2-0.3c-0.6-0.8-1.3-1.6-2-2.4c-0.3-0.3-0.4-0.3-0.7,0
		c-0.7,0.8-1.5,1.7-2.1,2.5c0,0.1-0.2,0.1-0.1,0.2c0.1,0.1,0.2,0.1,0.2,0.1C21,10.9,21.7,10.9,22.5,10.9z M29.4,13.2
		c-0.3,0-0.3,0.1-0.2,0.3c0.1,0.2,0.3,0.4,0.4,0.6c0.6,1.1,1.3,2.1,1.9,3.3c0,0.1,0.1,0.2,0.2,0.2c0.1,0,0.1-0.1,0.2-0.2
		c0.4-1,0.8-2.1,1.2-3.2c0.1-0.2,0-0.4-0.2-0.4C31.7,13.5,30.6,13.4,29.4,13.2z M15.5,13.2c-1.1,0.2-2.2,0.3-3.3,0.6
		C12,13.8,11.9,14,12,14.2c0.4,1.1,0.7,2.1,1.2,3.2c0,0.1,0.1,0.2,0.2,0.2c0.1,0,0.1-0.1,0.2-0.2c0.1-0.2,0.3-0.5,0.4-0.7
		c0.6-1,1.2-2,1.8-3c0.1-0.1,0.2-0.2,0.1-0.3C15.7,13.2,15.6,13.2,15.5,13.2z"/>
	<path class="st1" d="M18.5,19.9c-0.1-2.1,1.8-4,4-4c2.3,0,3.9,1.7,4,4c0,1.7-1.4,4-4,4C20,24,18.4,21.9,18.5,19.9z"/>
</g>
</svg>
