<?xml version="1.0" encoding="utf-8"?>
<!-- Generator: Adobe Illustrator 25.4.1, SVG Export Plug-In . SVG Version: 6.00 Build 0)  -->
<svg version="1.1" id="Calque_1" xmlns="http://www.w3.org/2000/svg" xmlns:xlink="http://www.w3.org/1999/xlink" x="0px" y="0px"
	 viewBox="0 0 40 40" style="enable-background:new 0 0 40 40;" xml:space="preserve">
<style type="text/css">
	.st0{fill:#0C7189;}
</style>
<g>
	<path class="st0" d="M4,18.9c0-1.2,0-2.5,0-3.7c0-0.6,0.2-0.7,0.7-0.7c0.7,0,1.4,0,2,0.2c0.6,0.1,1.1,0.5,1.3,1.1
		c0.2,1.1,0.4,2.2-0.7,3c-0.2,0.2-0.2,0.5-0.1,0.7c0.3,1,0.6,2.1,0.9,3.1c0.1,0.2,0.3,0.6-0.2,0.6c-0.3,0.1-0.6-0.1-0.6-0.4
		c-0.3-1.1-0.7-2.2-1-3.4c-0.2-0.6-0.6-0.4-1-0.5c-0.5,0-0.6,0.3-0.6,0.6c0,1,0,1.9,0,2.8c0,0.3,0.1,0.7-0.4,0.7C4,23.3,4,23,4,22.6
		C4,21.4,4,20.2,4,18.9z M4.9,16.8C4.9,16.8,5,16.8,4.9,16.8c0,0.4,0,0.7,0,1.1c0,0.2,0.1,0.4,0.4,0.5c1.3,0.1,2.2-0.1,2.1-1.7
		c0-1.1-0.5-1.5-1.8-1.5c-0.6,0-0.7,0.2-0.7,1.4C4.9,16.7,4.9,16.8,4.9,16.8z"/>
	<path class="st0" d="M17.9,18.9c0-1.3,0-2.5,0-3.8c0-0.2-0.1-0.6,0.4-0.6c0.5,0,0.4,0.4,0.4,0.6c0,0.6,0,1.3,0,1.9
		c0,0.3,0.1,0.5,0.4,0.2c0.2-0.2,0.5-0.2,0.7-0.3c0.7-0.2,1.3,0.2,1.3,0.9c0.1,1.7,0.1,3.4,0.1,5c0,0.2-0.2,0.4-0.4,0.4
		c-0.3,0-0.3-0.3-0.3-0.6c0-1.1,0-2.3,0-3.4c0-0.2,0-0.5,0-0.7c0-0.5,0-0.9-0.6-1c-0.5,0-1,0.5-1,1c0,1.2,0,2.3,0,3.5
		c0,0.2,0,0.4,0,0.6c0,0.2,0,0.6-0.4,0.6S18,22.9,18,22.6c0-1,0-1.9,0-2.8C17.9,19.6,17.9,19.3,17.9,18.9z"/>
	<path class="st0" d="M9.3,20.2c0-0.6-0.1-1.4,0.2-2c0.2-0.9,0.8-1.2,1.8-1.2c0.7,0.1,1.1,0.5,1.3,1.4c0.3,1.8,0.3,1.8-1.5,1.8
		c-0.9,0-0.9,0-0.9,0.9c0,0.3,0,0.7,0.1,1c0.1,0.4,0.3,0.6,0.8,0.6c0.4,0,0.7-0.2,0.8-0.6c0-0.1,0-0.1,0-0.2c0.1-0.3,0-0.9,0.6-0.7
		c0.6,0.2,0.2,0.6,0.2,1c-0.2,0.9-0.6,1.2-1.4,1.2c-0.9,0-1.4-0.3-1.7-1.1C9.2,21.6,9.3,20.9,9.3,20.2z M11.8,19
		c0-0.3,0-0.5-0.1-0.6c-0.1-0.4-0.2-0.6-0.7-0.6c-0.4,0-0.7,0.2-0.8,0.6c-0.1,0.2-0.1,0.4-0.1,0.6c0,0.7,0.1,0.7,1,0.7
		C11.8,19.6,11.9,19.4,11.8,19z"/>
	<path class="st0" d="M25.6,20.8c0,0.6,0,1.3,0,2c0,0.2,0,0.4-0.2,0.5c-0.2,0.1-0.4,0.1-0.5-0.2c-0.2-0.2-0.3-0.2-0.5,0
		c-0.8,0.5-1.3,0.5-1.8-0.1c-0.4-0.5-0.4-1.6,0-2.2c0.4-0.5,1-0.7,1.4-1c0.6-0.3,0.9-1.4,0.5-2c-0.3-0.4-1-0.3-1.3,0.2
		c-0.1,0.2-0.1,0.4-0.2,0.6c-0.1,0.2-0.2,0.3-0.4,0.3c-0.2-0.1-0.3-0.2-0.3-0.4c0-0.6,0.5-1.3,1-1.4c1-0.2,1.7,0.1,2,0.7
		c0.4,0.9,0.2,1.8,0.2,2.7C25.6,20.6,25.6,20.7,25.6,20.8L25.6,20.8z M24.6,21.2c0-0.2,0-0.4,0-0.6c0-0.2-0.1-0.3-0.2-0.2
		c-0.7,0.1-1.4,1-1.3,1.8c0.1,0.6,0.6,0.9,1.2,0.5C24.8,22.2,24.6,21.7,24.6,21.2z"/>
	<path class="st0" d="M13.6,20.1c0-0.6-0.1-1.4,0.2-2c0.3-1,1-1.4,2.1-1c0.6,0.2,1.1,1,1,1.8c0,0.2-0.1,0.4-0.3,0.4
		s-0.4-0.2-0.4-0.4c0-0.1,0-0.2,0-0.2c-0.1-0.6-0.2-1-0.9-1c-0.6,0-0.8,0.6-0.8,1c0,1,0,2.1,0,3.1c0,0.7,0.4,1,0.9,1
		c0.6,0,0.8-0.5,0.8-1c0-0.2,0-0.3,0.1-0.6c0.1-0.2,0.2-0.3,0.4-0.2c0.2,0,0.3,0.2,0.3,0.3c0.2,1.3-0.6,2.2-1.9,2.1
		c-0.6-0.1-1-0.4-1.2-1C13.5,21.7,13.6,20.9,13.6,20.1z"/>
	<path class="st0" d="M30.2,20.3c0-0.6,0-1.2,0-1.7c0-0.4,0.1-0.9-0.6-1c-0.2-0.1-0.3-0.4,0-0.5c0.6-0.2,0.6-0.6,0.6-1.1
		c0-0.2,0-0.3,0-0.6c0-0.2,0.2-0.3,0.4-0.3c0.2,0,0.4,0.1,0.4,0.3s0,0.6,0,0.8c0,0.4,0.1,0.7,0.6,0.7c0.2,0,0.4,0.1,0.4,0.3
		s-0.2,0.3-0.4,0.2c-0.6,0-0.6,0.3-0.6,0.7c0,1.2,0,2.4,0,3.5c0,0.4,0.1,0.8,0.6,0.9c0.2,0,0.3,0.2,0.3,0.3c0,0.2-0.2,0.2-0.4,0.3
		c-0.6,0.1-1.1-0.2-1.3-0.9C30.1,21.8,30.2,20.9,30.2,20.3z"/>
	<path class="st0" d="M34.2,17c0.8,0,1.3,0.4,1.4,1.1c0.1,0.2,0.1,0.5-0.2,0.6c-0.3,0.2-0.3-0.2-0.4-0.3C35,18.2,35,18,35,18
		c-0.2-0.3-0.6-0.3-0.9-0.2c-0.3,0.1-0.4,0.3-0.5,0.6c0,0.6,0.3,0.9,0.7,1.2c0.5,0.4,1,0.9,1.4,1.4c0.4,0.6,0.4,1.2,0.1,1.8
		c-0.2,0.5-1,0.8-1.8,0.6c-0.7-0.2-1-0.6-1.3-1.2c-0.1-0.2-0.1-0.6,0.2-0.6c0.3-0.1,0.4,0.2,0.5,0.4c0,0.1,0,0.2,0.1,0.2
		c0.2,0.6,0.7,0.7,1.2,0.6c0.4-0.2,0.6-0.7,0.3-1.3c-0.2-0.5-0.6-0.8-1-1.1c-0.6-0.5-1.2-1-1.3-1.8C32.8,17.6,33.3,17,34.2,17z"/>
	<path class="st0" d="M27.7,17.6c0.3-0.2,0.6-0.4,0.8-0.6s0.6-0.2,0.6,0.2c0.1,0.3,0,0.5-0.4,0.6c-1,0.2-1.2,0.4-1.2,1.4
		c0,1.1,0,2.2,0,3.4c0,0.3,0.1,0.7-0.4,0.6c-0.5,0-0.4-0.4-0.4-0.7c0-1.6,0-3.2,0-4.8c0-0.3-0.1-0.6,0.3-0.7
		C27.5,17,27.5,17.4,27.7,17.6z"/>
</g>
<g>
	<path class="st0" d="M39.7,5.8c-0.3-0.8-0.5-1.7-1.1-2.5C37,1.1,35,0,32.5,0h-6C20.3,0,14,0,7.7,0C7.6,0,7.6,0,7.6,0
		C4,0,0.1,2.7,0,7.8c0,8.1,0,16.3,0,24.4C0.1,37.3,4,40,7.7,40c8.2-0.1,16.2-0.1,24.2,0H32c3.8,0,6.8-2.3,7.7-5.8l0.3-0.1V6.8V6.6
		C39.9,6.3,39.8,6,39.7,5.8z M38.7,33.3c-0.1,0.1-0.2,0.3-0.2,0.6c-0.8,2.9-3.4,4.8-6.5,4.8h-0.1c-3.8-0.1-7.6-0.1-11.4-0.1
		c-4.2,0-8.5,0-12.9,0c-3,0-6.2-2.2-6.2-6.4c-0.1-8.1-0.1-16.3,0-24.4c0-4.2,3.2-6.4,6.2-6.4c6.3,0,12.6,0,18.8,0h6
		c2.1,0,3.8,0.9,5.1,2.7c0.5,0.6,0.7,1.3,0.9,2.1c0.1,0.3,0.2,0.5,0.3,0.8V33.3z"/>
</g>
</svg>
