<?xml version="1.0" encoding="utf-8"?>
<!-- Generator: Adobe Illustrator 25.4.1, SVG Export Plug-In . SVG Version: 6.00 Build 0)  -->
<svg version="1.1" id="Calque_1" xmlns="http://www.w3.org/2000/svg" xmlns:xlink="http://www.w3.org/1999/xlink" x="0px" y="0px"
	 viewBox="0 0 40 40" style="enable-background:new 0 0 40 40;" xml:space="preserve">
<style type="text/css">
	.st0{fill:#0C7189;}
</style>
<g>
	<path class="st0" d="M20.1,1.2c4.7,0,9.5,2.1,13.1,5.7c3.6,3.6,5.6,8.5,5.6,13.3c-0.1,9.9-8.6,18.6-18.2,18.6c-0.2,0-0.4,0-0.6,0
		c0,0,0,0,0,0c0,0,0,0,0,0c-0.2,0-0.4,0-0.6,0C9.7,38.8,1.2,30,1.2,19.9C1.2,9.9,10,1.2,20.1,1.2 M27.3,11.9
		C27.3,11.9,27.3,11.9,27.3,11.9c0,0,0.1,0.2,0.1,0.6c0,0.3,0,0.7,0,1.1c0,0.4,0,0.9,0.1,1.4c0.1,1.8,0.3,3.6,1.7,5.1
		c-0.7,0.8-1,1.8-1.3,2.6c-0.4,1.3-0.4,2.5-0.4,3.6c0,0.2,0,0.4,0,0.6c0,0.3,0,0.8,0,1c-0.2,0.1-0.7,0.2-1,0.3
		c-1.5,0.4-1.5,1.7-1.5,2.1l0,0.1l0,0.1c0,1.1,0.4,1.8,1.3,2.1c0,0,0.1,0,0.1,0c0.3,0.1,0.7,0.1,1,0.1c1.9,0,3.8-1.2,4.5-2.9
		c0,0,0,0,0-0.1c0.3-1,0.5-1.9,0.5-3c0-0.3,0-0.5,0-0.8c0-1,0-1.9,0.2-2.7c0.1-0.6,0.3-0.7,0.3-0.7c0.1,0,0.2,0,0.2-0.1
		c1.3-0.4,2-1.4,1.8-2.6l0-0.1c0-0.6,0-2.3-1.9-2.5c-0.2,0-0.4,0-0.5-0.9c-0.2-0.8-0.2-1.7-0.1-2.6c0-0.6,0-1.2,0-1.7
		c-0.1-3.2-2-5.1-5.2-5.1c-2.1,0-2.3,1.5-2.3,2.1c0,0.1,0,0.1,0,0.2c0,0.5-0.1,1.2,0.5,1.8c0.4,0.4,0.9,0.6,1.6,0.6
		C27.2,11.9,27.3,11.9,27.3,11.9 M7.8,13.9c0,0.2,0,0.4,0,0.6c0,0.8,0,1.7-0.2,2.4c-0.1,0.5-0.2,0.6-0.3,0.6c-0.8,0-1.4,0.3-1.8,0.7
		C4.8,18.9,5,19.9,5,20.2c0,0,0,0,0,0.1c0,0.1,0,0.1,0,0.2c0,1.2,0.5,1.9,1.7,2.2c0.4,0.1,0.6,0.2,0.7,0.9c0.2,0.8,0.2,1.7,0.1,2.5
		c0,0.6,0,1.1,0,1.7c0.3,4.2,3,5.1,5.2,5.1c2.1,0,2.3-1.5,2.3-2.1c0-0.1,0-0.1,0-0.2c0-0.5,0.1-1.2-0.5-1.8
		c-0.4-0.4-0.9-0.6-1.6-0.6c-0.3,0-0.3,0-0.4-0.5c0-0.4,0-0.9,0-1.4c0-0.5,0-1.1-0.1-1.6c-0.1-1.4-0.4-3.2-1.6-4.5
		c0.6-0.6,0.9-1.4,1.1-2c0-0.1,0.1-0.2,0.1-0.3c0.4-1.2,0.4-2.3,0.4-3.4c0-0.4,0-0.9,0-1.3c0-0.2,0-0.7,0.1-0.9
		c0.1,0,0.3-0.1,0.8-0.2c0,0,0.1,0,0.1,0c1.6-0.4,1.6-1.8,1.6-2.2l0-0.1c0-1.9-1.2-2.2-1.9-2.2c-1.3,0-4.2,0-5.1,3.3
		C7.8,11.7,7.7,12.7,7.8,13.9 M23,20.2c0,1.4,1.1,2.4,2.5,2.4c1.6,0,2.7-1,2.7-2.5c0-1.6-1-2.6-2.5-2.6c-0.8,0-1.6,0.4-2.1,1
		C23.1,19,22.9,19.6,23,20.2 M20,22.6c1.5,0,2.4-0.8,2.6-2.4c0,0,0-0.1,0-0.1c0-1.6-1-2.6-2.5-2.6c-1.6,0-2.6,1-2.6,2.5
		C17.5,21.6,18.5,22.6,20,22.6 M11.9,20c-0.1,0.9,0.2,1.5,0.5,1.8c0.3,0.3,0.9,0.7,1.9,0.7c1.5,0,2.8-1.1,2.8-2.5
		c0-1.4-1.3-2.6-2.7-2.6C12.9,17.5,11.9,18.5,11.9,20 M20.1,0C9.3,0,0,9.4,0,19.9C0,30.6,9,40,19.4,40c0.2,0,0.4,0,0.6,0
		c0.2,0,0.4,0,0.6,0c10.4,0,19.3-9.5,19.4-19.8C40.1,9.4,30.7,0,20.1,0L20.1,0z M27.5,31.8c-0.2,0-0.5,0-0.7-0.1
		c-0.6-0.2-0.5-0.7-0.5-1.1c0-0.5-0.1-0.9,0.6-1.1c1.8-0.5,1.9-0.6,1.9-2.5c0-1.3-0.1-2.6,0.3-3.9c0.3-1,0.6-1.9,1.4-2.5
		c0.4-0.3,0.4-0.6,0-0.9c-1.5-1.3-1.7-3-1.8-4.8c-0.1-0.9,0-1.7-0.1-2.5c-0.1-1-0.4-1.7-1.6-1.7c-1.1,0-0.9-0.8-0.9-1.4
		c0-0.8,0.5-0.9,1.1-0.9c2.5,0,3.9,1.3,4,3.9c0.1,1.5-0.1,3,0.2,4.5c0.2,1,0.5,1.8,1.6,1.9c0.9,0.1,0.8,0.7,0.8,1.5
		c0.1,0.6-0.1,1.1-1,1.4c-0.8,0.1-1.1,0.8-1.3,1.6c-0.3,1.2-0.2,2.5-0.2,3.8c0,0.9-0.1,1.7-0.4,2.6C30.4,30.9,28.9,31.8,27.5,31.8
		L27.5,31.8z M12.8,31.6c-2.5,0-3.8-1.3-4-4c-0.1-1.4,0.1-2.9-0.2-4.4c-0.2-0.9-0.6-1.6-1.7-1.8C6,21.2,6.3,20.5,6.2,20
		c-0.1-0.7,0-1.3,1.2-1.3c0.8-0.1,1.2-0.7,1.4-1.5C9.1,16.1,9,14.9,9,13.8c-0.1-1,0-1.9,0.3-2.9c0.6-2.1,2.2-2.4,4-2.4
		C14,8.5,14,9,14,9.5s0.1,1-0.7,1.2c-1.7,0.3-1.8,0.5-1.9,2.2c-0.1,1.5,0.1,3-0.4,4.4c-0.3,0.8-0.5,1.6-1.2,2.1
		c-0.5,0.3-0.6,0.7-0.1,1.2c1.2,1.1,1.5,2.6,1.6,4.1c0.1,1,0,2,0.1,3c0.1,0.9,0.5,1.6,1.6,1.6s0.9,0.8,0.9,1.4
		C13.9,31.5,13.4,31.6,12.8,31.6L12.8,31.6z M25.5,21.4c-0.8,0-1.3-0.5-1.3-1.3c-0.1-0.7,0.7-1.4,1.5-1.4c0.9,0,1.3,0.5,1.3,1.4
		S26.4,21.4,25.5,21.4L25.5,21.4z M20,21.4c-0.9,0-1.3-0.5-1.3-1.4c0-0.9,0.5-1.3,1.4-1.3c0.9,0,1.3,0.5,1.3,1.4
		C21.3,21,20.9,21.4,20,21.4L20,21.4z M14.3,21.4c-0.8,0-1.3-0.4-1.2-1.3c0-0.9,0.4-1.4,1.3-1.4c0.8,0,1.5,0.7,1.5,1.4
		C15.9,20.8,15.2,21.4,14.3,21.4L14.3,21.4z"/>
</g>
</svg>
