<?xml version="1.0" encoding="utf-8"?>
<!-- Generator: Adobe Illustrator 25.4.1, SVG Export Plug-In . SVG Version: 6.00 Build 0)  -->
<svg version="1.1" id="Calque_1" xmlns="http://www.w3.org/2000/svg" xmlns:xlink="http://www.w3.org/1999/xlink" x="0px" y="0px"
	 viewBox="0 0 40 40" style="enable-background:new 0 0 40 40;" xml:space="preserve">
<style type="text/css">
	.st0{fill:#FFFFFF;}
	.st1{fill:#0C7189;}
</style>
<path class="st0" d="M39.3,6.7c0,8.9,0,17.8,0,26.7c0,0.1,0,0.1,0,0.2c0,0.2-0.1,0.3-0.1,0.5c-0.3,0.6-0.7,1-1.3,1.3
	c-1.1,0.5-2.2,1.1-3.3,1.6c-1.5,0.7-2.9,1.4-4.4,2.1c-1,0.5-2,0.3-2.8-0.4c-0.5-0.5-1-0.9-1.5-1.4c-0.5-0.5-1-0.9-1.5-1.4
	c-0.8-0.7-1.6-1.4-2.4-2.2c-0.6-0.6-1.3-1.2-1.9-1.8c-0.8-0.7-1.6-1.4-2.3-2.1c-0.6-0.6-1.3-1.2-1.9-1.8c-0.8-0.8-1.7-1.5-2.5-2.3
	c-0.4-0.3-0.7-0.6-1.1-1c-0.1-0.1-0.2-0.1-0.3,0c0,0-0.1,0.1-0.1,0.1c-1.1,0.9-2.3,1.7-3.4,2.6c-1,0.8-2,1.5-3,2.3
	c-0.6,0.5-1.4,0.4-2-0.1c-0.2-0.1-0.3-0.3-0.5-0.5c-0.6-0.5-1.1-1-1.7-1.5c-0.3-0.2-0.4-0.5-0.5-0.9c0-0.1,0-0.1-0.1-0.2
	c0-0.1,0-0.2,0-0.3c0,0,0-0.1,0.1-0.1c0.1-0.5,0.3-0.8,0.7-1.1c0.8-0.8,1.7-1.5,2.5-2.3c0.5-0.4,1-0.9,1.5-1.3
	c0.5-0.5,1-0.9,1.5-1.4C7,20,7,20,6.8,19.9c-0.3-0.3-0.6-0.6-1-0.9c-0.8-0.7-1.6-1.5-2.4-2.2c-0.5-0.5-1-0.9-1.5-1.4
	c-0.3-0.2-0.5-0.5-0.7-0.7c-0.4-0.4-0.5-0.9-0.4-1.4c0.1-0.3,0.2-0.6,0.5-0.9c0.3-0.3,0.6-0.6,1-0.9c0.4-0.4,0.8-0.7,1.2-1.1
	c0.1-0.1,0.3-0.2,0.4-0.3C4.4,9.9,5,9.9,5.4,10.3c0.9,0.6,1.7,1.3,2.6,2c1.3,1,2.5,1.9,3.8,2.9c0.3,0.2,0.2,0.2,0.5,0
	c1-0.9,2-1.8,3-2.8c0.9-0.8,1.7-1.6,2.6-2.4c1.2-1.1,2.3-2.1,3.5-3.2c0.8-0.8,1.7-1.6,2.5-2.3c1.2-1.1,2.3-2.1,3.5-3.2
	C28,0.7,29.1,0.5,30,0.9c0.8,0.4,1.6,0.8,2.4,1.2c0.9,0.4,1.8,0.9,2.7,1.3C35.5,3.6,36,3.8,36.4,4c0.6,0.3,1.1,0.5,1.7,0.8
	c0.6,0.3,1,0.8,1.2,1.5C39.3,6.4,39.3,6.6,39.3,6.7z M29.7,20C29.7,20,29.7,20,29.7,20c0-2.8,0-5.6,0-8.5c0-0.1,0-0.2,0-0.2
	c-0.1,0-0.1,0.1-0.2,0.1c0,0-0.1,0-0.1,0.1c-2.5,1.9-5,3.8-7.5,5.7c-1.1,0.9-2.3,1.8-3.4,2.6c-0.2,0.2-0.2,0.2,0,0.3
	c2.2,1.7,4.4,3.3,6.5,5c1.5,1.1,3,2.3,4.5,3.4c0.1,0.1,0.1,0.2,0.2,0.1c0.1,0,0-0.2,0-0.3C29.7,25.6,29.7,22.8,29.7,20z"/>
<g>
	<path class="st1" d="M39.9,6.4c0-0.1,0-0.2,0-0.3c-0.3-0.9-0.8-1.5-1.6-1.9C37.9,4,37.5,3.8,37,3.5l-4.3-2.1
		c-0.8-0.4-1.6-0.8-2.4-1.2c-1.1-0.5-2.5-0.3-3.4,0.5L14,12.6c-0.7,0.6-1.4,1.2-2,1.9L5.9,9.8C5.2,9.2,4.4,9.1,3.6,9.4
		C3.4,9.5,3.1,9.7,2.9,9.9l-2.2,2c-0.4,0.3-0.6,0.7-0.7,1.2c-0.1,0.8,0.1,1.4,0.6,2c0.2,0.2,0.4,0.4,0.6,0.6L6,20l-3.2,3
		c-0.6,0.5-1.2,1.1-1.8,1.6c-0.3,0.3-0.8,0.8-0.9,1.5l0,0.7l0.1,0.2c0.1,0.5,0.3,0.9,0.7,1.2l1.7,1.5C2.6,29.9,2.8,30,3,30.2
		c0.8,0.7,2,0.8,2.9,0.1l6.2-4.7c0.2,0.2,0.4,0.4,0.6,0.6l13.2,12.1c0.3,0.3,0.7,0.6,1,0.9c0.6,0.5,1.3,0.8,2.1,0.8
		c0.5,0,1-0.1,1.4-0.3l5.2-2.5c0.8-0.4,1.7-0.8,2.5-1.2c0.8-0.4,1.3-0.9,1.7-1.7c0.1-0.3,0.2-0.5,0.2-0.8l0-26.8l0-0.1L39.9,6.4z
		 M38.6,33.4c0,0.1,0,0.2-0.1,0.3c-0.2,0.4-0.5,0.7-1,1c-0.8,0.4-1.7,0.8-2.5,1.2l-5.2,2.5c-0.7,0.3-1.4,0.2-2-0.3
		c-0.3-0.3-0.6-0.6-1-0.9L13.6,25.1c-0.3-0.3-0.6-0.6-0.9-0.8C12.4,24.1,12.2,24,12,24c-0.2,0-0.4,0.1-0.6,0.2L5,29.2
		c-0.4,0.3-0.8,0.3-1.2,0c-0.2-0.1-0.3-0.3-0.5-0.4l-1.7-1.5c-0.1-0.1-0.2-0.3-0.3-0.5c0-0.1,0-0.1-0.1-0.2l0-0.1
		c0-0.2,0.2-0.5,0.5-0.7c0.6-0.5,1.2-1.1,1.8-1.6l3.6-3.3c0.1-0.1,0.3-0.3,0.3-0.6c0-0.3-0.2-0.5-0.3-0.6l-5.1-4.7
		c-0.2-0.2-0.4-0.3-0.5-0.5c-0.2-0.2-0.3-0.5-0.2-0.8c0-0.2,0.1-0.4,0.3-0.5l2.2-2c0.1-0.1,0.2-0.1,0.2-0.1c0.4-0.1,0.6-0.1,1,0.1
		l6.4,4.9c0.4,0.4,0.8,0.3,1.3-0.1c0.7-0.7,1.5-1.4,2.2-2L27.8,1.8c0.5-0.5,1.3-0.6,1.9-0.3c0.8,0.4,1.6,0.8,2.4,1.2l4.3,2.1
		c0.4,0.2,0.9,0.4,1.3,0.6c0.4,0.2,0.7,0.6,0.9,1.1c0,0.1,0,0.1,0,0.2l0,26.4L38.6,33.4z"/>
	<path class="st1" d="M30,10.7c-0.1-0.1-0.5-0.3-0.9,0.1L18,19.3c-0.2,0.1-0.4,0.3-0.4,0.7c0,0.4,0.3,0.6,0.4,0.7l11,8.4
		c0.2,0.2,0.4,0.3,0.6,0.3c0.1,0,0.3,0,0.3-0.1c0.2-0.1,0.5-0.3,0.4-0.9l0-16.9C30.4,11,30.1,10.8,30,10.7z M29,27.4L19.3,20
		l9.7-7.4L29,27.4z"/>
</g>
</svg>
