<?xml version="1.0" encoding="utf-8"?>
<!-- Generator: Adobe Illustrator 25.4.1, SVG Export Plug-In . SVG Version: 6.00 Build 0)  -->
<svg version="1.1" id="Calque_1" xmlns="http://www.w3.org/2000/svg" xmlns:xlink="http://www.w3.org/1999/xlink" x="0px" y="0px"
	 viewBox="0 0 40 40" style="enable-background:new 0 0 40 40;" xml:space="preserve">
<style type="text/css">
	.st0{fill:#0C7189;}
</style>
<g>
	<path class="st0" d="M18.3,0c1.1,0,2.2,0,3.3,0c0.1,0,0.1,0,0.2,0c1.6,0.1,3.2,0.5,4.8,1c8.9,3.1,14.6,12.1,13.2,21.8
		c-0.5,3.3-1.7,6.3-3.7,8.9c-3.7,5-8.7,7.7-14.9,8.2c-2.7,0.2-5.4-0.1-7.9-1.1c-6.2-2.3-10.4-6.7-12.5-13c-0.5-1.4-0.7-2.8-0.8-4.3
		c0-1.1,0-2.2,0-3.3c0-0.1,0-0.2,0-0.2c0.1-1.6,0.5-3.2,1-4.8c2.3-6.3,6.7-10.4,13-12.5C15.5,0.4,16.9,0.2,18.3,0z M2.5,20
		c0,9.6,7.8,17.4,17.4,17.5c9.6,0,17.5-7.8,17.5-17.4c0-9.6-7.8-17.5-17.4-17.5C10.4,2.5,2.5,10.3,2.5,20z"/>
	<path class="st0" d="M27.8,29.4c-0.1-0.1-0.2-0.3-0.2-0.4c-1.8-5.3-3.5-10.5-5.3-15.8c0-0.1-0.1-0.2-0.1-0.4
		c-0.1-0.2,0-0.3,0.2-0.3c0.5,0,1-0.1,1.4-0.1c0.5-0.1,0.7-0.3,0.6-0.7c0-0.3-0.4-0.6-0.8-0.5c-0.9,0.1-1.7,0.1-2.6,0.2
		c-1.8,0.1-3.6,0-5.4-0.2c-0.4,0-0.8,0.2-0.8,0.5c0,0.4,0.2,0.6,0.7,0.6c0.4,0.1,0.7,0.1,1.1,0.1c0.4,0,0.5,0.2,0.6,0.5
		c0.6,1.7,1.2,3.4,1.9,5.1c0.3,0.8,0.3,1.6,0,2.4c-1,2.8-1.9,5.7-2.9,8.5c0,0.1-0.1,0.2-0.1,0.3c0,0.1,0,0.2-0.1,0.2
		c-0.1,0-0.1-0.1-0.1-0.2c-0.3-0.8-0.6-1.7-0.9-2.5c-1.5-4.6-3.1-9.1-4.6-13.7c-0.2-0.5-0.2-0.5,0.4-0.6c0.4-0.1,0.8-0.1,1.2-0.1
		c0.4-0.1,0.6-0.3,0.6-0.7c0-0.3-0.3-0.6-0.7-0.5c-1,0.1-2.1,0.1-3.1,0.2c-0.5,0-1.1,0-1.6,0c-0.1,0-0.3,0-0.3-0.1
		C6.8,11.2,6.9,11.1,7,11c2.1-3,4.8-5,8.3-6.1c4.6-1.4,8.9-0.8,13,1.6c0.7,0.4,1.4,0.9,2,1.5c0.1,0.1,0.2,0.1,0.2,0.3
		c0,0.1-0.2,0.1-0.3,0.1c-1.1,0-2.1,1.1-2.3,2.2c-0.2,0.9,0.1,1.7,0.5,2.5c0.5,0.9,1,1.7,1.4,2.5c1,1.9,1,3.8,0.5,5.8
		c-0.8,2.5-1.5,5.1-2.3,7.6C28,29.2,28,29.4,27.8,29.4z"/>
	<path class="st0" d="M20.3,21.4c0.1,0.1,0.2,0.3,0.2,0.4c1.6,4.2,3.1,8.5,4.7,12.7c0.1,0.3,0,0.4-0.2,0.5c-3,1-6,1.1-9.1,0.2
		c-0.3-0.1-0.4-0.2-0.3-0.5c1.5-4.3,3-8.7,4.5-13C20.1,21.6,20.1,21.5,20.3,21.4z"/>
	<path class="st0" d="M5.6,13.6c0.1,0.1,0.2,0.2,0.2,0.3c0.5,1.3,1,2.7,1.5,4c1.9,5.2,3.8,10.5,5.7,15.7c0,0.1,0,0.1,0.1,0.2
		c0,0.1,0.1,0.2,0,0.2c-0.1,0.1-0.1,0-0.2,0c-0.6-0.3-1.1-0.6-1.6-0.9c-3.8-2.6-6.1-6.2-6.9-10.8c-0.5-2.9-0.1-5.7,1-8.4
		C5.4,13.8,5.4,13.7,5.6,13.6z"/>
	<path class="st0" d="M33.9,12.4c2,3.8,2.4,7.6,1.4,11.6c-1.1,4.1-3.6,7.3-7.3,9.5c-0.1-0.2,0-0.4,0-0.5c1.7-4.9,3.4-9.8,5.1-14.7
		c0.6-1.8,0.9-3.6,0.7-5.5C33.8,12.8,33.7,12.7,33.9,12.4z"/>
</g>
</svg>
