<?xml version="1.0" encoding="utf-8"?>
<!-- Generator: Adobe Illustrator 25.4.1, SVG Export Plug-In . SVG Version: 6.00 Build 0)  -->
<svg version="1.1" id="Calque_1" xmlns="http://www.w3.org/2000/svg" xmlns:xlink="http://www.w3.org/1999/xlink" x="0px" y="0px"
	 viewBox="0 0 942 217" style="enable-background:new 0 0 942 217;" xml:space="preserve">
<style type="text/css">
	.st0{display:none;}
	.st1{display:inline;fill:#FFFFFF;stroke:#0C7189;stroke-width:3;stroke-miterlimit:10;}
	.st2{fill:#FFFFFF;}
	.st3{fill:#0C7189;}
</style>
<g>
	<g class="st0">
		<path class="st1" d="M12.8,207.5L69.6,66.9H92l56.2,140.6h-29L75.6,92.3h10l-44,115.2H12.8z M43,181.3v-22.8h75.6v22.8H43z"/>
		<path class="st1" d="M166.4,207.5V66.9h19l8.2,27.4v113.2H166.4z M263.6,207.5L180.2,99.7l5.2-32.8L269,174.7L263.6,207.5z
			 M263.6,207.5l-7.8-26.4V66.9H283v140.6H263.6z"/>
		<path class="st1" d="M311.8,207.5V66.9H339v140.6H311.8z M330.4,207.5v-24.2h35.8c8.9,0,16.8-1.9,23.7-5.7
			c6.9-3.8,12.2-9.2,16-16.2c3.8-7,5.7-15.2,5.7-24.5c0-9.2-1.9-17.2-5.8-24c-3.9-6.8-9.2-12.1-16-16c-6.8-3.9-14.7-5.8-23.6-5.8
			h-36.4V66.9h36.8c10.4,0,20.1,1.7,29,5.2c8.9,3.5,16.7,8.4,23.2,14.7c6.5,6.3,11.6,13.8,15.2,22.3c3.6,8.5,5.4,17.9,5.4,28
			c0,10.1-1.8,19.5-5.4,28.1s-8.7,16.1-15.2,22.4c-6.5,6.3-14.2,11.2-23.1,14.7c-8.9,3.5-18.4,5.2-28.7,5.2H330.4z"/>
		<path class="st1" d="M461.2,207.5V66.9h27.2v140.6H461.2z M481.2,148.9v-21.4h32.4c6.8,0,12-1.7,15.6-5.1c3.6-3.4,5.4-8,5.4-13.9
			c0-5.6-1.8-10.2-5.4-13.9c-3.6-3.7-8.7-5.5-15.4-5.5h-32.6V66.9h35.2c8.9,0,16.8,1.8,23.7,5.3c6.9,3.5,12.2,8.4,16,14.5
			c3.8,6.1,5.7,13.2,5.7,21.2c0,8.3-1.9,15.4-5.7,21.5c-3.8,6.1-9.2,10.8-16.1,14.3c-6.9,3.5-15,5.2-24.2,5.2H481.2z M538,207.5
			l-46.6-60.8l25.2-7.8l54.4,68.6H538z"/>
		<path class="st1" d="M655,209.7c-10.3,0-19.8-1.9-28.7-5.6c-8.9-3.7-16.6-8.9-23.3-15.6c-6.7-6.7-11.9-14.4-15.6-23.2
			c-3.7-8.8-5.6-18.3-5.6-28.4c0-10.1,1.9-19.6,5.6-28.3c3.7-8.7,8.9-16.4,15.5-23.1c6.6-6.7,14.3-11.8,23.1-15.4s18.3-5.4,28.6-5.4
			c10.4,0,20,1.8,28.8,5.4c8.8,3.6,16.5,8.7,23.1,15.4c6.6,6.7,11.8,14.4,15.5,23.2c3.7,8.8,5.6,18.3,5.6,28.4
			c0,10.1-1.9,19.6-5.6,28.4c-3.7,8.8-8.9,16.5-15.4,23.2c-6.5,6.7-14.2,11.8-23.1,15.5C674.6,207.9,665.1,209.7,655,209.7z
			 M654.6,184.5c8.9,0,16.8-2,23.5-6c6.7-4,12-9.6,15.7-16.7c3.7-7.1,5.6-15.4,5.6-24.9c0-6.9-1.1-13.3-3.2-19
			c-2.1-5.7-5.2-10.7-9.2-14.9s-8.7-7.4-14.1-9.7c-5.4-2.3-11.5-3.4-18.3-3.4c-8.8,0-16.5,2-23.2,5.9c-6.7,3.9-11.9,9.4-15.7,16.5
			c-3.8,7.1-5.7,15.3-5.7,24.6c0,7.1,1.1,13.5,3.2,19.4c2.1,5.9,5.2,10.9,9.1,15c3.9,4.1,8.7,7.4,14.2,9.7
			C642,183.3,648.1,184.5,654.6,184.5z"/>
		<path class="st1" d="M749.2,207.5V66.9h27.2v140.6H749.2z"/>
		<path class="st1" d="M805.2,207.5V66.9h27.2v140.6H805.2z M823.8,207.5v-24.2h35.8c8.9,0,16.8-1.9,23.7-5.7
			c6.9-3.8,12.2-9.2,16-16.2c3.8-7,5.7-15.2,5.7-24.5c0-9.2-1.9-17.2-5.8-24c-3.9-6.8-9.2-12.1-16-16c-6.8-3.9-14.7-5.8-23.6-5.8
			h-36.4V66.9H860c10.4,0,20.1,1.7,29,5.2c8.9,3.5,16.7,8.4,23.2,14.7c6.5,6.3,11.6,13.8,15.2,22.3c3.6,8.5,5.4,17.9,5.4,28
			c0,10.1-1.8,19.5-5.4,28.1c-3.6,8.6-8.7,16.1-15.2,22.4c-6.5,6.3-14.2,11.2-23.1,14.7c-8.9,3.5-18.4,5.2-28.7,5.2H823.8z"/>
	</g>
</g>
<g>
	<g>
		<path class="st2" d="M69.6,66.9L12.8,207.5h28.8l10-26.2h57.7l9.9,26.2h29L92,66.9H69.6z M60.3,158.5l20.3-53l20.1,53H60.3z"/>
		<path class="st3" d="M92,66.9l56.2,140.6h-29l-9.9-26.2H51.6l-10,26.2H12.8L69.6,66.9H92 M60.3,158.5h40.3l-20.1-53L60.3,158.5
			 M92,60.9H69.6c-2.4,0-4.6,1.5-5.6,3.8L7.2,205.2c-0.7,1.8-0.5,3.9,0.6,5.6c1.1,1.7,3,2.6,5,2.6h28.8c2.5,0,4.7-1.5,5.6-3.9
			l8.5-22.3h49.4l8.4,22.3c0.9,2.3,3.1,3.9,5.6,3.9h29c2,0,3.9-1,5-2.6c1.1-1.6,1.3-3.7,0.6-5.6L97.6,64.7
			C96.7,62.4,94.5,60.9,92,60.9L92,60.9z M69,152.5l11.5-30.2L92,152.5H69L69,152.5z"/>
	</g>
	<g>
		<polygon class="st2" points="254.2,157.7 183.8,66.9 164.8,66.9 164.8,207.5 192,207.5 192,117 262,207.5 281.4,207.5 281.4,66.9 
			254.2,66.9 		"/>
		<path class="st3" d="M281.4,66.9v140.6H262L192,117v90.5h-27.2V66.9h19l70.4,90.8V66.9H281.4 M281.4,60.9h-27.2c-3.3,0-6,2.7-6,6
			v73.3l-59.7-76.9c-1.1-1.5-2.9-2.3-4.7-2.3h-19c-3.3,0-6,2.7-6,6v140.6c0,3.3,2.7,6,6,6H192c3.3,0,6-2.7,6-6v-72.9l59.3,76.6
			c1.1,1.5,2.9,2.3,4.7,2.3h19.4c3.3,0,6-2.7,6-6V66.9C287.4,63.6,284.7,60.9,281.4,60.9L281.4,60.9z"/>
	</g>
	<g>
		<path class="st2" d="M417.2,86.8c-6.5-6.3-14.3-11.2-23.2-14.7c-8.9-3.5-18.6-5.2-29-5.2h-27.6h-9.2h-18v140.6h18.6h8.6h28
			c10.3,0,19.8-1.7,28.7-5.2c8.9-3.5,16.6-8.4,23.1-14.7c6.5-6.3,11.6-13.8,15.2-22.4s5.4-18,5.4-28.1c0-10.1-1.8-19.5-5.4-28
			C428.8,100.6,423.7,93.1,417.2,86.8z M404.3,161.4c-3.8,7-9.1,12.4-16,16.2c-6.9,3.8-14.8,5.7-23.7,5.7h-27.2V91.1h27.2
			c8.9,0,16.8,1.9,23.6,5.8c6.8,3.9,12.1,9.2,16,16c3.9,6.8,5.8,14.8,5.8,24C410,146.2,408.1,154.4,404.3,161.4z"/>
		<path class="st3" d="M365,66.9c10.4,0,20.1,1.7,29,5.2c8.9,3.5,16.7,8.4,23.2,14.7c6.5,6.3,11.6,13.8,15.2,22.3
			c3.6,8.5,5.4,17.9,5.4,28c0,10.1-1.8,19.5-5.4,28.1c-3.6,8.6-8.7,16.1-15.2,22.4c-6.5,6.3-14.2,11.2-23.1,14.7
			c-8.9,3.5-18.4,5.2-28.7,5.2h-28h-8.6h-18.6V66.9h18h9.2H365 M337.4,183.3h27.2c8.9,0,16.8-1.9,23.7-5.7c6.9-3.8,12.2-9.2,16-16.2
			c3.8-7,5.7-15.2,5.7-24.5c0-9.2-1.9-17.2-5.8-24c-3.9-6.8-9.2-12.1-16-16c-6.8-3.9-14.7-5.8-23.6-5.8h-27.2V183.3 M365,60.9h-27.6
			h-9.2h-18c-3.3,0-6,2.7-6,6v140.6c0,3.3,2.7,6,6,6h18.6h8.6h28c11,0,21.4-1.9,30.9-5.6c9.6-3.7,18-9.1,25.1-16
			c7.1-6.9,12.7-15.1,16.6-24.4c3.9-9.3,5.9-19.5,5.9-30.4c0-10.9-2-21.1-5.9-30.3c-3.9-9.2-9.5-17.4-16.6-24.3
			c-7.1-6.9-15.6-12.2-25.2-16C386.6,62.8,376.1,60.9,365,60.9L365,60.9z M343.4,97.1h21.2c7.8,0,14.8,1.7,20.6,5
			c5.9,3.4,10.4,7.9,13.8,13.8c3.3,5.9,5,12.9,5,21c0,8.3-1.7,15.6-5,21.6c-3.3,6-7.7,10.5-13.6,13.8c-5.9,3.3-12.9,4.9-20.8,4.9
			h-21.2V97.1L343.4,97.1z"/>
	</g>
	<g>
		<path class="st2" d="M538.4,143.7c6.9-3.5,12.3-8.2,16.1-14.3c3.8-6.1,5.7-13.2,5.7-21.5c0-8-1.9-15.1-5.7-21.2
			c-3.8-6.1-9.1-11-16-14.5c-6.9-3.5-14.8-5.3-23.7-5.3h-28h-7.2h-20v140.6h27.2v-58.6h4.7l44.9,58.6h33l-46.9-59.1
			C528.3,147.6,533.6,146.1,538.4,143.7z M486.8,89.1h25.4c6.7,0,11.8,1.8,15.4,5.5c3.6,3.7,5.4,8.3,5.4,13.9
			c0,5.9-1.8,10.5-5.4,13.9c-3.6,3.4-8.8,5.1-15.6,5.1h-25.2V89.1z"/>
		<path class="st3" d="M514.8,66.9c8.9,0,16.8,1.8,23.7,5.3c6.9,3.5,12.2,8.4,16,14.5c3.8,6.1,5.7,13.2,5.7,21.2
			c0,8.3-1.9,15.4-5.7,21.5c-3.8,6.1-9.2,10.8-16.1,14.3c-4.8,2.4-10.1,3.9-15.9,4.7l46.9,59.1h-33l-44.9-58.6h-4.7v58.6h-27.2V66.9
			h20h7.2H514.8 M486.8,127.5H512c6.8,0,12-1.7,15.6-5.1c3.6-3.4,5.4-8,5.4-13.9c0-5.6-1.8-10.2-5.4-13.9c-3.6-3.7-8.7-5.5-15.4-5.5
			h-25.4V127.5 M514.8,60.9h-28h-7.2h-20c-3.3,0-6,2.7-6,6v140.6c0,3.3,2.7,6,6,6h27.2c3.3,0,6-2.7,6-6v-47l38.8,50.7
			c1.1,1.5,2.9,2.4,4.8,2.4h33c2.3,0,4.4-1.3,5.4-3.4c1-2.1,0.7-4.5-0.7-6.3l-40.9-51.6c2.8-0.8,5.4-1.9,7.9-3.1
			c7.9-4,14.1-9.5,18.5-16.5c4.4-7,6.6-15.3,6.6-24.7c0-9.1-2.2-17.3-6.6-24.4c-4.4-7-10.5-12.7-18.4-16.7
			C533.5,62.9,524.6,60.9,514.8,60.9L514.8,60.9z M492.8,95.1h19.4c5,0,8.7,1.2,11.1,3.7c2.5,2.5,3.7,5.7,3.7,9.7
			c0,4.2-1.2,7.3-3.5,9.5c-2.4,2.3-6.3,3.5-11.5,3.5h-19.2V95.1L492.8,95.1z"/>
	</g>
	<g>
		<path class="st2" d="M701.1,85.5c-6.6-6.7-14.3-11.8-23.1-15.4c-8.8-3.6-18.4-5.4-28.8-5.4c-10.3,0-19.8,1.8-28.6,5.4
			s-16.5,8.7-23.1,15.4c-6.6,6.7-11.8,14.4-15.5,23.1c-3.7,8.7-5.6,18.2-5.6,28.3c0,10.1,1.9,19.6,5.6,28.4
			c3.7,8.8,8.9,16.5,15.6,23.2c6.7,6.7,14.4,11.9,23.3,15.6c8.9,3.7,18.4,5.6,28.7,5.6c10.1,0,19.6-1.8,28.5-5.5
			c8.9-3.7,16.6-8.8,23.1-15.5c6.5-6.7,11.7-14.4,15.4-23.2c3.7-8.8,5.6-18.3,5.6-28.4c0-10.1-1.9-19.6-5.6-28.4
			C712.9,99.9,707.7,92.2,701.1,85.5z M688.4,161.8c-3.7,7.1-9,12.7-15.7,16.7c-6.7,4-14.6,6-23.5,6c-6.5,0-12.6-1.2-18.1-3.5
			c-5.5-2.3-10.3-5.6-14.2-9.7c-3.9-4.1-7-9.1-9.1-15c-2.1-5.9-3.2-12.3-3.2-19.4c0-9.3,1.9-17.5,5.7-24.6c3.8-7.1,9-12.6,15.7-16.5
			c6.7-3.9,14.4-5.9,23.2-5.9c6.8,0,12.9,1.1,18.3,3.4c5.4,2.3,10.1,5.5,14.1,9.7s7.1,9.2,9.2,14.9c2.1,5.7,3.2,12.1,3.2,19
			C694,146.4,692.1,154.7,688.4,161.8z"/>
		<path class="st3" d="M649.2,64.7c10.4,0,20,1.8,28.8,5.4c8.8,3.6,16.5,8.7,23.1,15.4c6.6,6.7,11.8,14.4,15.5,23.2
			c3.7,8.8,5.6,18.3,5.6,28.4c0,10.1-1.9,19.6-5.6,28.4c-3.7,8.8-8.9,16.5-15.4,23.2c-6.5,6.7-14.2,11.8-23.1,15.5
			c-8.9,3.7-18.4,5.5-28.5,5.5c-10.3,0-19.8-1.9-28.7-5.6c-8.9-3.7-16.6-8.9-23.3-15.6c-6.7-6.7-11.9-14.4-15.6-23.2
			c-3.7-8.8-5.6-18.3-5.6-28.4c0-10.1,1.9-19.6,5.6-28.3c3.7-8.7,8.9-16.4,15.5-23.1c6.6-6.7,14.3-11.8,23.1-15.4
			S638.9,64.7,649.2,64.7 M649.2,184.5c8.9,0,16.8-2,23.5-6c6.7-4,12-9.6,15.7-16.7c3.7-7.1,5.6-15.4,5.6-24.9
			c0-6.9-1.1-13.3-3.2-19c-2.1-5.7-5.2-10.7-9.2-14.9c-4-4.2-8.7-7.4-14.1-9.7c-5.4-2.3-11.5-3.4-18.3-3.4c-8.8,0-16.5,2-23.2,5.9
			c-6.7,3.9-11.9,9.4-15.7,16.5c-3.8,7.1-5.7,15.3-5.7,24.6c0,7.1,1.1,13.5,3.2,19.4c2.1,5.9,5.2,10.9,9.1,15
			c3.9,4.1,8.7,7.4,14.2,9.7C636.6,183.3,642.7,184.5,649.2,184.5 M649.2,58.7c-11,0-21.4,2-30.9,5.8c-9.5,3.9-17.9,9.5-25.1,16.7
			c-7.1,7.2-12.7,15.6-16.8,25c-4,9.4-6.1,19.8-6.1,30.7c0,10.9,2,21.2,6.1,30.7c4,9.5,9.7,17.9,16.9,25.1
			c7.2,7.2,15.7,12.9,25.2,16.9c9.6,4,20,6.1,31,6.1c10.9,0,21.2-2,30.8-6c9.6-4,18-9.6,25.1-16.8c7-7.2,12.6-15.6,16.6-25.1
			c4-9.5,6.1-19.9,6.1-30.7c0-10.9-2-21.2-6.1-30.7c-4-9.5-9.7-17.9-16.8-25.1c-7.1-7.2-15.6-12.8-25.1-16.7
			C670.8,60.7,660.3,58.7,649.2,58.7L649.2,58.7z M649.2,178.5c-5.7,0-11-1-15.8-3c-4.7-2-8.8-4.8-12.2-8.3c-3.3-3.5-6-7.9-7.8-12.9
			c-1.9-5.2-2.8-11-2.8-17.4c0-8.3,1.7-15.6,5-21.8c3.3-6.1,7.7-10.8,13.5-14.2c5.7-3.4,12.5-5.1,20.2-5.1c6,0,11.3,1,16,2.9
			c4.6,1.9,8.7,4.7,12.1,8.3c3.4,3.6,6.1,7.9,7.9,12.9c1.9,5,2.8,10.7,2.8,16.9c0,8.4-1.7,15.9-4.9,22.1
			c-3.2,6.2-7.6,10.9-13.4,14.3C663.9,176.8,657,178.5,649.2,178.5L649.2,178.5z"/>
	</g>
	<g>
		<rect x="743.8" y="66.9" class="st2" width="27.2" height="140.6"/>
		<path class="st3" d="M771,66.9v140.6h-27.2V66.9H771 M771,60.9h-27.2c-3.3,0-6,2.7-6,6v140.6c0,3.3,2.7,6,6,6H771c3.3,0,6-2.7,6-6
			V66.9C777,63.6,774.3,60.9,771,60.9L771,60.9z"/>
	</g>
	<g>
		<path class="st2" d="M922,109.1c-3.6-8.5-8.7-16-15.2-22.3c-6.5-6.3-14.3-11.2-23.2-14.7c-8.9-3.5-18.6-5.2-29-5.2H827h-9.2h-18
			v140.6h18.6h8.6h28c10.3,0,19.8-1.7,28.7-5.2c8.9-3.5,16.6-8.4,23.1-14.7c6.5-6.3,11.6-13.8,15.2-22.4c3.6-8.6,5.4-18,5.4-28.1
			C927.4,127,925.6,117.6,922,109.1z M893.9,161.4c-3.8,7-9.1,12.4-16,16.2c-6.9,3.8-14.8,5.7-23.7,5.7H827V91.1h27.2
			c8.9,0,16.8,1.9,23.6,5.8c6.8,3.9,12.1,9.2,16,16c3.9,6.8,5.8,14.8,5.8,24C899.6,146.2,897.7,154.4,893.9,161.4z"/>
		<path class="st3" d="M854.6,66.9c10.4,0,20.1,1.7,29,5.2c8.9,3.5,16.7,8.4,23.2,14.7c6.5,6.3,11.6,13.8,15.2,22.3
			c3.6,8.5,5.4,17.9,5.4,28c0,10.1-1.8,19.5-5.4,28.1c-3.6,8.6-8.7,16.1-15.2,22.4c-6.5,6.3-14.2,11.2-23.1,14.7
			c-8.9,3.5-18.4,5.2-28.7,5.2h-28h-8.6h-18.6V66.9h18h9.2H854.6 M827,183.3h27.2c8.9,0,16.8-1.9,23.7-5.7c6.9-3.8,12.2-9.2,16-16.2
			c3.8-7,5.7-15.2,5.7-24.5c0-9.2-1.9-17.2-5.8-24c-3.9-6.8-9.2-12.1-16-16c-6.8-3.9-14.7-5.8-23.6-5.8H827V183.3 M854.6,60.9H827
			h-9.2h-18c-3.3,0-6,2.7-6,6v140.6c0,3.3,2.7,6,6,6h18.6h8.6h28c11,0,21.4-1.9,30.9-5.6c9.6-3.7,18-9.1,25.1-16
			c7.1-6.9,12.7-15.1,16.6-24.4c3.9-9.3,5.9-19.5,5.9-30.4c0-10.9-2-21.1-5.9-30.3c-3.9-9.2-9.5-17.4-16.6-24.3
			c-7.1-6.9-15.6-12.2-25.2-16C876.2,62.8,865.7,60.9,854.6,60.9L854.6,60.9z M833,97.1h21.2c7.8,0,14.8,1.7,20.6,5
			c5.9,3.4,10.4,7.9,13.8,13.8c3.3,5.9,5,12.9,5,21c0,8.3-1.7,15.6-5,21.6c-3.3,6-7.7,10.5-13.6,13.8c-5.9,3.3-12.9,4.9-20.8,4.9
			H833V97.1L833,97.1z"/>
	</g>
</g>
</svg>
