<?xml version="1.0" encoding="utf-8"?>
<!-- Generator: Adobe Illustrator 25.4.1, SVG Export Plug-In . SVG Version: 6.00 Build 0)  -->
<svg version="1.1" id="Calque_1" xmlns="http://www.w3.org/2000/svg" xmlns:xlink="http://www.w3.org/1999/xlink" x="0px" y="0px"
	 viewBox="0 0 119.1 119.1" style="enable-background:new 0 0 119.1 119.1;" xml:space="preserve">
<style type="text/css">
	.st0{fill:#EBCA94;}
	.st1{fill:#FFFFFF;}
</style>
<circle class="st0" cx="59.5" cy="59.5" r="58.8"/>
<path class="st1" d="M110.3,58.8c0,6.1-3.6,11-8.1,11c-5.5,0-5.4-5.5-9.4-5.5c-2.3,0-4.1,1.9-4.1,4.2v23.2c0,3-2.5,5.5-5.4,5.5H70.9
	c-2.3,0-4.1-1.9-4.1-4.2c0-4.2,5.4-4,5.4-9.5c0-4.5-4.9-8.2-10.9-8.2S50.4,79,50.4,83.5c0,5.6,5.4,5.5,5.4,9.5
	c0,2.4-1.9,4.2-4.1,4.2h-23c-3,0-5.4-2.5-5.4-5.5V68.5c0-2.4,1.9-4.2,4.1-4.2c4,0,3.9,5.5,9.4,5.5c4.5,0,8.1-4.9,8.1-11
	s-3.6-11.2-8.1-11.2c-5.5,0-5.4,5.5-9.4,5.5c-2.3,0-4.1-1.8-4.1-4V36.9c0-3,2.5-5.3,5.4-5.3h23c2.3-0.3,4.1-2.1,4.1-4.3
	c0-4-5.4-4-5.4-9.5c0-4.5,4.9-8,10.9-8s10.9,3.7,10.9,8c0,5.6-5.4,5.5-5.4,9.5c0,2.4,1.9,4.2,4.1,4.2h12.2c3,0,5.4,2.5,5.4,5.3V49
	c0,2.4,1.9,4.2,4.1,4.2c4,0,3.9-5.5,9.4-5.5C106.6,47.7,110.3,52.8,110.3,58.8z"/>
</svg>
