<?xml version="1.0" encoding="utf-8"?>
<!-- Generator: Adobe Illustrator 25.4.1, SVG Export Plug-In . SVG Version: 6.00 Build 0)  -->
<svg version="1.1" id="Calque_1" xmlns="http://www.w3.org/2000/svg" xmlns:xlink="http://www.w3.org/1999/xlink" x="0px" y="0px"
	 viewBox="0 0 39.7 39.7" style="enable-background:new 0 0 39.7 39.7;" xml:space="preserve">
<style type="text/css">
	.st0{fill:#FFFFFF;}
	.st1{fill:#0C7189;}
</style>
<rect class="st0" width="39.7" height="39.7"/>
<g id="Ai">
	<rect x="5.3" y="5.8" class="st0" width="29.6" height="28.7"/>
	<g>
		<path class="st0" d="M38.9,7L38.9,7c0-0.4-0.1-0.7-0.1-1c-0.1-0.6-0.4-1.2-0.6-1.7c-0.3-0.5-0.6-1-1.1-1.5s-1-1-1.7-1.3
			c-0.3-0.2-0.7-0.4-1-0.5C34.3,1,34.1,1,33.8,0.9c-0.3-0.1-0.6-0.1-0.8-0.1h-0.1c-8.6,0-17.3,0-25.9,0c-0.1,0.1-0.3,0-0.4,0.1
			C6.1,0.9,5.7,1,5.3,1.2C5,1.3,4.6,1.4,4.3,1.6S3.8,2,3.5,2.2c-0.4,0.3-0.7,0.6-1,0.9S2,3.8,1.8,4C1.6,4.4,1.5,4.6,1.3,4.9
			C1.2,5.3,1,5.7,1,6.1c0,0.1,0,0.1-0.1,0.2c0,0.2-0.1,0.4-0.1,0.7c0,0,0,0.1-0.1,0.1c0,8.5,0,17,0,25.5c0.1,0,0.1,0,0.1,0.1
			c0,0.3,0.1,0.7,0.2,1c0,0.2,0.1,0.4,0.2,0.7c0.2,0.5,0.4,0.9,0.6,1.3c0.2,0.3,0.4,0.6,0.6,0.9c0.2,0.3,0.5,0.5,0.7,0.8
			c0.3,0.2,0.5,0.4,0.8,0.6c0.4,0.2,0.8,0.5,1.2,0.6c0.4,0.1,0.7,0.3,1.1,0.3c0.3,0,0.6,0.1,0.8,0.2C7,39,7,39,7.1,39
			c8.5,0,16.9,0,25.4,0c0.1,0,0.1,0,0.2,0c0.3-0.1,0.6-0.1,1-0.2c0.2,0,0.3-0.1,0.5-0.1c0.4-0.1,0.8-0.3,1.1-0.5
			c0.4-0.2,0.7-0.4,1-0.7c0.3-0.2,0.6-0.5,0.8-0.8c0.2-0.2,0.3-0.4,0.5-0.6c0.2-0.2,0.3-0.5,0.5-0.7c0.1-0.2,0.2-0.4,0.3-0.6
			c0.2-0.5,0.4-0.9,0.5-1.4c0-0.2,0.1-0.5,0.1-0.7v-0.1C38.9,24.1,38.9,15.6,38.9,7z M24.2,27.7c-0.1,0-0.1,0-0.2,0
			c-0.5,0-1,0-1.5,0s-1.1,0-1.6,0c-0.3,0-0.3,0-0.4-0.3c0-0.2-0.1-0.3-0.2-0.4c-0.2-0.5-0.3-1-0.5-1.5c-0.2-0.6-0.4-1.1-0.6-1.7
			v-0.1c0-0.1-0.1-0.1-0.1-0.1h-0.1c-1.9,0-3.8,0-5.6,0c-0.1,0-0.1,0-0.1,0.1c-0.1,0.4-0.3,0.8-0.4,1.2c-0.1,0.2-0.1,0.4-0.2,0.5
			c-0.2,0.6-0.4,1.1-0.5,1.7c0,0.1-0.1,0.3-0.1,0.4c0,0.1-0.1,0.2-0.3,0.2c-0.2,0-0.4,0-0.6,0c-0.8,0-1.5,0-2.3,0c0,0,0,0,0,0
			c-0.3,0-0.3-0.1-0.2-0.4s0.2-0.7,0.4-1c0.1-0.4,0.3-0.9,0.4-1.3c0.1-0.3,0.2-0.7,0.4-1c0.2-0.6,0.4-1.2,0.6-1.8
			c0.1-0.3,0.2-0.7,0.4-1c0.1-0.3,0.2-0.6,0.3-0.9c0.1-0.3,0.2-0.7,0.3-1c0.2-0.6,0.4-1.2,0.6-1.8c0.1-0.3,0.2-0.6,0.3-1
			c0.1-0.3,0.2-0.7,0.4-1c0.1-0.3,0.2-0.7,0.4-1c0.1-0.3,0.2-0.6,0.3-1c0.1-0.3,0.2-0.7,0.3-1c0.1-0.3,0.2-0.7,0.3-1
			c0-0.3,0.1-0.5,0.1-0.8c0-0.2,0-0.2,0.3-0.2c0.8,0,1.7,0,2.5,0c0.5,0,1,0,1.5,0c0.2,0,0.2,0,0.3,0.2c0.1,0.2,0.1,0.4,0.2,0.6
			c0.2,0.5,0.3,1,0.5,1.5c0.2,0.6,0.4,1.3,0.6,1.9c0.2,0.5,0.3,0.9,0.5,1.4c0.2,0.6,0.4,1.1,0.6,1.7c0.1,0.3,0.2,0.7,0.4,1
			c0.1,0.4,0.3,0.8,0.4,1.3c0.1,0.4,0.2,0.7,0.4,1.1c0.1,0.3,0.2,0.6,0.3,0.9c0.2,0.5,0.3,1,0.5,1.5c0.1,0.3,0.2,0.6,0.3,0.9
			c0.1,0.3,0.2,0.6,0.3,0.9c0.1,0.4,0.2,0.7,0.4,1.1c0.1,0.3,0.2,0.7,0.4,1c0,0.1,0.1,0.2,0.1,0.3C24.3,27.6,24.3,27.6,24.2,27.7z
			 M29.5,22.8c0,1.5,0,3.1,0,4.5v0.1c0,0.2-0.1,0.2-0.2,0.2c-1,0-2,0-3.1,0h-0.1c-0.1,0-0.1-0.1-0.1-0.2s0-0.1,0-0.2
			c0-2.1,0-4.1,0-6.1c0-2.1,0-4.1,0-6.1c0-0.3,0-0.3,0.3-0.3c1,0,2,0,3,0c0.2,0,0.3,0,0.3,0.3C29.5,17.6,29.5,20.2,29.5,22.8z
			 M29.7,11.7c-0.1,0.4-0.3,0.8-0.6,1.1c-0.6,0.5-1.2,0.7-1.9,0.5c-0.4-0.1-0.8-0.3-1-0.7c-0.2-0.3-0.3-0.6-0.4-0.9
			c0-0.3,0-0.6,0-0.9c0.1-0.4,0.3-0.7,0.5-1c0.4-0.4,0.9-0.6,1.4-0.6s0.9,0.1,1.2,0.4c0.3,0.2,0.4,0.5,0.6,0.8
			C29.8,10.9,29.8,11.3,29.7,11.7z"/>
		<path class="st1" d="M32.8,39.6L32.8,39.6l-0.2-0.7v0.7l-26-0.1c-0.2,0-0.4-0.1-0.6-0.1c-0.4-0.1-0.7-0.2-1.2-0.4
			c-0.4-0.2-0.9-0.4-1.3-0.7c-0.3-0.2-0.6-0.4-0.9-0.7c-0.3-0.3-0.5-0.5-0.8-0.8c-0.3-0.3-0.5-0.6-0.7-0.9c-0.3-0.5-0.5-1-0.7-1.5
			c-0.1-0.3-0.2-0.5-0.2-0.7l-0.1-0.3v-0.1H0v-27h0.1V6.2V6c0.1-0.5,0.3-0.9,0.4-1.3C0.9,4.4,1,4,1.2,3.8C1.4,3.4,1.7,3.1,2,2.7
			s0.7-0.7,1-1c0.3-0.3,0.7-0.5,1-0.7c0.4-0.2,0.8-0.4,1.2-0.5C5.6,0.4,6,0.2,6.5,0.2l0.3-0.1H7h26.3l0.1,0.1c0.2,0,0.5,0.1,0.7,0.1
			c0.2,0.1,0.5,0.1,0.7,0.2c0.4,0.1,0.8,0.3,1.2,0.5c0.7,0.4,1.3,0.9,1.8,1.4s0.8,1,1.2,1.6c0.3,0.6,0.6,1.2,0.7,1.9
			c0.1,0.3,0.1,0.6,0.1,0.9l0,0l-0.1,26.4c0,0.2,0,0.3-0.1,0.5c-0.1,0.6-0.3,1.1-0.5,1.6c-0.1,0.2-0.2,0.5-0.4,0.7
			c-0.2,0.3-0.3,0.5-0.5,0.8c-0.2,0.2-0.3,0.4-0.5,0.6c-0.3,0.3-0.6,0.6-0.9,0.9c-0.3,0.3-0.7,0.5-1.1,0.7c-0.4,0.2-0.8,0.4-1.2,0.5
			c-0.2,0.1-0.4,0.1-0.6,0.1s-0.5,0.1-0.7,0.1L32.8,39.6z M7.2,38.2h25.7c0.2,0,0.4-0.1,0.7-0.1c0.1,0,0.3-0.1,0.4-0.1
			c0.4-0.1,0.7-0.3,1-0.4c0.4-0.2,0.7-0.4,0.9-0.6c0.3-0.2,0.5-0.5,0.8-0.7c0.2-0.2,0.3-0.3,0.4-0.5c0.2-0.2,0.3-0.4,0.4-0.6
			c0.1-0.2,0.2-0.4,0.3-0.6c0.2-0.4,0.3-0.8,0.4-1.3c0-0.1,0-0.3,0.1-0.4v-0.1c0-0.1,0-0.2,0-0.3V7c0-0.2-0.1-0.5-0.1-0.7
			c-0.1-0.5-0.3-1-0.6-1.5c-0.3-0.5-0.6-0.9-1-1.3c-0.4-0.5-0.9-0.8-1.5-1.2c-0.3-0.2-0.6-0.3-0.9-0.4c-0.2-0.1-0.4-0.1-0.6-0.2
			c-0.2,0-0.3-0.1-0.5-0.1h-0.3h-0.4l0,0H7.1c-0.1,0-0.2,0-0.3,0.1c-0.5-0.2-0.9-0.1-1.3,0C5.2,1.9,4.9,2,4.6,2.2
			C4.3,2.4,4,2.6,3.9,2.8C3.6,3,3.3,3.3,3,3.6C2.7,3.9,2.5,4.1,2.3,4.4C2.2,4.7,2.1,4.9,2,5.2c-0.1,0.3-0.3,0.7-0.3,1L1.6,6.4
			c0,0.2-0.1,0.4-0.1,0.5L1.4,7.4l0.1,25.3c0,0.2,0,0.4,0.1,0.6l0.1,0.3c0,0.1,0.1,0.3,0.1,0.4c0.2,0.5,0.4,0.9,0.6,1.3
			c0.2,0.3,0.3,0.5,0.5,0.8c0.2,0.2,0.4,0.5,0.7,0.7c0.2,0.2,0.5,0.4,0.8,0.6c0.4,0.2,0.7,0.4,1.1,0.6c0.4,0.1,0.7,0.2,0.9,0.3
			c0.2,0,0.4,0.1,0.6,0.1L7.2,38.2L7.2,38.2z M39.6,7L39.6,7L39.6,7z M29.3,28.4h-3.1c-0.1,0-0.2,0-0.3,0c-0.4-0.1-0.6-0.4-0.6-0.8
			v-0.3V15c0-0.7,0.3-1,1-1h3c0.1,0,0.5,0,0.7,0.2c0.3,0.3,0.3,0.6,0.3,0.7v12.5C30.2,28,29.8,28.4,29.3,28.4z M26.7,15.4v5.8v5.9
			h2.3V15.5L26.7,15.4z M21.9,28.3h-1.1c-0.6,0-0.9-0.2-1-0.8c0-0.1-0.1-0.2-0.1-0.3l-1-3h-4.9l-0.4,1.3c-0.1,0.4-0.3,0.8-0.4,1.3
			l-0.2,0.6c0,0.1,0,0.1-0.1,0.2c-0.1,0.4-0.5,0.7-0.9,0.7H9.1c-0.5,0-0.7-0.1-0.9-0.4C8,27.7,8,27.4,8.1,27.1l0.5-1.5
			c0.1-0.3,0.2-0.6,0.3-0.8c0.1-0.2,0.2-0.5,0.2-0.7l0.3-0.9c0.1-0.4,0.3-0.8,0.4-1.2c0.1-0.2,0.1-0.4,0.2-0.6l3.2-9.2
			c0.1-0.3,0.2-0.5,0.2-0.8c0-0.2,0-0.5,0-0.7c0-0.6,0.3-0.9,0.9-0.9H17h1.2c0.6,0,0.8,0.4,0.9,0.7c0,0.1,0.1,0.3,0.1,0.4l4.3,12.5
			c0.1,0.2,0.1,0.4,0.2,0.6c0.1,0.2,0.1,0.4,0.2,0.6l0.8,2.3c0,0.1,0.1,0.3,0.1,0.5c0,0.1,0,0.4-0.2,0.6s-0.5,0.3-0.6,0.3
			c-0.1,0-0.1,0-0.2,0L21.9,28.3L21.9,28.3z M24.1,27l0.1,0.7L24.1,27L24.1,27z M21.1,27h2.4l-0.7-1.9c-0.1-0.2-0.1-0.4-0.2-0.6
			c-0.1-0.2-0.1-0.4-0.2-0.6l-4.3-12.5c0-0.1-0.1-0.2-0.1-0.2h-1.2h-2.1c0,0.2,0,0.3,0,0.5c-0.1,0.4-0.2,0.7-0.3,1l-3.2,9.2
			c-0.1,0.2-0.1,0.4-0.2,0.6c-0.1,0.4-0.3,0.8-0.4,1.2l-0.3,0.8c-0.1,0.2-0.2,0.5-0.3,0.7C10,25.5,9.9,25.7,9.8,26l-0.3,1h2.1l0,0
			l0.2-0.5c0.1-0.4,0.3-0.8,0.4-1.3l0.5-1.7c0.1-0.4,0.4-0.6,0.8-0.6h5.6c0.4,0,0.8,0.2,0.9,0.6l1.1,3.2C21,26.9,21.1,27,21.1,27z
			 M18.7,23.9C18.7,24,18.7,24,18.7,23.9L18.7,23.9z M27.8,14c-0.2,0-0.5,0-0.8-0.1c-0.6-0.2-1.1-0.5-1.4-1
			c-0.3-0.4-0.4-0.8-0.5-1.3c0-0.4,0-0.8,0-1.1c0.1-0.5,0.4-1,0.7-1.3c0.5-0.5,1.1-0.7,1.9-0.7c0.7,0,1.2,0.2,1.6,0.5
			c0.3,0.3,0.6,0.6,0.8,1.1c0.3,0.6,0.2,1.3,0.2,1.7l0,0c-0.1,0.6-0.4,1.1-0.8,1.5C29.1,13.7,28.5,14,27.8,14z M27.8,9.9
			c-0.4,0-0.7,0.1-1,0.4c-0.2,0.2-0.3,0.4-0.3,0.6c0,0.2,0,0.4,0,0.7c0,0.2,0.1,0.4,0.2,0.6c0.2,0.2,0.4,0.4,0.7,0.4
			c0.5,0.1,1,0,1.3-0.3c0.2-0.2,0.3-0.4,0.4-0.7c0.1-0.4,0-0.7-0.1-0.9c-0.1-0.2-0.2-0.4-0.4-0.5C28.4,10,28.1,9.9,27.8,9.9
			L27.8,9.9z"/>
	</g>
	<path class="st1" d="M14.5,21h-0.2c-0.3,0-0.5-0.1-0.6-0.4l-0.2-0.3l0.1-0.4c0.1-0.3,0.2-0.6,0.3-0.9v-0.2c0.1-0.3,0.2-0.6,0.3-1
		c0-0.2,0.1-0.4,0.2-0.5c0.2-0.5,0.3-0.9,0.4-1.4c0.1-0.2,0.1-0.4,0.2-0.6l0.1-0.5c0.1-0.4,0.2-0.9,0.3-1.3c0-0.1,0-0.2,0.1-0.3
		l0.4-1.6l0.8,1.3c0.1,0.2,0.2,0.4,0.2,0.5l0.3,1c0.1,0.4,0.2,0.7,0.3,1c0.1,0.4,0.2,0.7,0.3,1.1c0.1,0.4,0.2,0.8,0.4,1.2
		c0,0.2,0.1,0.3,0.2,0.5l0.5,1.7c0.1,0.2,0,0.4-0.1,0.6l-0.2,0.3H18L14.5,21z M15.2,19.6h2.3l-0.3-0.8c-0.1-0.2-0.1-0.4-0.2-0.6
		c-0.1-0.4-0.2-0.7-0.3-1.1c-0.1-0.4-0.2-0.7-0.3-1.1V16l-0.2,0.5c-0.1,0.5-0.3,0.9-0.4,1.4c-0.1,0.2-0.1,0.3-0.1,0.5
		c-0.1,0.4-0.2,0.7-0.3,1.1v0.1C15.2,19.5,15.2,19.6,15.2,19.6z"/>
</g>
</svg>
