<?xml version="1.0" encoding="utf-8"?>
<!-- Generator: Adobe Illustrator 25.4.1, SVG Export Plug-In . SVG Version: 6.00 Build 0)  -->
<svg version="1.1" id="Calque_1" xmlns="http://www.w3.org/2000/svg" xmlns:xlink="http://www.w3.org/1999/xlink" x="0px" y="0px"
	 viewBox="0 0 40 40" style="enable-background:new 0 0 40 40;" xml:space="preserve">
<style type="text/css">
	.st0{fill:#FFFFFF;}
	.st1{fill:#0C7189;}
</style>
<g id="Ai">
	<rect x="5.3" y="5.8" class="st0" width="30" height="29.1"/>
	<g>
		<path class="st0" d="M39.3,7c0,0,0-0.1,0-0.1c0-0.3-0.1-0.6-0.1-0.9c-0.1-0.6-0.4-1.2-0.6-1.7c-0.3-0.5-0.6-1-1.1-1.5
			c-0.5-0.5-1-1-1.7-1.3c-0.3-0.2-0.7-0.4-1-0.5c-0.2-0.1-0.4-0.1-0.7-0.2c-0.3-0.1-0.6-0.1-0.8-0.1c0,0-0.1,0-0.1,0
			c-8.7,0-17.5,0-26.2,0c-0.1,0.1-0.3,0-0.4,0.1C6.1,0.8,5.7,0.9,5.3,1.1C5,1.2,4.6,1.3,4.3,1.5C4,1.7,3.7,1.9,3.4,2.1
			C3,2.4,2.7,2.7,2.4,3c-0.3,0.3-0.5,0.7-0.7,1C1.5,4.4,1.4,4.6,1.2,4.9C1.1,5.3,0.9,5.7,0.9,6.1c0,0.1,0,0.1-0.1,0.2
			c0,0.2-0.1,0.4-0.1,0.7c0,0,0,0.1-0.1,0.1c0,8.6,0,17.2,0,25.8c0.1,0,0.1,0,0.1,0.1c0,0.3,0.1,0.7,0.2,1c0,0.2,0.1,0.4,0.2,0.7
			c0.2,0.5,0.4,0.9,0.6,1.3c0.2,0.3,0.4,0.6,0.6,0.9c0.2,0.3,0.5,0.5,0.7,0.8c0.3,0.2,0.5,0.4,0.8,0.6c0.4,0.2,0.8,0.5,1.2,0.6
			c0.4,0.1,0.7,0.3,1.1,0.3c0.3,0,0.6,0.1,0.8,0.2c0.1,0,0.1,0,0.2,0c8.6,0,17.1,0,25.7,0c0.1,0,0.1,0,0.2,0c0.3-0.1,0.6-0.1,1-0.2
			c0.2,0,0.3-0.1,0.5-0.1c0.4-0.1,0.8-0.3,1.1-0.5c0.4-0.2,0.7-0.4,1-0.7c0.3-0.2,0.6-0.5,0.8-0.8c0.2-0.2,0.3-0.4,0.5-0.6
			c0.2-0.2,0.3-0.5,0.5-0.7c0.1-0.2,0.2-0.4,0.3-0.6c0.2-0.5,0.4-0.9,0.5-1.4c0-0.2,0.1-0.5,0.1-0.7c0,0,0-0.1,0-0.1
			C39.3,24.3,39.3,15.7,39.3,7z M24.4,28c-0.1,0-0.1,0-0.2,0c-0.5,0-1,0-1.5,0c-0.5,0-1.1,0-1.6,0c-0.3,0-0.3,0-0.4-0.3
			c0-0.2-0.1-0.3-0.2-0.4c-0.2-0.5-0.3-1-0.5-1.5c-0.2-0.6-0.4-1.1-0.6-1.7c0,0,0-0.1,0-0.1c0-0.1-0.1-0.1-0.1-0.1c0,0-0.1,0-0.1,0
			c-1.9,0-3.8,0-5.7,0c-0.1,0-0.1,0-0.1,0.1c-0.1,0.4-0.3,0.8-0.4,1.2c-0.1,0.2-0.1,0.4-0.2,0.5c-0.2,0.6-0.4,1.1-0.5,1.7
			c0,0.1-0.1,0.3-0.1,0.4c0,0.1-0.1,0.2-0.3,0.2c-0.2,0-0.4,0-0.6,0c-0.8,0-1.5,0-2.3,0C9,28,9,28,9,28c-0.3,0-0.3-0.1-0.2-0.4
			c0.1-0.3,0.2-0.7,0.4-1c0.1-0.4,0.3-0.9,0.4-1.3c0.1-0.3,0.2-0.7,0.4-1c0.2-0.6,0.4-1.2,0.6-1.8c0.1-0.3,0.2-0.7,0.4-1
			c0.1-0.3,0.2-0.6,0.3-0.9c0.1-0.3,0.2-0.7,0.3-1c0.2-0.6,0.4-1.2,0.6-1.8c0.1-0.3,0.2-0.6,0.3-1c0.1-0.3,0.2-0.7,0.4-1
			c0.1-0.3,0.2-0.7,0.4-1c0.1-0.3,0.2-0.6,0.3-1c0.1-0.3,0.2-0.7,0.3-1c0.1-0.3,0.2-0.7,0.3-1c0-0.3,0.1-0.5,0.1-0.8
			c0-0.2,0-0.2,0.3-0.2c0.8,0,1.7,0,2.5,0c0.5,0,1,0,1.5,0c0.2,0,0.2,0,0.3,0.2c0.1,0.2,0.1,0.4,0.2,0.6c0.2,0.5,0.3,1,0.5,1.5
			c0.2,0.6,0.4,1.3,0.6,1.9c0.2,0.5,0.3,0.9,0.5,1.4c0.2,0.6,0.4,1.1,0.6,1.7c0.1,0.3,0.2,0.7,0.4,1c0.1,0.4,0.3,0.8,0.4,1.3
			c0.1,0.4,0.2,0.7,0.4,1.1c0.1,0.3,0.2,0.6,0.3,0.9c0.2,0.5,0.3,1,0.5,1.5c0.1,0.3,0.2,0.6,0.3,0.9c0.1,0.3,0.2,0.6,0.3,0.9
			c0.1,0.4,0.2,0.7,0.4,1.1c0.1,0.3,0.2,0.7,0.4,1c0,0.1,0.1,0.2,0.1,0.3C24.5,27.9,24.5,27.9,24.4,28z M29.8,23c0,1.5,0,3.1,0,4.6
			c0,0,0,0.1,0,0.1c0,0.2-0.1,0.2-0.2,0.2c-1,0-2,0-3.1,0c0,0-0.1,0-0.1,0c-0.1,0-0.1-0.1-0.1-0.2c0-0.1,0-0.1,0-0.2
			c0-2.1,0-4.2,0-6.2c0-2.1,0-4.2,0-6.2c0-0.3,0-0.3,0.3-0.3c1,0,2,0,3,0c0.2,0,0.3,0,0.3,0.3C29.8,17.7,29.8,20.4,29.8,23z
			 M30,11.8c-0.1,0.4-0.3,0.8-0.6,1.1c-0.6,0.5-1.2,0.7-1.9,0.5c-0.4-0.1-0.8-0.3-1-0.7c-0.2-0.3-0.3-0.6-0.4-0.9c0-0.3,0-0.6,0-0.9
			c0.1-0.4,0.3-0.7,0.5-1c0.4-0.4,0.9-0.6,1.4-0.6c0.5,0,0.9,0.1,1.2,0.4c0.3,0.2,0.4,0.5,0.6,0.8C30.1,10.9,30.1,11.3,30,11.8z"/>
		<path class="st1" d="M33.1,40L33.1,40l-0.2-0.7V40L6.6,39.9c-0.2,0-0.4-0.1-0.6-0.1c-0.4-0.1-0.7-0.2-1.2-0.4
			c-0.4-0.2-0.9-0.4-1.3-0.7c-0.3-0.2-0.6-0.4-0.9-0.7c-0.3-0.3-0.5-0.5-0.8-0.8c-0.3-0.3-0.5-0.6-0.7-0.9c-0.3-0.5-0.5-1-0.7-1.5
			c-0.1-0.3-0.2-0.5-0.2-0.7l-0.1-0.3c0,0,0-0.1,0-0.1l-0.2,0V6.3l0.1,0c0,0,0-0.1,0-0.1l0-0.2c0.1-0.5,0.3-0.9,0.4-1.3
			C0.8,4.4,0.9,4,1.1,3.7C1.3,3.3,1.6,3,1.9,2.6c0.3-0.4,0.7-0.7,1-1c0.3-0.3,0.7-0.5,1-0.7c0.4-0.2,0.8-0.4,1.2-0.5
			C5.6,0.3,6,0.1,6.5,0.1L6.8,0L7,0h26.6l0.1,0.1c0.2,0,0.5,0.1,0.7,0.1c0.2,0.1,0.5,0.1,0.7,0.2c0.4,0.1,0.8,0.3,1.2,0.5
			c0.7,0.4,1.3,0.9,1.8,1.4c0.5,0.5,0.8,1,1.2,1.6c0.3,0.6,0.6,1.2,0.7,1.9c0.1,0.3,0.1,0.6,0.1,0.9l0,0l-0.1,26.7
			c0,0.2,0,0.3-0.1,0.5c-0.1,0.6-0.3,1.1-0.5,1.6c-0.1,0.2-0.2,0.5-0.4,0.7c-0.2,0.3-0.3,0.5-0.5,0.8c-0.2,0.2-0.3,0.4-0.5,0.6
			c-0.3,0.3-0.6,0.6-0.9,0.9c-0.3,0.3-0.7,0.5-1.1,0.7c-0.4,0.2-0.8,0.4-1.2,0.5c-0.2,0.1-0.4,0.1-0.6,0.1c-0.2,0-0.5,0.1-0.7,0.1
			L33.1,40z M7.2,38.6l26,0c0.2,0,0.4-0.1,0.7-0.1c0.1,0,0.3-0.1,0.4-0.1c0.4-0.1,0.7-0.3,1-0.4c0.4-0.2,0.7-0.4,0.9-0.6
			c0.3-0.2,0.5-0.5,0.8-0.7c0.2-0.2,0.3-0.3,0.4-0.5c0.2-0.2,0.3-0.4,0.4-0.6c0.1-0.2,0.2-0.4,0.3-0.6c0.2-0.4,0.3-0.8,0.4-1.3
			c0-0.1,0-0.3,0.1-0.4l0-0.1c0-0.1,0-0.2,0-0.3l0-25.9c0-0.2-0.1-0.5-0.1-0.7c-0.1-0.5-0.3-1-0.6-1.5c-0.3-0.5-0.6-0.9-1-1.3
			c-0.4-0.5-0.9-0.8-1.5-1.2c-0.3-0.2-0.6-0.3-0.9-0.4c-0.2-0.1-0.4-0.1-0.6-0.2c-0.2,0-0.3-0.1-0.5-0.1l-0.3,0l-0.4,0l0,0H7.1
			c-0.1,0-0.2,0-0.3,0.1C6.3,1.5,5.9,1.6,5.5,1.7C5.2,1.8,4.9,1.9,4.6,2.1C4.3,2.3,4,2.5,3.8,2.7C3.5,2.9,3.2,3.2,2.9,3.5
			C2.6,3.8,2.4,4.1,2.2,4.4C2.1,4.7,2,4.9,1.9,5.2c-0.1,0.3-0.3,0.7-0.3,1L1.5,6.4c0,0.2-0.1,0.4-0.1,0.5L1.3,7.4L1.4,33
			c0,0.2,0,0.4,0.1,0.6l0.1,0.3c0,0.1,0.1,0.3,0.1,0.4c0.2,0.5,0.4,0.9,0.6,1.3c0.2,0.3,0.3,0.5,0.5,0.8c0.2,0.2,0.4,0.5,0.7,0.7
			c0.2,0.2,0.5,0.4,0.8,0.6c0.4,0.2,0.7,0.4,1.1,0.6c0.4,0.1,0.7,0.2,0.9,0.3c0.2,0,0.4,0.1,0.6,0.1l0.2,0L7.2,38.6z M40,7L40,7
			C40,7,40,7,40,7z M29.6,28.7h-3.1c-0.1,0-0.2,0-0.3,0c-0.4-0.1-0.6-0.4-0.6-0.8l0-0.3l0-12.5c0-0.7,0.3-1,1-1l3,0
			c0.1,0,0.5,0,0.7,0.2c0.3,0.3,0.3,0.6,0.3,0.7l0,12.7C30.5,28.3,30.1,28.7,29.6,28.7z M26.9,15.5l0,5.9l0,6l2.3,0l0-11.8
			L26.9,15.5z M22.1,28.6h-1.1c-0.6,0-0.9-0.2-1-0.8c0-0.1-0.1-0.2-0.1-0.3l-1-3l-5,0l-0.4,1.3c-0.1,0.4-0.3,0.8-0.4,1.3l-0.2,0.6
			c0,0.1,0,0.1-0.1,0.2c-0.1,0.4-0.5,0.7-0.9,0.7H9.1c-0.5,0-0.7-0.1-0.9-0.4C8,28,8,27.7,8.1,27.4l0.5-1.5c0.1-0.3,0.2-0.6,0.3-0.8
			c0.1-0.2,0.2-0.5,0.2-0.7l0.3-0.9c0.1-0.4,0.3-0.8,0.4-1.2c0.1-0.2,0.1-0.4,0.2-0.6l3.2-9.3c0.1-0.3,0.2-0.5,0.2-0.8
			c0-0.2,0-0.5,0-0.7c0-0.6,0.3-0.9,0.9-0.9l2.8,0l1.2,0c0.6,0,0.8,0.4,0.9,0.7c0,0.1,0.1,0.3,0.1,0.4l4.4,12.7
			c0.1,0.2,0.1,0.4,0.2,0.6c0.1,0.2,0.1,0.4,0.2,0.6l0.8,2.3c0,0.1,0.1,0.3,0.1,0.5c0,0.1,0,0.4-0.2,0.6c-0.2,0.2-0.5,0.3-0.6,0.3
			c-0.1,0-0.1,0-0.2,0H22.1z M24.3,27.3l0.1,0.7L24.3,27.3C24.3,27.3,24.3,27.3,24.3,27.3z M21.3,27.3l2.4,0L23,25.4
			c-0.1-0.2-0.1-0.4-0.2-0.6c-0.1-0.2-0.1-0.4-0.2-0.6l-4.4-12.7c0-0.1-0.1-0.2-0.1-0.2l-1.2,0l-2.1,0c0,0.2,0,0.3,0,0.5
			c-0.1,0.4-0.2,0.7-0.3,1l-3.2,9.3c-0.1,0.2-0.1,0.4-0.2,0.6c-0.1,0.4-0.3,0.8-0.4,1.2l-0.3,0.8c-0.1,0.2-0.2,0.5-0.3,0.7
			c-0.1,0.3-0.2,0.5-0.3,0.8l-0.3,1h2.1c0,0,0,0,0,0l0.2-0.5c0.1-0.4,0.3-0.8,0.4-1.3l0.5-1.7c0.1-0.4,0.4-0.6,0.8-0.6l5.7,0
			c0.4,0,0.8,0.2,0.9,0.6l1.1,3.2C21.2,27.1,21.3,27.2,21.3,27.3z M18.8,24.1C18.8,24.2,18.8,24.2,18.8,24.1L18.8,24.1z M28.1,14.1
			c-0.2,0-0.5,0-0.8-0.1c-0.6-0.2-1.1-0.5-1.4-1c-0.3-0.4-0.4-0.8-0.5-1.3c0-0.4,0-0.8,0-1.1c0.1-0.5,0.4-1,0.7-1.3
			c0.5-0.5,1.1-0.7,1.9-0.7c0.7,0,1.2,0.2,1.6,0.5c0.3,0.3,0.6,0.6,0.8,1.1c0.3,0.6,0.2,1.3,0.2,1.7v0c-0.1,0.6-0.4,1.1-0.8,1.5
			C29.4,13.8,28.8,14.1,28.1,14.1z M28.1,9.9c-0.4,0-0.7,0.1-1,0.4c-0.2,0.2-0.3,0.4-0.3,0.6c0,0.2,0,0.4,0,0.7
			c0,0.2,0.1,0.4,0.2,0.6c0.2,0.2,0.4,0.4,0.7,0.4c0.5,0.1,1,0,1.3-0.3c0.2-0.2,0.3-0.4,0.4-0.7c0.1-0.4,0-0.7-0.1-0.9
			c-0.1-0.2-0.2-0.4-0.4-0.5C28.7,10,28.4,9.9,28.1,9.9C28.1,9.9,28.1,9.9,28.1,9.9z"/>
	</g>
	<path class="st1" d="M14.6,21.2l-0.2,0c-0.3,0-0.5-0.1-0.6-0.4l-0.2-0.3l0.1-0.4c0.1-0.3,0.2-0.6,0.3-0.9l0-0.2
		c0.1-0.3,0.2-0.6,0.3-1c0-0.2,0.1-0.4,0.2-0.5c0.2-0.5,0.3-0.9,0.4-1.4c0.1-0.2,0.1-0.4,0.2-0.6l0.1-0.5c0.1-0.4,0.2-0.9,0.3-1.3
		c0-0.1,0-0.2,0.1-0.3l0.4-1.6l0.8,1.3c0.1,0.2,0.2,0.4,0.2,0.5l0.3,1c0.1,0.4,0.2,0.7,0.3,1c0.1,0.4,0.2,0.7,0.3,1.1
		c0.1,0.4,0.2,0.8,0.4,1.2c0,0.2,0.1,0.3,0.2,0.5l0.5,1.7c0.1,0.2,0,0.4-0.1,0.6l-0.2,0.3l-0.6,0L14.6,21.2z M15.3,19.8l2.3,0
		L17.3,19c-0.1-0.2-0.1-0.4-0.2-0.6c-0.1-0.4-0.2-0.7-0.3-1.1c-0.1-0.4-0.2-0.7-0.3-1.1c0,0,0-0.1,0-0.1l-0.2,0.5
		c-0.1,0.5-0.3,0.9-0.4,1.4c-0.1,0.2-0.1,0.3-0.1,0.5c-0.1,0.4-0.2,0.7-0.3,1.1l0,0.1C15.3,19.7,15.3,19.8,15.3,19.8z"/>
</g>
</svg>
