<?xml version="1.0" encoding="utf-8"?>
<!-- Generator: Adobe Illustrator 25.4.1, SVG Export Plug-In . SVG Version: 6.00 Build 0)  -->
<svg version="1.1" id="Calque_1" xmlns="http://www.w3.org/2000/svg" xmlns:xlink="http://www.w3.org/1999/xlink" x="0px" y="0px"
	 viewBox="0 0 42 40" style="enable-background:new 0 0 42 40;" xml:space="preserve">
<style type="text/css">
	.st0{fill:#0C7189;}
</style>
<g>
	<path class="st0" d="M34.7,19.9c0-2.1,1.7-3.6,3.8-3.6c2,0,3.6,1.7,3.5,3.7c0,2-1.7,3.7-3.7,3.7C36.3,23.6,34.7,21.9,34.7,19.9z"/>
	<path class="st0" d="M36.2,8.7c1.8,0,3.4,1.7,3.3,3.5c0,1.8-1.6,3.4-3.4,3.4c-1.9,0-3.4-1.7-3.4-3.5C32.8,10.2,34.4,8.7,36.2,8.7z"
		/>
	<path class="st0" d="M34,6.1c0,1.7-1.4,3.2-3.1,3.2c-1.7,0-3.2-1.5-3.2-3.2c0-1.7,1.5-3.1,3.1-3.1C32.5,2.9,34,4.4,34,6.1z"/>
	<path class="st0" d="M26.5,3c0,1.6-1.3,2.9-2.8,2.9c-1.6,0-2.9-1.3-2.9-2.9c0-1.6,1.4-3,2.9-2.9C25.2,0,26.5,1.4,26.5,3z"/>
	<path class="st0" d="M15.6,0.5c1.5,0,2.7,1.2,2.7,2.6c0,1.4-1.2,2.6-2.6,2.6c-1.4,0-2.6-1.2-2.6-2.7C13.1,1.7,14.2,0.5,15.6,0.5z"
		/>
	<path class="st0" d="M10.9,6.8c0,1.3-1.1,2.3-2.4,2.3c-1.3,0-2.3-1-2.3-2.4c0-1.3,1.1-2.4,2.4-2.3C9.9,4.4,10.9,5.5,10.9,6.8z"/>
	<path class="st0" d="M3.6,10.9c1.1,0,2.1,0.9,2.2,2.1c0,1.2-0.9,2.2-2.1,2.2c-1.1,0-2.1-1-2.2-2.1C1.5,12,2.5,10.9,3.6,10.9z"/>
	<path class="st0" d="M1.9,22.8c-1,0-1.9-0.9-1.9-1.9c0-1,0.9-1.9,1.9-1.9c1,0,1.8,0.8,1.8,1.9C3.7,21.9,2.9,22.8,1.9,22.8z"/>
	<path class="st0" d="M5.1,28.8c0,0.8-0.8,1.6-1.6,1.6c-0.9,0-1.6-0.8-1.6-1.7c0-0.9,0.8-1.6,1.7-1.6C4.4,27.2,5.1,27.9,5.1,28.8z"
		/>
	<path class="st0" d="M8.3,33.8c0.7,0,1.3,0.6,1.3,1.4c0,0.7-0.6,1.4-1.3,1.4c-0.7,0-1.4-0.7-1.4-1.4C6.9,34.4,7.6,33.8,8.3,33.8z"
		/>
	<path class="st0" d="M15.3,37.8c0.6,0.1,1.1,0.5,1,1.1c0,0.7-0.4,1.1-1.1,1c-0.6,0-1-0.4-1-1.1C14.2,38.2,14.7,37.9,15.3,37.8z"/>
</g>
</svg>
