<?xml version="1.0" encoding="utf-8"?>
<!-- Generator: Adobe Illustrator 25.4.1, SVG Export Plug-In . SVG Version: 6.00 Build 0)  -->
<svg version="1.1" id="Calque_1" xmlns="http://www.w3.org/2000/svg" xmlns:xlink="http://www.w3.org/1999/xlink" x="0px" y="0px"
	 viewBox="0 0 39.7 39.7" style="enable-background:new 0 0 39.7 39.7;" xml:space="preserve">
<style type="text/css">
	.st0{fill:#FFFFFF;}
	.st1{fill:#0C7189;}
</style>
<rect class="st0" width="39.7" height="39.7"/>
<g>
	<path class="st1" d="M32.8,19.7c0-2,1.6-3.4,3.6-3.4c1.9,0,3.4,1.6,3.3,3.5c0,1.9-1.6,3.5-3.5,3.5C34.3,23.2,32.8,21.6,32.8,19.7z"
		/>
	<path class="st1" d="M34.2,9.2c1.7,0,3.2,1.6,3.1,3.3c0,1.7-1.5,3.2-3.2,3.2c-1.8,0-3.2-1.6-3.2-3.3C31,10.6,32.5,9.2,34.2,9.2z"/>
	<path class="st1" d="M32.1,6.7c0,1.6-1.3,3-2.9,3c-1.6,0-3-1.4-3-3s1.4-2.9,2.9-2.9C30.7,3.7,32.1,5.1,32.1,6.7z"/>
	<path class="st1" d="M25,3.8c0,1.5-1.2,2.7-2.6,2.7c-1.5,0-2.7-1.2-2.7-2.7S21,0.9,22.4,1C23.8,0.9,25,2.3,25,3.8z"/>
	<path class="st1" d="M14.7,1.4c1.4,0,2.6,1.1,2.6,2.5s-1.1,2.5-2.5,2.5s-2.5-1.1-2.5-2.6C12.4,2.5,13.4,1.4,14.7,1.4z"/>
	<path class="st1" d="M10.3,7.4c0,1.2-1,2.2-2.3,2.2c-1.2,0-2.2-0.9-2.2-2.3c0-1.2,1-2.3,2.3-2.2C9.4,5.1,10.3,6.1,10.3,7.4z"/>
	<path class="st1" d="M3.4,11.2c1,0,2,0.9,2.1,2c0,1.1-0.9,2.1-2,2.1c-1,0-2-0.9-2.1-2C1.4,12.3,2.4,11.2,3.4,11.2z"/>
	<path class="st1" d="M1.8,22.5c-0.9,0-1.8-0.9-1.8-1.8s0.9-1.8,1.8-1.8s1.7,0.8,1.7,1.8C3.5,21.6,2.7,22.5,1.8,22.5z"/>
	<path class="st1" d="M4.8,28.2c0,0.8-0.8,1.5-1.5,1.5c-0.9,0-1.5-0.8-1.5-1.6c0-0.9,0.8-1.5,1.6-1.5C4.2,26.6,4.8,27.3,4.8,28.2z"
		/>
	<path class="st1" d="M7.8,32.9c0.7,0,1.2,0.6,1.2,1.3c0,0.7-0.6,1.3-1.2,1.3s-1.3-0.7-1.3-1.3C6.5,33.4,7.2,32.9,7.8,32.9z"/>
	<path class="st1" d="M14.5,36.7c0.6,0.1,1,0.5,0.9,1c0,0.7-0.4,1-1,0.9c-0.6,0-0.9-0.4-0.9-1C13.4,37,13.9,36.7,14.5,36.7z"/>
</g>
</svg>
