<?xml version="1.0" encoding="utf-8"?>
<!-- Generator: Adobe Illustrator 25.4.1, SVG Export Plug-In . SVG Version: 6.00 Build 0)  -->
<svg version="1.1" id="Calque_1" xmlns="http://www.w3.org/2000/svg" xmlns:xlink="http://www.w3.org/1999/xlink" x="0px" y="0px"
	 viewBox="0 0 39.7 39.7" style="enable-background:new 0 0 39.7 39.7;" xml:space="preserve">
<style type="text/css">
	.st0{fill:#FFFFFF;}
	.st1{fill:#0C7189;}
</style>
<rect class="st0" width="39.7" height="39.7"/>
<g id="css3">
	<g>
		<path class="st0" d="M20.1,39c-0.3,0-0.5,0-0.8,0c-0.3-0.1-0.5-0.2-0.8-0.3c-3.9-1.1-7.7-2.2-11.6-3.2c-0.7-0.2-1-0.4-1.1-1.2
			c0-1.4-0.2-2.7-0.3-4.1c-0.3-3.4-0.6-6.6-0.9-10c-0.3-3.3-0.6-6.5-0.9-9.8C3.5,7.3,3.3,4.4,3,1.4c0-0.5,0.2-0.7,0.6-0.7
			c0.2,0,0.5,0,0.7,0c10.4,0,20.8,0,31.4,0c0.4,0,0.7,0,1.1,0c0,0.3,0,0.6,0,1c0,0.2-0.1,0.3-0.1,0.5c-0.5,5.4-1,10.7-1.5,16.1
			s-1,10.6-1.4,16c-0.1,0.9-0.4,1.2-1.2,1.5C28.5,36.7,24.3,37.9,20.1,39z M19.8,7.7L19.8,7.7c-3.2,0-6.4,0-9.6,0
			c-0.7,0-1,0.3-0.9,1c0.1,0.7,0.2,1.5,0.2,2.2c0,0.7,0.4,0.9,1.1,0.9c2.5,0,5,0,7.4,0c2.2,0,4.5,0,6.6,0c0.9,0,1,0.1,1,1
			c-0.1,0.9-0.2,1.8-0.3,2.6c0,0.7-0.4,0.9-1,0.8c-1.2,0-2.4,0-3.6,0c-3.3,0-6.5,0-9.9,0c-0.7,0-1,0.3-0.9,1
			c0.1,0.6,0.1,1.2,0.2,1.8c0.1,1.2,0.2,1.3,1.4,1.3c4.2,0,8.3,0,12.4,0c0.7,0,1,0.2,0.9,0.9c-0.2,1.4-0.3,2.7-0.3,4.1
			c0,0.5-0.3,0.7-0.7,0.8c-1.2,0.3-2.4,0.7-3.6,1c-0.4,0.1-0.7,0.1-1.1,0c-1.1-0.3-2.3-0.6-3.4-0.9c-0.5-0.1-0.8-0.4-0.8-1
			S15,23.9,15,23.3c0-0.5-0.3-0.8-0.9-0.8c-0.9,0-1.8,0-2.7,0c-0.5,0-0.7,0.2-0.6,0.7c0.2,1.6,0.3,3.2,0.4,4.8c0,0.7,0.3,1.1,1,1.2
			c2.4,0.6,4.7,1.3,6.9,2c0.5,0.2,1,0.1,1.6,0c2.3-0.6,4.5-1.3,6.7-1.9c0.7-0.2,1.1-0.6,1.1-1.3c0.2-2.5,0.4-5,0.7-7.4
			c0.4-4,0.7-8,1.1-12c0.1-0.9,0-1-0.9-1C26.2,7.7,23,7.7,19.8,7.7z"/>
		<path class="st1" d="M20.2,39.7h-1.1l-0.3-0.1c-0.2-0.1-0.3-0.1-0.5-0.2l-2-0.6c-3.2-0.9-6.4-1.8-9.6-2.7
			c-0.7-0.2-1.5-0.6-1.6-1.9c0-0.9-0.1-1.9-0.2-2.8c0-0.4-0.1-0.8-0.1-1.3L2.3,1.4c0-0.4,0.1-0.8,0.3-1.1C2.8,0.1,3.2,0,3.6,0h0.7
			h31.4c0.3,0,0.5,0,0.8,0h1l-0.1,2c0,0.1,0,0.1,0,0.2l-1.8,19.9c-0.4,4-0.7,8-1.1,12c-0.1,1.2-0.6,1.7-1.7,2.1
			c-3.1,0.8-6.2,1.7-9.2,2.6L20.2,39.7z M19.4,38.3H20l3.2-0.9c3.1-0.9,6.2-1.7,9.2-2.6c0.6-0.2,0.7-0.3,0.7-0.8
			c0.3-4.1,0.7-8,1.1-12.1L36,2c0-0.1,0-0.3,0.1-0.4V1.3c-0.1,0-0.3,0-0.4,0H4.4H4.1c-0.1,0-0.3,0-0.4,0l2.6,28.8
			c0,0.4,0.1,0.8,0.1,1.2c0.1,0.9,0.2,1.9,0.2,2.9c0,0.4,0.1,0.5,0.6,0.6c3.2,0.9,6.4,1.8,9.6,2.7l2,0.6
			C18.9,38.1,19.1,38.1,19.4,38.3L19.4,38.3z M19.8,32.2c-0.3,0-0.6,0-1-0.1c-2.4-0.7-4.7-1.3-6.9-1.9c-0.9-0.2-1.4-0.9-1.5-1.8
			c-0.1-1.6-0.2-3.2-0.4-4.8c0-0.2-0.1-0.7,0.3-1.1c0.4-0.4,0.9-0.4,1-0.4c0.9,0,1.8,0,2.6,0c0.9,0,1.5,0.5,1.5,1.5
			c0,0.2,0,0.4,0.1,0.7c0,0.4,0.1,0.7,0.1,1.1c0,0.2,0,0.2,0.3,0.3c1.2,0.3,2.3,0.6,3.4,0.9c0.3,0.1,0.5,0.1,0.7,0l0.9-0.2
			c0.9-0.3,1.9-0.5,2.8-0.7c0.2-0.1,0.2-0.1,0.2-0.2c0.1-1.4,0.2-2.7,0.4-4.1c0-0.1,0-0.1,0-0.2c0,0-0.1,0-0.2,0c-3.2,0-6.3,0-9.4,0
			h-3c-1.6,0-2-0.4-2.1-2c0-0.6-0.1-1.2-0.2-1.8c-0.1-0.5,0-1,0.3-1.3c0.4-0.5,1.1-0.5,1.3-0.5c2.5,0,4.9,0,7.3,0h3.6
			c0.9,0,1.8,0,2.6,0c0.2,0,0.2,0,0.3,0c0,0,0-0.1,0-0.2c0-0.5,0.1-1,0.1-1.5c0-0.4,0.1-0.7,0.1-1.1c0-0.1,0-0.2,0-0.3
			c-0.1,0-0.2,0-0.3,0c-2.2,0-4.5,0-6.6,0h-1.5c-2,0-4,0-6,0c-1.2-0.1-1.6-1-1.6-1.7c0-0.7-0.1-1.5-0.2-2.2C8.7,8.6,8.6,8,9,7.5
			s1-0.4,1.3-0.5c2.4,0,4.7,0,7,0h5.2h6.8c0.5,0,1,0,1.3,0.4C31.1,7.8,31,8.3,31,8.8c-0.3,3.4-0.6,6.6-0.9,10l-0.3,3.6
			c-0.2,2-0.4,3.9-0.5,5.9c-0.1,1-0.6,1.7-1.6,1.9c-2.3,0.6-4.6,1.2-6.7,1.9C20.5,32.1,20.2,32.2,19.8,32.2z M11.4,23.4
			c0.2,1.6,0.3,3.2,0.4,4.8c0,0.4,0.1,0.5,0.5,0.6c2.3,0.6,4.6,1.3,6.8,1.9c0.5,0.2,0.9,0.1,1.3,0c2.2-0.6,4.5-1.3,6.7-1.9
			c0.5-0.1,0.6-0.3,0.6-0.7c0.2-2,0.3-3.9,0.5-5.9l0.3-3.6c0.3-3.4,0.6-6.6,0.9-10c0-0.1,0-0.2,0-0.3c-0.1,0-0.1,0-0.3,0h-6.8h-5.2
			c-2.4,0-4.8,0-7,0c-0.1,0-0.2,0-0.2,0s0,0.1,0,0.2c0.1,0.7,0.2,1.5,0.2,2.3c0,0.2,0,0.2,0,0.2s0.1,0,0.3,0l0,0c2,0,4,0,6,0h1.5
			c2.3,0,4.5,0,6.7,0c0.5,0,1,0,1.3,0.4c0.3,0.4,0.3,0.9,0.3,1.4c0,0.4-0.1,0.8-0.1,1.2C26,14.5,26,15,26,15.5
			c0,0.7-0.3,1.5-1.7,1.5c-0.9,0-1.7,0-2.6,0h-3.6c-2.5,0-4.9,0-7.3,0c-0.1,0-0.2,0-0.2,0s0,0.1,0,0.2c0.1,0.6,0.1,1.2,0.2,1.9
			c0,0.2,0,0.6,0.1,0.7c0,0,0.5,0,0.6,0h3c3.2,0,6.3,0,9.4,0c0.4,0,0.9,0,1.3,0.4c0.4,0.4,0.3,0.9,0.3,1.3c-0.2,1.3-0.3,2.7-0.3,4.1
			c0,0.5-0.3,1.2-1.2,1.4c-0.9,0.2-1.8,0.5-2.8,0.7l-0.9,0.2c-0.5,0.1-1,0.1-1.5,0c-1.1-0.3-2.3-0.6-3.4-0.9
			c-0.9-0.2-1.4-0.8-1.4-1.6c0-0.3,0-0.7-0.1-1c0-0.2-0.1-0.5-0.1-0.7c0-0.1,0-0.2,0-0.2s0,0-0.1,0l0,0
			C13.1,23.4,12.3,23.4,11.4,23.4z"/>
	</g>
</g>
</svg>
