<?xml version="1.0" encoding="utf-8"?>
<!-- Generator: Adobe Illustrator 25.4.1, SVG Export Plug-In . SVG Version: 6.00 Build 0)  -->
<svg version="1.1" id="Calque_1" xmlns="http://www.w3.org/2000/svg" xmlns:xlink="http://www.w3.org/1999/xlink" x="0px" y="0px"
	 viewBox="0 0 40 40" style="enable-background:new 0 0 40 40;" xml:space="preserve">
<style type="text/css">
	.st0{fill:#FFFFFF;}
	.st1{fill:#0C7189;}
</style>
<g id="css3">
	<g>
		<path class="st0" d="M20.3,39.3c-0.3,0-0.5,0-0.8,0c-0.3-0.1-0.5-0.2-0.8-0.3c-3.9-1.1-7.8-2.2-11.7-3.2c-0.7-0.2-1-0.4-1.1-1.2
			c0-1.4-0.2-2.7-0.3-4.1C5.3,27.1,5,23.8,4.7,20.4c-0.3-3.3-0.6-6.6-0.9-9.9C3.5,7.4,3.3,4.4,3,1.4c0-0.5,0.2-0.7,0.6-0.7
			c0.2,0,0.5,0,0.7,0c10.5,0,21,0,31.6,0c0.4,0,0.7,0,1.1,0c0,0.3,0,0.6,0,1c0,0.2-0.1,0.3-0.1,0.5c-0.5,5.4-1,10.8-1.5,16.2
			c-0.5,5.4-1,10.7-1.4,16.1c-0.1,0.9-0.4,1.2-1.2,1.5C28.7,37,24.5,38.2,20.3,39.3z M20,7.8C20,7.8,20,7.8,20,7.8
			c-3.2,0-6.5,0-9.7,0c-0.7,0-1,0.3-0.9,1c0.1,0.7,0.2,1.5,0.2,2.2c0,0.7,0.4,0.9,1.1,0.9c2.5,0,5,0,7.5,0c2.2,0,4.5,0,6.7,0
			c0.9,0,1,0.1,1,1c-0.1,0.9-0.2,1.8-0.3,2.6c0,0.7-0.4,0.9-1,0.8c-1.2,0-2.4,0-3.6,0c-3.3,0-6.6,0-10,0c-0.7,0-1,0.3-0.9,1
			c0.1,0.6,0.1,1.2,0.2,1.8c0.1,1.2,0.2,1.3,1.4,1.3c4.2,0,8.4,0,12.5,0c0.7,0,1,0.2,0.9,0.9c-0.2,1.4-0.3,2.7-0.3,4.1
			c0,0.5-0.3,0.7-0.7,0.8c-1.2,0.3-2.4,0.7-3.6,1c-0.4,0.1-0.7,0.1-1.1,0c-1.1-0.3-2.3-0.6-3.4-0.9c-0.5-0.1-0.8-0.4-0.8-1
			c0-0.6-0.1-1.2-0.1-1.8c0-0.5-0.3-0.8-0.9-0.8c-0.9,0-1.8,0-2.7,0c-0.5,0-0.7,0.2-0.6,0.7c0.2,1.6,0.3,3.2,0.4,4.8
			c0,0.7,0.3,1.1,1,1.2c2.4,0.6,4.7,1.3,7,2c0.5,0.2,1,0.1,1.6,0c2.3-0.6,4.5-1.3,6.8-1.9c0.7-0.2,1.1-0.6,1.1-1.3
			c0.2-2.5,0.4-5,0.7-7.5c0.4-4,0.7-8.1,1.1-12.1c0.1-0.9,0-1-0.9-1C26.4,7.8,23.2,7.8,20,7.8z"/>
		<path class="st1" d="M20.4,40l-1.1,0L19,39.9c-0.2-0.1-0.3-0.1-0.5-0.2l-2-0.6c-3.2-0.9-6.5-1.8-9.7-2.7c-0.7-0.2-1.5-0.6-1.6-1.9
			c0-0.9-0.1-1.9-0.2-2.8c0-0.4-0.1-0.8-0.1-1.3L2.3,1.4c0-0.4,0.1-0.8,0.3-1.1C2.8,0.1,3.2,0,3.6,0l0.7,0l31.6,0c0.3,0,0.5,0,0.8,0
			l1,0L37.6,2c0,0.1,0,0.1,0,0.2l-1.8,20.1c-0.4,4-0.7,8.1-1.1,12.1c-0.1,1.2-0.6,1.7-1.7,2.1c-3.1,0.8-6.2,1.7-9.3,2.6L20.4,40z
			 M19.6,38.6h0.6l3.2-0.9c3.1-0.9,6.2-1.7,9.3-2.6c0.6-0.2,0.7-0.3,0.7-0.8c0.3-4.1,0.7-8.1,1.1-12.2l1.8-20.1c0-0.1,0-0.3,0.1-0.4
			l0-0.3c-0.1,0-0.3,0-0.4,0l-31.6,0l-0.3,0c-0.1,0-0.3,0-0.4,0l2.6,29c0,0.4,0.1,0.8,0.1,1.2c0.1,0.9,0.2,1.9,0.2,2.9
			c0,0.4,0.1,0.5,0.6,0.6c3.2,0.9,6.5,1.8,9.7,2.7l2,0.6c0.2,0.1,0.4,0.1,0.6,0.2L19.6,38.6z M20,32.5c-0.3,0-0.6,0-1-0.1
			c-2.4-0.7-4.7-1.3-7-1.9c-0.9-0.2-1.4-0.9-1.5-1.8c-0.1-1.6-0.2-3.2-0.4-4.8c0-0.2-0.1-0.7,0.3-1.1c0.4-0.4,0.9-0.4,1-0.4
			c0.9,0,1.8,0,2.6,0c0.9,0,1.5,0.5,1.5,1.5c0,0.2,0,0.4,0.1,0.7c0,0.4,0.1,0.7,0.1,1.1c0,0.2,0,0.2,0.3,0.3
			c1.2,0.3,2.3,0.6,3.4,0.9c0.3,0.1,0.5,0.1,0.7,0l0.9-0.2c0.9-0.3,1.9-0.5,2.8-0.7c0.2-0.1,0.2-0.1,0.2-0.2
			c0.1-1.4,0.2-2.7,0.4-4.1c0-0.1,0-0.1,0-0.2c0,0-0.1,0-0.2,0c-3.2,0-6.4,0-9.5,0l-3,0c-1.6,0-2-0.4-2.1-2c0-0.6-0.1-1.2-0.2-1.8
			c-0.1-0.5,0-1,0.3-1.3c0.4-0.5,1.1-0.5,1.3-0.5c2.5,0,4.9,0,7.4,0l3.6,0c0.9,0,1.8,0,2.6,0c0.2,0,0.2,0,0.3,0c0,0,0-0.1,0-0.2
			c0-0.5,0.1-1,0.1-1.5c0-0.4,0.1-0.7,0.1-1.1c0-0.1,0-0.2,0-0.3c-0.1,0-0.2,0-0.3,0c-2.2,0-4.5,0-6.7,0l-1.5,0c-2,0-4,0-6,0
			C9.4,12.7,9,11.8,9,11.1c0-0.7-0.1-1.5-0.2-2.2c0-0.2-0.1-0.8,0.3-1.3c0.4-0.5,1-0.4,1.3-0.5c2.4,0,4.7,0,7.1,0l5.2,0l6.9,0
			c0.5,0,1,0,1.3,0.4c0.4,0.4,0.3,0.9,0.3,1.4c-0.3,3.4-0.6,6.7-0.9,10.1L30,22.6c-0.2,2-0.4,3.9-0.5,5.9c-0.1,1-0.6,1.7-1.6,1.9
			c-2.3,0.6-4.6,1.2-6.8,1.9C20.7,32.4,20.4,32.5,20,32.5z M11.5,23.6c0.2,1.6,0.3,3.2,0.4,4.8c0,0.4,0.1,0.5,0.5,0.6
			c2.3,0.6,4.6,1.3,6.9,1.9c0.5,0.2,0.9,0.1,1.3,0c2.2-0.6,4.5-1.3,6.8-1.9c0.5-0.1,0.6-0.3,0.6-0.7c0.2-2,0.3-3.9,0.5-5.9l0.3-3.6
			c0.3-3.4,0.6-6.7,0.9-10.1c0-0.1,0-0.2,0-0.3c-0.1,0-0.1,0-0.3,0l-6.9,0l-5.2,0c-2.4,0-4.8,0-7.1,0c-0.1,0-0.2,0-0.2,0
			c0,0,0,0.1,0,0.2c0.1,0.7,0.2,1.5,0.2,2.3c0,0.2,0,0.2,0,0.2c0,0,0.1,0,0.3,0c0,0,0,0,0,0c2,0,4,0,6,0l1.5,0c2.3,0,4.5,0,6.8,0
			c0.5,0,1,0,1.3,0.4c0.3,0.4,0.3,0.9,0.3,1.4c0,0.4-0.1,0.8-0.1,1.2c-0.1,0.5-0.1,1-0.1,1.5c0,0.7-0.3,1.5-1.7,1.5
			c-0.9,0-1.7,0-2.6,0l-3.6,0c-2.5,0-4.9,0-7.4,0c-0.1,0-0.2,0-0.2,0c0,0,0,0.1,0,0.2c0.1,0.6,0.1,1.2,0.2,1.9c0,0.2,0,0.6,0.1,0.7
			c0,0,0.5,0,0.6,0l3,0c3.2,0,6.4,0,9.5,0c0.4,0,0.9,0,1.3,0.4c0.4,0.4,0.3,0.9,0.3,1.3c-0.2,1.3-0.3,2.7-0.3,4.1
			c0,0.5-0.3,1.2-1.2,1.4c-0.9,0.2-1.8,0.5-2.8,0.7l-0.9,0.2c-0.5,0.1-1,0.1-1.5,0c-1.1-0.3-2.3-0.6-3.4-0.9
			c-0.9-0.2-1.4-0.8-1.4-1.6c0-0.3,0-0.7-0.1-1c0-0.2-0.1-0.5-0.1-0.7c0-0.1,0-0.2,0-0.2c0,0,0,0-0.1,0c0,0,0,0,0,0
			C13.2,23.6,12.4,23.6,11.5,23.6z"/>
	</g>
</g>
</svg>
