<?xml version="1.0" encoding="utf-8"?>
<!-- Generator: Adobe Illustrator 25.4.1, SVG Export Plug-In . SVG Version: 6.00 Build 0)  -->
<svg version="1.1" id="Calque_1" xmlns="http://www.w3.org/2000/svg" xmlns:xlink="http://www.w3.org/1999/xlink" x="0px" y="0px"
	 viewBox="0 0 39.7 39.7" style="enable-background:new 0 0 39.7 39.7;" xml:space="preserve">
<style type="text/css">
	.st0{fill:#FFFFFF;}
	.st1{fill:#0C7189;}
</style>
<rect class="st0" width="39.7" height="39.7"/>
<g>
	<path class="st1" d="M10.5,29.3h5.7V10.5h-5.7V29.3z M12,27.8V12h2.7v15.9H12z"/>
	<path class="st1" d="M19.8,0C8.9,0,0,8.9,0,19.8s8.9,19.8,19.8,19.8c10.9,0,19.8-8.9,19.8-19.8S30.8,0,19.8,0z M38.2,19.8
		c0,10.1-8.2,18.4-18.4,18.4C9.7,38.2,1.5,30,1.5,19.8S9.7,1.5,19.8,1.5C30,1.5,38.2,9.7,38.2,19.8z"/>
	<path class="st1" d="M16.9,16.2h12.3v-5.7H16.9V16.2z M18.4,14.7V12h9.3v2.7H18.4z"/>
	<path class="st1" d="M16.9,22.6h12.3v-5.7H16.9V22.6z M18.4,21.2v-2.7h9.3v2.7H18.4z"/>
	<path class="st1" d="M16.9,29.2h12.3v-5.7H16.9V29.2z M18.4,27.7V25h9.3v2.7H18.4z"/>
</g>
</svg>
