<?xml version="1.0" encoding="utf-8"?>
<!-- Generator: Adobe Illustrator 25.4.1, SVG Export Plug-In . SVG Version: 6.00 Build 0)  -->
<svg version="1.1" id="Calque_1" xmlns="http://www.w3.org/2000/svg" xmlns:xlink="http://www.w3.org/1999/xlink" x="0px" y="0px"
	 viewBox="0 0 39.7 39.7" style="enable-background:new 0 0 39.7 39.7;" xml:space="preserve">
<style type="text/css">
	.st0{fill:#FFFFFF;}
	.st1{fill:#0C7189;}
</style>
<rect class="st0" width="39.7" height="39.7"/>
<path class="st1" d="M39.7,18c-0.3-1.8-0.6-3.8-1.4-5.6C35,5.2,29.5,1.1,22,0.1l-0.1,0c-0.1,0-0.3-0.1-0.5-0.1l-3.1,0l-0.6,0.1
	c-1.1,0.2-2.3,0.4-3.5,0.6C6.6,2.9,0.8,9.9,0.1,17.7c-0.7,8.4,3.3,15.8,10.7,19.8c2.6,1.4,5.6,2.1,8.8,2.1c5.1,0,10.1-1.9,13.6-5.1
	c3.8-3.6,5.9-7.8,6.4-12.7c0-0.1,0.1-0.3,0.1-0.4L39.7,18z M38.2,18.1l0,3.3c0,0.1-0.1,0.2-0.1,0.3c-0.4,4.6-2.4,8.4-6,11.8
	c-5.4,5-14.3,6.2-20.7,2.8c-6.9-3.7-10.6-10.6-10-18.4c0.7-7.2,6-13.7,13.1-15.8c1.1-0.3,2.3-0.4,3.4-0.6l0.4-0.1l3.1,0
	c0.1,0,0.2,0.1,0.3,0.1C28.9,2.5,33.9,6.2,36.9,13C37.7,14.6,37.9,16.3,38.2,18.1L38.2,18.1z"/>
<path class="st1" d="M19,20.4c0.2-0.2,0.3-0.5,0.2-0.9c-0.1-1.5-0.4-2.8-1-3.9c-1-2-2.7-3.2-4.9-3.5c-0.3,0-0.5,0-0.8,0
	c-2,0-4,0.9-5.2,2.3c-1.8,2.3-2.3,5-1.4,8.2c0.7,2.3,2.5,4.1,4.9,4.7c2.4,0.6,5,0,6.7-1.7c0.6-0.6,1-1.2,1.3-2.1
	c0.2-0.3,0.2-0.5,0.1-0.7h0c-0.1-0.2-0.2-0.3-0.4-0.3c-1-0.4-2.1,0.1-2.7,1c0,0,0,0.1-0.1,0.1c-0.1,0.1-0.2,0.2-0.2,0.3L15.4,24
	c-1.1,1-3,1.3-4.5,0.6c-1.3-0.6-2.2-2-2.3-3.5l0-0.4h9.5C18.3,20.8,18.7,20.8,19,20.4z M16.2,18.1H8.7l0.1-0.5
	c0.4-1.8,1.9-3,3.7-2.9c0,0,0,0,0,0c1.7,0,3.2,1.2,3.6,2.9L16.2,18.1z"/>
<g>
	<path class="st1" d="M33.6,26.2c0,0,0,0-0.1-0.1c-0.8-1.1-1.5-2.1-2.3-3.2c-0.8-1.1-1.5-2.2-2.3-3.2c-0.3-0.4-0.3-0.6-0.1-1
		c0.5-0.5,1-1.2,1.3-1.7c0.5-0.7,1-1.3,1.5-2l0.1-0.1c0.5-0.6,0.9-1.2,1.4-1.8c0.2-0.2,0.3-0.5,0.2-0.7c-0.1-0.3-0.4-0.3-0.7-0.3
		l-1.2,0c-0.8-0.1-1.3,0.2-1.7,0.8c-0.8,1.2-1.6,2.3-2.6,3.6l-0.3,0.4l-0.3-0.4c-0.2-0.3-0.4-0.6-0.6-0.9c-0.5-0.7-1.1-1.5-1.6-2.4
		c-0.5-0.6-1.4-1.3-2.5-1l-0.1,0H21c0,0-0.1,0-0.2,0c-0.1,0-0.1,0-0.2,0c-0.3,0-0.5,0.1-0.8,0.4l0,0.1c-0.1,0.2,0,0.5,0.2,0.7
		l0.1,0.1c0.7,0.9,1.4,1.9,2,2.8l0.3,0.4c0.5,0.7,1.1,1.5,1.6,2.2c0.4,0.4,0.4,0.6,0,1.2c-1.6,2.1-3.1,4.4-4.5,6.4
		c-0.3,0.4-0.2,0.6-0.2,0.8c0.1,0.2,0.3,0.3,0.6,0.3c0.1,0,0.2,0,0.2,0l0.9,0c1,0.1,1.6-0.2,2.2-1.1c1-1.6,1.9-3,2.9-4.3l0.3-0.4
		l0.3,0.5c0.3,0.5,0.6,0.9,0.9,1.4c0.5,0.7,1,1.4,1.4,2.1c0.9,1.5,2,2.1,3.6,1.8l0,0l0,0c0.4,0,0.7,0,0.8-0.2
		C34,27,34.1,26.7,33.6,26.2z M30.3,25.8c0-0.1-0.1-0.1-0.1-0.2L30.3,25.8z"/>
	<polygon class="st1" points="33.8,25.9 33.8,25.9 33.8,25.9 	"/>
</g>
</svg>
