<?xml version="1.0" encoding="utf-8"?>
<!-- Generator: Adobe Illustrator 25.4.1, SVG Export Plug-In . SVG Version: 6.00 Build 0)  -->
<svg version="1.1" id="Calque_1" xmlns="http://www.w3.org/2000/svg" xmlns:xlink="http://www.w3.org/1999/xlink" x="0px" y="0px"
	 viewBox="0 0 39.7 39.7" style="enable-background:new 0 0 39.7 39.7;" xml:space="preserve">
<style type="text/css">
	.st0{fill:#FFFFFF;}
	.st1{fill:#0C7189;}
</style>
<rect class="st0" width="39.7" height="39.7"/>
<g>
	<path id="figma_00000105424819687923781160000010582984904017676475_" class="st0" d="M39,7.9c0-0.4-0.1-0.8-0.2-1.2
		c-0.1-0.5-0.3-1-0.5-1.4c-0.6-1.2-1.4-2.2-2.4-3c-1.4-1.1-3.1-1.6-4.9-1.7c-0.9,0-1.7,0-2.6,0c-2,0-4,0-6.1,0c-1.5,0-3,0-4.4,0
		c-2.9,0-5.8,0-8.6,0c-0.6,0-1.2,0-1.8,0.1C7,0.9,6.3,1,5.9,1.2C4.8,1.7,3.8,2.3,3,3.2C2.1,4.1,1.5,5.1,1.1,6.3
		C1,6.5,0.9,6.9,0.8,7.3C0.7,7.6,0.7,8,0.7,8.3c0,3.9,0,7.6,0,11.5c0,3.8,0,7.5,0,11.3c0,0.6,0.1,1.2,0.2,1.7
		c0.2,0.8,0.5,1.5,0.9,2.1c0.5,1,1.2,1.7,2.1,2.4c0.5,0.4,1.1,0.7,1.8,1c0.9,0.4,1.8,0.6,2.7,0.6c7.6,0,15.3,0,22.9,0
		c0.6,0,1.3-0.1,1.9-0.3c0.9-0.3,1.8-0.7,2.6-1.3c0.9-0.7,1.7-1.6,2.3-2.6c0.7-1.3,1-2.6,1-4.1c0-0.9,0-1.8,0-2.7
		C39,21.4,39.1,14.7,39,7.9z M27,23.6c-0.9,0.5-1.8,0.8-2.8,0.7c-1.4-0.1-2.5-0.7-3.3-1.7c-0.6-0.7-1-1.6-1.1-2.6
		c-0.1,0.1,0,0.2,0,0.3c0,2.9,0,5.8,0,8.6c0,1.1-0.3,2.1-1,2.9c-1.1,1.3-2.4,1.9-4.1,1.8c-1-0.1-1.8-0.4-2.6-1.1
		c-0.9-0.8-1.5-1.8-1.7-2.9c-0.2-1.5,0.2-2.9,1.3-4c0.7-0.7,1.5-1.1,2.4-1.3c0.2,0,0.4-0.1,0.6-0.1c-0.4-0.1-0.9-0.2-1.3-0.3
		c-1.1-0.4-1.9-1.1-2.4-2.1c-0.4-0.8-0.6-1.6-0.6-2.4c0-1,0.4-1.9,1-2.7c0.7-0.9,1.5-1.4,2.6-1.7c0.3-0.1,0.6-0.1,0.9-0.2
		c-0.8,0-1.6-0.3-2.3-0.8c-0.6-0.4-1-0.9-1.4-1.5c-0.5-0.8-0.7-1.7-0.7-2.6c0-1.1,0.4-2,1.1-2.8c0.6-0.8,1.4-1.3,2.3-1.5
		c0.4-0.1,0.8-0.2,1.2-0.2c3.3,0,6.5,0,9.8,0c1,0,1.9,0.4,2.7,1c0.3,0.3,0.7,0.8,1,1.3C29,8.4,29.2,9,29.2,9.7
		c0.1,0.8,0,1.5-0.3,2.2c-0.4,1.1-1.2,1.9-2.2,2.5c-0.6,0.3-1.2,0.5-1.9,0.6c0.4,0.1,0.9,0.2,1.3,0.3c1,0.4,1.8,1.1,2.4,2
		c0.4,0.7,0.7,1.5,0.7,2.4C29.3,21.3,28.5,22.7,27,23.6z"/>
	<path class="st1" d="M20.1,39.7c-4,0-7.9,0-11.8,0c-1,0-2-0.2-3-0.7c-0.8-0.3-1.4-0.7-2-1.1c-1-0.8-1.7-1.6-2.3-2.6
		c-0.5-0.8-0.8-1.6-0.9-2.3C0.1,32.5,0,31.8,0,31.2V19.8V18c0-3.2,0-6.3,0-9.6c0-0.4,0.1-0.8,0.2-1.2V6.9c0.1-0.3,0.1-0.6,0.2-0.9
		c0.4-1.3,1.1-2.4,2-3.4c0.9-0.9,1.9-1.6,3.2-2.1c0.6-0.3,1.3-0.4,1.9-0.5S8.5,0,9.1,0h0.3c2.1,0,4.3,0,6.3,0h12.7h0.8
		c0.6,0,1.2,0,1.8,0c2,0,3.7,0.6,5.3,1.8c1.2,0.9,2,2,2.6,3.3c0.2,0.5,0.4,1,0.5,1.5v0.2c0.1,0.4,0.2,0.7,0.2,1.1
		c0.1,4.3,0.1,8.6,0.1,12.9c0,2.5,0,5,0,7.4c0,0.6,0,1.3,0,1.9v0.8c0,1.6-0.4,3.1-1.1,4.4c-0.6,1.1-1.4,2-2.5,2.8
		c-0.8,0.6-1.8,1.1-2.9,1.4c-0.7,0.2-1.4,0.3-2.1,0.3h-4.6C24.5,39.7,22.3,39.7,20.1,39.7z M8.8,1.4c-0.4,0-0.8,0-1.1,0.1
		c-0.6,0-1.2,0.1-1.7,0.3c-1.1,0.4-2,1-2.7,1.8C2.7,4.5,2.1,5.4,1.7,6.4C1.6,6.6,1.6,6.9,1.6,7.1L1.5,7.4C1.4,7.7,1.4,8,1.4,8.3
		c0,3.2,0,6.3,0,9.5V22v9c0,0.6,0.1,1.1,0.2,1.6c0.1,0.6,0.4,1.2,0.8,1.9c0.5,0.8,1.1,1.5,1.9,2.2c0.4,0.3,0.9,0.6,1.6,0.9
		c0.9,0.4,1.7,0.6,2.5,0.6c6.1,0,12.2,0,18.3,0h4.6c0.5,0,1.1-0.1,1.7-0.3c0.9-0.3,1.7-0.6,2.4-1.1c0.9-0.7,1.6-1.5,2.1-2.4
		c0.6-1.1,0.9-2.4,0.9-3.7V30c0-0.6,0-1.3,0-1.9c0-2.5,0-5,0-7.4c0-4.2,0-8.5-0.1-12.9l0,0c0-0.3-0.1-0.5-0.2-0.8l-0.1-0.2
		c-0.1-0.5-0.3-0.9-0.4-1.3c-0.5-1.1-1.3-2-2.2-2.8c-1.3-1-2.8-1.5-4.5-1.5c-0.6,0-1.2,0-1.8,0H17.8h-2.3c-2.1,0-4.3,0-6.3,0H8.8
		C9,1.4,8.9,1.4,8.8,1.4z M15.2,34.4c-0.2,0-0.3,0-0.5,0c-1.1-0.1-2.1-0.5-3-1.2c-1.1-0.9-1.7-2-1.9-3.4c-0.3-1.7,0.2-3.3,1.5-4.6
		c0.4-0.4,0.8-0.7,1.3-1c-0.9-0.5-1.6-1.2-2.1-2.1c-0.5-0.9-0.7-1.8-0.7-2.8c0-1.2,0.4-2.2,1.1-3.1c0.5-0.6,1-1.1,1.7-1.5
		c-0.1-0.1-0.3-0.2-0.4-0.2c-0.7-0.4-1.2-1-1.6-1.7c-0.6-1-0.8-2-0.8-3c0-1.2,0.5-2.3,1.2-3.2c0.7-0.8,1.6-1.4,2.6-1.8
		c0.5-0.2,1-0.2,1.4-0.2h2.8c2.4,0,4.7,0,7,0c1.1,0,2.1,0.4,3.1,1.2c0.5,0.4,1,0.9,1.4,1.6s0.5,1.4,0.6,2c0.1,0.8,0,1.6-0.3,2.5
		c-0.4,1.2-1.3,2.2-2.4,2.8c0.8,0.5,1.5,1.1,2,1.9c0.5,0.9,0.8,1.8,0.8,2.7c0,2-0.9,3.6-2.5,4.7l0,0c-1,0.6-2,0.9-3.2,0.8
		c-1.4-0.1-2.7-0.7-3.7-1.8l0,0c0,2,0,3.9,0,5.9c0,1.3-0.4,2.4-1.2,3.3C18.3,33.7,16.9,34.4,15.2,34.4z M20.7,6.3c-1,0-2,0-3,0H15
		c-0.3,0-0.6,0.1-1,0.2c-0.8,0.3-1.4,0.7-2,1.3c-0.6,0.7-0.9,1.5-0.9,2.4c0,0.8,0.2,1.5,0.6,2.2c0.3,0.5,0.7,0.9,1.2,1.2
		c0.6,0.4,1.3,0.7,2,0.7l3.2,0.1l-3,1.2c-0.2,0.1-0.5,0.1-0.7,0.1c-0.1,0-0.2,0-0.3,0c-0.9,0.3-1.7,0.8-2.2,1.5s-0.8,1.4-0.8,2.3
		c0,0.7,0.1,1.4,0.5,2.1c0.5,0.8,1.1,1.4,2.1,1.8c0.3,0.1,0.7,0.2,1.1,0.3l3.8,0.5l-3.7,1c-0.1,0-0.2,0-0.3,0.1c-0.1,0-0.2,0-0.2,0
		c-0.9,0.2-1.6,0.6-2.1,1.2c-0.9,1-1.3,2.1-1.1,3.4c0.2,1,0.6,1.9,1.4,2.5c0.7,0.6,1.4,0.9,2.2,0.9c1.5,0.1,2.6-0.4,3.5-1.5
		c0.6-0.7,0.9-1.6,0.9-2.5c0-2,0-3.9,0-5.9v-2.8c0-0.1,0-0.4,0.1-0.6l1-2.1l0.3,2.4c0.1,0.9,0.4,1.6,0.9,2.2
		c0.8,0.9,1.7,1.4,2.9,1.4c0.9,0.1,1.7-0.1,2.4-0.6l0,0c1.3-0.8,1.9-2,1.9-3.5c0-0.7-0.2-1.4-0.6-2c-0.5-0.8-1.2-1.4-2-1.7
		c-0.2-0.1-0.5-0.1-0.7-0.2c-0.2,0-0.4-0.1-0.6-0.1l-4.1-1.1l4.2-0.3c0.6,0,1.1-0.2,1.6-0.5c0.9-0.5,1.5-1.2,1.9-2.1
		c0.3-0.7,0.3-1.3,0.2-1.9c-0.1-0.5-0.2-1.1-0.4-1.5c-0.3-0.5-0.7-0.9-1-1.2c-0.7-0.6-1.5-0.9-2.3-0.9C23.4,6.3,22.1,6.3,20.7,6.3z"
		/>
</g>
</svg>
