<?xml version="1.0" encoding="utf-8"?>
<!-- Generator: Adobe Illustrator 25.4.1, SVG Export Plug-In . SVG Version: 6.00 Build 0)  -->
<svg version="1.1" id="Calque_1" xmlns="http://www.w3.org/2000/svg" xmlns:xlink="http://www.w3.org/1999/xlink" x="0px" y="0px"
	 viewBox="0 0 39.7 39.7" style="enable-background:new 0 0 39.7 39.7;" xml:space="preserve">
<style type="text/css">
	.st0{fill:#FFFFFF;}
	.st1{fill:#0C7189;}
</style>
<rect class="st0" width="39.7" height="39.7"/>
<g>
	<path class="st1" d="M28.2,13.7l-0.4-0.1c-1.2-0.5-2.4-1.1-3.5-1.7c-1.1-0.6-2.3-1.2-3.5-1.7c-0.3-0.1-0.6-0.2-0.9-0.2
		c-0.4,0-0.8,0.2-0.9,0.2c-0.6,0.3-1.2,0.6-1.8,0.8c-0.6,0.3-1.2,0.5-1.8,0.8c-0.6,0.3-1.2,0.6-1.8,0.8c-0.6,0.3-1.2,0.5-1.8,0.8
		c-0.8,0.3-1.2,1-1.2,1.9v2.2c0,1.3,0.7,1.7,1.2,1.8c0,0-0.1,0-0.1,0.1c-0.8,0.3-1.2,1-1.2,1.9v2.2c0,1.7,1,1.9,1.5,1.9
		c0.5,0,0.7-0.1,1.1-0.3l6.6-3.1c1,0.5,2,0.9,2.8,1.3c-0.3-0.1-0.6-0.1-0.9-0.1c0,0,0,0,0,0c-0.8,0.1-1.8,0.3-2.6,0.9
		c-1,0.3-1.5,1-1.5,1.9v2.2c0,1.4,1,1.8,1.6,1.8c0.4,0,0.7-0.1,0.9-0.3c0.2-0.1,0.4-0.2,0.6-0.3c0.2-0.1,0.4-0.2,0.7-0.3
		c0.3-0.1,0.5-0.2,0.7-0.3c0.2-0.1,0.4-0.2,0.7-0.3c0.4-0.2,0.7-0.3,1.1-0.4c0.6-0.2,1.2-0.4,1.8-0.7l0.1,0l0.8-1.2v-0.2l-0.8-1.1
		l-0.1-0.1c-0.1-0.1-0.3-0.1-0.4-0.2c-0.2-0.1-0.5-0.2-0.6-0.3c0.6,0.3,1.3,0.6,1.9,0.9c0.1,0.1,0.5,0.2,0.9,0.2
		c0.5,0,1.5-0.3,1.6-1.6C29,23.4,29,23,29,22.6l0-0.8c0.1-1-0.3-1.7-1.3-2.3c0.4,0,1.5-0.3,1.5-1.8v-2.3
		C29.2,14.3,28.5,13.9,28.2,13.7z M19.2,28.3C19.2,28.3,19.2,28.3,19.2,28.3c-0.1,0-0.1,0-0.1-0.1V26c0-0.1,0-0.2,0.3-0.3h0.1l0.1,0
		c0.6-0.4,1.2-0.6,2-0.6c0.7,0,1.3,0.2,1.8,0.6c0.3,0.2,0.6,0.4,1,0.5c-0.4,0.2-0.8,0.3-1.2,0.5c-0.4,0.1-0.7,0.3-1.1,0.4
		c-0.5,0.2-1,0.4-1.4,0.6C20.2,27.9,19.7,28,19.2,28.3L19.2,28.3z M19.7,14.4c-0.3,0-0.6,0.1-1,0.3c-0.1,0.1-0.3,0.1-0.5,0.2
		c-1.9,0.9-3.9,1.8-5.9,2.7c-0.1,0-0.1,0-0.1,0.1c0,0,0-0.1,0-0.1v-2.2c0-0.2,0.1-0.3,0.2-0.4c1.2-0.5,2.4-1.1,3.5-1.7
		c1.2-0.6,2.3-1.1,3.5-1.6c0.1,0,0.1,0,0.2-0.1c0.1,0,0.1,0,0.2,0c0.1,0,0.1,0,0.1,0l0.1,0.1c1.2,0.5,2.4,1.1,3.5,1.7
		c1.2,0.6,2.4,1.1,3.5,1.6c0.3,0.2,0.3,0.2,0.3,0.4v2.3c0,0,0,0.1,0,0.1c0,0-0.1,0-0.1,0l-0.1,0c-1-0.5-2-1-2.9-1.4
		c-1-0.5-2-0.9-2.9-1.4C20.6,14.5,20.2,14.4,19.7,14.4z M12.2,21.3c0-0.2,0.1-0.3,0.3-0.4c0.8-0.4,1.7-0.8,2.5-1.2
		c1.6-0.7,3.1-1.5,4.6-2.2h0.1c0.1,0,0.1,0,0.2,0c0.1,0,0.2,0.1,0.3,0.1l6.7,3.2c0.5,0.3,0.6,0.5,0.6,0.9v0.8c0,0.3,0,0.7-0.1,0.9
		l0,0.1c0,0,0,0.1,0,0.1c0,0-0.1,0-0.1,0l-0.1,0c-1.2-0.6-2.3-1.1-3.3-1.6c-1.1-0.5-2.4-1-3.6-1.6c-0.2-0.1-0.3-0.1-0.4-0.1
		c-0.1,0-0.1,0-0.2,0c-0.1,0-0.2,0.1-0.3,0.1l-6.9,3.3c-0.1,0-0.1,0.1-0.2,0.1c0-0.1,0-0.1,0-0.2V21.3z"/>
	<path class="st1" d="M19.8,0C8.9,0,0,8.9,0,19.8c0,11,8.7,19.7,19.8,19.8c11.1-0.1,19.8-8.8,19.8-19.8C39.7,8.9,30.8,0,19.8,0z
		 M38,19.8c0,10.1-8,18.1-18.2,18.2C9.7,37.9,1.7,29.9,1.7,19.8c0-10,8.2-18.2,18.2-18.2S38,9.8,38,19.8z"/>
</g>
</svg>
