<?xml version="1.0" encoding="utf-8"?>
<!-- Generator: Adobe Illustrator 25.4.1, SVG Export Plug-In . SVG Version: 6.00 Build 0)  -->
<svg version="1.1" id="Calque_1" xmlns="http://www.w3.org/2000/svg" xmlns:xlink="http://www.w3.org/1999/xlink" x="0px" y="0px"
	 viewBox="0 0 40 40" style="enable-background:new 0 0 40 40;" xml:space="preserve">
<style type="text/css">
	.st0{fill:#FFFFFF;}
	.st1{fill:#0C7189;}
</style>
<g>
	<path id="git_00000091014085514556623240000004561569230114610874_" class="st0" d="M20.3,39.3c-0.2,0-0.4,0-0.5,0
		c-0.6-0.2-1.2-0.4-1.6-0.9c-5.5-5.5-11-11.1-16.6-16.6c-1.2-1.2-1.2-2.6,0-3.8C5.3,14.4,9,10.7,12.7,6.9c0.1-0.1,0.2-0.2,0.3-0.3
		c0.1,0,0.1,0.1,0.1,0.1c1.4,1.4,2.7,2.7,4,4.1c0.1,0.1,0.1,0.3,0.1,0.5c-0.4,1.4,0.2,2.8,1.4,3.5c0.2,0.1,0.3,0.2,0.3,0.5
		c0,3.3,0,6.6,0,9.9c0,0.2-0.1,0.4-0.3,0.5c-1.1,0.6-1.7,1.9-1.5,3.1c0.2,1.4,1.4,2.4,2.8,2.5c1.2,0.1,2.5-0.7,3-2
		c0.5-1.3,0-2.7-1.1-3.5c-0.2-0.2-0.3-0.3-0.3-0.6c0-3.2,0-6.4,0-9.6c0-0.1,0-0.2,0-0.4c0.1,0.1,0.2,0.2,0.3,0.3
		c1.1,1.1,2.2,2.2,3.3,3.3c0.2,0.2,0.3,0.4,0.2,0.7c-0.5,1.8,0.8,3.6,2.6,3.7c1.3,0.1,2.3-0.4,2.9-1.5c0.6-1.1,0.5-2.2-0.2-3.2
		c-0.8-1-1.8-1.4-3.1-1.1c-0.3,0.1-0.4,0-0.6-0.2c-1.3-1.3-2.5-2.5-3.8-3.8C23,13.2,22.9,13,23,12.8c0.5-2.1-1.4-4-3.5-3.6
		c-0.3,0.1-0.4,0-0.6-0.2c-1.3-1.3-2.6-2.6-3.9-3.9C14.9,5,14.8,5,14.8,4.9c0-0.1,0.1-0.1,0.1-0.1c1.1-1.1,2.3-2.3,3.4-3.4
		c0.2-0.2,0.6-0.4,0.9-0.5c1.1-0.4,1.9,0,2.7,0.7c5.3,5.4,10.7,10.7,16,16c0.6,0.6,1.3,1.2,1.4,2.2c0,0.2,0,0.4,0,0.5
		c-0.2,0.9-0.8,1.5-1.4,2.2c-5.2,5.1-10.3,10.3-15.4,15.5C21.8,38.5,21.2,39.2,20.3,39.3z"/>
	<path class="st1" d="M20.4,40l-0.8,0c-0.8-0.2-1.4-0.6-1.9-1.1c-4.1-4.1-8.1-8.1-12.2-12.2l-4.4-4.4c-1.4-1.4-1.4-3.3,0-4.8
		L12.2,6.5c0.1-0.1,0.2-0.1,0.2-0.2l0.4-0.3l0.8,0.4l0.7,0.7c1.1,1.1,2.3,2.3,3.4,3.4c0.3,0.3,0.3,0.8,0.2,1.1
		c-0.3,1.1,0.2,2.2,1.1,2.7c0.4,0.2,0.6,0.6,0.6,1.1c0,3.3,0,6.6,0,9.9c0,0.5-0.2,0.9-0.6,1.1c-0.9,0.5-1.3,1.4-1.2,2.4
		c0.2,1.1,1,1.9,2.2,2c0.9,0.1,1.9-0.6,2.3-1.5c0.4-1,0-2.1-0.9-2.7c-0.4-0.3-0.6-0.7-0.6-1.2c0-2.3,0-4.5,0-6.8v-2.7
		c0-0.1,0-0.2,0-0.3l0.1-1.6l1.2,1.1c0.1,0.1,0.1,0.1,0.2,0.2l1,1c0.8,0.8,1.5,1.5,2.3,2.3c0.4,0.4,0.5,0.8,0.4,1.3
		c-0.2,0.7-0.1,1.4,0.4,1.9c0.4,0.6,1,0.9,1.6,0.9c1,0.1,1.8-0.3,2.2-1.2c0.5-0.9,0.4-1.7-0.2-2.5c-0.6-0.8-1.4-1.1-2.4-0.9
		c-0.6,0.1-1-0.1-1.2-0.4c-1.2-1.3-2.5-2.5-3.8-3.8c-0.3-0.3-0.4-0.7-0.3-1.2c0.2-0.8-0.1-1.6-0.6-2.1c-0.6-0.6-1.3-0.8-2.1-0.6
		c-0.5,0.1-0.9,0-1.2-0.4c-0.9-0.9-1.8-1.9-2.8-2.8l-1.2-1.2c-0.1-0.1-0.1-0.1-0.2-0.2L13.9,5l0.3-0.5c0.1-0.1,0.1-0.2,0.2-0.2
		l0.8-0.8c0.9-0.9,1.7-1.7,2.6-2.6c0.3-0.3,0.7-0.5,1.1-0.7c0.9-0.3,2.1-0.4,3.4,0.9c5.3,5.4,10.7,10.7,16,16
		c0.7,0.7,1.4,1.4,1.6,2.5l0,0.6c-0.2,1.2-0.9,2-1.6,2.6c-5.2,5.2-10.4,10.3-15.5,15.5C22.2,39.1,21.5,39.8,20.4,40L20.4,40z
		 M19.9,38.6h0.4c0.7-0.1,1.1-0.6,1.7-1.2c5.2-5.2,10.3-10.4,15.5-15.5c0.6-0.6,1.1-1.1,1.2-1.8l0-0.4c-0.1-0.6-0.6-1.1-1.2-1.6
		C32.1,12.7,26.7,7.4,21.4,2c-0.6-0.6-1.3-0.8-2-0.6c-0.2,0.1-0.5,0.2-0.6,0.4c-0.9,0.8-1.7,1.7-2.6,2.6l-0.5,0.5l0.9,0.9
		c0.9,0.9,1.8,1.8,2.8,2.8c1.2-0.3,2.4,0.1,3.3,1c0.9,0.9,1.3,2.2,1,3.4c1.2,1.2,2.5,2.4,3.7,3.7c1.5-0.3,2.8,0.2,3.7,1.4
		c0.9,1.2,1,2.6,0.3,3.9c-0.7,1.3-2,2-3.5,1.9c-1.1-0.1-2-0.6-2.7-1.5c-0.6-0.9-0.8-2-0.6-3.1c-0.8-0.7-1.5-1.5-2.3-2.3l-0.2-0.2
		v1.6c0,2.3,0,4.5,0,6.8c1.4,1,2,2.7,1.4,4.3c-0.5,1.5-2.1,2.6-3.7,2.4c-1.8-0.2-3.1-1.4-3.4-3.1c-0.2-1.5,0.5-3,1.8-3.8
		c0-3.3,0-6.5,0-9.8c-1.5-0.9-2.1-2.5-1.7-4.1c-1.1-1.1-2.2-2.2-3.3-3.3L13,7.6L2,18.5c-0.9,0.9-0.9,1.9,0,2.8l4.4,4.4
		c4.1,4.1,8.1,8.1,12.2,12.2C18.9,38.3,19.3,38.5,19.9,38.6z"/>
</g>
</svg>
