<?xml version="1.0" encoding="utf-8"?>
<!-- Generator: Adobe Illustrator 25.4.1, SVG Export Plug-In . SVG Version: 6.00 Build 0)  -->
<svg version="1.1" id="Calque_1" xmlns="http://www.w3.org/2000/svg" xmlns:xlink="http://www.w3.org/1999/xlink" x="0px" y="0px"
	 viewBox="0 0 39.7 39.7" style="enable-background:new 0 0 39.7 39.7;" xml:space="preserve">
<style type="text/css">
	.st0{fill:#FFFFFF;}
	.st1{fill:#0C7189;}
</style>
<rect class="st0" width="39.7" height="39.7"/>
<g>
	<path id="git_00000091014085514556623240000004561569230114610874_" class="st0" d="M20.2,39c-0.2,0-0.4,0-0.5,0
		c-0.6-0.2-1.2-0.4-1.6-0.9c-5.5-5.5-10.9-11-16.5-16.5c-1.2-1.2-1.2-2.6,0-3.8c3.7-3.6,7.3-7.2,11-11c0.1-0.1,0.2-0.2,0.3-0.3
		C13,6.5,13,6.6,13,6.6c1.4,1.4,2.7,2.7,4,4.1c0.1,0.1,0.1,0.3,0.1,0.5c-0.4,1.4,0.2,2.8,1.4,3.5c0.2,0.1,0.3,0.2,0.3,0.5
		c0,3.3,0,6.5,0,9.8c0,0.2-0.1,0.4-0.3,0.5c-1.1,0.6-1.7,1.9-1.5,3.1c0.2,1.4,1.4,2.4,2.8,2.5c1.2,0.1,2.5-0.7,3-2
		c0.5-1.3,0-2.7-1.1-3.5c-0.2-0.2-0.3-0.3-0.3-0.6c0-3.2,0-6.4,0-9.5c0-0.1,0-0.2,0-0.4c0.1,0.1,0.2,0.2,0.3,0.3
		c1.1,1.1,2.2,2.2,3.3,3.3c0.2,0.2,0.3,0.4,0.2,0.7c-0.5,1.8,0.8,3.6,2.6,3.7c1.3,0.1,2.3-0.4,2.9-1.5c0.6-1.1,0.5-2.2-0.2-3.2
		c-0.8-1-1.8-1.4-3.1-1.1c-0.3,0.1-0.4,0-0.6-0.2c-1.3-1.3-2.5-2.5-3.8-3.8c-0.1-0.2-0.2-0.4-0.1-0.6c0.5-2.1-1.4-4-3.5-3.6
		c-0.3,0.1-0.4,0-0.6-0.2c-1.3-1.3-2.6-2.6-3.9-3.9C14.8,5,14.7,5,14.7,4.9c0-0.1,0.1-0.1,0.1-0.1c1.1-1.1,2.3-2.3,3.4-3.4
		c0.2-0.2,0.6-0.4,0.9-0.5c1.1-0.4,1.9,0,2.7,0.7C27,6.9,32.4,12.2,37.6,17.5c0.6,0.6,1.3,1.2,1.4,2.2c0,0.2,0,0.4,0,0.5
		c-0.2,0.9-0.8,1.5-1.4,2.2c-5.2,5.1-10.2,10.2-15.3,15.4C21.7,38.2,21.1,38.9,20.2,39z"/>
	<path class="st1" d="M20.3,39.7h-0.8c-0.8-0.2-1.4-0.6-1.9-1.1c-4.1-4.1-8-8-12.1-12.1l-4.4-4.4c-1.4-1.4-1.4-3.3,0-4.8l11-10.9
		c0.1-0.1,0.2-0.1,0.2-0.2l0.4-0.3l0.8,0.4L14.2,7c1.1,1.1,2.3,2.3,3.4,3.4c0.3,0.3,0.3,0.8,0.2,1.1c-0.3,1.1,0.2,2.2,1.1,2.7
		c0.4,0.2,0.6,0.6,0.6,1.1c0,3.3,0,6.5,0,9.8c0,0.5-0.2,0.9-0.6,1.1c-0.9,0.5-1.3,1.4-1.2,2.4c0.2,1.1,1,1.9,2.2,2
		c0.9,0.1,1.9-0.6,2.3-1.5c0.4-1,0-2.1-0.9-2.7c-0.4-0.3-0.6-0.7-0.6-1.2c0-2.3,0-4.5,0-6.7v-2.7c0-0.1,0-0.2,0-0.3l0.1-1.6L22,15
		c0.1,0.1,0.1,0.1,0.2,0.2l1,1c0.8,0.8,1.5,1.5,2.3,2.3c0.4,0.4,0.5,0.8,0.4,1.3c-0.2,0.7-0.1,1.4,0.4,1.9c0.4,0.6,1,0.9,1.6,0.9
		c1,0.1,1.8-0.3,2.2-1.2c0.5-0.9,0.4-1.7-0.2-2.5s-1.4-1.1-2.4-0.9c-0.6,0.1-1-0.1-1.2-0.4c-1.2-1.3-2.5-2.5-3.8-3.8
		c-0.3-0.3-0.4-0.7-0.3-1.2c0.2-0.8-0.1-1.6-0.6-2.1c-0.6-0.6-1.3-0.8-2.1-0.6c-0.5,0.1-0.9,0-1.2-0.4c-0.9-0.9-1.8-1.9-2.8-2.8
		l-1.2-1.2c-0.1-0.1-0.1-0.1-0.2-0.2L13.8,5l0.3-0.5c0.1-0.1,0.1-0.2,0.2-0.2l0.8-0.8c0.9-0.9,1.7-1.7,2.6-2.6
		c0.3-0.3,0.7-0.5,1.1-0.7c0.9-0.3,2.1-0.4,3.4,0.9C27.4,6.4,32.8,11.7,38,17c0.7,0.7,1.4,1.4,1.6,2.5V20c-0.2,1.2-0.9,2-1.6,2.6
		C32.9,27.8,27.7,32.8,22.6,38C22.1,38.8,21.4,39.5,20.3,39.7L20.3,39.7z M19.8,38.3h0.4c0.7-0.1,1.1-0.6,1.7-1.2
		c5.2-5.2,10.2-10.3,15.4-15.4c0.6-0.6,1.1-1.1,1.2-1.8v-0.4c-0.1-0.6-0.6-1.1-1.2-1.6c-5.4-5.4-10.7-10.6-16-16
		c-0.6-0.6-1.3-0.8-2-0.6c-0.2,0.1-0.5,0.2-0.6,0.4c-0.9,0.8-1.7,1.7-2.6,2.6l-0.5,0.5l0.9,0.9c0.9,0.9,1.8,1.8,2.8,2.8
		c1.2-0.3,2.4,0.1,3.3,1c0.9,0.9,1.3,2.2,1,3.4c1.2,1.2,2.5,2.4,3.7,3.7c1.5-0.3,2.8,0.2,3.7,1.4c0.9,1.2,1,2.6,0.3,3.9
		s-2,2-3.5,1.9c-1.1-0.1-2-0.6-2.7-1.5c-0.6-0.9-0.8-2-0.6-3.1c-0.8-0.7-1.5-1.5-2.3-2.3L22,16.7v1.6c0,2.3,0,4.5,0,6.7
		c1.4,1,2,2.7,1.4,4.3c-0.5,1.5-2.1,2.6-3.7,2.4c-1.8-0.2-3.1-1.4-3.4-3.1c-0.2-1.5,0.5-3,1.8-3.8c0-3.3,0-6.5,0-9.7
		c-1.5-0.9-2.1-2.5-1.7-4.1c-1.1-1.1-2.2-2.2-3.3-3.3l-0.2-0.2L2,18.3c-0.9,0.9-0.9,1.9,0,2.8l4.4,4.4c4.1,4.1,8,8,12.1,12.1
		C18.8,38,19.2,38.2,19.8,38.3z"/>
</g>
</svg>
