<?xml version="1.0" encoding="utf-8"?>
<!-- Generator: Adobe Illustrator 25.4.1, SVG Export Plug-In . SVG Version: 6.00 Build 0)  -->
<svg version="1.1" id="Calque_1" xmlns="http://www.w3.org/2000/svg" xmlns:xlink="http://www.w3.org/1999/xlink" x="0px" y="0px"
	 viewBox="0 0 39.7 39.7" style="enable-background:new 0 0 39.7 39.7;" xml:space="preserve">
<style type="text/css">
	.st0{fill:#FFFFFF;}
	.st1{fill:#0C7189;}
</style>
<rect class="st0" width="39.7" height="39.7"/>
<g>
	<g>
		<path class="st1" d="M32.1,10.9c-0.4-3.1-1.8-5.7-4.2-7.8c-2.3-2-5.1-3-8.1-3c-0.4,0-0.9,0-1.1-0.1l-0.1,0c-0.1,0-0.3,0-0.4,0.1
			c-0.1,0-0.2,0-0.3,0c-3.1,0.5-5.6,2-7.6,4.3C8,7.1,7.1,10.2,7.7,13.7c0.1,1.4,0.5,2.7,1.2,4.2c0.6,1.2,1.4,2.3,2.6,3.6
			c0.5,0.5,0.9,0.9,1.4,1.4c0.5,0.5,0.9,1,1.4,1.4l5.2,5.2c0.1,0.1,0.3,0.3,0.5,0.3c0.2,0,0.3-0.1,0.5-0.3l8.3-8.3l0.1-0.1
			c0.1-0.2,0.3-0.3,0.5-0.5C31.5,17.8,32.5,14.6,32.1,10.9z M27.9,19.5c-0.2,0.2-0.4,0.5-0.6,0.7l-7.5,7.5l-4.5-4.5
			c-0.4-0.4-0.9-0.9-1.4-1.4c-0.5-0.5-0.9-1-1.4-1.5c-1.1-1.1-1.8-2.1-2.3-3.1c-0.6-1.3-0.9-2.5-1-3.6l0-0.1c-0.5-3,0.3-5.6,2.3-8
			c1.7-2,3.8-3.2,6.5-3.7c0.2,0,0.3,0,0.4-0.1c0.4,0.1,0.9,0.1,1.3,0.1c2.6,0,5,0.9,7,2.6c2,1.8,3.3,4,3.6,6.7
			C30.8,14.3,30,17.1,27.9,19.5z"/>
		<path class="st1" d="M19.7,7.1C19.7,7.1,19.7,7.1,19.7,7.1c-0.1,0-0.2,0-0.2,0c-2.8,0-5.1,2.4-5.1,5.3c0,3,2.3,5.3,5.3,5.3
			c1.4,0,2.8-0.5,3.8-1.5c1-1,1.5-2.3,1.5-3.7c0.1-1.4-0.4-2.7-1.4-3.7C22.5,7.7,21.2,7.1,19.7,7.1z M19.7,16
			c-2.1,0-3.6-1.6-3.6-3.6c0-2,1.6-3.6,3.5-3.6l0.2,0c1,0,2,0.4,2.7,1.1c0.7,0.7,1,1.6,0.9,2.5C23.3,14.4,21.7,16,19.7,16z"/>
	</g>
	<path class="st1" d="M4.1,34.7c0.4,0,0.7,0,1.1,0c0.2,0,0.2,0.1,0.4,0.2c0.1,1.8-1.2,3-2.9,2.8c-1.3-0.1-2.2-0.9-2.5-2.1
		c-0.5-1.6,0.6-3.3,2.2-3.5c0.8-0.1,1.6,0,2.3,0.6c0.1,0.1,0.1,0.2,0,0.4c-0.4,0.4-0.4,0.4-0.8,0.1c-0.7-0.4-1.4-0.4-2.1,0.1
		c-0.7,0.5-1.1,1.2-0.8,2c0.4,1.8,2.2,2.1,3.3,1.2c0.1-0.1,0.2-0.4,0.4-0.6c0.1-0.2,0-0.2-0.2-0.2c-0.5,0-0.8,0-1.3,0
		c-0.2,0-0.4-0.1-0.4-0.4c0-0.6,0-0.6,0.6-0.6C3.6,34.7,3.8,34.7,4.1,34.7z"/>
	<path class="st1" d="M16.7,37.6c-0.9,0.5-1.8,0.4-2.3-0.4s-0.6-1.8,0.1-2.5c0.5-0.5,1.3-0.9,2.2-0.2c0.1-0.2,0.7-0.4,0.8-0.1
		c0.1,0.1,0,0.1,0,0.2c0,1.1,0,2.1,0,3.2c0,0.9-0.5,1.5-1.3,1.8c-0.8,0.2-1.6-0.1-2-0.8c-0.1-0.1-0.1-0.2,0.1-0.4c0,0,0.1,0,0.1-0.1
		c0.2-0.1,0.4-0.1,0.6,0.1c0.2,0.4,0.7,0.5,1.2,0.2C16.5,38.6,16.7,38.1,16.7,37.6z M15.8,37.2c0.6,0,0.9-0.5,0.9-1.1
		c0-0.6-0.5-1.1-0.9-1.1c-0.6,0-1.1,0.5-1.1,1.1C14.7,36.7,15.2,37.2,15.8,37.2z"/>
	<path class="st1" d="M28.5,34.2c-0.4,0.6-0.6,1.1-0.8,1.5c-0.1,0.2-0.2,0.5-0.5,0.8c-0.1,0.4-0.5,0.4-0.6,0
		c-0.4-0.7-0.8-1.4-1.2-2.1c0,0-0.1-0.1-0.1-0.2c0,0.2,0,0.4,0,0.5c0.1,0.9,0,1.9,0,2.8c0,0.2-0.1,0.2-0.4,0.2c-0.1,0-0.4,0-0.4-0.2
		c0-1.4,0-2.9,0-4.3c0-0.1,0-0.2,0.2-0.2c0.4,0,0.5,0.1,0.7,0.4c0.5,0.8,0.8,1.5,1.3,2.2c0.1,0.2,0.1,0.2,0.2,0
		c0.5-0.8,0.9-1.5,1.3-2.3c0.1-0.2,0.4-0.4,0.7-0.4c0.1,0,0.1,0.1,0.1,0.2c0,0.4,0,0.8,0,1.2c0,1.1,0,2.1,0,3.2c0,0.4,0,0.4-0.4,0.4
		s-0.4,0-0.4-0.4c0-1.1,0-2,0-3C28.5,34.4,28.5,34.4,28.5,34.2z"/>
	<path class="st1" d="M21.1,37.2c0.2,0,0.6-0.1,0.7-0.4c0.1-0.1,0.2-0.1,0.4,0c0,0,0,0,0.1,0c0.5,0.2,0.5,0.4,0,0.7
		c-0.6,0.5-1.3,0.6-2,0.2c-0.7-0.4-1.1-0.9-1.1-1.6c0-0.7,0.4-1.4,1.1-1.6c0.9-0.5,2,0.1,2.3,1.2c0,0.1-0.1,0.2-0.1,0.2
		c-0.7,0.2-1.3,0.6-2,0.8c-0.2,0.1-0.2,0.1-0.1,0.4C20.7,37,20.9,37.2,21.1,37.2z M20.1,36c0.5-0.2,0.9-0.4,1.4-0.6
		c0.2-0.1,0.2-0.1,0-0.2c-0.2-0.2-0.6-0.2-0.9,0C20.3,35.3,20.1,35.5,20.1,36z"/>
	<path class="st1" d="M9.9,36.1c0-1.1,0.8-1.9,1.9-1.9s1.9,0.8,1.9,1.9S12.8,38,11.8,38C10.7,37.9,9.9,37,9.9,36.1z M10.7,36
		c0,0.6,0.4,1.1,0.9,1.1s0.9-0.5,0.9-1.1s-0.5-1.1-0.9-1.1S10.7,35.4,10.7,36z"/>
	<path class="st1" d="M9.5,36c0,1.1-0.8,1.9-1.9,1.9S5.7,37,5.7,36c0-1.1,0.8-1.9,1.9-1.9C8.8,34.2,9.5,34.9,9.5,36z M7.7,37.2
		c0.6,0,1.1-0.5,1.1-1.1c0-0.6-0.5-1.1-1.1-1.1c-0.6-0.1-1.1,0.4-1.1,0.9C6.7,36.7,7.1,37.2,7.7,37.2z"/>
	<path class="st1" d="M34,37.4c0,0.6,0,1.1,0,1.5c0,0.2-0.1,0.2-0.4,0.2c-0.2,0-0.4,0-0.4-0.2c0-1.4,0-2.7,0-4.1
		c0-0.1-0.1-0.4,0.2-0.4s0.5,0,0.5,0.2c0.1,0,0.1,0,0.1-0.1c0.7-0.6,1.5-0.5,2.1,0.2c0.6,0.8,0.5,2-0.2,2.7
		C35.5,37.9,34.7,38.1,34,37.4z M36,36c0,0,0-0.1,0-0.2c0-0.4-0.4-0.7-0.7-0.8c-0.4-0.1-0.8,0-1.1,0.4c-0.4,0.5-0.4,1.2,0.1,1.6
		c0.1,0.1,0.4,0.2,0.6,0.2C35.5,37.3,36,36.8,36,36z"/>
	<path class="st1" d="M32.1,37.4c-0.4,0.4-0.8,0.6-1.4,0.5c-0.6-0.1-0.8-0.5-0.9-1.1c0-0.5,0.2-0.9,0.7-1.1c0.5-0.2,0.9-0.2,1.4,0
		c0.2,0.1,0.2,0,0.2-0.2c-0.1-0.2-0.2-0.5-0.6-0.5c-0.4-0.1-0.6,0-0.8,0.2c-0.1,0.1-0.1,0.2-0.2,0.2s-0.4-0.1-0.5-0.2
		c-0.1-0.1,0-0.2,0.1-0.2c0.4-0.6,1.2-0.7,1.9-0.5c0.6,0.2,0.8,0.7,0.8,1.3c0,0.6,0,1.2,0,1.8c0,0.2,0,0.4-0.2,0.4
		C32.2,37.7,32,37.7,32.1,37.4L32.1,37.4z M31.4,36.1c-0.4,0-0.6,0-0.7,0.2c-0.1,0.1-0.2,0.4-0.2,0.5c0,0.2,0.2,0.4,0.4,0.4
		c0.5,0.1,0.9-0.1,1.2-0.6c0.1-0.2,0-0.4-0.2-0.5C31.7,36.1,31.5,36.1,31.4,36.1z"/>
	<path class="st1" d="M38.4,34.4c0.4,0,0.8,0.1,1.1,0.6c0.1,0.1,0.1,0.2-0.1,0.4c-0.2,0.1-0.4,0.1-0.6-0.1c-0.1-0.2-0.6-0.2-0.9-0.1
		c-0.2,0.1-0.2,0.5,0,0.6c0.1,0.1,0.2,0.1,0.5,0.1c0.4,0.1,0.6,0.1,0.9,0.2c0.6,0.4,0.6,1.2,0,1.6c-0.7,0.5-1.8,0.2-2.2-0.5
		c-0.1-0.1-0.1-0.2,0-0.4c0.2-0.1,0.5-0.2,0.6,0c0.2,0.4,0.6,0.5,0.9,0.5c0.2,0,0.5-0.2,0.5-0.4c0-0.2-0.2-0.4-0.4-0.5
		c-0.2-0.1-0.5-0.1-0.7-0.1c-0.2,0-0.5-0.1-0.6-0.2c-0.5-0.4-0.5-0.9,0-1.3C37.6,34.5,38,34.4,38.4,34.4z"/>
	<path class="st1" d="M18.9,35.1c0,0.8,0,1.5,0,2.3c0,0.4,0,0.4-0.4,0.4c-0.6,0-0.6,0-0.6-0.5c0-1.5,0-3,0-4.6c0-0.4,0-0.4,0.4-0.4
		c0.6,0,0.5,0,0.5,0.5C18.9,33.7,18.9,34.4,18.9,35.1z"/>
</g>
</svg>
