<?xml version="1.0" encoding="utf-8"?>
<!-- Generator: Adobe Illustrator 25.4.1, SVG Export Plug-In . SVG Version: 6.00 Build 0)  -->
<svg version="1.1" id="Calque_1" xmlns="http://www.w3.org/2000/svg" xmlns:xlink="http://www.w3.org/1999/xlink" x="0px" y="0px"
	 viewBox="0 0 39.7 39.7" style="enable-background:new 0 0 39.7 39.7;" xml:space="preserve">
<style type="text/css">
	.st0{fill:#FFFFFF;}
	.st1{fill:#0C7189;}
</style>
<rect class="st0" width="39.7" height="39.7"/>
<g id="html5">
	<g>
		<path class="st0" d="M3,0.7c10.9,0,21.9,0,32.8,0c0.5,0,1-0.1,0.8,0.7c-0.4,3.6-0.7,7.1-1,10.7c-0.6,7.2-1.3,14.6-1.9,21.8
			c-0.1,0.9-0.4,1.4-1.4,1.7c-3.9,1-7.8,2.2-11.7,3.3c-0.5,0.1-1,0.2-1.5,0.1c-4.2-1.2-8.4-2.3-12.6-3.5c-0.5-0.1-0.7-0.4-0.8-1
			C5.4,30.3,5,26,4.7,21.7c-0.4-4.7-0.9-9.4-1.3-14.1C3.3,5.3,2.9,3,3,0.7z M19.8,7.8L19.8,7.8c-3.1,0-6.3,0-9.3,0
			c-0.7,0-1.2,0-1.1,1c0.4,3.5,0.7,7,0.9,10.5c0.1,0.8,0.4,1.2,1.2,1.1c0.3,0,0.7,0,1,0c3.7,0,7.3,0,11,0c1,0,1.6,0.2,1.4,1.4
			c-0.2,1.1-0.2,2.2-0.3,3.3c0,0.7-0.4,1-1,1.3c-2.6,1-5.2,1.1-7.7,0c-0.7-0.3-1-0.6-1.1-1.4c-0.2-2.2-0.2-2.2-2.5-2.2
			c-0.3,0-0.5,0-0.8,0c-0.6,0-0.8,0.3-0.7,0.9c0.2,1.5,0.3,3,0.4,4.6c0.1,0.8,0.5,1.1,1.2,1.3c2.2,0.6,4.5,1.2,6.6,1.9
			c0.6,0.2,1.3,0.1,1.9,0c2.2-0.6,4.3-1.2,6.4-1.8c0.8-0.2,1.1-0.6,1.2-1.4c0.3-3.5,0.6-6.8,0.9-10.3c0.1-1.5,0.1-1.5-1.4-1.5
			c-3.5,0-6.9,0-10.4,0c-3.4,0-3.4,0-3.7-3.4c-0.1-1,0.2-1.2,1.1-1.2c4.1,0,8.1,0,12.2,0c2.9,0,2.9,0,3.2-2.8c0.1-1-0.2-1.4-1.2-1.4
			C26,7.8,22.9,7.8,19.8,7.8z"/>
		<path class="st1" d="M19.8,39.7c-0.2,0-0.4,0-0.7-0.1c-3-0.8-6-1.7-8.8-2.5l-3.7-1c-0.8-0.2-1.2-0.7-1.3-1.6
			c-0.3-3.4-0.7-6.7-1-10.1l-0.6-6.9c-0.3-3.3-0.6-6.5-0.9-9.8c0-0.7-0.1-1.3-0.2-2c-0.2-1.6-0.4-3.3-0.3-5V0h5.4
			c9.4,0,18.8,0,28.2,0c0.5,0,1,0,1.3,0.4s0.2,1,0.1,1.2L37,4.8c-0.2,2.5-0.5,5-0.7,7.4C35.7,19.4,35,26.8,34.4,34
			c-0.1,0.9-0.3,1.9-1.9,2.3c-3.2,0.8-6.3,1.7-9.4,2.6l-2.2,0.6C20.6,39.6,20.2,39.7,19.8,39.7z M3.7,1.4c0,1.4,0.1,2.8,0.3,4.2
			c0.1,0.7,0.1,1.4,0.2,2c0.3,3.3,0.6,6.5,0.9,9.8l0.6,6.9c0.3,3.4,0.6,6.8,0.9,10.2c0,0.3,0.1,0.3,0.3,0.4l3.7,1
			c3,0.8,6,1.7,8.8,2.5c0.3,0.1,0.6,0,1.1-0.1l2.3-0.6c3.2-0.9,6.3-1.8,9.4-2.6c0.6-0.2,0.8-0.4,0.8-1.1c0.6-7.2,1.2-14.6,1.9-21.8
			c0.2-2.5,0.5-5,0.7-7.4l0.3-3.3h-0.1c-9.4,0-18.8,0-28.2,0L3.7,1.4L3.7,1.4z M19.8,32.2c-0.4,0-0.7,0-1-0.1l-0.6-0.2
			c-2-0.6-4.1-1.2-6.1-1.7c-1-0.3-1.6-0.9-1.7-1.9c-0.1-1.5-0.2-3-0.4-4.5c-0.1-0.5,0-0.9,0.3-1.2c0.2-0.3,0.6-0.4,1.1-0.4
			c0.3,0,0.7,0,1,0c2.6,0,2.9,0.3,3.2,2.9c0,0.4,0.2,0.6,0.7,0.8c2.4,0.9,4.8,0.9,7.2,0c0.5-0.2,0.6-0.4,0.6-0.7v-0.4
			c0-1,0.1-2,0.3-3c0.1-0.4,0-0.5,0-0.5s-0.1-0.1-0.7-0.1c-2.7,0-5.3,0-7.9,0h-3.5c-0.2,0-0.4,0-0.6,0c-0.7,0-1.8-0.1-1.9-1.8
			C9.6,15.7,9.3,12.2,9,9C8.9,8.4,9,8,9.3,7.7c0.4-0.4,1-0.4,1.4-0.4c2.3,0,4.6,0,6.8,0H20h2.6c2.2,0,4.4,0,6.6,0
			c0.4,0,1.1,0,1.5,0.5c0.4,0.5,0.4,1.1,0.4,1.6c-0.3,3.2-0.6,3.5-3.9,3.5h-2.8c-3.2,0-6.3,0-9.4,0c-0.3,0-0.4,0-0.4,0s0,0.1,0,0.4
			c0.3,2.8,0.3,2.7,3.1,2.8h10.4c0.9,0,1.5,0,1.8,0.4c0.4,0.4,0.3,0.9,0.3,1.8c-0.1,1.2-0.2,2.4-0.3,3.5c-0.2,2.3-0.4,4.6-0.6,6.7
			c-0.1,1.1-0.6,1.7-1.7,2c-2.1,0.5-4.2,1.1-6.3,1.7h-0.1C20.6,32.1,20.2,32.2,19.8,32.2z M11.4,23.5L11.4,23.5
			c0.2,1.6,0.3,3.2,0.4,4.7c0,0.4,0.1,0.6,0.7,0.7c2,0.5,4.1,1.1,6.1,1.7l0.6,0.2c0.5,0.1,1,0.1,1.5,0h0.1c2.1-0.6,4.2-1.2,6.3-1.8
			c0.5-0.1,0.6-0.3,0.7-0.8c0.2-2.3,0.4-4.6,0.6-6.8c0.1-1.2,0.2-2.4,0.3-3.5c0-0.3,0-0.6,0-0.7c-0.2,0-0.5,0-0.8,0H17.4
			c-3.7,0-4-0.3-4.4-3.9c-0.1-0.6-0.1-1.2,0.3-1.6c0.4-0.4,0.9-0.5,1.5-0.5c3.2,0,6.3,0,9.4,0H27c2.3,0,2.3,0,2.5-2.2
			c0.1-0.5,0-0.6,0-0.6s0-0.1-0.5-0.1c-2.2,0-4.5,0-6.6,0h-1.9l0,0h-3.2c-2.3,0-4.6,0-6.8,0c-0.1,0-0.3,0-0.4,0c0,0,0,0.1,0,0.2
			c0.3,3.2,0.6,6.6,0.9,10.5c0,0.5,0.1,0.5,0.5,0.5c0.2,0,0.5,0,0.7,0h3.4c2.7,0,5.3,0,7.9,0c0.7,0,1.3,0.1,1.8,0.6
			c0.3,0.4,0.4,0.9,0.3,1.6c-0.2,0.9-0.2,1.9-0.2,2.8v0.4c-0.1,1.2-0.8,1.7-1.5,1.9c-2.9,1.1-5.6,1.1-8.2,0c-1-0.4-1.4-1-1.5-1.9
			c-0.2-1.7-0.2-1.7-2-1.7C12,23.5,11.8,23.5,11.4,23.5C11.5,23.5,11.4,23.5,11.4,23.5z"/>
	</g>
</g>
</svg>
