<?xml version="1.0" encoding="utf-8"?>
<!-- Generator: Adobe Illustrator 25.4.1, SVG Export Plug-In . SVG Version: 6.00 Build 0)  -->
<svg version="1.1" id="Calque_1" xmlns="http://www.w3.org/2000/svg" xmlns:xlink="http://www.w3.org/1999/xlink" x="0px" y="0px"
	 viewBox="0 0 39.7 39.7" style="enable-background:new 0 0 39.7 39.7;" xml:space="preserve">
<style type="text/css">
	.st0{fill:#FFFFFF;}
	.st1{fill:#0C7189;}
</style>
<rect class="st0" width="39.7" height="39.7"/>
<g id="Id">
	<rect x="4.9" y="4.4" class="st0" width="30" height="30.6"/>
	<g>
		<path class="st0" d="M39,6.8c-0.1-1.1-0.4-2-1-2.9c-1.1-1.7-2.6-2.8-4.6-3.2c-0.3-0.1-0.6-0.1-0.9-0.1c-0.1,0-0.3,0-0.4,0
			c-8.1,0-16.4,0-24.5,0c-0.1,0-0.3,0-0.4,0C4.4,0.8,1.8,2.8,1,5.7c-0.2,0.7-0.3,1.3-0.3,2c0,0.1,0,0.1,0,0.2c0,8,0,16.1,0,24.1
			c0,0.1,0,0.1,0,0.2c0,0.8,0.1,1.6,0.4,2.3c0.9,2.4,2.5,3.9,5,4.5C6.3,39,6.5,39,6.7,39c0.2,0,0.4,0,0.6,0.1c8.4,0,16.9,0,25.2,0
			c0.2,0,0.4,0,0.6-0.1c2.3-0.3,4-1.5,5.2-3.6c0.4-0.7,0.6-1.5,0.8-2.3c0-0.1,0-0.2,0-0.3c0-0.1,0-0.1,0-0.2c0-8.5,0-17.1,0-25.6
			C39,6.9,39,6.9,39,6.8z M14.6,27.4c0,0.1,0,0.2,0,0.2c0,0.1-0.1,0.2-0.2,0.2c-0.1,0-0.2,0-0.3,0c-0.9,0-1.8,0-2.7,0h-0.1
			c-0.2,0-0.2-0.1-0.2-0.2s0-0.1,0-0.2c0-2.8,0-5.6,0-8.3s0-5.5,0-8.2c0-0.4,0-0.4,0.4-0.4c1,0,1.9,0,2.9,0c0.3,0,0.3,0.1,0.3,0.3
			c0,1,0,1.9,0,2.9C14.6,18.3,14.6,22.8,14.6,27.4z M28.9,27.1c-1,0.4-2,0.7-3,0.8C25,28,24.2,28.1,23.3,28
			c-1.4-0.1-2.7-0.5-3.9-1.3c-1.1-0.9-1.8-2-2.1-3.4c-0.2-0.9-0.2-1.7-0.2-2.6c0.1-1.7,0.8-3.2,2-4.3c0.9-0.9,2-1.5,3.3-1.8
			c0.8-0.2,1.5-0.2,2.3-0.2c0.2,0,0.4,0,0.6,0c0.1,0,0.1,0,0.1-0.1v-0.1c0-1.6,0-3.2,0-4.8V9.4c0-0.2,0-0.3,0.3-0.3c1,0,2,0,3.1,0
			c0.2,0,0.3,0,0.3,0.3c0,2.8,0,5.5,0,8.2c0,2.2,0,4.4,0,6.5c0,0.6,0,1.1,0,1.7c0,0.3,0,0.6,0.1,0.9C29.1,26.9,29.1,27,28.9,27.1z"
			/>
		<path class="st1" d="M7.2,39.7l-0.6-0.1c-0.3,0-0.5-0.1-0.8-0.1c-2.6-0.7-4.4-2.3-5.4-4.9c-0.4-0.9-0.4-1.8-0.5-2.5v-0.2v-0.1V7.7
			V7.5c0-0.6,0.1-1.3,0.3-2.1C1.2,2.3,4,0.1,7.1,0h0.4h24.9c0.4,0,0.7,0,1,0.1c2.2,0.4,3.9,1.6,5,3.5c0.6,1,1,2.1,1.1,3.2V7
			l0.2,25.7v0.2c0,0.2,0,0.3,0,0.4c-0.1,0.9-0.4,1.8-0.9,2.5c-1.3,2.3-3.2,3.6-5.7,3.9l-0.6,0H7.2z M1.3,32.1c0,0.6,0.1,1.4,0.4,2
			c0.8,2.2,2.3,3.5,4.5,4.1c0.2,0.1,0.4,0.1,0.6,0.1l0.6,0.1l25.6-0.1c2.1-0.3,3.6-1.3,4.7-3.2c0.3-0.6,0.6-1.3,0.7-2.1v-0.1
			c0-0.1,0-0.3,0-0.3V7.1c0,0,0-0.1,0-0.2c-0.1-0.9-0.4-1.7-0.9-2.5c-1-1.6-2.3-2.5-4.2-2.9c-0.3-0.1-0.5-0.1-0.8-0.1H32H7.1
			c-2.6,0.1-4.9,2-5.6,4.6C1.4,6.4,1.4,7,1.3,7.5c0,0.1,0,0.2,0,0.2v24.1C1.4,31.9,1.4,32,1.3,32.1z M39.7,32.9L39.7,32.9L39.7,32.9
			z M23.9,28.7c-0.2,0-0.5,0-0.7,0c-1.7-0.1-3.1-0.6-4.2-1.5c-1.2-0.9-2-2.2-2.4-3.8c-0.2-0.9-0.3-1.9-0.2-2.8
			c0.2-1.9,0.9-3.5,2.2-4.8c1-1,2.2-1.6,3.6-2c0.8-0.2,1.6-0.3,2.4-0.2c0,0,0,0,0.1,0V9.3c0-0.6,0.3-0.9,0.9-0.9h3.2
			c0.6,0,0.9,0.3,0.9,1v14.8c0,0.5,0,1.1,0,1.6c0,0.2,0,0.3,0,0.5v0.4c0,0.5-0.2,0.9-0.7,1.1l0,0c-1,0.4-2,0.7-3.1,0.9
			C25.3,28.7,24.6,28.7,23.9,28.7z M24.5,15.1c-0.7,0-1.3,0.1-1.9,0.2c-1.2,0.3-2.2,0.8-3,1.6c-1.1,1.1-1.7,2.4-1.8,3.9
			c-0.1,0.8,0,1.6,0.2,2.4c0.3,1.3,0.9,2.3,1.9,3c0.9,0.7,2.1,1.1,3.5,1.2c0.8,0,1.6,0,2.5-0.1c1-0.1,1.8-0.4,2.7-0.7v-0.2
			c0-0.2,0-0.4,0-0.6c0-0.6,0-1.1,0-1.7V9.6h-2.3v4.5c0,0.4-0.1,0.6-0.2,0.7L25.9,15h-0.4c-0.2,0-0.4,0-0.6,0
			C24.6,15.1,24.6,15.1,24.5,15.1z M28.9,27.1l-0.2-0.6l0,0L28.9,27.1l-0.3-0.6L28.9,27.1z M28.6,26.4L28.6,26.4L28.6,26.4z
			 M14.3,28.5L14.3,28.5h-3c-0.5,0-0.8-0.3-0.9-0.8c0-0.1,0-0.2,0-0.3V10.9c0-0.7,0.3-1.1,1-1.1h2.9c0.6,0,1,0.4,1,1v16.6h-0.7
			l0.7,0.1c0,0.1,0,0.2,0,0.3C15.3,28.3,14.9,28.6,14.3,28.5C14.4,28.5,14.3,28.5,14.3,28.5z M11.7,11.1v16H14v-16L11.7,11.1z"/>
	</g>
	<path class="st1" d="M24.2,25.5c-0.1,0-0.1,0-0.2,0c-0.6,0-1.1-0.1-1.6-0.3c-1-0.4-1.6-1.1-2-2.2c-0.3-0.7-0.4-1.4-0.3-2.2
		c0-0.4,0.1-0.8,0.2-1.3c0.3-0.9,0.9-1.6,1.7-2.2c0.9-0.5,1.8-0.8,2.9-0.7c0.2,0,0.4,0,0.6,0.1c0.4,0.1,0.6,0.4,0.6,0.9v6.8
		c0,0.5-0.2,0.8-0.7,0.9c-0.2,0-0.5,0-0.7,0.1C24.5,25.5,24.3,25.5,24.2,25.5z M24.4,18.1c-0.6,0-1.2,0.2-1.7,0.5
		c-0.6,0.4-1,0.8-1.2,1.4c-0.1,0.3-0.1,0.5-0.1,0.9c0,0.6,0,1.1,0.2,1.7c0.2,0.7,0.7,1.1,1.3,1.4c0.3,0.1,0.7,0.2,1.1,0.2
		c0.2,0,0.4,0,0.6,0c0.1,0,0.1,0,0.2,0v-6.1l0,0C24.7,18.1,24.5,18.1,24.4,18.1z M24.8,17.6C24.8,17.6,24.8,17.7,24.8,17.6
		L24.8,17.6z"/>
</g>
</svg>
