<?xml version="1.0" encoding="utf-8"?>
<!-- Generator: Adobe Illustrator 25.4.1, SVG Export Plug-In . SVG Version: 6.00 Build 0)  -->
<svg version="1.1" id="Calque_1" xmlns="http://www.w3.org/2000/svg" xmlns:xlink="http://www.w3.org/1999/xlink" x="0px" y="0px"
	 viewBox="0 0 39.7 39.7" style="enable-background:new 0 0 39.7 39.7;" xml:space="preserve">
<style type="text/css">
	.st0{fill:#FFFFFF;}
	.st1{fill:#0C7189;}
</style>
<rect class="st0" width="39.7" height="39.7"/>
<g>
	<path id="JS_00000046313321254627282630000007892257156931119541_" class="st0" d="M39,0.7c-12.6,0-25.2,0-37.8,0
		c-0.4,0-0.5,0.1-0.5,0.5c0,12.6,0,25.2,0,37.8c12.7,0,25.3,0,38,0c0.3,0,0.4-0.1,0.4-0.4C39,26,39,13.3,39,0.7z M21.5,25.4
		c0,1.7,0.1,3.8,0,6c-0.1,2.7-2,4.5-4.6,4.7c-1.5,0.1-2.9-0.1-4.1-0.9c-0.9-0.5-1.5-1.3-2-2.2c-0.1-0.2-0.1-0.3,0.1-0.4
		c0.8-0.5,1.7-1,2.5-1.5c0.2-0.1,0.3-0.1,0.4,0.1c0.2,0.3,0.3,0.5,0.5,0.8C15,32.7,16,33,17,32.6c0.8-0.3,1-1,1-1.7
		c0-0.8,0-1.7,0-2.5c0-3.3,0-6.4,0-9.7c0-0.4,0.1-0.4,0.4-0.4c0.9,0,1.9,0,2.8,0c0.3,0,0.4,0.1,0.4,0.4
		C21.5,20.7,21.5,22.9,21.5,25.4z M35.7,32.7c-0.6,1.8-2.1,2.7-3.8,3.1c-0.6,0.1-1.3,0.2-2,0.2c-2,0-3.9-0.6-5.4-2.1
		c-0.4-0.4-0.7-0.8-0.9-1.2c-0.2-0.2-0.2-0.4,0.1-0.5c0.8-0.4,1.5-0.9,2.3-1.3c0.3-0.2,0.4-0.2,0.6,0.1c0.6,1,1.5,1.6,2.6,1.8
		c0.7,0.1,1.4,0.1,2.1-0.2c1.3-0.6,1.5-2.1,0.3-2.9c-0.8-0.6-1.8-0.9-2.7-1.3c-1-0.5-2.1-0.9-2.9-1.7c-1.6-1.5-2-3.3-1.4-5.3
		c0.6-1.9,2-2.9,4-3.2c1.6-0.3,3.2-0.1,4.6,0.9c0.6,0.5,1.1,1.1,1.6,1.7c0.1,0.2,0.1,0.3-0.1,0.4c-0.8,0.5-1.6,1-2.3,1.5
		c-0.2,0.2-0.3,0.1-0.5-0.1c-0.7-1.1-1.5-1.5-2.6-1.2c-0.6,0.1-1,0.4-1.2,1c-0.2,0.6-0.1,1.1,0.4,1.6s1.2,0.8,1.9,1.1
		c1.1,0.5,2.3,1,3.3,1.7C36,28.1,36.4,30.7,35.7,32.7z"/>
	<path class="st1" d="M38.6,39.7c-11.1,0-22.1,0-33.2,0H0v-5.4C0,23.2,0,12.2,0,1.2C0,0.4,0.4,0,1.2,0c11,0,22.1,0,33.1,0h5.4v4.9
		c0,11.2,0,22.5,0,33.7C39.7,39.3,39.3,39.7,38.6,39.7z M10.2,38.3c9.3,0,18.8,0,28.1,0c0-11.2,0-22.3,0-33.4V1.4h-4.1
		c-11,0-21.9,0-32.9,0c0,11,0,22,0,32.9v4.1h4.1C7,38.3,8.6,38.3,10.2,38.3z M30,36.7c-2.4,0-4.4-0.8-5.8-2.3c-0.4-0.5-0.8-1-1-1.4
		c-0.1-0.1-0.3-0.5-0.2-0.9c0.1-0.4,0.5-0.6,0.6-0.6c0.8-0.4,1.5-0.9,2.3-1.3c0.8-0.5,1.3,0,1.5,0.3c0.6,0.9,1.3,1.4,2.1,1.5
		c0.7,0.1,1.3,0.1,1.7-0.2c0.4-0.2,0.6-0.5,0.7-0.8c0-0.3-0.1-0.7-0.5-0.9c-0.6-0.4-1.2-0.7-1.9-1L28.8,29c-1.2-0.5-2.2-1-3.1-1.8
		c-1.7-1.6-2.2-3.7-1.6-6c0.6-2.1,2.2-3.3,4.5-3.7c2-0.3,3.7,0,5.1,1c0.6,0.4,1.2,1.1,1.7,1.9c0.2,0.2,0.2,0.5,0.2,0.7
		c-0.1,0.4-0.4,0.5-0.5,0.6l-0.2,0.1c-0.7,0.4-1.4,0.9-2.1,1.3c-0.1,0.1-0.4,0.3-0.8,0.2c-0.4-0.1-0.6-0.4-0.6-0.5
		c-0.5-0.8-1.1-1.1-1.9-0.9c-0.5,0.1-0.6,0.3-0.7,0.5c-0.1,0.5,0,0.8,0.2,0.9c0.4,0.4,0.9,0.6,1.4,0.8l0.5,0.2
		c1.1,0.5,2.2,1,3.2,1.6c2.9,1.8,3,4.9,2.3,6.9l0,0c-0.6,1.8-2.1,3-4.3,3.5C31.4,36.6,30.7,36.7,30,36.7z M24.4,32.5
		c0.2,0.3,0.4,0.6,0.7,0.9c1.2,1.3,2.8,1.9,4.9,1.9c0.7,0,1.3,0,1.9-0.2c1.8-0.4,2.9-1.3,3.4-2.7c0.6-1.6,0.4-4-1.8-5.4
		c-0.9-0.6-1.9-1-3-1.5L30,25.4c-0.6-0.3-1.3-0.6-1.8-1.1c-0.6-0.6-0.8-1.4-0.5-2.3c0.2-0.8,0.8-1.3,1.7-1.5
		c1.3-0.3,2.3,0.1,3.2,1.2c0.6-0.4,1.1-0.7,1.7-1.1c-0.4-0.5-0.7-0.9-1.1-1.2c-1.1-0.8-2.4-1-4.1-0.8c-1.8,0.3-3,1.2-3.4,2.8
		c-0.5,1.8-0.1,3.4,1.2,4.6c0.7,0.7,1.7,1.1,2.7,1.6l0.6,0.2c0.7,0.3,1.5,0.6,2.2,1.1c0.7,0.5,1.1,1.3,1,2.2
		c-0.1,0.8-0.6,1.6-1.5,1.9c-0.7,0.3-1.5,0.4-2.5,0.3c-1.2-0.2-2.2-0.8-2.9-1.9C25.6,31.8,25,32.2,24.4,32.5z M16.2,36.7
		c-1.1,0-2.5-0.2-3.7-1c-0.9-0.6-1.6-1.4-2.2-2.4c-0.3-0.5-0.1-1,0.4-1.3c0.8-0.5,1.7-1,2.5-1.5c0.2-0.2,0.5-0.2,0.7-0.1
		c0.4,0.1,0.5,0.4,0.6,0.5c0.1,0.2,0.3,0.5,0.5,0.7c0.4,0.6,1.1,0.8,1.8,0.5c0.3-0.1,0.5-0.4,0.6-1.1c0-0.6,0-1.2,0-1.8v-0.7v-2
		c0-2.6,0-5.2,0-7.7c0-0.2,0-0.6,0.3-0.8c0.3-0.3,0.7-0.3,0.9-0.3c0.9,0,1.9,0,2.8,0c0.2,0,0.5,0,0.8,0.3c0.3,0.3,0.3,0.7,0.3,0.8
		c0,1.6,0,3.2,0,5v1.8c0,0.7,0,1.4,0,2.1c0,1.2,0,2.5,0,3.9c-0.1,3-2.2,5.2-5.2,5.4C16.8,36.6,16.5,36.7,16.2,36.7z M11.7,32.9
		c0.4,0.7,0.9,1.2,1.6,1.6c1,0.6,2.1,0.9,3.7,0.8c2.3-0.2,3.9-1.7,4-4.1c0.1-1.3,0-2.6,0-3.8c0-0.8,0-1.5,0-2.1v-1.8
		c0-1.7,0-3.2,0-4.7c-0.8,0-1.5,0-2.3,0c0,2.6,0,5.1,0,7.5v2v0.7c0,0.6,0,1.2,0,1.9c0,0.4-0.1,1.8-1.5,2.3c-1.2,0.5-2.6,0.1-3.4-0.9
		c-0.1-0.2-0.2-0.3-0.3-0.5C12.9,32.2,12.3,32.5,11.7,32.9z"/>
</g>
</svg>
