<?xml version="1.0" encoding="utf-8"?>
<!-- Generator: Adobe Illustrator 25.4.1, SVG Export Plug-In . SVG Version: 6.00 Build 0)  -->
<svg version="1.1" id="Calque_1" xmlns="http://www.w3.org/2000/svg" xmlns:xlink="http://www.w3.org/1999/xlink" x="0px" y="0px"
	 viewBox="0 0 40 40" style="enable-background:new 0 0 40 40;" xml:space="preserve">
<style type="text/css">
	.st0{fill:#FFFFFF;}
	.st1{fill:#0C7189;}
</style>
<g>
	<path id="JS_00000046313321254627282630000007892257156931119541_" class="st0" d="M39.3,0.7c-12.7,0-25.4,0-38.1,0
		c-0.4,0-0.5,0.1-0.5,0.5c0,12.7,0,25.4,0,38.1c12.8,0,25.5,0,38.3,0c0.3,0,0.4-0.1,0.4-0.4C39.3,26.2,39.3,13.4,39.3,0.7z
		 M21.7,25.6c0,1.7,0.1,3.8,0,6c-0.1,2.7-2,4.5-4.6,4.7c-1.5,0.1-2.9-0.1-4.1-0.9c-0.9-0.5-1.5-1.3-2-2.2c-0.1-0.2-0.1-0.3,0.1-0.4
		c0.8-0.5,1.7-1,2.5-1.5c0.2-0.1,0.3-0.1,0.4,0.1c0.2,0.3,0.3,0.5,0.5,0.8c0.6,0.8,1.6,1.1,2.6,0.7c0.8-0.3,1-1,1-1.7
		c0-0.8,0-1.7,0-2.5c0-3.3,0-6.5,0-9.8c0-0.4,0.1-0.4,0.4-0.4c0.9,0,1.9,0,2.8,0c0.3,0,0.4,0.1,0.4,0.4
		C21.7,20.9,21.7,23.1,21.7,25.6z M36,33c-0.6,1.8-2.1,2.7-3.8,3.1c-0.6,0.1-1.3,0.2-2,0.2c-2,0-3.9-0.6-5.4-2.1
		c-0.4-0.4-0.7-0.8-0.9-1.2c-0.2-0.2-0.2-0.4,0.1-0.5c0.8-0.4,1.5-0.9,2.3-1.3c0.3-0.2,0.4-0.2,0.6,0.1c0.6,1,1.5,1.6,2.6,1.8
		c0.7,0.1,1.4,0.1,2.1-0.2c1.3-0.6,1.5-2.1,0.3-2.9c-0.8-0.6-1.8-0.9-2.7-1.3c-1-0.5-2.1-0.9-2.9-1.7c-1.6-1.5-2-3.3-1.4-5.3
		c0.6-1.9,2-2.9,4-3.2c1.6-0.3,3.2-0.1,4.6,0.9c0.6,0.5,1.1,1.1,1.6,1.7c0.1,0.2,0.1,0.3-0.1,0.4c-0.8,0.5-1.6,1-2.3,1.5
		c-0.2,0.2-0.3,0.1-0.5-0.1c-0.7-1.1-1.5-1.5-2.6-1.2c-0.6,0.1-1,0.4-1.2,1c-0.2,0.6-0.1,1.1,0.4,1.6c0.5,0.5,1.2,0.8,1.9,1.1
		c1.1,0.5,2.3,1,3.3,1.7C36.3,28.3,36.7,30.9,36,33z"/>
	<path class="st1" d="M38.9,40c-11.2,0-22.3,0-33.5,0H0v-5.4C0,23.4,0,12.3,0,1.2C0,0.4,0.4,0,1.2,0c11.1,0,22.3,0,33.4,0H40v4.9
		c0,11.3,0,22.7,0,34C40,39.6,39.6,40,38.9,40z M10.3,38.6c9.4,0,18.9,0,28.3,0c0-11.3,0-22.5,0-33.7V1.4h-4.1
		c-11.1,0-22.1,0-33.2,0c0,11.1,0,22.2,0,33.2v4.1h4.1C7.1,38.6,8.7,38.6,10.3,38.6z M30.2,37c-2.4,0-4.4-0.8-5.8-2.3
		c-0.4-0.5-0.8-1-1-1.4c-0.1-0.1-0.3-0.5-0.2-0.9c0.1-0.4,0.5-0.6,0.6-0.6c0.8-0.4,1.5-0.9,2.3-1.3c0.8-0.5,1.3,0,1.5,0.3
		c0.6,0.9,1.3,1.4,2.1,1.5c0.7,0.1,1.3,0.1,1.7-0.2c0.4-0.2,0.6-0.5,0.7-0.8c0-0.3-0.1-0.7-0.5-0.9c-0.6-0.4-1.2-0.7-1.9-1L29,29.2
		c-1.2-0.5-2.2-1-3.1-1.8c-1.7-1.6-2.2-3.7-1.6-6c0.6-2.1,2.2-3.3,4.5-3.7c2-0.3,3.7,0,5.1,1c0.6,0.4,1.2,1.1,1.7,1.9
		c0.2,0.2,0.2,0.5,0.2,0.7c-0.1,0.4-0.4,0.5-0.5,0.6L35.1,22c-0.7,0.4-1.4,0.9-2.1,1.3c-0.1,0.1-0.4,0.3-0.8,0.2
		c-0.4-0.1-0.6-0.4-0.6-0.5c-0.5-0.8-1.1-1.1-1.9-0.9c-0.5,0.1-0.6,0.3-0.7,0.5c-0.1,0.5,0,0.8,0.2,0.9c0.4,0.4,0.9,0.6,1.4,0.8
		l0.5,0.2c1.1,0.5,2.2,1,3.2,1.6c2.9,1.8,3,4.9,2.3,7v0c-0.6,1.8-2.1,3-4.3,3.5C31.6,36.9,30.9,37,30.2,37z M24.6,32.8
		c0.2,0.3,0.4,0.6,0.7,0.9c1.2,1.3,2.8,1.9,4.9,1.9c0.7,0,1.3,0,1.9-0.2c1.8-0.4,2.9-1.3,3.4-2.7c0.6-1.6,0.4-4-1.8-5.4
		c-0.9-0.6-1.9-1-3-1.5l-0.5-0.2c-0.6-0.3-1.3-0.6-1.8-1.1c-0.6-0.6-0.8-1.4-0.5-2.3c0.2-0.8,0.8-1.3,1.7-1.5
		c1.3-0.3,2.3,0.1,3.2,1.2c0.6-0.4,1.1-0.7,1.7-1.1c-0.4-0.5-0.7-0.9-1.1-1.2c-1.1-0.8-2.4-1-4.1-0.8c-1.8,0.3-3,1.2-3.4,2.8
		c-0.5,1.8-0.1,3.4,1.2,4.6c0.7,0.7,1.7,1.1,2.7,1.6l0.6,0.2c0.7,0.3,1.5,0.6,2.2,1.1c0.7,0.5,1.1,1.3,1,2.2
		c-0.1,0.8-0.6,1.6-1.5,1.9c-0.7,0.3-1.5,0.4-2.5,0.3c-1.2-0.2-2.2-0.8-2.9-1.9C25.8,32.1,25.2,32.5,24.6,32.8z M16.3,37
		c-1.1,0-2.5-0.2-3.7-1c-0.9-0.6-1.6-1.4-2.2-2.4c-0.3-0.5-0.1-1,0.4-1.3c0.8-0.5,1.7-1,2.5-1.5c0.2-0.2,0.5-0.2,0.7-0.1
		c0.4,0.1,0.5,0.4,0.6,0.5c0.1,0.2,0.3,0.5,0.5,0.7c0.4,0.6,1.1,0.8,1.8,0.5c0.3-0.1,0.5-0.4,0.6-1.1c0-0.6,0-1.2,0-1.8l0-0.7l0-2
		c0-2.6,0-5.2,0-7.8c0-0.2,0-0.6,0.3-0.8c0.3-0.3,0.7-0.3,0.9-0.3c0.9,0,1.9,0,2.8,0c0.2,0,0.5,0,0.8,0.3c0.3,0.3,0.3,0.7,0.3,0.8
		c0,1.6,0,3.2,0,5l0,1.8c0,0.7,0,1.4,0,2.1c0,1.2,0,2.5,0,3.9c-0.1,3-2.2,5.2-5.2,5.4C16.9,36.9,16.6,37,16.3,37z M11.8,33.2
		c0.4,0.7,0.9,1.2,1.6,1.6c1,0.6,2.1,0.9,3.7,0.8c2.3-0.2,3.9-1.7,4-4.1c0.1-1.3,0-2.6,0-3.8c0-0.8,0-1.5,0-2.1l0-1.8
		c0-1.7,0-3.2,0-4.7c-0.8,0-1.5,0-2.3,0c0,2.6,0,5.1,0,7.6l0,2l0,0.7c0,0.6,0,1.2,0,1.9c0,0.4-0.1,1.8-1.5,2.3
		c-1.2,0.5-2.6,0.1-3.4-0.9c-0.1-0.2-0.2-0.3-0.3-0.5C13,32.5,12.4,32.8,11.8,33.2z"/>
</g>
</svg>
