<?xml version="1.0" encoding="utf-8"?>
<!-- Generator: Adobe Illustrator 25.4.1, SVG Export Plug-In . SVG Version: 6.00 Build 0)  -->
<svg version="1.1" id="Calque_1" xmlns="http://www.w3.org/2000/svg" xmlns:xlink="http://www.w3.org/1999/xlink" x="0px" y="0px"
	 viewBox="0 0 39.7 39.7" style="enable-background:new 0 0 39.7 39.7;" xml:space="preserve">
<style type="text/css">
	.st0{fill:#FFFFFF;}
	.st1{fill:#0C7189;}
</style>
<rect class="st0" width="39.7" height="39.7"/>
<g>
	<path class="st1" d="M26.8,7.7c0.7,0.4,1.3,0.7,2,1.1c0.4,0.2,0.5,0.4,0.5,0.9c0,3.5,0,6.9,0,10.4c0,0.4-0.1,0.6-0.5,0.8
		c-1.2,0.7-2.3,1.3-3.4,2c-0.3,0.2-0.6,0.2-0.9,0c-1.2-0.7-2.3-1.3-3.5-2c-0.2-0.1-0.4-0.4-0.4-0.6c0-1.3,0-2.8,0-4.1
		c0-0.3,0.1-0.5,0.4-0.7c1.2-0.7,2.3-1.3,3.4-2c0.3-0.2,0.6-0.2,0.9,0c0.2,0.1,0.4,0.2,0.6,0.4c0.2,0.1,0.3,0.1,0.3-0.2
		c0-0.1,0-0.2,0-0.2c0-1.7,0-3.4,0-5.1c0-0.2,0-0.4,0.1-0.6C26.6,7.7,26.7,7.7,26.8,7.7z M26.4,18.3c0-0.9,0-0.9-0.7-1.3l0,0
		c-0.4-0.4-0.9-0.4-1.3,0c-0.9,0.6-0.7,0.2-0.7,1.3c-0.1,0.6,0.2,0.9,0.7,1.2c0.6,0.3,1,0.4,1.5,0C26.2,19,26.6,18.7,26.4,18.3z"/>
	<path class="st1" d="M0,15.6c0.6-0.4,1.3-0.8,1.9-1.2s1.3-0.7,1.9-1.1c0.3-0.2,0.6-0.2,0.9,0c1.2,0.7,2.3,1.3,3.4,2
		c0.3,0.2,0.4,0.4,0.4,0.7c0,1.8,0,3.6,0,5.4c0,0.6-0.2,0.6-0.6,0.4c-0.6-0.4-1.2-0.7-1.8-1c-0.3-0.2-0.4-0.4-0.4-0.7
		c0-0.8,0-1.6,0-2.3c0-0.3-0.1-0.5-0.4-0.7c-1.2-0.7-0.9-0.6-2,0c-0.2,0.1-0.4,0.3-0.4,0.6c0,0.7,0,1.5,0,2.3c0,0.4-0.1,0.7-0.5,0.9
		c-0.6,0.3-1.2,0.7-1.9,1C0.3,22,0.1,22,0,21.9C0,19.7,0,17.6,0,15.6z"/>
	<path class="st1" d="M39.7,17.1c-0.1,0.1-0.2,0.2-0.3,0.3c-0.7,0.4-1.3,0.8-2,1.2c-0.4,0.2-0.6,0.1-0.6-0.3
		c0.1-0.8-0.2-1.2-0.9-1.5c-0.4-0.2-0.6-0.2-1,0c-0.7,0.3-1,0.8-0.9,1.6c0.1,0.4,0.2,0.7,0.6,0.9c1.1,0.6,2.1,1.2,3.2,1.8
		c0.4,0.2,0.4,0.4,0,0.6c-0.7,0.4-1.3,0.7-2,1.1c-0.2,0.2-0.5,0.1-0.8,0c-1.2-0.7-2.3-1.3-3.5-2c-0.3-0.2-0.4-0.4-0.4-0.7
		c0-1.3,0-2.6,0-4c0-0.4,0.1-0.6,0.4-0.7c1.2-0.7,2.3-1.3,3.4-2c0.3-0.2,0.6-0.2,0.9,0c1.1,0.7,2.3,1.3,3.4,2
		c0.2,0.1,0.3,0.2,0.4,0.4C39.7,16.2,39.7,16.7,39.7,17.1z"/>
	<path class="st1" d="M19.3,31.9c-0.4-0.2-0.8-0.5-1.2-0.7C18.1,31.2,18,31.2,18,31c0-0.1,0.1-0.1,0.2-0.2c0.3-0.2,0.6-0.2,0.9,0.1
		c0.4,0.3,0.7,0.3,1.2,0c0.9-0.6,1.8-1.1,2.8-1.6c0.2-0.1,0.3-0.3,0.3-0.6c0-1.2,0-2.3,0-3.5c0-0.2-0.1-0.4-0.3-0.5
		c-1-0.6-2-1.2-3-1.7c-0.3-0.2-0.5-0.2-0.8,0c-1,0.6-2,1.2-2.9,1.7c-0.2,0.1-0.4,0.3-0.4,0.6c0,1.2,0,2.4,0,3.5
		c0,0.2,0.1,0.4,0.3,0.5c0.2,0.1,0.5,0.2,0.7,0.4c0.5,0.2,0.9,0.1,0.9-0.6c0-1.2,0-2.4,0-3.6c0-0.2,0.1-0.4,0.4-0.4
		c0.2,0,0.4,0.1,0.4,0.4c0,1.3,0,2.6,0,3.9c0,0.8-0.6,1.2-1.4,1c-0.6-0.1-1.1-0.5-1.6-0.8c-0.2-0.1-0.2-0.4-0.2-0.6c0-1.3,0-2.7,0-4
		c0-0.4,0.2-0.6,0.5-0.8c1.1-0.6,2.2-1.3,3.3-1.9c0.4-0.2,0.7-0.2,1.2,0c1.1,0.7,2.2,1.3,3.3,1.9c0.3,0.2,0.5,0.4,0.5,0.8
		c0,1.3,0,2.6,0,4c0,0.4-0.1,0.6-0.5,0.8c-1.2,0.7-2.4,1.4-3.5,2.1C19.7,31.9,19.5,31.9,19.3,31.9z"/>
	<path class="st1" d="M18.9,18.1c0,0.7,0,1.3,0,2c0,0.3-0.1,0.6-0.4,0.7c-1.2,0.7-2.4,1.3-3.5,2c-0.2,0.1-0.4,0.1-0.7,0
		c-1.2-0.7-2.4-1.4-3.7-2.1c-0.2-0.1-0.3-0.4-0.3-0.6c0-1.4,0-2.8,0-4.2c0-0.2,0.1-0.5,0.4-0.6c1.2-0.7,2.4-1.4,3.6-2.1
		c0.2-0.1,0.4-0.1,0.6,0c1.2,0.7,2.4,1.3,3.5,2c0.2,0.2,0.4,0.4,0.4,0.7C18.9,16.7,18.9,17.4,18.9,18.1L18.9,18.1z"/>
	<path class="st1" d="M20.6,25.2c0.4,0,0.7,0,1.1,0.2c0.4,0.2,0.6,0.4,0.6,0.8c0.1,0.1,0.1,0.3-0.1,0.4c-0.2,0.1-0.4,0.1-0.6-0.1
		c-0.1-0.2-0.2-0.5-0.6-0.5c-0.4-0.1-0.8-0.1-1.2,0.1c-0.2,0.1-0.2,0.2-0.2,0.4c0,0.2,0.1,0.2,0.3,0.3c0.4,0.1,0.7,0.1,1,0.2
		c0.2,0.1,0.6,0.1,0.8,0.2c0.4,0.1,0.7,0.4,0.7,0.8c0.1,0.4-0.1,0.8-0.5,1c-0.6,0.4-1.2,0.4-1.9,0.3c-0.4-0.1-0.7-0.1-1-0.4
		c-0.2-0.2-0.3-0.4-0.3-0.6c0-0.2-0.1-0.4,0.2-0.4c0.2-0.1,0.4-0.1,0.6,0.2c0.1,0.2,0.1,0.3,0.2,0.4c0.6,0.2,1.2,0.2,1.7,0
		c0.2-0.1,0.2-0.2,0.2-0.4c0-0.2-0.1-0.2-0.3-0.3c-0.4-0.1-0.8-0.1-1.2-0.2c-0.2-0.1-0.5-0.1-0.7-0.2c-0.4-0.1-0.6-0.4-0.6-0.9
		c0-0.4,0.1-0.7,0.5-1C19.8,25.2,20.2,25.2,20.6,25.2z"/>
	<path class="st1" d="M36.3,18.1c0,0.4-0.4,0.9-0.9,0.9c-0.4,0-0.9-0.5-0.9-0.9c0-0.4,0.4-0.9,0.9-0.9S36.3,17.6,36.3,18.1z"/>
	<path class="st1" d="M25.2,24.1c0.4,0,0.7,0.3,0.7,0.7c0,0.4-0.4,0.7-0.7,0.7s-0.7-0.3-0.7-0.7C24.5,24.4,24.8,24.1,25.2,24.1z
		 M25.7,24.8c0-0.2-0.2-0.6-0.6-0.6c-0.3,0-0.6,0.2-0.6,0.6s0.2,0.6,0.6,0.6C25.5,25.3,25.7,25.1,25.7,24.8z"/>
</g>
</svg>
