<?xml version="1.0" encoding="utf-8"?>
<!-- Generator: Adobe Illustrator 25.4.1, SVG Export Plug-In . SVG Version: 6.00 Build 0)  -->
<svg version="1.1" id="Calque_1" xmlns="http://www.w3.org/2000/svg" xmlns:xlink="http://www.w3.org/1999/xlink" x="0px" y="0px"
	 viewBox="0 0 39.7 39.7" style="enable-background:new 0 0 39.7 39.7;" xml:space="preserve">
<style type="text/css">
	.st0{fill:#FFFFFF;}
	.st1{fill:#0C7189;}
</style>
<rect class="st0" width="39.7" height="39.7"/>
<g>
	<path class="st1" d="M0,25.3c0-4.4,0-8.8,0-13.1c0-0.1,0-0.1,0.1-0.1c13.2,0,26.5,0,39.6,0c0,0.1,0,0.2,0,0.3c0,4.2,0,8.5,0,12.6
		c0,0.4,0,0.4-0.4,0.4c-6.5,0-12.8,0-19.3,0c-0.2,0-0.2,0-0.2,0.2c0,0.6,0,1.1,0,1.7c0,0.3,0,0.3-0.3,0.3c-2.8,0-5.6,0-8.4,0
		c-0.3,0-0.3,0-0.3-0.3c0-0.6,0-1.2,0-1.7c0-0.1,0-0.2-0.2-0.2c-0.1,0-0.1,0-0.2,0C7,25.4,3.5,25.4,0,25.3C0.2,25.3,0.1,25.3,0,25.3
		z M30.9,14.3c-2.1,0-4.3,0-6.4,0c-0.2,0-0.2,0-0.2,0.2c0,2.8,0,5.6,0,8.4c0,0.2,0,0.2,0.2,0.2c1.3,0,2.6,0,3.9,0
		c0.3,0,0.3,0,0.3-0.3c0-2,0-4,0-6.1c0-0.1,0-0.1,0-0.2c0-0.1,0.1-0.2,0.2-0.2c0.6,0,1.3,0,1.9,0c0.1,0,0.2,0.1,0.2,0.2
		c0,0.1,0,0.1,0,0.2c0,2,0,4.1,0,6.1c0,0.2,0,0.2,0.2,0.2c0.6,0,1.2,0,1.7,0c0.2,0,0.2,0,0.2-0.2c0-1.4,0-2.8,0-4.3c0-0.7,0-1.3,0-2
		c0-0.1,0-0.2,0.2-0.2c0.6,0,1.3,0,1.9,0c0.1,0,0.1,0.1,0.1,0.2c0,0.1,0,0.1,0,0.2c0,2,0,4.1,0,6.1c0,0.2,0,0.2,0.2,0.2
		c0.6,0,1.2,0,1.8,0c0.2,0,0.2,0,0.2-0.2c0-2.8,0-5.6,0-8.4c0-0.2,0-0.2-0.2-0.2C35.2,14.3,33,14.3,30.9,14.3z M13.2,19.7
		c0,1.8,0,3.6,0,5.3c0,0.2,0,0.2,0.2,0.2c1.3,0,2.7,0,4,0c0.2,0,0.2,0,0.2-0.2c0-0.6,0-1.2,0-1.8c0-0.2,0-0.2,0.2-0.2
		c1.3,0,2.6,0,4,0c0.2,0,0.2,0,0.2-0.2c0-2.8,0-5.6,0-8.4c0-0.2,0-0.2-0.2-0.2c-2.8,0-5.6,0-8.4,0c-0.3,0-0.3,0-0.3,0.3
		C13.2,16.3,13.2,18,13.2,19.7z M2.2,18.6c0,1.4,0,2.8,0,4.2c0,0.2,0,0.2,0.3,0.2c1.3,0,2.6,0,3.9,0c0.3,0,0.3,0,0.3-0.3
		c0-2.1,0-4.1,0-6.2c0-0.2,0-0.2,0.2-0.2c0.6,0,1.1,0,1.7,0c0.3,0,0.3,0,0.3,0.3c0,2,0,4.1,0,6.1c0,0.2,0,0.2,0.2,0.2
		c0.6,0,1.2,0,1.7,0c0.2,0,0.2,0,0.2-0.2c0-2.8,0-5.6,0-8.4c0-0.2,0-0.2-0.2-0.2c-2.8,0-5.6,0-8.4,0c-0.2,0-0.2,0-0.2,0.2
		C2.2,15.9,2.2,17.3,2.2,18.6z"/>
	<path class="st1" d="M19.9,18.6c0,0.7,0,1.3,0,2c0,0.2,0,0.2-0.2,0.2c-0.6,0-1.2,0-1.8,0c-0.2,0-0.2,0-0.2-0.2c0-1.4,0-2.7,0-4.1
		c0-0.2,0-0.2,0.2-0.2c0.6,0,1.2,0,1.8,0c0.2,0,0.2,0,0.2,0.2C19.9,17.3,19.9,18,19.9,18.6z"/>
</g>
</svg>
