<?xml version="1.0" encoding="utf-8"?>
<!-- Generator: Adobe Illustrator 25.4.1, SVG Export Plug-In . SVG Version: 6.00 Build 0)  -->
<svg version="1.1" id="Calque_1" xmlns="http://www.w3.org/2000/svg" xmlns:xlink="http://www.w3.org/1999/xlink" x="0px" y="0px"
	 viewBox="0 0 39.7 39.7" style="enable-background:new 0 0 39.7 39.7;" xml:space="preserve">
<style type="text/css">
	.st0{fill:#FFFFFF;}
	.st1{fill:#0C7189;}
</style>
<rect class="st0" width="39.7" height="39.7"/>
<g>
	<path class="st1" d="M16.3,1c3.2,0,5.9,0.5,8.4,1.7c3.2,1.6,5.5,4.2,6.9,7.5c1.1,2.5,1.5,5.2,1.7,7.9c0.2,2.6,0,5.3-0.7,7.8
		c-0.9,4.2-3.1,7.7-6.8,10.2c-2.2,1.4-4.5,2.1-7.1,2.3c-2.4,0.2-4.6,0.1-6.9-0.5c-5-1-8.4-4.2-10.3-9c-0.8-2-1.2-4.2-1.4-6.3
		c-0.3-3.4-0.2-6.7,0.7-10c0.7-2.6,1.9-5.1,3.8-7.1c2.3-2.4,5.1-3.7,8.2-4.2C14.2,1.1,15.4,1,16.3,1z M28.8,19.8
		c0-2.7-0.2-5.3-1.1-7.8c-1.2-3.3-3.4-5.8-6.9-6.7c-2.7-0.8-5.6-0.8-8.3,0.1C10.7,6,9.1,6.9,7.9,8.3c-1.6,1.9-2.5,4.2-2.9,6.6
		c-0.5,2.5-0.5,4.9-0.3,7.4c0.2,2.5,0.8,4.9,1.9,7.2c1.3,2.5,3.3,4.1,5.9,4.8c2.1,0.7,4.2,0.8,6.2,0.5c1.4-0.2,2.8-0.6,4.2-1.2
		c2.6-1.4,4.2-3.8,5.1-6.6C28.6,24.6,28.8,22.2,28.8,19.8z"/>
	<path class="st1" d="M39.7,35.3c0,1.9-1.5,3.4-3.4,3.4S33,37.2,33,35.3s1.5-3.4,3.4-3.4C38.2,32,39.7,33.5,39.7,35.3z"/>
</g>
</svg>
