<?xml version="1.0" encoding="utf-8"?>
<!-- Generator: Adobe Illustrator 25.4.1, SVG Export Plug-In . SVG Version: 6.00 Build 0)  -->
<svg version="1.1" id="Calque_1" xmlns="http://www.w3.org/2000/svg" xmlns:xlink="http://www.w3.org/1999/xlink" x="0px" y="0px"
	 viewBox="0 0 40 40" style="enable-background:new 0 0 40 40;" xml:space="preserve">
<style type="text/css">
	.st0{fill:#0C7189;}
</style>
<g id="Ps">
	<path class="st0" d="M32,40h-0.1c-8-0.1-16-0.1-24.2,0l0,0C4,40,0.1,37.3,0,32.2c0-8.1,0-16.3,0-24.4C0.1,2.7,4,0,7.6,0
		c0,0,0,0,0.1,0C14,0,20.3,0,26.5,0h6l0,0C35,0,37,1.1,38.6,3.3l0,0c0.6,0.8,0.8,1.7,1.1,2.5C39.8,6,39.9,6.3,40,6.6v0.2v27.3
		l-0.3,0.1l0,0C38.8,37.7,35.8,40,32,40z M20.5,38.6c3.8,0,7.6,0,11.4,0.1H32c3.1,0,5.7-1.9,6.5-4.8c0-0.3,0.1-0.5,0.2-0.6V7
		c-0.1-0.3-0.2-0.5-0.3-0.8c-0.2-0.8-0.4-1.5-0.9-2.1l0,0c-1.3-1.8-3-2.7-5.1-2.7l0,0h-6c-6.2,0-12.5,0-18.8,0l0,0
		c-3,0-6.2,2.2-6.2,6.4c-0.1,8.1-0.1,16.3,0,24.4c0,4.2,3.2,6.4,6.2,6.4l0,0C12,38.6,16.3,38.6,20.5,38.6z M27.3,29.2
		c-0.1,0-0.1,0-0.2,0c-1.6-0.1-2.9-0.4-3.9-1c-0.8-0.5-0.7-1.3-0.6-1.7c0-0.1,0-0.2,0-0.3v-0.1V26c0-1.1,0-1.7,0.5-2s1-0.1,1.8,0.2
		c0.9,0.3,2,0.5,3.1,0.4c0.4,0,0.5-0.1,0.5-0.2c0,0-0.1-0.1-0.3-0.2c-0.4-0.2-0.8-0.3-1.1-0.5c-0.5-0.2-0.9-0.4-1.4-0.6
		c-1-0.5-2.3-1.3-2.8-3c-0.6-2,0.3-4.2,2.1-5.2c2.3-1.3,4.7-0.9,6.8-0.4c0.3,0.1,1,0.4,1,1.4c0,0.6,0,1.3,0,1.9c0,0.2,0,0.8-0.4,1.2
		c-0.5,0.3-1.1,0-1.3,0c-0.6-0.3-1.2-0.4-1.9-0.5l-0.5-0.1c-0.3-0.1-0.6,0-1,0.1c-0.1,0-0.1,0.1-0.2,0.1l0.1,0.1
		c0.3,0.2,0.6,0.4,1,0.5c0.1,0.1,0.3,0.1,0.4,0.2l0.5,0.2c0.4,0.2,0.8,0.3,1.2,0.5c2.1,1.2,2.9,2.6,2.6,4.9l0,0
		c-0.2,1.8-1.9,3.5-3.9,3.9c-0.2,0-0.4,0.1-0.6,0.1C28.3,29.1,27.8,29.2,27.3,29.2z M23.9,25.9c0.1,0.3,0,0.6,0,0.8
		c0,0.1,0,0.3,0,0.3c0.9,0.5,1.9,0.8,3.3,0.8c0.4,0,0.8-0.1,1.3-0.2c0.2-0.1,0.4-0.1,0.6-0.2c1.5-0.3,2.7-1.5,2.9-2.7l0,0
		c0.2-1.7-0.3-2.6-1.9-3.5c-0.3-0.2-0.7-0.3-1.1-0.5l-0.6-0.2c-0.1-0.1-0.3-0.1-0.4-0.2c-0.4-0.2-0.9-0.4-1.4-0.8
		c-0.6-0.5-0.7-1-0.6-1.3s0.3-0.8,1.1-1.1c0.6-0.2,1.1-0.2,1.6-0.2l0.5,0.1c0.7,0.1,1.4,0.2,2.1,0.5c0-0.6,0-1.2,0-1.8
		c-1.9-0.6-3.9-0.9-5.8,0.2c-1.3,0.7-1.9,2.2-1.5,3.7c0.3,0.9,0.9,1.6,2.1,2.2c0.4,0.2,0.9,0.4,1.3,0.6s0.8,0.3,1.2,0.5
		c1.1,0.5,1.2,1.3,1,1.8c-0.2,0.7-0.8,1.1-1.7,1.2c-1.4,0.1-2.6-0.1-3.7-0.5c-0.2-0.1-0.4-0.1-0.5-0.2
		C23.9,25.4,23.9,25.7,23.9,25.9z M10.5,28.8c-0.5,0-1-0.1-1.3-0.4c-0.7-0.6-0.6-1.6-0.5-2.4c0-0.3,0.1-0.5,0.1-0.8
		c0-1.4,0-2.8,0-4.2v-8.8c0-1.9,0.3-2.3,2.2-2.3h1c1.9-0.1,3.9-0.2,5.8,0.4c2.9,0.9,4.7,3.5,4.6,6.5c-0.2,3.2-2.1,5.6-5.2,6.3l0,0
		c-1.2,0.3-2.4,0.3-3.5,0.2c0,0.7,0,1.4,0,2c0,0.7,0,1.3,0,2c0,0.4,0,0.9-0.4,1.2c-0.4,0.4-0.9,0.3-1.1,0.3c-0.3,0-0.6,0-0.9,0
		C11,28.7,10.7,28.8,10.5,28.8z M14.1,11.1c-0.7,0-1.4,0-2.2,0.1h-1c-0.3,0-0.8,0-0.9,0.1c0,0,0,0.5,0,0.9V21c0,1.4,0,2.8,0,4.2
		c0,0.3,0,0.6-0.1,1c0,0.3-0.1,1,0,1.1c0.2,0.1,0.8,0.1,1.1,0.1c0.4,0,0.8-0.1,1.1,0h0.1c0,0,0-0.1,0-0.2c0-0.7,0-1.3,0-2
		s0-1.4,0-2.1c0-0.3,0-0.7,0.3-1s0.7-0.3,1-0.3c1,0.1,2.1,0.1,3.2-0.2c2.5-0.6,4-2.4,4.2-5c0.1-2.4-1.4-4.4-3.7-5.1
		C16.2,11.2,15.2,11.1,14.1,11.1z"/>
	<path class="st0" d="M13.4,20c-0.3,0-0.6-0.1-0.8-0.3c-0.3-0.3-0.3-0.7-0.3-0.9v-0.7c0-1.2,0-2.5,0-3.7c0-0.2,0-0.6,0.3-1
		c0.3-0.3,0.7-0.3,1-0.3c0.2,0,0.3,0,0.5,0h0.3c0.5-0.1,1.1,0,1.8,0.2c1.5,0.4,2.3,1.5,2.3,2.9c0.1,1.7-0.6,2.8-2.1,3.4
		C15.6,20,14.7,20,13.8,20H13.4L13.4,20z M13.6,14.4c0,1.3,0,2.4,0,3.6v0.6h0.2c0.8,0,1.6,0,2.3-0.3c1-0.4,1.3-0.9,1.3-2.1
		c0-0.9-0.5-1.4-1.4-1.7c-0.5-0.2-1-0.2-1.4-0.2h-0.4C14,14.4,13.8,14.4,13.6,14.4z"/>
</g>
</svg>
