<?xml version="1.0" encoding="utf-8"?>
<!-- Generator: Adobe Illustrator 25.4.1, SVG Export Plug-In . SVG Version: 6.00 Build 0)  -->
<svg version="1.1" id="Calque_1" xmlns="http://www.w3.org/2000/svg" xmlns:xlink="http://www.w3.org/1999/xlink" x="0px" y="0px"
	 viewBox="0 0 39.7 39.7" style="enable-background:new 0 0 39.7 39.7;" xml:space="preserve">
<style type="text/css">
	.st0{fill:#FFFFFF;}
	.st1{fill:#0C7189;}
</style>
<rect class="st0" width="39.7" height="39.7"/>
<g id="Ps">
	<path class="st1" d="M31.7,39.7L31.7,39.7c-8-0.1-16-0.1-24.1,0l0,0C4,39.7,0.1,37,0,31.9c0-8,0-16.2,0-24.2C0.1,2.7,4,0,7.5,0
		c0,0,0,0,0.1,0c6.3,0,12.5,0,18.7,0h6l0,0c2.5,0,4.5,1.1,6.1,3.3l0,0c0.6,0.8,0.8,1.7,1.1,2.5c0.1,0.2,0.2,0.5,0.3,0.8v0.2v27.1
		l-0.3,0.1l0,0C38.5,37.4,35.5,39.7,31.7,39.7z M20.3,38.3c3.8,0,7.5,0,11.3,0.1h0.1c3.1,0,5.7-1.9,6.4-4.8c0-0.3,0.1-0.5,0.2-0.6
		V6.9c-0.1-0.3-0.2-0.5-0.3-0.8c-0.2-0.8-0.4-1.5-0.9-2.1l0,0c-1.3-1.8-3-2.7-5.1-2.7l0,0h-6c-6.2,0-12.4,0-18.7,0l0,0
		c-3,0-6.2,2.2-6.2,6.3c-0.1,8-0.1,16.2,0,24.2c0,4.2,3.2,6.3,6.2,6.3l0,0C11.9,38.3,16.2,38.3,20.3,38.3z M27.1,29
		c-0.1,0-0.1,0-0.2,0c-1.6-0.1-2.9-0.4-3.9-1c-0.8-0.5-0.7-1.3-0.6-1.7c0-0.1,0-0.2,0-0.3v-0.1v-0.1c0-1.1,0-1.7,0.5-2
		c0.5-0.3,1-0.1,1.8,0.2c0.9,0.3,2,0.5,3.1,0.4c0.4,0,0.5-0.1,0.5-0.2c0,0-0.1-0.1-0.3-0.2c-0.4-0.2-0.8-0.3-1.1-0.5
		c-0.5-0.2-0.9-0.4-1.4-0.6c-1-0.5-2.3-1.3-2.8-3c-0.6-2,0.3-4.2,2.1-5.2c2.3-1.3,4.7-0.9,6.7-0.4c0.3,0.1,1,0.4,1,1.4
		c0,0.6,0,1.3,0,1.9c0,0.2,0,0.8-0.4,1.2c-0.5,0.3-1.1,0-1.3,0c-0.6-0.3-1.2-0.4-1.9-0.5l-0.5-0.1c-0.3-0.1-0.6,0-1,0.1
		c-0.1,0-0.1,0.1-0.2,0.1l0.1,0.1c0.3,0.2,0.6,0.4,1,0.5c0.1,0.1,0.3,0.1,0.4,0.2l0.5,0.2c0.4,0.2,0.8,0.3,1.2,0.5
		c2.1,1.2,2.9,2.6,2.6,4.9l0,0c-0.2,1.8-1.9,3.5-3.9,3.9c-0.2,0-0.4,0.1-0.6,0.1C28.1,28.9,27.6,29,27.1,29z M23.7,25.7
		c0.1,0.3,0,0.6,0,0.8c0,0.1,0,0.3,0,0.3c0.9,0.5,1.9,0.8,3.3,0.8c0.4,0,0.8-0.1,1.3-0.2c0.2-0.1,0.4-0.1,0.6-0.2
		c1.5-0.3,2.7-1.5,2.9-2.7l0,0c0.2-1.7-0.3-2.6-1.9-3.5c-0.3-0.2-0.7-0.3-1.1-0.5l-0.6-0.2c-0.1-0.1-0.3-0.1-0.4-0.2
		c-0.4-0.2-0.9-0.4-1.4-0.8c-0.6-0.5-0.7-1-0.6-1.3c0.1-0.3,0.3-0.8,1.1-1.1c0.6-0.2,1.1-0.2,1.6-0.2l0.5,0.1
		c0.7,0.1,1.4,0.2,2.1,0.5c0-0.6,0-1.2,0-1.8c-1.9-0.6-3.9-0.9-5.8,0.2c-1.3,0.7-1.9,2.2-1.5,3.7c0.3,0.9,0.9,1.6,2.1,2.2
		c0.4,0.2,0.9,0.4,1.3,0.6c0.4,0.2,0.8,0.3,1.2,0.5c1.1,0.5,1.2,1.3,1,1.8c-0.2,0.7-0.8,1.1-1.7,1.2c-1.4,0.1-2.6-0.1-3.7-0.5
		c-0.2-0.1-0.4-0.1-0.5-0.2C23.7,25.2,23.7,25.5,23.7,25.7z M10.4,28.6c-0.5,0-1-0.1-1.3-0.4c-0.7-0.6-0.6-1.6-0.5-2.4
		c0-0.3,0.1-0.5,0.1-0.8c0-1.4,0-2.8,0-4.2v-8.7c0-1.9,0.3-2.3,2.2-2.3h1c1.9-0.1,3.9-0.2,5.8,0.4c2.9,0.9,4.7,3.5,4.6,6.4
		c-0.2,3.2-2.1,5.6-5.2,6.3l0,0c-1.2,0.3-2.4,0.3-3.5,0.2c0,0.7,0,1.4,0,2c0,0.7,0,1.3,0,2c0,0.4,0,0.9-0.4,1.2
		c-0.4,0.4-0.9,0.3-1.1,0.3c-0.3,0-0.6,0-0.9,0C10.9,28.5,10.6,28.6,10.4,28.6z M14,11c-0.7,0-1.4,0-2.2,0.1h-1
		c-0.3,0-0.8,0-0.9,0.1c0,0,0,0.5,0,0.9v8.7c0,1.4,0,2.8,0,4.2c0,0.3,0,0.6-0.1,1c0,0.3-0.1,1,0,1.1c0.2,0.1,0.8,0.1,1.1,0.1
		c0.4,0,0.8-0.1,1.1,0h0.1c0,0,0-0.1,0-0.2c0-0.7,0-1.3,0-2s0-1.4,0-2.1c0-0.3,0-0.7,0.3-1c0.3-0.3,0.7-0.3,1-0.3
		c1,0.1,2.1,0.1,3.2-0.2c2.5-0.6,4-2.4,4.2-5c0.1-2.4-1.4-4.4-3.7-5.1C16.1,11.1,15.1,11,14,11z"/>
	<path class="st1" d="M13.3,19.8c-0.3,0-0.6-0.1-0.8-0.3c-0.3-0.3-0.3-0.7-0.3-0.9V18c0-1.2,0-2.5,0-3.7c0-0.2,0-0.6,0.3-1
		c0.3-0.3,0.7-0.3,1-0.3c0.2,0,0.3,0,0.5,0h0.3c0.5-0.1,1.1,0,1.8,0.2c1.5,0.4,2.3,1.5,2.3,2.9c0.1,1.7-0.6,2.8-2.1,3.4
		c-0.8,0.4-1.7,0.4-2.6,0.4H13.3L13.3,19.8z M13.5,14.3c0,1.3,0,2.4,0,3.6v0.6h0.2c0.8,0,1.6,0,2.3-0.3c1-0.4,1.3-0.9,1.3-2.1
		c0-0.9-0.5-1.4-1.4-1.7c-0.5-0.2-1-0.2-1.4-0.2h-0.4C13.9,14.3,13.7,14.3,13.5,14.3z"/>
</g>
</svg>
