<?xml version="1.0" encoding="utf-8"?>
<!-- Generator: Adobe Illustrator 25.4.1, SVG Export Plug-In . SVG Version: 6.00 Build 0)  -->
<svg version="1.1" id="Calque_1" xmlns="http://www.w3.org/2000/svg" xmlns:xlink="http://www.w3.org/1999/xlink" x="0px" y="0px"
	 viewBox="0 0 39.7 39.7" style="enable-background:new 0 0 39.7 39.7;" xml:space="preserve">
<style type="text/css">
	.st0{fill:#FFFFFF;}
	.st1{fill:#0C7189;}
</style>
<rect class="st0" width="39.7" height="39.7"/>
<g id="react">
	<path class="st1" d="M32.1,8.5c0,1.4-0.2,2.9-0.5,4.3c-0.1,0.4,0,0.5,0.4,0.6c1.8,0.5,3.6,1.3,5.2,2.5c0.9,0.6,1.8,1.4,2.2,2.5
		c0.6,1.1,0.4,2.4-0.2,3.4c-0.8,1.3-2,2.2-3.3,2.9c-1.2,0.7-2.5,1.2-3.9,1.7c-0.4,0.1-0.4,0.3-0.4,0.6c0.4,1.7,0.6,3.4,0.4,5.2
		c-0.1,1.1-0.3,2-0.7,3c-0.8,1.8-2.5,2.6-4.6,2.2c-1.8-0.4-3.4-1.4-4.9-2.5c-0.5-0.4-1.1-0.9-1.6-1.4c-0.3-0.2-0.4-0.3-0.6,0
		c-1.3,1.2-2.8,2.4-4.5,3.2c-1.1,0.5-2.1,0.9-3.3,0.9c-1.5,0-2.6-0.5-3.3-1.8c-0.4-0.9-0.7-1.8-0.8-2.8C7.5,30.8,7.8,29,8.2,27
		c0.1-0.5,0.1-0.5-0.4-0.7c-1.9-0.6-3.8-1.4-5.4-2.6c-0.6-0.5-1.2-1.1-1.7-1.8c-1.1-1.6-1-3.2,0.3-4.7c1.1-1.4,2.6-2.2,4.1-3
		c0.9-0.4,1.8-0.7,2.6-1c0.5-0.2,0.5-0.2,0.4-0.7c-0.4-1.5-0.6-3.1-0.5-4.6c0-1.2,0.2-2.5,0.7-3.7c0.8-1.6,2.2-2.4,4-2
		c1.8,0.3,3.3,1.1,4.8,2.2c0.8,0.6,1.6,1.2,2.3,1.9c0.2,0.2,0.3,0.2,0.5,0c1.2-1.1,2.5-2.2,4-3c1.1-0.6,2.2-1.1,3.5-1.1
		c1.6-0.1,2.9,0.5,3.7,2.3C32,5.8,32.1,6.7,32.1,8.5z M19.7,26.2c1.1,0,2.1-0.1,3-0.1c0.7,0,1.1-0.2,1.4-0.8c0-0.1,0.1-0.1,0.1-0.2
		c1-1.6,1.9-3.2,2.7-4.8c0.2-0.3,0.3-0.5,0.1-0.9c-1-1.9-2-3.8-3.3-5.5c-0.2-0.2-0.3-0.4-0.5-0.4c-0.7,0-1.3-0.1-2-0.1
		c-1.4,0-2.9,0-4.3,0.1c-0.4,0-0.7,0.2-0.9,0.5c-1.1,1.8-2.2,3.6-3.2,5.4c-0.1,0.2-0.1,0.4,0,0.6c0.3,0.5,0.5,1,0.8,1.5
		c0.8,1.4,1.6,2.8,2.5,4.1c0.2,0.2,0.3,0.4,0.5,0.4C17.9,26.2,18.9,26.2,19.7,26.2z M2,19.7c0,0.7,0.4,1.2,0.8,1.8
		c1.6,1.7,3.7,2.5,5.9,3.3c0.3,0.1,0.4-0.1,0.4-0.3c0.4-1.4,1-2.7,1.6-4c0.2-0.4,0.2-0.8,0-1.2c-0.6-1.3-1.1-2.6-1.5-4
		C9.2,14.9,9,14.8,8.7,15c-0.9,0.3-1.8,0.6-2.6,1c-1.2,0.5-2.4,1.2-3.3,2.3C2.3,18.7,2,19.1,2,19.7z M12,35.6c0.5,0,1.1-0.1,1.5-0.3
		c2-0.7,3.7-1.8,5.2-3.3c0.2-0.2,0.2-0.3,0-0.5c-1.1-1.2-2-2.5-3-3.7c-0.1-0.2-0.3-0.2-0.4-0.3c-1.6-0.1-3.1-0.4-4.6-0.6
		c-0.4-0.1-0.5,0.1-0.6,0.4c-0.4,1.6-0.5,3.2-0.4,4.7c0,0.8,0.2,1.7,0.5,2.4C10.6,35.3,11.2,35.7,12,35.6z M30.6,31.1
		c-0.1-1.3-0.2-2.6-0.5-3.9c-0.1-0.3-0.2-0.4-0.4-0.3c-1.5,0.4-3.1,0.5-4.7,0.7c-0.4,0-0.5,0.2-0.7,0.4c-0.9,1.2-1.8,2.5-2.8,3.5
		c-0.2,0.2-0.2,0.4,0,0.5c0.7,0.6,1.3,1.2,2.1,1.7c1.1,0.8,2.4,1.5,3.8,1.8c1.3,0.3,2.1-0.2,2.6-1.4C30.4,33.2,30.5,32.1,30.6,31.1z
		 M12,3.9c-0.9,0-1.5,0.4-1.9,1.4C9.8,6,9.6,6.8,9.6,7.6c-0.1,1.6,0.2,3.1,0.4,4.6c0.1,0.4,0.2,0.5,0.6,0.4c1.5-0.3,2.9-0.5,4.4-0.7
		c0.3,0,0.4-0.2,0.6-0.4c0.9-1.2,1.8-2.5,2.9-3.5c0.3-0.3,0.2-0.4-0.1-0.7c-1.1-1-2.2-1.8-3.5-2.5C14.1,4.4,13.1,4,12,3.9z
		 M30.5,8.4c0-1-0.1-2-0.4-3c-0.4-1.3-1.2-1.8-2.6-1.5c-2.4,0.5-4.2,2-6,3.7c-0.2,0.1-0.1,0.3,0,0.4c1.1,1.1,2,2.4,2.9,3.7
		c0.2,0.2,0.4,0.3,0.5,0.4c1.6,0.2,3.1,0.4,4.6,0.7c0.3,0.1,0.4,0,0.4-0.3C30.3,11.1,30.4,9.8,30.5,8.4z M38.2,19.8
		c0-0.7-0.4-1.2-0.8-1.7c-1.7-1.7-3.8-2.5-6-3.2c-0.2-0.1-0.4,0-0.4,0.2c-0.4,1.5-1.1,3-1.8,4.4c-0.1,0.2-0.1,0.4,0,0.5
		c0.7,1.4,1.3,2.9,1.8,4.4c0.1,0.3,0.2,0.4,0.4,0.3c1.9-0.6,3.8-1.4,5.4-2.7C37.5,21.4,38.1,20.8,38.2,19.8z M25.9,25.8
		c0.1,0,0.2,0,0.2,0c1.1-0.1,2.1-0.4,3.1-0.5c0.3-0.1,0.4-0.2,0.3-0.4c-0.4-1-0.7-1.8-1.1-2.7c0-0.1-0.1-0.3-0.2-0.3S28,22,28,22.1
		c-0.4,0.8-0.9,1.7-1.4,2.5C26.4,25,26.1,25.4,25.9,25.8z M14.1,25.9c0.2,0,0.1-0.2,0-0.4c-0.7-1.1-1.4-2.3-2-3.4
		c0-0.1-0.1-0.2-0.2-0.2c-0.1,0-0.1,0.1-0.2,0.2c-0.4,1-0.7,1.9-1.1,2.9c-0.1,0.2,0,0.3,0.2,0.4C12,25.5,12.9,25.7,14.1,25.9z
		 M18.5,27.8c-0.1,0-0.3,0-0.4,0c-0.1,0-0.3,0-0.3,0.1C17.8,28,18,28.1,18,28.2c0.6,0.8,1.2,1.5,1.8,2.3c0.2,0.2,0.4,0.3,0.5,0
		c0.5-0.7,1.1-1.4,1.7-2.1c0.1-0.1,0.3-0.3,0.2-0.4c-0.1-0.2-0.3-0.1-0.4-0.1C20.8,27.8,19.6,28,18.5,27.8z M20.1,11.8
		c0.6,0,1.2,0,1.8,0c0.1,0,0.3,0.1,0.4-0.1c0.1-0.1-0.1-0.2-0.2-0.3c-0.5-0.7-1.1-1.4-1.8-2.1c-0.3-0.3-0.4-0.3-0.6,0
		c-0.6,0.7-1.3,1.5-1.8,2.2c0,0.1-0.2,0.1-0.1,0.2c0.1,0.1,0.2,0.1,0.2,0.1C18.7,11.8,19.4,11.8,20.1,11.8z M26.1,13.8
		c-0.3,0-0.3,0.1-0.2,0.3c0.1,0.2,0.3,0.4,0.4,0.5c0.5,1,1.1,1.8,1.7,2.9c0,0.1,0.1,0.2,0.2,0.2s0.1-0.1,0.2-0.2
		c0.4-0.9,0.7-1.8,1.1-2.8c0.1-0.2,0-0.4-0.2-0.4C28.1,14.1,27.2,14,26.1,13.8z M13.9,13.8c-1,0.2-1.9,0.3-2.9,0.5
		c-0.2,0-0.3,0.2-0.2,0.4c0.4,1,0.6,1.8,1.1,2.8c0,0.1,0.1,0.2,0.2,0.2c0.1,0,0.1-0.1,0.2-0.2c0.1-0.2,0.3-0.4,0.4-0.6
		c0.5-0.9,1.1-1.8,1.6-2.6c0.1-0.1,0.2-0.2,0.1-0.3C14.1,13.8,14,13.8,13.9,13.8z"/>
	<path class="st1" d="M16.5,19.8c-0.1-1.8,1.6-3.5,3.5-3.5c2,0,3.4,1.5,3.5,3.5c0,1.5-1.2,3.5-3.5,3.5
		C17.8,23.4,16.4,21.6,16.5,19.8z"/>
</g>
</svg>
