<?xml version="1.0" encoding="utf-8"?>
<!-- Generator: Adobe Illustrator 25.4.1, SVG Export Plug-In . SVG Version: 6.00 Build 0)  -->
<svg version="1.1" id="Calque_1" xmlns="http://www.w3.org/2000/svg" xmlns:xlink="http://www.w3.org/1999/xlink" x="0px" y="0px"
	 viewBox="0 0 39.7 39.7" style="enable-background:new 0 0 39.7 39.7;" xml:space="preserve">
<style type="text/css">
	.st0{fill:#FFFFFF;}
	.st1{fill:#0C7189;}
</style>
<rect class="st0" width="39.7" height="39.7"/>
<g>
	<path class="st1" d="M4,18.8c0-1.2,0-2.5,0-3.7c0-0.6,0.2-0.7,0.7-0.7c0.7,0,1.4,0,2,0.2c0.6,0.1,1.1,0.5,1.3,1.1
		c0.2,1.1,0.4,2.2-0.7,3C7,18.9,7,19.1,7.1,19.3c0.3,1,0.6,2.1,0.9,3.1C8.1,22.6,8.3,23,7.8,23c-0.3,0.1-0.6-0.1-0.6-0.4
		c-0.3-1.1-0.7-2.2-1-3.4c-0.2-0.6-0.6-0.4-1-0.5c-0.5,0-0.6,0.3-0.6,0.6c0,1,0,1.9,0,2.8c0,0.3,0.1,0.7-0.4,0.7
		C4,23.1,4,22.8,4,22.4C4,21.2,4,20,4,18.8z M4.9,16.7C4.9,16.7,5,16.7,4.9,16.7c0,0.4,0,0.7,0,1.1c0,0.2,0.1,0.4,0.4,0.5
		c1.3,0.1,2.2-0.1,2.1-1.7c0-1.1-0.5-1.5-1.8-1.5c-0.6,0-0.7,0.2-0.7,1.4C4.9,16.6,4.9,16.7,4.9,16.7z"/>
	<path class="st1" d="M17.8,18.8c0-1.3,0-2.5,0-3.8c0-0.2-0.1-0.6,0.4-0.6s0.4,0.4,0.4,0.6c0,0.6,0,1.3,0,1.9c0,0.3,0.1,0.5,0.4,0.2
		c0.2-0.2,0.5-0.2,0.7-0.3c0.7-0.2,1.3,0.2,1.3,0.9c0.1,1.7,0.1,3.4,0.1,5c0,0.2-0.2,0.4-0.4,0.4c-0.3,0-0.3-0.3-0.3-0.6
		c0-1.1,0-2.3,0-3.4c0-0.2,0-0.5,0-0.7c0-0.5,0-0.9-0.6-1c-0.5,0-1,0.5-1,1c0,1.2,0,2.3,0,3.5c0,0.2,0,0.4,0,0.6
		c0,0.2,0,0.6-0.4,0.6c-0.4,0-0.5-0.3-0.5-0.6c0-1,0-1.9,0-2.8C17.8,19.4,17.8,19.1,17.8,18.8z"/>
	<path class="st1" d="M9.2,20c0-0.6-0.1-1.4,0.2-2c0.2-0.9,0.8-1.2,1.8-1.2c0.7,0.1,1.1,0.5,1.3,1.4C12.8,20,12.8,20,11,20
		c-0.9,0-0.9,0-0.9,0.9c0,0.3,0,0.7,0.1,1c0.1,0.4,0.3,0.6,0.8,0.6c0.4,0,0.7-0.2,0.8-0.6c0-0.1,0-0.1,0-0.2c0.1-0.3,0-0.9,0.6-0.7
		c0.6,0.2,0.2,0.6,0.2,1c-0.2,0.9-0.6,1.2-1.4,1.2c-0.9,0-1.4-0.3-1.7-1.1C9.1,21.4,9.2,20.7,9.2,20z M11.7,18.9
		c0-0.3,0-0.5-0.1-0.6c-0.1-0.4-0.2-0.6-0.7-0.6c-0.4,0-0.7,0.2-0.8,0.6C10,18.5,10,18.7,10,18.9c0,0.7,0.1,0.7,1,0.7
		C11.7,19.4,11.8,19.2,11.7,18.9z"/>
	<path class="st1" d="M25.4,20.6c0,0.6,0,1.3,0,2c0,0.2,0,0.4-0.2,0.5c-0.2,0.1-0.4,0.1-0.5-0.2c-0.2-0.2-0.3-0.2-0.5,0
		c-0.8,0.5-1.3,0.5-1.8-0.1c-0.4-0.5-0.4-1.6,0-2.2c0.4-0.5,1-0.7,1.4-1c0.6-0.3,0.9-1.4,0.5-2c-0.3-0.4-1-0.3-1.3,0.2
		c-0.1,0.2-0.1,0.4-0.2,0.6c-0.1,0.2-0.2,0.3-0.4,0.3c-0.2-0.1-0.3-0.2-0.3-0.4c0-0.6,0.5-1.3,1-1.4c1-0.2,1.7,0.1,2,0.7
		c0.4,0.9,0.2,1.8,0.2,2.7C25.4,20.4,25.4,20.5,25.4,20.6L25.4,20.6z M24.4,21c0-0.2,0-0.4,0-0.6s-0.1-0.3-0.2-0.2
		c-0.7,0.1-1.4,1-1.3,1.8c0.1,0.6,0.6,0.9,1.2,0.5C24.6,22,24.4,21.5,24.4,21z"/>
	<path class="st1" d="M13.5,19.9c0-0.6-0.1-1.4,0.2-2c0.3-1,1-1.4,2.1-1c0.6,0.2,1.1,1,1,1.8c0,0.2-0.1,0.4-0.3,0.4
		s-0.4-0.2-0.4-0.4c0-0.1,0-0.2,0-0.2c-0.1-0.6-0.2-1-0.9-1c-0.6,0-0.8,0.6-0.8,1c0,1,0,2.1,0,3.1c0,0.7,0.4,1,0.9,1
		c0.6,0,0.8-0.5,0.8-1c0-0.2,0-0.3,0.1-0.6c0.1-0.2,0.2-0.3,0.4-0.2c0.2,0,0.3,0.2,0.3,0.3c0.2,1.3-0.6,2.2-1.9,2.1
		c-0.6-0.1-1-0.4-1.2-1C13.4,21.5,13.5,20.7,13.5,19.9z"/>
	<path class="st1" d="M30,20.1c0-0.6,0-1.2,0-1.7c0-0.4,0.1-0.9-0.6-1c-0.2-0.1-0.3-0.4,0-0.5c0.6-0.2,0.6-0.6,0.6-1.1
		c0-0.2,0-0.3,0-0.6c0-0.2,0.2-0.3,0.4-0.3c0.2,0,0.4,0.1,0.4,0.3s0,0.6,0,0.8c0,0.4,0.1,0.7,0.6,0.7c0.2,0,0.4,0.1,0.4,0.3
		s-0.2,0.3-0.4,0.2c-0.6,0-0.6,0.3-0.6,0.7c0,1.2,0,2.4,0,3.5c0,0.4,0.1,0.8,0.6,0.9c0.2,0,0.3,0.2,0.3,0.3c0,0.2-0.2,0.2-0.4,0.3
		C30.7,23,30.2,22.7,30,22C29.9,21.6,30,20.7,30,20.1z"/>
	<path class="st1" d="M33.9,16.9c0.8,0,1.3,0.4,1.4,1.1c0.1,0.2,0.1,0.5-0.2,0.6c-0.3,0.2-0.3-0.2-0.4-0.3c0-0.2,0-0.4,0-0.4
		c-0.2-0.3-0.6-0.3-0.9-0.2c-0.3,0.1-0.4,0.3-0.5,0.6c0,0.6,0.3,0.9,0.7,1.2c0.5,0.4,1,0.9,1.4,1.4c0.4,0.6,0.4,1.2,0.1,1.8
		c-0.2,0.5-1,0.8-1.8,0.6c-0.7-0.2-1-0.6-1.3-1.2c-0.1-0.2-0.1-0.6,0.2-0.6c0.3-0.1,0.4,0.2,0.5,0.4c0,0.1,0,0.2,0.1,0.2
		c0.2,0.6,0.7,0.7,1.2,0.6c0.4-0.2,0.6-0.7,0.3-1.3c-0.2-0.5-0.6-0.8-1-1.1c-0.6-0.5-1.2-1-1.3-1.8C32.5,17.5,33,16.9,33.9,16.9z"/>
	<path class="st1" d="M27.5,17.5c0.3-0.2,0.6-0.4,0.8-0.6c0.2-0.2,0.6-0.2,0.6,0.2c0.1,0.3,0,0.5-0.4,0.6c-1,0.2-1.2,0.4-1.2,1.4
		c0,1.1,0,2.2,0,3.4c0,0.3,0.1,0.7-0.4,0.6c-0.5,0-0.4-0.4-0.4-0.7c0-1.6,0-3.2,0-4.8c0-0.3-0.1-0.6,0.3-0.7
		C27.3,16.9,27.3,17.3,27.5,17.5z"/>
</g>
<g>
	<path class="st1" d="M39.4,5.8c-0.3-0.8-0.5-1.7-1.1-2.5C36.7,1.1,34.7,0,32.2,0h-6C20.1,0,13.9,0,7.6,0C7.5,0,7.5,0,7.5,0
		C4,0,0.1,2.7,0,7.7c0,8,0,16.2,0,24.2c0.1,5.1,4,7.7,7.6,7.7c8.1-0.1,16.1-0.1,24,0h0.1c3.8,0,6.7-2.3,7.6-5.8l0.3-0.1V6.7V6.5
		C39.6,6.3,39.5,6,39.4,5.8z M38.4,33c-0.1,0.1-0.2,0.3-0.2,0.6c-0.8,2.9-3.4,4.8-6.4,4.8h-0.1c-3.8-0.1-7.5-0.1-11.3-0.1
		c-4.2,0-8.4,0-12.8,0c-3,0-6.2-2.2-6.2-6.3c-0.1-8-0.1-16.2,0-24.2c0-4.2,3.2-6.3,6.2-6.3c6.3,0,12.5,0,18.7,0h6
		c2.1,0,3.8,0.9,5.1,2.7c0.5,0.6,0.7,1.3,0.9,2.1c0.1,0.3,0.2,0.5,0.3,0.8V33z"/>
</g>
</svg>
