<?xml version="1.0" encoding="utf-8"?>
<!-- Generator: Adobe Illustrator 25.4.1, SVG Export Plug-In . SVG Version: 6.00 Build 0)  -->
<svg version="1.1" id="Calque_1" xmlns="http://www.w3.org/2000/svg" xmlns:xlink="http://www.w3.org/1999/xlink" x="0px" y="0px"
	 viewBox="0 0 39.7 39.7" style="enable-background:new 0 0 39.7 39.7;" xml:space="preserve">
<style type="text/css">
	.st0{fill:#FFFFFF;}
	.st1{display:none;fill:#FFFFFF;}
	.st2{fill:#0C7189;}
</style>
<rect class="st0" width="39.7" height="39.7"/>
<g id="redux">
	<path class="st1" d="M38,23.5c-2-3.3-4.7-5.7-8-7.3L29.8,13l0,0c0-0.1,0-0.1,0-0.2c-0.3-2.3-0.8-4.4-2-6.5
		c-1.7-2.8-4.1-4.8-7.4-5.3c-0.1,0-0.1-0.1-0.2-0.1c-0.6,0-1.1,0-1.7,0C18.5,1,18.4,1,18.3,1c-2.4,0.3-4.3,1.3-6,2.9
		c-1.9,1.9-3,4.1-3.7,6.4c-0.6,2.2-0.8,4.3-0.7,6.5l-2.4,1.9c-0.3,0.2-0.6,0.4-0.8,0.7c-2,1.7-3.6,3.8-4.4,6.4
		c-0.2,0.6-0.2,1.1-0.3,1.8c0,0.8,0,1.5,0,2.6c0,0.3,0,0.4,0,0.6c0.7,3.9,2.9,6.2,6.6,7.3c2.3,0.7,4.5,0.6,6.8,0.1
		c2.4-0.5,4.5-1.3,6.4-2.5l2.6,1.5c0.3,0.1,0.6,0.3,0.8,0.4c4.1,1.6,8,1.7,11.8-0.6c2.9-1.7,4.4-4.2,4.4-7.6
		C39.6,27.3,39,25.3,38,23.5z"/>
	<path class="st2" d="M0.1,27.6c0.1-0.7,0.1-1.2,0.3-1.8c0.8-2.6,2.4-4.6,4.4-6.4c0.3-0.2,0.6-0.5,0.8-0.7c0,0,0.1,0,0.2-0.1
		c0.1,0.5,0.1,0.9,0.4,1.4c0.5,0.8,0,1.2-0.6,1.8c-2.3,2-3.8,4.3-3.6,7.4c0.2,3.7,2.8,6.4,6.5,6.8c3.5,0.4,6.6-0.5,9.5-2.3
		c2.4-1.4,4.5-3.2,6-5.6c0.1-0.2,0.2-0.4,0.4-0.6c0.5-0.6,0.6-1.1,0.1-1.9c-0.8-1.3-0.1-3.1,1.3-3.8c1.4-0.7,3.2,0.1,3.7,1.5
		c0.6,1.6-0.1,3.2-1.7,3.7c-0.6,0.2-0.8,0.5-1,0.9c-2.9,5.5-7.4,8.8-13.5,10.1c-2.3,0.5-4.5,0.6-6.8-0.1c-3.7-1-5.9-3.4-6.6-7.3
		c0-0.2,0-0.4,0-0.6C0,29.3,0,28.4,0.1,27.6z"/>
	<path class="st2" d="M22.5,37.2c0.7-0.6,1.3-1,2-1.6c0.2-0.2,0.4-0.1,0.6,0c1.8,0.7,3.6,0.9,5.5,0.8c4.9-0.3,8.1-5.4,6.3-10
		c-1.6-4.1-4.6-6.6-8.5-8.3c-2.6-1.2-5.4-1.7-8.3-1.6c-0.3,0-0.5,0-0.7,0.3c-0.7,1.1-1.9,1.6-3,1.3c-1.2-0.4-2.1-1.4-2.1-2.6
		s0.8-2.4,1.9-2.7c1.2-0.4,2.5,0,3.2,1.1c0.2,0.3,0.5,0.3,0.7,0.3c2.5,0,5.1,0.3,7.5,1.1c4.4,1.5,8,4.1,10.5,8.3
		c1,1.8,1.6,3.8,1.6,5.8c0,3.4-1.5,5.9-4.4,7.6c-3.9,2.3-7.8,2.2-11.8,0.6C23.1,37.4,22.8,37.3,22.5,37.2z"/>
	<path class="st2" d="M20.2,1c0.1,0,0.1,0.1,0.2,0.1c3.4,0.5,5.8,2.5,7.4,5.3c1.2,2,1.7,4.1,2,6.5c0.1,0.5-0.1,0.6-0.5,0.4
		c-0.5-0.2-0.9-0.4-1.5-0.5c-0.3-0.1-0.4-0.2-0.5-0.6c-0.4-2.4-1.2-4.6-2.8-6.5c-2-2.3-4.4-2.7-7.4-2c-2.9,0.8-4.7,2.9-5.8,5.7
		c-1.5,3.7-1.4,7.4-0.5,11.1c0.4,1.5,0.9,2.8,1.7,4.1c0.2,0.4,0.4,0.5,0.8,0.5c1.3,0,2.5,0.9,2.7,2.2c0.3,1.3-0.4,2.5-1.5,3.1
		c-1,0.6-2.5,0.3-3.3-0.7c-0.7-0.8-0.9-1.8-0.5-2.8c0.1-0.3,0.1-0.5,0-0.8c-1.6-2.8-2.5-5.8-2.9-9c-0.2-2.4,0-4.7,0.7-7
		c0.7-2.4,1.8-4.5,3.6-6.3c1.7-1.6,3.7-2.7,6-2.9c0.1,0,0.2,0,0.2-0.1C19,1,19.6,1,20.2,1z"/>
</g>
</svg>
