<?xml version="1.0" encoding="utf-8"?>
<!-- Generator: Adobe Illustrator 25.4.1, SVG Export Plug-In . SVG Version: 6.00 Build 0)  -->
<svg version="1.1" id="Calque_1" xmlns="http://www.w3.org/2000/svg" xmlns:xlink="http://www.w3.org/1999/xlink" x="0px" y="0px"
	 viewBox="0 0 39.7 39.7" style="enable-background:new 0 0 39.7 39.7;" xml:space="preserve">
<style type="text/css">
	.st0{fill:#FFFFFF;}
	.st1{fill:#0C7189;}
</style>
<rect class="st0" width="39.7" height="39.7"/>
<g id="Sass">
	<circle class="st1" cx="20" cy="20" r="16.7"/>
	<path class="st1" d="M20,39.8C9.1,39.8,0.2,30.9,0.2,20S9.1,0.2,20,0.2S39.8,9.1,39.8,20S30.9,39.8,20,39.8z M20,2.7
		C10.5,2.7,2.7,10.5,2.7,20S10.5,37.3,20,37.3c7.7,0,14.3-5.2,16.5-12.2c-0.4,0.3-0.9,0.5-1.4,0.6L32.9,26l0.8-2.1
		c0-0.2,0.1-0.5,0.4-0.8c0.3-0.3,0.5-0.6,0.4-0.7c0-0.1-0.2-0.3-0.5-0.6c-0.8-0.5-1.7-0.6-2.9-0.5c0,0.9-0.3,1.8-0.9,2.5
		c-0.8,1-1.9,1.6-3.1,1.6c-0.6,0-1-0.1-1.3-0.3c0,0,0,0-0.1,0.1c-1,1.1-2.5,1.6-4,1.2c-0.4-0.1-0.8-0.3-1-0.5
		c-0.5,0.6-1.3,1.4-2.6,0.8l0,0h-0.1v-0.1c-0.1-0.1-0.2-0.1-0.3-0.2c-0.6,0.7-1.4,0.8-1.9,0.8l0,0c-0.9,0-1.5-0.5-1.9-0.9
		c-0.6,1.5-1.8,2.6-3.4,3.3c-0.4,0.2-0.8,0.3-1.2,0.4l-0.8,0.2H7.8L7.6,30c-2.3-1-3.1-2.9-2.3-5.2c0.2-0.5,0.5-1.1,1-1.6
		C7.1,22.7,8.1,22,9,21.5c-1.9-1.3-4-2.8-5.1-5.4l-0.1-0.2v-1.4l0.1-0.2C4.8,11.9,6.5,9.8,9,8.1c3.6-2.4,6.6-3.5,9.8-3.7
		c1.8-0.1,3.4,0.2,4.8,0.9c2.1,1.1,3.1,3.4,2.4,5.7c-0.5,1.7-1.3,3-2.5,4.1c0.7-0.1,1.4,0,1.9,0.5c0.1,0.1,0.2,0.2,0.3,0.3
		c0.3-0.9,0.8-1.4,1.5-1.5h0.2c0.4-0.1,1.4-0.3,2.2,0.3c0.4,0.3,1.1,1.1,0.4,2.4c-0.1,0.4-0.1,0.8,0,1.2c1.4-0.5,2.9-0.4,4.4,0
		c1.3,0.4,2.3,1.2,2.9,2.3c0-0.1,0-0.2,0-0.3C37.3,10.5,29.5,2.7,20,2.7z M8.3,27.7h0.3c0.1,0,0.2-0.1,0.3-0.1
		c0.3-0.1,0.6-0.2,0.9-0.3c1.8-0.8,2.7-2.7,2.2-4.7l0,0c-0.3,0.3-0.6,0.4-0.7,0.5c-1,0.5-2.2,1.2-3.1,2.2c-0.2,0.3-0.4,0.5-0.5,0.7
		C7.4,26.8,7.5,27.2,8.3,27.7z M16.4,20.2l-0.3,0.9c-0.4,1.5-0.5,2.5,0,3.5l2.4-4.7c-0.2-0.3-0.3-0.6-0.4-1.1l0,0
		c-0.1,0.1-0.5,0.2-0.7,0.4C17.1,19.6,16.7,20,16.4,20.2z M28.3,22.1c-0.2,0.2-0.4,0.4-0.5,0.6c0.1-0.1,0.2-0.2,0.3-0.3
		C28.2,22.2,28.3,22.1,28.3,22.1z M18.8,20.3v0.2C18.9,20.4,18.9,20.3,18.8,20.3C18.9,20.3,18.8,20.3,18.8,20.3z M11.1,12.2
		c-0.5,0.4-0.9,0.8-1.3,1.2c-0.7,0.7-1,1.4-1,2s0.4,1.2,1.2,1.9c0.6,0.5,1.1,1,1.7,1.4c0.3,0.3,0.6,0.5,1,0.8
		c0.2-0.1,0.4-0.2,0.7-0.4c0.8-0.4,1.6-0.8,2.1-1.4l0,0c-0.5,0-0.9-0.1-1.4-0.3c-1.6-0.4-2.6-1.6-2.8-3.1L11.1,12.2z M20.6,18.1
		c0.1,0,0.1,0.1,0.2,0.1c0.3-0.6,0.5-1.2,0.7-1.8c0-0.1,0-0.1,0.1-0.2c-0.5,0.2-1,0.5-1.5,0.7C20.3,17.2,20.5,17.6,20.6,18.1z
		 M11.8,11.7l1.7,1.6c0.9,0.8,1.8,0.9,3.6,0.5c1.8-0.4,3.3-1.3,4.4-2.7c0.8-1,0.7-1.5,0.6-1.8c-0.2-0.4-0.6-0.5-1.8-0.6
		C18.6,8.6,17,9,15.1,9.8C13.7,10.5,12.7,11.1,11.8,11.7z"/>
	<path class="st0" d="M11.5,22.7c-0.7,0.5-1.4,0.9-2,1.5c-0.7,0.5-1.1,1.2-1.2,2.1c-0.1,0.9,0.3,1.2,1.2,1c1.7-0.4,2.9-2,2.9-3.8
		c0-0.1,0-0.2,0-0.3C12.3,22.2,12.2,22.2,11.5,22.7z"/>
	<path class="st0" d="M24.3,22.6c-0.4,0.5-0.9,1-1.3,1.6C23.8,23.9,24.3,23.5,24.3,22.6z"/>
	<path class="st0" d="M18.4,18.7c-0.3-0.1-0.5,0-0.7,0.2c-1.2,0.8-2.1,3.6-1.7,5c0,0.1,0.1,0.3,0.3,0.4c0.2,0,0.3-0.2,0.4-0.3
		c0.8-1.5,1.4-3.1,1.8-4.6C18.6,19,18.6,18.8,18.4,18.7z"/>
	<path class="st0" d="M27.3,22.8c0,0.1-0.1,0.3,0,0.4c0.1,0.2,0.3,0,0.4-0.1c0.7-0.4,1-1.1,0.8-2C27.8,21.6,27.6,22.2,27.3,22.8z"/>
	<path class="st0" d="M20,1.4C9.8,1.4,1.4,9.8,1.4,20S9.8,38.6,20,38.6S38.6,30.2,38.6,20S30.2,1.4,20,1.4z M34.9,24.3
		c0-0.1,0-0.2,0.1-0.2c1.2-1.1,1.2-2.5-0.3-3.4c-1.4-0.9-3-0.9-4.6-0.5c-0.4,0.1-0.4,0.3-0.3,0.7c0.3,1.6-1,3.2-2.7,3.3
		c-0.5,0-0.8-0.3-0.8-0.8c0-1,0.5-1.8,1.2-2.4c0.4-0.4,0.5-0.7,0.2-1.3c-0.3-0.5-0.4-1-0.6-1.7c-0.6,1-1.2,1.9-1.7,2.8
		c-0.2,0.2,0,0.5,0,0.7c0.6,2.1-1.3,4.1-3.4,3.6c-0.6-0.1-0.6-0.5-0.3-0.9c0.5-0.7,1.1-1.4,1.6-2c0.4-0.5,0.5-0.8,0.2-1.4
		c-0.3-0.5-0.4-1.1-0.7-1.8c-0.3,0.3-0.4,0.6-0.5,0.9c-0.6,1.6-1.4,3.1-2.3,4.5c-0.1,0.1-0.1,0.2-0.2,0.3c-0.3,0.4-0.7,1-1.3,0.7
		c-0.6-0.2-0.8-0.9-0.7-1.5c0-0.1,0-0.2-0.1-0.5c-0.3,0.7-0.6,1.2-0.8,1.7c-0.2,0.5-0.6,0.8-1.2,0.8s-0.9-0.4-1.1-0.9
		c-0.7-1.4-0.6-2.8-0.1-4.4c-0.5,0.3-0.8,0.5-1.2,0.6c-0.4,0.2-0.5,0.4-0.4,0.9c0.7,2.6-0.5,5.2-3,6.3c-0.5,0.2-1,0.3-1.5,0.5
		c-0.3,0-0.5,0-0.8,0c-1.6-0.7-2.2-1.9-1.6-3.5c0.2-0.4,0.4-0.8,0.7-1.1c1-1.1,2.2-1.8,3.5-2.5c0.6-0.3,0.7-0.5,0.1-0.9
		c-2.2-1.5-4.6-2.9-5.6-5.5c0-0.3,0-0.6,0-1c0.9-2.4,2.5-4.2,4.6-5.6c2.8-1.8,5.8-3.3,9.1-3.5c1.4-0.1,2.8,0.1,4.2,0.8
		c1.6,0.8,2.3,2.4,1.8,4.2c-1,3.2-3.3,4.9-6.4,5.6c-1.3,0.3-2.7,0.4-4.1,0c-1.1-0.3-1.7-1-1.8-1.9c1.5,1.3,3.1,1.2,4.8,0.9
		c2.1-0.5,3.8-1.5,5.1-3.2c0.7-0.9,1.3-2,0.7-3.1c-0.6-1.2-1.8-1.2-2.9-1.3c-2-0.1-3.9,0.4-5.7,1.2c-2.1,0.9-4.1,2.1-5.7,3.8
		c-1.9,2-1.8,4,0.3,5.8c1,0.9,2,1.7,3,2.5c0.3,0.2,0.5,0.2,0.8,0c1.2-0.7,2.5-1.2,3.5-2.3c0.3-0.4,0.7-0.6,1.2-0.8
		c1.1-0.5,1.7-0.2,1.8,1c0,0.4,0.1,0.6,0.6,0.7c0.5,0,0.5,0.4,0.4,0.8c-0.2,0.8-0.4,1.6-0.6,2.4c-0.1,0.4-0.1,0.8-0.1,1.3
		c0.5-0.4,0.6-0.9,0.8-1.3c0.8-1.9,1.8-3.8,2.5-5.8c0.2-0.5,1.3-0.8,1.8-0.4c0.3,0.3,0.1,0.5,0,0.8c-0.3,1-0.3,1.9,0.3,3
		c0.8-1.3,1.5-2.4,2-3.8c0.1-0.4,0.1-0.9,0.6-1c0.4-0.1,0.9-0.3,1.3,0c0.4,0.3,0,0.8-0.1,1.1c-0.2,0.9-0.1,1.7,0.3,2.5
		c0.2,0.5,0.4,0.6,1,0.4c1.3-0.5,2.7-0.6,4-0.2c1.6,0.5,2.6,1.9,2.5,3.3C36.4,23.5,35.8,24.2,34.9,24.3z"/>
</g>
</svg>
