<?xml version="1.0" encoding="utf-8"?>
<!-- Generator: Adobe Illustrator 25.4.1, SVG Export Plug-In . SVG Version: 6.00 Build 0)  -->
<svg version="1.1" id="Calque_1" xmlns="http://www.w3.org/2000/svg" xmlns:xlink="http://www.w3.org/1999/xlink" x="0px" y="0px"
	 viewBox="0 0 40 40" style="enable-background:new 0 0 40 40;" xml:space="preserve">
<style type="text/css">
	.st0{fill:#FFFFFF;}
	.st1{fill:#0C7189;}
</style>
<g id="styled_00000135685687665643254140000011095356726551034046_">
	<g>
		<path class="st0" d="M37.8,39.5H2.2c-1,0-1.7-0.8-1.7-1.7V2.2c0-1,0.8-1.7,1.7-1.7h35.6c1,0,1.7,0.8,1.7,1.7v35.6
			C39.5,38.7,38.7,39.5,37.8,39.5z"/>
		<path class="st1" d="M37.8,40H2.2C1,40,0,39,0,37.8V2.2C0,1,1,0,2.2,0h35.7C39,0,40,1,40,2.2v35.7C40,39,39,40,37.8,40z M2.2,1
			C1.5,1,1,1.5,1,2.2v35.7C1,38.5,1.5,39,2.2,39h35.7c0.7,0,1.2-0.5,1.2-1.2V2.2C39,1.5,38.5,1,37.8,1H2.2z"/>
	</g>
	<g>
		<path class="st1" d="M3.9,30.1c0.2,0.1,0.5,0.2,0.8,0.2c0.3,0,0.4-0.1,0.4-0.2c0-0.1-0.1-0.2-0.4-0.3c-0.6-0.2-0.8-0.5-0.8-0.9
			C3.9,28.4,4.3,28,5,28c0.3,0,0.6,0.1,0.8,0.2l-0.2,0.6c-0.1-0.1-0.4-0.2-0.6-0.2c-0.2,0-0.3,0.1-0.3,0.2c0,0.1,0.1,0.2,0.5,0.3
			c0.5,0.2,0.8,0.5,0.8,0.9c0,0.5-0.4,0.9-1.2,0.9c-0.4,0-0.7-0.1-0.9-0.2L3.9,30.1z"/>
		<path class="st1" d="M7.5,27.2v0.8h0.6v0.7H7.5v1c0,0.3,0.1,0.5,0.3,0.5c0.1,0,0.2,0,0.3,0l0,0.7C8,30.9,7.8,31,7.5,31
			c-0.3,0-0.5-0.1-0.7-0.2c-0.2-0.2-0.2-0.4-0.2-0.8v-1.2H6.2v-0.7h0.4v-0.6L7.5,27.2z"/>
		<path class="st1" d="M9.3,28.1l0.4,1.4c0,0.2,0.1,0.4,0.1,0.5h0c0-0.2,0.1-0.4,0.1-0.5l0.3-1.4h0.9l-0.7,1.9
			c-0.4,1.1-0.7,1.6-1,1.9c-0.3,0.3-0.6,0.4-0.9,0.4l-0.2-0.7c0.1,0,0.2-0.1,0.4-0.2c0.1-0.1,0.3-0.2,0.4-0.4c0,0,0-0.1,0-0.1
			c0,0,0-0.1,0-0.1l-1-2.6H9.3z"/>
		<path class="st1" d="M11.7,26.8h0.9v4.1h-0.9V26.8z"/>
		<path class="st1" d="M14,29.8c0,0.4,0.4,0.5,0.8,0.5c0.3,0,0.5,0,0.8-0.1l0.1,0.6c-0.3,0.1-0.6,0.2-1,0.2c-1,0-1.5-0.6-1.5-1.4
			c0-0.7,0.4-1.5,1.4-1.5c0.9,0,1.3,0.7,1.3,1.4c0,0.2,0,0.3,0,0.3H14z M15,29.2c0-0.2-0.1-0.6-0.5-0.6c-0.4,0-0.5,0.3-0.5,0.6H15z"
			/>
		<path class="st1" d="M19.1,26.8v3.3c0,0.3,0,0.7,0,0.8h-0.8l0-0.4h0c-0.2,0.3-0.5,0.5-0.9,0.5c-0.7,0-1.2-0.6-1.2-1.5
			c0-1,0.6-1.5,1.3-1.5c0.3,0,0.6,0.1,0.7,0.3h0v-1.5H19.1z M18.2,29.3c0,0,0-0.1,0-0.2c-0.1-0.2-0.2-0.4-0.5-0.4
			c-0.4,0-0.6,0.4-0.6,0.8c0,0.5,0.2,0.8,0.6,0.8c0.3,0,0.5-0.2,0.5-0.4c0-0.1,0-0.1,0-0.2V29.3z"/>
		<path class="st1" d="M6.1,36c-0.2,0.1-0.5,0.1-0.8,0.1c-0.9,0-1.5-0.6-1.5-1.5c0-0.8,0.6-1.5,1.6-1.5c0.2,0,0.5,0,0.7,0.1L6,33.9
			c-0.1,0-0.3-0.1-0.5-0.1c-0.5,0-0.8,0.3-0.8,0.8c0,0.5,0.3,0.8,0.8,0.8c0.2,0,0.4,0,0.5-0.1L6.1,36z"/>
		<path class="st1" d="M9.3,34.6c0,1-0.7,1.5-1.5,1.5c-0.8,0-1.5-0.5-1.5-1.5c0-0.9,0.6-1.5,1.5-1.5C8.7,33.2,9.3,33.8,9.3,34.6z
			 M7.3,34.6c0,0.5,0.2,0.9,0.6,0.9c0.3,0,0.6-0.3,0.6-0.9c0-0.4-0.2-0.9-0.6-0.9C7.4,33.8,7.3,34.2,7.3,34.6z"/>
		<path class="st1" d="M9.9,34.1c0-0.4,0-0.7,0-0.9h0.7l0,0.4h0c0.1-0.2,0.4-0.4,0.9-0.4c0.4,0,0.7,0.2,0.8,0.5h0
			c0.1-0.1,0.2-0.3,0.4-0.3c0.2-0.1,0.3-0.1,0.5-0.1c0.5,0,1,0.4,1,1.2v1.7h-0.9v-1.5c0-0.4-0.1-0.7-0.4-0.7c-0.2,0-0.3,0.1-0.4,0.3
			c0,0.1,0,0.2,0,0.2v1.7h-0.9v-1.6c0-0.4-0.1-0.6-0.4-0.6c-0.2,0-0.4,0.2-0.4,0.3c0,0.1,0,0.2,0,0.2v1.7H9.9V34.1z"/>
		<path class="st1" d="M14.9,34.2c0-0.4,0-0.7,0-1h0.8l0,0.4h0c0.2-0.3,0.5-0.5,0.9-0.5c0.6,0,1.2,0.5,1.2,1.4c0,1-0.7,1.5-1.3,1.5
			c-0.3,0-0.6-0.1-0.7-0.3h0v1.4h-0.9V34.2z M15.7,34.8c0,0.1,0,0.1,0,0.2c0.1,0.2,0.3,0.4,0.5,0.4c0.4,0,0.6-0.3,0.6-0.8
			c0-0.5-0.2-0.8-0.6-0.8c-0.2,0-0.5,0.2-0.5,0.4c0,0,0,0.1,0,0.2V34.8z"/>
		<path class="st1" d="M21.2,34.6c0,1-0.7,1.5-1.5,1.5c-0.8,0-1.5-0.5-1.5-1.5c0-0.9,0.6-1.5,1.5-1.5C20.6,33.2,21.2,33.8,21.2,34.6
			z M19.1,34.6c0,0.5,0.2,0.9,0.6,0.9c0.3,0,0.6-0.3,0.6-0.9c0-0.4-0.2-0.9-0.6-0.9C19.3,33.8,19.1,34.2,19.1,34.6z"/>
		<path class="st1" d="M21.7,34.1c0-0.4,0-0.7,0-0.9h0.8l0,0.4h0c0.1-0.2,0.4-0.5,0.9-0.5c0.6,0,1,0.4,1,1.2v1.7h-0.9v-1.6
			c0-0.4-0.1-0.6-0.4-0.6c-0.2,0-0.4,0.2-0.4,0.3c0,0.1,0,0.1,0,0.2v1.6h-0.9V34.1z"/>
		<path class="st1" d="M25.8,34.9c0,0.4,0.4,0.5,0.8,0.5c0.3,0,0.5,0,0.8-0.1l0.1,0.6c-0.3,0.1-0.6,0.2-1,0.2c-1,0-1.5-0.6-1.5-1.4
			c0-0.7,0.4-1.5,1.4-1.5c0.9,0,1.3,0.7,1.3,1.4c0,0.2,0,0.3,0,0.3H25.8z M26.8,34.3c0-0.2-0.1-0.6-0.5-0.6c-0.4,0-0.5,0.3-0.5,0.6
			H26.8z"/>
		<path class="st1" d="M28.2,34.1c0-0.4,0-0.7,0-0.9h0.8l0,0.4h0c0.1-0.2,0.4-0.5,0.9-0.5c0.6,0,1,0.4,1,1.2v1.7H30v-1.6
			c0-0.4-0.1-0.6-0.4-0.6c-0.2,0-0.4,0.2-0.4,0.3c0,0.1,0,0.1,0,0.2v1.6h-0.9V34.1z"/>
		<path class="st1" d="M32.5,32.4v0.8h0.6v0.7h-0.6v1c0,0.3,0.1,0.5,0.3,0.5c0.1,0,0.2,0,0.3,0l0,0.7c-0.1,0-0.3,0.1-0.6,0.1
			c-0.3,0-0.5-0.1-0.7-0.2c-0.2-0.2-0.2-0.4-0.2-0.8v-1.2h-0.4v-0.7h0.4v-0.6L32.5,32.4z"/>
		<path class="st1" d="M33.7,35.3c0.2,0.1,0.5,0.2,0.8,0.2c0.3,0,0.4-0.1,0.4-0.2c0-0.1-0.1-0.2-0.4-0.3c-0.6-0.2-0.8-0.5-0.8-0.9
			c0-0.5,0.5-0.9,1.2-0.9c0.3,0,0.6,0.1,0.8,0.2l-0.2,0.6c-0.1-0.1-0.4-0.2-0.6-0.2c-0.2,0-0.3,0.1-0.3,0.2c0,0.1,0.1,0.2,0.5,0.3
			c0.5,0.2,0.8,0.5,0.8,0.9c0,0.5-0.4,0.9-1.2,0.9c-0.4,0-0.7-0.1-0.9-0.2L33.7,35.3z"/>
	</g>
	<path class="st1" d="M18,20.7c-1.1,0-2.2,0-3.3,0c-0.7,0-0.9-0.2-0.9-0.9c0-1,0-2.1,0-3.1c0-0.3,0.1-0.6,0.3-0.8
		c1.8-1.3,3.4-2.9,5.1-4.3c0.3-0.2,0.6-0.4,1-0.6c0.3-0.2,0.6-0.2,0.9,0c0.3,0.2,0.3,0.5,0.2,0.8c-0.1,0.3-0.3,0.6-0.4,1
		c-0.1,0.2-0.2,0.4-0.1,0.5c0.2,0.2,0.3-0.1,0.5-0.2c0.6-0.4,1.1-0.9,1.7-1.3c0.3-0.2,0.7-0.4,1-0.1c0.4,0.3,0.2,0.7,0.1,1.1
		c-0.1,0.4-0.6,0.7-0.6,1.2c0,0.2-0.2,0.6,0.2,0.7c0.2,0.1,0.5-0.2,0.6-0.4c0.9-1.5,1.2-3.2,1.6-4.9c0.1-0.4-0.1-0.6-0.4-0.7
		c-0.7-0.4-0.4-1.1-0.3-1.6c0.1-0.6,0.6-0.5,1-0.5c2,0,1.8-0.4,1.8,1.9c0,0.5,0,0.9-0.7,1c-0.3,0-0.4,0.3-0.4,0.6
		c-0.3,1.3-0.8,2.5-1.1,3.8c-0.2,0.8-0.6,1.5-1,2.3c-0.1,0.2-0.2,0.5-0.2,0.7c0,1.7-1.2,2.7-2.3,3.7c-0.2,0.2-0.6,0.2-0.9,0.2
		C20.2,20.7,19.1,20.7,18,20.7C18,20.7,18,20.7,18,20.7z"/>
	<path class="st1" d="M9.2,11.1c0.3,0,0.4,0.3,0.5,0.5c0.1,0.3-0.1,0.4-0.3,0.5c-1,0.6-2,1.3-3,1.9c-0.4,0.2-0.7,0.5-1.1,0.7
		c-0.4,0.2-0.4,0.4,0,0.7c1.2,0.7,2.4,1.5,3.6,2.3c0.2,0.1,0.3,0.2,0.5,0.3c0.2,0.2,0.4,0.3,0.2,0.6c-0.2,0.3-0.4,0.4-0.7,0.2
		c-1.6-1-3.2-2-4.8-3c-0.4-0.3-0.5-1.2-0.1-1.4c1.6-1.1,3.3-2.1,5-3.1C9.1,11.1,9.2,11.1,9.2,11.1z"/>
	<path class="st1" d="M36.2,14.8c0.1,0.4-0.1,0.7-0.4,0.9c-1.5,0.9-3,1.8-4.4,2.8c-0.4,0.2-0.6,0.3-0.9-0.1
		c-0.3-0.4,0.1-0.5,0.3-0.7c1.3-0.8,2.5-1.6,3.8-2.4c0.5-0.3,0.5-0.5,0-0.8c-1.3-0.8-2.6-1.6-3.8-2.4c-0.3-0.2-0.6-0.3-0.3-0.8
		c0.3-0.5,0.6-0.3,0.9-0.1c1.4,0.9,2.9,1.8,4.3,2.7C36,14.1,36.3,14.4,36.2,14.8z"/>
</g>
</svg>
