<?xml version="1.0" encoding="utf-8"?>
<!-- Generator: Adobe Illustrator 25.4.1, SVG Export Plug-In . SVG Version: 6.00 Build 0)  -->
<svg version="1.1" id="Calque_1" xmlns="http://www.w3.org/2000/svg" xmlns:xlink="http://www.w3.org/1999/xlink" x="0px" y="0px"
	 viewBox="0 0 39.7 39.7" style="enable-background:new 0 0 39.7 39.7;" xml:space="preserve">
<style type="text/css">
	.st0{fill:#FFFFFF;}
	.st1{fill:#0C7189;}
</style>
<rect class="st0" width="39.7" height="39.7"/>
<g id="styled_00000135685687665643254140000011095356726551034046_">
	<g>
		<path class="st0" d="M37.7,39.3H2.3c-1,0-1.7-0.8-1.7-1.7V2.3c0-1,0.8-1.7,1.7-1.7h35.3c1,0,1.7,0.8,1.7,1.7v35.3
			C39.3,38.6,38.6,39.3,37.7,39.3z"/>
		<path class="st1" d="M37.7,39.8H2.3c-1.2,0-2.2-1-2.2-2.2V2.3c0-1.2,1-2.2,2.2-2.2h35.4c1.1,0,2.1,1,2.1,2.2v35.4
			C39.8,38.9,38.9,39.8,37.7,39.8z M2.3,1.1c-0.7,0-1.2,0.5-1.2,1.2v35.4c0,0.6,0.5,1.1,1.2,1.1h35.4c0.7,0,1.2-0.5,1.2-1.2V2.3
			c-0.1-0.7-0.6-1.2-1.3-1.2H2.3z"/>
	</g>
	<g>
		<path class="st1" d="M4,30c0.2,0.1,0.5,0.2,0.8,0.2s0.4-0.1,0.4-0.2s-0.1-0.2-0.4-0.3C4.2,29.5,4,29.2,4,28.8
			c0-0.5,0.4-0.9,1.1-0.9c0.3,0,0.6,0.1,0.8,0.2l-0.2,0.6c-0.1-0.1-0.4-0.2-0.6-0.2c-0.2,0-0.3,0.1-0.3,0.2s0.1,0.2,0.5,0.3
			c0.5,0.2,0.8,0.5,0.8,0.9c0,0.5-0.4,0.9-1.2,0.9c-0.4,0-0.7-0.1-0.9-0.2V30z"/>
		<path class="st1" d="M7.6,27.1v0.8h0.6v0.7H7.6v1c0,0.3,0.1,0.5,0.3,0.5c0.1,0,0.2,0,0.3,0v0.7c-0.1,0-0.3,0.1-0.6,0.1
			s-0.5-0.1-0.7-0.2c-0.2-0.2-0.2-0.4-0.2-0.8v-1.2H6.3V28h0.4v-0.6L7.6,27.1z"/>
		<path class="st1" d="M9.4,28l0.4,1.4c0,0.2,0.1,0.4,0.1,0.5l0,0c0-0.2,0.1-0.4,0.1-0.5l0.3-1.4h0.9l-0.7,1.9
			c-0.4,1.1-0.7,1.6-1,1.9c-0.3,0.3-0.6,0.4-0.9,0.4l-0.2-0.7c0.1,0,0.2-0.1,0.4-0.2c0.1-0.1,0.3-0.2,0.4-0.4v-0.1v-0.1l-1-2.6
			L9.4,28L9.4,28z"/>
		<path class="st1" d="M11.8,26.7h0.9v4.1h-0.9V26.7z"/>
		<path class="st1" d="M14,29.7c0,0.4,0.4,0.5,0.8,0.5c0.3,0,0.5,0,0.8-0.1l0.1,0.6c-0.3,0.1-0.6,0.2-1,0.2c-1,0-1.5-0.6-1.5-1.4
			c0-0.7,0.4-1.5,1.4-1.5c0.9,0,1.3,0.7,1.3,1.4c0,0.2,0,0.3,0,0.3H14z M15,29.1c0-0.2-0.1-0.6-0.5-0.6c-0.4,0-0.5,0.3-0.5,0.6H15z"
			/>
		<path class="st1" d="M19.1,26.7V30c0,0.3,0,0.7,0,0.8h-0.8v-0.4l0,0c-0.2,0.3-0.5,0.5-0.9,0.5c-0.7,0-1.2-0.6-1.2-1.5
			c0-1,0.6-1.5,1.3-1.5c0.3,0,0.6,0.1,0.7,0.3l0,0v-1.5C18.2,26.7,19.1,26.7,19.1,26.7z M18.2,29.2c0,0,0-0.1,0-0.2
			c-0.1-0.2-0.2-0.4-0.5-0.4c-0.4,0-0.6,0.4-0.6,0.8c0,0.5,0.2,0.8,0.6,0.8c0.3,0,0.5-0.2,0.5-0.4c0-0.1,0-0.1,0-0.2V29.2z"/>
		<path class="st1" d="M6.2,35.9C6,36,5.7,36,5.4,36c-0.9,0-1.5-0.6-1.5-1.5c0-0.8,0.6-1.5,1.6-1.5c0.2,0,0.5,0,0.7,0.1l-0.1,0.7
			c-0.1,0-0.3-0.1-0.5-0.1c-0.5,0-0.8,0.3-0.8,0.8s0.3,0.8,0.8,0.8c0.2,0,0.4,0,0.5-0.1L6.2,35.9z"/>
		<path class="st1" d="M9.4,34.5c0,1-0.7,1.5-1.5,1.5s-1.5-0.5-1.5-1.5C6.4,33.6,7,33,7.9,33C8.8,33.1,9.4,33.7,9.4,34.5z M7.4,34.5
			c0,0.5,0.2,0.9,0.6,0.9c0.3,0,0.6-0.3,0.6-0.9c0-0.4-0.2-0.9-0.6-0.9C7.5,33.7,7.4,34.1,7.4,34.5z"/>
		<path class="st1" d="M10,34c0-0.4,0-0.7,0-0.9h0.7v0.4l0,0c0.1-0.2,0.4-0.4,0.9-0.4c0.4,0,0.7,0.2,0.8,0.5l0,0
			c0.1-0.1,0.2-0.3,0.4-0.3c0.2-0.1,0.3-0.1,0.5-0.1c0.5,0,1,0.4,1,1.2v1.7h-0.9v-1.5c0-0.4-0.1-0.7-0.4-0.7c-0.2,0-0.3,0.1-0.4,0.3
			c0,0.1,0,0.2,0,0.2v1.7h-0.9v-1.6c0-0.4-0.1-0.6-0.4-0.6c-0.2,0-0.4,0.2-0.4,0.3c0,0.1,0,0.2,0,0.2v1.7H10V34z"/>
		<path class="st1" d="M14.9,34.1c0-0.4,0-0.7,0-1h0.8v0.4l0,0c0.2-0.3,0.5-0.5,0.9-0.5c0.6,0,1.2,0.5,1.2,1.4c0,1-0.7,1.5-1.3,1.5
			c-0.3,0-0.6-0.1-0.7-0.3l0,0V37h-0.9C14.9,37,14.9,34.1,14.9,34.1z M15.7,34.7c0,0.1,0,0.1,0,0.2c0.1,0.2,0.3,0.4,0.5,0.4
			c0.4,0,0.6-0.3,0.6-0.8s-0.2-0.8-0.6-0.8c-0.2,0-0.5,0.2-0.5,0.4c0,0,0,0.1,0,0.2C15.7,34.3,15.7,34.7,15.7,34.7z"/>
		<path class="st1" d="M21.2,34.5c0,1-0.7,1.5-1.5,1.5c-0.8,0-1.5-0.5-1.5-1.5c0-0.9,0.6-1.5,1.5-1.5C20.6,33.1,21.2,33.7,21.2,34.5
			z M19.1,34.5c0,0.5,0.2,0.9,0.6,0.9c0.3,0,0.6-0.3,0.6-0.9c0-0.4-0.2-0.9-0.6-0.9C19.3,33.7,19.1,34.1,19.1,34.5z"/>
		<path class="st1" d="M21.7,34c0-0.4,0-0.7,0-0.9h0.8v0.4l0,0c0.1-0.2,0.4-0.5,0.9-0.5c0.6,0,1,0.4,1,1.2v1.7h-0.9v-1.6
			c0-0.4-0.1-0.6-0.4-0.6c-0.2,0-0.4,0.2-0.4,0.3s0,0.1,0,0.2v1.6h-0.9L21.7,34L21.7,34z"/>
		<path class="st1" d="M25.8,34.8c0,0.4,0.4,0.5,0.8,0.5c0.3,0,0.5,0,0.8-0.1l0.1,0.6c-0.3,0.1-0.6,0.2-1,0.2c-1,0-1.5-0.6-1.5-1.4
			c0-0.7,0.4-1.5,1.4-1.5c0.9,0,1.3,0.7,1.3,1.4c0,0.2,0,0.3,0,0.3H25.8z M26.7,34.2c0-0.2-0.1-0.6-0.5-0.6s-0.5,0.3-0.5,0.6H26.7z"
			/>
		<path class="st1" d="M28.1,34c0-0.4,0-0.7,0-0.9h0.8v0.4l0,0c0.1-0.2,0.4-0.5,0.9-0.5c0.6,0,1,0.4,1,1.2v1.7h-0.9v-1.6
			c0-0.4-0.1-0.6-0.4-0.6c-0.2,0-0.4,0.2-0.4,0.3s0,0.1,0,0.2v1.6h-0.9L28.1,34L28.1,34z"/>
		<path class="st1" d="M32.4,32.3v0.8H33v0.7h-0.6v1c0,0.3,0.1,0.5,0.3,0.5c0.1,0,0.2,0,0.3,0V36c-0.1,0-0.3,0.1-0.6,0.1
			c-0.3,0-0.5-0.1-0.7-0.2c-0.2-0.2-0.2-0.4-0.2-0.8v-1.2h-0.4v-0.7h0.4v-0.6L32.4,32.3z"/>
		<path class="st1" d="M33.6,35.2c0.2,0.1,0.5,0.2,0.8,0.2s0.4-0.1,0.4-0.2c0-0.1-0.1-0.2-0.4-0.3c-0.6-0.2-0.8-0.5-0.8-0.9
			c0-0.5,0.5-0.9,1.2-0.9c0.3,0,0.6,0.1,0.8,0.2l-0.2,0.6c-0.1-0.1-0.4-0.2-0.6-0.2c-0.2,0-0.3,0.1-0.3,0.2s0.1,0.2,0.5,0.3
			c0.5,0.2,0.8,0.5,0.8,0.9c0,0.5-0.4,0.9-1.2,0.9c-0.4,0-0.7-0.1-0.9-0.2L33.6,35.2z"/>
	</g>
	<path class="st1" d="M18,20.7c-1.1,0-2.2,0-3.3,0c-0.7,0-0.9-0.2-0.9-0.9c0-1,0-2.1,0-3.1c0-0.3,0.1-0.6,0.3-0.8
		c1.8-1.3,3.4-2.9,5.1-4.3c0.3-0.2,0.6-0.4,1-0.6c0.3-0.2,0.6-0.2,0.9,0c0.3,0.2,0.3,0.5,0.2,0.8c-0.1,0.3-0.3,0.6-0.4,1
		c-0.1,0.2-0.2,0.4-0.1,0.5c0.2,0.2,0.3-0.1,0.5-0.2c0.6-0.4,1.1-0.9,1.7-1.3c0.3-0.2,0.7-0.4,1-0.1c0.4,0.3,0.2,0.7,0.1,1.1
		s-0.6,0.7-0.6,1.2c0,0.2-0.2,0.6,0.2,0.7c0.2,0.1,0.5-0.2,0.6-0.4c0.9-1.5,1.2-3.2,1.6-4.9c0.1-0.4-0.1-0.6-0.4-0.7
		c-0.7-0.4-0.4-1.1-0.3-1.6c0.1-0.6,0.6-0.5,1-0.5c2,0,1.8-0.4,1.8,1.9c0,0.5,0,0.9-0.7,1c-0.3,0-0.4,0.3-0.4,0.6
		c-0.3,1.3-0.8,2.5-1.1,3.8c-0.2,0.8-0.6,1.5-1,2.3c-0.1,0.2-0.2,0.5-0.2,0.7c0,1.7-1.2,2.7-2.3,3.7c-0.2,0.2-0.6,0.2-0.9,0.2
		C20.2,20.7,19.1,20.7,18,20.7L18,20.7z"/>
	<path class="st1" d="M9.3,11.2c0.3,0,0.4,0.3,0.5,0.5c0.1,0.3-0.1,0.4-0.3,0.5c-1,0.6-2,1.3-3,1.9c-0.4,0.2-0.7,0.5-1.1,0.7
		s-0.4,0.4,0,0.7c1.2,0.7,2.4,1.5,3.6,2.3c0.2,0.1,0.3,0.2,0.5,0.3c0.2,0.2,0.4,0.3,0.2,0.6C9.5,18.9,9.3,19,9,18.8
		c-1.6-1-3.2-2-4.8-3c-0.4-0.3-0.5-1.2-0.1-1.4c1.6-1.1,3.3-2.1,5-3.1C9.2,11.2,9.3,11.2,9.3,11.2z"/>
	<path class="st1" d="M36.1,14.8c0.1,0.4-0.1,0.7-0.4,0.9c-1.5,0.9-3,1.8-4.4,2.8c-0.4,0.2-0.6,0.3-0.9-0.1
		c-0.3-0.4,0.1-0.5,0.3-0.7c1.3-0.8,2.5-1.6,3.8-2.4c0.5-0.3,0.5-0.5,0-0.8c-1.3-0.8-2.6-1.6-3.8-2.4c-0.3-0.2-0.6-0.3-0.3-0.8
		s0.6-0.3,0.9-0.1c1.4,0.9,2.9,1.8,4.3,2.7C35.9,14.1,36.2,14.4,36.1,14.8z"/>
</g>
</svg>
