<?xml version="1.0" encoding="utf-8"?>
<!-- Generator: Adobe Illustrator 25.4.1, SVG Export Plug-In . SVG Version: 6.00 Build 0)  -->
<svg version="1.1" id="Calque_1" xmlns="http://www.w3.org/2000/svg" xmlns:xlink="http://www.w3.org/1999/xlink" x="0px" y="0px"
	 viewBox="0 0 39.7 39.7" style="enable-background:new 0 0 39.7 39.7;" xml:space="preserve">
<style type="text/css">
	.st0{fill:#FFFFFF;}
	.st1{fill:#0C7189;}
</style>
<rect class="st0" width="39.7" height="39.7"/>
<g>
	<path class="st1" d="M30.3,39.7h-21c-3.5,0-6.3-1.6-7.9-4.6C0.5,33.8,0,32.2,0,30.7V9.1c0-3.5,1.5-6.1,4.5-7.8C6,0.4,7.4,0,9.1,0
		h21.4c3.4,0,6.1,1.5,7.9,4.5c0.8,1.5,1.2,3.1,1.2,4.8v21.2c-0.1,3.2-1.3,5.7-3.6,7.4c-1.2,0.9-2.7,1.5-4.4,1.8
		C31.2,39.7,30.7,39.7,30.3,39.7z M9.1,1.2C7.6,1.2,6.3,1.6,5,2.4C2.5,3.9,1.2,6.2,1.2,9.1v21.5c0,1.4,0.4,2.7,1.2,4
		c1.5,2.7,3.9,4,6.9,4h21c0.4,0,0.8,0,1.2-0.1c1.6-0.2,2.9-0.7,3.9-1.5c2-1.5,3.1-3.7,3.2-6.4V9.2c0-1.5-0.4-2.9-1.1-4.2
		c-1.6-2.6-4-4-6.9-4L9.1,1.2L9.1,1.2z M15.5,30.5H9.3c-1.3,0-2.1-0.9-2.1-2.2V9.4c0-1.5,0.7-2.2,2.2-2.2h6.1c1.4,0,2.2,0.8,2.2,2.2
		v18.8C17.8,29.6,16.9,30.5,15.5,30.5z M9.4,8.3c-0.8,0-1.1,0.2-1.1,1.1v18.8c0,0.3,0.1,1.1,1,1.1h6.2c0.9,0,1.1-0.6,1.1-1.1V9.4
		c0-0.7-0.3-1.1-1.1-1.1H9.4z M30.4,21.6h-6.2c-1.4,0-2.2-0.8-2.2-2.2v-10c0-1.4,0.8-2.2,2.2-2.2h6.2c1.3,0,2.1,0.8,2.1,2.1v5
		c0,1.7,0,3.4,0.1,5.1C32.5,20.8,31.7,21.6,30.4,21.6z M24.2,8.3c-0.7,0-1.1,0.3-1.1,1.1v10c0,0.7,0.3,1.1,1.1,1.1h6.2
		c0.7,0,1.1-0.3,1.1-1.1c-0.1-1.7-0.1-3.4-0.1-5.1v-5c0-0.7-0.3-1-1-1L24.2,8.3L24.2,8.3z"/>
</g>
</svg>
