<?xml version="1.0" encoding="utf-8"?>
<!-- Generator: Adobe Illustrator 25.4.1, SVG Export Plug-In . SVG Version: 6.00 Build 0)  -->
<svg version="1.1" id="Calque_1" xmlns="http://www.w3.org/2000/svg" xmlns:xlink="http://www.w3.org/1999/xlink" x="0px" y="0px"
	 viewBox="0 0 39.7 39.7" style="enable-background:new 0 0 39.7 39.7;" xml:space="preserve">
<style type="text/css">
	.st0{fill:#FFFFFF;}
	.st1{fill:#0C7189;}
</style>
<rect class="st0" width="39.7" height="39.7"/>
<path class="st0" d="M39,6.7c0,8.8,0,17.6,0,26.4c0,0.1,0,0.1,0,0.2c0,0.2-0.1,0.3-0.1,0.5c-0.3,0.6-0.7,1-1.3,1.3
	c-1.1,0.5-2.2,1.1-3.3,1.6c-1.5,0.7-2.9,1.4-4.4,2.1c-1,0.5-2,0.3-2.8-0.4c-0.5-0.5-1-0.9-1.5-1.4c-0.5-0.5-1-0.9-1.5-1.4
	c-0.8-0.7-1.6-1.4-2.4-2.2c-0.6-0.6-1.3-1.2-1.9-1.8c-0.8-0.7-1.6-1.4-2.3-2.1c-0.6-0.6-1.3-1.2-1.9-1.8c-0.8-0.8-1.7-1.5-2.5-2.3
	c-0.4-0.3-0.7-0.6-1.1-1c-0.1-0.1-0.2-0.1-0.3,0l-0.1,0.1c-1.1,0.9-2.3,1.7-3.4,2.6c-1,0.8-2,1.5-3,2.3c-0.6,0.5-1.4,0.4-2-0.1
	c-0.2-0.1-0.3-0.3-0.5-0.5c-0.6-0.5-1.1-1-1.7-1.5c-0.3-0.2-0.4-0.5-0.5-0.9c0-0.1,0-0.1-0.1-0.2c0-0.1,0-0.2,0-0.3
	c0,0,0-0.1,0.1-0.1c0.1-0.5,0.3-0.8,0.7-1.1C2.3,24,3.2,23.3,4,22.6c0.5-0.4,1-0.9,1.5-1.3c0.5-0.5,1-0.9,1.5-1.4c0,0,0,0-0.2-0.1
	c-0.3-0.3-0.6-0.6-1-0.9c-0.8-0.7-1.6-1.5-2.4-2.2c-0.5-0.5-1-0.9-1.5-1.4c-0.3-0.2-0.5-0.5-0.7-0.7c-0.4-0.4-0.5-0.9-0.4-1.4
	c0.1-0.3,0.2-0.6,0.5-0.9c0.3-0.3,0.6-0.6,1-0.9c0.4-0.4,0.8-0.7,1.2-1.1c0.1-0.1,0.3-0.2,0.4-0.3C4.4,9.9,5,9.9,5.4,10.3
	c0.9,0.6,1.7,1.3,2.6,2c1.3,1,2.5,1.9,3.8,2.9c0.3,0.2,0.2,0.2,0.5,0c1-0.9,2-1.8,3-2.8c0.9-0.8,1.7-1.6,2.6-2.4
	c1.2-1.1,2.3-2.1,3.5-3.2C22,6,22.9,5.2,23.7,4.5c1.2-1.1,2.3-2.1,3.5-3.2c0.6-0.6,1.7-0.8,2.6-0.4c0.8,0.4,1.6,0.8,2.4,1.2
	C33,2.5,33.9,3,34.8,3.4c0.4,0.2,0.9,0.4,1.3,0.6c0.6,0.3,1.1,0.5,1.7,0.8c0.6,0.3,1,0.8,1.2,1.5C39,6.4,39,6.6,39,6.7z M29.5,19.9
	L29.5,19.9c0-2.8,0-5.5,0-8.4c0-0.1,0-0.2,0-0.2c-0.1,0-0.1,0.1-0.2,0.1c0,0-0.1,0-0.1,0.1c-2.5,1.9-5,3.8-7.4,5.6
	c-1.1,0.9-2.3,1.8-3.4,2.6c-0.2,0.2-0.2,0.2,0,0.3c2.2,1.7,4.4,3.3,6.4,5c1.5,1.1,3,2.3,4.5,3.4c0.1,0.1,0.1,0.2,0.2,0.1
	c0.1,0,0-0.2,0-0.3C29.5,25.4,29.5,22.7,29.5,19.9z"/>
<g>
	<path class="st1" d="M39.6,6.4c0-0.1,0-0.2,0-0.3c-0.3-0.9-0.8-1.5-1.6-1.9c-0.4-0.2-0.8-0.4-1.3-0.7l-4.3-2.1
		c-0.8-0.4-1.6-0.8-2.4-1.2C29-0.2,27.6,0,26.7,0.8L13.9,12.6c-0.7,0.6-1.4,1.2-2,1.9l-6-4.7C5.2,9.2,4.4,9.1,3.6,9.4
		C3.4,9.5,3.1,9.7,2.9,9.9l-2.2,2C0.3,12.2,0.1,12.6,0,13c-0.1,0.8,0.1,1.4,0.6,2c0.2,0.2,0.4,0.4,0.6,0.6L6,19.9l-3.2,3
		c-0.6,0.5-1.2,1.1-1.8,1.6c-0.3,0.3-0.8,0.8-0.9,1.5v0.7l0.1,0.2c0.1,0.5,0.3,0.9,0.7,1.2l1.7,1.5c0,0.2,0.2,0.3,0.4,0.5
		c0.8,0.7,2,0.8,2.9,0.1l6.1-4.7c0.2,0.2,0.4,0.4,0.6,0.6l13.1,12c0.3,0.3,0.7,0.6,1,0.9c0.6,0.5,1.3,0.8,2.1,0.8
		c0.5,0,1-0.1,1.4-0.3l5.1-2.5c0.8-0.4,1.7-0.8,2.5-1.2s1.3-0.9,1.7-1.7c0.1-0.3,0.2-0.5,0.2-0.8V6.7V6.6L39.6,6.4z M38.3,33.1
		c0,0.1,0,0.2-0.1,0.3c-0.2,0.4-0.5,0.7-1,1c-0.8,0.4-1.7,0.8-2.5,1.2l-5.1,2.5c-0.7,0.3-1.4,0.2-2-0.3c-0.3-0.3-0.6-0.6-1-0.9
		l-13.1-12c-0.3-0.3-0.6-0.6-0.9-0.8c-0.3-0.2-0.5-0.3-0.7-0.3c-0.2,0-0.4,0.1-0.6,0.2L5,29c-0.4,0.3-0.8,0.3-1.2,0
		c-0.2-0.1-0.3-0.3-0.5-0.4l-1.7-1.5c-0.1-0.1-0.2-0.3-0.3-0.5c0-0.1,0-0.1-0.1-0.2v-0.1c0-0.2,0.2-0.5,0.5-0.7
		c0.6-0.5,1.2-1.1,1.8-1.6l3.6-3.3c0.1-0.1,0.3-0.3,0.3-0.6c0-0.3-0.2-0.5-0.3-0.6L2,14.9c-0.2-0.2-0.4-0.3-0.5-0.5
		c-0.2-0.2-0.3-0.5-0.2-0.8c0-0.2,0.1-0.4,0.3-0.5l2.2-2C3.9,11.1,4,11.1,4,11.1C4.4,11,4.6,11,5,11.2l6.3,4.9
		c0.4,0.4,0.8,0.3,1.3-0.1c0.7-0.7,1.5-1.4,2.2-2L27.6,1.9c0.5-0.5,1.3-0.6,1.9-0.3C30.3,2,31,2.3,31.8,2.7l4.3,2.1
		C36.5,5,37,5.2,37.4,5.4c0.4,0.2,0.7,0.6,0.9,1.1c0,0.1,0,0.1,0,0.2v26.1V33.1z"/>
	<path class="st1" d="M29.8,10.7c-0.1-0.1-0.5-0.3-0.9,0.1l-11,8.4c-0.2,0.1-0.4,0.3-0.4,0.7c0,0.4,0.3,0.6,0.4,0.7l10.9,8.3
		c0.2,0.2,0.4,0.3,0.6,0.3c0.1,0,0.3,0,0.3-0.1c0.2-0.1,0.5-0.3,0.4-0.9V11.5C30.2,11,29.9,10.8,29.8,10.7z M28.8,27.2l-9.6-7.3
		l9.6-7.3V27.2z"/>
</g>
</svg>
