<?xml version="1.0" encoding="utf-8"?>
<!-- Generator: Adobe Illustrator 25.4.1, SVG Export Plug-In . SVG Version: 6.00 Build 0)  -->
<svg version="1.1" id="Calque_1" xmlns="http://www.w3.org/2000/svg" xmlns:xlink="http://www.w3.org/1999/xlink" x="0px" y="0px"
	 viewBox="0 0 39.7 39.7" style="enable-background:new 0 0 39.7 39.7;" xml:space="preserve">
<style type="text/css">
	.st0{fill:#FFFFFF;}
	.st1{fill:#0C7189;}
</style>
<rect class="st0" width="39.7" height="39.7"/>
<g>
	<path class="st1" d="M18.1,0.1c1.1,0,2.2,0,3.3,0c0.1,0,0.1,0,0.2,0c1.6,0.1,3.2,0.5,4.8,1c8.8,3.1,14.5,12,13.1,21.5
		c-0.5,3.3-1.7,6.2-3.7,8.8c-3.7,5-8.6,7.6-14.8,8.1c-2.7,0.2-5.4-0.1-7.8-1.1C7,36.2,2.9,31.9,0.8,25.6c-0.5-1.4-0.7-2.8-0.8-4.3
		c0-1.1,0-2.2,0-3.3c0-0.1,0-0.2,0-0.2c0.1-1.6,0.5-3.2,1-4.8C3.3,7,7.6,2.9,13.9,0.8C15.4,0.5,16.7,0.3,18.1,0.1z M2.5,20
		c0,9.5,7.7,17.2,17.2,17.3c9.5,0,17.3-7.7,17.3-17.2S29.3,2.7,19.7,2.7C10.3,2.6,2.5,10.3,2.5,20z"/>
	<path class="st1" d="M27.5,29.2c-0.1-0.1-0.2-0.3-0.2-0.4c-1.8-5.3-3.5-10.4-5.3-15.7c0-0.1-0.1-0.2-0.1-0.4
		c-0.1-0.2,0-0.3,0.2-0.3c0.5,0,1-0.1,1.4-0.1c0.5-0.1,0.7-0.3,0.6-0.7c0-0.3-0.4-0.6-0.8-0.5c-0.9,0.1-1.7,0.1-2.6,0.2
		c-1.8,0.1-3.6,0-5.4-0.2c-0.4,0-0.8,0.2-0.8,0.5c0,0.4,0.2,0.6,0.7,0.6c0.4,0.1,0.7,0.1,1.1,0.1c0.4,0,0.5,0.2,0.6,0.5
		c0.6,1.7,1.2,3.4,1.9,5.1c0.3,0.8,0.3,1.6,0,2.4c-1,2.8-1.9,5.7-2.9,8.4c0,0.1-0.1,0.2-0.1,0.3c0,0.1,0,0.2-0.1,0.2
		s-0.1-0.1-0.1-0.2c-0.3-0.8-0.6-1.7-0.9-2.5c-1.5-4.6-3.1-9-4.6-13.6c-0.2-0.5-0.2-0.5,0.4-0.6c0.4-0.1,0.8-0.1,1.2-0.1
		c0.4-0.1,0.6-0.3,0.6-0.7c0-0.3-0.3-0.6-0.7-0.5c-1,0.1-2.1,0.1-3.1,0.2c-0.5,0-1.1,0-1.6,0c-0.1,0-0.3,0-0.3-0.1
		c-0.1,0,0-0.1,0.1-0.2c2.1-3,4.8-5,8.2-6.1c4.6-1.4,8.8-0.8,12.9,1.6c0.7,0.4,1.4,0.9,2,1.5C29.9,8.1,30,8.1,30,8.3
		c0,0.1-0.2,0.1-0.3,0.1c-1.1,0-2.1,1.1-2.3,2.2c-0.2,0.9,0.1,1.7,0.5,2.5c0.5,0.9,1,1.7,1.4,2.5c1,1.9,1,3.8,0.5,5.8
		c-0.8,2.5-1.5,5.1-2.3,7.5C27.7,29,27.7,29.2,27.5,29.2z"/>
	<path class="st1" d="M20,21.4c0.1,0.1,0.2,0.3,0.2,0.4c1.6,4.2,3.1,8.4,4.7,12.6c0.1,0.3,0,0.4-0.2,0.5c-3,1-6,1.1-9,0.2
		c-0.3-0.1-0.4-0.2-0.3-0.5c1.5-4.3,3-8.6,4.5-12.9C19.8,21.6,19.8,21.5,20,21.4z"/>
	<path class="st1" d="M5.6,13.6c0.1,0.1,0.2,0.2,0.2,0.3c0.5,1.3,1,2.7,1.5,4c1.9,5.2,3.8,10.4,5.7,15.6c0,0.1,0,0.1,0.1,0.2
		c0,0.1,0.1,0.2,0,0.2c-0.1,0.1-0.1,0-0.2,0c-0.6-0.3-1.1-0.6-1.6-0.9c-3.8-2.6-6.1-6.1-6.8-10.7c-0.5-2.9-0.1-5.7,1-8.3
		C5.4,13.8,5.4,13.7,5.6,13.6z"/>
	<path class="st1" d="M33.5,12.4c2,3.8,2.4,7.5,1.4,11.5c-1.1,4.1-3.6,7.2-7.2,9.4c-0.1-0.2,0-0.4,0-0.5c1.7-4.9,3.4-9.7,5.1-14.6
		c0.6-1.8,0.9-3.6,0.7-5.5C33.4,12.8,33.3,12.7,33.5,12.4z"/>
</g>
</svg>
