<?xml version="1.0" encoding="utf-8"?>
<!-- Generator: Adobe Illustrator 25.4.1, SVG Export Plug-In . SVG Version: 6.00 Build 0)  -->
<svg version="1.1" id="Calque_1" xmlns="http://www.w3.org/2000/svg" xmlns:xlink="http://www.w3.org/1999/xlink" x="0px" y="0px"
	 viewBox="0 0 406 306" style="enable-background:new 0 0 406 306;" xml:space="preserve">
<style type="text/css">
	.st0{fill:#F9C5D5;}
	.st1{fill:#D1D3D4;}
	.st2{fill:#FFFFFF;}
	.st3{fill:#231F20;}
	.st4{fill:#A7A9AC;}
	.st5{fill:#EBCA94;}
</style>
<g id="_230_designer_flatline">
	<path class="st0" d="M172.4,279.1c-19.4,1-38.6,7.9-58.1,6.6c-36.2-2.5-65.9-34.3-74.2-69.8c-4.2-18.4-3.4-38.8,7.3-54.4
		c4-5.8,9-10.7,13.1-16.2c12.9-18.2,13.8-42.6,25.8-61.4c14.1-21.8,40.6-31.8,65.7-38.3c14.8-3.8,29.7-7,44.7-9.4
		c22.4-3.7,47.5-5.3,66.1,8c14,9.9,21.4,26.2,31.1,40.3c12.7,18.7,29.9,33.9,43.3,52c15.3,20.5,19.9,40.1,17.4,61.2l-0.2,1.9
		c-1.4,9.5-3.8,18.9-7.3,28c-10.3,28.5-33.1,53.7-63.5,60.3C247,296.2,209.8,277.1,172.4,279.1z"/>
	<path class="st1" d="M336.1,248H70.1c-0.3,0-0.5-0.2-0.5-0.5c0-0.3,0.2-0.5,0.5-0.5H336c0.3,0,0.5,0.2,0.5,0.5
		C336.6,247.8,336.3,248,336.1,248z"/>
	<rect x="254.4" y="157.4" class="st2" width="59.4" height="101.9"/>
	<path class="st3" d="M313.8,259.8h-59.4c-0.3,0-0.5-0.2-0.5-0.5V157.4c0-0.3,0.2-0.5,0.5-0.5h59.4c0.3,0,0.5,0.2,0.5,0.5v101.9
		C314.3,259.5,314.1,259.8,313.8,259.8L313.8,259.8z M254.9,258.8h58.3V157.9h-58.3L254.9,258.8L254.9,258.8z"/>
	<rect x="90.9" y="157.4" class="st2" width="59.4" height="101.9"/>
	<path class="st3" d="M150.3,259.8H90.9c-0.3,0-0.5-0.2-0.5-0.5V157.4c0-0.3,0.2-0.5,0.5-0.5h59.4c0.3,0,0.5,0.2,0.5,0.5v101.9
		C150.8,259.5,150.6,259.8,150.3,259.8L150.3,259.8z M91.4,258.8h58.3V157.9H91.4V258.8z"/>
	<polygon class="st3" points="265.5,127.9 277.2,151.4 245.5,151.4 	"/>
	<path class="st3" d="M277.2,151.9h-31.8c-0.2,0-0.4-0.1-0.5-0.3c-0.1-0.2-0.1-0.4,0.1-0.5l20.1-23.6c0.1-0.1,0.3-0.2,0.4-0.2
		c0.2,0,0.3,0.1,0.4,0.3l11.7,23.6c0.1,0.2,0.1,0.3,0,0.5C277.6,151.9,277.4,152,277.2,151.9z M246.6,150.9h29.8l-11-22.1
		L246.6,150.9z"/>
	<polygon class="st3" points="175.2,151.4 250.9,151.4 278.4,111.2 206.9,111.2 	"/>
	<path class="st3" d="M250.9,151.9h-75.7c-0.3,0-0.5-0.2-0.5-0.5c0-0.1,0-0.2,0.1-0.3l31.7-40.2c0.1-0.1,0.2-0.2,0.4-0.2h71.4
		c0.2,0,0.4,0.1,0.4,0.3c0.1,0.2,0.1,0.4,0,0.5l-27.5,40.2C251.3,151.9,251.1,152,250.9,151.9z M176.3,150.9h74.3l26.8-39.2h-70.3
		L176.3,150.9z"/>
	<polygon class="st2" points="209.2,115.2 186.6,144.4 242.7,144.4 264,115.2 	"/>
	<path class="st3" d="M242.7,145h-56.1c-0.2,0-0.4-0.1-0.5-0.3c-0.1-0.2-0.1-0.4,0-0.5l22.6-29.3c0.1-0.1,0.2-0.2,0.4-0.2h54.8
		c0.2,0,0.4,0.1,0.4,0.3c0.1,0.2,0.1,0.4,0,0.5l-21.2,29.2C243,144.9,242.9,144.9,242.7,145z M187.6,143.9h54.8l20.6-28.3h-53.6
		L187.6,143.9z"/>
	<path class="st1" d="M225.3,139.1c-0.2,0-0.4-0.1-0.5-0.3c-2.7-8-6.5-16.8-7.8-17l0,0c-1.6,0-12.2,8.8-21.6,17.2
		c-0.2,0.2-0.5,0.2-0.7,0c-0.2-0.2-0.2-0.5,0-0.7l0,0c3.3-3,19.3-17.5,22.3-17.5h0.1c2.6,0.4,7.3,13.6,8.7,17.7
		c0.1,0.3,0,0.5-0.3,0.6l0,0C225.4,139.1,225.3,139.1,225.3,139.1z"/>
	<path class="st1" d="M242.1,140.2c-0.2,0-0.4-0.2-0.5-0.4c-1.8-6.4-4.4-13.3-5.6-13.7s-6.9,4.8-11.5,9.7c-0.2,0.2-0.5,0.2-0.7,0
		c-0.2-0.2-0.2-0.5,0-0.7c2.3-2.5,10.2-10.7,12.5-10c2.3,0.7,5.7,12.1,6.3,14.5c0.1,0.3-0.1,0.6-0.3,0.6L242.1,140.2z"/>
	<path class="st4" d="M258.7,131.2c-1.2,0-2.2-0.6-2.2-1.4c0-0.8,1-1.3,2.2-1.3c1.2,0,2.2,0.6,2.2,1.3
		C261.1,130.5,260,131.2,258.7,131.2z M258.7,128.6c-1.1,0-2,0.5-2,1.1s0.9,1.1,2,1.1c1.1,0,2-0.5,2-1.1S259.8,128.7,258.7,128.6
		L258.7,128.6z"/>
	<path class="st4" d="M267.8,119.4h-4.6c-0.1,0-0.1-0.1-0.1-0.1c0-0.1,0.1-0.1,0.1-0.1h4.6c0.1,0,0.1,0.1,0.1,0.1l0,0
		C267.9,119.3,267.9,119.4,267.8,119.4z"/>
	<path class="st2" d="M250.9,151.9c-0.1,0-0.2,0-0.3-0.1c-0.2-0.2-0.3-0.5-0.1-0.7l14.7-20.2c0.2-0.2,0.5-0.3,0.7-0.1l0,0
		c0.2,0.2,0.3,0.5,0.1,0.7l-14.7,20.3C251.2,151.9,251.1,152,250.9,151.9z"/>
	<path class="st1" d="M225.3,122.6c-1.2,0-2.2-1-2.2-2.2c0-1.2,1-2.2,2.2-2.2c1.2,0,2.2,1,2.2,2.2l0,0
		C227.6,121.6,226.5,122.6,225.3,122.6z M225.3,119.1c-0.7,0-1.2,0.5-1.2,1.2c0,0.7,0.5,1.2,1.2,1.2s1.2-0.5,1.2-1.2l0,0
		C226.5,119.6,225.9,119.1,225.3,119.1L225.3,119.1z"/>
	<rect x="83.1" y="152.3" class="st2" width="233.3" height="9.9"/>
	<path class="st3" d="M316.3,162.7H83.1c-0.3,0-0.5-0.2-0.5-0.5v-9.9c0-0.3,0.2-0.5,0.5-0.5h233.3c0.3,0,0.5,0.2,0.5,0.5v9.9
		C316.8,162.5,316.6,162.7,316.3,162.7z M83.6,161.7h232.2v-8.9H83.6V161.7z"/>
	<path class="st2" d="M170.7,205.8c0.2,0.7-12.8,47.5-12.8,47.5l18.2,3l21.6-64.8L170.7,205.8z"/>
	<path class="st3" d="M176.1,256.9L176.1,256.9l-18.3-3c-0.1,0-0.3-0.1-0.4-0.2c-0.1-0.1-0.1-0.3-0.1-0.4
		c5.1-18.2,12.7-45.8,12.8-47.4c0-0.2,0.1-0.4,0.3-0.5l27-14.3c0.2-0.1,0.4-0.1,0.6,0.1c0.2,0.1,0.2,0.4,0.2,0.5l-21.6,64.8
		C176.6,256.7,176.4,256.9,176.1,256.9z M158.6,253l17.2,2.7l21-63.1l-25.7,13.5C170.6,209.1,166.5,224.8,158.6,253L158.6,253z"/>
	<path class="st3" d="M156.8,251.4l-2.7,8.8l43.7,3.4c-2-4.2-5.6-7.3-9.9-9c-4.6-1.6-9.5-3.5-9.5-3.5l-2.2,5.3L156.8,251.4z"/>
	<path class="st3" d="M197.7,264L197.7,264l-43.7-3.4c-0.3,0-0.5-0.3-0.5-0.5v-0.1l2.7-8.8c0.1-0.3,0.3-0.4,0.6-0.3l18.9,4.9l2-4.9
		c0.1-0.3,0.4-0.4,0.6-0.3l0,0c0.1,0,4.9,1.9,9.4,3.5c4.5,1.6,8.1,5,10.2,9.3c0.1,0.2,0.1,0.3,0,0.5
		C198.1,264,197.9,264.1,197.7,264z M154.8,259.6l42.2,3.3c-2-3.7-5.3-6.4-9.2-7.8c-3.7-1.3-7.6-2.9-9-3.3l-2,4.8
		c-0.1,0.2-0.4,0.4-0.6,0.3l-18.8-4.8L154.8,259.6z"/>
	<path class="st3" d="M126.1,206.5l-3.1,49.4c0,0-10.5,0.4-13.1,2.2c-2.6,1.8-4.8,10.2-4.8,10.2h3.3c0,0,1.9-6.2,4-6.9
		c2.1-0.7,13.9-1,13.9-1s5.7,2.2,6.6,6c0.7,3,0.5,3.7,0.5,3.7h3.7c0-1.7-0.2-3.4-0.7-5c-0.7-2-3.5-4.6-3.5-4.6s6,0.1,7.9,0.1
		s4.1,3.8,4.1,3.8h3.9c0,0-4.1-6.8-6.7-7.3c-2.6-0.5-9.4-1.6-9.4-1.6l-1.8-46L126.1,206.5z"/>
	<path class="st3" d="M137.2,270.4h-3.7c-0.2,0-0.3-0.1-0.4-0.2c-0.1-0.1-0.1-0.3-0.1-0.5c0-1.1-0.2-2.3-0.5-3.4
		c-0.8-3.3-5.5-5.3-6.2-5.6c-3.4,0.1-12,0.4-13.6,1c-1.3,0.5-3,4.3-3.7,6.6c-0.1,0.2-0.3,0.4-0.5,0.4h-3.3c-0.3,0-0.5-0.2-0.5-0.5
		v-0.1c0.1-0.3,2.2-8.6,5-10.5c2.4-1.7,10.8-2.1,12.9-2.2l3.1-48.9c0-0.2,0.1-0.3,0.3-0.4c0.2-0.1,0.3-0.1,0.5,0l4.9,2.9
		c0.2,0.1,0.2,0.2,0.3,0.4l1.8,45.6c1.5,0.3,6.7,1.1,9,1.6c2.7,0.5,6.6,6.8,7,7.6c0.1,0.2,0.1,0.4,0,0.5c-0.1,0.2-0.3,0.3-0.4,0.3
		h-4.1c-0.2,0-0.4-0.1-0.4-0.3c-0.7-1.3-2.4-3.6-3.7-3.6c-1.4,0-4.8-0.1-6.7-0.1c1.1,1.1,2,2.3,2.6,3.8c0.5,1.6,0.7,3.5,0.7,5.2
		C137.8,270.2,137.5,270.4,137.2,270.4z M134.1,269.4h2.5c0-1.4-0.3-3-0.7-4.4c-0.7-1.9-3.3-4.3-3.3-4.3c-0.2-0.1-0.2-0.4-0.1-0.6
		c0.1-0.2,0.3-0.3,0.5-0.3c0.1,0,6,0.1,7.9,0.1s3.8,2.9,4.4,3.8h2.6c-1.4-2.1-4.2-6-5.9-6.3c-2.5-0.5-9.3-1.6-9.4-1.6
		c-0.2,0-0.4-0.2-0.4-0.5l-1.8-45.7l-4-2.2l-3.1,48.6c0,0.3-0.2,0.5-0.5,0.5c-2.9,0.1-10.8,0.7-12.8,2c-1.8,1.3-3.7,6.6-4.4,9.3h2.2
		c0.5-1.4,2.1-6.2,4.2-6.9c1.9-0.7,13.6-1,14.2-1h0.2c0.2,0.1,6,2.3,6.9,6.3C133.9,267.2,134.1,268.3,134.1,269.4L134.1,269.4z
		 M123.1,255.8L123.1,255.8z"/>
	<path class="st2" d="M185.9,174.9c0,0,41.2,2.2,43.9,8c2.6,5.9-16.5,70.6-16.5,70.6s20.2,7,16.9,8.5c-3.3,1.4-36.3-1.4-36.3-1.4
		l15.7-60l-40.8-2.7L185.9,174.9z"/>
	<path class="st3" d="M225,263c-9.7,0-28.5-1.6-31.2-1.8c-0.2,0-0.3-0.1-0.4-0.2c-0.1-0.1-0.1-0.3-0.1-0.4l15.5-59.3l-40.2-2.7
		c-0.2,0-0.3-0.1-0.4-0.3c-0.1-0.2-0.1-0.4,0.1-0.5l17.3-23c0.1-0.1,0.3-0.2,0.4-0.2c0.1,0,10.5,0.5,21,1.8
		c21.6,2.6,22.9,5.6,23.3,6.5c2.5,5.8-14.5,64-16.4,70.5c5.5,1.9,17.1,6.2,17.1,8.3c0,0.4-0.3,0.8-0.7,0.9
		C228.7,262.9,226.8,263.1,225,263z M194.5,260.2c9.6,0.8,33,2.5,35.5,1.4l0,0c-0.7-1.2-9.2-4.8-16.9-7.4c-0.3-0.1-0.4-0.4-0.3-0.6
		c5.3-17.9,18.6-65.5,16.5-70.2c-2-4.7-31.6-7.1-43.2-7.7l-16.5,22l39.9,2.6c0.2,0,0.3,0.1,0.4,0.2c0.1,0.1,0.1,0.3,0.1,0.4
		L194.5,260.2z"/>
	<path class="st2" d="M172,138.2c0,0,21.2,26.5,30.2,25.8s35-33.4,35-33.4c4.7-5.6,10-12.7,6.6-20.5c-0.3-0.7-0.9-1.5-1.7-1.5
		c-0.3,0.1-0.6,0.2-0.9,0.4l-2.9,1.7c0.1-0.8-0.9-1.3-1.7-1.1c-0.7,0.3-1.4,0.8-1.7,1.5c-3.1,4.3-5,8.3-4.8,13.6l-30.3,15.5
		l-12-13.3"/>
	<path class="st3" d="M201.8,164.4c-9.4,0-29.4-24.8-30.3-26c-0.2-0.2-0.1-0.5,0.1-0.7c0.2-0.1,0.5-0.1,0.6,0.1
		c0.2,0.3,20.6,25.6,29.4,25.6h0.3c8.8-0.7,34.4-32.8,34.6-33.2c4.9-5.8,9.8-12.5,6.5-19.9c-0.1-0.3-0.5-1.2-1.2-1.1
		c-0.3,0-0.5,0.2-0.7,0.3l-3,1.7c-0.2,0.1-0.6,0.1-0.7-0.2c-0.1-0.1-0.1-0.2-0.1-0.3c0-0.1-0.1-0.3-0.2-0.4
		c-0.2-0.2-0.5-0.3-0.8-0.2c-0.6,0.3-1.1,0.7-1.5,1.3c-2.5,3.7-4.9,7.7-4.7,13.3c0,0.2-0.1,0.4-0.3,0.5l-30.3,15.5
		c-0.2,0.1-0.5,0.1-0.6-0.1l-11.6-13.3c-0.2-0.2-0.2-0.5,0-0.7l0,0c0.2-0.2,0.5-0.2,0.7,0l11.8,13l29.7-15.2
		c-0.1-5.7,2.2-9.9,4.9-13.6c0.5-0.8,1.2-1.4,2-1.7c0.6-0.2,1.3,0,1.8,0.4c0.1,0.1,0.3,0.3,0.3,0.4l2.3-1.4c0.3-0.2,0.7-0.4,1.2-0.4
		c0.9-0.1,1.7,0.6,2.2,1.8c3.8,8.6-3.1,16.6-6.6,21c-1,1.3-26.2,32.8-35.3,33.5L201.8,164.4z"/>
	<path class="st2" d="M102.5,133.7c0,0-10.9,24.7-6.8,27.4c4.1,2.6,28.7,0,28.7,0l-2.1-32.1"/>
	<path class="st3" d="M105,162.7c-4.4,0-8.2-0.3-9.7-1.2c-0.7-0.4-2.9-1.8,1.7-15.3c2.2-6.4,5-12.7,5-12.7c0.1-0.3,0.4-0.4,0.6-0.3
		c0.3,0.1,0.4,0.4,0.3,0.6v0.1c-4.2,9.4-9.8,24.9-7,26.7c3.1,2,20.7,0.7,27.9,0l-2-31.6c0-0.3,0.2-0.5,0.5-0.5s0.5,0.2,0.5,0.5
		l2.1,32.1c0,0.3-0.2,0.5-0.5,0.5C123.7,161.7,113.3,162.7,105,162.7z"/>
	<path class="st2" d="M111.4,175.6c0,0-5.3,11.9,0.3,19.3c5.6,7.4,84.7,8.3,84.7,8.3l5.7-28.4l-33.1-4.5l-1.9-9.9L111.4,175.6z"/>
	<path class="st3" d="M196.5,204L196.5,204c-0.2,0-20.1-0.2-40.3-1.4c-27.3-1.5-42.5-4-44.9-7.2c-5.8-7.6-0.6-19.3-0.4-19.9
		c0.1-0.1,0.2-0.2,0.3-0.3l55.8-15c0.1,0,0.3,0,0.4,0.1c0.1,0.1,0.2,0.2,0.2,0.3l1.8,9.5l32.7,4.5c0.1,0,0.3,0.1,0.3,0.2
		c0.1,0.1,0.1,0.3,0.1,0.4l-5.6,28.4C197,203.7,196.8,204,196.5,204z M111.8,176.1c-0.7,1.6-4.6,12,0.4,18.6
		c4.4,5.7,56.5,7.8,83.9,8.1l5.5-27.5l-32.5-4.4c-0.2,0-0.4-0.2-0.4-0.4l-1.8-9.3L111.8,176.1z"/>
	<path class="st2" d="M143.8,75.8c-0.8-0.5-1.5-1.1-2-1.8c-0.8-1.1-1.3-2.3-1.6-3.7c-2.9-10.1-2.9-23.1,6.2-30
		c5.4-4.2,12.4-5.4,18.9-3.4c4.4,1.4,8.1,7.4,10.1,11.4c1.6,3.2,2.6,6.6,4.6,9.6c1.9,3,4.9,5.6,8.5,5.8c-2.9,1.6-6.3,1.8-9.3,0.5
		c1.4,1.9,3.9,2.9,6.1,2.3c-2,1.6-5,1.6-7.6,1c-2.6-0.6-5.2-1.3-7.8-1c-4.2,0.5-6.8,3.5-10.1,5.7C155.6,74.8,148.4,78.4,143.8,75.8z
		"/>
	<path class="st3" d="M147.7,77.2c-1.4,0-2.9-0.3-4.2-1l0,0c-0.9-0.5-1.6-1.2-2.2-2c-0.8-1.2-1.4-2.4-1.7-3.9
		c-1.3-5-5-21.9,6.3-30.5c5.5-4.3,12.8-5.5,19.4-3.5c4.7,1.5,8.6,7.9,10.4,11.6c0.6,1.2,1.2,2.5,1.7,3.8c0.8,2,1.7,4,2.9,5.8
		c1,1.6,3.9,5.3,8,5.6c0.2,0,0.4,0.2,0.5,0.4c0.1,0.2,0,0.5-0.2,0.6c-2.3,1.3-5,1.7-7.5,1.2c1.2,0.7,2.6,1,4.1,0.7
		c0.3-0.1,0.5,0.1,0.6,0.4c0.1,0.2,0,0.4-0.2,0.5c-1.8,1.4-4.6,1.8-8,1.2c-0.6-0.1-1.2-0.3-1.8-0.4c-1.9-0.5-3.9-0.8-5.8-0.6
		c-3,0.3-5.1,2-7.4,3.8c-0.8,0.6-1.6,1.2-2.4,1.8C157.5,74.1,152.4,77.2,147.7,77.2z M159,36.3c-4.5,0-8.9,1.5-12.4,4.2
		c-10.8,8.3-7.3,24.6-6,29.5c0.3,1.2,0.8,2.4,1.6,3.6c0.5,0.7,1.2,1.3,1.9,1.7l0,0c5,2.9,13-2,15.4-3.7c0.8-0.5,1.6-1.1,2.3-1.7
		c2.3-1.8,4.7-3.7,7.9-4c2.1-0.1,4.2,0.1,6.2,0.7c0.6,0.1,1.2,0.3,1.8,0.4c1.7,0.4,3.5,0.4,5.2,0c-1.7-0.3-3.3-1.2-4.3-2.5
		c-0.1-0.2-0.1-0.4,0-0.6c0.1-0.2,0.4-0.2,0.6-0.2c2.3,0.9,4.9,1,7.3,0.2c-3.1-0.9-5.6-3.1-7.1-5.8c-1.1-1.9-2.1-3.9-3-5.9
		c-0.5-1.2-1-2.5-1.7-3.8c-1.4-2.9-5.2-9.6-9.8-11.1C163.1,36.6,161.1,36.3,159,36.3L159,36.3z"/>
	<path class="st2" d="M171.8,68.3c0,0,2.9,8.9,1.3,10.1c-1.5,1.2-4.6-0.7-4.6-0.7"/>
	<path class="st3" d="M171.9,79.3c-1.2-0.1-2.4-0.5-3.6-1.2c-0.2-0.1-0.3-0.4-0.2-0.7c0.1-0.2,0.4-0.3,0.7-0.2l0,0
		c0.7,0.4,3,1.6,4,0.7c0.7-0.6-0.2-5.4-1.5-9.5c-0.1-0.3,0.1-0.6,0.3-0.6c0.3-0.1,0.6,0.1,0.6,0.3c0.7,2.1,2.9,9.3,1.2,10.6
		C173.1,79.2,172.5,79.4,171.9,79.3z"/>
	<path class="st2" d="M173.5,58.2c2.4,3.5,0,8.6-1,12.1c-1.4,4.9-3,9.9-4.6,14.7c-1,3.1-9.2,0.8-10.3-0.5l-2.2,12.7l-17.1-5.9
		l5.5-15.5c0,0,5.5,1.6,10.5-3.9c5-5.5,8.5-19.4,8.5-19.4S171.1,54.9,173.5,58.2z"/>
	<path class="st3" d="M155.3,97.8h-0.2L138,91.8c-0.1,0-0.2-0.1-0.3-0.3c0-0.1,0-0.3,0-0.4l5.5-15.5c0.1-0.3,0.4-0.4,0.6-0.3
		s5.3,1.4,10-3.8s8.2-19.1,8.2-19.2c0-0.1,0.1-0.2,0.2-0.3c0.1-0.1,0.3-0.1,0.4,0c0.4,0.1,8.8,2.4,11.2,5.9l0,0
		c2.1,3.1,0.8,7.2-0.4,10.7c-0.2,0.6-0.4,1.3-0.6,1.8c-1.4,4.9-3,9.9-4.6,14.7c-0.4,1-1.3,1.6-2.3,1.7c-2.7,0.3-5.6-0.2-8-1.5
		l-2,11.9c0,0.1-0.1,0.3-0.2,0.3C155.5,97.8,155.4,97.8,155.3,97.8z M138.9,91l16.1,5.6l2-12.1c0-0.3,0.3-0.5,0.6-0.4
		c0.1,0,0.2,0.1,0.3,0.2c0.7,0.8,5.2,2.2,7.8,1.7c0.9-0.2,1.4-0.5,1.6-1.1c1.6-4.8,3.2-9.8,4.6-14.7c0.2-0.6,0.4-1.2,0.6-1.9
		c1-3.2,2.3-7.1,0.5-9.8c-1.8-2.6-8.2-4.8-10.2-5.4c-0.7,2.6-3.9,14.2-8.5,19.1c-4.4,4.8-9.1,4.4-10.5,4.2L138.9,91z"/>
	<path class="st2" d="M168.8,81.3c0,0-4.5,1.3-5.4-3.3"/>
	<path class="st3" d="M167.4,82c-0.9,0-1.7-0.2-2.5-0.6c-1.1-0.7-1.8-1.8-2-3.2c-0.1-0.3,0.1-0.6,0.4-0.6c0.3,0,0.5,0.1,0.6,0.4
		c0.1,1,0.7,1.9,1.5,2.5c1,0.5,2.1,0.6,3.3,0.3c0.3-0.1,0.6,0.1,0.6,0.4s-0.1,0.6-0.4,0.6C168.4,82,167.9,82,167.4,82z"/>
	<path class="st2" d="M161.5,68.8c0.2-1.3,0.1-2.5-0.4-3.8c-0.2-0.9-0.6-1.9-1.1-2.7c-0.5-0.8-1.4-1.4-2.4-1.5c-0.9,0-1.7,0.4-2.3,1
		c-0.6,0.6-1,1.4-1.3,2.2c-1.2,3.8-0.4,7.8,2.2,10.7l-0.2-0.4"/>
	<path class="st3" d="M156,75.4c-0.1,0-0.3-0.1-0.4-0.2c-2.7-3.1-3.7-7.3-2.3-11.3c0.3-0.9,0.8-1.7,1.4-2.4c0.7-0.7,1.7-1.2,2.7-1.1
		c1.1,0.1,2.2,0.8,2.9,1.8c0.5,0.9,0.9,1.8,1.2,2.9c0.5,1.3,0.7,2.6,0.4,4.1c-0.1,0.3-0.4,0.4-0.6,0.4c-0.3-0.1-0.4-0.4-0.4-0.6
		c0.2-1.2,0-2.3-0.4-3.5c-0.2-0.9-0.6-1.8-1.1-2.6c-0.4-0.7-1.2-1.2-2-1.3c-0.7,0-1.4,0.3-1.9,0.8c-0.5,0.6-0.9,1.3-1.2,2
		c-1.1,3.4-0.4,6.9,1.7,9.8c0.1,0,0.3,0.1,0.3,0.3l0.2,0.4c0.1,0.2,0.1,0.5-0.2,0.6C156.2,75.3,156.1,75.4,156,75.4z"/>
	<ellipse transform="matrix(0.2183 -0.9759 0.9759 0.2183 71.4696 217.3276)" class="st3" cx="171.4" cy="64.1" rx="1.8" ry="0.7"/>
	<path class="st3" d="M157.5,84.5c-2.2-1.4-4.4-3.1-6.4-4.8c0,0-1,9,5.1,11L157.5,84.5z"/>
	<path class="st3" d="M156.2,91.2c-0.1,0-0.1,0-0.2,0c-6.4-2.1-5.5-11.2-5.4-11.5c0-0.2,0.1-0.3,0.3-0.4c0.2-0.1,0.4,0,0.5,0.1
		c2,1.7,4.2,3.3,6.4,4.8c0.2,0.1,0.3,0.3,0.2,0.5l-1.3,6.2c0,0.1-0.1,0.3-0.2,0.3C156.4,91.2,156.3,91.2,156.2,91.2z M151.6,80.8
		c0,2.2,0.3,7.5,4.3,9.3l1.1-5.3C155.1,83.5,153.2,82.2,151.6,80.8z"/>
	<path class="st5" d="M108.2,179.6c0,0,0.9-63.2,10.4-77.8s34.1-17.8,45.8-9.2s6.1,75,6.1,75S133.2,179.6,108.2,179.6z"/>
	<path class="st5" d="M156.3,88.9c6.2,2.5,12.1,6,17.3,10.2c8.1,6.7,25.3,35.7,25.3,35.7l-22.6,13.6l-20.3-25L156.3,88.9z"/>
	<path class="st5" d="M128.4,92.8c0,0-11.8,1.3-18.1,14.4c-3.4,7-12.1,29.8-12.1,29.8l26.1,3.1L128.4,92.8z"/>
	<path class="st3" d="M174.5,146.9c-0.2,0-0.3-0.1-0.4-0.2l-20.2-27.5c-0.2-0.2-0.1-0.5,0.1-0.7c0.2-0.2,0.5-0.1,0.7,0.1l20.2,27.5
		c0.2,0.2,0.1,0.5-0.1,0.7C174.8,146.9,174.7,146.9,174.5,146.9L174.5,146.9z"/>
	<path class="st3" d="M234.8,116l5.1-15.7l1.5,0.4l-3.2,15.5C238.1,116.2,235.9,118.3,234.8,116z"/>
	<path class="st3" d="M236.3,117.6H236c-0.7-0.2-1.3-0.7-1.6-1.4c-0.1-0.1-0.1-0.3,0-0.4l5-15.7c0.1-0.3,0.4-0.4,0.6-0.3l1.5,0.4
		c0.3,0.1,0.4,0.3,0.4,0.6l-3.2,15.5c0,0.1-0.1,0.2-0.1,0.3C237.9,117.2,237.1,117.5,236.3,117.6z M235.3,115.9
		c0.2,0.3,0.5,0.6,0.8,0.6c0.6,0,1.1-0.2,1.6-0.6l3.1-14.8l-0.6-0.2L235.3,115.9z"/>
	<path class="st5" d="M139.4,80.4c-9.3-2-19.7-0.6-27.2,5.2c-3.2,2.3-5.6,5.6-6.8,9.3c-1.2,3.8-0.5,7.9,1.9,11.1
		c7.1,8.6,22.8,8.6,32.5,5.7c6.6-1.9,26.2-11.2,20.8-20.3C156.7,85,146.3,82,139.4,80.4z"/>
	<path class="st3" d="M127.6,112.6c-6.2-0.2-12.2-1.9-17.5-5c-0.2-0.1-0.3-0.4-0.2-0.7l0,0c0.2-0.2,0.5-0.3,0.7-0.2
		c0.1,0.1,12.9,8,25,3.5c5.8-2.2,9.3-6.1,12.6-9.9c3.7-4.2,7.1-8,13.2-8.6c0.3,0,0.5,0.2,0.5,0.5l0,0c0,0.3-0.2,0.5-0.4,0.5l0,0
		c-5.6,0.5-8.8,4.2-12.5,8.2c-3.3,3.7-7,7.8-13,10.2C133.3,112.1,130.4,112.6,127.6,112.6z"/>
	<path class="st3" d="M109.1,157L109.1,157c-0.3,0-0.5-0.2-0.5-0.5l0,0c0.7-16.4,4.2-39.9,4.2-40.1c0-0.3,0.3-0.5,0.6-0.4
		c0.3,0,0.5,0.3,0.4,0.6c0,0.2-3.5,23.7-4.2,40C109.6,156.7,109.4,157,109.1,157z"/>
	<path class="st3" d="M188.4,259.4h22c0,0,2.3-5.3,7.5-6c0,0,20.1,8.5,17.1,10.2c-3,1.7-48.2,1.5-48.2,1.5L188.4,259.4z"/>
	<path class="st3" d="M191.4,265.7h-4.6c-0.2,0-0.3-0.1-0.4-0.2c-0.1-0.1-0.1-0.3-0.1-0.4l1.5-5.7c0.1-0.2,0.3-0.4,0.5-0.4H210
		c0.6-1.2,3.1-5.4,7.7-6c0.1,0,0.2,0,0.3,0c4.2,1.7,17.6,7.6,17.7,10.2c0,0.4-0.2,0.8-0.5,0.9C232.7,265.6,203.4,265.7,191.4,265.7z
		 M187.5,264.6c18.1,0.1,45.1-0.3,47.2-1.5c0-1.3-8.8-5.8-16.9-9.3c-4.7,0.8-6.9,5.7-7,5.7c-0.1,0.2-0.3,0.3-0.5,0.3h-21.6
		L187.5,264.6z"/>
	<path class="st3" d="M171.8,208.6c13.9-3,23.3-9.5,17.8-18.3c-5.5-8.9-45-3.1-52.7-9.7c-7.7-6.5-5-41.2-13.4-47.1
		c-8.5-5.9-44.8-11.9-48.9-4.5c-4.1,7.5,0,62.1,11.8,74.2C98.1,215.4,158.1,211.5,171.8,208.6z"/>
	<path class="st3" d="M130.7,212.1h-2.3c-15.7-0.1-35.8-1.7-42.4-8.5c-11.7-12.1-16.3-66.7-11.9-74.8c0.7-1.4,2.4-2.4,5.2-3.1
		c11.2-2.6,37.2,2.2,44.4,7.2c4.6,3.2,6,14.1,7.3,24.6c1.2,9.6,2.5,19.5,6.1,22.6c3.5,3,13.9,3.4,24.1,3.8c12.5,0.5,25.6,1,28.6,6
		c1.8,2.9,2.1,5.7,1,8.2c-2,4.8-8.9,8.7-19.2,10.8l0,0C164.8,210.6,147.4,212.1,130.7,212.1z M87.2,126.1c-2.5,0-5.1,0.2-7.6,0.7
		c-2.3,0.5-3.9,1.4-4.5,2.5c-4,7.4,0.4,61.9,11.7,73.6c11.6,11.9,71.1,8,84.8,5.2l0,0c9.9-2,16.6-5.8,18.5-10.2
		c1-2.2,0.6-4.8-0.9-7.3c-2.9-4.5-15.5-5-27.8-5.5c-10.9-0.4-21.1-0.8-24.8-4c-3.9-3.4-5.2-13-6.5-23.2c-1.3-10.3-2.7-21-6.9-23.9
		C117.6,130,99.6,126.1,87.2,126.1z M171.8,208.6L171.8,208.6z"/>
	<path class="st1" d="M197.7,180.1L197.7,180.1l-33.4-5.8c-0.3,0-0.5-0.3-0.4-0.6c0-0.3,0.3-0.5,0.6-0.4l33.3,5.8
		c0.3,0,0.5,0.3,0.5,0.6C198.2,179.9,198,180.1,197.7,180.1z"/>
	<path class="st3" d="M293.8,247.9l-1-0.1c0-0.3,3.3-30.2-7.1-43.5l0.8-0.6c4.5,5.7,7,15,7.7,27.3
		C294.4,236.6,294.3,242.3,293.8,247.9z"/>
	<path class="st3" d="M290.3,251.7c0-0.3,0-0.7,0.1-1c2.4-15.7-1.7-22.9-5.7-26.4l0.7-0.8c4.2,3.6,8.6,11.1,6,27.3
		c-0.1,0.4-0.1,0.6-0.1,0.7L290.3,251.7z"/>
	<path class="st3" d="M284.9,217.7c-0.8-0.5-1.7-0.8-2.7-0.8c-1.7-0.2-3.5,0.2-4.9,1.3c-0.3,0.3-0.6,0.9-0.3,1.2
		c0.2,0.2,0.4,0.3,0.6,0.3c1.4,0.4,2.4,1.4,2.9,2.9c-0.7-0.5-1.3-1.2-2-1.7c-0.7-0.6-1.5-0.9-2.4-0.8c-1,0.2-1.8,0.8-2.4,1.6
		c-0.7,0.7-1.2,1.5-1.6,2.4c-0.4,0.9-0.6,1.9-0.4,2.9c0.9-0.3,1.9-0.3,3-0.2c0.7,0.1,1.3,0.3,1.8,0.8c0.2,0.1,0.3,0.3,0.3,0.5
		c0,0.4-0.2,0.8-0.6,0.9c-0.4,0.1-0.8,0.1-1.2,0c-0.8-0.2-1.7-0.3-2.5-0.4c-0.3,0-0.6,0-0.9,0.1c-0.7,0.4-1.1,1.3-1,2.1
		c0,0.3,0.1,0.7,0.4,0.9c0.4,0.3,1,0.1,1.5-0.1c0.8-0.4,1.8-0.5,2.7-0.6c0.1,0,0.2,0,0.3,0.1c0.2,0.1,0.3,0.4,0.1,0.6l0,0
		c-0.2,0.2-0.4,0.3-0.6,0.4c-0.7,0.2-1.4,0.4-2.1,0.5c-0.4,0.1-0.9,0.2-1.1,0.5c-0.1,0.2-0.1,0.3-0.1,0.5c0,1.4,0.4,2.7,1.1,4
		c0.1,0.2,0.3,0.4,0.5,0.5c0.3,0.1,0.6,0.2,0.9,0.2c2.4,0.2,5-0.1,7.2-1c0.1,0,0.2-0.1,0.3-0.2c0.1-0.2-0.1-0.5-0.3-0.7
		c-0.8-0.9-0.6-2.3-0.4-3.5c0-0.2,0.1-0.4,0.3-0.6c0.3-0.2,0.7-0.1,0.9,0.1c0.2,0.3,0.3,0.6,0.3,1c0.1,1.2,0.1,2.4-0.3,3.7
		c1.2-0.3,2.3-0.7,3.5-1.2c0.9-0.3,1.7-0.8,2.5-1.4c0.8-0.6,1.3-1.4,1.5-2.3c0-0.2,0-0.4-0.1-0.5c-0.1-0.1-0.2-0.2-0.3-0.3
		c-1.1-0.7-1.9-1.7-2.4-2.9c-0.1-0.2-0.2-0.6,0.1-0.7c0.1,0,0.2,0,0.3,0c1.3,0.2,1.9,1.6,3.1,2.4c0.1,0.1,0.2,0.1,0.3,0.1
		s0.3-0.1,0.3-0.2c0.4-0.4,0.7-0.9,0.8-1.5c0.3-1.1,0.2-2.3-0.2-3.5c-0.4-1.1-1.4-1.9-2.5-2.2c-0.5-0.1-1.1-0.1-1.6-0.1
		c-0.2,0-1.2,0.3-1.3,0.2c-0.1-0.1,0.4-0.9,0.5-1.1C287,220.5,286.1,218.5,284.9,217.7z"/>
	<path class="st3" d="M300.5,208.3c-1.6,0-3.2,0.8-4.2,2.1c-0.6,1.1-0.9,2.3-0.7,3.6c0.2,1.2,0.5,2.4,0.9,3.6c0.8-1.4,2.2-2.4,4-2.5
		c1.7-0.1-0.3,1.5-0.6,1.8c-0.9,1.1-1.8,2.2-2.7,3.5c-0.3,0.3-0.4,0.6-0.5,1c0,0.4,0.1,0.8,0.3,1.1c0.7,1.5,1.7,3,3.1,4
		c0.4,0.3,0.9,0.4,1.3,0.2c0.2-0.2,0.4-0.4,0.4-0.6c0.5-1,1.1-2,1.9-2.9c0.2-0.2,0.5-0.4,0.7-0.3c0.2,0.2,0.2,0.4,0.2,0.6l-0.2,2.3
		c-0.1,0.8-0.1,1.7,0.1,2.4c0.5,1.4,2.2,2.2,3.8,2.4c0.4,0.1,0.8,0.1,1.3,0c0.8-0.3,1.1-1.2,1.3-2.1c0.2-1.1,0.6-2.2,1.3-3.1
		c0.2,1.5,0.7,3,1.4,4.3c0.4,0.7,0.9,1.3,1.5,1.8c0.7,0.5,1.4,0.8,2.2,0.9c1.3,0.2,2.7,0.3,4.2,0.2c0.9,0,1.9-0.1,2.9-0.4
		c0.9-0.3,1.7-0.8,2.2-1.7c0.8-1.4,0.2-3.4-0.9-4.7c-1-1.3-2.4-2.2-3.6-3.6c1.3,0.4,2.6,1,3.8,1.9c0.3,0.3,0.6,0.5,1,0.5
		c0.2,0,0.3-0.1,0.5-0.3c1.6-1.6-0.2-4.4-1.1-5.9c-0.5-1-1.3-1.9-2.3-2.3c-0.6-0.2-1.2-0.2-1.8,0c-0.9,0.2-5.5,2.2-3.6-0.5
		c1.1-1.2,2.6-1.9,4.3-1.8c0.8,0.1,2,0.7,1.9-0.8c-0.1-0.5-0.3-1-0.6-1.4c-0.6-0.9-1.3-1.8-2-2.7c-0.2-0.3-0.5-0.5-0.8-0.5
		s-0.5,0.1-0.8,0.2c-1.9,1.1-4,1.9-6.1,2.3c-0.5,0-1.2-0.2-1.1-0.6c0-0.2,0.2-0.3,0.3-0.4c1.3-1,3.3-0.6,4.6-1.5
		c0.4-0.3,0.7-0.7,0.7-1.1c0-0.7-0.6-1.2-1.1-1.6c-1.4-1.2-3.1-2-4.9-2.2c-2.7-0.2-5.2,1.5-7,3.6c-0.6,0.7-1,2.4-1.9,2.3
		c-0.6-0.2-1.2-0.4-1.7-0.7C301.8,208.4,301.1,208.3,300.5,208.3z"/>
	<path class="st3" d="M287.3,194.1c-0.1-1-0.6-2-1.3-2.7c-1.4-1.2-3.5-1.3-5.3-1c-1.4,0.3-2.7,0.7-4.1,1.2c-1.3,0.4-1.7,0.7-0.5,1.7
		c0.8,0.7,3.1,3.5,2,4.8s-2.7-2-3.5-2.5c-0.9-0.8-2-1.3-3.3-1.4c-1.1,0.2-2,0.7-2.9,1.5c-0.8,0.7-1.5,1.4-2.3,2.2
		c-0.1,0.1-0.2,0.2-0.3,0.4c-0.2,0.6,0.6,0.9,1.2,1c1.7,0.3,3.7,1.2,4.1,3c-1.8,0.4-3.5-1.3-5.3-1.2c-1.3,0.3-2.4,1.3-3,2.6
		c-0.5,1.1-0.6,2.4-0.4,3.7c1.5-0.5,3.3-0.7,4.9-0.4c0.2,0,0.4,0.1,0.5,0.2c0.2,0.3,0,0.6-0.2,0.8c-0.3,0.1-0.6,0.2-0.9,0.2h-3
		c-0.3,0-0.6,0-0.8,0.2c-0.2,0.2-0.3,0.5-0.3,0.8c-0.2,1.3-0.2,2.7-0.1,4.2c0,0.8,0.4,1.6,0.9,2.3c0.5,0.3,1,0.6,1.6,0.7
		c1.5,0.4,3.1,0.5,4.6,0.6c-0.7-1-0.9-2.2-0.5-3.4c0.6-1.4,1.6-0.6,1.7,0.7c0,0.6-0.1,1.2-0.1,1.8c0,0.1,0,0.2,0.1,0.3
		c0.1,0.1,0.1,0.1,0.2,0.2c0.8,0.4,1.7,0.6,2.6,0.3c0.3,0,0.5-0.2,0.7-0.3c0.5-0.6,0.6-1.3,0.4-2l-0.4-3.8c0-0.2,0-0.4,0.1-0.5
		c0.2-0.2,0.5,0,0.7,0.1c0.8,0.7,1.2,1.7,1.1,2.7c0,0.6-0.2,1.1-0.3,1.7c-0.1,0.6,0.1,1.2,0.6,1.5c0.5,0.2,1.1,0.3,1.6,0.1
		c0.7-0.1,1.3-0.4,1.8-0.9c0.4-0.6,0.5-1.4,0.3-2.2c-0.2-0.7-0.3-1.5-0.4-2.2c0-1.5,1.5-3.8,1.8-1c0,0.9,0,1.7-0.2,2.6
		c0,0.1,0,0.2,0,0.3c0.1,0.2,0.4,0.3,0.6,0.3c1.2,0.1,2.4-0.1,3.6-0.7c0.7-0.4,1.4-0.9,1.9-1.5c0.4-0.5,0.7-1.1,0.9-1.7
		c1.2-2.6,3.3-4.7,0.9-7.5c-0.8-1-2.2-1.2-3.1-2.2c-0.9-1.2,0.5-3.1,0.5-4.5C287.3,194.7,287.3,194.4,287.3,194.1z"/>
	<path class="st2" d="M279.9,244.8h26.4l-2,19.8c-0.3,3.1-2.9,5.3-5.9,5.3h-10.5c-3.1,0-5.6-2.2-5.9-5.3L279.9,244.8z"/>
	<path class="st3" d="M298.3,270.4h-10.6c-3.3,0-6.1-2.4-6.4-5.8l-2-19.8c0-0.1,0-0.3,0.1-0.4c0.1-0.1,0.2-0.2,0.4-0.2h26.4
		c0.1,0,0.3,0.1,0.4,0.2c0.1,0.1,0.2,0.3,0.1,0.4l-2,19.8C304.3,267.9,301.6,270.4,298.3,270.4z M280.5,245.4l1.9,19.1
		c0.3,2.7,2.5,4.8,5.3,4.8h10.6c2.7,0,5.1-2,5.3-4.8l1.9-19.1L280.5,245.4z"/>
	<path class="st3" d="M296.7,245.2c0-0.2-2-19.1,7.2-34.4l0.9,0.5c-9.1,15-7.1,33.5-7,33.7L296.7,245.2z"/>
	<path class="st2" d="M272.8,209.2c-0.1,0-0.3-0.1-0.3-0.1c-0.2-0.2-0.2-0.5,0-0.7l0,0c5.4-5.7,13.8-9.2,14.3-9.3
		c0.3-0.1,0.6,0,0.7,0.3c0.1,0.3,0,0.6-0.3,0.7l0,0c-0.1,0-8.7,3.6-13.8,9.1C273.1,209.2,273,209.2,272.8,209.2z"/>
	<path class="st2" d="M276.4,235.6c-0.3,0-0.5-0.2-0.5-0.5c0-0.1,0-0.2,0.1-0.2c1.9-3.7,4.5-7,7.3-10c0.2-0.2,0.5-0.2,0.7,0l0,0
		c0.2,0.2,0.2,0.5,0,0.7c-2.9,2.9-5.3,6.2-7.1,9.8C276.8,235.5,276.6,235.6,276.4,235.6z"/>
	<path class="st2" d="M320.3,228.3c-0.2,0-0.3-0.1-0.4-0.2c-0.2-0.4-6.2-9.3-13.2-14.6c-0.2-0.2-0.3-0.5-0.1-0.7
		c0.2-0.2,0.5-0.3,0.7-0.1c7,5.3,12.8,13.8,13.5,14.9c0.2,0.2,0.1,0.5-0.1,0.7C320.5,228.3,320.4,228.3,320.3,228.3z"/>
	<rect x="254.8" y="48.8" class="st2" width="62.7" height="44.1"/>
	<path class="st1" d="M317.6,93.4h-62.7c-0.3,0-0.5-0.2-0.5-0.5V48.8c0-0.3,0.2-0.5,0.5-0.5h62.7c0.3,0,0.5,0.2,0.5,0.5v44
		C318.1,93.1,317.9,93.4,317.6,93.4z M255.4,92.3h61.7v-43h-61.7L255.4,92.3L255.4,92.3z"/>
	<path class="st3" d="M295.4,134.6c-0.2,0-0.5-0.2-0.5-0.4l-2.5-16.5l-4.5,1.9c-0.3,0.1-0.6,0-0.7-0.3l0,0c-0.1-0.3,0-0.5,0.3-0.7
		l0,0l5.1-2.2c0.1-0.1,0.3-0.1,0.4,0c0.1,0.1,0.2,0.2,0.3,0.4l2.6,17.1c0,0.3-0.1,0.5-0.4,0.6C295.5,134.6,295.5,134.6,295.4,134.6
		L295.4,134.6z"/>
	<polygon class="st2" points="304.1,152.3 291.2,152.3 290.5,124.4 304.8,124.4 	"/>
	<path class="st3" d="M304.1,152.8h-12.9c-0.3,0-0.5-0.2-0.5-0.5l-0.7-27.8c0-0.1,0-0.3,0.1-0.4c0.1-0.1,0.2-0.2,0.4-0.2h14.4
		c0.3,0,0.5,0.2,0.5,0.5l-0.7,27.9C304.5,152.6,304.3,152.8,304.1,152.8z M291.7,151.8h11.9l0.7-26.8H291L291.7,151.8z"/>
	<rect x="289.2" y="121.7" class="st2" width="17" height="2.9"/>
	<path class="st3" d="M306.2,125h-17c-0.3,0-0.5-0.2-0.5-0.5v-2.9c0-0.3,0.2-0.5,0.5-0.5h17c0.3,0,0.5,0.2,0.5,0.5v2.9
		C306.7,124.7,306.5,125,306.2,125z M289.7,123.9h16v-1.8h-16V123.9z"/>
	<path class="st1" d="M297.9,143c-3.5,0.3-6.4-2.2-6.7-5.7c-0.3-3.5,2.2-6.4,5.7-6.7c3.5-0.3,6.4,2.2,6.7,5.7c0,0.2,0,0.3,0,0.5
		C303.7,140,301.2,142.8,297.9,143z M297.9,131.7c-2.9-0.3-5.4,1.7-5.7,4.6c-0.3,2.9,1.7,5.4,4.6,5.7c2.9,0.3,5.4-1.7,5.7-4.6
		c0-0.2,0-0.3,0-0.5C302.7,134.1,300.7,131.8,297.9,131.7z"/>
	<path class="st1" d="M273.3,84.1c-1.2,0-2.5-0.2-3.8-0.6c-1.5-0.5-3.1-1.1-4.5-1.9l0,0c-0.3-0.2-0.7-0.4-1-0.6c-1.7-1.1-3-3-3.4-5
		c-0.1-0.7,0-1.5,0.3-2.1c0.6-0.8,1.3-1.4,2.2-1.7c0.6-0.2,1.1-0.6,1.6-1c1-1.1,0.6-2.7,0.2-4.4c-0.1-0.4-0.2-0.8-0.3-1.2
		c-0.5-2.6,0.2-5.4,1.9-7.5c1.9-2.1,4.8-3.3,7.6-3c4,0.4,7.1,2.3,8.7,5.3c1.3,2.7,1.2,6-0.4,8.7c-0.5,0.8-0.9,1.7-0.9,2.6
		c0.2,0.8,0.6,1.6,1.3,2.2c0.7,0.7,1.2,1.6,1.5,2.6c0.2,1.7-0.9,3.4-3.4,5C279,83,276.2,83.9,273.3,84.1z M265.5,80.6
		c1.4,0.7,2.9,1.4,4.4,1.8c4.4,1.5,7.7-0.1,10.8-2c2.1-1.4,3.1-2.6,3-4c-0.2-0.8-0.7-1.6-1.3-2.2c-0.8-0.7-1.3-1.7-1.5-2.7
		c0-1.1,0.3-2.2,1-3.3c1.4-2.3,1.6-5.2,0.4-7.7c-1.3-2.5-4.2-4.3-7.8-4.8c-2.5-0.3-5.1,0.7-6.8,2.6c-1.5,1.8-2.2,4.3-1.7,6.6
		c0.1,0.4,0.2,0.8,0.3,1.2c0.4,1.8,0.9,3.9-0.5,5.4c-0.6,0.5-1.2,1-1.9,1.3c-0.7,0.3-1.3,0.7-1.8,1.3c-0.2,0.5-0.3,1-0.2,1.5
		c0.3,1.7,1.4,3.3,3,4.3C264.9,80.2,265.2,80.4,265.5,80.6L265.5,80.6z"/>
	<path class="st1" d="M301.5,83.8c-2.6,0-5.3-0.6-7.7-1.6l-0.5-0.2c-2.2-1.2-4.9-1.1-7,0.3c-1.1,0.6-2.3,1-3.6,1.2
		c-2.9,0.2-5.6-0.9-7.4-3.2l0,0c-1.5-1.6-2.4-3.8-2.9-6c-0.4-2.7,1-5.4,3.5-6.6c2.4-1,5-0.3,7.4,0.4c1.7,0.6,3.7,0.9,5.6,0.8
		c1.4-0.2,2.9-0.7,4.2-1.4c0.8-0.4,1.7-0.8,2.6-1.1c4.2-1.3,12.1,0,15.3,3.5c1.7,1.8,2.3,4.4,1.7,6.8c-0.9,3.2-3.4,5.6-6.5,6.6
		C304.5,83.6,303,83.8,301.5,83.8z M290,80h0.2c1.1,0.1,2.3,0.4,3.4,0.9l0.5,0.2c3.6,1.6,7.6,1.9,11.5,0.9c2.7-0.9,5-3.1,5.8-5.9
		c0.6-2,0-4.3-1.5-5.8c-2.9-3.1-10.4-4.5-14.2-3.2c-0.8,0.3-1.7,0.6-2.4,1c-1.3,0.7-2.9,1.3-4.4,1.5c-2,0.1-4.1-0.2-5.9-0.9
		c-2.4-0.7-4.7-1.3-6.7-0.4c-2,1-3.2,3.4-2.9,5.6c0.3,2,1.2,4,2.6,5.4c1.1,1.2,3.4,3.3,6.5,2.9c1.1-0.2,2.2-0.6,3.3-1.1
		C287.1,80.6,288.5,80.1,290,80z"/>
	<path class="st1" d="M299.9,76.1c-1.4,0.1-2.7-0.5-3.7-1.5c-0.5-0.5-1.1-0.9-1.7-1.2c-0.7-0.4-1.5-0.6-2.4-0.6
		c-1.5,0-3-0.7-3.9-1.8c-1.1-1.4-1.5-3.3-1.1-5c0.4-2.2,1.8-4.3,3.9-5.5c5.4-3.2,15.6,0.1,18.8,4.9c1.1,1.6,2.5,5-1.6,8.3
		c-2.1,1.6-4.8,2.5-7.5,2.5l0,0L299.9,76.1z M296.3,60c-1.6-0.1-3.3,0.3-4.8,1.1c-1.7,1-3,2.9-3.4,4.8c-0.3,1.4,0,3,0.9,4.2
		c0.8,0.9,2,1.4,3.3,1.5c1.8,0.1,3.5,0.9,4.7,2.2c0.9,1,2.2,1.5,3.6,1.2l0,0c2.5-0.1,4.9-0.9,6.9-2.3c2.6-2.1,3.1-4.6,1.4-6.9
		C306.8,62.5,301.1,60,296.3,60z"/>
	<path class="st3" d="M142.2,72.3c0,0,3.4-2.7,0-6.2h-5.4c0,0,1.1,4.5,0,6.2H142.2z"/>
	<path class="st3" d="M142.2,72.8h-5.4c-0.2,0-0.4-0.1-0.5-0.3c-0.1-0.2-0.1-0.4,0-0.5c0.8-1.2,0.2-4.6-0.1-5.8c0-0.2,0-0.3,0.1-0.4
		c0.1-0.1,0.2-0.2,0.4-0.2h5.4c0.1,0,0.3,0.1,0.4,0.2c1,0.9,1.6,2.3,1.6,3.8c-0.1,1.2-0.7,2.3-1.6,3.2
		C142.4,72.8,142.3,72.8,142.2,72.8z M137.6,71.8h4.4c0.6-0.6,1-1.4,1.1-2.3c0-1-0.4-2-1.2-2.9h-4.5C138,68.3,138,70.1,137.6,71.8
		L137.6,71.8z"/>
	<path class="st2" d="M139.3,70.3c0.2-1.2-0.3-2.4-1.1-3.3c-0.4-0.5-0.8-1-1.3-1.4c-1-0.6-2-1-3.2-1.2c-2.5-0.6-5.4,0.2-8,0.2
		c-2.7,0.1-5.5-0.4-8-1.5c-0.9-0.3-1.6-0.8-2.2-1.5c-0.6,3.8-0.5,7.8,1.6,11c1.8,2.3,4.4,4.2,7.2,5c3.9,1.5,8.3,0.9,11.6-1.7
		c1.4-1.1,2.6-2.6,3.3-4.4C139.2,71.1,139.3,70.7,139.3,70.3z"/>
	<path class="st3" d="M128.6,78.9c-1.6,0-3.2-0.3-4.7-0.8c-3-0.9-5.6-2.7-7.4-5.2c-1.9-2.9-2.4-6.6-1.6-11.4c0-0.2,0.2-0.4,0.4-0.4
		c0.2,0,0.4,0,0.5,0.2c0.6,0.6,1.3,1.1,2,1.3c2.5,0.9,5.2,1.4,7.8,1.3c0.8,0,1.7-0.1,2.6-0.2c1.8-0.3,3.7-0.3,5.5,0
		c1.2,0.2,2.3,0.7,3.4,1.3c0.5,0.4,1,0.9,1.4,1.4c1,0.9,1.4,2.3,1.2,3.7l0,0c-0.1,0.5-0.2,0.9-0.4,1.4c-0.7,1.8-1.9,3.4-3.5,4.6
		C133.9,77.9,131.3,78.9,128.6,78.9z M115.7,62.6c-0.5,4.1,0,7.2,1.6,9.7c1.7,2.3,4.2,4,6.9,4.8c3.8,1.5,7.9,0.9,11.1-1.6
		c1.4-1,2.4-2.5,3.1-4.2c0.1-0.4,0.3-0.8,0.3-1.2c0.1-1.1-0.2-2.1-1-2.9c-0.4-0.4-0.8-0.8-1.3-1.2c-0.9-0.6-1.9-1-3.1-1.1
		c-1.7-0.3-3.5-0.3-5.2,0c-0.9,0.1-1.8,0.2-2.7,0.2c-2.9,0-5.6-0.5-8.2-1.5C116.7,63.3,116.2,62.9,115.7,62.6z M139.3,70.3
		L139.3,70.3z"/>
	<rect x="203.1" y="43.3" class="st2" width="43.9" height="29"/>
	<path class="st1" d="M247,72.8h-43.9c-0.3,0-0.5-0.2-0.5-0.5v-29c0-0.3,0.2-0.5,0.5-0.5H247c0.3,0,0.5,0.2,0.5,0.5v29
		C247.5,72.6,247.3,72.8,247,72.8z M203.6,71.8h43v-28h-42.9L203.6,71.8z"/>
	<rect x="203.1" y="72.3" class="st2" width="43.9" height="5.7"/>
	<path class="st1" d="M247,78.5h-43.9c-0.3,0-0.5-0.2-0.5-0.5v-5.7c0-0.3,0.2-0.5,0.5-0.5H247c0.3,0,0.5,0.2,0.5,0.5V78
		C247.5,78.3,247.3,78.5,247,78.5z M203.6,77.5h43v-4.7h-42.9L203.6,77.5z"/>
	<path class="st1" d="M208.1,65.6c-0.3,0-0.5-0.2-0.5-0.5c0-0.1,0-0.2,0.1-0.3c0.5-0.6,12.4-15.3,23.5-14.4c4.4,0.3,7.4,2.6,8,6.2
		c0.6,3.2-1,6.2-3.9,7.6c-3.1,1.4-6,1.4-7.9-0.1c-1.7-1.4-2.6-3.7-2.1-5.9c0.1-1.9,1.4-3.6,3.3-4.2c1.9-0.5,4,0.1,5.3,1.5
		c0.6,0.7,0.7,1.7,0.3,2.5c-0.8,1.5-1.7,2.3-2.7,2.3c-1.7,0-3-1.9-3-2c-0.1-0.2-0.1-0.6,0.2-0.7l0,0c0.2-0.1,0.5-0.1,0.7,0.2l0,0
		c0.3,0.4,1.1,1.5,2,1.5c0.9-0.1,1.4-1,1.8-1.8c0.2-0.5,0.1-1-0.2-1.4c-1.1-1.1-2.6-1.5-4.2-1.1c-1.4,0.4-2.4,1.7-2.4,3.3
		c-0.4,1.8,0.3,3.8,1.7,5c1.7,1.2,4.2,1.2,6.9,0c2.4-1.2,3.8-3.9,3.2-6.5c-0.5-3.1-3.3-5-7.1-5.3c-10.5-0.9-22.5,13.8-22.6,13.9
		C208.4,65.5,208.3,65.6,208.1,65.6z"/>
	<path class="st1" d="M225.3,99.3h-16.9c-0.3,0-0.5-0.2-0.5-0.5V85.2c0-0.3,0.2-0.5,0.5-0.5h16.9c0.3,0,0.5,0.2,0.5,0.5v13.4
		C225.8,99,225.5,99.3,225.3,99.3z M208.9,98.2h15.9V85.8h-15.9V98.2z"/>
	<path class="st1" d="M216.9,87.8c-0.3,0-0.5-0.2-0.5-0.5V84c0-0.3,0.2-0.5,0.5-0.5c0.3,0,0.5,0.2,0.5,0.5v3.2
		C217.4,87.5,217.2,87.7,216.9,87.8L216.9,87.8z"/>
</g>
</svg>
