<?xml version="1.0" encoding="utf-8"?>
<!-- Generator: Adobe Illustrator 25.4.1, SVG Export Plug-In . SVG Version: 6.00 Build 0)  -->
<svg version="1.1" id="Calque_1" xmlns="http://www.w3.org/2000/svg" xmlns:xlink="http://www.w3.org/1999/xlink" x="0px" y="0px"
	 viewBox="0 0 892 217" style="enable-background:new 0 0 892 217;" xml:space="preserve">
<style type="text/css">
	.st0{display:none;}
	.st1{display:inline;fill:#FFFFFF;stroke:#0C7189;stroke-width:3;stroke-miterlimit:10;}
	.st2{fill:#FFFFFF;}
	.st3{fill:#0C7189;}
</style>
<g>
	<g class="st0">
		<path class="st1" d="M4.4,207.5V66.9h27.2v140.6H4.4z"/>
		<path class="st1" d="M60.4,207.5V66.9h27.2v140.6H60.4z M79,207.5v-24.2h35.8c8.9,0,16.8-1.9,23.7-5.7c6.9-3.8,12.2-9.2,16-16.2
			c3.8-7,5.7-15.2,5.7-24.5c0-9.2-1.9-17.2-5.8-24c-3.9-6.8-9.2-12.1-16-16c-6.8-3.9-14.7-5.8-23.6-5.8H78.4V66.9h36.8
			c10.4,0,20.1,1.7,29,5.2c8.9,3.5,16.7,8.4,23.2,14.7c6.5,6.3,11.6,13.8,15.2,22.3c3.6,8.5,5.4,17.9,5.4,28
			c0,10.1-1.8,19.5-5.4,28.1s-8.7,16.1-15.2,22.4c-6.5,6.3-14.2,11.2-23.1,14.7c-8.9,3.5-18.4,5.2-28.7,5.2H79z"/>
		<path class="st1" d="M209.8,207.5V66.9H237v140.6H209.8z M229.8,90.9v-24h76.8v24H229.8z M229.8,147.5v-23.4h71v23.4H229.8z
			 M229.8,207.5v-24h77.8v24H229.8z"/>
		<path class="st1" d="M330.2,207.5V66.9h19l8.2,27.4v113.2H330.2z M427.4,207.5L344,99.7l5.2-32.8l83.6,107.8L427.4,207.5z
			 M427.4,207.5l-7.8-26.4V66.9h27.2v140.6H427.4z"/>
		<path class="st1" d="M465.6,91.1V66.9h117v24.2H465.6z M510.4,207.5V69.9h27.4v137.6H510.4z"/>
		<path class="st1" d="M601.4,207.5V66.9h27.2v140.6H601.4z"/>
		<path class="st1" d="M647.4,91.1V66.9h117v24.2H647.4z M692.2,207.5V69.9h27.4v137.6H692.2z"/>
		<path class="st1" d="M783.2,207.5V66.9h27.2v140.6H783.2z M803.2,90.9v-24H880v24H803.2z M803.2,147.5v-23.4h71v23.4H803.2z
			 M803.2,207.5v-24H881v24H803.2z M820.2,54.5l-10-12.4l28.6-31.2l17,20.4L820.2,54.5z"/>
	</g>
</g>
<g>
	<g>
		<rect x="8" y="66.9" class="st2" width="27.2" height="140.6"/>
		<path class="st3" d="M35.2,66.9v140.6H8V66.9H35.2 M35.2,60.9H8c-3.3,0-6,2.7-6,6v140.6c0,3.3,2.7,6,6,6h27.2c3.3,0,6-2.7,6-6
			V66.9C41.2,63.6,38.5,60.9,35.2,60.9L35.2,60.9z"/>
	</g>
	<g>
		<path class="st2" d="M171,86.8c-6.5-6.3-14.3-11.2-23.2-14.7c-8.9-3.5-18.6-5.2-29-5.2H91.2H82H64v140.6h18.6h8.6h28
			c10.3,0,19.8-1.7,28.7-5.2c8.9-3.5,16.6-8.4,23.1-14.7c6.5-6.3,11.6-13.8,15.2-22.4s5.4-18,5.4-28.1c0-10.1-1.8-19.5-5.4-28
			C182.6,100.6,177.5,93.1,171,86.8z M158.1,161.4c-3.8,7-9.1,12.4-16,16.2c-6.9,3.8-14.8,5.7-23.7,5.7H91.2V91.1h27.2
			c8.9,0,16.8,1.9,23.6,5.8c6.8,3.9,12.1,9.2,16,16c3.9,6.8,5.8,14.8,5.8,24C163.8,146.2,161.9,154.4,158.1,161.4z"/>
		<path class="st3" d="M118.8,66.9c10.4,0,20.1,1.7,29,5.2c8.9,3.5,16.7,8.4,23.2,14.7c6.5,6.3,11.6,13.8,15.2,22.3
			c3.6,8.5,5.4,17.9,5.4,28c0,10.1-1.8,19.5-5.4,28.1c-3.6,8.6-8.7,16.1-15.2,22.4c-6.5,6.3-14.2,11.2-23.1,14.7
			c-8.9,3.5-18.4,5.2-28.7,5.2h-28h-8.6H64V66.9h18h9.2H118.8 M91.2,183.3h27.2c8.9,0,16.8-1.9,23.7-5.7c6.9-3.8,12.2-9.2,16-16.2
			c3.8-7,5.7-15.2,5.7-24.5c0-9.2-1.9-17.2-5.8-24c-3.9-6.8-9.2-12.1-16-16c-6.8-3.9-14.7-5.8-23.6-5.8H91.2V183.3 M118.8,60.9H91.2
			H82H64c-3.3,0-6,2.7-6,6v140.6c0,3.3,2.7,6,6,6h18.6h8.6h28c11,0,21.4-1.9,30.9-5.6c9.6-3.7,18-9.1,25.1-16
			c7.1-6.9,12.7-15.1,16.6-24.4c3.9-9.3,5.9-19.5,5.9-30.4c0-10.9-2-21.1-5.9-30.3c-3.9-9.2-9.5-17.4-16.6-24.3
			c-7.1-6.9-15.6-12.2-25.2-16C140.4,62.8,129.9,60.9,118.8,60.9L118.8,60.9z M97.2,97.1h21.2c7.8,0,14.8,1.7,20.6,5
			c5.9,3.4,10.4,7.9,13.8,13.8c3.3,5.9,5,12.9,5,21c0,8.3-1.7,15.6-5,21.6c-3.3,6-7.7,10.5-13.6,13.8c-5.9,3.3-12.9,4.9-20.8,4.9
			H97.2V97.1L97.2,97.1z"/>
	</g>
	<g>
		<polygon class="st2" points="240.6,147.5 304.4,147.5 304.4,124.1 240.6,124.1 240.6,90.9 310.2,90.9 310.2,66.9 240.6,66.9 
			233.4,66.9 213.4,66.9 213.4,207.5 233.4,207.5 240.6,207.5 311.2,207.5 311.2,183.5 240.6,183.5 		"/>
		<path class="st3" d="M310.2,66.9v24h-69.6v33.2h63.8v23.4h-63.8v36h70.6v24h-70.6h-7.2h-20V66.9h20h7.2H310.2 M310.2,60.9h-69.6
			h-7.2h-20c-3.3,0-6,2.7-6,6v140.6c0,3.3,2.7,6,6,6h20h7.2h70.6c3.3,0,6-2.7,6-6v-24c0-3.3-2.7-6-6-6h-64.6v-24h57.8
			c3.3,0,6-2.7,6-6v-23.4c0-3.3-2.7-6-6-6h-57.8V96.9h63.6c3.3,0,6-2.7,6-6v-24C316.2,63.6,313.5,60.9,310.2,60.9L310.2,60.9z"/>
	</g>
	<g>
		<polygon class="st2" points="423.2,157.7 352.8,66.9 333.8,66.9 333.8,207.5 361,207.5 361,117 431,207.5 450.4,207.5 450.4,66.9 
			423.2,66.9 		"/>
		<path class="st3" d="M450.4,66.9v140.6H431L361,117v90.5h-27.2V66.9h19l70.4,90.8V66.9H450.4 M450.4,60.9h-27.2c-3.3,0-6,2.7-6,6
			v73.3l-59.7-76.9c-1.1-1.5-2.9-2.3-4.7-2.3h-19c-3.3,0-6,2.7-6,6v140.6c0,3.3,2.7,6,6,6H361c3.3,0,6-2.7,6-6v-72.9l59.3,76.6
			c1.1,1.5,2.9,2.3,4.7,2.3h19.4c3.3,0,6-2.7,6-6V66.9C456.4,63.6,453.7,60.9,450.4,60.9L450.4,60.9z"/>
	</g>
	<g>
		<polygon class="st2" points="469.2,91.1 514,91.1 514,207.5 541.4,207.5 541.4,91.1 586.2,91.1 586.2,66.9 469.2,66.9 		"/>
		<path class="st3" d="M586.2,66.9v24.2h-44.8v116.4H514V91.1h-44.8V66.9H586.2 M586.2,60.9h-117c-3.3,0-6,2.7-6,6v24.2
			c0,3.3,2.7,6,6,6H508v110.4c0,3.3,2.7,6,6,6h27.4c3.3,0,6-2.7,6-6V97.1h38.8c3.3,0,6-2.7,6-6V66.9
			C592.2,63.6,589.5,60.9,586.2,60.9L586.2,60.9z"/>
	</g>
	<g>
		<rect x="605" y="66.9" class="st2" width="27.2" height="140.6"/>
		<path class="st3" d="M632.2,66.9v140.6H605V66.9H632.2 M632.2,60.9H605c-3.3,0-6,2.7-6,6v140.6c0,3.3,2.7,6,6,6h27.2
			c3.3,0,6-2.7,6-6V66.9C638.2,63.6,635.5,60.9,632.2,60.9L632.2,60.9z"/>
	</g>
	<g>
		<polygon class="st2" points="651,91.1 695.8,91.1 695.8,207.5 723.2,207.5 723.2,91.1 768,91.1 768,66.9 651,66.9 		"/>
		<path class="st3" d="M768,66.9v24.2h-44.8v116.4h-27.4V91.1H651V66.9H768 M768,60.9H651c-3.3,0-6,2.7-6,6v24.2c0,3.3,2.7,6,6,6
			h38.8v110.4c0,3.3,2.7,6,6,6h27.4c3.3,0,6-2.7,6-6V97.1H768c3.3,0,6-2.7,6-6V66.9C774,63.6,771.3,60.9,768,60.9L768,60.9z"/>
	</g>
	<g>
		<polygon class="st2" points="859.4,31.3 842.4,10.9 813.8,42.1 823.8,54.5 		"/>
		<path class="st3" d="M842.4,10.9l17,20.4l-35.6,23.2l-10-12.4L842.4,10.9 M842.4,4.9c-1.7,0-3.3,0.7-4.4,1.9L809.4,38
			c-2,2.2-2.1,5.5-0.2,7.8l10,12.4c1.2,1.5,2.9,2.2,4.7,2.2c1.1,0,2.3-0.3,3.3-1l35.6-23.2c1.4-0.9,2.4-2.4,2.7-4.1
			c0.3-1.7-0.2-3.4-1.3-4.7L847,7c-1.1-1.3-2.7-2.1-4.5-2.2C842.5,4.9,842.4,4.9,842.4,4.9L842.4,4.9z"/>
	</g>
	<g>
		<polygon class="st2" points="814,183.5 814,147.5 877.8,147.5 877.8,124.1 814,124.1 814,90.9 883.6,90.9 883.6,66.9 814,66.9 
			806.8,66.9 786.8,66.9 786.8,207.5 806.8,207.5 814,207.5 884.6,207.5 884.6,183.5 		"/>
		<path class="st3" d="M883.6,66.9v24H814v33.2h63.8v23.4H814v36h70.6v24H814h-7.2h-20V66.9h20h7.2H883.6 M883.6,60.9H814h-7.2h-20
			c-3.3,0-6,2.7-6,6v140.6c0,3.3,2.7,6,6,6h20h7.2h70.6c3.3,0,6-2.7,6-6v-24c0-3.3-2.7-6-6-6H820v-24h57.8c3.3,0,6-2.7,6-6v-23.4
			c0-3.3-2.7-6-6-6H820V96.9h63.6c3.3,0,6-2.7,6-6v-24C889.6,63.6,886.9,60.9,883.6,60.9L883.6,60.9z"/>
	</g>
</g>
</svg>
