<?xml version="1.0" encoding="utf-8"?>
<!-- Generator: Adobe Illustrator 25.4.1, SVG Export Plug-In . SVG Version: 6.00 Build 0)  -->
<svg version="1.1" id="Calque_1" xmlns="http://www.w3.org/2000/svg" xmlns:xlink="http://www.w3.org/1999/xlink" x="0px" y="0px"
	 viewBox="0 0 337 278.4" style="enable-background:new 0 0 337 278.4;" xml:space="preserve">
<g>
	<defs>
		<path id="SVGID_1_" d="M144.9,254.8c-19.4,1-38.6,7.8-58,6.5C50.7,258.8,21,227,12.7,191.5c-4.3-18.4-3.5-38.8,7.2-54.3
			c4-5.7,9.1-10.6,13.1-16.2c13-18.1,13.8-42.7,25.9-61.4C73,37.8,99.5,27.9,124.6,21.3c14.8-3.8,29.7-7,44.7-9.5
			c22.5-3.7,47.5-5.3,66.1,8c13.9,9.9,21.5,26.3,31,40.3c12.7,18.7,29.8,34,43.2,52.1c15.3,20.5,19.8,40,17.4,61.2l-0.2,1.8
			c-1.4,9.6-3.8,18.9-7.2,28.1c-10.3,28.5-33.1,53.7-63.5,60.3C219.5,271.9,182.2,252.9,144.9,254.8z"/>
	</defs>
	<clipPath id="SVGID_00000152968195817959271730000011825719367174222233_">
		<use xlink:href="#SVGID_1_"  style="overflow:visible;"/>
	</clipPath>
	<g style="clip-path:url(#SVGID_00000152968195817959271730000011825719367174222233_);">
		
			<image style="overflow:visible;" width="4000" height="6000" xlink:href="C:\Users\Dame Choupi\Downloads\pawel-czerwinski-ruJm3dBXCqw-unsplash.jpg"  transform="matrix(4.027655e-18 -6.577659e-02 6.577659e-02 4.027655e-18 -32.9864 268.2938)">
		</image>
	</g>
</g>
</svg>
