<?xml version="1.0" encoding="utf-8"?>
<!-- Generator: Adobe Illustrator 25.4.1, SVG Export Plug-In . SVG Version: 6.00 Build 0)  -->
<svg version="1.1" id="Calque_1" xmlns="http://www.w3.org/2000/svg" xmlns:xlink="http://www.w3.org/1999/xlink" x="0px" y="0px"
	 viewBox="0 0 406 306" style="enable-background:new 0 0 406 306;" xml:space="preserve">
<style type="text/css">
	.st0{fill:#B5DEFF;}
	.st1{fill:#D1D3D4;}
	.st2{fill:#FFFFFF;}
	.st3{fill:#231F20;}
	.st4{fill:#EBCA94;}
	.st5{fill:none;}
</style>
<g id="_003">
	<path class="st0" d="M176,263.1c-19.1,1-37.8,7.8-56.7,6.4c-35.5-2.5-64.5-33.6-72.6-68.3c-4.2-18-3.4-38,7.1-53.2
		c3.8-5.6,8.8-10.4,12.8-15.9c12.6-17.7,13.4-41.7,25.3-60c13.9-21.3,39.7-31.1,64.2-37.4c14.4-3.7,29-6.8,43.7-9.2
		c22-3.6,46.5-5.2,64.7,7.8c13.7,9.7,21,25.6,30.4,39.4c12.4,18.2,29.2,33.2,42.3,51c14.9,20.1,19.4,39.1,17.1,59.8l-0.3,1.8
		c-1.4,9.3-3.7,18.5-7.1,27.5c-10,27.8-32.4,52.5-62.1,59C248.9,279.8,212.5,261.2,176,263.1z"/>
	<path class="st1" d="M361.1,235.1H44.9c-0.3,0-0.5-0.2-0.5-0.5l0,0c0-0.3,0.2-0.5,0.5-0.5h316.4c0.3,0,0.5,0.2,0.5,0.5
		C361.6,234.9,361.4,235.1,361.1,235.1z"/>
	<path class="st2" d="M73.9,46.3h264.2c3,0,5.5,2.4,5.5,5.5V209c0,3-2.4,5.5-5.5,5.5H73.9c-3,0-5.5-2.4-5.5-5.5V51.8
		C68.5,48.7,71,46.3,73.9,46.3z"/>
	<path class="st3" d="M338.1,214.9H73.9c-3.3,0-6-2.7-6-6V51.8c0-3.3,2.7-5.9,6-5.9h264.2c3.3,0,6,2.7,6,6v157.2
		C344.1,212.3,341.4,214.9,338.1,214.9z M73.9,46.8c-2.7,0-4.9,2.2-4.9,4.9l0,0v157.2c0,2.7,2.2,4.9,4.9,5h264.2
		c2.7,0,4.9-2.2,4.9-5V51.8c0-2.7-2.2-4.9-4.9-4.9L73.9,46.8L73.9,46.8z"/>
	<path class="st1" d="M190.7,166.8H84.4c-0.3,0-0.5-0.2-0.5-0.5l0,0c0-0.3,0.2-0.5,0.5-0.5h106.2c0.3,0,0.5,0.2,0.5,0.5
		C191.1,166.6,190.9,166.8,190.7,166.8L190.7,166.8z"/>
	<path class="st1" d="M141.7,205.9c-0.3,0-0.5-0.2-0.5-0.5l0,0V166c0-0.3,0.2-0.5,0.5-0.5l0,0c0.3,0,0.5,0.2,0.5,0.5v39.2
		C142.2,205.7,142,205.9,141.7,205.9L141.7,205.9z"/>
	<path class="st1" d="M324.9,140.6H202.8c-0.3,0-0.5-0.2-0.5-0.5l0,0c0-0.3,0.2-0.5,0.4-0.5l0,0h122.2c0.3,0,0.5,0.2,0.5,0.4l0,0
		C325.4,140.4,325.2,140.6,324.9,140.6z"/>
	<path class="st1" d="M324.9,152.6H202.8c-0.3,0-0.5-0.2-0.5-0.4l0,0c0-0.3,0.2-0.5,0.5-0.5l0,0H325c0.3,0,0.5,0.2,0.5,0.5
		C325.4,152.4,325.2,152.6,324.9,152.6C325,152.6,325,152.6,324.9,152.6z"/>
	<path class="st1" d="M324.9,164.5H202.8c-0.3,0-0.5-0.2-0.5-0.5s0.2-0.5,0.5-0.5H325c0.3,0,0.5,0.2,0.5,0.5
		C325.4,164.3,325.2,164.5,324.9,164.5C325,164.5,325,164.5,324.9,164.5z"/>
	<path class="st1" d="M324.9,176.5H202.8c-0.3,0-0.4-0.3-0.4-0.5s0.2-0.4,0.4-0.4H325c0.3,0,0.4,0.3,0.4,0.5
		C325.3,176.3,325.2,176.5,324.9,176.5z"/>
	<path class="st1" d="M324.9,188.4H202.8c-0.3,0-0.5-0.2-0.5-0.5s0.2-0.5,0.5-0.5H325c0.3,0,0.5,0.2,0.5,0.5
		C325.4,188.2,325.2,188.4,324.9,188.4C325,188.4,325,188.4,324.9,188.4z"/>
	<path class="st1" d="M331.2,124.5H190.1c-0.3,0-0.5-0.2-0.5-0.5l0,0c0-0.3,0.2-0.5,0.5-0.5h141.2c0.3,0,0.5,0.2,0.5,0.5
		C331.7,124.3,331.5,124.5,331.2,124.5z"/>
	<path class="st4" d="M204.5,80.2h44.3c1.2,0,2.1,0.9,2.1,2.1v28.8c0,1.2-0.9,2.1-2.1,2.1h-44.3c-1.2,0-2.1-0.9-2.1-2.1V82.3
		C202.4,81.2,203.3,80.2,204.5,80.2z"/>
	<path class="st1" d="M190.5,205c-0.3,0-0.5-0.2-0.5-0.4l0,0V70.6c0-0.3,0.2-0.5,0.5-0.5l0,0c0.3,0,0.5,0.2,0.5,0.5v133.8
		C190.9,204.8,190.7,205,190.5,205z"/>
	<path class="st1" d="M332.2,70.8H79.4c-0.3,0-0.5-0.2-0.5-0.5s0.2-0.5,0.5-0.5h252.6c0.3,0,0.5,0.2,0.5,0.5
		C332.7,70.6,332.5,70.8,332.2,70.8L332.2,70.8z"/>
	<path class="st3" d="M327,206.3H85.1c-3.3,0-6-2.7-6-6V60.5c0-3.3,2.7-6,6-6h241.8c3.3,0,6,2.7,6,6v139.8
		C332.8,203.6,330.3,206.3,327,206.3z M85.1,55.6c-2.7,0-4.9,2.2-5,5v139.8c0,2.7,2.2,4.9,5,4.9h241.8c2.7,0,4.9-2.2,5-4.9V60.5
		c0-2.7-2.2-4.9-5-5L85.1,55.6L85.1,55.6z"/>
	<path class="st2" d="M234.1,214.5l-29-0.1l-29,0.1c0,0-2.6,26.3-19.2,37.5h96.4C236.6,240.8,234.1,214.5,234.1,214.5z"/>
	<path class="st3" d="M253.3,252.6h-96.5c-0.2,0-0.4-0.1-0.5-0.4c-0.1-0.2,0-0.4,0.2-0.6c16.2-11,18.9-36.9,19-37.1
		c0-0.3,0.2-0.5,0.5-0.5l29-0.1l29,0.1c0.3,0,0.5,0.2,0.5,0.5c0,0.3,2.7,26.2,19,37.1c0.2,0.1,0.3,0.4,0.2,0.6
		C253.7,252.4,253.5,252.6,253.3,252.6z M158.4,251.6h93.3c-14.3-10.9-17.6-33.1-18.1-36.5l-28.6-0.1l-28.6,0.1
		C176,218.5,172.7,240.7,158.4,251.6L158.4,251.6z"/>
	<path class="st2" d="M149.5,252.1h111c2.7,0,4.9,2.2,4.9,4.9v0.2c0,2.7-2.2,4.9-4.9,4.9h-111c-2.7,0-4.9-2.2-4.9-4.9v-0.2
		C144.5,254.3,146.8,252.1,149.5,252.1z"/>
	<path class="st3" d="M260.6,262.5h-111c-3,0-5.4-2.4-5.4-5.4v-0.2c0-3,2.4-5.4,5.4-5.4h111c3,0,5.4,2.4,5.4,5.4v0.2
		C265.9,260.1,263.5,262.5,260.6,262.5z M149.5,252.6c-2.4,0-4.4,2-4.4,4.4v0.2c0,2.4,2,4.4,4.4,4.4h111c2.4,0,4.4-2,4.4-4.4v-0.2
		c0-2.4-2-4.4-4.4-4.4H149.5z"/>
	<circle class="st4" cx="95.6" cy="63.5" r="3.2"/>
	<circle class="st3" cx="107.9" cy="63.5" r="3.2"/>
	<circle class="st3" cx="120.3" cy="63.5" r="3.2"/>
	<path class="st2" d="M101.3,228.2l8.3,30.3c0,0,14.4,3.4,14.1,4.3c-0.3,0.9-22.8,4-22.8,4l-9.6-35"/>
	<path class="st3" d="M100.9,267.3c-0.2,0-0.4-0.2-0.5-0.4l-9.6-35c-0.1-0.3,0.1-0.5,0.3-0.6l0,0c0.3-0.1,0.5,0.1,0.6,0.4l9.5,34.6
		c7.5-1,18.6-2.7,21.5-3.5c-4.4-1.5-8.8-2.7-13.3-3.7c-0.2,0-0.3-0.2-0.4-0.4l-8.3-30.4c-0.1-0.3,0.1-0.6,0.4-0.6
		c0.3-0.1,0.6,0.1,0.6,0.4l8.2,30.1c5.2,1.2,13.5,3.3,14.1,4.4c0.1,0.2,0.1,0.3,0.1,0.5C124.1,263.3,123.8,264.2,100.9,267.3
		L100.9,267.3z M123.3,263L123.3,263z"/>
	<path class="st2" d="M75.6,218.1L73.3,264c0,0,22.6,4.9,22.7,4.3c0.1-0.6-12.1-9.3-12.1-9.3l3.6-32.6"/>
	<path class="st3" d="M95.8,268.9c-1.1,0-5.3-0.6-22.6-4.4c-0.2-0.1-0.4-0.3-0.4-0.5l2.4-45.9c0-0.3,0.3-0.5,0.5-0.5
		c0.3,0,0.5,0.3,0.5,0.5l-2.4,45.5c7,1.5,17.4,3.7,20.9,4.2c-2-1.7-7.6-5.8-11.3-8.4c-0.1-0.1-0.2-0.3-0.2-0.5l3.5-32.7
		c0-0.3,0.3-0.5,0.6-0.5l0,0c0.3,0,0.5,0.3,0.5,0.6l-3.5,32.4c12.2,8.8,12.2,9.3,12.1,9.7c0,0.1-0.1,0.3-0.2,0.4
		C96.2,268.8,96.1,268.9,95.8,268.9z"/>
	<path class="st3" d="M114.4,258.2l-3,4.7l-11.9,1.4l1.2,4.6c0,0,26.3-3.3,26.8-5.7C127.9,260.7,114.4,258.2,114.4,258.2z"/>
	<path class="st3" d="M71.2,265.1l0.7-4.7l13.8,3.8l2.7-3.6c0,0,10.2,7.4,8.8,9C95.8,271.2,80.7,268.3,71.2,265.1z"/>
	<path class="st2" d="M66.5,106.1c1.3-0.4,2.8-0.3,4.1,0.3c1.6-3.9,5.1-6.6,9.2-7.4c1.4-0.2,2.8-0.3,4.3-0.4c2.1,0,4.4,0.1,6.1,1.4
		c2,1.7,2.7,4.5,2,7c-1.2,5.1-5.1,6.3-8.6,9.2c-3.4,3-5.4,7.3-5.4,11.8c0,10,3.2,21-7.8,27c-7,3.8-16.4,0.9-21.1-5.6
		c-1.1-1.4-1.8-3-2.3-4.7c-1.1-4.6,0.8-9.3,3.3-13.2c2.5-4,5.1-7.6,7.2-11.7c1.8-3.6,2-7.8,4.6-11C63.2,107.6,64.8,106.6,66.5,106.1
		z"/>
	<path class="st3" d="M63.6,157.2c-5.8-0.1-11.2-2.8-14.6-7.5c-1.1-1.4-1.9-3.1-2.4-4.8c-1-4,0.1-8.5,3.4-13.6
		c0.7-1.1,1.5-2.3,2.2-3.4c1.8-2.6,3.5-5.4,5-8.2c0.7-1.4,1.2-2.9,1.6-4.4c0.6-2.4,1.6-4.7,3-6.7c1.2-1.5,2.8-2.5,4.6-3l0,0
		c1.3-0.4,2.7-0.3,4,0.1c1.8-3.8,5.3-6.5,9.4-7.2c1.4-0.2,2.9-0.4,4.3-0.4c2.2,0,4.6,0.1,6.4,1.5c2.1,1.9,3,4.8,2.2,7.5
		c-1,4.1-3.5,5.8-6.1,7.6c-0.9,0.6-1.7,1.2-2.6,1.9c-3.3,2.9-5.2,7.1-5.2,11.5c0,1.8,0.1,3.7,0.2,5.5c0.5,8.3,1,16.8-8.3,21.9
		C68.6,156.6,66.1,157.3,63.6,157.2z M66.6,106.6c-1.6,0.5-3,1.4-4.1,2.7c-1.4,1.9-2.3,4.1-2.9,6.4c-0.4,1.6-1,3.1-1.7,4.6
		c-1.5,2.9-3.2,5.6-5,8.3c-0.7,1.1-1.5,2.3-2.2,3.4c-3.1,5-4.2,9.2-3.3,12.8c0.4,1.6,1.2,3.1,2.2,4.5c4.8,6.6,13.9,9,20.4,5.4
		c8.7-4.8,8.2-12.6,7.8-21c-0.1-1.8-0.2-3.7-0.2-5.6c0-4.7,2-9.2,5.6-12.2c0.9-0.7,1.8-1.3,2.6-1.9c2.6-1.8,4.8-3.3,5.7-7
		c0.5-2.1,0.1-4.9-1.9-6.5c-1.6-1.2-3.8-1.4-5.8-1.3c-1.4,0-2.8,0.1-4.2,0.4c-3.9,0.7-7.2,3.4-8.8,7.1c-0.1,0.1-0.2,0.2-0.3,0.3
		c-0.1,0-0.3,0-0.4,0C69.2,106.3,67.9,106.2,66.6,106.6L66.6,106.6z"/>
	<path class="st2" d="M99.5,139.2c-2.3,0.9-6,1.7-6.9-1.5c-0.1-0.6-0.2-1.1-0.1-1.7c0.1-0.8,0.2-1.7,0.5-2.5
		c0.6-2.3,1.4-4.5,2.4-6.7c0.2-0.5,0.7-1.2,1.3-1c0.6,0.2,0.5,0.8,0.5,1.3c0,1.4-0.2,2.8-0.2,4.3c3-0.8,4.9-3.9,7.7-4.6
		c0.8-0.2,1.8-0.2,1.9,0.8c0.1,1.3-2.2,2.3-3,2.9c0.9-0.7,1.9-1.3,2.9-1.7c0.3-0.1,0.6-0.2,1-0.2c0.3,0,0.6,0.3,0.6,0.6
		s-0.1,0.5-0.3,0.7c-0.4,0.5-0.9,1-1.5,1.4c0.5-0.6,1.2-1.1,2-1.2c0.4-0.1,0.9,0,1.1,0.3c0.3,0.5-0.3,1.1-0.9,1.5
		c0.4-0.4,1-0.7,1.5-0.8c0.6-0.1,1.2,0.3,1.3,0.9c0,0.5-0.2,0.9-0.6,1.2C107.8,136.2,103.3,137.8,99.5,139.2z"/>
	<path class="st3" d="M96,140.5c-0.7,0-1.4-0.1-2-0.4c-0.9-0.4-1.5-1.2-1.8-2.2c-0.2-0.6-0.2-1.3-0.2-1.9c0.1-0.9,0.2-1.7,0.5-2.6
		c0.6-2.3,1.4-4.6,2.4-6.8c0.4-1,1.2-1.5,1.9-1.3c0.4,0.1,0.9,0.6,0.9,1.8c0,0.6,0,1.2-0.1,1.8c-0.1,0.6-0.1,1.1-0.1,1.7
		c1.1-0.5,2.1-1.2,3-2c1.1-1.1,2.5-1.9,4-2.3c0.6-0.2,1.3-0.2,1.9,0.2c0.3,0.3,0.5,0.7,0.5,1.1c0,0.2,0,0.4-0.1,0.6
		c0.2,0,0.4,0,0.6,0c0.5,0.1,1,0.6,1,1.1c0,0.1,0,0.2,0,0.3c0.5-0.1,1.1,0.1,1.3,0.6c0.1,0.1,0.1,0.3,0.2,0.4l0,0
		c0.5,0,1,0.1,1.3,0.4c0.3,0.2,0.5,0.6,0.5,0.9c0,0.6-0.3,1.2-0.8,1.6c-2.9,2.8-7.2,4.5-10.9,5.9l-0.5,0.2l0,0
		C98.4,140.1,97.1,140.4,96,140.5z M96.4,126.4c-0.2,0-0.4,0.3-0.6,0.7c-1,2.2-1.8,4.4-2.4,6.7c-0.2,0.8-0.4,1.6-0.4,2.4
		c0,0.5,0,1,0.1,1.5c0.2,0.7,0.6,1.2,1.3,1.6c1.5,0.7,3.8,0,5-0.4l0.5-0.2c3.7-1.4,7.8-3,10.6-5.7c0.2-0.2,0.5-0.5,0.5-0.8
		c0-0.1-0.1-0.2-0.1-0.3c-0.2-0.1-0.4-0.2-0.6-0.2c-0.3,0-0.6,0.2-0.8,0.3c-0.2,0.1-0.3,0.3-0.5,0.4s-0.5,0.1-0.7-0.2
		c-0.1-0.2-0.1-0.5,0.1-0.7l0.5-0.3c0.1-0.1,0.2-0.2,0.3-0.4c-0.1-0.2-0.3-0.2-0.6-0.2c-0.3,0.1-0.7,0.2-1,0.4
		c-0.3,0.3-0.6,0.5-0.9,0.8c-0.2,0.2-0.5,0.1-0.7-0.1c-0.2-0.2-0.2-0.5,0-0.7c0.3-0.3,0.6-0.6,1-0.9c0.2-0.2,0.3-0.3,0.5-0.5
		c0.2-0.2,0.2-0.3,0.2-0.3s-0.1-0.1-0.2-0.2c-0.2,0-0.5,0-0.7,0.1c-0.4,0.1-0.7,0.3-1.1,0.5c-0.3,0.2-0.6,0.4-0.9,0.6
		c-0.3,0.2-0.5,0.3-0.8,0.5l0,0c-0.2,0.2-0.5,0.2-0.7,0c-0.2-0.2-0.2-0.5,0-0.7l0,0l0,0c0.5-0.5,1.1-0.9,1.8-1.2
		c0.6-0.4,1-0.9,1-1.3c0-0.3-0.1-0.3-0.1-0.3s-0.4-0.2-1.1,0c-1.3,0.4-2.6,1.2-3.6,2.2c-1.2,1.1-2.5,1.9-4.1,2.4
		c-0.2,0-0.3,0-0.4-0.1c-0.1-0.1-0.2-0.2-0.2-0.4c0-0.8,0-1.7,0.1-2.5c0.1-0.6,0.1-1.2,0.1-1.8C96.7,126.7,96.6,126.5,96.4,126.4
		L96.4,126.4z M99.5,139.2L99.5,139.2z"/>
	<path class="st2" d="M97,131.6c1.4,1.7,1.4,4.1,0.1,5.9h0.3"/>
	<path class="st3" d="M97.1,137.9c-0.2,0-0.4-0.1-0.5-0.3c-0.1-0.2-0.1-0.4,0.1-0.5c1.2-1.5,1.2-3.7-0.1-5.2
		c-0.2-0.2-0.2-0.5,0.1-0.7c0.2-0.2,0.5-0.2,0.7,0.1c1.4,1.7,1.6,4.1,0.5,6c0,0.1,0,0.1,0,0.2c0,0.3-0.2,0.5-0.5,0.5l0,0L97.1,137.9
		L97.1,137.9z"/>
	<path class="st2" d="M101,98.6h67.2c1.9,0,3.4,1.5,3.4,3.4v28.4c0,1.9-1.5,3.4-3.4,3.4H101c-1.9,0-3.4-1.5-3.4-3.4V102
		C97.6,100.1,99.1,98.6,101,98.6z"/>
	<path class="st3" d="M168.2,134.2H101c-2.2,0-3.9-1.7-3.9-3.9V102c0-2.2,1.7-3.9,3.9-3.9h67.2c2.2,0,3.9,1.7,3.9,3.9v28.4
		C172.1,132.5,170.3,134.2,168.2,134.2z M101,99.1c-1.6,0-2.9,1.3-2.9,2.9v28.4c0,1.6,1.3,2.9,2.9,2.9h67.2c1.6,0,2.9-1.3,2.9-2.9
		v-28.3c0-1.6-1.3-2.9-2.9-2.9L101,99.1z"/>
	<circle class="st3" cx="114.7" cy="116.1" r="9.4"/>
	<path class="st3" d="M163.6,111.7h-29.9c-0.3,0-0.5-0.2-0.5-0.5s0.2-0.5,0.5-0.5h29.9c0.3,0,0.5,0.2,0.5,0.5
		S163.8,111.7,163.6,111.7L163.6,111.7z"/>
	<path class="st3" d="M163.6,116.6h-29.9c-0.3,0-0.5-0.2-0.5-0.5s0.2-0.5,0.5-0.5h29.9c0.3,0,0.5,0.2,0.5,0.5
		S163.8,116.6,163.6,116.6z"/>
	<path class="st3" d="M153.2,121.6h-19.4c-0.3,0-0.5-0.2-0.5-0.5c0-0.3,0.2-0.5,0.5-0.5h19.4c0.3,0,0.5,0.2,0.5,0.5
		C153.7,121.4,153.4,121.6,153.2,121.6z"/>
	<path class="st2" d="M98.9,138.9c0,0,12,8,16.6,5.6c4.7-2.4,14.2-11,14.2-11s2.3-5.6,4.3-5.2c2,0.4,0.1,5.8,0.1,5.8
		s11.8-2,11.8-0.8c-0.1,1.2-6.4,4.2-9.2,4.7c-2.8,0.5-12.9,16.5-19.7,18.4c-6.8,1.9-13.6-2.3-21-6.8"/>
	<path class="st3" d="M113.6,157.4c-5.9,0-11.7-3.6-17.7-7.4c-0.2-0.1-0.3-0.4-0.2-0.7l0,0c0.1-0.2,0.4-0.3,0.7-0.2l0,0
		c7.2,4.4,13.8,8.6,20.5,6.8c3.9-1.1,9.1-7.2,13.2-12c3.3-3.9,5.3-6.2,6.6-6.4c2.8-0.5,7.7-3,8.7-4.1c-1.3-0.2-6.5,0.4-11.1,1.1
		c-0.2,0-0.4,0-0.5-0.2c-0.1-0.1-0.2-0.3-0.1-0.5c0.5-1.4,1.1-4,0.6-4.9c-0.1-0.1-0.2-0.2-0.3-0.2c-1.1-0.2-2.9,2.8-3.7,4.9
		c0,0.1-0.1,0.1-0.1,0.2c-0.4,0.4-9.8,8.6-14.4,11.1c-4.9,2.5-16.7-5.3-17.2-5.7c-0.2-0.2-0.3-0.5-0.1-0.7c0.2-0.2,0.4-0.2,0.6-0.1
		c3.3,2.2,12.5,7.5,16.1,5.6c4.4-2.2,13.1-10,14-10.8c0.5-1.2,2.6-5.9,4.8-5.4c0.4,0.1,0.8,0.4,1,0.8c0.7,1.2,0.1,3.6-0.2,4.9
		c4.2-0.7,10.5-1.5,11.4-0.7c0.2,0.2,0.2,0.4,0.2,0.6c-0.2,1.7-7.2,4.7-9.7,5.1c-1,0.2-3.5,3.2-6,6.1c-4.3,5-9.6,11.2-13.7,12.3
		C116.1,157.2,114.8,157.4,113.6,157.4z"/>
	<path class="st3" d="M94.4,166.9c1,7,1.2,9.8,11.2,66.9c0,0-23.2,5.5-32.3,7.1c-6.1-12.5-8.8-23.8-12.9-36.9
		c-2.7-8.6-4.7-20.1-0.9-28.2c0.6-1.3,6.6-13.9,6.6-13.9S94.4,167.2,94.4,166.9z"/>
	<path class="st2" d="M74,135.3c0.4-7.7-1.2-23.1-1.2-23.1s9.8,0.6,12.9-4.1c4.1,3.1,4.9,11.9,4.1,14.6c-1.5,5.2-8.3,4.1-8.3,4.1
		l0.9,9.6L74,135.3z"/>
	<path class="st3" d="M82.6,136.7L82.6,136.7l-8.6-1c-0.3,0-0.5-0.3-0.4-0.5c0.4-7.5-1.2-22.9-1.2-23c0-0.1,0-0.3,0.1-0.4
		c0.1-0.1,0.2-0.2,0.4-0.2c0.1,0,9.5,0.5,12.5-3.9c0.2-0.2,0.5-0.3,0.7-0.1l0,0c4.2,3.3,5.1,12.3,4.3,15.1c-1.3,4.6-6.4,4.7-8.2,4.5
		l0.8,9c0,0.2,0,0.3-0.2,0.4C82.9,136.6,82.7,136.7,82.6,136.7z M74.5,134.8l7.5,0.9l-0.8-9c0-0.2,0-0.3,0.2-0.4
		c0.1-0.1,0.3-0.2,0.4-0.1c0.3,0,6.4,1,7.7-3.7c0.6-2.3,0-10.5-3.5-13.7c-3.2,3.8-10.4,4-12.5,3.9C73.6,115.4,74.8,127.9,74.5,134.8
		z"/>
	<path class="st3" d="M81.7,126.7c-1.5-0.2-3-0.8-4.2-1.7c0,0,1.9,4.6,4.7,5.3L81.7,126.7z"/>
	<path class="st3" d="M82.2,130.8L82.2,130.8c-3.1-0.8-5.1-5.4-5.2-5.6c-0.1-0.2,0-0.4,0.2-0.6c0.2-0.1,0.4-0.1,0.6,0.1
		c1.3,1.3,3.9,1.6,3.9,1.6c0.2,0,0.4,0.2,0.4,0.4l0.5,3.6c0,0.2,0,0.3-0.1,0.4C82.4,130.7,82.3,130.8,82.2,130.8z M78.7,126.3
		c0.7,1.3,1.7,2.5,3,3.3l-0.4-2.5C80.4,126.9,79.5,126.7,78.7,126.3z"/>
	<path class="st4" d="M89.1,131.3l22.2,12.1l-5.4,15.5c0,0-27.9-14.7-28.1-18.7C77.6,136.2,89.1,131.3,89.1,131.3z"/>
	<path class="st4" d="M94.7,169.7c1.4-7.9,1.5-15.8,0.3-23.7c-0.9-5.2-0.5-8.8-2.2-11.6c-5.7-9.4-28-6.6-31.2-0.1
		c-3.2,6.5,2.8,30.2,2.8,30.2L94.7,169.7z"/>
	<path class="st2" d="M74.4,117.5c-0.3-1.2-1.2-2.2-2.4-2.6c-0.5-0.2-1.1-0.1-1.6,0.2c-0.6,0.5-0.9,1.3-0.7,2c0.1,1.2,0.6,2.3,1.5,3
		c0.9,0.8,2,1.2,3.1,1.2"/>
	<path class="st3" d="M74.2,121.8c-1.3,0-2.5-0.5-3.4-1.3c-0.9-0.9-1.5-2.1-1.6-3.4c-0.1-0.9,0.2-1.9,1-2.4c0.6-0.4,1.3-0.5,2-0.3
		c1.4,0.4,2.4,1.5,2.7,2.9c0,0.3-0.1,0.5-0.4,0.6c-0.3,0-0.5-0.1-0.6-0.4c-0.2-1-1-1.9-2-2.2c-0.4-0.1-0.8-0.1-1.2,0.1
		c-0.4,0.4-0.6,1-0.5,1.5c0.1,1,0.5,2,1.3,2.7c0.8,0.7,1.8,1.1,2.8,1l0,0c0.3,0,0.5,0.2,0.5,0.5C74.8,121.6,74.5,121.8,74.2,121.8
		L74.2,121.8z"/>
	<ellipse transform="matrix(0.9546 -0.2979 0.2979 0.9546 -29.7297 30.8037)" class="st3" cx="86.2" cy="112.9" rx="0.5" ry="0.9"/>
	<path class="st2" d="M88.2,123c-0.6,0.4-1.3,0.7-2,0.9c-0.9,0.3-2,0.2-2.7-0.5c-0.3-0.3-0.5-0.7-0.6-1.1"/>
	<path class="st3" d="M85.2,124.5c-0.8,0-1.5-0.2-2-0.8c-0.3-0.4-0.5-0.8-0.7-1.3c-0.1-0.3,0-0.5,0.3-0.6l0,0c0.3-0.1,0.6,0,0.7,0.3
		l0,0c0.1,0.3,0.3,0.7,0.5,0.9c0.6,0.7,1.9,0.4,2.2,0.3c0.6-0.2,1.3-0.4,1.8-0.8c0.2-0.2,0.5-0.1,0.7,0.2c0.2,0.2,0.1,0.5-0.1,0.7
		l0,0c-0.7,0.4-1.4,0.7-2.1,0.9C86,124.4,85.6,124.5,85.2,124.5z"/>
	<path class="st2" d="M88.3,113.8c0,0,3.9,4.5,3,5.4c-1,1-3.2,0.5-3.2,0.5"/>
	<path class="st3" d="M89.3,120.4c-0.5,0-0.9,0-1.4-0.1c-0.3-0.1-0.4-0.3-0.4-0.6l0,0c0.1-0.3,0.3-0.4,0.6-0.4l0,0
		c0.6,0.1,2.1,0.3,2.8-0.3c0.2-0.4-1.2-2.7-3-4.7c-0.2-0.2-0.2-0.5,0-0.7c0.2-0.2,0.5-0.2,0.7,0l0,0c1.6,1.8,4.1,5,2.9,6.1
		C90.9,120.1,90.1,120.4,89.3,120.4z"/>
	<path class="st3" d="M105.9,159.5c-0.1,0-0.2,0-0.2-0.1c-0.2-0.1-15.5-8.3-21.1-11.4c-0.2-0.1-0.3-0.4-0.2-0.7l0,0
		c0.1-0.2,0.4-0.3,0.7-0.2l0,0c5.6,3,20.9,11.3,21.1,11.4c0.2,0.1,0.3,0.4,0.2,0.7l0,0C106.2,159.4,106,159.5,105.9,159.5z"/>
	<path class="st2" d="M297,166.4l1.9-0.1c1.7-0.1,3.2,0.9,3.9,2.3l36.4,100.9c0.5,1.3-0.5,2.5-2.2,2.5l-1.9,0.1
		c-1.7,0.1-3.2-0.9-3.9-2.3l-36.3-100.9C294.4,167.6,295.3,166.5,297,166.4z"/>
	<path class="st1" d="M335.1,272.6c-1.8,0-3.5-1-4.3-2.7l-36.4-100.8c-0.3-0.7-0.2-1.4,0.2-2c0.6-0.7,1.5-1.2,2.4-1.1l1.9-0.1
		c1.9-0.1,3.6,1,4.4,2.7l36.4,100.8c0.3,0.7,0.2,1.4-0.2,2c-0.6,0.7-1.5,1.2-2.4,1.1L335.1,272.6L335.1,272.6z M297,166.9
		c-0.6,0-1.2,0.2-1.6,0.7c-0.2,0.3-0.3,0.8-0.1,1.1l36.4,100.8c0.7,1.3,2,2.1,3.4,2l1.9-0.1c0.6,0,1.2-0.2,1.6-0.7
		c0.2-0.3,0.2-0.8,0.1-1.1l-36.4-100.7c-0.6-1.3-2-2.1-3.4-2H297L297,166.9z M297,166.4L297,166.4z"/>
	<path class="st2" d="M299,174.4l-33.9,0.6c-1.3,0-2.4-0.7-3-1.8l0,0c-0.4-1,0.4-1.9,1.6-1.9l33.9-0.6c1.3,0,2.4,0.6,3,1.8l0,0
		C301.1,173.5,300.3,174.3,299,174.4z"/>
	<path class="st1" d="M265,175.5c-1.4,0-2.8-0.8-3.4-2.1c-0.2-0.6-0.2-1.2,0.2-1.7c0.5-0.6,1.2-0.9,1.9-0.9l33.9-0.6
		c1.5-0.1,2.8,0.8,3.5,2.1c0.2,0.5,0.2,1.2-0.2,1.7c-0.5,0.6-1.2,0.9-1.9,0.9l0,0L265,175.5L265,175.5z M297.8,171.2L297.8,171.2
		l-34,0.6c-0.4,0-0.8,0.2-1.1,0.5c-0.1,0.2-0.2,0.5-0.1,0.7c0.5,0.9,1.4,1.5,2.5,1.4l33.9-0.6c0.4,0,0.8-0.2,1.1-0.5
		c0.1-0.2,0.2-0.5,0.1-0.7C299.7,171.7,298.8,171.2,297.8,171.2z M299,174.3L299,174.3z"/>
	<path class="st2" d="M304.2,188.4l-33.9,0.6c-1.3,0-2.4-0.6-3-1.8l0,0c-0.4-1,0.4-1.9,1.6-1.9l33.9-0.6c1.3,0,2.4,0.7,3,1.8l0,0
		C306.1,187.5,305.4,188.3,304.2,188.4z"/>
	<path class="st1" d="M270.1,189.5c-1.4,0-2.8-0.8-3.4-2.1c-0.2-0.5-0.2-1.2,0.2-1.7c0.5-0.6,1.2-0.9,1.9-0.9l33.9-0.6
		c1.5-0.1,2.8,0.8,3.5,2.1c0.2,0.5,0.2,1.2-0.2,1.7c-0.5,0.6-1.2,0.9-1.9,0.9l0,0L270.1,189.5L270.1,189.5z M302.9,185.3
		L302.9,185.3l-34,0.6c-0.4,0-0.8,0.1-1.1,0.5c-0.1,0.2-0.2,0.5-0.1,0.7c0.5,0.9,1.4,1.5,2.5,1.4l33.9-0.6c0.4,0,0.8-0.1,1.1-0.5
		c0.1-0.2,0.2-0.5,0.1-0.7C304.9,185.8,303.9,185.3,302.9,185.3z M304.2,188.4L304.2,188.4z"/>
	<path class="st2" d="M309.2,202.5l-33.9,0.6c-1.3,0-2.4-0.6-3-1.8l0,0c-0.4-1,0.4-1.9,1.6-1.9l33.9-0.6c1.3-0.1,2.4,0.6,3,1.8l0,0
		C311.2,201.6,310.4,202.5,309.2,202.5z"/>
	<path class="st1" d="M275.3,203.6c-1.4,0-2.8-0.8-3.4-2.1c-0.2-0.6-0.2-1.2,0.2-1.7c0.5-0.6,1.2-0.9,1.9-0.9l33.9-0.6
		c1.5-0.1,2.8,0.8,3.5,2.1c0.2,0.5,0.2,1.2-0.2,1.7c-0.5,0.6-1.2,0.9-1.9,0.9l0,0L275.3,203.6L275.3,203.6z M308,199.4L308,199.4
		l-34,0.6c-0.4,0-0.8,0.2-1.1,0.5c-0.1,0.2-0.2,0.5-0.1,0.8c0.5,0.9,1.4,1.5,2.5,1.4l33.9-0.6c0.4,0,0.8-0.2,1.1-0.5
		c0.1-0.2,0.2-0.5,0.1-0.7C309.9,199.9,309,199.3,308,199.4z M309.2,202.5L309.2,202.5z"/>
	<path class="st2" d="M314.3,216.5l-33.9,0.6c-1.3,0-2.4-0.6-3-1.8l0,0c-0.4-1,0.4-1.9,1.6-1.9l33.9-0.6c1.3,0,2.4,0.7,3,1.8l0,0
		C316.3,215.6,315.6,216.5,314.3,216.5z"/>
	<path class="st1" d="M280.4,217.7c-1.4,0-2.8-0.8-3.4-2.1c-0.2-0.5-0.2-1.2,0.2-1.7c0.5-0.6,1.2-0.9,1.9-0.9l33.9-0.6
		c1.5-0.1,2.8,0.8,3.5,2.1c0.2,0.5,0.2,1.2-0.2,1.7c-0.5,0.6-1.2,0.9-1.9,0.9l0,0L280.4,217.7L280.4,217.7z M313,213.4L313,213.4
		l-34,0.6c-0.4,0-0.8,0.1-1.1,0.5c-0.1,0.2-0.2,0.5-0.1,0.7c0.5,0.9,1.4,1.5,2.5,1.4l33.9-0.6c0.4,0,0.8-0.1,1.1-0.5
		c0.1-0.2,0.2-0.5,0.1-0.7C315,213.9,314.1,213.4,313,213.4L313,213.4z M314.3,216.6L314.3,216.6z"/>
	<path class="st2" d="M319.4,230.7l-33.9,0.6c-1.3,0-2.4-0.6-3-1.8l0,0c-0.4-1,0.4-1.9,1.6-1.9L318,227c1.3-0.1,2.4,0.6,3,1.8l0,0
		C321.4,229.8,320.7,230.6,319.4,230.7z"/>
	<path class="st1" d="M285.5,231.6c-1.4,0-2.8-0.8-3.4-2.1c-0.2-0.5-0.2-1.2,0.2-1.7c0.5-0.6,1.2-0.9,1.9-0.9l33.9-0.6
		c1.5-0.1,2.8,0.8,3.5,2.1c0.2,0.5,0.2,1.2-0.2,1.7c-0.5,0.6-1.2,0.9-1.9,0.9l0,0L285.5,231.6L285.5,231.6z M318.1,227.5
		L318.1,227.5l-34,0.6c-0.4,0-0.8,0.2-1.1,0.5c-0.1,0.2-0.2,0.5-0.1,0.7c0.5,0.9,1.4,1.5,2.5,1.4l33.9-0.6c0.4,0,0.8-0.2,1.1-0.5
		c0.1-0.2,0.2-0.5,0.1-0.8C320.1,228,319.2,227.5,318.1,227.5z M319.4,230.7L319.4,230.7z"/>
	<path class="st2" d="M324.5,244.7l-33.9,0.6c-1.3,0-2.4-0.6-3-1.8l0,0c-0.4-1,0.4-1.9,1.6-1.9l33.9-0.6c1.3,0,2.4,0.7,3,1.8l0,0
		C326.5,243.8,325.8,244.7,324.5,244.7z"/>
	<path class="st1" d="M290.5,245.8c-1.4,0-2.8-0.8-3.4-2.1c-0.2-0.5-0.2-1.2,0.2-1.7c0.5-0.6,1.2-0.9,1.9-0.9l33.9-0.6
		c1.5-0.1,2.8,0.8,3.5,2.1c0.2,0.5,0.2,1.2-0.2,1.7c-0.5,0.6-1.2,0.9-1.9,0.9l0,0L290.5,245.8L290.5,245.8z M323.3,241.5
		L323.3,241.5l-34,0.6c-0.4,0-0.8,0.1-1.1,0.5c-0.1,0.2-0.2,0.5-0.1,0.7c0.5,0.9,1.4,1.5,2.5,1.4l33.9-0.6c0.4,0,0.8-0.2,1.1-0.5
		c0.1-0.2,0.2-0.5,0.1-0.7C325.2,242.1,324.3,241.5,323.3,241.5z M324.5,244.7L324.5,244.7z"/>
	<path class="st2" d="M329.6,258.7l-33.9,0.6c-1.3,0-2.4-0.6-3-1.8l0,0c-0.4-1,0.4-1.9,1.6-1.9l33.9-0.6c1.3,0,2.4,0.6,3,1.8l0,0
		C331.6,257.8,330.9,258.7,329.6,258.7z"/>
	<path class="st1" d="M295.6,259.8c-1.4,0-2.8-0.8-3.4-2.1c-0.2-0.5-0.2-1.2,0.2-1.7c0.5-0.6,1.2-0.9,1.9-0.9l33.9-0.6
		c1.5-0.1,2.8,0.8,3.5,2.1c0.2,0.5,0.2,1.2-0.2,1.7c-0.5,0.6-1.2,0.9-1.9,0.9l0,0L295.6,259.8L295.6,259.8z M328.4,255.5
		L328.4,255.5l-34,0.6c-0.4,0-0.8,0.2-1.1,0.5c-0.1,0.2-0.2,0.5-0.1,0.7c0.5,0.9,1.4,1.5,2.5,1.4l33.9-0.6c0.4,0,0.8-0.1,1.1-0.5
		c0.1-0.2,0.2-0.5,0.1-0.7C330.3,256.1,329.4,255.5,328.4,255.5z M329.6,258.7L329.6,258.7z"/>
	<path class="st2" d="M260.6,167.1l1.9-0.1c1.7-0.1,3.2,0.9,3.9,2.3l36.4,100.8c0.5,1.3-0.5,2.5-2.2,2.5h-1.9
		c-1.7,0.1-3.2-0.8-3.9-2.3l-36.4-100.8C257.9,168.2,258.9,167.1,260.6,167.1z"/>
	<path class="st1" d="M298.6,273.3c-1.8,0-3.5-1-4.3-2.7l-36.4-100.9c-0.3-0.7-0.2-1.4,0.2-2c0.6-0.7,1.5-1.2,2.4-1.1l0,0l1.9-0.1
		c1.9-0.1,3.6,1,4.4,2.7L303.2,270c0.3,0.7,0.2,1.4-0.2,2c-0.6,0.7-1.5,1.2-2.4,1.1h-1.9L298.6,273.3z M260.6,167.6
		c-0.6,0-1.2,0.2-1.6,0.7c-0.2,0.3-0.3,0.8-0.1,1.1l36.4,100.8c0.6,1.3,2,2.1,3.4,2h1.9c0.6,0,1.2-0.2,1.6-0.7
		c0.2-0.3,0.3-0.8,0.1-1.1l-36.4-100.8c-0.6-1.3-2-2.1-3.4-2H260.6z"/>
	<path class="st2" d="M285.9,107.9c-7.3,4.2-15.6,7.5-24.2,5.9c-7.3-1.4-13.7-6.3-16.3-13.2c-0.5-1.4-0.8-2.8-1.4-4.2
		c-0.2-0.5-0.6-1.2-1.2-1.2c-1-0.1-1.3,1.2-1.2,2.2c0.1,0.8,0.2,1.5,0.2,2.2c0,0.5,0,1.9,0.5,2.3l-6.5-6.3c-0.3-0.3-0.7-0.6-1.1-0.7
		c-0.5-0.1-0.9,0.1-1.1,0.6c0,0.4,0.1,0.8,0.4,1l2.6,3.3c-1.1-1-2.3-1.9-3.6-2.8c-1.7-1.1-2.2,0.5-1.2,1.8l2.6,3.4
		c-0.9-0.9-1.8-1.7-2.8-2.5c-0.3-0.2-0.7-0.4-1-0.2c-0.2,0.2-0.3,0.4-0.2,0.7c0.1,0.2,0.2,0.4,0.4,0.6l2.4,2.8
		c-0.4-0.4-2.5-2.4-3.1-1.3c-0.3,0.6,0.9,1.6,1.2,2c2.4,2.3,4.8,4.6,7.3,6.8c6.6,5.9,14.1,11.4,23.1,13.3c9.8,2.2,20.5-0.3,28.7-6"
		/>
	<path class="st3" d="M269.1,125.4c-2.5,0-5-0.3-7.4-0.8c-9.9-2.2-18-8.8-23.2-13.5c-2.7-2.4-5.1-4.7-7.3-6.8l-0.2-0.2
		c-0.6-0.6-1.6-1.5-1.2-2.4c0.1-0.3,0.4-0.5,0.8-0.6h0.2l-0.3-0.3c-0.2-0.2-0.4-0.5-0.5-0.8c-0.2-0.5,0-0.9,0.4-1.2
		c0.3-0.2,0.6-0.2,0.9-0.1c-0.6-0.7-0.7-1.7-0.1-2.5c0.2-0.2,0.9-0.8,2.1,0.1l0.4,0.3l-0.1-0.1c-0.3-0.4-0.5-0.9-0.5-1.4
		c0.1-0.3,0.3-0.6,0.5-0.8c0.3-0.2,0.8-0.3,1.2-0.2c0.5,0.2,1,0.5,1.3,0.9l5.2,5.1v-0.6c0-0.6-0.1-1.2-0.2-1.8l-0.1-0.4
		c-0.1-0.8,0.1-1.7,0.6-2.3c0.3-0.3,0.7-0.5,1.1-0.4c0.7,0.1,1.2,0.6,1.6,1.5c0.3,0.8,0.5,1.5,0.8,2.3s0.4,1.3,0.6,1.9
		c2.4,6.5,8.6,11.5,16,12.9c7,1.4,14.7-0.5,23.9-5.8c0.2-0.2,0.5-0.1,0.7,0.1c0.2,0.2,0.1,0.5-0.1,0.7c0,0-0.1,0-0.1,0.1
		c-9.3,5.4-17.3,7.3-24.6,5.9c-7.8-1.5-14.2-6.7-16.7-13.5c-0.2-0.7-0.4-1.3-0.6-2c-0.2-0.7-0.5-1.5-0.7-2.2
		c-0.2-0.4-0.4-0.9-0.7-0.9c-0.1,0-0.2,0-0.3,0.1c-0.3,0.4-0.4,1-0.3,1.5v0.4c0.1,0.6,0.1,1.2,0.2,1.9c0,1.5,0.2,1.8,0.3,1.9
		c0.2,0.2,0.2,0.5,0,0.7l0,0c-0.2,0.2-0.5,0.2-0.7,0l0,0l0,0l-6.5-6.3c-0.2-0.3-0.5-0.5-0.9-0.6c-0.1,0-0.3,0-0.4,0.1l-0.1,0.1
		c0,0.1,0.2,0.4,0.3,0.5l2.6,3.3c0.2,0.2,0.1,0.5-0.1,0.7c-0.2,0.1-0.4,0.1-0.6,0c-1.1-1-2.3-1.9-3.6-2.8c-0.4-0.3-0.7-0.3-0.8-0.2
		c-0.1,0.1-0.2,0.7,0.3,1.3l2.6,3.4c0.2,0.2,0.1,0.5-0.1,0.7c-0.2,0.2-0.5,0.2-0.7,0c-0.9-0.9-1.8-1.7-2.7-2.4
		c-0.1-0.1-0.3-0.2-0.4-0.2c0,0,0,0,0,0.1c0.1,0.2,0.2,0.3,0.3,0.4l2.5,2.8c0.2,0.2,0.2,0.5,0,0.7c-0.2,0.2-0.5,0.2-0.7,0
		c-1-1-1.9-1.5-2.3-1.5c-0.1,0.1,0,0.4,0.9,1.2l0.2,0.2c2.2,2.1,4.5,4.3,7.2,6.7c5.2,4.7,13.2,11.2,22.8,13.2
		c9.3,2.1,19.8-0.1,28.3-5.9c0.2-0.2,0.5-0.1,0.7,0.1c0.2,0.2,0.1,0.5-0.1,0.7l0,0C284.5,123,276.9,125.4,269.1,125.4z"/>
	<path class="st2" d="M319.7,218.8l0.9,6.7c0,0-18.5,1.9-17.8,0.3c1.4-2.3,2.9-4.6,4.5-6.7"/>
	<path class="st3" d="M306.8,227c-2.3,0-4-0.2-4.3-0.6c-0.1-0.2-0.2-0.5-0.1-0.7c1.4-2.4,2.9-4.6,4.5-6.8c0.2-0.2,0.5-0.3,0.7-0.1
		s0.3,0.5,0.1,0.7c0,0.1-3.4,4.6-4.3,6.4c1.5,0.5,9.4,0,16.6-0.7l-0.9-6.2c0-0.3,0.2-0.5,0.4-0.6c0.3,0,0.5,0.2,0.6,0.4l0.9,6.7
		c0,0.1,0,0.3-0.1,0.4c-0.1,0.1-0.2,0.2-0.4,0.2C316.6,226.5,310.7,227,306.8,227z"/>
	<path class="st2" d="M293.7,193.3c0,0,3.9,4.9,3.2,5.8c-0.7,0.9-21.2,1.9-20.3-0.2c0.9-2.1,6.4-6.7,6.4-6.7"/>
	<path class="st3" d="M284.7,200.6c-3.7,0-7.1-0.2-8.1-0.8c-0.4-0.2-0.7-0.7-0.5-1.1c0.9-2.2,6.3-6.7,6.5-6.9
		c0.2-0.2,0.5-0.1,0.7,0.1c0.2,0.2,0.2,0.5-0.1,0.7l0,0c-1.5,1.2-5.4,4.7-6.2,6.4c1.6,1.2,17.5,0.6,19.4-0.2c0-0.6-1.4-2.9-3.2-5.1
		c-0.2-0.2-0.2-0.5,0.1-0.7l0,0c0.2-0.2,0.5-0.1,0.7,0.1c1.9,2.4,4,5.4,3.2,6.4C296.8,200.1,290.3,200.6,284.7,200.6z"/>
	<path class="st3" d="M286.5,141.2c0,0-23.2,14.3-22.9,22.1c0.2,5.3,16.4,31.8,16.4,31.8l15.5-0.9c0,0-14.1-21.6-11.1-24.8
		c3.1-3.2,20.5-11.8,20.5-11.8l0.3,62.1c0,0,15.8-1.1,15.8-2s3.4-73.9,3.4-73.9L286.5,141.2z"/>
	<path class="st2" d="M320.1,74.4c-0.1-1-0.5-1.9-1.1-2.6c-0.7-0.7-1.8-0.7-2.6-0.2c0.1-1.7-1.4-3-3-3.9c-1.9-1-4-1.8-6.1-2.2
		c-1.4-0.2-2.8-0.3-4.3-0.4c-2.1,0-4.4,0.1-6.1,1.4c-2,1.7-2.7,4.5-2,7c0.7,2.5,2.1,4.7,4.1,6.4c2.2,2.3,4.9,4,7.9,5
		c1.8,0.5,3.6,0.8,5.5,0.8c3,0.1,4.2-1.3,5.7-3.5C319.7,80.1,320.5,77.2,320.1,74.4z"/>
	<path class="st3" d="M312.5,86.4h-0.3c-1.9,0-3.8-0.3-5.6-0.8c-3.1-1-5.9-2.7-8.1-5.1c-2-1.8-3.5-4.1-4.2-6.7
		c-0.8-2.7,0.1-5.6,2.2-7.5c1.8-1.4,4.3-1.6,6.4-1.5c1.5,0,2.9,0.1,4.3,0.4c2.2,0.4,4.3,1.1,6.3,2.2c1.1,0.6,2.8,1.8,3.2,3.5
		c0.9-0.2,1.8,0,2.5,0.6c0.8,0.8,1.2,1.8,1.3,2.9l0,0c0.4,2.8-0.3,5.4-2.3,8.2C317,84.7,315.6,86.4,312.5,86.4z M302.6,65.8
		c-1.9-0.1-3.7,0.3-5.3,1.3c-2,1.6-2.4,4.4-1.9,6.5c0.7,2.4,2.1,4.5,3.9,6.2c2.1,2.2,4.7,3.9,7.7,4.9c1.7,0.5,3.5,0.7,5.3,0.8
		c2.6,0.1,3.7-1,5.3-3.3c1.6-2.1,2.4-4.9,2.1-7.5l0,0c-0.1-0.9-0.4-1.7-1-2.3c-0.5-0.5-1.3-0.6-1.9-0.2c-0.1,0.1-0.4,0.2-0.6,0.1
		c-0.2-0.1-0.3-0.3-0.3-0.5c0.1-1.6-1.6-2.9-2.7-3.4c-1.9-1-3.9-1.7-6-2.1c-1.4-0.2-2.8-0.3-4.2-0.3L302.6,65.8z"/>
	<path class="st2" d="M313,101.9c-0.4-7.7,1.2-23.1,1.2-23.1s-9.8,0.6-13-4.1c-4.1,3.2-4.8,11.9-4.1,14.6c1.5,5.2,8.3,4.1,8.3,4.1
		l-0.9,9.6L313,101.9z"/>
	<path class="st3" d="M304.5,103.4c-0.1,0-0.3-0.1-0.4-0.1c-0.1-0.1-0.2-0.3-0.2-0.4l0.8-9c-1.8,0.1-6.9,0.1-8.2-4.5
		c-0.8-2.8,0.1-11.8,4.3-15.1c0.1-0.1,0.3-0.1,0.4-0.1c0.1,0,0.3,0.1,0.3,0.2c3,4.4,12.4,3.9,12.5,3.9s0.3,0,0.4,0.2
		c0.1,0.1,0.2,0.3,0.1,0.4c0,0.2-1.5,15.5-1.2,23c0,0.3-0.2,0.5-0.4,0.5L304.5,103.4L304.5,103.4z M305.4,92.8c0.1,0,0.3,0,0.3,0.1
		c0.1,0.1,0.2,0.3,0.2,0.4l-0.8,9l7.5-0.9c-0.2-6.9,0.9-19.3,1.1-22.1c-2.1,0-9.4-0.1-12.5-3.9c-3.6,3.3-4.2,11.6-3.6,13.7
		C299,93.8,305.1,92.9,305.4,92.8L305.4,92.8z"/>
	<path class="st3" d="M305.4,93.3c0,0,2.8-0.4,4.2-1.7c0,0-1.9,4.6-4.7,5.3L305.4,93.3z"/>
	<path class="st3" d="M304.9,97.4c-0.1,0-0.2,0-0.3-0.1c-0.1-0.1-0.2-0.3-0.2-0.4l0.5-3.6c0-0.2,0.2-0.4,0.4-0.4
		c0,0,2.7-0.4,3.9-1.6c0.2-0.2,0.4-0.2,0.6-0.1c0.2,0.1,0.3,0.4,0.2,0.6C309.9,91.9,308.1,96.6,304.9,97.4L304.9,97.4z M305.8,93.7
		l-0.4,2.5c1.3-0.8,2.3-1.9,3-3.3C307.6,93.3,306.7,93.6,305.8,93.7z"/>
	<path class="st4" d="M299.3,96.9l-22.2,12.1l5.4,15.6c0,0,27.9-14.7,28.1-18.7C310.7,101.9,299.3,96.9,299.3,96.9z"/>
	<path class="st4" d="M285.9,141.6c0,0,1.1-15.8,3-28c0.9-5.2,0.5-8.8,2.2-11.6c5.7-9.4,28-6.6,31.2-0.1c3.2,6.5,2.2,41.8,2.2,41.8
		L285.9,141.6z"/>
	<path class="st2" d="M312.6,84.3c0.3-1.2,1.2-2.2,2.4-2.5c0.5-0.2,1.1-0.1,1.6,0.2c0.6,0.5,0.9,1.2,0.7,2c-0.2,2.4-2.2,4.3-4.6,4.2
		"/>
	<path class="st3" d="M312.8,88.6L312.8,88.6c-0.4,0-0.6-0.2-0.6-0.5l0,0c0-0.3,0.2-0.5,0.5-0.5l0,0c1,0,2-0.3,2.8-1
		c0.8-0.7,1.2-1.7,1.3-2.7c0.1-0.6-0.1-1.1-0.5-1.5c-0.4-0.2-0.8-0.2-1.2-0.1c-1,0.3-1.8,1.1-2,2.2c-0.1,0.3-0.3,0.4-0.6,0.4
		c-0.3-0.1-0.5-0.3-0.4-0.6c0.3-1.4,1.3-2.6,2.7-2.9c0.7-0.2,1.4-0.1,2,0.3c0.7,0.6,1.1,1.5,0.9,2.4
		C317.6,86.6,315.4,88.6,312.8,88.6L312.8,88.6z"/>
	<ellipse transform="matrix(0.2979 -0.9546 0.9546 0.2979 135.2015 343.146)" class="st3" cx="300.9" cy="79.7" rx="0.9" ry="0.5"/>
	<path class="st2" d="M298.9,89.6c0.6,0.4,1.3,0.7,2,0.9c0.9,0.3,2,0.2,2.7-0.5c0.3-0.3,0.5-0.7,0.6-1.1"/>
	<path class="st3" d="M301.9,91.1c-0.4,0-0.8-0.1-1.2-0.2c-0.7-0.2-1.5-0.5-2.1-0.9c-0.2-0.2-0.3-0.5-0.2-0.7
		c0.1-0.2,0.5-0.3,0.7-0.2l0,0c0.6,0.4,1.2,0.6,1.8,0.8c0.4,0.1,1.6,0.4,2.2-0.3c0.2-0.3,0.4-0.6,0.5-0.9c0.1-0.3,0.4-0.4,0.6-0.3
		c0.3,0.1,0.4,0.4,0.3,0.6c-0.1,0.5-0.4,0.9-0.7,1.3C303.4,90.9,302.7,91.2,301.9,91.1z"/>
	<path class="st2" d="M298.8,80.5c0,0-3.9,4.5-3,5.4c0.9,0.9,3.2,0.5,3.2,0.5"/>
	<path class="st3" d="M297.8,87.1c-0.9,0.1-1.7-0.2-2.3-0.8c-1.1-1.1,1.4-4.3,2.9-6.1c0.2-0.2,0.5-0.2,0.7,0c0.2,0.2,0.2,0.5,0,0.7
		l0,0c-1.8,2-3.2,4.3-3,4.8c0.6,0.6,2.2,0.4,2.8,0.3c0.3-0.1,0.6,0.1,0.6,0.4s-0.1,0.6-0.4,0.6C298.7,87.1,298.3,87.1,297.8,87.1z"
		/>
	<path class="st3" d="M282.5,125.2c-0.2,0-0.4-0.1-0.4-0.3c-0.1-0.2,0-0.6,0.2-0.7c0.2-0.1,15.5-8.3,21.1-11.4
		c0.2-0.1,0.5,0,0.7,0.2l0,0c0.1,0.2,0.1,0.5-0.2,0.7l0,0c-5.6,3-20.9,11.3-21.1,11.4C282.7,125.1,282.6,125.2,282.5,125.2z"/>
	<line class="st5" x1="186.1" y1="169.4" x2="146.9" y2="201.5"/>
	<path class="st1" d="M146.9,201.9c-0.1,0-0.3-0.1-0.4-0.2c-0.2-0.2-0.1-0.5,0.1-0.7l0,0l39.1-32.1c0.2-0.2,0.5-0.1,0.7,0.1
		s0.1,0.5-0.1,0.7l0,0l-39,32.1C147.2,201.9,147.1,201.9,146.9,201.9z"/>
	<line class="st5" x1="146.9" y1="169.4" x2="186.1" y2="201.5"/>
	<path class="st1" d="M186.1,201.9c-0.1,0-0.2,0-0.3-0.1l-39.1-32.1c-0.2-0.2-0.2-0.5-0.1-0.7l0,0c0.2-0.2,0.5-0.2,0.7-0.1l39,32.1
		c0.2,0.2,0.2,0.5,0.1,0.7l0,0C186.4,201.9,186.2,201.9,186.1,201.9z"/>
	<path class="st2" d="M305.1,158.2c-0.3,0-0.5-0.2-0.5-0.5c0-0.2,0.1-0.4,0.3-0.5c0.1,0,5.3-2.9,6.7-5.4c0.1-0.2,0.4-0.3,0.7-0.2
		l0,0c0.2,0.1,0.3,0.4,0.2,0.7l0,0c-1.5,2.8-6.9,5.7-7.1,5.8C305.3,158.2,305.2,158.2,305.1,158.2z"/>
	<path class="st2" d="M76.2,215.9c-0.2,0-0.4-0.1-0.4-0.3c-2-3.6-8.2-11.8-8.2-11.8c-0.2-0.2-0.2-0.5,0-0.7c0.2-0.2,0.5-0.2,0.7,0
		l0.1,0.1c0.3,0.3,6.3,8.4,8.3,12c0.1,0.2,0,0.5-0.2,0.7l0,0C76.3,215.8,76.3,215.9,76.2,215.9z"/>
</g>
</svg>
