<?xml version="1.0" encoding="utf-8"?>
<!-- Generator: Adobe Illustrator 25.4.1, SVG Export Plug-In . SVG Version: 6.00 Build 0)  -->
<svg version="1.1" id="Calque_1" xmlns="http://www.w3.org/2000/svg" xmlns:xlink="http://www.w3.org/1999/xlink" x="0px" y="0px"
	 viewBox="0 0 329 257" style="enable-background:new 0 0 329 257;" xml:space="preserve">
<style type="text/css">
	.st0{fill:#FAF1E4;}
	.st1{fill:#D1D3D4;}
	.st2{fill:#FFFFFF;}
	.st3{fill:#231F20;}
	.st4{fill:#EBCA94;}
	.st5{fill:none;}
</style>
<g id="_003">
	<path class="st0" d="M138,243.1c-19.1,1-37.8,7.8-56.7,6.4c-35.5-2.5-64.5-33.6-72.6-68.3c-4.2-18-3.4-38,7.1-53.2
		c3.8-5.6,8.8-10.4,12.8-15.9c12.6-17.7,13.4-41.7,25.3-60C67.8,30.8,93.6,21,118.1,14.7c14.4-3.7,29-6.8,43.7-9.2
		c22-3.6,46.5-5.2,64.7,7.8c13.7,9.7,21,25.6,30.4,39.4c12.4,18.2,29.2,33.2,42.3,51c14.9,20.1,19.4,39.1,17.1,59.8l-0.3,1.8
		c-1.4,9.3-3.7,18.5-7.1,27.5c-10,27.8-32.4,52.5-62.1,59C210.9,259.8,174.5,241.2,138,243.1z"/>
	<path class="st1" d="M323.1,215.1H6.9c-0.3,0-0.5-0.2-0.5-0.5l0,0c0-0.3,0.2-0.5,0.5-0.5h316.4c0.3,0,0.5,0.2,0.5,0.5
		C323.6,214.9,323.4,215.1,323.1,215.1z"/>
	<path class="st2" d="M35.9,26.3h264.2c3,0,5.5,2.4,5.5,5.5V189c0,3-2.4,5.5-5.5,5.5H35.9c-3,0-5.5-2.4-5.5-5.5V31.8
		C30.5,28.7,33,26.3,35.9,26.3z"/>
	<path class="st3" d="M300.1,194.9H35.9c-3.3,0-6-2.7-6-6V31.8c0-3.3,2.7-5.9,6-5.9h264.2c3.3,0,6,2.7,6,6v157.2
		C306.1,192.3,303.4,194.9,300.1,194.9z M35.9,26.8c-2.7,0-4.9,2.2-4.9,4.9l0,0v157.2c0,2.7,2.2,4.9,4.9,5h264.2
		c2.7,0,4.9-2.2,4.9-5V31.8c0-2.7-2.2-4.9-4.9-4.9L35.9,26.8L35.9,26.8z"/>
	<path class="st1" d="M152.7,146.8H46.4c-0.3,0-0.5-0.2-0.5-0.5l0,0c0-0.3,0.2-0.5,0.5-0.5h106.2c0.3,0,0.5,0.2,0.5,0.5
		S152.9,146.8,152.7,146.8L152.7,146.8z"/>
	<path class="st1" d="M103.7,185.9c-0.3,0-0.5-0.2-0.5-0.5l0,0V146c0-0.3,0.2-0.5,0.5-0.5l0,0c0.3,0,0.5,0.2,0.5,0.5v39.2
		C104.2,185.7,104,185.9,103.7,185.9L103.7,185.9z"/>
	<path class="st1" d="M286.9,120.6H164.8c-0.3,0-0.5-0.2-0.5-0.5l0,0c0-0.3,0.2-0.5,0.4-0.5l0,0h122.2c0.3,0,0.5,0.2,0.5,0.4l0,0
		C287.4,120.4,287.2,120.6,286.9,120.6z"/>
	<path class="st1" d="M286.9,132.6H164.8c-0.3,0-0.5-0.2-0.5-0.4l0,0c0-0.3,0.2-0.5,0.5-0.5l0,0H287c0.3,0,0.5,0.2,0.5,0.5
		C287.4,132.4,287.2,132.6,286.9,132.6C287,132.6,287,132.6,286.9,132.6z"/>
	<path class="st1" d="M286.9,144.5H164.8c-0.3,0-0.5-0.2-0.5-0.5s0.2-0.5,0.5-0.5H287c0.3,0,0.5,0.2,0.5,0.5
		C287.4,144.3,287.2,144.5,286.9,144.5C287,144.5,287,144.5,286.9,144.5z"/>
	<path class="st1" d="M286.9,156.5H164.8c-0.3,0-0.4-0.3-0.4-0.5s0.2-0.4,0.4-0.4H287c0.3,0,0.4,0.3,0.4,0.5
		C287.3,156.3,287.2,156.5,286.9,156.5z"/>
	<path class="st1" d="M286.9,168.4H164.8c-0.3,0-0.5-0.2-0.5-0.5s0.2-0.5,0.5-0.5H287c0.3,0,0.5,0.2,0.5,0.5
		C287.4,168.2,287.2,168.4,286.9,168.4C287,168.4,287,168.4,286.9,168.4z"/>
	<path class="st1" d="M293.2,104.5H152.1c-0.3,0-0.5-0.2-0.5-0.5l0,0c0-0.3,0.2-0.5,0.5-0.5h141.2c0.3,0,0.5,0.2,0.5,0.5
		C293.7,104.3,293.5,104.5,293.2,104.5z"/>
	<path class="st4" d="M166.5,60.2h44.3c1.2,0,2.1,0.9,2.1,2.1v28.8c0,1.2-0.9,2.1-2.1,2.1h-44.3c-1.2,0-2.1-0.9-2.1-2.1V62.3
		C164.4,61.2,165.3,60.2,166.5,60.2z"/>
	<path class="st1" d="M152.5,185c-0.3,0-0.5-0.2-0.5-0.4l0,0v-134c0-0.3,0.2-0.5,0.5-0.5l0,0c0.3,0,0.5,0.2,0.5,0.5v133.8
		C152.9,184.8,152.7,185,152.5,185z"/>
	<path class="st1" d="M294.2,50.8H41.4c-0.3,0-0.5-0.2-0.5-0.5s0.2-0.5,0.5-0.5H294c0.3,0,0.5,0.2,0.5,0.5
		C294.7,50.6,294.5,50.8,294.2,50.8L294.2,50.8z"/>
	<path class="st3" d="M289,186.3H47.1c-3.3,0-6-2.7-6-6V40.5c0-3.3,2.7-6,6-6h241.8c3.3,0,6,2.7,6,6v139.8
		C294.8,183.6,292.3,186.3,289,186.3z M47.1,35.6c-2.7,0-4.9,2.2-5,5v139.8c0,2.7,2.2,4.9,5,4.9h241.8c2.7,0,4.9-2.2,5-4.9V40.5
		c0-2.7-2.2-4.9-5-5L47.1,35.6L47.1,35.6z"/>
	<path class="st2" d="M196.1,194.5l-29-0.1l-29,0.1c0,0-2.6,26.3-19.2,37.5h96.4C198.6,220.8,196.1,194.5,196.1,194.5z"/>
	<path class="st3" d="M215.3,232.6h-96.5c-0.2,0-0.4-0.1-0.5-0.4c-0.1-0.2,0-0.4,0.2-0.6c16.2-11,18.9-36.9,19-37.1
		c0-0.3,0.2-0.5,0.5-0.5l29-0.1l29,0.1c0.3,0,0.5,0.2,0.5,0.5s2.7,26.2,19,37.1c0.2,0.1,0.3,0.4,0.2,0.6
		C215.7,232.4,215.5,232.6,215.3,232.6z M120.4,231.6h93.3c-14.3-10.9-17.6-33.1-18.1-36.5L167,195l-28.6,0.1
		C138,198.5,134.7,220.7,120.4,231.6L120.4,231.6z"/>
	<path class="st2" d="M111.5,232.1h111c2.7,0,4.9,2.2,4.9,4.9v0.2c0,2.7-2.2,4.9-4.9,4.9h-111c-2.7,0-4.9-2.2-4.9-4.9V237
		C106.5,234.3,108.8,232.1,111.5,232.1z"/>
	<path class="st3" d="M222.6,242.5h-111c-3,0-5.4-2.4-5.4-5.4v-0.2c0-3,2.4-5.4,5.4-5.4h111c3,0,5.4,2.4,5.4,5.4v0.2
		C227.9,240.1,225.5,242.5,222.6,242.5z M111.5,232.6c-2.4,0-4.4,2-4.4,4.4v0.2c0,2.4,2,4.4,4.4,4.4h111c2.4,0,4.4-2,4.4-4.4V237
		c0-2.4-2-4.4-4.4-4.4H111.5z"/>
	<circle class="st4" cx="57.6" cy="43.5" r="3.2"/>
	<circle class="st3" cx="69.9" cy="43.5" r="3.2"/>
	<circle class="st3" cx="82.3" cy="43.5" r="3.2"/>
	<path class="st2" d="M63.3,208.2l8.3,30.3c0,0,14.4,3.4,14.1,4.3s-22.8,4-22.8,4l-9.6-35"/>
	<path class="st3" d="M62.9,247.3c-0.2,0-0.4-0.2-0.5-0.4l-9.6-35c-0.1-0.3,0.1-0.5,0.3-0.6l0,0c0.3-0.1,0.5,0.1,0.6,0.4l9.5,34.6
		c7.5-1,18.6-2.7,21.5-3.5c-4.4-1.5-8.8-2.7-13.3-3.7c-0.2,0-0.3-0.2-0.4-0.4l-8.3-30.4c-0.1-0.3,0.1-0.6,0.4-0.6
		c0.3-0.1,0.6,0.1,0.6,0.4l8.2,30.1c5.2,1.2,13.5,3.3,14.1,4.4c0.1,0.2,0.1,0.3,0.1,0.5C86.1,243.3,85.8,244.2,62.9,247.3
		L62.9,247.3z M85.3,243L85.3,243z"/>
	<path class="st2" d="M37.6,198.1L35.3,244c0,0,22.6,4.9,22.7,4.3S45.9,239,45.9,239l3.6-32.6"/>
	<path class="st3" d="M57.8,248.9c-1.1,0-5.3-0.6-22.6-4.4c-0.2-0.1-0.4-0.3-0.4-0.5l2.4-45.9c0-0.3,0.3-0.5,0.5-0.5
		c0.3,0,0.5,0.3,0.5,0.5l-2.4,45.5c7,1.5,17.4,3.7,20.9,4.2c-2-1.7-7.6-5.8-11.3-8.4c-0.1-0.1-0.2-0.3-0.2-0.5l3.5-32.7
		c0-0.3,0.3-0.5,0.6-0.5l0,0c0.3,0,0.5,0.3,0.5,0.6l-3.5,32.4c12.2,8.8,12.2,9.3,12.1,9.7c0,0.1-0.1,0.3-0.2,0.4
		C58.2,248.8,58.1,248.9,57.8,248.9z"/>
	<path class="st3" d="M76.4,238.2l-3,4.7l-11.9,1.4l1.2,4.6c0,0,26.3-3.3,26.8-5.7C89.9,240.7,76.4,238.2,76.4,238.2z"/>
	<path class="st3" d="M33.2,245.1l0.7-4.7l13.8,3.8l2.7-3.6c0,0,10.2,7.4,8.8,9C57.8,251.2,42.7,248.3,33.2,245.1z"/>
	<path class="st2" d="M28.5,86.1c1.3-0.4,2.8-0.3,4.1,0.3c1.6-3.9,5.1-6.6,9.2-7.4c1.4-0.2,2.8-0.3,4.3-0.4c2.1,0,4.4,0.1,6.1,1.4
		c2,1.7,2.7,4.5,2,7c-1.2,5.1-5.1,6.3-8.6,9.2c-3.4,3-5.4,7.3-5.4,11.8c0,10,3.2,21-7.8,27c-7,3.8-16.4,0.9-21.1-5.6
		c-1.1-1.4-1.8-3-2.3-4.7c-1.1-4.6,0.8-9.3,3.3-13.2c2.5-4,5.1-7.6,7.2-11.7c1.8-3.6,2-7.8,4.6-11C25.2,87.6,26.8,86.6,28.5,86.1z"
		/>
	<path class="st3" d="M25.6,137.2c-5.8-0.1-11.2-2.8-14.6-7.5c-1.1-1.4-1.9-3.1-2.4-4.8c-1-4,0.1-8.5,3.4-13.6
		c0.7-1.1,1.5-2.3,2.2-3.4c1.8-2.6,3.5-5.4,5-8.2c0.7-1.4,1.2-2.9,1.6-4.4c0.6-2.4,1.6-4.7,3-6.7c1.2-1.5,2.8-2.5,4.6-3l0,0
		c1.3-0.4,2.7-0.3,4,0.1c1.8-3.8,5.3-6.5,9.4-7.2c1.4-0.2,2.9-0.4,4.3-0.4c2.2,0,4.6,0.1,6.4,1.5c2.1,1.9,3,4.8,2.2,7.5
		c-1,4.1-3.5,5.8-6.1,7.6c-0.9,0.6-1.7,1.2-2.6,1.9c-3.3,2.9-5.2,7.1-5.2,11.5c0,1.8,0.1,3.7,0.2,5.5c0.5,8.3,1,16.8-8.3,21.9
		C30.6,136.6,28.1,137.3,25.6,137.2z M28.6,86.6c-1.6,0.5-3,1.4-4.1,2.7c-1.4,1.9-2.3,4.1-2.9,6.4c-0.4,1.6-1,3.1-1.7,4.6
		c-1.5,2.9-3.2,5.6-5,8.3c-0.7,1.1-1.5,2.3-2.2,3.4c-3.1,5-4.2,9.2-3.3,12.8c0.4,1.6,1.2,3.1,2.2,4.5c4.8,6.6,13.9,9,20.4,5.4
		c8.7-4.8,8.2-12.6,7.8-21c-0.1-1.8-0.2-3.7-0.2-5.6c0-4.7,2-9.2,5.6-12.2c0.9-0.7,1.8-1.3,2.6-1.9c2.6-1.8,4.8-3.3,5.7-7
		c0.5-2.1,0.1-4.9-1.9-6.5c-1.6-1.2-3.8-1.4-5.8-1.3c-1.4,0-2.8,0.1-4.2,0.4c-3.9,0.7-7.2,3.4-8.8,7.1c-0.1,0.1-0.2,0.2-0.3,0.3
		c-0.1,0-0.3,0-0.4,0C31.2,86.3,29.9,86.2,28.6,86.6L28.6,86.6z"/>
	<path class="st2" d="M61.5,119.2c-2.3,0.9-6,1.7-6.9-1.5c-0.1-0.6-0.2-1.1-0.1-1.7c0.1-0.8,0.2-1.7,0.5-2.5
		c0.6-2.3,1.4-4.5,2.4-6.7c0.2-0.5,0.7-1.2,1.3-1c0.6,0.2,0.5,0.8,0.5,1.3c0,1.4-0.2,2.8-0.2,4.3c3-0.8,4.9-3.9,7.7-4.6
		c0.8-0.2,1.8-0.2,1.9,0.8c0.1,1.3-2.2,2.3-3,2.9c0.9-0.7,1.9-1.3,2.9-1.7c0.3-0.1,0.6-0.2,1-0.2c0.3,0,0.6,0.3,0.6,0.6
		s-0.1,0.5-0.3,0.7c-0.4,0.5-0.9,1-1.5,1.4c0.5-0.6,1.2-1.1,2-1.2c0.4-0.1,0.9,0,1.1,0.3c0.3,0.5-0.3,1.1-0.9,1.5
		c0.4-0.4,1-0.7,1.5-0.8c0.6-0.1,1.2,0.3,1.3,0.9c0,0.5-0.2,0.9-0.6,1.2C69.8,116.2,65.3,117.8,61.5,119.2z"/>
	<path class="st3" d="M58,120.5c-0.7,0-1.4-0.1-2-0.4c-0.9-0.4-1.5-1.2-1.8-2.2c-0.2-0.6-0.2-1.3-0.2-1.9c0.1-0.9,0.2-1.7,0.5-2.6
		c0.6-2.3,1.4-4.6,2.4-6.8c0.4-1,1.2-1.5,1.9-1.3c0.4,0.1,0.9,0.6,0.9,1.8c0,0.6,0,1.2-0.1,1.8s-0.1,1.1-0.1,1.7
		c1.1-0.5,2.1-1.2,3-2c1.1-1.1,2.5-1.9,4-2.3c0.6-0.2,1.3-0.2,1.9,0.2c0.3,0.3,0.5,0.7,0.5,1.1c0,0.2,0,0.4-0.1,0.6
		c0.2,0,0.4,0,0.6,0c0.5,0.1,1,0.6,1,1.1c0,0.1,0,0.2,0,0.3c0.5-0.1,1.1,0.1,1.3,0.6c0.1,0.1,0.1,0.3,0.2,0.4l0,0
		c0.5,0,1,0.1,1.3,0.4c0.3,0.2,0.5,0.6,0.5,0.9c0,0.6-0.3,1.2-0.8,1.6c-2.9,2.8-7.2,4.5-10.9,5.9l-0.5,0.2l0,0
		C60.4,120.1,59.1,120.4,58,120.5z M58.4,106.4c-0.2,0-0.4,0.3-0.6,0.7c-1,2.2-1.8,4.4-2.4,6.7c-0.2,0.8-0.4,1.6-0.4,2.4
		c0,0.5,0,1,0.1,1.5c0.2,0.7,0.6,1.2,1.3,1.6c1.5,0.7,3.8,0,5-0.4l0.5-0.2c3.7-1.4,7.8-3,10.6-5.7c0.2-0.2,0.5-0.5,0.5-0.8
		c0-0.1-0.1-0.2-0.1-0.3c-0.2-0.1-0.4-0.2-0.6-0.2c-0.3,0-0.6,0.2-0.8,0.3c-0.2,0.1-0.3,0.3-0.5,0.4s-0.5,0.1-0.7-0.2
		c-0.1-0.2-0.1-0.5,0.1-0.7l0.5-0.3c0.1-0.1,0.2-0.2,0.3-0.4c-0.1-0.2-0.3-0.2-0.6-0.2c-0.3,0.1-0.7,0.2-1,0.4
		c-0.3,0.3-0.6,0.5-0.9,0.8c-0.2,0.2-0.5,0.1-0.7-0.1c-0.2-0.2-0.2-0.5,0-0.7c0.3-0.3,0.6-0.6,1-0.9c0.2-0.2,0.3-0.3,0.5-0.5
		s0.2-0.3,0.2-0.3s-0.1-0.1-0.2-0.2c-0.2,0-0.5,0-0.7,0.1c-0.4,0.1-0.7,0.3-1.1,0.5c-0.3,0.2-0.6,0.4-0.9,0.6
		c-0.3,0.2-0.5,0.3-0.8,0.5l0,0c-0.2,0.2-0.5,0.2-0.7,0s-0.2-0.5,0-0.7l0,0l0,0c0.5-0.5,1.1-0.9,1.8-1.2c0.6-0.4,1-0.9,1-1.3
		c0-0.3-0.1-0.3-0.1-0.3s-0.4-0.2-1.1,0c-1.3,0.4-2.6,1.2-3.6,2.2c-1.2,1.1-2.5,1.9-4.1,2.4c-0.2,0-0.3,0-0.4-0.1s-0.2-0.2-0.2-0.4
		c0-0.8,0-1.7,0.1-2.5c0.1-0.6,0.1-1.2,0.1-1.8C58.7,106.7,58.6,106.5,58.4,106.4L58.4,106.4z M61.5,119.2L61.5,119.2z"/>
	<path class="st2" d="M59,111.6c1.4,1.7,1.4,4.1,0.1,5.9h0.3"/>
	<path class="st3" d="M59.1,117.9c-0.2,0-0.4-0.1-0.5-0.3s-0.1-0.4,0.1-0.5c1.2-1.5,1.2-3.7-0.1-5.2c-0.2-0.2-0.2-0.5,0.1-0.7
		c0.2-0.2,0.5-0.2,0.7,0.1c1.4,1.7,1.6,4.1,0.5,6c0,0.1,0,0.1,0,0.2c0,0.3-0.2,0.5-0.5,0.5l0,0L59.1,117.9L59.1,117.9z"/>
	<path class="st2" d="M63,78.6h67.2c1.9,0,3.4,1.5,3.4,3.4v28.4c0,1.9-1.5,3.4-3.4,3.4H63c-1.9,0-3.4-1.5-3.4-3.4V82
		C59.6,80.1,61.1,78.6,63,78.6z"/>
	<path class="st3" d="M130.2,114.2H63c-2.2,0-3.9-1.7-3.9-3.9V82c0-2.2,1.7-3.9,3.9-3.9h67.2c2.2,0,3.9,1.7,3.9,3.9v28.4
		C134.1,112.5,132.3,114.2,130.2,114.2z M63,79.1c-1.6,0-2.9,1.3-2.9,2.9v28.4c0,1.6,1.3,2.9,2.9,2.9h67.2c1.6,0,2.9-1.3,2.9-2.9
		V82.1c0-1.6-1.3-2.9-2.9-2.9L63,79.1z"/>
	<circle class="st3" cx="76.7" cy="96.1" r="9.4"/>
	<path class="st3" d="M125.6,91.7H95.7c-0.3,0-0.5-0.2-0.5-0.5s0.2-0.5,0.5-0.5h29.9c0.3,0,0.5,0.2,0.5,0.5S125.8,91.7,125.6,91.7
		L125.6,91.7z"/>
	<path class="st3" d="M125.6,96.6H95.7c-0.3,0-0.5-0.2-0.5-0.5s0.2-0.5,0.5-0.5h29.9c0.3,0,0.5,0.2,0.5,0.5S125.8,96.6,125.6,96.6z"
		/>
	<path class="st3" d="M115.2,101.6H95.8c-0.3,0-0.5-0.2-0.5-0.5s0.2-0.5,0.5-0.5h19.4c0.3,0,0.5,0.2,0.5,0.5
		S115.4,101.6,115.2,101.6z"/>
	<path class="st2" d="M60.9,118.9c0,0,12,8,16.6,5.6c4.7-2.4,14.2-11,14.2-11s2.3-5.6,4.3-5.2c2,0.4,0.1,5.8,0.1,5.8
		s11.8-2,11.8-0.8c-0.1,1.2-6.4,4.2-9.2,4.7S85.8,134.5,79,136.4c-6.8,1.9-13.6-2.3-21-6.8"/>
	<path class="st3" d="M75.6,137.4c-5.9,0-11.7-3.6-17.7-7.4c-0.2-0.1-0.3-0.4-0.2-0.7l0,0c0.1-0.2,0.4-0.3,0.7-0.2l0,0
		c7.2,4.4,13.8,8.6,20.5,6.8c3.9-1.1,9.1-7.2,13.2-12c3.3-3.9,5.3-6.2,6.6-6.4c2.8-0.5,7.7-3,8.7-4.1c-1.3-0.2-6.5,0.4-11.1,1.1
		c-0.2,0-0.4,0-0.5-0.2c-0.1-0.1-0.2-0.3-0.1-0.5c0.5-1.4,1.1-4,0.6-4.9c-0.1-0.1-0.2-0.2-0.3-0.2c-1.1-0.2-2.9,2.8-3.7,4.9
		c0,0.1-0.1,0.1-0.1,0.2c-0.4,0.4-9.8,8.6-14.4,11.1c-4.9,2.5-16.7-5.3-17.2-5.7c-0.2-0.2-0.3-0.5-0.1-0.7c0.2-0.2,0.4-0.2,0.6-0.1
		c3.3,2.2,12.5,7.5,16.1,5.6c4.4-2.2,13.1-10,14-10.8c0.5-1.2,2.6-5.9,4.8-5.4c0.4,0.1,0.8,0.4,1,0.8c0.7,1.2,0.1,3.6-0.2,4.9
		c4.2-0.7,10.5-1.5,11.4-0.7c0.2,0.2,0.2,0.4,0.2,0.6c-0.2,1.7-7.2,4.7-9.7,5.1c-1,0.2-3.5,3.2-6,6.1c-4.3,5-9.6,11.2-13.7,12.3
		C78.1,137.2,76.8,137.4,75.6,137.4z"/>
	<path class="st3" d="M56.4,146.9c1,7,1.2,9.8,11.2,66.9c0,0-23.2,5.5-32.3,7.1c-6.1-12.5-8.8-23.8-12.9-36.9
		c-2.7-8.6-4.7-20.1-0.9-28.2c0.6-1.3,6.6-13.9,6.6-13.9S56.4,147.2,56.4,146.9z"/>
	<path class="st2" d="M36,115.3c0.4-7.7-1.2-23.1-1.2-23.1s9.8,0.6,12.9-4.1c4.1,3.1,4.9,11.9,4.1,14.6c-1.5,5.2-8.3,4.1-8.3,4.1
		l0.9,9.6L36,115.3z"/>
	<path class="st3" d="M44.6,116.7L44.6,116.7l-8.6-1c-0.3,0-0.5-0.3-0.4-0.5c0.4-7.5-1.2-22.9-1.2-23s0-0.3,0.1-0.4s0.2-0.2,0.4-0.2
		c0.1,0,9.5,0.5,12.5-3.9c0.2-0.2,0.5-0.3,0.7-0.1l0,0c4.2,3.3,5.1,12.3,4.3,15.1c-1.3,4.6-6.4,4.7-8.2,4.5l0.8,9
		c0,0.2,0,0.3-0.2,0.4C44.9,116.6,44.7,116.7,44.6,116.7z M36.5,114.8l7.5,0.9l-0.8-9c0-0.2,0-0.3,0.2-0.4c0.1-0.1,0.3-0.2,0.4-0.1
		c0.3,0,6.4,1,7.7-3.7c0.6-2.3,0-10.5-3.5-13.7c-3.2,3.8-10.4,4-12.5,3.9C35.6,95.4,36.8,107.9,36.5,114.8z"/>
	<path class="st3" d="M43.7,106.7c-1.5-0.2-3-0.8-4.2-1.7c0,0,1.9,4.6,4.7,5.3L43.7,106.7z"/>
	<path class="st3" d="M44.2,110.8L44.2,110.8c-3.1-0.8-5.1-5.4-5.2-5.6s0-0.4,0.2-0.6c0.2-0.1,0.4-0.1,0.6,0.1
		c1.3,1.3,3.9,1.6,3.9,1.6c0.2,0,0.4,0.2,0.4,0.4l0.5,3.6c0,0.2,0,0.3-0.1,0.4C44.4,110.7,44.3,110.8,44.2,110.8z M40.7,106.3
		c0.7,1.3,1.7,2.5,3,3.3l-0.4-2.5C42.4,106.9,41.5,106.7,40.7,106.3z"/>
	<path class="st4" d="M51.1,111.3l22.2,12.1l-5.4,15.5c0,0-27.9-14.7-28.1-18.7C39.6,116.2,51.1,111.3,51.1,111.3z"/>
	<path class="st4" d="M56.7,149.7c1.4-7.9,1.5-15.8,0.3-23.7c-0.9-5.2-0.5-8.8-2.2-11.6c-5.7-9.4-28-6.6-31.2-0.1
		c-3.2,6.5,2.8,30.2,2.8,30.2L56.7,149.7z"/>
	<path class="st2" d="M36.4,97.5c-0.3-1.2-1.2-2.2-2.4-2.6c-0.5-0.2-1.1-0.1-1.6,0.2c-0.6,0.5-0.9,1.3-0.7,2c0.1,1.2,0.6,2.3,1.5,3
		c0.9,0.8,2,1.2,3.1,1.2"/>
	<path class="st3" d="M36.2,101.8c-1.3,0-2.5-0.5-3.4-1.3c-0.9-0.9-1.5-2.1-1.6-3.4c-0.1-0.9,0.2-1.9,1-2.4c0.6-0.4,1.3-0.5,2-0.3
		c1.4,0.4,2.4,1.5,2.7,2.9c0,0.3-0.1,0.5-0.4,0.6c-0.3,0-0.5-0.1-0.6-0.4c-0.2-1-1-1.9-2-2.2c-0.4-0.1-0.8-0.1-1.2,0.1
		c-0.4,0.4-0.6,1-0.5,1.5c0.1,1,0.5,2,1.3,2.7s1.8,1.1,2.8,1l0,0c0.3,0,0.5,0.2,0.5,0.5C36.8,101.6,36.5,101.8,36.2,101.8
		L36.2,101.8z"/>
	<ellipse transform="matrix(0.9546 -0.2979 0.2979 0.9546 -25.4866 18.5735)" class="st3" cx="48.2" cy="92.9" rx="0.5" ry="0.9"/>
	<path class="st2" d="M50.2,103c-0.6,0.4-1.3,0.7-2,0.9c-0.9,0.3-2,0.2-2.7-0.5c-0.3-0.3-0.5-0.7-0.6-1.1"/>
	<path class="st3" d="M47.2,104.5c-0.8,0-1.5-0.2-2-0.8c-0.3-0.4-0.5-0.8-0.7-1.3c-0.1-0.3,0-0.5,0.3-0.6l0,0c0.3-0.1,0.6,0,0.7,0.3
		l0,0c0.1,0.3,0.3,0.7,0.5,0.9c0.6,0.7,1.9,0.4,2.2,0.3c0.6-0.2,1.3-0.4,1.8-0.8c0.2-0.2,0.5-0.1,0.7,0.2c0.2,0.2,0.1,0.5-0.1,0.7
		l0,0c-0.7,0.4-1.4,0.7-2.1,0.9C48,104.4,47.6,104.5,47.2,104.5z"/>
	<path class="st2" d="M50.3,93.8c0,0,3.9,4.5,3,5.4c-1,1-3.2,0.5-3.2,0.5"/>
	<path class="st3" d="M51.3,100.4c-0.5,0-0.9,0-1.4-0.1c-0.3-0.1-0.4-0.3-0.4-0.6l0,0c0.1-0.3,0.3-0.4,0.6-0.4l0,0
		c0.6,0.1,2.1,0.3,2.8-0.3c0.2-0.4-1.2-2.7-3-4.7c-0.2-0.2-0.2-0.5,0-0.7s0.5-0.2,0.7,0l0,0c1.6,1.8,4.1,5,2.9,6.1
		C52.9,100.1,52.1,100.4,51.3,100.4z"/>
	<path class="st3" d="M67.9,139.5c-0.1,0-0.2,0-0.2-0.1c-0.2-0.1-15.5-8.3-21.1-11.4c-0.2-0.1-0.3-0.4-0.2-0.7l0,0
		c0.1-0.2,0.4-0.3,0.7-0.2l0,0c5.6,3,20.9,11.3,21.1,11.4c0.2,0.1,0.3,0.4,0.2,0.7l0,0C68.2,139.4,68,139.5,67.9,139.5z"/>
	<path class="st2" d="M259,146.4l1.9-0.1c1.7-0.1,3.2,0.9,3.9,2.3l36.4,100.9c0.5,1.3-0.5,2.5-2.2,2.5l-1.9,0.1
		c-1.7,0.1-3.2-0.9-3.9-2.3l-36.3-100.9C256.4,147.6,257.3,146.5,259,146.4z"/>
	<path class="st1" d="M297.1,252.6c-1.8,0-3.5-1-4.3-2.7l-36.4-100.8c-0.3-0.7-0.2-1.4,0.2-2c0.6-0.7,1.5-1.2,2.4-1.1l1.9-0.1
		c1.9-0.1,3.6,1,4.4,2.7l36.4,100.8c0.3,0.7,0.2,1.4-0.2,2c-0.6,0.7-1.5,1.2-2.4,1.1L297.1,252.6L297.1,252.6z M259,146.9
		c-0.6,0-1.2,0.2-1.6,0.7c-0.2,0.3-0.3,0.8-0.1,1.1l36.4,100.8c0.7,1.3,2,2.1,3.4,2l1.9-0.1c0.6,0,1.2-0.2,1.6-0.7
		c0.2-0.3,0.2-0.8,0.1-1.1l-36.4-100.7c-0.6-1.3-2-2.1-3.4-2L259,146.9L259,146.9z M259,146.4L259,146.4z"/>
	<path class="st2" d="M261,154.4l-33.9,0.6c-1.3,0-2.4-0.7-3-1.8l0,0c-0.4-1,0.4-1.9,1.6-1.9l33.9-0.6c1.3,0,2.4,0.6,3,1.8l0,0
		C263.1,153.5,262.3,154.3,261,154.4z"/>
	<path class="st1" d="M227,155.5c-1.4,0-2.8-0.8-3.4-2.1c-0.2-0.6-0.2-1.2,0.2-1.7c0.5-0.6,1.2-0.9,1.9-0.9l33.9-0.6
		c1.5-0.1,2.8,0.8,3.5,2.1c0.2,0.5,0.2,1.2-0.2,1.7c-0.5,0.6-1.2,0.9-1.9,0.9l0,0L227,155.5L227,155.5z M259.8,151.2L259.8,151.2
		l-34,0.6c-0.4,0-0.8,0.2-1.1,0.5c-0.1,0.2-0.2,0.5-0.1,0.7c0.5,0.9,1.4,1.5,2.5,1.4l33.9-0.6c0.4,0,0.8-0.2,1.1-0.5
		c0.1-0.2,0.2-0.5,0.1-0.7C261.7,151.7,260.8,151.2,259.8,151.2z M261,154.3L261,154.3z"/>
	<path class="st2" d="M266.2,168.4l-33.9,0.6c-1.3,0-2.4-0.6-3-1.8l0,0c-0.4-1,0.4-1.9,1.6-1.9l33.9-0.6c1.3,0,2.4,0.7,3,1.8l0,0
		C268.1,167.5,267.4,168.3,266.2,168.4z"/>
	<path class="st1" d="M232.1,169.5c-1.4,0-2.8-0.8-3.4-2.1c-0.2-0.5-0.2-1.2,0.2-1.7c0.5-0.6,1.2-0.9,1.9-0.9l33.9-0.6
		c1.5-0.1,2.8,0.8,3.5,2.1c0.2,0.5,0.2,1.2-0.2,1.7c-0.5,0.6-1.2,0.9-1.9,0.9l0,0L232.1,169.5L232.1,169.5z M264.9,165.3
		L264.9,165.3l-34,0.6c-0.4,0-0.8,0.1-1.1,0.5c-0.1,0.2-0.2,0.5-0.1,0.7c0.5,0.9,1.4,1.5,2.5,1.4l33.9-0.6c0.4,0,0.8-0.1,1.1-0.5
		c0.1-0.2,0.2-0.5,0.1-0.7C266.9,165.8,265.9,165.3,264.9,165.3z M266.2,168.4L266.2,168.4z"/>
	<path class="st2" d="M271.2,182.5l-33.9,0.6c-1.3,0-2.4-0.6-3-1.8l0,0c-0.4-1,0.4-1.9,1.6-1.9l33.9-0.6c1.3-0.1,2.4,0.6,3,1.8l0,0
		C273.2,181.6,272.4,182.5,271.2,182.5z"/>
	<path class="st1" d="M237.3,183.6c-1.4,0-2.8-0.8-3.4-2.1c-0.2-0.6-0.2-1.2,0.2-1.7c0.5-0.6,1.2-0.9,1.9-0.9l33.9-0.6
		c1.5-0.1,2.8,0.8,3.5,2.1c0.2,0.5,0.2,1.2-0.2,1.7c-0.5,0.6-1.2,0.9-1.9,0.9l0,0L237.3,183.6L237.3,183.6z M270,179.4L270,179.4
		l-34,0.6c-0.4,0-0.8,0.2-1.1,0.5c-0.1,0.2-0.2,0.5-0.1,0.8c0.5,0.9,1.4,1.5,2.5,1.4l33.9-0.6c0.4,0,0.8-0.2,1.1-0.5
		c0.1-0.2,0.2-0.5,0.1-0.7C271.9,179.9,271,179.3,270,179.4z M271.2,182.5L271.2,182.5z"/>
	<path class="st2" d="M276.3,196.5l-33.9,0.6c-1.3,0-2.4-0.6-3-1.8l0,0c-0.4-1,0.4-1.9,1.6-1.9l33.9-0.6c1.3,0,2.4,0.7,3,1.8l0,0
		C278.3,195.6,277.6,196.5,276.3,196.5z"/>
	<path class="st1" d="M242.4,197.7c-1.4,0-2.8-0.8-3.4-2.1c-0.2-0.5-0.2-1.2,0.2-1.7c0.5-0.6,1.2-0.9,1.9-0.9l33.9-0.6
		c1.5-0.1,2.8,0.8,3.5,2.1c0.2,0.5,0.2,1.2-0.2,1.7c-0.5,0.6-1.2,0.9-1.9,0.9l0,0L242.4,197.7L242.4,197.7z M275,193.4L275,193.4
		l-34,0.6c-0.4,0-0.8,0.1-1.1,0.5c-0.1,0.2-0.2,0.5-0.1,0.7c0.5,0.9,1.4,1.5,2.5,1.4l33.9-0.6c0.4,0,0.8-0.1,1.1-0.5
		c0.1-0.2,0.2-0.5,0.1-0.7C277,193.9,276.1,193.4,275,193.4L275,193.4z M276.3,196.6L276.3,196.6z"/>
	<path class="st2" d="M281.4,210.7l-33.9,0.6c-1.3,0-2.4-0.6-3-1.8l0,0c-0.4-1,0.4-1.9,1.6-1.9L280,207c1.3-0.1,2.4,0.6,3,1.8l0,0
		C283.4,209.8,282.7,210.6,281.4,210.7z"/>
	<path class="st1" d="M247.5,211.6c-1.4,0-2.8-0.8-3.4-2.1c-0.2-0.5-0.2-1.2,0.2-1.7c0.5-0.6,1.2-0.9,1.9-0.9l33.9-0.6
		c1.5-0.1,2.8,0.8,3.5,2.1c0.2,0.5,0.2,1.2-0.2,1.7c-0.5,0.6-1.2,0.9-1.9,0.9l0,0L247.5,211.6L247.5,211.6z M280.1,207.5
		L280.1,207.5l-34,0.6c-0.4,0-0.8,0.2-1.1,0.5c-0.1,0.2-0.2,0.5-0.1,0.7c0.5,0.9,1.4,1.5,2.5,1.4l33.9-0.6c0.4,0,0.8-0.2,1.1-0.5
		c0.1-0.2,0.2-0.5,0.1-0.8C282.1,208,281.2,207.5,280.1,207.5z M281.4,210.7L281.4,210.7z"/>
	<path class="st2" d="M286.5,224.7l-33.9,0.6c-1.3,0-2.4-0.6-3-1.8l0,0c-0.4-1,0.4-1.9,1.6-1.9l33.9-0.6c1.3,0,2.4,0.7,3,1.8l0,0
		C288.5,223.8,287.8,224.7,286.5,224.7z"/>
	<path class="st1" d="M252.5,225.8c-1.4,0-2.8-0.8-3.4-2.1c-0.2-0.5-0.2-1.2,0.2-1.7c0.5-0.6,1.2-0.9,1.9-0.9l33.9-0.6
		c1.5-0.1,2.8,0.8,3.5,2.1c0.2,0.5,0.2,1.2-0.2,1.7c-0.5,0.6-1.2,0.9-1.9,0.9l0,0L252.5,225.8L252.5,225.8z M285.3,221.5
		L285.3,221.5l-34,0.6c-0.4,0-0.8,0.1-1.1,0.5c-0.1,0.2-0.2,0.5-0.1,0.7c0.5,0.9,1.4,1.5,2.5,1.4l33.9-0.6c0.4,0,0.8-0.2,1.1-0.5
		c0.1-0.2,0.2-0.5,0.1-0.7C287.2,222.1,286.3,221.5,285.3,221.5z M286.5,224.7L286.5,224.7z"/>
	<path class="st2" d="M291.6,238.7l-33.9,0.6c-1.3,0-2.4-0.6-3-1.8l0,0c-0.4-1,0.4-1.9,1.6-1.9l33.9-0.6c1.3,0,2.4,0.6,3,1.8l0,0
		C293.6,237.8,292.9,238.7,291.6,238.7z"/>
	<path class="st1" d="M257.6,239.8c-1.4,0-2.8-0.8-3.4-2.1c-0.2-0.5-0.2-1.2,0.2-1.7c0.5-0.6,1.2-0.9,1.9-0.9l33.9-0.6
		c1.5-0.1,2.8,0.8,3.5,2.1c0.2,0.5,0.2,1.2-0.2,1.7c-0.5,0.6-1.2,0.9-1.9,0.9l0,0L257.6,239.8L257.6,239.8z M290.4,235.5
		L290.4,235.5l-34,0.6c-0.4,0-0.8,0.2-1.1,0.5c-0.1,0.2-0.2,0.5-0.1,0.7c0.5,0.9,1.4,1.5,2.5,1.4l33.9-0.6c0.4,0,0.8-0.1,1.1-0.5
		c0.1-0.2,0.2-0.5,0.1-0.7C292.3,236.1,291.4,235.5,290.4,235.5z M291.6,238.7L291.6,238.7z"/>
	<path class="st2" d="M222.6,147.1l1.9-0.1c1.7-0.1,3.2,0.9,3.9,2.3l36.4,100.8c0.5,1.3-0.5,2.5-2.2,2.5h-1.9
		c-1.7,0.1-3.2-0.8-3.9-2.3l-36.4-100.8C219.9,148.2,220.9,147.1,222.6,147.1z"/>
	<path class="st1" d="M260.6,253.3c-1.8,0-3.5-1-4.3-2.7l-36.4-100.9c-0.3-0.7-0.2-1.4,0.2-2c0.6-0.7,1.5-1.2,2.4-1.1l0,0l1.9-0.1
		c1.9-0.1,3.6,1,4.4,2.7L265.2,250c0.3,0.7,0.2,1.4-0.2,2c-0.6,0.7-1.5,1.2-2.4,1.1h-1.9L260.6,253.3z M222.6,147.6
		c-0.6,0-1.2,0.2-1.6,0.7c-0.2,0.3-0.3,0.8-0.1,1.1l36.4,100.8c0.6,1.3,2,2.1,3.4,2h1.9c0.6,0,1.2-0.2,1.6-0.7
		c0.2-0.3,0.3-0.8,0.1-1.1l-36.4-100.8c-0.6-1.3-2-2.1-3.4-2L222.6,147.6L222.6,147.6z"/>
	<path class="st2" d="M247.9,87.9c-7.3,4.2-15.6,7.5-24.2,5.9c-7.3-1.4-13.7-6.3-16.3-13.2c-0.5-1.4-0.8-2.8-1.4-4.2
		c-0.2-0.5-0.6-1.2-1.2-1.2c-1-0.1-1.3,1.2-1.2,2.2c0.1,0.8,0.2,1.5,0.2,2.2c0,0.5,0,1.9,0.5,2.3l-6.5-6.3c-0.3-0.3-0.7-0.6-1.1-0.7
		c-0.5-0.1-0.9,0.1-1.1,0.6c0,0.4,0.1,0.8,0.4,1l2.6,3.3c-1.1-1-2.3-1.9-3.6-2.8c-1.7-1.1-2.2,0.5-1.2,1.8l2.6,3.4
		c-0.9-0.9-1.8-1.7-2.8-2.5c-0.3-0.2-0.7-0.4-1-0.2c-0.2,0.2-0.3,0.4-0.2,0.7c0.1,0.2,0.2,0.4,0.4,0.6l2.4,2.8
		c-0.4-0.4-2.5-2.4-3.1-1.3c-0.3,0.6,0.9,1.6,1.2,2c2.4,2.3,4.8,4.6,7.3,6.8c6.6,5.9,14.1,11.4,23.1,13.3c9.8,2.2,20.5-0.3,28.7-6"
		/>
	<path class="st3" d="M231.1,105.4c-2.5,0-5-0.3-7.4-0.8c-9.9-2.2-18-8.8-23.2-13.5c-2.7-2.4-5.1-4.7-7.3-6.8l-0.2-0.2
		c-0.6-0.6-1.6-1.5-1.2-2.4c0.1-0.3,0.4-0.5,0.8-0.6h0.2l-0.3-0.3c-0.2-0.2-0.4-0.5-0.5-0.8c-0.2-0.5,0-0.9,0.4-1.2
		c0.3-0.2,0.6-0.2,0.9-0.1c-0.6-0.7-0.7-1.7-0.1-2.5c0.2-0.2,0.9-0.8,2.1,0.1l0.4,0.3l-0.1-0.1c-0.3-0.4-0.5-0.9-0.5-1.4
		c0.1-0.3,0.3-0.6,0.5-0.8c0.3-0.2,0.8-0.3,1.2-0.2c0.5,0.2,1,0.5,1.3,0.9l5.2,5.1v-0.6c0-0.6-0.1-1.2-0.2-1.8l-0.1-0.4
		c-0.1-0.8,0.1-1.7,0.6-2.3c0.3-0.3,0.7-0.5,1.1-0.4c0.7,0.1,1.2,0.6,1.6,1.5c0.3,0.8,0.5,1.5,0.8,2.3s0.4,1.3,0.6,1.9
		c2.4,6.5,8.6,11.5,16,12.9c7,1.4,14.7-0.5,23.9-5.8c0.2-0.2,0.5-0.1,0.7,0.1s0.1,0.5-0.1,0.7c0,0-0.1,0-0.1,0.1
		c-9.3,5.4-17.3,7.3-24.6,5.9c-7.8-1.5-14.2-6.7-16.7-13.5c-0.2-0.7-0.4-1.3-0.6-2c-0.2-0.7-0.5-1.5-0.7-2.2
		c-0.2-0.4-0.4-0.9-0.7-0.9c-0.1,0-0.2,0-0.3,0.1c-0.3,0.4-0.4,1-0.3,1.5v0.4c0.1,0.6,0.1,1.2,0.2,1.9c0,1.5,0.2,1.8,0.3,1.9
		c0.2,0.2,0.2,0.5,0,0.7l0,0c-0.2,0.2-0.5,0.2-0.7,0l0,0l0,0l-6.5-6.3c-0.2-0.3-0.5-0.5-0.9-0.6c-0.1,0-0.3,0-0.4,0.1l-0.1,0.1
		c0,0.1,0.2,0.4,0.3,0.5l2.6,3.3c0.2,0.2,0.1,0.5-0.1,0.7c-0.2,0.1-0.4,0.1-0.6,0c-1.1-1-2.3-1.9-3.6-2.8c-0.4-0.3-0.7-0.3-0.8-0.2
		c-0.1,0.1-0.2,0.7,0.3,1.3l2.6,3.4c0.2,0.2,0.1,0.5-0.1,0.7c-0.2,0.2-0.5,0.2-0.7,0c-0.9-0.9-1.8-1.7-2.7-2.4
		c-0.1-0.1-0.3-0.2-0.4-0.2c0,0,0,0,0,0.1c0.1,0.2,0.2,0.3,0.3,0.4l2.5,2.8c0.2,0.2,0.2,0.5,0,0.7s-0.5,0.2-0.7,0
		c-1-1-1.9-1.5-2.3-1.5c-0.1,0.1,0,0.4,0.9,1.2l0.2,0.2c2.2,2.1,4.5,4.3,7.2,6.7c5.2,4.7,13.2,11.2,22.8,13.2
		c9.3,2.1,19.8-0.1,28.3-5.9c0.2-0.2,0.5-0.1,0.7,0.1s0.1,0.5-0.1,0.7l0,0C246.5,103,238.9,105.4,231.1,105.4z"/>
	<path class="st2" d="M281.7,198.8l0.9,6.7c0,0-18.5,1.9-17.8,0.3c1.4-2.3,2.9-4.6,4.5-6.7"/>
	<path class="st3" d="M268.8,207c-2.3,0-4-0.2-4.3-0.6c-0.1-0.2-0.2-0.5-0.1-0.7c1.4-2.4,2.9-4.6,4.5-6.8c0.2-0.2,0.5-0.3,0.7-0.1
		s0.3,0.5,0.1,0.7c0,0.1-3.4,4.6-4.3,6.4c1.5,0.5,9.4,0,16.6-0.7l-0.9-6.2c0-0.3,0.2-0.5,0.4-0.6c0.3,0,0.5,0.2,0.6,0.4l0.9,6.7
		c0,0.1,0,0.3-0.1,0.4c-0.1,0.1-0.2,0.2-0.4,0.2C278.6,206.5,272.7,207,268.8,207z"/>
	<path class="st2" d="M255.7,173.3c0,0,3.9,4.9,3.2,5.8c-0.7,0.9-21.2,1.9-20.3-0.2c0.9-2.1,6.4-6.7,6.4-6.7"/>
	<path class="st3" d="M246.7,180.6c-3.7,0-7.1-0.2-8.1-0.8c-0.4-0.2-0.7-0.7-0.5-1.1c0.9-2.2,6.3-6.7,6.5-6.9s0.5-0.1,0.7,0.1
		c0.2,0.2,0.2,0.5-0.1,0.7l0,0c-1.5,1.2-5.4,4.7-6.2,6.4c1.6,1.2,17.5,0.6,19.4-0.2c0-0.6-1.4-2.9-3.2-5.1c-0.2-0.2-0.2-0.5,0.1-0.7
		l0,0c0.2-0.2,0.5-0.1,0.7,0.1c1.9,2.4,4,5.4,3.2,6.4C258.8,180.1,252.3,180.6,246.7,180.6z"/>
	<path class="st3" d="M248.5,121.2c0,0-23.2,14.3-22.9,22.1c0.2,5.3,16.4,31.8,16.4,31.8l15.5-0.9c0,0-14.1-21.6-11.1-24.8
		c3.1-3.2,20.5-11.8,20.5-11.8l0.3,62.1c0,0,15.8-1.1,15.8-2s3.4-73.9,3.4-73.9L248.5,121.2z"/>
	<path class="st2" d="M282.1,54.4c-0.1-1-0.5-1.9-1.1-2.6c-0.7-0.7-1.8-0.7-2.6-0.2c0.1-1.7-1.4-3-3-3.9c-1.9-1-4-1.8-6.1-2.2
		c-1.4-0.2-2.8-0.3-4.3-0.4c-2.1,0-4.4,0.1-6.1,1.4c-2,1.7-2.7,4.5-2,7s2.1,4.7,4.1,6.4c2.2,2.3,4.9,4,7.9,5
		c1.8,0.5,3.6,0.8,5.5,0.8c3,0.1,4.2-1.3,5.7-3.5C281.7,60.1,282.5,57.2,282.1,54.4z"/>
	<path class="st3" d="M274.5,66.4h-0.3c-1.9,0-3.8-0.3-5.6-0.8c-3.1-1-5.9-2.7-8.1-5.1c-2-1.8-3.5-4.1-4.2-6.7
		c-0.8-2.7,0.1-5.6,2.2-7.5c1.8-1.4,4.3-1.6,6.4-1.5c1.5,0,2.9,0.1,4.3,0.4c2.2,0.4,4.3,1.1,6.3,2.2c1.1,0.6,2.8,1.8,3.2,3.5
		c0.9-0.2,1.8,0,2.5,0.6c0.8,0.8,1.2,1.8,1.3,2.9l0,0c0.4,2.8-0.3,5.4-2.3,8.2C279,64.7,277.6,66.4,274.5,66.4z M264.6,45.8
		c-1.9-0.1-3.7,0.3-5.3,1.3c-2,1.6-2.4,4.4-1.9,6.5c0.7,2.4,2.1,4.5,3.9,6.2c2.1,2.2,4.7,3.9,7.7,4.9c1.7,0.5,3.5,0.7,5.3,0.8
		c2.6,0.1,3.7-1,5.3-3.3c1.6-2.1,2.4-4.9,2.1-7.5l0,0c-0.1-0.9-0.4-1.7-1-2.3c-0.5-0.5-1.3-0.6-1.9-0.2c-0.1,0.1-0.4,0.2-0.6,0.1
		s-0.3-0.3-0.3-0.5c0.1-1.6-1.6-2.9-2.7-3.4c-1.9-1-3.9-1.7-6-2.1c-1.4-0.2-2.8-0.3-4.2-0.3L264.6,45.8z"/>
	<path class="st2" d="M275,81.9c-0.4-7.7,1.2-23.1,1.2-23.1s-9.8,0.6-13-4.1c-4.1,3.2-4.8,11.9-4.1,14.6c1.5,5.2,8.3,4.1,8.3,4.1
		l-0.9,9.6L275,81.9z"/>
	<path class="st3" d="M266.5,83.4c-0.1,0-0.3-0.1-0.4-0.1c-0.1-0.1-0.2-0.3-0.2-0.4l0.8-9c-1.8,0.1-6.9,0.1-8.2-4.5
		c-0.8-2.8,0.1-11.8,4.3-15.1c0.1-0.1,0.3-0.1,0.4-0.1s0.3,0.1,0.3,0.2c3,4.4,12.4,3.9,12.5,3.9s0.3,0,0.4,0.2
		c0.1,0.1,0.2,0.3,0.1,0.4c0,0.2-1.5,15.5-1.2,23c0,0.3-0.2,0.5-0.4,0.5L266.5,83.4L266.5,83.4z M267.4,72.8c0.1,0,0.3,0,0.3,0.1
		c0.1,0.1,0.2,0.3,0.2,0.4l-0.8,9l7.5-0.9c-0.2-6.9,0.9-19.3,1.1-22.1c-2.1,0-9.4-0.1-12.5-3.9c-3.6,3.3-4.2,11.6-3.6,13.7
		C261,73.8,267.1,72.9,267.4,72.8L267.4,72.8z"/>
	<path class="st3" d="M267.4,73.3c0,0,2.8-0.4,4.2-1.7c0,0-1.9,4.6-4.7,5.3L267.4,73.3z"/>
	<path class="st3" d="M266.9,77.4c-0.1,0-0.2,0-0.3-0.1c-0.1-0.1-0.2-0.3-0.2-0.4l0.5-3.6c0-0.2,0.2-0.4,0.4-0.4
		c0,0,2.7-0.4,3.9-1.6c0.2-0.2,0.4-0.2,0.6-0.1s0.3,0.4,0.2,0.6C271.9,71.9,270.1,76.6,266.9,77.4L266.9,77.4z M267.8,73.7l-0.4,2.5
		c1.3-0.8,2.3-1.9,3-3.3C269.6,73.3,268.7,73.6,267.8,73.7z"/>
	<path class="st4" d="M261.3,76.9L239.1,89l5.4,15.6c0,0,27.9-14.7,28.1-18.7C272.7,81.9,261.3,76.9,261.3,76.9z"/>
	<path class="st4" d="M247.9,121.6c0,0,1.1-15.8,3-28c0.9-5.2,0.5-8.8,2.2-11.6c5.7-9.4,28-6.6,31.2-0.1s2.2,41.8,2.2,41.8
		L247.9,121.6z"/>
	<path class="st2" d="M274.6,64.3c0.3-1.2,1.2-2.2,2.4-2.5c0.5-0.2,1.1-0.1,1.6,0.2c0.6,0.5,0.9,1.2,0.7,2c-0.2,2.4-2.2,4.3-4.6,4.2
		"/>
	<path class="st3" d="M274.8,68.6L274.8,68.6c-0.4,0-0.6-0.2-0.6-0.5l0,0c0-0.3,0.2-0.5,0.5-0.5l0,0c1,0,2-0.3,2.8-1
		s1.2-1.7,1.3-2.7c0.1-0.6-0.1-1.1-0.5-1.5c-0.4-0.2-0.8-0.2-1.2-0.1c-1,0.3-1.8,1.1-2,2.2c-0.1,0.3-0.3,0.4-0.6,0.4
		c-0.3-0.1-0.5-0.3-0.4-0.6c0.3-1.4,1.3-2.6,2.7-2.9c0.7-0.2,1.4-0.1,2,0.3c0.7,0.6,1.1,1.5,0.9,2.4
		C279.6,66.6,277.4,68.6,274.8,68.6L274.8,68.6z"/>
	<ellipse transform="matrix(0.2979 -0.9546 0.9546 0.2979 127.656 292.8639)" class="st3" cx="262.9" cy="59.6" rx="0.9" ry="0.5"/>
	<path class="st2" d="M260.9,69.6c0.6,0.4,1.3,0.7,2,0.9c0.9,0.3,2,0.2,2.7-0.5c0.3-0.3,0.5-0.7,0.6-1.1"/>
	<path class="st3" d="M263.9,71.1c-0.4,0-0.8-0.1-1.2-0.2c-0.7-0.2-1.5-0.5-2.1-0.9c-0.2-0.2-0.3-0.5-0.2-0.7
		c0.1-0.2,0.5-0.3,0.7-0.2l0,0c0.6,0.4,1.2,0.6,1.8,0.8c0.4,0.1,1.6,0.4,2.2-0.3c0.2-0.3,0.4-0.6,0.5-0.9s0.4-0.4,0.6-0.3
		c0.3,0.1,0.4,0.4,0.3,0.6c-0.1,0.5-0.4,0.9-0.7,1.3C265.4,70.9,264.7,71.2,263.9,71.1z"/>
	<path class="st2" d="M260.8,60.5c0,0-3.9,4.5-3,5.4s3.2,0.5,3.2,0.5"/>
	<path class="st3" d="M259.8,67.1c-0.9,0.1-1.7-0.2-2.3-0.8c-1.1-1.1,1.4-4.3,2.9-6.1c0.2-0.2,0.5-0.2,0.7,0s0.2,0.5,0,0.7l0,0
		c-1.8,2-3.2,4.3-3,4.8c0.6,0.6,2.2,0.4,2.8,0.3c0.3-0.1,0.6,0.1,0.6,0.4s-0.1,0.6-0.4,0.6C260.7,67.1,260.3,67.1,259.8,67.1z"/>
	<path class="st3" d="M244.5,105.2c-0.2,0-0.4-0.1-0.4-0.3c-0.1-0.2,0-0.6,0.2-0.7s15.5-8.3,21.1-11.4c0.2-0.1,0.5,0,0.7,0.2l0,0
		c0.1,0.2,0.1,0.5-0.2,0.7l0,0c-5.6,3-20.9,11.3-21.1,11.4C244.7,105.1,244.6,105.2,244.5,105.2z"/>
	<line class="st5" x1="148.1" y1="149.4" x2="108.9" y2="181.5"/>
	<path class="st1" d="M108.9,181.9c-0.1,0-0.3-0.1-0.4-0.2c-0.2-0.2-0.1-0.5,0.1-0.7l0,0l39.1-32.1c0.2-0.2,0.5-0.1,0.7,0.1
		s0.1,0.5-0.1,0.7l0,0l-39,32.1C109.2,181.9,109.1,181.9,108.9,181.9z"/>
	<line class="st5" x1="108.9" y1="149.4" x2="148.1" y2="181.5"/>
	<path class="st1" d="M148.1,181.9c-0.1,0-0.2,0-0.3-0.1l-39.1-32.1c-0.2-0.2-0.2-0.5-0.1-0.7l0,0c0.2-0.2,0.5-0.2,0.7-0.1l39,32.1
		c0.2,0.2,0.2,0.5,0.1,0.7l0,0C148.4,181.9,148.2,181.9,148.1,181.9z"/>
	<path class="st2" d="M267.1,138.2c-0.3,0-0.5-0.2-0.5-0.5c0-0.2,0.1-0.4,0.3-0.5c0.1,0,5.3-2.9,6.7-5.4c0.1-0.2,0.4-0.3,0.7-0.2
		l0,0c0.2,0.1,0.3,0.4,0.2,0.7l0,0c-1.5,2.8-6.9,5.7-7.1,5.8C267.3,138.2,267.2,138.2,267.1,138.2z"/>
	<path class="st2" d="M38.2,195.9c-0.2,0-0.4-0.1-0.4-0.3c-2-3.6-8.2-11.8-8.2-11.8c-0.2-0.2-0.2-0.5,0-0.7s0.5-0.2,0.7,0l0.1,0.1
		c0.3,0.3,6.3,8.4,8.3,12c0.1,0.2,0,0.5-0.2,0.7l0,0C38.3,195.8,38.3,195.9,38.2,195.9z"/>
</g>
</svg>
