<?xml version="1.0" encoding="utf-8"?>
<!-- Generator: Adobe Illustrator 25.4.1, SVG Export Plug-In . SVG Version: 6.00 Build 0)  -->
<svg version="1.1" id="Calque_1" xmlns="http://www.w3.org/2000/svg" xmlns:xlink="http://www.w3.org/1999/xlink" x="0px" y="0px"
	 viewBox="0 0 170.9 62.3" style="enable-background:new 0 0 170.9 62.3;" xml:space="preserve">
<style type="text/css">
	.st0{display:none;}
	.st1{display:inline;fill:#D1EBF3;}
	.st2{display:inline;fill:url(#SVGID_1_);}
	.st3{display:inline;}
	.st4{fill:url(#SVGID_00000181801460468462870980000002832478132287208895_);}
	.st5{fill:url(#SVGID_00000040543367558413893100000007247550535549485199_);}
	.st6{fill:#D1EBF3;}
	.st7{fill:#EBCA94;}
	.st8{display:inline;opacity:0.25;fill:#EBCA94;enable-background:new    ;}
	.st9{display:inline;opacity:0.5;fill:#EBCA94;enable-background:new    ;}
	.st10{display:inline;opacity:0.75;fill:#EBCA94;enable-background:new    ;}
</style>
<g id="Calque_1_00000041293213335375796440000011091726005460603577_">
	<g id="liseret" class="st0">
		<path class="st1" d="M20.4,55.7c1.9,1.7,4.8,4.2,4.8,4.2c45.9-2.5,113.7-3.6,139.3-4v-0.3L20.4,55.7z"/>
		<path class="st1" d="M0.8,55.6h-53.3c0,0,13.9-0.7,24.2,6.3c0,0,23.3-0.7,37.9-1.4L0.8,55.6z"/>
		
			<linearGradient id="SVGID_1_" gradientUnits="userSpaceOnUse" x1="58.1234" y1="-609.8187" x2="58.1234" y2="-615.7872" gradientTransform="matrix(1 0 0 -1 0 -555.5745)">
			<stop  offset="0" style="stop-color:#D1EBF3"/>
			<stop  offset="1" style="stop-color:#D1EBF3;stop-opacity:0"/>
		</linearGradient>
		<path class="st2" d="M-24.5,60.2l193.3-5.8v-0.2H-52.6C-52.6,54.2-35.9,54.3-24.5,60.2z"/>
		<g class="st3">
			
				<linearGradient id="SVGID_00000083081550289368254600000000892734596869169338_" gradientUnits="userSpaceOnUse" x1="-22.3766" y1="-609.8187" x2="-22.3766" y2="-615.7872" gradientTransform="matrix(1 0 0 -1 0 -555.5745)">
				<stop  offset="0" style="stop-color:#EBCA94;stop-opacity:0.25"/>
				<stop  offset="1" style="stop-color:#EBCA94;stop-opacity:0"/>
			</linearGradient>
			<path style="fill:url(#SVGID_00000083081550289368254600000000892734596869169338_);" d="M-1.5,54.2h-51.1c0,0,16.7,0,28,6
				l32.4-1.1L-1.5,54.2z"/>
			
				<linearGradient id="SVGID_00000019650828757509562700000013871103585681863565_" gradientUnits="userSpaceOnUse" x1="95.5734" y1="-609.8187" x2="95.5734" y2="-614.1915" gradientTransform="matrix(1 0 0 -1 0 -555.5745)">
				<stop  offset="0" style="stop-color:#EBCA94;stop-opacity:0.25"/>
				<stop  offset="1" style="stop-color:#EBCA94;stop-opacity:0"/>
			</linearGradient>
			<path style="fill:url(#SVGID_00000019650828757509562700000013871103585681863565_);" d="M22.3,54.2c2.1,1.2,4.2,2.5,6.7,4.4
				l139.8-4.2v-0.2H22.3z"/>
		</g>
		<g class="st3">
			<path class="st6" d="M-1.5,54.2h-51.1c0,0,16.7,0,28,6l32.4-1.1L-1.5,54.2z"/>
			<path class="st6" d="M22.3,54.2c2.1,1.2,4.1,2.5,6.7,4.4l139.8-4.2v-0.2H22.3z"/>
		</g>
	</g>
	<g id="ardabel">
		<path class="st7" d="M32.9,30.7c-2.2-2.9-5.6-4.7-9.5-4.7c-6.6,0-11.9,5.4-11.9,12s5.3,11.9,11.9,11.9h9.5h2.5V38
			C35.4,35.3,34.4,32.8,32.9,30.7z M30.3,38h-0.7h-2.7c-1.9,0-3.4-1.5-3.4-3.4s1.5-3.4,3.4-3.4c1.1,0,2.1,0.5,2.7,1.3
			c0.4,0.6,0.7,1.3,0.7,2.1V38z"/>
		<path class="st7" d="M42.7,30.7c0,0-2.4,3-2.5,6.7v12.5h2.5V37.6c0.2-5.1,4.4-9.1,9.5-9.1v-2.4C48.3,26,44.8,27.8,42.7,30.7z"/>
		<path class="st7" d="M73.5,14.1v16.7c-2.2-2.9-5.6-4.7-9.5-4.7c-6.6,0-11.9,5.4-11.9,12S57.4,50,64,50h9.5H76V34.6V14.1H73.5z
			 M64,47.5c-5.3,0-9.5-4.3-9.5-9.5c0-5.3,4.3-9.5,9.5-9.5c5.3,0,9.5,4.3,9.5,9.5C73.5,43.3,69.3,47.5,64,47.5z"/>
		<path class="st7" d="M100.3,30.7c-2.2-2.9-5.6-4.7-9.5-4.7c-6.6,0-11.9,5.4-11.9,12s5.3,11.9,11.9,11.9h9.5h2.5V38
			C102.7,35.3,101.8,32.8,100.3,30.7z M90.7,47.5c-5.3,0-9.5-4.3-9.5-9.5c0-5.3,4.3-9.5,9.5-9.5c5.3,0,9.5,4.3,9.5,9.5
			C100.3,43.3,96,47.5,90.7,47.5z"/>
		<path class="st7" d="M117.6,26.1c-3.8,0-7.3,1.8-9.5,4.7V14.1h-2.5v30.7l0,0V50l0,0h2.5h9.5c6.6,0,11.9-5.3,11.9-11.9
			S124.2,26.1,117.6,26.1z M117.6,47.5c-5.3,0-9.5-4.3-9.5-9.5c0-5.3,4.3-9.5,9.5-9.5s9.5,4.3,9.5,9.5
			C127.1,43.3,122.9,47.5,117.6,47.5z"/>
		<path class="st7" d="M149,46.2c2.7-1.6,4.3-4.2,4.6-7.1l2.6-1.5c0.2,4.2-1.9,8.4-5.9,10.7c-5.7,3.4-13,1.5-16.3-4.2
			c-3.4-5.7-1.5-13,4.2-16.4c5.6-3.3,13-1.5,16.3,4.1l-18.5,11C138.7,47.4,144.5,48.9,149,46.2z M135,40.7l15.9-9.4
			c-3-3-7.7-3.7-11.5-1.5C135.5,32.1,133.8,36.6,135,40.7z"/>
		<path class="st7" d="M170.8,47.5V50c-6.6-0.1-11.8-5.3-11.8-11.9v-24h2.3V38C161.3,43.3,165.5,47.5,170.8,47.5z"/>
	</g>
	<path id="K" class="st7" d="M5.8,38c0-10.8,6.9-12.1,30.5-34.8C11,21.7,7.7,21.2,5.8,20.7c-2.9-1-5.7-17.5-5.7-17.5v19.5V50
		l24.1,12C24.2,62,5.8,48.3,5.8,38z"/>
	<g id="trio" class="st0">
		<path class="st8" d="M-60,32.3l-1.1,4.1L-62,40c-0.4,2.9,0.1,5.2,1.5,6.8c2.4,2.8,6.7,3.1,8,3.1h0.1h43.3l-37.7-21.6
			c0,0-2.9-1.7-6.1-1.7c-0.8,0-1.7,0.1-2.5,0.4C-57.4,27.8-59,29.5-60,32.3z"/>
		<path class="st9" d="M-48.4,12.8c-1.8,2.2-2.5,4.5-2.1,6.6c0.8,4.1,5.4,6.7,5.4,6.8l37.5,21.7l-21.7-37.6c0-0.1-2.7-4.7-6.8-5.4
			l0,0c-0.4-0.1-0.8-0.1-1.2-0.1c-1.8,0-3.6,0.8-5.5,2.3l-2.6,2.6L-48.4,12.8z"/>
		<path class="st10" d="M-23.3-4.5c-2.7,1-4.4,2.6-5.1,4.7c-1.4,3.9,1.3,8.5,1.3,8.6l21.6,37.7V3c0-0.1,0-5.4-3.1-8.1
			c-1.3-1.1-2.9-1.6-4.9-1.6c-0.6,0-1.3,0.1-2,0.2L-19-5.6L-23.3-4.5z"/>
	</g>
</g>
</svg>
