<?xml version="1.0" encoding="utf-8"?>
<!-- Generator: Adobe Illustrator 25.4.1, SVG Export Plug-In . SVG Version: 6.00 Build 0)  -->
<svg version="1.1" id="Calque_1" xmlns="http://www.w3.org/2000/svg" xmlns:xlink="http://www.w3.org/1999/xlink" x="0px" y="0px"
	 viewBox="0 0 255.1 155.9" style="enable-background:new 0 0 255.1 155.9;" xml:space="preserve">
<style type="text/css">
	.st0{display:none;}
	.st1{display:inline;fill:#D1EBF3;}
	.st2{display:inline;fill:url(#SVGID_1_);}
	.st3{display:inline;}
	.st4{fill:url(#SVGID_00000128462375200621767620000013857734892685202585_);}
	.st5{fill:url(#SVGID_00000099656309009475357210000014174239484418797487_);}
	.st6{fill:#D1EBF3;}
	.st7{fill:#EBCA94;}
	.st8{opacity:0.25;fill:#EBCA94;}
	.st9{opacity:0.5;fill:#EBCA94;}
	.st10{opacity:0.75;fill:#EBCA94;}
</style>
<g id="Calque_1_00000041293213335375796440000011091726005460603577_">
	<g id="liseret" class="st0">
		<path class="st1" d="M89.7,69.5c1.9,1.7,4.8,4.2,4.8,4.2c45.9-2.5,113.7-3.6,139.3-4v-0.3L89.7,69.5z"/>
		<path class="st1" d="M70.1,69.4H16.8c0,0,13.9-0.7,24.2,6.3c0,0,23.3-0.7,37.9-1.4L70.1,69.4z"/>
		
			<linearGradient id="SVGID_1_" gradientUnits="userSpaceOnUse" x1="127.4" y1="754.0315" x2="127.4" y2="760" gradientTransform="matrix(1 0 0 1 0 -686)">
			<stop  offset="0" style="stop-color:#D1EBF3"/>
			<stop  offset="1" style="stop-color:#D1EBF3;stop-opacity:0"/>
		</linearGradient>
		<path class="st2" d="M44.8,74l193.3-5.8V68H16.7C16.7,68,33.4,68.1,44.8,74z"/>
		<g class="st3">
			
				<linearGradient id="SVGID_00000064330983647360289110000009413618885757215125_" gradientUnits="userSpaceOnUse" x1="46.9" y1="754.0315" x2="46.9" y2="760" gradientTransform="matrix(1 0 0 1 0 -686)">
				<stop  offset="0" style="stop-color:#EBCA94;stop-opacity:0.25"/>
				<stop  offset="1" style="stop-color:#EBCA94;stop-opacity:0"/>
			</linearGradient>
			<path style="fill:url(#SVGID_00000064330983647360289110000009413618885757215125_);" d="M67.8,68H16.7c0,0,16.7,0,28,6l32.4-1.1
				L67.8,68z"/>
			
				<linearGradient id="SVGID_00000139280013703253396180000000777450823323562401_" gradientUnits="userSpaceOnUse" x1="164.85" y1="754.0315" x2="164.85" y2="758.4043" gradientTransform="matrix(1 0 0 1 0 -686)">
				<stop  offset="0" style="stop-color:#EBCA94;stop-opacity:0.25"/>
				<stop  offset="1" style="stop-color:#EBCA94;stop-opacity:0"/>
			</linearGradient>
			<path style="fill:url(#SVGID_00000139280013703253396180000000777450823323562401_);" d="M91.6,68c2.1,1.2,4.2,2.5,6.7,4.4
				l139.8-4.2V68H91.6z"/>
		</g>
		<g class="st3">
			<path class="st6" d="M67.8,68H16.7c0,0,16.7,0,28,6l32.4-1.1L67.8,68z"/>
			<path class="st6" d="M91.6,68c2.1,1.2,4.1,2.5,6.7,4.4l139.8-4.2V68H91.6z"/>
		</g>
	</g>
	<g id="ardabel">
		<path class="st7" d="M102.2,44.5c-2.2-2.9-5.6-4.7-9.5-4.7c-6.6,0-11.9,5.4-11.9,12s5.3,11.9,11.9,11.9h9.5h2.5V51.8
			C104.7,49.1,103.7,46.6,102.2,44.5z M99.6,51.8h-0.7h-2.7c-1.9,0-3.4-1.5-3.4-3.4s1.5-3.4,3.4-3.4c1.1,0,2.1,0.5,2.7,1.3
			c0.4,0.6,0.7,1.3,0.7,2.1V51.8z"/>
		<path class="st7" d="M112,44.5c0,0-2.4,3-2.5,6.7v12.5h2.5V51.4c0.2-5.1,4.4-9.1,9.5-9.1v-2.4C117.6,39.8,114.1,41.6,112,44.5z"/>
		<path class="st7" d="M142.8,27.9v16.7c-2.2-2.9-5.6-4.7-9.5-4.7c-6.6,0-11.9,5.4-11.9,12s5.3,11.9,11.9,11.9h9.5h2.5V48.4V27.9
			H142.8z M133.3,61.3c-5.3,0-9.5-4.3-9.5-9.5c0-5.3,4.3-9.5,9.5-9.5c5.3,0,9.5,4.3,9.5,9.5C142.8,57.1,138.6,61.3,133.3,61.3z"/>
		<path class="st7" d="M169.6,44.5c-2.2-2.9-5.6-4.7-9.5-4.7c-6.6,0-11.9,5.4-11.9,12s5.3,11.9,11.9,11.9h9.5h2.5V51.8
			C172,49.1,171.1,46.6,169.6,44.5z M160,61.3c-5.3,0-9.5-4.3-9.5-9.5c0-5.3,4.3-9.5,9.5-9.5c5.3,0,9.5,4.3,9.5,9.5
			C169.6,57.1,165.3,61.3,160,61.3z"/>
		<path class="st7" d="M186.9,39.9c-3.8,0-7.3,1.8-9.5,4.7V27.9h-2.5v30.7l0,0v5.2l0,0h2.5h9.5c6.6,0,11.9-5.3,11.9-11.9
			S193.5,39.9,186.9,39.9z M186.9,61.3c-5.3,0-9.5-4.3-9.5-9.5c0-5.3,4.3-9.5,9.5-9.5s9.5,4.3,9.5,9.5
			C196.4,57.1,192.2,61.3,186.9,61.3z"/>
		<path class="st7" d="M218.3,60c2.7-1.6,4.3-4.2,4.6-7.1l2.6-1.5c0.2,4.2-1.9,8.4-5.9,10.7c-5.7,3.4-13,1.5-16.3-4.2
			c-3.4-5.7-1.5-13,4.2-16.4c5.6-3.3,13-1.5,16.3,4.1l-18.5,11C208,61.2,213.8,62.7,218.3,60z M204.3,54.5l15.9-9.4
			c-3-3-7.7-3.7-11.5-1.5C204.8,45.9,203.1,50.4,204.3,54.5z"/>
		<path class="st7" d="M240.1,61.3v2.5c-6.6-0.1-11.8-5.3-11.8-11.9v-24h2.3v23.9C230.6,57.1,234.8,61.3,240.1,61.3z"/>
	</g>
	<path id="K" class="st7" d="M75.1,51.8C75.1,41,82,39.7,105.6,17C80.3,35.5,77,35,75.1,34.5c-2.9-1-5.7-17.5-5.7-17.5v19.5v27.3
		l24.1,12C93.5,75.8,75.1,62.1,75.1,51.8z"/>
	<g id="trio">
		<path class="st8" d="M9.3,46.1l-1.1,4.1l-0.9,3.6c-0.4,2.9,0.1,5.2,1.5,6.8c2.4,2.8,6.7,3.1,8,3.1h0.1h43.3L22.5,42.1
			c0,0-2.9-1.7-6.1-1.7c-0.8,0-1.7,0.1-2.5,0.4C11.9,41.6,10.3,43.3,9.3,46.1z"/>
		<path class="st9" d="M20.9,26.6c-1.8,2.2-2.5,4.5-2.1,6.6c0.8,4.1,5.4,6.7,5.4,6.8l37.5,21.7L40,24.1c0-0.1-2.7-4.7-6.8-5.4l0,0
			c-0.4-0.1-0.8-0.1-1.2-0.1c-1.8,0-3.6,0.8-5.5,2.3l-2.6,2.6L20.9,26.6z"/>
		<path class="st10" d="M46,9.3c-2.7,1-4.4,2.6-5.1,4.7c-1.4,3.9,1.3,8.5,1.3,8.6l21.6,37.7V16.8c0-0.1,0-5.4-3.1-8.1
			c-1.3-1.1-2.9-1.6-4.9-1.6c-0.6,0-1.3,0.1-2,0.2l-3.5,0.9L46,9.3z"/>
	</g>
</g>
</svg>
