<?xml version="1.0" encoding="utf-8"?>
<!-- Generator: Adobe Illustrator 25.4.1, SVG Export Plug-In . SVG Version: 6.00 Build 0)  -->
<svg version="1.1" id="Calque_1" xmlns="http://www.w3.org/2000/svg" xmlns:xlink="http://www.w3.org/1999/xlink" x="0px" y="0px"
	 viewBox="0 0 250 180.2" style="enable-background:new 0 0 250 180.2;" xml:space="preserve">
<style type="text/css">
	.st0{display:none;fill:#0C7189;}
	.st1{fill:#EBCA94;}
	.st2{fill:#FFFFFF;}
</style>
<rect x="-26" y="-26.1" class="st0" width="354" height="235"/>
<g id="Calque_1_00000094614655247317061910000009299331444409717152_">
	<g id="ardabel_00000136377052940624317870000014759726589963172536_">
		<path class="st1" d="M241.4,97.6c-5.6-7.3-14.6-12-24-12c-16.7,0-30.4,13.7-30.4,30.4s13.3,30.4,30.4,30.4h24h6.4V116
			C247.4,109.2,245.3,102.7,241.4,97.6z M235.4,116h-1.7h-7.3c-5.1,0-9-3.9-9-9c0-5.1,3.9-9,9-9c3,0,5.6,1.3,7.3,3.4
			c1.3,1.7,1.7,3.4,1.7,5.6V116z"/>
	</g>
	<path id="K_00000025400954016292412730000008614040802157610163_" class="st2" d="M172.5,116c0-27.4,17.5-30.8,77.5-88.2
		c-64.2,46.7-72.8,45.8-77.5,44.5c-7.3-2.6-14.6-44.5-14.6-44.5v49.2V146l61.2,30.4C219.2,176.8,172.5,142.1,172.5,116z"/>
	<g id="trio">
		
			<image style="overflow:visible;opacity:0.75;" width="175" height="175" xlink:href="E3615A0E.png"  transform="matrix(1 0 0 1 -12 -9.8)">
		</image>
		<g>
			<g>
				<path class="st2" d="M98.9,8.2c-6.8,2.6-11.1,6.4-12.8,12C82.7,30,89.5,42,89.5,42l54.8,95.4v-110c0,0,0-13.7-8.1-20.5
					c-3-2.6-7.3-4.3-12.4-4.3c-1.7,0-3.4,0-5.1,0.4l-9,2.1L98.9,8.2z"/>
				<path class="st2" d="M6,101.5l-3,10.3l-2.6,9.4c-1.3,7.3,0,13.3,3.9,17.1c6,6.8,17.1,7.7,20.5,8.1l0,0h109.6l-95-54.8
					c0,0-7.3-4.3-15.4-4.3c-2.1,0-4.3,0.4-6.4,0.9C12.5,89.9,8.6,94.6,6,101.5z"/>
				<path class="st2" d="M35.1,51.8c-4.7,5.6-6.4,11.1-5.1,16.7c2.1,10.3,13.7,17.1,13.7,17.1l95,55.2l-55.2-95
					c0,0-6.8-12-17.1-13.7l0,0c-0.9,0-2.1-0.4-3-0.4c-4.7,0-9.4,2.1-14.1,6l-6.4,6.4L35.1,51.8z"/>
			</g>
		</g>
	</g>
</g>
</svg>
