<?xml version="1.0" encoding="utf-8"?>
<!-- Generator: Adobe Illustrator 25.4.1, SVG Export Plug-In . SVG Version: 6.00 Build 0)  -->
<svg version="1.1" id="Calque_1" xmlns="http://www.w3.org/2000/svg" xmlns:xlink="http://www.w3.org/1999/xlink" x="0px" y="0px"
	 viewBox="0 0 327 228" style="enable-background:new 0 0 327 228;" xml:space="preserve">
<style type="text/css">
	.st0{opacity:0.6;}
	.st1{fill:#EBCA94;}
</style>
<g class="st0">
	<path class="st1" d="M225.5,148.2c0-35.8,22.9-40.4,101.1-115.4c-84.2,61.3-95.1,59.7-101.1,58c-9.6-3.3-18.9-58-18.9-58v64.6v90.5
		l79.9,39.8C286.5,227.7,225.5,182.3,225.5,148.2z"/>
	<path class="st1" d="M129.1,7.3c-9,3.3-14.6,8.6-16.9,15.6c-4.6,12.9,4,28.5,4.3,28.5l71.6,125V32.2c0-0.3,0-17.9-10.3-26.8
		c-4.3-3.6-9.6-5.3-16.2-5.3c-2,0-4.3,0.3-6.6,0.7l-11.6,3L129.1,7.3z"/>
	<path class="st1" d="M7.1,129.3l-3.6,13.6l-3,11.9c-1.3,9.6,0.3,17.2,5,22.5c8,9.3,22.2,10.3,26.5,10.3h0.3h143.5L51.2,116.3
		c0,0-9.6-5.6-20.2-5.6c-2.7,0-5.6,0.3-8.3,1.3C16,114.4,10.7,120,7.1,129.3z"/>
	<path class="st1" d="M45.5,64.6c-6,7.3-8.3,14.9-7,21.9c2.7,13.6,17.9,22.2,17.9,22.5L180.8,181L108.8,56.3c0-0.3-9-15.6-22.5-17.9
		c-1-0.3-2.3-0.3-3.6-0.3c-6,0-11.9,2.7-18.2,7.6l-8.6,8.6L45.5,64.6z"/>
	<path class="st1" d="M315,124c-7.3-9.6-18.6-15.6-31.5-15.6c-21.9,0-39.4,17.9-39.4,39.8s17.6,39.4,39.4,39.4H315h8.3v-39.4
		C323.3,139.2,320.3,130.9,315,124z M300.1,141.5h-2h-7.6c-5.3,0-9.6-4.3-9.6-9.6c0-5.3,4.3-9.9,9.6-9.9c3,0,6,1.3,7.6,4
		c1.3,1.7,2,3.6,2,6V141.5z"/>
</g>
</svg>
