<svg width="327" height="228" viewBox="0 0 327 228" fill="none" xmlns="http://www.w3.org/2000/svg">
<g opacity="0.6">
<path d="M225.516 148.166C225.516 112.367 248.388 107.727 326.617 32.8152C242.422 94.1366 231.483 92.4793 225.516 90.8219C215.903 87.5073 206.622 32.8152 206.622 32.8152V97.4513V187.942L286.508 227.718C286.508 227.718 225.516 182.307 225.516 148.166Z" fill="#F5E5CA"/>
<path d="M129.057 7.29228C120.107 10.607 114.472 15.9104 112.151 22.8712C107.511 35.7985 116.129 51.3774 116.46 51.3774L188.06 176.341V32.1523C188.06 31.8209 188.06 14.2531 177.784 5.30347C173.475 1.65733 168.171 0 161.542 0C159.553 0 157.232 0.33147 154.912 0.662937L143.31 3.64613L129.057 7.29228Z" fill="#F5E5CA"/>
<path d="M7.07204 129.272L3.42577 142.863L0.44246 154.795C-0.883456 164.408 0.773939 172.032 5.41465 177.335C13.3701 186.616 27.6237 187.611 31.933 187.611H32.2645H175.795L51.1588 116.345C51.1588 116.345 41.5459 110.71 30.9385 110.71C28.2867 110.71 25.3034 111.042 22.6516 112.036C16.022 114.356 10.7183 119.991 7.07204 129.272Z" fill="#F5E5CA"/>
<path d="M45.5234 64.636C39.5567 71.9283 37.2364 79.5521 38.5623 86.5129C41.2141 100.103 56.4622 108.721 56.4622 109.053L180.767 180.981L108.836 56.3493C108.836 56.0179 99.8859 40.7704 86.2953 38.4501C85.3008 38.1186 83.9749 38.1187 82.649 38.1187C76.6824 38.1187 70.7158 40.7704 64.4177 45.7424L55.7992 54.3606L45.5234 64.636Z" fill="#F5E5CA"/>
<path d="M315.016 123.969C307.723 114.357 296.453 108.39 283.525 108.39C261.647 108.39 244.079 126.289 244.079 148.166C244.079 170.043 261.647 187.611 283.525 187.611H315.016H323.303V148.166C323.303 139.217 320.319 130.93 315.016 123.969ZM300.099 141.537H298.11H290.486C285.183 141.537 280.873 137.228 280.873 131.924C280.873 126.621 285.183 121.98 290.486 121.98C293.469 121.98 296.453 123.306 298.11 125.958C299.436 127.615 300.099 129.604 300.099 131.924V141.537Z" fill="#F5E5CA"/>
</g>
</svg>
