<?xml version="1.0" encoding="utf-8"?>
<!-- Generator: Adobe Illustrator 25.4.1, SVG Export Plug-In . SVG Version: 6.00 Build 0)  -->
<svg version="1.1" id="Calque_1" xmlns="http://www.w3.org/2000/svg" xmlns:xlink="http://www.w3.org/1999/xlink" x="0px" y="0px"
	 viewBox="0 0 278 236.8" style="enable-background:new 0 0 278 236.8;" xml:space="preserve">
<style type="text/css">
	.st0{fill:#E6E7E8;}
	.st1{fill:#231F20;}
	.st2{fill:#FFFFFF;}
	.st3{fill:#D1D3D4;}
	.st4{fill:#EBCA94;}
</style>
<g id="_519_analytics_process_flatline">
	<path class="st0" d="M176.3,71c0,0,11.1,0.5,27.3,14.1s22.1,23,22.1,23V54.3c0,0-20.6-23.8-47.7-32.9L176.3,71z"/>
	<path class="st1" d="M225.7,108.6c-0.2,0-0.3-0.1-0.4-0.2s-6.1-9.5-22-22.9s-26.9-14-27-14c-0.3,0-0.5-0.3-0.5-0.5l1.6-49.5
		c0-0.2,0.1-0.3,0.2-0.4c0.1-0.1,0.3-0.1,0.4-0.1c27,9,47.8,32.8,48,33c0.1,0.1,0.1,0.2,0.1,0.3v53.8
		C226.1,108.3,226,108.5,225.7,108.6L225.7,108.6z M176.8,70.5c2.4,0.3,12.7,2,27.1,14.2c12.6,10.6,19,18.7,21.3,21.8v-52
		c-1.7-2-21.4-23.7-46.8-32.4L176.8,70.5z"/>
	<path class="st0" d="M59.8,89.8V41.9c18.6-6.5,38.3-9.1,58-7.8V80C117.7,80,82.3,81,59.8,89.8z"/>
	<path class="st1" d="M59.8,90.3c-0.1,0-0.2,0-0.3-0.1c-0.1-0.1-0.2-0.3-0.2-0.4V41.9c0-0.2,0.1-0.4,0.3-0.5
		c18.7-6.5,38.5-9.1,58.2-7.9c0.3,0,0.5,0.2,0.5,0.5v46c0,0.3-0.2,0.5-0.5,0.5l0,0c-0.4,0-35.7,1.1-57.9,9.7
		C59.9,90.3,59.8,90.3,59.8,90.3z M60.3,42.3v46.8c20.9-7.9,52.6-9.4,57-9.5v-45C98,33.4,78.6,36,60.3,42.3z"/>
	<path class="st1" d="M66.7,81.9c-0.1,0-0.2,0-0.3-0.1c-0.1-0.1-0.2-0.2-0.2-0.4v-34c0-0.3,0.2-0.5,0.5-0.5s0.5,0.2,0.5,0.5v33.3
		c4.6-1.4,30.6-9.3,40.3-7.3c0.3,0.1,0.5,0.3,0.4,0.6c-0.1,0.3-0.3,0.5-0.6,0.4c-10.2-2.1-40.1,7.4-40.4,7.5
		C66.9,81.9,66.7,81.9,66.7,81.9z"/>
	<path class="st0" d="M37.6,116.4c0,0-17.3,7.2-23.8,28.3v-42.3c0,0-0.4-20.5,23.8-33.6V116.4z"/>
	<path class="st1" d="M13.7,145.3L13.7,145.3c-0.3,0-0.5-0.2-0.5-0.5v-42.4c0-0.2,0-21,24-34c0.2-0.1,0.3-0.1,0.5,0s0.2,0.3,0.2,0.4
		v47.6c0,0.2-0.1,0.4-0.3,0.5c-11.4,5.7-19.9,15.8-23.5,28C14.1,145.1,13.9,145.3,13.7,145.3z M37,69.7
		c-22.8,12.7-22.8,32.5-22.8,32.7v39.3c4.1-11.1,12.2-20.2,22.8-25.6V69.7z M37.5,116.4L37.5,116.4z"/>
	<path class="st2" d="M13.7,102.4c0,0,4.2,18.4,20.5,24.5v49.6c0,0-18.6-12.8-20.5-31.7C13.7,144.8,13.7,102.4,13.7,102.4z"/>
	<path class="st1" d="M34.2,177c-0.1,0-0.2,0-0.3-0.1c-0.2-0.1-18.8-13.2-20.7-32.1v-42.4c0-0.3,0.2-0.5,0.5-0.6
		c0.3,0,0.5,0.2,0.6,0.5c0,0.2,4.4,18.2,20.2,24.2c0.2,0.1,0.3,0.3,0.3,0.5v49.6c0,0.2-0.1,0.4-0.3,0.4C34.4,177,34.3,177,34.2,177z
		 M14.2,105.7v39.1c1.7,16.2,16,28,19.5,30.7v-48.2C21.8,122.6,16.2,111.3,14.2,105.7z"/>
	<path class="st2" d="M232.9,142.2c-1.9,0.4-84.6,38.6-84.6,38.6S116,169,115.2,169.3c-0.8,0.4,81.5-33.9,81.5-33.9L232.9,142.2z"/>
	<path class="st1" d="M148.3,181.3c-0.1,0-0.1,0-0.2,0c-12.5-4.6-31.6-11.4-32.9-11.4v-0.1c-0.4,0.1-0.4,0-0.5-0.2s0-0.5,0.2-0.7
		h0.1l0,0c1.1-0.4,80.7-33.6,81.5-33.9c0.1,0,0.2,0,0.3,0l36.2,6.8c0.2,0.1,0.4,0.3,0.4,0.5s-0.2,0.5-0.4,0.5
		c-1.8,0.5-56.1,25.4-84.5,38.6C148.5,181.3,148.4,181.3,148.3,181.3z M116.9,169.2c2.9,0.8,10.6,3.4,31.5,11
		c8.6-4,71.5-33,82.8-37.8l-34.3-6.4l-40.6,16.9l-28,11.7l-9.2,3.8L116.9,169.2z"/>
	<path class="st3" d="M148.3,176.1h-0.2l-22-6.7c-0.2-0.1-0.3-0.2-0.4-0.5c0-0.2,0.1-0.4,0.3-0.5l62.2-26.1c0.2-0.1,0.5,0,0.6,0.2
		l6.5,11.4c0.1,0.1,0.1,0.3,0,0.4c0,0.1-0.1,0.3-0.3,0.3L148.3,176C148.4,176.1,148.4,176.1,148.3,176.1z M127.8,168.8l20.5,6.3
		l46-21.1l-6-10.6L127.8,168.8z"/>
	<path class="st2" d="M113.3,11c-2.6,0.6-5,1.7-7.1,3.4c-2,1.5-4.1,3.7-3.4,6.1c0.3,0.9,0.9,1.9,0.3,2.7c-0.4,0.5-1.1,0.5-1.7,0.6
		c-3.6,0.5-6.1,3.9-5.5,7.5c0.2,1.4,0.8,2.6,1.8,3.6c-4.4,0.2-7.8,4-7.5,8.4c0,0.2,0,0.3,0,0.5c0.2,1.1,0.6,2.3,1.1,3.3
		c0.8,1.8,1.9,3.6,1.6,5.5c-2-0.4-3.9,1.7-3.8,3.8c0.3,2.1,1.6,3.9,3.4,4.9c-2,0.3-3.3,2.7-2.9,4.7c0.5,2,1.8,3.8,3.5,4.9
		c4.2,2.9,9.5,3.6,14.2,1.8c0.4,1.9,1.8,3.5,3.7,4.2c1.9,0.6,3.8,0.9,5.8,0.7c3.6,0,7.6-0.3,10.3-2.8c0.6-0.5,1.2-1.4,0.8-2.1
		c-0.5-0.9-2.1-0.9-2.2-1.9c2.7-0.2,5.3-1.1,7.5-2.8c1.6-1.1,2.7-2.7,3-4.6c0.1-1.5-0.6-3-1.9-3.9c1.5-1.3,3.2-3.3,2.4-5.1
		c-0.6-1.5-2.7-2.5-2.3-4c3.7-1.6,5.4-5.8,3.8-9.5c-0.4-0.9-0.9-1.7-1.6-2.4c3.8-1.4,5.7-5.5,4.3-9.3c-0.8-2.1-2.4-3.7-4.5-4.4
		c1.5-2.5,0.7-5.7-1.8-7.3c-0.8-0.5-1.8-0.8-2.8-0.8c0.8-1.4,0.4-3.1-0.9-4c-1.3-0.8-2.9-1-4.4-0.7c-2.5,0.4-4.2,1.1-6.5,0
		S115.8,10.6,113.3,11z"/>
	<path class="st1" d="M116.3,78.2c-1.9,0.1-3.7-0.2-5.5-0.8c-1.8-0.7-3.3-2.1-3.9-4c-4.8,1.6-10,0.8-14.1-2
		c-1.9-1.2-3.2-3.1-3.7-5.2c-0.3-2,0.6-3.9,2.3-5c-1.6-1.1-2.6-2.8-2.8-4.7c-0.1-1.4,0.5-2.7,1.6-3.5c0.6-0.6,1.4-0.9,2.3-0.9
		c-0.1-1.5-0.6-3-1.3-4.2L91,47.4c-0.6-1.1-1-2.2-1.2-3.4c-0.3-2.3,0.4-4.7,1.9-6.5c1.3-1.6,3.1-2.6,5.1-2.9
		c-2.3-3.2-1.6-7.6,1.6-9.9c0.9-0.7,2-1.1,3.1-1.3h0.2c0.5-0.1,1-0.1,1.2-0.4s0.1-0.8-0.2-1.6c-0.1-0.2-0.2-0.4-0.2-0.7
		c-0.9-2.9,1.9-5.4,3.6-6.7c2.1-1.7,4.6-2.9,7.3-3.5l0,0c2.6-0.5,4.5,0.1,7,1.2c1.7,0.8,3,0.5,4.7,0.2c0.5-0.1,1-0.2,1.5-0.3
		c1.6-0.4,3.4-0.1,4.8,0.8c0.8,0.6,1.4,1.5,1.6,2.5c0.1,0.5,0,0.9-0.2,1.4c3.2,0.4,5.4,3.3,5,6.5c-0.1,0.6-0.3,1.2-0.5,1.7
		c3.9,1.6,5.8,6.2,4.1,10.1c-0.7,1.8-2.1,3.2-3.8,4c2.8,3.3,2.4,8.2-0.9,10.9c-0.5,0.4-1.1,0.8-1.7,1.1c0,0.5,0.4,1,1,1.7
		c0.5,0.5,0.9,1,1.2,1.6c0.7,1.6,0,3.3-2,5.3c1.1,1,1.7,2.5,1.6,4c-0.3,2-1.5,3.9-3.2,5c-2,1.5-4.4,2.5-6.9,2.8l0.4,0.2
		c0.5,0.2,1,0.6,1.3,1c0.4,1,0,2.2-0.9,2.8c-2.8,2.5-6.7,2.9-10.6,2.9L116.3,78.2z M107.4,72.3c0.3,0,0.5,0.2,0.5,0.4
		c0.4,1.8,1.7,3.2,3.4,3.8c1.8,0.6,3.7,0.8,5.6,0.7c3.7,0,7.4-0.4,10-2.6c0.5-0.4,0.9-1.1,0.6-1.5c-0.2-0.3-0.5-0.5-0.9-0.6
		c-0.6-0.3-1.3-0.6-1.4-1.5c0-0.1,0-0.3,0.1-0.4s0.2-0.2,0.4-0.2c2.6-0.2,5.1-1.1,7.2-2.7c1-0.7,2.6-2.3,2.8-4.3
		c0.1-1.4-0.5-2.7-1.6-3.5c-0.1-0.1-0.2-0.2-0.2-0.4c0-0.2,0.1-0.3,0.2-0.4c2-1.8,2.8-3.3,2.3-4.5c-0.3-0.5-0.6-1-1-1.4
		c-0.7-0.8-1.6-1.7-1.2-2.9c0-0.2,0.1-0.3,0.3-0.3c3.4-1.5,5-5.4,3.6-8.8c-0.4-0.8-0.9-1.6-1.5-2.2c-0.1-0.1-0.2-0.3-0.2-0.5
		s0.2-0.3,0.3-0.4c3.5-1.3,5.3-5.1,4-8.6c-0.7-1.9-2.2-3.4-4.2-4.1c-0.1,0-0.3-0.2-0.3-0.3c-0.1-0.1-0.1-0.3,0-0.4
		c1.4-2.3,0.6-5.2-1.6-6.6c-0.7-0.4-1.6-0.7-2.4-0.7l0,0c-0.2,0-0.4-0.1-0.5-0.3c-0.1-0.2-0.1-0.4,0.1-0.5c0.3-0.4,0.4-0.9,0.3-1.4
		c-0.1-0.7-0.5-1.4-1.1-1.8c-1.2-0.7-2.7-0.9-4.1-0.6c-0.5,0.1-1,0.2-1.5,0.2c-1.8,0.3-3.4,0.6-5.3-0.3c-2.3-1.1-4.1-1.6-6.4-1.2
		c-2.5,0.6-4.9,1.7-6.9,3.3c-1.2,0.9-3.9,3.2-3.2,5.6c0.1,0.2,0.1,0.4,0.2,0.6c0.4,0.8,0.4,1.7,0,2.5c-0.5,0.5-1.1,0.8-1.8,0.8h-0.2
		c-3.3,0.5-5.6,3.6-5.1,6.9c0.2,1.2,0.8,2.4,1.6,3.3c0.1,0.1,0.2,0.4,0.1,0.5c-0.1,0.2-0.3,0.3-0.5,0.3c-4.1,0.2-7.3,3.8-7,7.9
		c0,0.1,0,0.3,0,0.4c0.2,1.1,0.6,2.2,1.1,3.1l0.2,0.5c0.8,1.7,1.7,3.4,1.4,5.3c0,0.1-0.1,0.3-0.2,0.3c-0.1,0.1-0.3,0.1-0.4,0.1
		c-0.7-0.1-1.5,0.1-2,0.6c-0.8,0.7-1.2,1.6-1.2,2.7c0.3,1.9,1.4,3.6,3.2,4.4c0.2,0.1,0.3,0.4,0.2,0.7c-0.1,0.1-0.2,0.2-0.4,0.3
		C91,61.9,90,64,90.3,65.8c0.5,1.9,1.7,3.5,3.3,4.5c4,2.8,9.2,3.5,13.8,1.8C107.2,72.3,107.3,72.3,107.4,72.3z M113.3,11.1
		L113.3,11.1z"/>
	<path class="st2" d="M140.9,74.8c0,0,29.2,37.6,30.9,37.8c0,0,30.8-4.3,32.7-7.4c1.9-3,4.1-2.2,4.1-2.2s1.9-3.7,4.3-4.1
		c2.4-0.4,9.8,4.1,5.5,7c-4.3,2.9-42.7,27.1-47.9,27.6c-16.5,1.7-32.3-37.8-30.4-43.1L140.9,74.8z"/>
	<path class="st1" d="M169.5,134.1c-4.9,0-10.2-3.4-15.4-10c-9-11.4-15.8-29.7-14.5-33.7l0.8-15.5c0-0.2,0.2-0.4,0.4-0.5
		s0.4,0,0.5,0.2c11.3,14.5,28.6,36.3,30.6,37.6c11.8-1.7,30.9-5.1,32.2-7.1c1.6-2.6,3.4-2.6,4.3-2.5c0.6-1,2.3-3.6,4.4-4.1
		c1.9-0.4,6.2,1.9,7.2,4.3c0.6,1.3,0,2.9-1.3,3.5c-3.3,2.2-42.6,27.1-48.1,27.7C170.2,134,169.9,134.1,169.5,134.1z M141.3,76.2
		l-0.8,14.2v0.1c-1.1,3.2,5.1,21.2,14.3,32.9c3.7,4.7,9.5,10.1,15.6,9.6c5-0.5,42.1-23.9,47.7-27.5c1-0.7,1.3-1.4,0.9-2.3
		c-0.8-2-4.6-4-6.1-3.7c-1.8,0.3-3.4,2.9-3.9,3.8c-0.1,0.2-0.4,0.3-0.6,0.2c-0.1,0-1.8-0.6-3.5,2c-2,3.1-29.9,7.1-33.1,7.6h-0.1
		C170.1,112.9,150.5,88.1,141.3,76.2L141.3,76.2z M140.1,90.4L140.1,90.4z"/>
	<path class="st4" d="M119.2,64.7c0,0-13.2-5.3-29.3,8.5c-7.3,6.2-8.7,12.9-11.8,19.8c2.4,23.1,10.9,63.2,10.9,63.2h55.2
		c0,0,4.5-33.6,6.1-53.8c1-12.6-4.7-22-7.7-27C137.5,66.8,119.2,64.7,119.2,64.7z"/>
	<path class="st1" d="M110.6,67.7c1,1.9,17.8,46,17.8,46V72.5L110.6,67.7z"/>
	<path class="st1" d="M128.5,114.2c-0.2,0-0.4-0.1-0.5-0.3c-0.2-0.4-16.8-44.1-17.8-46c-0.1-0.2,0-0.6,0.2-0.7
		c0.1-0.1,0.2-0.1,0.4,0l17.8,4.8c0.2,0.1,0.4,0.3,0.4,0.5v41.2C129,114,128.8,114.2,128.5,114.2L128.5,114.2z M111.5,68.5
		c2.4,5.8,13.1,33.7,16.4,42.5V72.9L111.5,68.5z"/>
	<path class="st2" d="M135.1,31l0.8,2.8c0.4,1.2,1.4,1.7,1.9,2.7s0.3,3.3,0.4,4.5c0.2,3.1,0,6.2-0.6,9.2c-0.9,4-4.2,7.1-8.2,7.8
		L129,70.5c0,0-0.1,6.4-8,5.2c-4.6-0.7-8.5-3.8-10.3-8.1l-0.1-16.2c0-1.7-0.7-5,0-6.6s3.7-2.7,5-4.2c1.8-2,2.8-4.6,2.9-7.3
		c2.9,0.1,5.6-1.4,7-3.9c2.4,2.9,6.6,3.3,9.5,1.1L135.1,31z"/>
	<path class="st1" d="M122.8,76.5c-0.7,0-1.4-0.1-2-0.2c-4.8-0.7-8.8-3.9-10.7-8.4c0-0.1,0-0.1,0-0.2L110,51.4
		c0-0.5-0.1-1.2-0.1-1.9c-0.2-1.7-0.4-3.7,0.1-4.9c0.4-1.1,1.7-1.9,2.9-2.6c0.8-0.5,1.6-1,2.2-1.7c1.7-2,2.7-4.4,2.8-7
		c0-0.1,0.1-0.3,0.2-0.4c0.1-0.1,0.2-0.2,0.4-0.1c2.7,0.1,5.2-1.3,6.5-3.7c0.1-0.2,0.2-0.3,0.4-0.3s0.3,0.1,0.4,0.2
		c2.2,2.6,6,3.1,8.8,1c0.1-0.1,0.3-0.2,0.5-0.1c0.2,0.1,0.3,0.2,0.3,0.3l0.2,0.6l0,0l0.8,2.8c0.2,0.5,0.5,1,0.9,1.4s0.8,0.8,1,1.3
		c0.4,1.2,0.5,2.4,0.4,3.6c0,0.4,0,0.8,0,1.1c0.2,3.1,0,6.3-0.7,9.4c-1,4-4.2,7.2-8.2,8.1l-0.4,12.1c-0.1,1.7-0.9,3.3-2.1,4.4
		C126,76,124.4,76.5,122.8,76.5z M111.2,67.6c1.8,4.1,5.5,7,9.9,7.7c2.4,0.4,4.3,0,5.6-1c1-0.9,1.7-2.3,1.8-3.7l0.4-12.6
		c0-0.3,0.2-0.5,0.4-0.5c3.8-0.7,6.9-3.6,7.8-7.4c0.7-3,0.9-6,0.6-9.1c0-0.3,0-0.8,0-1.2c0.1-1.1,0-2.1-0.3-3.2
		c-0.2-0.4-0.5-0.7-0.8-1c-0.5-0.5-0.9-1.1-1.2-1.8l-0.8-2.8c-2.9,1.8-6.7,1.4-9.1-1c-1.5,2.2-4,3.5-6.6,3.5c-0.2,2.6-1.3,5.1-3,7.1
		c-0.7,0.8-1.5,1.5-2.4,2c-1,0.7-2.2,1.4-2.5,2.2c-0.3,1.5-0.3,3-0.1,4.5c0.1,0.7,0.1,1.4,0.1,2L111.2,67.6z"/>
	<path class="st2" d="M114.9,45c0,0-3.6-8.8-8.1-3.5s1.6,11.6,5.5,11.2"/>
	<path class="st1" d="M111.9,53.2c-2.3,0-5.1-1.9-6.4-4.4c-1.4-2.4-1-5.5,0.9-7.6c1.2-1.4,2.5-2,3.9-1.9c3,0.5,5,5.3,5.1,5.5
		s0,0.6-0.2,0.7c-0.2,0.1-0.6,0-0.7-0.2v-0.1c0,0-1.8-4.4-4.3-4.8c-1-0.2-1.9,0.4-2.9,1.5c-1.6,1.8-1.9,4.4-0.8,6.4
		c1.2,2.3,3.8,4.1,5.8,3.9c0.3,0,0.5,0.2,0.6,0.5c0,0.3-0.2,0.5-0.5,0.6C112.2,53.2,112,53.2,111.9,53.2z"/>
	<path class="st1" d="M131.2,50.5c-0.9,0-1.8-0.2-2.6-0.4c-0.3-0.1-0.4-0.4-0.4-0.7c0.1-0.3,0.4-0.4,0.7-0.4l0,0
		c0.7,0.2,2.6,0.6,3.6,0.1c0.2-0.5-1.3-3.5-3.4-6.4c-0.2-0.2-0.1-0.5,0.1-0.7c0.2-0.2,0.5-0.1,0.7,0.1l0,0c0.9,1.3,3.9,5.7,3.5,7.3
		c-0.1,0.3-0.3,0.5-0.5,0.6C132.4,50.4,131.8,50.5,131.2,50.5z"/>
	<path class="st1" d="M128.1,54.3c-0.7,0-1.5-0.1-2.2-0.3c-2.1-0.6-4-2-5.2-3.8c-0.1-0.3,0-0.6,0.3-0.7l0,0c0.3-0.1,0.5,0,0.7,0.3
		c1.1,1.6,2.8,2.8,4.7,3.2c2.4,0.6,5-0.1,7.6-2c0.2-0.2,0.5-0.1,0.7,0.1c0.1,0.2,0.1,0.5-0.1,0.7C132.8,53.3,130.5,54.2,128.1,54.3z
		"/>
	<path class="st1" d="M129.3,58.1c0,0-6.7,0.6-10.5-0.5c0,0,3.9,10,10.2,10.2L129.3,58.1z"/>
	<path class="st1" d="M129,68.3L129,68.3c-6.6-0.2-10.5-10-10.7-10.5c-0.1-0.2,0-0.4,0.1-0.5s0.3-0.2,0.5-0.2
		c3.7,1.1,10.3,0.5,10.3,0.5c0.1,0,0.3,0,0.4,0.1c0.1,0.1,0.2,0.2,0.2,0.4l-0.3,9.7C129.5,68.1,129.3,68.3,129,68.3L129,68.3z
		 M119.6,58.4c1.1,2.3,4.3,8.4,8.9,8.9l0.3-8.6C125.7,58.9,122.7,58.8,119.6,58.4z"/>
	
		<ellipse transform="matrix(0.9998 -1.999600e-02 1.999600e-02 0.9998 -0.8048 2.5098)" class="st1" cx="125.1" cy="41.5" rx="1" ry="1.7"/>
	
		<ellipse transform="matrix(0.9998 -1.999600e-02 1.999600e-02 0.9998 -0.801 2.6898)" class="st1" cx="134.1" cy="41.4" rx="1" ry="1.7"/>
	<path class="st1" d="M122.8,45c-3,0-3.1-0.2-3.2-0.4c-0.1-0.2-0.4-0.5-0.5-5.9c0-0.3,0.2-0.5,0.5-0.5c9.9-0.5,10.2-0.4,10.3-0.4
		c0.2,0.1,0.4,0.3,0.4,0.5l-0.4,6c0,0.3-0.2,0.5-0.5,0.5C126.3,44.9,124.2,45,122.8,45z M120.3,43.9c1,0.1,4.8,0.1,8.5-0.1l0.3-5.1
		c-1.5,0-5.9,0.2-9.1,0.4C120.1,40.7,120.2,42.3,120.3,43.9z"/>
	<path class="st1" d="M141.4,44.8H132c-0.3,0-0.5-0.2-0.5-0.5l0,0l-0.1-6c0-0.3,0.2-0.5,0.5-0.5c9.6-0.1,9.9,0,10,0
		c0.2,0.1,0.4,0.3,0.4,0.5l-0.4,6C141.9,44.6,141.7,44.8,141.4,44.8L141.4,44.8z M132.6,43.8h8.4l0.3-5.1c-1.4,0-5.7,0-8.8,0
		L132.6,43.8z"/>
	<path class="st1" d="M132,41.3h-2.3c-0.3,0-0.5-0.2-0.5-0.5s0.2-0.5,0.5-0.5h2.3c0.3,0,0.5,0.2,0.5,0.5S132.3,41.3,132,41.3z"/>
	<path class="st2" d="M101.5,102.4c0,0-2.8,27.6-1.4,34.2l46.3,6.5c0,0,11.9-0.5,17.6,1.6c3.5,1.2,9.9,6.7,8.7,8.4s-4.3,3.9-7.1,3
		c-2.8-0.8-10.8-3.3-10.8-3.3s6.2,5.6,2.5,5.2c-3.7-0.4-7.8-3-7.8-3s-25.7,4.9-42.2,4.1c-20.3-1-28.9-5.8-31.2-17.8
		c-2.3-12,0.1-43.3,2.1-48.3"/>
	<path class="st1" d="M111.3,159.8c-1.4,0-2.8,0-4.1-0.1c-20.8-1.1-29.4-6-31.7-18.3c-2.3-12.3,0.2-43.7,2.2-48.6
		c0.1-0.3,0.4-0.4,0.6-0.3l0,0c0.3,0.1,0.4,0.4,0.3,0.6l0,0c-1.9,4.8-4.4,36-2.1,48c2.2,11.7,10.6,16.4,30.8,17.4
		c16.2,0.8,41.8-4,42.1-4.1c0.1,0,0.3,0,0.4,0.1c0,0,4.1,2.5,7.6,2.9c0.2,0.1,0.4,0.1,0.6,0c0.1-0.5-1.5-2.5-3.5-4.3
		c-0.2-0.2-0.2-0.4-0.1-0.6c0.1-0.2,0.4-0.3,0.6-0.2c0.1,0,7.9,2.5,10.7,3.3c2.5,0.7,5.5-1.2,6.6-2.9c0.1-0.2,0.1-0.4,0-0.6
		c-0.7-2-5.5-6.1-8.4-7.1c-5.6-2-17.3-1.5-17.4-1.5l-46.4-6.5c-0.2,0-0.4-0.2-0.4-0.4c-1.4-6.6,1.3-33.2,1.4-34.4
		c0-0.3,0.3-0.5,0.6-0.5s0.5,0.3,0.5,0.6c0,0.3-2.7,26.7-1.5,33.7l45.9,6.5c0.4,0,11.9-0.5,17.7,1.6c3,1.1,8.2,5.3,9.1,7.7
		c0.2,0.5,0.2,1-0.1,1.4c-1.3,1.9-4.7,4.1-7.7,3.3c-1.9-0.5-6.2-1.9-8.7-2.7c1.3,1.3,2.6,3,2.2,4c-0.2,0.5-0.8,0.7-1.7,0.6
		c-2.8-0.5-5.5-1.5-7.9-2.9C147.2,156.1,126.7,159.8,111.3,159.8z"/>
	<path class="st1" d="M101.5,102.9L101.5,102.9c-0.3-0.1-0.5-0.3-0.5-0.6l3.6-20.1c0.1-0.3,0.3-0.5,0.6-0.4s0.5,0.3,0.4,0.6l0,0
		l-3.6,20.1C102.1,102.8,101.8,102.9,101.5,102.9z"/>
	<path class="st4" d="M175.1,174.5v-73.2c0,0,63.2-2.4,89.3-28.6v75.6C264.4,148.4,238.3,169.7,175.1,174.5z"/>
	<path class="st1" d="M175.1,175c-0.1,0-0.2,0-0.3-0.1s-0.2-0.2-0.2-0.4v-73.2c0-0.3,0.2-0.5,0.5-0.5c0.6,0,63.3-2.7,89-28.4
		c0.1-0.1,0.4-0.2,0.6-0.1s0.3,0.3,0.3,0.5v75.6c0,0.2-0.1,0.3-0.2,0.4C264.4,149,237.7,170.3,175.1,175L175.1,175z M175.6,101.9
		V174c59.2-4.6,85.8-24,88.3-25.9V74C238.7,98,181.5,101.6,175.6,101.9L175.6,101.9z"/>
	<path class="st2" d="M44.4,201.6v-50.2c0,0,28.1,18.5,70,14.4v48.9C114.5,214.8,87,223.1,44.4,201.6z"/>
	<path class="st1" d="M99.8,216.8c-12.3,0-31.6-2.6-55.6-14.8c-0.2-0.1-0.3-0.3-0.3-0.5v-50.2c0-0.2,0.1-0.4,0.3-0.4
		c0.2-0.1,0.4-0.1,0.5,0c0.3,0.2,28.4,18.4,69.7,14.3c0.1,0,0.3,0,0.4,0.1c0.1,0.1,0.2,0.2,0.2,0.4v48.9c0,0.2-0.1,0.4-0.4,0.5
		C114.5,215.3,109.2,216.8,99.8,216.8z M45,201.3c39.1,19.7,65.6,13.9,69,13.1v-48c-37.5,3.5-64.2-11.2-69-14.1V201.3z"/>
	<path class="st1" d="M189.8,161c-0.1,0-0.3,0-0.3-0.1c-0.1-0.1-0.2-0.2-0.2-0.4v-52.1c0-0.3,0.2-0.5,0.5-0.5
		c3.3-0.3,15.9-1.8,16-1.8s0.3,0,0.4,0.1c0.1,0.1,0.2,0.2,0.2,0.4v51.1c0,0.2-0.1,0.4-0.3,0.5C201.3,160.2,190.3,161,189.8,161
		L189.8,161z M190.3,108.9V160c2.3-0.2,10.9-1,15-2.6v-50.2C202.9,107.4,193.6,108.5,190.3,108.9L190.3,108.9z"/>
	<path class="st1" d="M215.7,155.7c-0.1,0-0.2,0-0.3-0.1c-0.1-0.1-0.2-0.2-0.2-0.4v-40.4c0-0.2,0.2-0.5,0.4-0.5
		c5.4-1,10.8-2.5,15.9-4.5c0.1-0.1,0.3-0.1,0.5,0c0.1,0.1,0.2,0.3,0.2,0.4v39.6c0,0.2-0.1,0.4-0.3,0.4
		C226.8,152.8,221.4,154.6,215.7,155.7L215.7,155.7z M216.2,115.2v39.4c5.2-1.1,10.2-2.8,15-5.2v-38.5
		C226.3,112.8,221.3,114.2,216.2,115.2L216.2,115.2z"/>
	<path class="st1" d="M240.8,146.6c-0.1,0-0.2,0-0.3-0.1c-0.1-0.1-0.2-0.2-0.2-0.4v-28.7c0-0.2,0.2-0.4,0.4-0.5
		c5-1.3,9.8-3.4,14.2-6.2c0.2-0.1,0.4-0.1,0.5,0c0.2,0.1,0.3,0.3,0.3,0.5v29c0,0.2-0.1,0.3-0.2,0.4c-4.5,2.7-9.4,4.7-14.5,6H240.8z
		 M241.3,117.8v27.7c4.7-1.2,9.2-3.1,13.4-5.6v-27.8C250.5,114.6,246,116.5,241.3,117.8z"/>
	<path class="st2" d="M235.8,98.8c-0.3,0-0.5-0.2-0.6-0.4c0-0.3,0.2-0.5,0.4-0.6c0.1,0,11.6-3,20.3-9.6c0.2-0.2,0.5-0.1,0.7,0.1
		s0.1,0.5-0.1,0.7C247.6,95.7,235.9,98.7,235.8,98.8L235.8,98.8z"/>
	<path class="st2" d="M244.5,101.4c-0.3,0.1-0.6-0.1-0.6-0.4c-0.1-0.3,0.1-0.6,0.4-0.6l1.8-0.8c3.5-1.4,6.9-3.2,9.9-5.6
		c0.2-0.2,0.5-0.1,0.7,0.1c0.1,0.2,0.1,0.5-0.1,0.6c-3.1,2.4-6.5,4.3-10.1,5.8l-1.8,0.8C244.7,101.4,244.6,101.4,244.5,101.4z"/>
	<path class="st3" d="M29.8,135.9c-0.1,0-0.2,0-0.3-0.1c-5.1-3.6-9.6-7.9-13.3-12.9c-0.2-0.2-0.1-0.5,0.1-0.7
		c0.2-0.2,0.5-0.1,0.7,0.1c3.6,4.9,8,9.1,13,12.6c0.2,0.2,0.3,0.5,0.1,0.7C30.1,135.9,30,135.9,29.8,135.9z"/>
	<path class="st3" d="M29.8,145.3c-0.1,0-0.2,0-0.3-0.1c-5.1-3.6-9.6-7.9-13.3-12.9c-0.2-0.2-0.1-0.5,0.1-0.7
		c0.2-0.2,0.5-0.1,0.7,0.1c3.6,4.9,8,9.2,13,12.6c0.2,0.2,0.3,0.5,0.1,0.7C30.1,145.2,30,145.3,29.8,145.3z"/>
	<path class="st3" d="M29.8,154.6c-0.1,0-0.2,0-0.3-0.1c-5.1-3.6-9.6-7.9-13.3-12.9c-0.2-0.2-0.1-0.5,0.1-0.7
		c0.2-0.2,0.5-0.1,0.7,0.1c3.6,4.9,8,9.1,13,12.6c0.2,0.2,0.3,0.5,0.1,0.7C30.1,154.5,30,154.6,29.8,154.6z"/>
	<path class="st1" d="M217.3,90.3c-0.1,0-0.3-0.1-0.4-0.2c-10.7-12.3-31.4-24.8-31.6-24.9c-0.2-0.1-0.2-0.3-0.2-0.4V31.7
		c0-0.3,0.2-0.5,0.5-0.5s0.5,0.2,0.5,0.5v32.8c2.4,1.5,21.4,13.3,31.6,25c0.2,0.2,0.2,0.5,0,0.7C217.6,90.3,217.4,90.3,217.3,90.3z"
		/>
	<path class="st1" d="M206.1,68.6c-0.4,0-0.7-0.1-1-0.2c-1.8-0.9-2.3-4.2-2.9-7.7c-0.4-2.5-0.8-5.1-1.7-6.7
		c-0.2-0.4-0.5-0.6-0.9-0.6c-2.8-0.1-8.7,7.6-10.8,10.6c-0.2,0.2-0.5,0.2-0.7,0s-0.2-0.4-0.1-0.6c0.8-1.1,7.7-11,11.6-11h0.1
		c0.7,0,1.4,0.5,1.7,1.1c1,1.7,1.4,4.4,1.8,7c0.5,3,1,6.3,2.3,6.9c0.6,0.2,1.3,0.1,1.8-0.2c2.2-1.2,4.1-2.8,5.7-4.7
		c1.8-2.1,4-4,6.5-5.3c0.2-0.1,0.6-0.1,0.7,0.2c0.1,0.2,0,0.6-0.2,0.7c-2.3,1.3-4.4,3.1-6.2,5.1c-1.7,2-3.7,3.7-6,4.9
		C207.3,68.4,206.7,68.6,206.1,68.6z"/>
	<path class="st1" d="M76,79.2c-0.3,0-0.5-0.2-0.5-0.5V50c0-0.2,0.1-0.4,0.4-0.5c1.9-0.6,3.9-1,5.9-1.3c0.1,0,0.3,0,0.4,0.1
		s0.2,0.2,0.2,0.4v28.1c0,0.3-0.2,0.5-0.5,0.5s-0.5-0.2-0.5-0.5V49.3c-1.6,0.3-3.2,0.6-4.8,1.1v28.3C76.5,78.9,76.3,79.2,76,79.2z"
		/>
	<path class="st3" d="M100,207.3L100,207.3c-0.2,0-0.4-0.1-0.5-0.3l-11.2-31.1l-12.3,24c-0.1,0.2-0.2,0.3-0.4,0.3
		c-0.2,0-0.3-0.1-0.4-0.2L63,184.1l-7.7,12.2c-0.1,0.2-0.5,0.3-0.7,0.2l-6.5-3.9c-0.2-0.1-0.3-0.4-0.2-0.7l0,0
		c0.1-0.2,0.5-0.3,0.7-0.2l0,0l6.1,3.7l7.8-12.4c0.1-0.1,0.2-0.2,0.4-0.2c0.2,0,0.3,0.1,0.4,0.2l12.2,15.9L88,174.6
		c0.1-0.2,0.4-0.3,0.7-0.2c0.1,0.1,0.2,0.2,0.2,0.3l11.2,31.1l5.4-11.4c0.1-0.3,0.4-0.4,0.7-0.3c0.3,0.1,0.4,0.4,0.3,0.7
		c0,0,0,0,0,0.1l-5.9,12.5C100.4,207.2,100.2,207.3,100,207.3z"/>
	<circle class="st2" cx="55" cy="195.9" r="1.6"/>
	<path class="st3" d="M55,197.9c-1.1,0-2-0.9-2-2s0.9-2,2-2s2,0.9,2,2S56.1,197.9,55,197.9z M55,194.8c-0.6,0-1,0.5-1,1s0.5,1,1,1
		s1-0.5,1-1S55.5,194.8,55,194.8z"/>
	<circle class="st2" cx="63" cy="183" r="1.6"/>
	<path class="st3" d="M63,185.1c-1.1,0-2-0.9-2-2s0.9-2,2-2s2,0.9,2,2C65,184.2,64.1,185.1,63,185.1z M63,182c-0.6,0-1,0.5-1,1
		s0.5,1,1,1c0.6,0,1-0.5,1-1S63.6,182,63,182z"/>
	<circle class="st2" cx="88.5" cy="174.5" r="1.6"/>
	<path class="st3" d="M88.5,176.6c-1.1,0-2-0.9-2-2s0.9-2,2-2s2,0.9,2,2S89.6,176.6,88.5,176.6z M88.5,173.5c-0.6,0-1,0.5-1,1
		s0.5,1,1,1c0.6,0,1-0.5,1-1S89,173.5,88.5,173.5z"/>
	<circle class="st2" cx="100" cy="206.8" r="1.6"/>
	<path class="st3" d="M100,208.8c-1.1,0-2-0.9-2-2s0.9-2,2-2s2,0.9,2,2C102.1,207.9,101.2,208.8,100,208.8z M100,205.7
		c-0.6,0-1,0.5-1,1s0.5,1,1,1s1-0.5,1-1S100.6,205.7,100,205.7z"/>
	<circle class="st2" cx="75.6" cy="199.5" r="1.6"/>
	<path class="st3" d="M75.6,201.6c-1.1,0-2-0.9-2-2s0.9-2,2-2s2,0.9,2,2S76.7,201.6,75.6,201.6z M75.6,198.5c-0.6,0-1,0.5-1,1
		s0.5,1,1,1c0.6,0,1-0.5,1-1S76.2,198.5,75.6,198.5z"/>
	<path class="st2" d="M182.4,183.4c-20.7,10.3-43.4,10.4-43.4,10.4V227c15,0.5,29.9-2.8,43.4-9.4V183.4z"/>
	<path class="st1" d="M141.7,227.6c-0.9,0-1.8,0-2.7,0c-0.3,0-0.5-0.2-0.5-0.5v-33.3c0-0.3,0.2-0.5,0.5-0.5
		c0.2,0,22.7-0.3,43.1-10.4c0.2-0.1,0.3-0.1,0.5,0c0.1,0.1,0.2,0.3,0.2,0.4v34.2c0,0.2-0.1,0.4-0.3,0.5
		C169.9,224.3,155.9,227.6,141.7,227.6z M139.6,226.6c14.6,0.4,29.2-2.8,42.3-9.2v-33.1c-18.7,9-38.9,10-42.3,10.2V226.6z"/>
	<path class="st4" d="M149.2,207.8c-0.2,6.8,5.1,12.4,11.9,12.6c6.8,0.2,12.4-5.1,12.6-11.9c0-0.2,0-0.5,0-0.7h-12.3v-12.2
		C154.7,195.6,149.2,201.1,149.2,207.8z"/>
	<path class="st0" d="M163.4,193.8V206h12.2C175.6,199.3,170.2,193.8,163.4,193.8z"/>
	<path class="st3" d="M203,184.4c-0.2,0-0.5-0.2-0.5-0.4c0-0.3,0.1-0.5,0.4-0.6c0.2,0,24.1-4.5,37.7-12c0.2-0.2,0.5-0.1,0.7,0.1
		c0.2,0.2,0.1,0.5-0.1,0.7c0,0-0.1,0-0.1,0.1C227.3,179.9,203.3,184.4,203,184.4L203,184.4z"/>
	<path class="st3" d="M203,193.4c-0.3,0-0.5-0.2-0.6-0.5c0-0.3,0.2-0.5,0.5-0.6c0.2-0.1,24.1-4.5,37.7-12.1c0.2-0.2,0.5-0.1,0.7,0.1
		c0.2,0.2,0.1,0.5-0.1,0.7c0,0-0.1,0-0.1,0.1C227.3,188.9,203.3,193.3,203,193.4L203,193.4z"/>
	<path class="st3" d="M203,202.4c-0.3,0-0.5-0.2-0.6-0.5c0-0.3,0.2-0.5,0.5-0.6c0.2,0,24.1-4.5,37.7-12.1c0.2-0.1,0.5,0,0.7,0.2
		c0.1,0.2,0,0.6-0.2,0.7l0,0C227.3,197.9,203.3,202.3,203,202.4L203,202.4z"/>
	<path class="st3" d="M203,211.4c-0.3,0-0.5-0.2-0.6-0.5c0-0.3,0.2-0.5,0.5-0.6l0,0c6.9-1.3,13.8-3.1,20.5-5.1
		c0.3-0.1,0.6,0.1,0.6,0.3c0.1,0.3-0.1,0.5-0.3,0.6C217,208.3,210.1,210,203,211.4L203,211.4z"/>
	<path class="st3" d="M48.4,107.1c-0.2,0-0.3-0.1-0.4-0.2c-0.1-0.2-0.1-0.6,0.2-0.7c6.9-4.1,20.9-7,21.5-7.2
		c0.3-0.1,0.5,0.1,0.6,0.4l0,0c0.1,0.3-0.1,0.5-0.4,0.6l0,0c-0.2,0-14.5,3-21.3,7C48.6,107.1,48.5,107.1,48.4,107.1z"/>
	<path class="st3" d="M48.4,112.2c-0.3,0-0.5-0.2-0.5-0.5c0-0.2,0.1-0.3,0.2-0.4c6.9-4.1,20.9-7,21.5-7.1c0.3-0.1,0.6,0.1,0.6,0.4
		c0.1,0.3-0.1,0.6-0.4,0.6C69.6,105.2,55.3,108.2,48.4,112.2C48.6,112.2,48.5,112.2,48.4,112.2z"/>
	<path class="st3" d="M48.4,117.3c-0.2,0-0.3-0.1-0.4-0.3s-0.1-0.6,0.2-0.7c6.9-4.1,20.9-7,21.5-7.1c0.3-0.1,0.5,0.1,0.6,0.4
		s-0.1,0.5-0.4,0.6l0,0c-0.2,0-14.5,3-21.3,7C48.6,117.3,48.5,117.3,48.4,117.3z"/>
	<path class="st3" d="M48.4,122.4c-0.3,0-0.5-0.2-0.5-0.5c0-0.2,0.1-0.3,0.2-0.4c4-2.1,8.3-3.8,12.7-4.9c0.3-0.1,0.6,0.1,0.6,0.4
		c0.1,0.3-0.1,0.6-0.4,0.6C56.7,118.7,52.5,120.3,48.4,122.4C48.6,122.3,48.5,122.4,48.4,122.4z"/>
</g>
</svg>
