<?xml version="1.0" encoding="utf-8"?>
<!-- Generator: Adobe Illustrator 25.4.1, SVG Export Plug-In . SVG Version: 6.00 Build 0)  -->
<svg version="1.1" id="Calque_1" xmlns="http://www.w3.org/2000/svg" xmlns:xlink="http://www.w3.org/1999/xlink" x="0px" y="0px"
	 viewBox="0 0 342 220" style="enable-background:new 0 0 342 220;" xml:space="preserve">
<style type="text/css">
	.st0{fill:#D1D3D4;}
	.st1{fill:#FFFFFF;}
	.st2{fill:#231F20;}
	.st3{fill:#EBCA94;}
</style>
<g id="_496_consulting_flatline">
	<path class="st0" d="M328,174.2H14c-0.3,0-0.5-0.2-0.5-0.5c0-0.3,0.2-0.5,0.5-0.5H328c0.3,0,0.5,0.2,0.5,0.5
		C328.5,174,328.3,174.2,328,174.2z"/>
	<path class="st1" d="M39,64.9c-15.2,11-17.2,34-17.6,51.3C21,132.5,24.6,148,28,163.8c3.3,15.5,15.9,24,30.9,27.4
		c22.3,5.2,46.7,5.8,69.4,3.3s23.3-24.8,21-43.1c-0.6-5.1-4.2-8.2-8-11c-4.8-3.2-8.9-7.2-12.3-11.8c-10.7-15.6-11.4-34.1-18.5-51
		c-5.7-13.4-18.3-22.7-32.9-22.3S49.1,57.6,39,64.9z"/>
	<path class="st2" d="M102.5,196.5c-14.7,0.1-29.4-1.5-43.7-4.7c-22-5.1-29.2-18-31.3-27.8l-0.7-3.3c-3.2-15-6.3-29.2-5.9-44.4
		c0.8-35,9.9-46,17.8-51.7l0.3,0.4l-0.3-0.4c10.7-7.8,25.6-9.2,38.8-9.7c14.3-0.4,27.4,8.4,33.4,22.6c2.6,6.6,4.8,13.4,6.4,20.3
		c2.7,10.4,5.6,21.2,12.1,30.6c2.9,4.2,6.5,7.7,12.2,11.7c3.9,2.8,7.6,6.1,8.2,11.3c2.1,16.7,0.4,28.3-5.2,35.4
		c-3.7,4.7-9.1,7.5-16.2,8.2C119.8,196,111.2,196.4,102.5,196.5z M39.3,65.3c-14.6,10.6-16.9,32.8-17.4,50.9
		c-0.4,15.1,2.7,29.2,5.9,44.1l0.7,3.3c2,9.6,9,22.1,30.5,27c20.8,4.8,44.8,6,69.2,3.3c6.8-0.7,12-3.4,15.5-7.8
		c5.4-6.9,7.1-18.3,5.1-34.7c-0.6-4.8-4.1-8-7.8-10.6c-5.7-4.1-9.4-7.7-12.4-11.9c-6.6-9.6-9.4-20.5-12.2-30.9
		c-1.6-6.9-3.8-13.6-6.4-20.2c-5.8-13.8-18.6-22.4-32.4-22C64.6,56.3,49.8,57.7,39.3,65.3L39.3,65.3z"/>
	<path class="st0" d="M78.8,150.7c-2.7,0-5.4-0.2-8.1-0.5c-5.2-0.6-10.3-1.7-15.2-3.3c-6.7-2.2-11.3-4.7-14.7-8.1
		c-5.2-5.2-7.1-12.2-7.9-17.1c-1.7-11.4,0-24,1.2-30.5c1.6-9,7.2-16.8,15.2-21.4c5.5-3.2,12-5.2,19.9-6.3c8.3-1.1,14.3-0.2,18.8,2.8
		c7.4,4.9,9.5,14.3,11,23.5l2.6,15.6c0.6,3.9,1.5,9.2,4.6,11.7c1.1,0.8,2.2,1.5,3.5,2.1c2.1,1.1,4.3,2.2,5.6,4.6
		c1.5,3,2.2,8.1,0.6,11.5c-1.7,3.7-5.3,6.1-7.8,7.6C99.2,148.2,89,150.8,78.8,150.7z M75.6,64.2c-2.1,0-4.1,0.2-6.2,0.4
		c-7.8,1-14.2,3-19.5,6.1c-7.7,4.4-13.1,12-14.7,20.7c-1.2,6.5-3,19-1.2,30.2c0.7,4.8,2.6,11.5,7.6,16.5c3.3,3.3,7.7,5.7,14.2,7.8
		c4.9,1.6,9.9,2.7,15,3.2l0,0c13.8,1.6,26.5-0.9,36.8-7c2.4-1.4,5.8-3.7,7.4-7.1c1.4-3,0.8-7.8-0.6-10.6c-1.1-2.2-3-3.1-5.1-4.2
		c-1.3-0.6-2.5-1.3-3.6-2.2c-3.4-2.8-4.3-8.3-4.9-12.3l-2.6-15.6c-1.5-9-3.5-18.2-10.6-22.8C84.4,65.2,80.5,64.2,75.6,64.2z"/>
	<path class="st0" d="M41.4,134.8c-0.2,0-0.4-0.1-0.5-0.3c-0.1-0.3,0-0.6,0.3-0.7c0,0,0,0,0,0c6.5-2.7,10.9-2,11-2
		c0.3,0,0.5,0.3,0.4,0.6c0,0.3-0.3,0.5-0.6,0.4c0,0-4.3-0.6-10.5,2C41.5,134.8,41.5,134.8,41.4,134.8z"/>
	<path class="st1" d="M303,64.9c15.2,11,17.2,34,17.6,51.3c0.4,16.2-3.2,31.7-6.6,47.6c-3.3,15.5-15.9,24-30.9,27.4
		c-22.3,5.2-46.7,5.8-69.4,3.3s-23.3-24.8-21-43.1c0.6-5.1,4.2-8.2,8-11c4.8-3.2,8.9-7.2,12.3-11.8c10.7-15.6,11.4-34.1,18.5-51
		c5.7-13.4,18.3-22.7,32.9-22.3S292.9,57.6,303,64.9z"/>
	<path class="st2" d="M239.5,196.5c-8.6,0-17.2-0.5-25.8-1.4c-7-0.8-12.5-3.6-16.2-8.2c-5.6-7.1-7.3-18.7-5.2-35.4
		c0.6-5.2,4.3-8.5,8.2-11.3c5.6-4.1,9.3-7.5,12.2-11.7c6.5-9.5,9.3-20.2,12.1-30.6c1.6-6.9,3.8-13.7,6.4-20.3
		c6-14.2,19.1-23,33.4-22.6c13.2,0.4,28.2,1.9,38.8,9.7c14.9,10.9,17.3,33.3,17.8,51.8c0.4,15.2-2.7,29.4-5.9,44.4l-0.7,3.3
		c-2.1,9.9-9.2,22.7-31.3,27.8C268.8,195,254.2,196.6,239.5,196.5z M263.4,55.8c-13.4,0-25.7,8.5-31.4,22
		c-2.6,6.6-4.7,13.3-6.4,20.2c-2.8,10.5-5.6,21.3-12.2,30.9c-2.9,4.3-6.6,7.9-12.4,11.9c-3.7,2.6-7.2,5.8-7.8,10.6
		c-2,16.5-0.4,27.8,5.1,34.7c3.5,4.5,8.7,7.1,15.5,7.8c24.4,2.7,48.3,1.6,69.2-3.3c21.5-5,28.4-17.5,30.5-27l0.7-3.3
		c3.2-15,6.3-29.1,5.9-44.1c-0.8-34.5-9.7-45.4-17.4-50.9l0,0c-10.4-7.6-25.2-9-38.3-9.5L263.4,55.8z"/>
	<path class="st0" d="M263.2,150.7c-10.3,0.2-20.4-2.5-29.4-7.6c-2.5-1.5-6.1-3.9-7.8-7.6c-1.6-3.3-0.9-8.4,0.6-11.5
		c1.2-2.4,3.5-3.6,5.6-4.6c1.2-0.6,2.4-1.3,3.5-2.1c3-2.5,3.9-7.8,4.6-11.7l2.6-15.6c1.5-9.2,3.6-18.6,11-23.5
		c4.5-3,10.5-3.9,18.8-2.8c7.9,1,14.4,3,19.9,6.3c8,4.5,13.5,12.4,15.2,21.4c1.2,6.5,3,19.1,1.2,30.5c-0.7,4.9-2.7,11.9-7.9,17.1
		c-3.4,3.4-7.9,5.9-14.7,8.1c-5,1.6-10.1,2.7-15.2,3.3l0,0C268.6,150.5,265.9,150.7,263.2,150.7z M266.4,64.2c-5,0-8.9,1-12,3
		c-7.1,4.7-9.1,13.8-10.6,22.8l-2.6,15.6c-0.7,4.1-1.6,9.6-4.9,12.3c-1.1,0.9-2.4,1.6-3.6,2.2c-2,1-4.1,2-5.1,4.2
		c-1.4,2.8-2,7.5-0.6,10.6c1.6,3.4,5,5.7,7.4,7.1c10.3,6.1,23.1,8.6,36.8,7l0,0c5.1-0.6,10.1-1.7,15-3.2c6.6-2.1,11-4.5,14.2-7.8
		c5-5,6.9-11.7,7.6-16.5c1.7-11.3,0-23.7-1.2-30.2c-1.6-8.7-7-16.3-14.7-20.7c-5.3-3.1-11.7-5.1-19.5-6.1
		C270.5,64.3,268.5,64.2,266.4,64.2z"/>
	<path class="st0" d="M300.6,134.8c-0.1,0-0.1,0-0.2,0c-6.2-2.6-10.5-2-10.5-2c-0.3,0-0.5-0.2-0.6-0.4c0-0.3,0.2-0.5,0.4-0.6
		c0.2,0,4.5-0.7,11,2c0.3,0.1,0.4,0.4,0.3,0.7c0,0,0,0,0,0C301,134.7,300.8,134.8,300.6,134.8z"/>
	<path class="st1" d="M226.6,75.6l-31.5-17.3c0,0-1.8-5.2-3.8-6.8c-1.9-1.6-0.7,4.1-0.7,4.1s-10.8-6.9-11.9-5
		c-1.1,1.9-2.9,9.4,0.7,12.4c3.2,2.6,9.3,3.2,9.3,3.2c16.8,13.6,40.5,28.5,40.5,28.5"/>
	<path class="st2" d="M229.3,95.2c-0.1,0-0.2,0-0.3-0.1c-0.2-0.2-23.8-15.1-40.5-28.4c-1-0.1-6.3-0.9-9.4-3.3
		c-3.8-3-2.1-10.9-0.9-13c0.2-0.3,0.4-0.5,0.7-0.5c2-0.5,8.3,3.2,10.9,4.8c-0.2-1.5-0.3-3.2,0.4-3.7c0.3-0.2,0.7-0.3,1.4,0.3
		c1.9,1.5,3.5,5.8,3.8,6.8l31.3,17.3c0.2,0.1,0.3,0.4,0.2,0.7c-0.1,0.2-0.4,0.3-0.7,0.2l-31.5-17.3c-0.1-0.1-0.2-0.2-0.2-0.3
		c0,0-1.8-5.1-3.6-6.5l-0.2-0.1c-0.1,1.2,0,2.5,0.3,3.7c0,0.2,0,0.4-0.2,0.5c-0.2,0.1-0.4,0.1-0.6,0c-3.5-2.2-9.5-5.6-11.1-5.2
		c-0.1,0-0.1,0-0.1,0c-1.1,1.9-2.7,9.1,0.6,11.7c3,2.5,8.9,3.1,9,3.1c0.1,0,0.2,0.1,0.3,0.1c16.6,13.4,40.3,28.3,40.5,28.5
		c0.2,0.2,0.3,0.5,0.2,0.7C229.6,95.2,229.5,95.2,229.3,95.2z"/>
	<path class="st1" d="M218.8,173.3c0,0,2.3,26.1,1.3,27.8c-0.9,1.7-23.3,5.1-23.7,2.7s10.9-7.1,10.9-7.1l-2.5-21.3"/>
	<path class="st2" d="M199.8,205.1c-0.7,0-1.5,0-2.2-0.1c-0.7-0.1-1.6-0.3-1.7-1.1c-0.4-2.5,7.8-6.2,10.9-7.5l-2.5-20.9
		c0-0.3,0.2-0.5,0.4-0.6c0.3,0,0.5,0.2,0.6,0.4l2.5,21.3c0,0.2-0.1,0.4-0.3,0.5c-5.3,2.2-10.9,5.3-10.6,6.5c0,0,0.3,0.3,2.5,0.4
		c6.5,0.2,19.5-2.3,20.3-3.3c0.6-1.3-0.5-17.5-1.4-27.4c0-0.3,0.2-0.5,0.5-0.6c0.3,0,0.5,0.2,0.6,0.5c0.4,4.4,2.3,26.3,1.3,28
		S206.1,205.1,199.8,205.1z"/>
	<path class="st1" d="M251.9,180.2c0,0,3.1,23,1.5,23.7s-23.7,1.7-23.3-0.2s11.2-5.6,11.2-5.6l-3.9-22.5"/>
	<path class="st2" d="M238.8,205.3c-4.3,0-8-0.3-8.9-1c-0.2-0.2-0.4-0.5-0.3-0.8c0.3-2,8.1-4.9,11.2-5.9l-3.9-22
		c0-0.3,0.1-0.5,0.4-0.6c0.3-0.1,0.5,0.1,0.6,0.4c0,0,0,0,0,0l3.9,22.5c0,0.3-0.1,0.5-0.3,0.6c-4.9,1.7-10.3,4.1-10.9,5.1
		c0.6,0.3,3.5,0.8,11.2,0.6c3.8,0,7.6-0.3,11.4-0.8c0.7-1.3-0.3-12.7-1.8-23.2c0-0.3,0.2-0.5,0.4-0.6c0.3,0,0.5,0.1,0.6,0.4
		c0,0,0,0,0,0c1.5,10.7,2.9,23.6,1.2,24.2C252.6,204.8,245.1,205.3,238.8,205.3z"/>
	<path class="st2" d="M227.6,134c-0.5,1.8-5.2,50.2-5.2,50.2h-19c0,0-8.7-48.6-5.9-60.6c2-8.3,10.9-12.3,20.1-9.6
		c13.6-0.5,27.6-2.3,27.6-2.3L227.6,134z"/>
	<path class="st2" d="M222.3,184.8h-19c-0.2,0-0.5-0.2-0.5-0.4c-0.4-2-8.7-48.8-5.9-60.8c0.9-3.7,3.2-6.8,6.5-8.7
		c4.3-2.3,9.4-2.8,14.1-1.4c13.4-0.5,27.3-2.2,27.4-2.3c0.2,0,0.4,0.1,0.5,0.3c0.1,0.2,0.1,0.4-0.1,0.6L228,134.2
		c-0.5,2.4-3.9,36.8-5.2,50.1C222.8,184.6,222.6,184.8,222.3,184.8z M203.8,183.7h18.1c0.5-5.2,4.7-48.1,5.2-49.9
		c0-0.1,0.1-0.1,0.1-0.2l16.8-21.3c-3.7,0.4-15.2,1.7-26.4,2.1h-0.2c-4.5-1.4-9.3-1-13.4,1.2c-3,1.7-5.2,4.6-6,8
		C195.3,134.9,202.9,179,203.8,183.7L203.8,183.7z"/>
	<path class="st2" d="M286.2,118.5c0,0,6,9.9-3.3,21.1s-35.5-0.6-35.5-0.6l6.6,43.7l-19.3-0.2c0,0-20.1-59.5-17.8-65.7
		c2.3-6.2,18.8-9,18.8-9L286.2,118.5z"/>
	<path class="st2" d="M253.9,183.3L253.9,183.3l-19.3-0.2c-0.2,0-0.4-0.1-0.5-0.3c-0.8-2.4-20.1-59.8-17.8-66
		c2.4-6.3,18.5-9.2,19.2-9.3c0.1,0,0.1,0,0.2,0l50.5,10.6c0.1,0,0.3,0.1,0.3,0.2c0.1,0.1,6.1,10.4-3.3,21.7
		c-3.9,4.7-11.4,6.1-21.7,4.1c-4.6-1-9.2-2.4-13.6-4.2l6.4,42.8c0,0.1,0,0.3-0.1,0.4C254.2,183.2,254.1,183.3,253.9,183.3z
		 M235,182.1l18.3,0.2l-6.5-43.1c0-0.3,0.1-0.5,0.4-0.6c0.1,0,0.2,0,0.3,0c0.3,0.1,26.1,11.5,35,0.7c4.6-5.6,5.3-10.9,5-14.3
		c-0.2-2.1-0.7-4.1-1.7-6l-50.2-10.6c-1.3,0.2-16.2,3-18.3,8.7C215.5,121.9,229.4,165.3,235,182.1z"/>
	<path class="st1" d="M223.6,149.2c-0.2,0-0.4-0.1-0.5-0.3c-0.4-1.1-10.6-27.2-7.4-33.8c0.3-0.7,0.9-1.3,1.7-1.5
		c0.3-0.1,0.6,0.1,0.6,0.3c0.1,0.3-0.1,0.5-0.3,0.6c-0.5,0.2-0.9,0.5-1.1,1c-3,6.2,7.4,32.7,7.5,32.9c0.1,0.3,0,0.6-0.3,0.7
		c0,0,0,0,0,0L223.6,149.2z"/>
	<path class="st1" d="M247.4,139.6c-0.1,0-0.2,0-0.3-0.1c-0.3-0.2-6.2-3.8-7.9-6.4c-0.2-0.2-0.1-0.5,0.1-0.7c0,0,0,0,0,0
		c0.2-0.2,0.5-0.1,0.7,0.1c1.6,2.4,7.6,6.1,7.6,6.1c0.2,0.1,0.3,0.5,0.2,0.7C247.7,139.5,247.6,139.6,247.4,139.6z"/>
	<path class="st3" d="M286.2,118.5c0,0,21.2-52.2,5.5-64.2s-38-6.6-41,4.6s-15.1,49-15.1,49S274.1,119.4,286.2,118.5z"/>
	<polygon class="st2" points="264,60 260.4,96.9 280.6,57.4 	"/>
	<path class="st2" d="M260.3,97.4c-0.1,0-0.1,0-0.2,0c-0.2-0.1-0.4-0.3-0.4-0.5l3.7-36.9c0-0.2,0.2-0.4,0.4-0.5l16.5-2.6
		c0.2,0,0.4,0,0.5,0.2c0.1,0.2,0.1,0.4,0,0.5l-20.2,39.5C260.6,97.3,260.5,97.4,260.3,97.4z M264.5,60.4l-3.4,33.8L279.6,58
		L264.5,60.4z"/>
	<path class="st3" d="M252.1,54.4l-26.5,18.7l2.4,23.8l28.4-12C256.4,84.9,261.1,58.6,252.1,54.4z"/>
	<path class="st1" d="M262.4,54.9c1.9-0.6,3.9-0.9,5.9-0.6c3.1,0.5,6,2,9.1,2.5c3.5,0.3,7,0.3,10.5,0c1-0.1,0,1.3,0.9,0.7
		c2.9-2.1,2.7-6.2,2.7-9.3c0.1-7.2-0.8-14.4-2.7-21.3c-1-3.6-5-16.8-10.9-11.2c1.3-1.3-5.1-4.3-6-4.5c-8.3-2.3-15.8,5-17.7,12.6
		c-1.3,5.5-1.5,11-4.1,16.2c-1.2,2.3-2.7,4.5-2.8,7.1c0.1,3.2,1.9,6,4.7,7.4c2.8,1.3,6,1.6,9,0.8L262.4,54.9z"/>
	<path class="st2" d="M288.5,58.1c-0.1,0-0.2,0-0.3-0.1c-0.2-0.2-0.4-0.4-0.3-0.7v-0.1l-1.6,0.1c-3,0.2-6,0.2-9-0.1
		c-1.7-0.3-3.3-0.7-5-1.3c-1.4-0.5-2.8-0.9-4.2-1.2c-1.8-0.2-3.7,0-5.4,0.5l-0.3,0.1l-1.2,0.3c-3.1,0.8-6.4,0.5-9.4-0.9
		c-3-1.5-5-4.5-5-7.8c0.2-2.2,1-4.3,2.2-6.1c0.2-0.4,0.4-0.8,0.7-1.2c1.7-3.4,2.4-7,3-10.7c0.3-1.8,0.6-3.6,1-5.4
		c1.2-4.8,4.2-8.9,8.4-11.5c3-1.8,6.5-2.3,9.9-1.4c0.6,0.2,5.3,2.2,6.3,4c0.9-0.7,2.1-1,3.3-0.7c3.6,1,6.1,7.5,7.6,12.8
		c1.9,7,2.8,14.2,2.7,21.5v0.4c0,3,0,7.2-2.9,9.4C288.9,58,288.7,58.1,288.5,58.1z M287.9,56.2c0.3,0,0.5,0.1,0.7,0.3
		c0.1,0.1,0.1,0.2,0.2,0.3c2.2-1.9,2.2-5.4,2.1-8.3v-0.4c0.1-7.2-0.8-14.3-2.6-21.2c-2-7.1-4.5-11.4-6.9-12.1
		c-1.2-0.2-2.4,0.2-3.2,1.2c-0.2,0.2-0.5,0.2-0.7,0c-0.2-0.2-0.2-0.5,0-0.7l0,0c0.2-0.8-4.4-3.3-5.8-3.7c-3.1-0.8-6.4-0.4-9.1,1.3
		c-4,2.5-6.8,6.4-8,10.9c-0.4,1.8-0.7,3.6-1,5.3c-0.6,3.6-1.3,7.4-3,11c-0.2,0.4-0.4,0.8-0.7,1.3c-1.1,1.7-1.8,3.6-2,5.6
		c0,3,1.8,5.6,4.4,6.9c2.7,1.2,5.8,1.5,8.7,0.8l1.2-0.3l0.3-0.1c1.9-0.6,3.9-0.8,5.8-0.6c1.5,0.3,2.9,0.7,4.4,1.2
		c1.5,0.6,3.1,1,4.8,1.3c2.9,0.3,5.9,0.3,8.8,0.1L287.9,56.2L287.9,56.2z"/>
	<path class="st1" d="M257.4,26.7c0,0-2.8,8.5-1.1,14.9c0.8,3.6,3.8,6.4,7.4,7.1L264,60c0,0,0.1,5.8,7.2,4.7
		c4.2-0.7,7.7-3.4,9.3-7.3l0.2-20.9c0,0-8.2-4.4-7.7-11.9C273.1,24.6,263.6,29.5,257.4,26.7z"/>
	<path class="st2" d="M269.5,65.3c-1.5,0.1-2.9-0.4-4.1-1.3c-1.2-1-1.9-2.5-1.9-4.1l-0.3-10.9c-3.7-0.9-6.5-3.7-7.4-7.4
		c-1.7-6.4,1-14.8,1.1-15.2c0-0.1,0.1-0.2,0.3-0.3c0.1-0.1,0.3-0.1,0.4,0c5.9,2.7,15.1-2,15.2-2c0.2-0.1,0.4-0.1,0.5,0
		c0.2,0.1,0.2,0.3,0.2,0.5c-0.5,7.1,7.4,11.4,7.4,11.4c0.2,0.1,0.3,0.3,0.3,0.4l-0.2,20.9c0,0.1,0,0.1,0,0.2c-1.7,4.1-5.4,7-9.7,7.6
		C270.7,65.3,270.1,65.3,269.5,65.3z M257.7,27.3c-0.6,1.9-2.3,8.8-1,14.1c0.8,3.4,3.5,6.1,7,6.7c0.2,0,0.4,0.2,0.4,0.5l0.3,11.3
		c0.1,1.3,0.6,2.4,1.6,3.3c1.1,1,2.8,1.3,5.1,0.9c4-0.6,7.3-3.2,8.9-6.9l0.2-20.5c-1.4-0.8-7.6-4.8-7.7-11.4
		C270.2,26.5,263.1,29.4,257.7,27.3z"/>
	<path class="st1" d="M276.8,35.2c0,0,3.3-8,7.4-3.1c4.1,4.9-1.5,10.5-5,10.1"/>
	<path class="st2" d="M279.5,42.6h-0.4c-0.3,0-0.5-0.3-0.5-0.6c0,0,0,0,0,0c0-0.3,0.3-0.5,0.6-0.5c0,0,0,0,0,0
		c1.8,0.2,4.1-1.4,5.2-3.5c1.1-1.9,0.8-4.2-0.7-5.8c-0.6-0.9-1.6-1.4-2.6-1.4c-1.8,0.3-3.4,3.2-3.9,4.4c-0.1,0.3-0.4,0.4-0.7,0.3
		c-0.3-0.1-0.4-0.4-0.3-0.7c0.1-0.2,1.9-4.5,4.7-5c1.2-0.2,2.4,0.4,3.5,1.7c1.7,1.9,2,4.7,0.8,6.9C284.1,41,281.6,42.6,279.5,42.6z"
		/>
	<path class="st2" d="M262,41.8c-0.6,0-1.1-0.1-1.6-0.3c-0.2-0.1-0.4-0.3-0.5-0.6c-0.4-1.5,2.4-5.5,3.2-6.6c0.2-0.2,0.5-0.3,0.7-0.1
		c0,0,0,0,0,0c0.2,0.2,0.3,0.5,0.1,0.7c0,0,0,0,0,0c-1.8,2.6-3.3,5.3-3,5.8c1.1,0.2,2.2,0.2,3.2-0.2c0.3-0.1,0.6,0.1,0.7,0.4
		s-0.1,0.6-0.4,0.7l0,0C263.6,41.7,262.8,41.8,262,41.8z"/>
	<path class="st2" d="M263.7,48.7c0,0,6.1,0.6,9.5-0.4c0,0-3.5,9-9.3,9.1L263.7,48.7z"/>
	<path class="st2" d="M263.9,57.9c-0.3,0-0.5-0.2-0.5-0.5l-0.2-8.8c0-0.3,0.2-0.5,0.5-0.5c0,0,0,0,0.1,0c0.1,0,6,0.6,9.3-0.4
		c0.2-0.1,0.4,0,0.5,0.1c0.1,0.1,0.2,0.3,0.1,0.5C273.6,48.8,270,57.8,263.9,57.9L263.9,57.9z M264.2,49.2l0.2,7.7
		c4.1-0.5,6.9-5.7,7.9-7.9C269.7,49.4,266.9,49.4,264.2,49.2z"/>
	
		<ellipse transform="matrix(2.547903e-02 -0.9997 0.9997 2.547903e-02 227.4497 299.7097)" class="st2" cx="267.4" cy="33.2" rx="1.6" ry="0.9"/>
	
		<ellipse transform="matrix(2.547903e-02 -0.9997 0.9997 2.547903e-02 219.6424 291.2991)" class="st2" cx="259.2" cy="33" rx="1.6" ry="0.9"/>
	<path class="st1" d="M291.3,44c0.4,6.7,1,18.9-9.6,15.9c-2.2-0.7-4.1-2.1-5.2-4.1c-2-3.6,3.4-8.9,6-11.3"/>
	<path class="st2" d="M284.8,60.9c-1.1,0-2.1-0.2-3.2-0.5c-2.3-0.7-4.3-2.2-5.6-4.4c-2.1-3.7,2.5-8.5,6.1-11.9
		c0.2-0.2,0.5-0.2,0.7,0c0.2,0.2,0.2,0.5,0,0.7c0,0,0,0,0,0c-1.9,1.8-7.9,7.2-5.9,10.6c1.1,1.9,2.9,3.3,5,3.9
		c2.7,0.8,4.8,0.5,6.2-0.6c3.5-2.8,3-10.9,2.7-14.7c0-0.3,0.2-0.5,0.5-0.5c0.3,0,0.5,0.2,0.5,0.5c0.3,4.4,0.8,12.4-3.1,15.6
		C287.6,60.5,286.2,61,284.8,60.9z"/>
	<path class="st2" d="M268.3,44.1c0,0.5-0.9,1-2,1c-1.1,0-0.7-0.4-0.7-1s-0.4-1,0.7-1C267.3,43.1,268.3,43.6,268.3,44.1z"/>
	<path class="st3" d="M293.6,57c0,0-9.4,7.8-9.4,14.4c0,6.6,7.1,37.6,7.1,37.6l19.5-10.9C310.8,98.2,303.2,59.7,293.6,57z"/>
	<path class="st2" d="M236.7,105h-0.1c-0.3-0.1-0.4-0.4-0.3-0.6c0,0,0,0,0,0l14-45.7c0.1-0.3,0.3-0.5,0.6-0.4
		c0.3,0.1,0.5,0.3,0.4,0.6c0,0,0,0.1,0,0.1l-14,45.7C237.1,104.9,236.9,105,236.7,105z"/>
	<path class="st2" d="M291.5,107.4c-0.2,0-0.4-0.2-0.5-0.4c-7.9-35.3-7.4-35.7-7.1-35.9c0.2-0.2,0.5-0.2,0.7,0
		c0.1,0.1,0.2,0.3,0.1,0.5c0,1.7,4.3,21.9,7.3,35.2c0.1,0.3-0.1,0.5-0.4,0.6c0,0,0,0,0,0L291.5,107.4z"/>
	<polygon class="st1" points="264.2,106.9 227.8,120.6 211.7,109 243.5,99.4 	"/>
	<path class="st2" d="M227.8,121.2c-0.1,0-0.2,0-0.3-0.1l-16.1-11.6c-0.2-0.1-0.2-0.3-0.2-0.5c0-0.2,0.2-0.3,0.4-0.4l31.8-9.6
		c0.1,0,0.2,0,0.3,0l20.7,7.5c0.2,0.1,0.3,0.3,0.3,0.5c0,0.2-0.1,0.4-0.3,0.5L228,121.2C228,121.2,227.9,121.2,227.8,121.2z
		 M212.8,109.2l15.1,10.9l34.8-13.1l-19.3-7L212.8,109.2z"/>
	<path class="st1" d="M308.5,99.4c0,0,4.1,20.5-7,22.5c-11.1,2-47.7-5.2-47.7-5.2s-12.7,2.2-11.9-1c0.8-3.3,8.8-4.7,8.8-4.7
		s-6.6-3.2-3.3-3.2c3.4,0.2,6.9,0.6,10.3,1.1l33.9-4.5"/>
	<path class="st2" d="M296.5,122.8c-13.9,0-40.5-5.1-42.6-5.6c-1.9,0.3-10.3,1.7-12.1-0.2c-0.3-0.4-0.5-0.9-0.3-1.4
		c0.7-2.6,5.3-4.2,7.8-4.8c-3.5-1.8-3.3-2.5-3.2-2.8c0.2-0.7,1-0.7,1.4-0.7c3.4,0.2,6.9,0.6,10.3,1.1l33.8-4.5
		c0.3,0,0.5,0.2,0.6,0.4s-0.2,0.5-0.4,0.6l-33.9,4.5c-0.1,0-0.1,0-0.2,0c-3.4-0.6-6.7-0.9-10.2-1.1h-0.2c1.2,0.9,2.4,1.6,3.7,2.2
		c0.3,0.1,0.4,0.4,0.2,0.7c-0.1,0.1-0.2,0.2-0.3,0.3c-2.1,0.4-7.8,2-8.4,4.3c-0.1,0.1,0,0.3,0.1,0.4c1.1,1.2,7.5,0.6,11.2-0.1h0.2
		c0.4,0.1,36.7,7.1,47.5,5.2c2-0.3,3.7-1.5,4.8-3.1c4.1-6,1.9-18.3,1.8-18.8c0-0.2,0-0.3,0.1-0.4c0.1-0.2,0.3-0.2,0.5-0.2
		c0.2,0,0.3,0.2,0.4,0.4l-0.5,0.1l0.5-0.1c0.3,1.3,2.4,13.3-2,19.5c-1.3,1.9-3.2,3.2-5.5,3.5C300,122.7,298.2,122.8,296.5,122.8z"/>
	<path class="st1" d="M167.3,187c1.1,1,2.4,1.7,3.8,1.9c1.7,0,20.1-3.4,20.8-0.9c0.8,2.5-0.7,3.8-5.1,5.8
		c-5.9,2.8-25.6,9.3-25.6,9.3l-4.3-10.1L167.3,187z"/>
	<path class="st2" d="M161.2,203.6c-0.2,0-0.4-0.1-0.4-0.3l-4.3-10.1c-0.1-0.2,0-0.5,0.2-0.6l10.4-6c0.2-0.1,0.4-0.1,0.6,0.1
		c1,0.9,2.2,1.5,3.5,1.7c1.2-0.1,2.5-0.2,3.7-0.5c11-1.5,17-2,17.6-0.1c0.9,2.9-1,4.3-5.4,6.4c-5.8,2.8-25.5,9.2-25.7,9.3
		L161.2,203.6z M157.5,193.1l4,9.4c2.8-0.9,19.9-6.6,25.2-9.1c4.5-2.1,5.5-3.2,4.9-5.3c-0.5-1.5-12.6,0.2-16.6,0.7
		c-2.2,0.3-3.4,0.4-3.8,0.5c-1.5-0.2-2.8-0.8-3.9-1.8L157.5,193.1z"/>
	<path class="st1" d="M110.2,197.9c0,0,19.7,6.8,20.5,8.1c0.8,1.3-0.6,2.8-5.9,3.3c-5.2,0.5-27.7-0.8-27.7-0.8s-0.3-6.1,1.1-9.1
		C99.7,196.3,110.2,197.9,110.2,197.9z"/>
	<path class="st2" d="M121.1,209.8c-8,0-23.2-0.8-24-0.9c-0.2,0-0.4-0.2-0.4-0.4c0-0.3-0.3-6.2,1.2-9.4c1.5-3.3,11.3-1.8,12.4-1.7
		h0.1c4.7,1.6,19.9,6.9,20.8,8.3c0.3,0.5,0.4,1.1,0.1,1.6c-0.6,1.2-2.8,2-6.4,2.4C124,209.7,122.7,209.8,121.1,209.8z M97.6,208
		c3.1,0.2,22.5,1.1,27.2,0.7c4.6-0.4,5.5-1.5,5.6-1.8c0.1-0.2,0.1-0.5-0.1-0.7c-0.8-0.9-12.8-5.3-20.3-7.9
		c-3.9-0.6-10.5-0.9-11.4,1.1C97.6,202,97.6,206.6,97.6,208z"/>
	<path class="st3" d="M59.1,133.7c0,0-16.1-40.2-14.4-60c1.7-19.8,14.6-21,19.2-21.3s28.4-3.5,37.1,7.2s6.5,62,6.5,62L59.1,133.7z"
		/>
	<polygon class="st2" points="87.5,61.5 87.2,101.8 70.1,58.8 	"/>
	<path class="st2" d="M87.2,102.3c-0.2,0-0.4-0.1-0.5-0.3L69.6,59c-0.1-0.2,0-0.4,0.1-0.5c0.1-0.1,0.3-0.2,0.5-0.2L87.6,61
		c0.2,0,0.4,0.2,0.4,0.5l-0.3,40.3C87.7,102,87.5,102.2,87.2,102.3L87.2,102.3z M71,59.5l15.8,39.7L87,62L71,59.5z"/>
	<path class="st2" d="M108.4,111.4c0,0,19.7,5.3,37.2,17.2c8.1,5.5,23.1,59.1,23.1,59.1s-1.7,9.3-12.4,7.8l-46.9-60.8
		C109.4,134.8,99.3,111.2,108.4,111.4z"/>
	<path class="st2" d="M158.5,196.3c-0.8,0-1.5-0.1-2.3-0.2c-0.1,0-0.3-0.1-0.3-0.2L109,135.1c0,0-0.1-0.1-0.1-0.1
		c-0.3-0.7-7.3-17.3-3.8-22.5c0.7-1.1,2-1.7,3.3-1.6h0.1c0.2,0.1,19.9,5.4,37.4,17.3c8.1,5.5,22.7,57.2,23.3,59.4c0,0.1,0,0.1,0,0.2
		C168.2,192.9,163.6,196.4,158.5,196.3z M156.6,195.1c9.4,1.2,11.4-6.3,11.6-7.3c-0.8-2.8-15.2-53.6-22.9-58.7
		c-16.8-11.4-35.8-16.8-37-17.1h-0.1c-0.9-0.1-1.8,0.4-2.4,1.1c-3.1,4.6,3.4,20.4,3.9,21.5L156.6,195.1z"/>
	<path class="st2" d="M59.1,133.7c0,0,37.2-15.1,46.8-16.5c0,0,13.7,5.1,20.7,18c7,12.9-16.3,62.7-16.3,62.7
		c-3.8,2.3-8.4,3.1-12.8,2.3L97.1,148C97.1,148,52.2,152.5,59.1,133.7z"/>
	<path class="st2" d="M100.8,201c-1.2,0-2.3-0.1-3.5-0.3c-0.2,0-0.4-0.3-0.4-0.5l-0.3-51.6c-4.3,0.4-30.4,2.3-37.1-6.5
		c-1.8-2.3-2-5.2-0.8-8.6c0-0.1,0.2-0.2,0.3-0.3c1.5-0.6,37.4-15.2,46.9-16.6c0.1,0,0.2,0,0.3,0c0.1,0.1,13.9,5.3,20.9,18.3
		c7,13-15.4,61.1-16.3,63.2c0,0.1-0.1,0.2-0.2,0.2C107.6,200,104.2,201,100.8,201z M97.9,199.7c4.1,0.7,8.3-0.1,11.9-2.2
		c1.3-2.9,22.9-49.9,16.3-62.1c-6.5-12-18.9-17.2-20.3-17.7c-9.2,1.4-43.3,15.2-46.3,16.4c-1,2.9-0.8,5.4,0.8,7.4
		c6.9,8.9,36.5,6.1,36.8,6.1c0.1,0,0.3,0,0.4,0.1c0.1,0.1,0.2,0.2,0.2,0.4L97.9,199.7z"/>
	<path class="st1" d="M125.7,156.6L125.7,156.6c-0.4-0.1-0.6-0.3-0.5-0.6c1.3-7.5,2.7-19.2,1-21.1c-5.4-6-18.8-15.9-19-16
		c-0.2-0.2-0.3-0.5-0.1-0.7c0.2-0.2,0.5-0.3,0.7-0.1c0.1,0.1,13.7,10.1,19.1,16.1c2.5,2.8-0.4,20-0.7,21.9
		C126.2,156.4,126,156.6,125.7,156.6z"/>
	<path class="st3" d="M101,59.6c0,0,6.4,12.4,10.2,18.7c3.8,6.4,12,15.5,12,15.5s29.2,10.4,29.4,10.9c0.2,0.6-2.8,10.4-2.8,10.4
		s-30.6-2.2-35.7-4.6c-5.1-2.4-15.3-14.2-15.3-14.2L101,59.6z"/>
	<polygon class="st1" points="80.9,66 78.7,69.4 81.1,70.8 81.3,87 87.2,101.8 87.5,88.1 82.6,70.3 84.1,68.6 	"/>
	<path class="st2" d="M87.2,102.3c-0.2,0-0.4-0.1-0.5-0.3l-5.9-14.8c0-0.1,0-0.1,0-0.2l-0.2-16l-2.1-1.2c-0.1-0.1-0.2-0.2-0.2-0.3
		c0-0.1,0-0.3,0.1-0.4l2.2-3.4c0.1-0.1,0.2-0.2,0.3-0.2c0.1,0,0.3,0,0.4,0.1l3.2,2.6c0.2,0.2,0.2,0.5,0.1,0.7c0,0,0,0,0,0l-1.3,1.5
		L88,88c0,0.1,0,0.1,0,0.2l-0.3,13.7C87.7,102,87.5,102.2,87.2,102.3L87.2,102.3z M81.8,86.9l4.9,12.4L87,88.2l-4.9-17.8
		c0-0.2,0-0.3,0.1-0.5l1.1-1.3L81,66.7l-1.6,2.5l1.9,1.1c0.2,0.1,0.2,0.3,0.2,0.4L81.8,86.9z"/>
	<path class="st1" d="M69,19.9c0.6-0.2,1.2-0.4,1.8-0.5c2.5-0.3,2.5,0.3,4.4-1.3c2.9-2.3,6.5-3.6,10.2-3.9
		c7.1-0.5,12.3,3.1,10.6,10.9c-0.8,3.1-2.2,6-4.2,8.5c-4.1,5.6-9.7,10.6-16.5,11.2c-2,0.2-5.8,0-7.3-1.7c-4.3-4.8-5.7-11.5-3.8-17.7
		c0.4-1.3,1-2.5,1.8-3.6C66.9,21.1,67.9,20.4,69,19.9z"/>
	<path class="st2" d="M74.2,45.3c-1.8,0-5-0.2-6.5-1.9c-4.4-4.9-5.8-11.8-3.9-18.1c0.4-1.4,1.1-2.6,1.9-3.7c1.3-1.5,3.1-2.4,5.1-2.6
		c0.5-0.1,1-0.1,1.5-0.1c1,0,1.3,0,2.6-1.1c3-2.4,6.6-3.8,10.4-4c4.2-0.3,7.6,0.8,9.6,3c1.8,2,2.3,4.9,1.6,8.4
		c-0.8,3.2-2.2,6.1-4.2,8.7c-3.5,4.9-9.3,10.8-16.9,11.3C75.3,45.3,74.8,45.3,74.2,45.3z M86.6,14.7c-0.4,0-0.8,0-1.2,0
		c-3.6,0.2-7,1.6-9.8,3.8c-0.8,0.9-2,1.4-3.2,1.4c-0.4,0-0.8,0-1.5,0.1c-0.6,0.1-1.1,0.2-1.7,0.4l0,0c-1,0.4-1.9,1-2.7,1.9
		c-0.8,1-1.4,2.1-1.8,3.4c-1.8,6-0.4,12.4,3.7,17.1c1.2,1.3,4.4,1.7,6.9,1.5c7.2-0.5,12.8-6.2,16.1-10.9c1.9-2.4,3.3-5.3,4.1-8.3
		c0.6-3.1,0.2-5.7-1.4-7.5C92.6,15.7,89.9,14.7,86.6,14.7z M69,19.9L69,19.9z"/>
	<path class="st1" d="M87.5,50.8v10.7c0,0-2.5,5.9-9.5,4.1c-7-1.8-7.9-6.8-7.9-6.8L70.4,39c0,0,5.2-2.7,3.8-14.1
		c5.7,2.5,12,3.5,18.3,2.8c0,0,2.2,12.4,1.4,17.9C93.2,50.8,87.6,50.7,87.5,50.8z"/>
	<path class="st2" d="M80.5,66.5c-0.9,0-1.8-0.1-2.6-0.4c-7.2-1.8-8.2-7-8.2-7.2L69.9,39c0-0.2,0.1-0.4,0.3-0.4
		c0,0,4.9-2.8,3.6-13.5c0-0.2,0.1-0.4,0.2-0.5c0.2-0.1,0.4-0.1,0.5,0c5.6,2.5,11.8,3.4,18,2.7c0.3,0,0.5,0.2,0.6,0.4
		c0.1,0.5,2.2,12.5,1.4,18c-0.4,3.2-2.7,5.2-6.4,5.7v10.3c0,0.1,0,0.1,0,0.2C86.6,64.6,83.7,66.5,80.5,66.5z M70.9,39.3l-0.3,19.6
		c0,0.1,0.9,4.6,7.5,6.3c6.1,1.6,8.5-3,8.9-3.7V50.8c0-0.2,0.1-0.3,0.2-0.4c0.1-0.1,0.3-0.1,0.5-0.1c3.4-0.3,5.4-2,5.8-4.8
		c0.6-4.7-0.9-14.9-1.3-17.3c-5.9,0.6-11.8-0.2-17.3-2.5C75.8,35.3,72,38.5,70.9,39.3z M87.5,61.5L87.5,61.5z"/>
	<path class="st1" d="M74.6,38.7c-0.2-1-0.8-1.8-1.5-2.5c-0.7-0.6-1.6-1-2.4-1.3c-0.5-0.2-1-0.3-1.5-0.3c-0.4,0.1-0.7,0.2-1,0.4
		c-0.8,0.4-1.4,1-1.7,1.8c-0.2,0.7-0.2,1.4-0.1,2c0.1,0.7,0.3,1.5,0.5,2.1c1.1,2.9,4.4,4.2,7.2,3.1c0,0,0.1,0,0.1,0"/>
	<path class="st2" d="M71.9,44.9c-2.5,0-4.7-1.5-5.6-3.8c-0.3-0.7-0.5-1.5-0.5-2.3c-0.1-0.8-0.1-1.5,0.1-2.3c0.4-0.9,1.1-1.6,1.9-2
		c0.4-0.2,0.8-0.4,1.2-0.4c0.6,0,1.2,0.1,1.7,0.3c0.9,0.3,1.8,0.8,2.6,1.3c0.8,0.7,1.4,1.7,1.7,2.8c0.1,0.3-0.1,0.5-0.4,0.6
		c0,0,0,0,0,0c-0.3,0.1-0.5-0.1-0.6-0.4c-0.2-0.9-0.7-1.6-1.4-2.2c-0.7-0.5-1.5-0.9-2.3-1.2c-0.4-0.2-0.8-0.3-1.2-0.3
		c-0.3,0-0.6,0.2-0.8,0.3c-0.7,0.3-1.2,0.8-1.5,1.5c-0.2,0.6-0.2,1.2-0.1,1.8c0.1,0.7,0.2,1.4,0.5,2c0.5,1.2,1.5,2.2,2.8,2.8
		c1.3,0.5,2.7,0.5,3.9,0c0.2-0.1,0.5,0,0.6,0.2c0,0,0,0,0,0c0.1,0.3,0,0.6-0.3,0.7c0,0,0,0,0,0C73.6,44.7,72.7,44.9,71.9,44.9z"/>
	<path class="st1" d="M87.1,34.8c0,0,3.8,5.4,3,6.4c-0.9,1-3.3,0.4-3.3,0.4"/>
	<path class="st2" d="M88.2,42.3c-0.5,0-1.1-0.1-1.6-0.2c-0.3-0.1-0.5-0.3-0.4-0.6c0.1-0.3,0.3-0.5,0.6-0.4c0.8,0.2,2.4,0.3,2.8-0.2
		c0.2-0.5-1.2-3.2-3-5.8c-0.1-0.2-0.1-0.6,0.2-0.7c0.2-0.1,0.5-0.1,0.7,0.1c1.5,2.1,3.9,5.9,2.9,7C89.8,42,89,42.3,88.2,42.3z"/>
	
		<ellipse transform="matrix(6.157113e-02 -0.9981 0.9981 6.157113e-02 45.3206 115.464)" class="st2" cx="84.1" cy="33.6" rx="1.3" ry="0.9"/>
	
		<ellipse transform="matrix(0.9975 -7.010469e-02 7.010469e-02 0.9975 -2.133 6.5249)" class="st2" cx="91.9" cy="33.7" rx="0.9" ry="1.3"/>
	<path class="st2" d="M87.3,45.5c-2.1,0-4.9-0.3-6.7-1.8c-0.2-0.2-0.3-0.5-0.1-0.7c0.2-0.2,0.5-0.3,0.7-0.1c0,0,0,0,0,0
		c2.9,2.3,8.8,1.4,8.9,1.4c0.3,0,0.5,0.1,0.6,0.4s-0.1,0.5-0.4,0.6C89.3,45.5,88.3,45.5,87.3,45.5z"/>
	<path class="st2" d="M94.1,40.5c-3.8,0-6.8-3-6.9-6.8c0-0.4,0-0.8,0.1-1.2l0,0c0.7-3.7,4.2-6.2,7.9-5.5c3.7,0.6,6.2,4.1,5.6,7.8
		C100.4,38.1,97.5,40.5,94.1,40.5z M88.4,32.6c-0.6,3.2,1.5,6.2,4.7,6.7c1.5,0.3,3.1-0.1,4.4-1c2.6-1.8,3.3-5.5,1.4-8.1c0,0,0,0,0,0
		c-1.8-2.6-5.5-3.3-8.1-1.4C89.5,29.7,88.7,31.1,88.4,32.6L88.4,32.6z"/>
	<path class="st2" d="M80.9,40c-0.4,0-0.8,0-1.2-0.1c-3.7-0.5-6.3-4-5.8-7.7c0.5-3.7,4-6.3,7.7-5.8c0.2,0,0.3,0,0.5,0.1
		c3.7,0.7,6.2,4.2,5.5,7.9c-0.3,1.8-1.3,3.4-2.8,4.4C83.7,39.5,82.3,40,80.9,40z M80.9,27.3c-3.2,0-5.8,2.6-5.8,5.8
		c0,1.2,0.4,2.3,1,3.3c1.8,2.6,5.5,3.3,8.1,1.4c0,0,0,0,0,0c2.6-1.8,3.3-5.5,1.4-8.1c0,0,0,0,0,0C84.6,28.2,82.8,27.3,80.9,27.3
		L80.9,27.3z"/>
	<path class="st2" d="M87.5,50.8c0,0-6.7,1.5-10.6-0.7c0,0,4.3,9,10.6,8L87.5,50.8z"/>
	<path class="st2" d="M86.6,58.7c-6,0-9.9-8-10.2-8.4c-0.1-0.2-0.1-0.4,0.1-0.6c0.2-0.2,0.4-0.2,0.6-0.1c3.7,2.1,10.2,0.7,10.2,0.6
		c0.3-0.1,0.5,0.1,0.6,0.4c0,0,0,0.1,0,0.1v7.3c0,0.3-0.2,0.5-0.4,0.5C87.2,58.7,86.9,58.7,86.6,58.7z M78.1,51.2
		c1.4,2.3,4.7,6.8,8.9,6.5v-6.3C85.4,51.7,81.4,52.3,78.1,51.2z"/>
	<path class="st3" d="M51.2,57.2c-5.5,1-27.5,52-20,57.9c11.8,9.1,52.8-0.1,52.8-0.1l-3.3-15.8c0,0-26.4,0.7-26.8-4.7
		S69.3,64,67.3,60.2C65.2,56.4,51.2,57.2,51.2,57.2z"/>
	<path class="st2" d="M64.1,120.2c-0.3,0-0.5-0.2-0.6-0.5s0.2-0.5,0.5-0.6l12.4-2.1l0.4-14.5l-23.3-2.4c-0.1,0-0.3-0.1-0.4-0.2
		C53,99.8,53,99.7,53,99.5l10.4-35.6c0.1-0.3,0.4-0.4,0.6-0.3l0,0c0.3,0.1,0.4,0.4,0.3,0.6L54.2,99.3l23.2,2.4
		c0.3,0,0.5,0.3,0.5,0.5l-0.4,15.3c0,0.2-0.2,0.4-0.4,0.5l-12.8,2.2L64.1,120.2z"/>
	<path class="st1" d="M77.9,104.4c4.4,0.3,8.8,0.1,13.1-0.6c3.2-0.8,6.5-1.2,9.8-1.1c4.4,0.2,8.6,1.2,12.6,2.9
		c0.2,0.1,0.3,0.2,0.4,0.3c0.4,0.5-0.5,1-1.2,1.1c-1.7,0-3.5-0.2-5.2-0.7c4.2,1.5,8.1,3.6,11.7,6.2c0.4,0.3,0.9,0.8,0.7,1.2
		c-0.2,0.5-1,0.4-1.6,0.1l-9.4-4.3c2.4,1,4.7,2.3,6.7,4.1c0.3,0.3,0.6,0.6,0.5,1c-0.1,0.6-1.1,0.5-1.7,0.2c-2.9-1.4-5.6-3.1-8.2-5
		l5.8,4.5c0.1,0.5-0.4,0.9-0.9,0.9c-0.5,0-0.9-0.2-1.3-0.5l-6.5-3.8l4.1,2.8c0.6,0.4,1.4,1.2,1,1.9c-0.3,0.7-1.6,0.6-2.5,0.2
		c-3.3-1.5-6.8-2.5-10.4-3.2c-1.3-0.4-2.6-0.7-3.9-0.8c-2,0.3-4,0.7-5.9,1.3c-2.9,0.7-5.9,1.3-8.8,2"/>
	<path class="st2" d="M107.3,116.6c-0.6,0-1.1-0.2-1.6-0.4c-3.3-1.4-6.8-2.5-10.3-3.2c-0.4-0.1-0.9-0.2-1.3-0.3
		c-0.8-0.3-1.6-0.4-2.4-0.4c-1.4,0.1-2.7,0.4-4,0.8c-0.6,0.2-1.2,0.3-1.8,0.5c-2.9,0.7-5.9,1.3-8.8,2c-0.2,0.1-0.5-0.1-0.6-0.3
		c-0.1-0.2,0.1-0.5,0.3-0.6c0,0,0,0,0,0c2.9-0.7,5.9-1.4,8.8-2c0.6-0.1,1.2-0.3,1.8-0.5c1.4-0.4,2.8-0.7,4.2-0.8
		c0.9,0,1.8,0.2,2.7,0.5c0.4,0.1,0.8,0.2,1.2,0.3c3.6,0.7,7.1,1.8,10.5,3.2c0.5,0.3,1,0.4,1.6,0.3c0.1,0,0.2-0.1,0.2-0.2
		c0.2-0.5-0.6-1.1-0.9-1.3l-4.1-2.8c-0.2-0.1-0.3-0.4-0.1-0.6c0.1-0.2,0.4-0.3,0.6-0.1l6.5,3.8c0.3,0.2,0.7,0.4,1.1,0.4
		c0.2,0,0.3-0.1,0.4-0.2l0,0l-5.6-4.3c-0.2-0.1-0.3-0.4-0.2-0.6c0.1-0.2,0.4-0.3,0.6-0.2c0,0,0.1,0,0.1,0.1c2.6,1.9,5.3,3.5,8.1,5
		c0.3,0.2,0.6,0.2,1,0.1c0.1-0.1,0-0.2-0.3-0.5c-1.4-1.2-2.9-2.2-4.5-3l-2.1-1c-0.2-0.1-0.3-0.4-0.2-0.6c0.1-0.2,0.3-0.3,0.5-0.2
		c0.7,0.3,1.5,0.6,2.2,1l7.3,3.3c0.3,0.1,0.6,0.2,0.9,0.2c0.1-0.2-0.1-0.5-0.4-0.7c-3.6-2.6-7.5-4.6-11.6-6.2
		c-0.2-0.1-0.4-0.3-0.3-0.6c0.1-0.2,0.3-0.4,0.6-0.3c1.6,0.5,3.3,0.7,5,0.6c0.3,0,0.6-0.1,0.8-0.4l-0.2-0.1c-4-1.7-8.2-2.7-12.5-2.9
		c-2.9,0-5.7,0.3-8.5,0.9l-1.2,0.2c-4.4,0.7-8.8,0.9-13.2,0.6c-0.3,0-0.5-0.2-0.4-0.5c0,0,0,0,0,0c0-0.2,0.2-0.4,0.4-0.4
		c0,0,0,0,0,0c4.4,0.3,8.7,0,13-0.6l1.2-0.2c2.9-0.7,5.8-1,8.7-0.9c4.4,0.2,8.7,1.2,12.8,2.9c0.2,0.1,0.5,0.2,0.6,0.4
		c0.2,0.3,0.2,0.6,0.1,0.9c-0.4,0.5-1,0.9-1.6,0.9c-0.4,0-0.9,0-1.3,0c2.8,1.3,5.6,2.9,8.1,4.7c0.8,0.5,1.1,1.2,0.8,1.8
		c-0.1,0.3-0.3,0.5-0.6,0.6c-0.5,0.1-1.1,0.1-1.6-0.2l-2.3-1l0,0c0.5,0.3,0.7,0.8,0.7,1.4c-0.1,0.3-0.3,0.6-0.5,0.7
		c-0.6,0.2-1.2,0.1-1.8-0.2c-0.6-0.3-1.1-0.6-1.7-0.9c0,0.3-0.1,0.5-0.3,0.8c-0.3,0.3-0.7,0.5-1.1,0.5c-0.6,0-1.1-0.2-1.6-0.5
		l-0.8-0.5c0.2,0.4,0.2,0.8,0,1.2c-0.1,0.3-0.4,0.6-0.8,0.7C107.8,116.6,107.6,116.6,107.3,116.6z"/>
	<path class="st1" d="M95.4,66c0,0,4.8,19.7,9.1,33.7"/>
	<path class="st2" d="M104.6,100.2c-0.2,0-0.4-0.1-0.4-0.3C99.8,86,95,66.3,94.9,66.1c-0.1-0.3,0.1-0.5,0.3-0.6c0,0,0,0,0,0
		c0.2-0.1,0.5,0.1,0.6,0.3c0.1,0.2,4.9,19.9,9.1,33.7c0.1,0.2-0.1,0.5-0.3,0.6C104.6,100.1,104.6,100.2,104.6,100.2z"/>
	<polygon class="st1" points="153.3,123.5 153.1,126.2 91,135.3 91.6,132.4 	"/>
	<path class="st2" d="M91,135.8c-0.1,0-0.3-0.1-0.4-0.2c-0.1-0.1-0.2-0.3-0.1-0.4l0.6-2.9c0.1-0.2,0.2-0.4,0.4-0.4l61.7-8.9
		c0.2,0,0.3,0,0.4,0.1c0.1,0.1,0.2,0.3,0.2,0.4l-0.3,2.8c0,0.2-0.2,0.4-0.4,0.5L91,135.8L91,135.8z M92,132.9l-0.4,1.8l61-8.9
		l0.2-1.7L92,132.9z"/>
	<path class="st1" d="M153.3,123.5c0,0-14.1-12.1-14.6-12s-63.9,7.7-63.9,7.7l16.9,13.2L153.3,123.5z"/>
	<path class="st2" d="M91.6,132.9c-0.1,0-0.2,0-0.3-0.1l-16.9-13.2c-0.2-0.2-0.3-0.5-0.1-0.7c0.1-0.1,0.2-0.2,0.3-0.2
		c0.6-0.1,62.9-7.5,63.9-7.7c0.3-0.1,0.7-0.2,15,12.1c0.2,0.1,0.2,0.3,0.2,0.5c-0.1,0.2-0.2,0.3-0.4,0.4L91.6,132.9L91.6,132.9z
		 M76,119.5l15.7,12.3l60.4-8.7c-5.1-4.3-12.4-10.5-13.5-11.2C135.4,112.4,88.6,118,76,119.5z"/>
	<polygon class="st1" points="91,135.3 74.5,121.9 74.8,119.2 91.6,132.4 	"/>
	<path class="st2" d="M91,135.8c-0.1,0-0.2,0-0.3-0.1l-16.5-13.4c-0.1-0.1-0.2-0.3-0.2-0.4l0.3-2.8c0-0.3,0.3-0.5,0.6-0.5
		c0.1,0,0.2,0,0.2,0.1L91.9,132c0.2,0.1,0.2,0.3,0.2,0.5l-0.6,2.9c0,0.2-0.2,0.3-0.3,0.4C91.1,135.8,91.1,135.8,91,135.8z M75,121.7
		l15.6,12.6l0.4-1.8l-15.9-12.4L75,121.7z"/>
	<polygon class="st1" points="153.3,123.5 165.3,83.5 99.8,94.6 91.6,132.4 	"/>
	<path class="st2" d="M91.6,132.9c-0.1,0-0.3-0.1-0.4-0.2c-0.1-0.1-0.2-0.3-0.1-0.5l8.2-37.8c0-0.2,0.2-0.4,0.4-0.4L165.2,83
		c0.3-0.1,0.5,0.1,0.6,0.4c0,0.1,0,0.2,0,0.2l-11.9,40c-0.1,0.2-0.2,0.3-0.4,0.4L91.6,132.9L91.6,132.9z M100.3,95.1l-8,36.7
		L153,123l11.6-38.9L100.3,95.1z M153.3,123.5L153.3,123.5z"/>
	<path class="st2" d="M188.4,63.5c-0.3,0-0.5-0.2-0.5-0.4c-0.3-3.4,2.2-7.5,2.3-7.7c0.1-0.2,0.5-0.3,0.7-0.2c0,0,0,0,0,0
		c0.2,0.2,0.3,0.5,0.2,0.7c0,0-2.4,4.1-2.1,7C189,63.2,188.8,63.4,188.4,63.5C188.5,63.5,188.5,63.5,188.4,63.5L188.4,63.5z"/>
	<path class="st0" d="M229.9,116.8c-0.1,0-0.2,0-0.3-0.1l-11.3-7.3c-0.2-0.2-0.3-0.5-0.2-0.7c0.2-0.2,0.5-0.3,0.7-0.2l0,0l11.3,7.3
		c0.2,0.2,0.3,0.5,0.2,0.7C230.3,116.7,230.1,116.8,229.9,116.8z"/>
	<path class="st0" d="M234,115c-0.1,0-0.2,0-0.3-0.1l-10.8-7c-0.2-0.2-0.3-0.5-0.1-0.7c0.2-0.2,0.5-0.3,0.7-0.1l0,0l10.8,6.9
		c0.2,0.2,0.3,0.5,0.2,0.7C234.4,114.9,234.2,115,234,115z"/>
	<path class="st0" d="M238,113.7c-0.1,0-0.2,0-0.3-0.1l-10.9-7c-0.2-0.2-0.3-0.5-0.1-0.7c0.2-0.2,0.5-0.3,0.7-0.1l10.9,7
		c0.2,0.2,0.3,0.5,0.2,0.7C238.3,113.6,238.2,113.6,238,113.7z"/>
	<path class="st0" d="M243,112.3c-0.1,0-0.2,0-0.3-0.1l-11.7-6.9c-0.3-0.1-0.4-0.4-0.3-0.7c0.1-0.3,0.4-0.4,0.7-0.3
		c0,0,0.1,0,0.1,0.1l11.7,6.9c0.2,0.1,0.3,0.5,0.2,0.7C243.3,112.2,243.1,112.3,243,112.3L243,112.3z"/>
	<path class="st0" d="M246.5,111.1c-0.1,0-0.2,0-0.3-0.1l-11.7-6.9c-0.2-0.1-0.3-0.5-0.2-0.7c0.1-0.2,0.4-0.3,0.7-0.2c0,0,0,0,0,0
		l11.7,6.9c0.2,0.1,0.3,0.5,0.2,0.7C246.8,111,246.7,111.1,246.5,111.1L246.5,111.1z"/>
</g>
</svg>
