<?xml version="1.0" encoding="utf-8"?>
<!-- Generator: Adobe Illustrator 25.4.1, SVG Export Plug-In . SVG Version: 6.00 Build 0)  -->
<svg version="1.1" id="Calque_1" xmlns="http://www.w3.org/2000/svg" xmlns:xlink="http://www.w3.org/1999/xlink" x="0px" y="0px"
	 viewBox="0 0 310 271" style="enable-background:new 0 0 310 271;" xml:space="preserve">
<style type="text/css">
	.st0{fill:#FFFFFF;}
	.st1{fill:#231F20;}
	.st2{fill:#EBCA94;}
	.st3{fill:#D1D3D4;}
</style>
<g id="_002">
	<path class="st0" d="M228.4,163.6l-21.9,79.6c0,0-17.3,4.1-16.9,5.1s27.2,4.7,27.2,4.7l27.3-82.5"/>
	<path class="st1" d="M216.8,253.7L216.8,253.7c-27.3-3.7-27.6-4.7-27.7-5.1c-0.1-0.2,0-0.4,0.1-0.5c0.7-1.3,11.8-4,16.9-5.2
		l21.8-79.4c0.1-0.3,0.4-0.4,0.6-0.4c0.3,0.1,0.4,0.4,0.4,0.6c0,0,0,0,0,0L207,243.4c0,0.2-0.2,0.3-0.4,0.4
		c-6.9,1.6-14.2,3.6-16.2,4.5c2.9,0.9,16.9,3,26,4.3l27.1-82.1c0.1-0.3,0.4-0.4,0.6-0.3c0.3,0.1,0.4,0.4,0.3,0.6c0,0,0,0,0,0
		l-27.3,82.5C217.2,253.5,217,253.7,216.8,253.7z"/>
	<path class="st0" d="M275.1,160.3l5.7,92.9c0,0-27,5.9-27.1,5.2c-0.1-0.7,14.6-11.1,14.6-11.1l-11-85.8"/>
	<path class="st1" d="M253.9,258.8c-0.3,0-0.4,0-0.5-0.1c-0.1-0.1-0.2-0.2-0.2-0.4c-0.1-0.4-0.2-1,14.5-11.4l-11-85.5
		c0-0.3,0.2-0.5,0.4-0.6c0.3,0,0.5,0.2,0.6,0.4l11,85.8c0,0.2-0.1,0.4-0.2,0.5c-4.5,3.2-11.4,8.2-13.7,10.2
		c3.8-0.5,16.8-3.2,25.4-5.1l-5.6-92.3c0-0.3,0.2-0.5,0.5-0.5c0,0,0,0,0,0c0.3,0,0.5,0.2,0.5,0.5l5.7,92.9c0,0.3-0.1,0.5-0.4,0.5
		C260.1,258.2,255.2,258.8,253.9,258.8z"/>
	<path class="st0" d="M231.4,82.8c-1.4,0.4-2.8,0.9-4.2,1.2c-11.1,3.1-22.6,4.5-34.1,4.3c-3.8-0.1-9,0-12.5-1.6
		c-2.7-1.3-5.3-3.6-7.8-5.2c-0.6-0.4-1.7-0.8-2-0.1c-0.3,0.5,0.1,1.1,0.5,1.5c1.5,1.5,3.1,2.9,4.8,4.1c-3.3-0.6-6.6-0.9-9.9-0.9
		c-0.1,0-0.3,0-0.4,0.1c-0.4,0.3,0.1,0.8,0.5,1c1,0.4,2.1,0.8,3.1,1c-1-0.3-2-0.5-3-0.5c-0.5,0-1,0-1.2,0.5
		c-0.3,0.6,0.4,1.2,1.1,1.4c1,0.4,2,0.7,3,1c-1.2,0-2.4,0.1-3.6,0.5c-0.2,0-0.4,0.1-0.5,0.3c-0.1,0.2-0.1,0.3-0.1,0.5
		c0.2,1,1,1.7,2,1.9c1,0.1,2,0.3,2.9,0.5c-0.9,0.1-1.8-0.3-2.7-0.2s-1.9,0.8-1.7,1.7c0.2,0.9,1,1,1.8,1.2
		c14.9,3.4,30.3,4.6,45.5,3.8c7.6-0.4,15.2-1.3,22.8-2.7c6.8-1.3,13.7-2.4,18.3-8c0.4-0.4,0.7-0.9,1-1.3c1.1-1.5,1.6-3.3,1.4-5.1
		c-1.1-5.5-8.5-5-12.6-4.2C239.6,80.3,235.5,81.4,231.4,82.8z"/>
	<path class="st1" d="M204.1,101.5c-12.4,0-24.7-1.3-36.8-4.1c-0.8-0.2-2-0.6-2.2-1.6c-0.1-0.5,0-0.9,0.3-1.3
		c0.2-0.2,0.4-0.4,0.7-0.6c-0.9-0.3-1.5-1.1-1.6-2c0-0.3,0-0.6,0.2-0.9c0.2-0.2,0.5-0.4,0.8-0.5c0.4-0.1,0.7-0.2,1.1-0.3l-0.6-0.3
		c-0.6-0.2-1.1-0.6-1.4-1.2c-0.1-0.3-0.1-0.6,0-0.9c0.2-0.3,0.5-0.6,0.8-0.7c-0.2-0.2-0.3-0.4-0.4-0.7c0-0.3,0.1-0.6,0.3-0.8
		c0.2-0.1,0.5-0.2,0.7-0.2c2.7,0,5.4,0.2,8,0.6c-1.1-0.9-2.2-1.9-3.2-2.9c-1-1-0.9-1.7-0.6-2.1c0.2-0.3,0.4-0.5,0.8-0.6
		c0.7-0.1,1.4,0.1,2,0.5c0.9,0.6,1.8,1.2,2.6,1.9c1.6,1.3,3.4,2.4,5.2,3.3c3,1.4,7.4,1.5,10.9,1.6h1.4c11.5,0.2,22.9-1.3,34-4.3
		c1.2-0.3,2.5-0.7,4.2-1.2l2.4-0.8c3.3-1.1,6.7-2.1,10.1-2.8c3.6-0.7,12-1.6,13.2,4.6c0.3,1.7-0.2,3.5-1.5,5.5
		c-0.3,0.5-0.7,0.9-1,1.4c-4.5,5.6-11.3,6.9-17.8,8.1l-0.8,0.2c-7.5,1.4-15.2,2.3-22.8,2.7C210,101.4,207,101.5,204.1,101.5z
		 M167.5,94.5h-0.2c-0.4,0-0.8,0.2-1.1,0.6c-0.1,0.1-0.2,0.3-0.1,0.5c0.1,0.4,0.5,0.7,1.4,0.9c14.9,3.3,30.2,4.6,45.4,3.8
		c7.6-0.4,15.2-1.3,22.7-2.7l0.9-0.2c6.3-1.2,12.9-2.4,17.2-7.7c0.3-0.4,0.6-0.8,0.9-1.3c1.1-1.3,1.6-3.1,1.4-4.8
		c-1.1-5.3-8.8-4.4-12.1-3.8c-3.4,0.7-6.7,1.6-9.9,2.7l-2.4,0.8l0,0c-1.7,0.5-3,0.9-4.2,1.2c-11.2,3.1-22.7,4.6-34.3,4.4h-1.4
		c-3.6-0.1-8.1-0.2-11.3-1.7c-1.9-1-3.7-2.1-5.3-3.5c-0.9-0.6-1.7-1.3-2.6-1.8c-0.3-0.3-0.8-0.4-1.2-0.4c-0.1,0-0.1,0-0.1,0.1
		c-0.1,0.2,0.1,0.5,0.5,1c1.4,1.5,3,2.8,4.7,4.1c0.2,0.2,0.3,0.5,0.1,0.7c-0.1,0.2-0.3,0.2-0.5,0.2c-3.2-0.5-6.5-0.8-9.8-0.9
		c0.1,0.1,0.1,0.1,0.2,0.1c0.7,0.3,1.3,0.5,2,0.7c0.3,0.1,0.7,0.2,1,0.3c0.3,0.1,0.4,0.3,0.3,0.6c-0.1,0.3-0.3,0.4-0.6,0.4
		c-0.3-0.1-0.7-0.2-1-0.3c-0.7-0.1-1.3-0.2-2-0.3c-0.4,0-0.7,0-0.8,0.2c0,0,0,0.1,0,0.1c0.2,0.3,0.5,0.5,0.8,0.6c1,0.4,2,0.7,3,1
		c0.2,0.1,0.4,0.3,0.4,0.6c0,0.2-0.3,0.4-0.5,0.4c-1.1,0-2.3,0.1-3.4,0.4c-0.1,0-0.2,0.1-0.3,0.1l0,0c0,0.1,0,0.1,0,0.2
		c0.1,0.7,0.9,1.2,1.7,1.4c0.4,0.1,0.8,0.2,1.2,0.2c0.6,0.1,1.2,0.2,1.8,0.4c0.2,0.1,0.4,0.3,0.3,0.5c0,0.2-0.2,0.4-0.5,0.4
		c-0.5,0-1,0-1.4-0.1C168.1,94.6,167.8,94.6,167.5,94.5L167.5,94.5z M231.4,82.8L231.4,82.8z"/>
	<path class="st1" d="M200.8,242.9l3.7,5.6l14.2,1.7l-1.4,5.5c0,0-31.3-3.9-32.1-6.8S200.8,242.9,200.8,242.9z"/>
	<path class="st2" d="M239.1,74.6c0,0-9.8,2.3-12.8,8.4c-3,6.1,0.6,38.8,0.6,38.8l43.6,1.9c0,0,4.5-24.1,2.3-34.4
		S261.9,65.2,239.1,74.6z"/>
	<path class="st0" d="M240.4,69l-2.8,9.1c0,0,0.1,5.4,6,4.8c3.6-0.4,6.8-2.4,8.7-5.4l2.1-16.3c-0.9-0.8-1.5-1.9-1.7-3
		c-0.2-0.9-0.2-1.8,0-2.7c0.1-0.3,0.4-2.4,0.8-2.4c-2.3,0.4-4.6-0.4-6.3-2.1c-0.8-1-1.5-2.1-2-3.2c-0.5-0.7-0.7-1.6-0.5-2.4
		c-1.9,1.2-3.7,2.5-5.5,3.8c-1,0.7-1.9,1.5-2.6,2.5c-1.3,1.6-1.6,3.9-1.9,5.9c-0.4,2.4-0.6,4.8-0.5,7.2
		C234.4,69.1,240.4,69,240.4,69z"/>
	<path class="st1" d="M242.7,83.5c-1.4,0.1-2.7-0.4-3.8-1.3c-1.1-1.1-1.7-2.5-1.8-4c0,0,0-0.1,0-0.1l2.6-8.6
		c-2.3-0.2-5.8-1.3-5.9-4.9c-0.1-2.4,0.1-4.9,0.5-7.3c0.3-1.9,0.6-4.4,2-6.1c0.8-1,1.7-1.8,2.7-2.5c1.8-1.4,3.6-2.7,5.5-3.9
		c0.2-0.1,0.4-0.1,0.5,0c0.2,0.1,0.2,0.3,0.2,0.5c-0.1,0.7,0.1,1.5,0.5,2.1c0.5,1.1,1.2,2.2,2,3.1c1.5,1.6,3.7,2.3,5.8,2l0,0
		c0.3,0,0.5,0.1,0.5,0.4c0,0,0,0,0,0c0,0.2-0.1,0.4-0.3,0.5c-0.3,0.7-0.5,1.4-0.6,2.1c-0.1,0.8-0.1,1.7,0,2.6
		c0.2,1.1,0.7,2.1,1.5,2.8c0.1,0.1,0.2,0.3,0.2,0.4l-2.1,16.3c0,0.1,0,0.1-0.1,0.2c-2,3.2-5.4,5.3-9.1,5.7
		C243.3,83.5,243,83.5,242.7,83.5z M238.1,78.3c0.1,1.2,0.6,2.4,1.5,3.3c1.1,0.9,2.6,1.3,4.1,1c3.4-0.4,6.4-2.2,8.3-5.1l2-16
		c-0.9-0.8-1.5-2-1.7-3.2c-0.2-1-0.2-1.9,0-2.9c0.1-0.6,0.2-1.2,0.4-1.8c-2.2,0.1-4.2-0.8-5.7-2.3c-0.9-1-1.6-2.1-2.1-3.4
		c-0.3-0.5-0.5-1.1-0.6-1.8c-1.6,1-3.1,2.1-4.6,3.3c-0.9,0.7-1.8,1.4-2.5,2.3c-1.2,1.6-1.5,3.8-1.8,5.7c-0.4,2.3-0.5,4.7-0.5,7.1
		c0.1,4.1,5.4,4.1,5.6,4.1c0.1,0,0.3,0.1,0.4,0.2c0.1,0.1,0.1,0.3,0.1,0.4L238.1,78.3z M253.7,53.4L253.7,53.4z"/>
	<path class="st0" d="M251.3,59.9c0.3-0.7,0.7-1.2,1.4-1.6c0.6-0.3,1.2-0.5,1.9-0.6c0.4-0.1,0.7-0.1,1.1,0c0.2,0.1,0.5,0.2,0.7,0.4
		c0.5,0.3,0.9,0.9,1,1.4c0.1,0.5,0,1-0.1,1.5c-0.1,0.5-0.3,1-0.6,1.5c-1.2,1.9-3.7,2.5-5.6,1.4"/>
	<path class="st1" d="M253.1,64.6c-0.8,0-1.6-0.2-2.3-0.6c-0.2-0.1-0.3-0.4-0.1-0.6c0.1-0.2,0.4-0.3,0.5-0.1c0,0,0,0,0,0
		c1.7,1,3.9,0.5,5-1.2c0,0,0,0,0,0c0.2-0.4,0.4-0.9,0.5-1.4c0.1-0.4,0.2-0.8,0.1-1.3c-0.1-0.5-0.5-0.9-0.9-1.2
		c-0.2-0.1-0.3-0.2-0.5-0.3c-0.3,0-0.6,0-0.9,0.1c-0.6,0.1-1.2,0.3-1.8,0.6c-0.5,0.3-1,0.8-1.2,1.4c-0.1,0.2-0.3,0.3-0.5,0.2
		c0,0,0,0,0,0c-0.2-0.1-0.3-0.3-0.2-0.5c0,0,0,0,0,0c0.3-0.8,0.8-1.4,1.5-1.8c0.6-0.3,1.3-0.6,2-0.7c0.4-0.1,0.9-0.1,1.3,0
		c0.3,0.1,0.6,0.2,0.8,0.4c0.6,0.4,1,1,1.2,1.7c0.1,0.6,0,1.1-0.1,1.6c-0.1,0.6-0.4,1.1-0.6,1.6c-0.6,1-1.6,1.7-2.7,2
		C253.9,64.6,253.5,64.6,253.1,64.6z"/>
	<path class="st1" d="M239,73.3c2.1,0.5,4.4,0.1,6.2-1.1c1.6-1.1,2.7-2.8,3-4.7c0,0-4.5,2.9-8.2,1.6L239,73.3z"/>
	<path class="st1" d="M240.9,74c-0.7,0-1.4-0.1-2-0.3c-0.2-0.1-0.4-0.3-0.3-0.5l0.9-4.3c0-0.1,0.1-0.2,0.2-0.3
		c0.1-0.1,0.2-0.1,0.4,0c3.4,1.2,7.8-1.5,7.8-1.6c0.1-0.1,0.3-0.1,0.5,0c0.1,0.1,0.2,0.2,0.2,0.4c-0.3,2.1-1.4,3.9-3.1,5.1
		C244.1,73.5,242.5,74,240.9,74z M239.5,72.9c1.9,0.4,3.8-0.1,5.4-1.2c1.2-0.8,2.2-2.1,2.6-3.5c-1.4,0.8-4.5,2-7.3,1.3L239.5,72.9z"
		/>
	<path class="st0" d="M244,53.4c0,0-3.8,4-3.2,4.9c0.6,0.9,2.7,0.7,2.7,0.7"/>
	<path class="st1" d="M243.1,59.4c-0.7,0-2.1-0.1-2.6-1c-0.6-1,1.4-3.5,3.2-5.5c0.2-0.2,0.5-0.2,0.6,0c0.2,0.2,0.2,0.5,0,0.6
		c-1.8,1.9-3.2,3.9-3.1,4.4c0.3,0.5,1.7,0.5,2.3,0.5c0.2,0,0.5,0.2,0.5,0.4c0,0.2-0.2,0.5-0.4,0.5C243.4,59.4,243.2,59.5,243.1,59.4
		z"/>
	<ellipse transform="matrix(0.3733 -0.9277 0.9277 0.3733 105.5425 265.1171)" class="st1" cx="249" cy="54.4" rx="1.1" ry="0.8"/>
	
		<ellipse transform="matrix(0.3733 -0.9277 0.9277 0.3733 100.1364 256.0717)" class="st1" cx="239.6" cy="53.9" rx="1.1" ry="0.8"/>
	<path class="st1" d="M238.3,61.3l7.5-0.3c0,0-0.2,5.1-4.6,5.5C236.9,66.9,238.3,61.3,238.3,61.3z"/>
	<path class="st1" d="M266.2,123.2c0,0,10.5,11.7,13.5,24.7c6.2,27.2,6.4,68.8,6.4,68.8l-80-5.7l19-89.9L266.2,123.2z"/>
	<path class="st1" d="M280.8,117.1c-1.6,0-3.2-0.3-4.7-0.8c-0.3-0.1-0.4-0.4-0.3-0.7c0.1-0.3,0.4-0.4,0.7-0.3l0,0
		c5.9,1.8,12.3-0.1,16.1-4.9c3.7-4.9,4.6-11.4,2.3-17.1c-2.3-5.7-7.2-9.8-12-13.8c-0.8-0.7-1.7-1.4-2.5-2.1
		c-6-5.1-9.1-10.2-10.7-16.9c-1.5-6.3-3.2-12.8-6.6-17.6c-2.8-4-9.8-8.5-14.9-6.4c-1.6,0.7-3.1,1.7-4.4,2.9
		c-0.1,0.1-0.3,0.1-0.4,0.1c-2.8-0.5-5.6-0.5-8.4-0.1c-2.7,0.4-5.2,1.9-6.9,4.1c-1.4,2.3-2.1,5.1-1.8,7.8c0.1,0.8,0.3,1.7,0.9,1.8
		c0.3,0,0.5,0.3,0.5,0.6c0,0.3-0.3,0.5-0.6,0.5c0,0,0,0,0,0c-1-0.1-1.7-1.2-1.8-2.8c-0.3-3,0.4-5.9,2-8.4c1.8-2.4,4.5-4.1,7.5-4.5
		c2.8-0.5,5.7-0.5,8.5,0c1.3-1.2,2.8-2.2,4.5-2.9c5.7-2.3,13.1,2.4,16.2,6.8c3.5,4.9,5.3,11.6,6.8,18c1.5,6.4,4.6,11.4,10.4,16.4
		c0.8,0.7,1.6,1.4,2.5,2.1c4.9,4.1,9.9,8.3,12.3,14.2c2.5,6,1.5,13-2.5,18.1C290.3,114.8,285.7,117,280.8,117.1z"/>
	<path class="st1" d="M283.3,254.4l-0.8-5.6l-16.5,4.5l-3.2-4.2c0,0-12.1,8.8-10.4,10.7C254.1,261.8,271.9,258.2,283.3,254.4z"/>
	<path class="st3" d="M204.7,164.3c-0.2,0-0.3-0.1-0.4-0.2l-15-21.6c-0.2-0.2-0.1-0.5,0.1-0.7c0.2-0.2,0.5-0.1,0.7,0.1c0,0,0,0,0,0
		l15,21.6c0.2,0.2,0.1,0.5-0.1,0.7c0,0,0,0,0,0C204.9,164.3,204.8,164.3,204.7,164.3z"/>
	<path class="st3" d="M205.2,40.3c-0.3,0-0.5-0.2-0.5-0.5c0-0.1,0-0.2,0.1-0.3l16.2-21c0.2-0.2,0.5-0.3,0.7-0.1
		c0.2,0.2,0.3,0.5,0.1,0.7c0,0,0,0,0,0l-16.2,21C205.5,40.2,205.3,40.3,205.2,40.3z"/>
	<polygon class="st1" points="79.7,134.9 105.7,244.9 83.1,250.3 58.3,161.5 51,252.7 27.6,251.5 26.8,124.1 	"/>
	<path class="st0" d="M72.6,78.3c-0.2,0.6,45.7,7.2,45.7,7.2l-3.3,14.6c0,0-30.1-3.3-46-5.9L72.6,78.3z"/>
	<path class="st1" d="M115,100.6L115,100.6c-0.4,0-30.3-3.3-46.1-5.9c-0.1,0-0.3-0.1-0.3-0.2c-0.1-0.1-0.1-0.3-0.1-0.4l3.6-15.9l0,0
		c0.1-0.3,0.3-0.4,0.6-0.4c0.1,0,0.1,0.1,0.2,0.1c1.9,0.7,28.1,4.6,45.4,7.1c0.1,0,0.3,0.1,0.3,0.2c0.1,0.1,0.1,0.3,0.1,0.4
		l-3.3,14.6C115.4,100.5,115.2,100.6,115,100.6z M69.6,93.8c14.8,2.3,41.2,5.3,45,5.7l3-13.6c-34-4.9-42.5-6.4-44.7-7L69.6,93.8z"/>
	<path class="st2" d="M46.4,72.5c0.2-0.6,28,5.4,28,5.4l-1,20.8l-19-6.8C54.3,91.9,45.1,76.3,46.4,72.5z"/>
	<path class="st2" d="M64.7,84.9c-0.4-1.1-5.7-12.8-21-13.1s-21.7-1-24.9,18.3c-3.4,20.4,7.2,56.1,7.2,56.1L84.4,133
		C84.4,133,68.7,95.9,64.7,84.9z"/>
	<path class="st0" d="M156.6,57l21.5,0.9c-2.4,8.1-0.5,14.8,5.3,19.2c6.1,4.5,14.4,4.8,20.8,0.8c6.1-3.8,8.5-10.4,6.8-18.6l17.3,0.8
		l-3.1,71.7l-71.7-3.1c0-0.6,0-1.1,0.1-1.7c0.3-7,0.6-13.9,0.9-20.9c0-1.1-0.1-2.1-0.5-3.1c-0.5-1.5-2.2-2.2-3.6-1.7
		c-0.2,0.1-0.3,0.1-0.4,0.2c-5,2.2-10.9,0.7-14.2-3.6c-3.4-4.4-3.3-10.5,0.1-14.9c3.3-4.3,9.2-5.6,14.1-3.2c3.4,1.7,5.7,0.3,5.9-3.4
		c0.3-6.1,0.5-12.1,0.8-18.1C156.6,57.8,156.6,57.5,156.6,57z"/>
	<path class="st1" d="M225.2,132.3L225.2,132.3l-71.7-3.1c-0.1,0-0.3-0.1-0.4-0.2c-0.1-0.1-0.1-0.2-0.1-0.4l0.3-6.8
		c0.2-5.2,0.5-10.5,0.6-15.8c0-1-0.1-2-0.5-2.9c-0.2-0.6-0.7-1.1-1.3-1.4c-0.7-0.2-1.5-0.2-2.1,0.2c-5.2,2.3-11.3,0.7-14.8-3.8
		c-3.5-4.6-3.5-11,0.1-15.5c3.5-4.4,9.6-5.8,14.6-3.3c1.5,0.7,2.8,0.9,3.7,0.3c0.9-0.5,1.4-1.7,1.5-3.3c0.2-4.2,0.4-8.5,0.6-12.7
		c0.1-1.8,0.2-3.6,0.2-5.4V57c0-0.1,0.1-0.3,0.2-0.4c0.1-0.1,0.2-0.1,0.4-0.1l21.5,0.9c0.2,0,0.3,0.1,0.4,0.2
		c0.1,0.1,0.1,0.3,0.1,0.4c-2.3,7.9-0.5,14.4,5.2,18.7c6,4.4,14,4.7,20.3,0.8c5.8-3.7,8.2-10.2,6.6-18.1c0-0.2,0-0.3,0.1-0.4
		c0.1-0.1,0.2-0.2,0.4-0.2l17.3,0.8c0.1,0,0.3,0.1,0.4,0.2c0.1,0.1,0.1,0.2,0.1,0.4l-3.1,71.7c0,0.1-0.1,0.3-0.2,0.4
		C225.5,132.3,225.4,132.3,225.2,132.3z M154,128.2l70.7,3l3-70.7l-16-0.7c1.4,8.1-1.1,14.7-7.2,18.5c-6.6,4.1-15.1,3.7-21.4-0.9
		c-5.9-4.4-7.9-11-5.7-19.1l-20.4-0.9v0.8c-0.1,1.8-0.2,3.6-0.2,5.4c-0.2,4.2-0.4,8.5-0.6,12.7c-0.1,2-0.8,3.5-2,4.2
		s-2.8,0.6-4.6-0.3c-4.6-2.3-10.2-1-13.4,3c-3.3,4.1-3.4,10-0.1,14.2c3.2,4.1,8.8,5.6,13.5,3.5c0.9-0.5,2-0.5,2.9-0.2
		c0.9,0.4,1.5,1.1,1.8,1.9c0.4,1.1,0.6,2.2,0.5,3.3c-0.2,5.3-0.4,10.5-0.7,15.8L154,128.2z"/>
	<path class="st0" d="M140.4,57.5l2.2,17.6c-8.3-1.1-15,1.9-18.4,8.4c-3.5,6.7-2.6,14.8,2.4,20.5c5.1,5.7,12.3,7.1,20.1,4.1
		l2.6,21.2L70.9,139l-9-71.8l24.8-3c3-0.3,5.2-3.1,4.8-6.1c0-0.2-0.1-0.5-0.1-0.7c-0.3-1.1-0.7-2.1-1.2-3.1
		C87,48.5,89.1,41.2,94.9,38c3.5-2,7.8-2,11.4-0.2c4.8,2.5,7.4,7.7,6.4,13c-0.2,1-0.4,2-0.6,3c-0.5,3.4,2.5,7.3,6.6,6.4
		S136.2,58,140.4,57.5z"/>
	<path class="st1" d="M70.9,139.5c-0.1,0-0.2,0-0.3-0.1c-0.1-0.1-0.2-0.2-0.2-0.3l-9-71.8c0-0.3,0.2-0.5,0.4-0.6c0,0,0,0,0,0
		l1.7-0.2l23.1-2.9c1.4-0.2,2.7-1,3.6-2.2c0.8-1.2,1-2.6,0.7-4c-0.3-1.1-0.7-2.1-1.2-3c-3.3-6.1-1.1-13.6,5-16.9c3.6-2,8-2,11.7-0.1
		c4.9,2.6,7.6,8,6.7,13.5c-0.1,0.4-0.2,0.9-0.2,1.3c-0.1,0.4-0.2,1.1-0.3,1.7c-0.2,1.7,0.4,3.4,1.7,4.6c1.1,1.1,2.8,1.6,4.3,1.2
		c3-0.6,11.2-1.6,17.1-2.2l4.7-0.5c0.3,0,0.5,0.2,0.6,0.4l2.2,17.6c0,0.3-0.1,0.5-0.4,0.6c-0.1,0-0.1,0-0.2,0
		c-8-1.1-14.6,1.9-17.9,8.1c-3.4,6.5-2.5,14.4,2.3,19.9c4.9,5.5,12,6.9,19.6,3.9c0.3-0.1,0.5,0,0.7,0.3c0,0,0,0.1,0,0.1l2.6,21.2
		c0,0.1,0,0.3-0.1,0.4c-0.1,0.1-0.2,0.2-0.3,0.2L70.9,139.5L70.9,139.5z M62.6,67.7l8.8,70.7l77.4-9.7l-2.5-20.1
		c-7.7,2.9-15,1.3-20.1-4.4c-5.1-5.9-6-14.2-2.5-21.1c3.4-6.5,10.1-9.7,18.3-8.8L140,58l-4.2,0.5c-5.6,0.6-14,1.6-17,2.2
		c-1.9,0.4-3.9-0.1-5.2-1.5c-1.5-1.4-2.2-3.4-2-5.5c0.1-0.6,0.2-1.2,0.3-1.7l0.2-1.3c0.9-5-1.6-10.1-6.1-12.4
		c-5.6-2.9-12.5-0.7-15.5,4.9c-1.8,3.4-1.7,7.4,0.1,10.8c0.5,1,1,2.1,1.3,3.2c0.4,1.6,0.1,3.4-0.8,4.8c-1,1.4-2.5,2.4-4.3,2.6
		l-23.1,2.9L62.6,67.7z"/>
	<path class="st0" d="M50.8,79.7v-6.8c0,0,9.9,2,8.6-9.1S53.9,48,53.2,48.3l-13.8,4.1l-1.3,26.1C38.1,78.5,44.9,89.2,50.8,79.7z"/>
	<path class="st1" d="M45.4,84.1c-4.2,0-7.5-5.1-7.7-5.3c-0.1-0.1-0.1-0.2-0.1-0.3l1.3-26.1c0-0.2,0.2-0.4,0.4-0.5l13.8-4.1
		c0.3-0.1,0.6,0,0.9,0.2c1.8,1.2,5,6.5,6.1,15.7c0.4,3.7-0.3,6.4-2.1,8c-2.2,2-5.2,1.9-6.5,1.8v6.2c0,0.1,0,0.2-0.1,0.3
		C49.6,82.7,47.6,84.1,45.4,84.1L45.4,84.1z M38.6,78.4c0.5,0.8,3.4,4.8,6.7,4.8l0,0c1.8,0,3.5-1.2,5-3.6v-6.7
		c0-0.2,0.1-0.3,0.2-0.4c0.1-0.1,0.3-0.1,0.4-0.1c0,0,3.9,0.7,6.2-1.4c1.6-1.4,2.2-3.8,1.8-7.1c-1.1-10.1-4.7-14.6-5.7-15l-13.4,3.9
		L38.6,78.4z M50.8,79.7L50.8,79.7z"/>
	<path class="st0" d="M40,59.7c-0.5-2.1-3.6-2.9-5.2-1.3c-1.4,1.7-1.3,4.2,0.4,5.6c0,0,0.1,0.1,0.1,0.1c1.8,1.3,4.3,1.3,6.1,0"/>
	<path class="st1" d="M38.2,65.5c-1.1,0-2.3-0.3-3.2-1c-1-0.8-1.6-2.1-1.7-3.4c-0.1-1.1,0.4-2.2,1.1-3c1-0.9,2.4-1.2,3.7-0.8
		c1.2,0.3,2.1,1.2,2.4,2.4c0.1,0.3-0.1,0.6-0.4,0.6s-0.6-0.1-0.6-0.4l0,0c-0.2-0.8-0.9-1.4-1.7-1.6c-0.9-0.3-1.9-0.1-2.6,0.5
		c-0.6,0.6-0.9,1.5-0.8,2.3c0,1,0.5,2,1.3,2.6c1.6,1.1,3.8,1.1,5.4-0.1c0.2-0.2,0.5-0.2,0.7,0c0.2,0.2,0.2,0.5,0,0.7
		c0,0-0.1,0.1-0.1,0.1C40.6,65.2,39.4,65.5,38.2,65.5z"/>
	<path class="st0" d="M49.1,57.1c0.8,1.1,1.6,2.2,2.3,3.3c0.4,0.5,0.6,1.2,0.5,1.8c-0.3,0.5-0.8,0.9-1.3,0.9c-0.5,0.2-1,0-1.3-0.3"
		/>
	<path class="st1" d="M50.2,63.7c-0.5,0-1-0.2-1.2-0.6c-0.1-0.2-0.1-0.5,0.2-0.6c0.2-0.1,0.5-0.1,0.6,0.2c0.1,0.2,0.5,0.2,0.8,0.1
		c0.3-0.1,0.8-0.2,1-0.6c0.2-0.4-0.1-0.9-0.4-1.4c-0.7-1.1-1.5-2.2-2.3-3.3c-0.2-0.2-0.1-0.5,0.1-0.6s0.5-0.1,0.6,0.1
		c0.9,1.1,1.7,2.2,2.4,3.4c0.5,0.6,0.7,1.4,0.5,2.2c-0.3,0.7-0.9,1.1-1.6,1.2C50.6,63.6,50.4,63.7,50.2,63.7z"/>
	
		<ellipse transform="matrix(1 -1.047197e-03 1.047197e-03 1 -5.902338e-02 4.832877e-02)" class="st1" cx="46.1" cy="56.4" rx="0.6" ry="0.8"/>
	
		<ellipse transform="matrix(0.9961 -8.854660e-02 8.854660e-02 0.9961 -4.7337 4.8858)" class="st1" cx="52.7" cy="55.8" rx="0.6" ry="0.8"/>
	<path class="st1" d="M31.7,61.1c-0.7,0-1.6-0.4-2.5-2c-1-1.6-1.7-3.3-2.1-5.1c-0.4-1.9,0.2-3.9,1.4-5.3c1.2-1.2,2.9-1.6,4.5-1.1
		c-0.1-2.5,0.7-5,2.4-6.9c1.9-2.1,4.1-3.8,6.6-4.9c3-1.5,6.1-2.8,9.3-3.7c2-0.8,4.3-0.9,6.4-0.4c3.6,1.1,5.4,5.1,5.6,8.2
		c0.2,4.8-2.1,9.3-6.1,12c-0.2,0.2-0.6,0.1-0.7-0.2c-0.2-0.2-0.1-0.6,0.2-0.7c0,0,0,0,0,0c3.7-2.4,5.8-6.6,5.6-11
		c-0.2-2.9-1.8-6.4-4.9-7.3c-1.9-0.4-3.9-0.3-5.8,0.4c-3.2,0.9-6.2,2.1-9.1,3.6c-2.4,1.1-4.6,2.7-6.3,4.6c-1.7,1.9-2.4,4.6-2,7.1
		c0.1,0.2,0,0.5-0.2,0.6c-0.2,0.1-0.4,0.1-0.6,0c-1.3-0.9-3-0.7-4.1,0.4c-1.1,1.2-1.5,2.9-1.1,4.5c0.4,1.7,1,3.2,1.9,4.7
		c0.4,0.7,1.1,1.6,1.8,1.4c0.3-0.1,0.6,0.1,0.6,0.4c0.1,0.3-0.1,0.6-0.4,0.6c0,0,0,0,0,0C32,61.1,31.9,61.1,31.7,61.1z"/>
	<path class="st1" d="M50.8,72.8c-2.4-0.6-4.8-1.5-7-2.8c0,0-0.1,4.6,6.9,6.7L50.8,72.8z"/>
	<path class="st1" d="M50.8,77.3h-0.1c-7.3-2.3-7.2-7-7.2-7.2c0-0.2,0.1-0.3,0.2-0.4c0.1-0.1,0.3-0.1,0.4,0c2.2,1.2,4.4,2.1,6.8,2.7
		c0.2,0,0.3,0.2,0.3,0.4l-0.1,4c0,0.1-0.1,0.3-0.2,0.3C50.9,77.3,50.8,77.3,50.8,77.3z M44.4,70.9c0.3,1.3,1.5,3.8,5.9,5.3l0.1-3
		C48.3,72.6,46.3,71.9,44.4,70.9z"/>
	<path class="st0" d="M32.6,106.1c0,0,24.2,27.9,39.3,20.9c15-6.9,37.3-34.3,37.3-34.3s7-7.3,5.6-7.7c-1.4-0.4-6,4.1-6,4.1
		s5.2-6.2,3.2-6.2c-2,0-5.8,4.6-5.8,4.6s6.2-7,3.6-6.6s-5.8,4.2-5.8,4.2s6.2-6,3.8-5.8s-8.8,6.2-8.8,6.2s2.6-6,0.6-5.8
		s-2.4,5.6-5.5,8.4c-3,2.8-22.4,21.4-26,21.2c-3.6-0.2-19.6-17.4-19.6-17.4"/>
	<path class="st1" d="M66.6,128.7c-5.6,0-12.4-3-20.3-9.1c-5.1-4-9.8-8.3-14.1-13.1c-0.2-0.2-0.2-0.5,0-0.7c0.2-0.2,0.5-0.2,0.7,0
		c0,0,0,0,0,0c0.2,0.3,24.2,27.5,38.7,20.8c14.7-6.8,36.9-33.9,37.1-34.1c2.5-2.6,5.2-5.8,5.6-6.9c-0.9,0.2-3.4,2-5.3,3.9
		c-0.2,0.2-0.5,0.2-0.7,0c-0.2-0.2-0.2-0.5,0-0.7c1.9-2.3,3.5-4.7,3.6-5.4c-1.1,0.1-3.2,1.9-4.6,3.5l-0.8,0.9
		c-0.2,0.2-0.5,0.2-0.7,0c-0.2-0.2-0.2-0.5-0.1-0.7c0.1-0.1,0.3-0.4,0.7-0.8c1.7-2,3.3-4.3,3.4-5l0,0c-1.4,0.4-2.6,1.1-3.7,2.2
		c-0.6,0.7-1.3,1.3-1.9,1.9c-0.2,0.2-0.5,0.2-0.7,0c-0.2-0.2-0.2-0.5,0-0.7c0.6-0.6,1.2-1.3,1.8-1.8c0.9-0.9,1.8-2,2.4-3.1
		c-1.8,0.2-6.7,4.4-8.5,6.1c-0.2,0.2-0.5,0.2-0.7,0c-0.1-0.1-0.2-0.4-0.1-0.5c0.9-2,1.6-4.6,1.2-5.1c0,0,0,0-0.1,0
		c-0.7,0.1-1.3,1.5-1.9,3c-0.7,2-1.8,3.8-3.2,5.3l-1,1c-14.9,14.1-22.9,20.5-25.4,20.4c-3.7-0.2-18.3-15.8-20-17.6
		c-0.2-0.2-0.2-0.5,0-0.7c0,0,0,0,0,0c0.2-0.2,0.5-0.2,0.7,0c0,0,0,0,0,0c6.4,6.9,16.8,17.1,19.3,17.3c1.4,0.1,6.8-3.4,24.6-20.1
		l1-1c1.3-1.4,2.3-3.1,2.9-5c0.8-1.9,1.5-3.5,2.8-3.6c0.4,0,0.8,0.1,1,0.4c0.6,0.8,0.2,2.6-0.4,4.1c2.1-1.8,5.7-4.8,7.6-4.9
		c0.4-0.1,0.8,0.1,1,0.5c0.2,0.4,0,0.9-0.4,1.6c0.4-0.2,0.9-0.3,1.3-0.4c0.4-0.1,0.9,0,1.1,0.4c0.2,0.4,0,1.2-0.6,2.2
		c0.5-0.3,1.1-0.6,1.7-0.6c0.4,0,0.7,0.2,0.9,0.5c0.3,0.6-0.2,1.7-1,3c1.2-0.8,2.4-1.5,3-1.3c0.3,0.1,0.5,0.3,0.5,0.5
		c0.3,1.3-3.6,5.6-5.9,8c-0.9,1.1-22.5,27.5-37.4,34.4C70.3,128.2,68.4,128.6,66.6,128.7z"/>
	<path class="st1" d="M53.8,67.6c-0.1,0.2-0.2,0.3-0.3,0.5c-2.8,3.3-6,0.2-7.8-2.2c0.2,0.3,3.9-0.8,4.3-0.9l4.6-1
		C54.8,65.2,54.6,66.6,53.8,67.6z"/>
	<path class="st0" d="M83.1,249.5l0.8,8.5c0,0,39.5-5.6,37.9-7.2c-1.7-1.7-16-5.8-16-5.8"/>
	<path class="st1" d="M83.9,258.5c-0.1,0-0.2,0-0.3-0.1c-0.1-0.1-0.2-0.2-0.2-0.4l-0.8-8.5c0-0.3,0.2-0.5,0.5-0.6
		c0.3,0,0.5,0.2,0.6,0.5l0.7,8c13.2-1.9,33.7-5.1,36.7-6.5c-2-1.3-10.2-3.9-15.5-5.4c-0.3-0.1-0.4-0.3-0.3-0.6c0,0,0,0,0,0
		c0.1-0.3,0.4-0.4,0.6-0.4c1.5,0.4,14.5,4.2,16.2,5.9c0.2,0.2,0.2,0.4,0.2,0.7C121.6,252.9,98,256.5,83.9,258.5L83.9,258.5z"/>
	<path class="st0" d="M51,252.7v6.9l-35.8,0.3c0,0,6.3-6,12.3-8.4"/>
	<path class="st1" d="M15.3,260.4c-0.3,0-0.5-0.2-0.5-0.5c0-0.1,0.1-0.3,0.2-0.4c0.3-0.2,6.4-6.1,12.5-8.5c0.3-0.1,0.6,0,0.7,0.3
		c0,0,0,0,0,0c0.1,0.3,0,0.6-0.3,0.7c-4.5,1.8-9.2,5.7-11.2,7.4l33.9-0.3v-6.4c0-0.3,0.2-0.5,0.5-0.5s0.5,0.2,0.5,0.5v6.9
		c0,0.3-0.2,0.5-0.5,0.5L15.3,260.4L15.3,260.4z"/>
	<path class="st0" d="M53.8,160.9c-2.7,0-4.4-0.1-4.4-0.1c-0.3,0-0.5-0.3-0.5-0.5c0-0.3,0.3-0.5,0.5-0.5c0,0,0,0,0,0
		c4.9,0.2,9.8,0.1,14.7-0.4c0.3,0,0.5,0.2,0.5,0.4c0,0,0,0,0,0c0,0.3-0.2,0.5-0.4,0.6C60.3,160.8,56.5,160.9,53.8,160.9z"/>
	<path class="st3" d="M104.5,162.9c-0.1,0-0.2,0-0.3-0.1c-0.2-0.2-0.3-0.5-0.1-0.7l10.2-13.2c0.2-0.2,0.5-0.3,0.7-0.1
		c0.2,0.2,0.3,0.5,0.1,0.7l-10.2,13.2C104.8,162.9,104.6,162.9,104.5,162.9z"/>
	<path class="st3" d="M158.4,204.6c-0.3,0-0.5-0.2-0.5-0.5l-3-53.5c0-0.3,0.2-0.5,0.5-0.5c0.3,0,0.5,0.2,0.5,0.5c0,0,0,0,0,0l3,53.5
		C159,204.4,158.8,204.6,158.4,204.6C158.5,204.6,158.5,204.6,158.4,204.6L158.4,204.6z"/>
	<path class="st0" d="M254.4,81.3c-0.6,1-1.1,2-1.6,3c-4.4,9.3-10.2,20.9-21.7,22.5c-8.1,1.2-16.4-0.4-24-3
		c-2.4-0.8-4.6-1.9-6.6-3.4c-2.4-1.8-4.5-4.6-6.6-6.8c-0.5-0.6-1.5-1.1-2-0.5c-0.5,0.6-0.1,1.1,0.2,1.6c1.1,1.8,2.4,3.4,3.8,5
		c-1.7-0.7-3.5-1.3-5.2-1.8c-1.5-0.6-3.1-1-4.7-1.3c-0.3,0-0.6,0.1-0.8,0.3c-0.2,0.2-0.3,0.5-0.2,0.8c0.1,0.1,0.2,0.2,0.3,0.3
		c1.2,0.8,2.5,1.4,3.9,1.8c-1.2-0.6-2.5-0.9-3.8-1c-0.6,0-1.3,0.1-1.5,0.6c-0.2,0.5,0.4,1.1,0.9,1.5c1.2,0.7,2.5,1.3,3.8,1.7
		c-1-0.5-2.1-1-3.2-1.3c-0.7-0.2-1.6-0.4-2,0.2c-0.3,0.4-0.3,0.9,0,1.3c0.3,0.4,0.6,0.7,1,0.9c1.1,0.7,2.2,1.2,3.4,1.6l-3.2-1.1
		c-0.5-0.2-1-0.2-1.5,0c-0.5,0.4-0.3,1.3,0.1,1.8c0.8,0.9,1.8,1.6,3,2c1.5,0.7,3,1.3,4.6,1.9c10.4,4.1,19.4,9.8,30.8,10.8
		c12.6,1,26.6-2.4,36-11.2c5.7-5.3,11.5-14.5,10.5-22.7c-0.3-2.7-0.8-6.4-3.1-8.1c-2.5-1.9-7.1-1-9.1,1.2
		C255.1,80.2,254.7,80.7,254.4,81.3z"/>
	<path class="st1" d="M225.9,121.3c-1.5,0-3-0.1-4.6-0.2c-8.2-0.7-15-3.8-22.3-7.1c-2.8-1.3-5.7-2.6-8.6-3.7l-1-0.4
		c-1.2-0.5-2.5-1-3.6-1.5l-0.6-0.3c-1-0.4-1.9-1-2.6-1.8c-0.7-0.7-0.7-1.8,0-2.5c0.2-0.1,0.4-0.2,0.6-0.3c-0.2-0.1-0.3-0.3-0.4-0.5
		c-0.4-0.6-0.4-1.3,0-1.9c0.2-0.3,0.5-0.5,0.8-0.5c-0.3-0.4-0.5-0.9-0.3-1.4c0.2-0.6,0.8-0.9,1.4-1c-0.5-0.4-0.6-1.1-0.2-1.6
		c0.1-0.1,0.1-0.1,0.2-0.2c0.3-0.3,0.7-0.4,1.1-0.4c1.4,0.2,2.8,0.5,4.1,1l0.8,0.3c1.1,0.3,2.3,0.7,3.4,1.1
		c-0.9-1.1-1.8-2.3-2.5-3.5c-0.7-1.2-0.5-1.8-0.2-2.2c0.2-0.3,0.5-0.4,0.9-0.4c0.7,0.1,1.4,0.4,1.8,0.9c0.7,0.7,1.5,1.6,2.2,2.4
		c1.3,1.6,2.8,3,4.4,4.4c2,1.4,4.2,2.5,6.5,3.3c8.7,3,16.7,4.1,23.8,3c11.6-1.7,17.4-14.1,21.3-22.3c0.5-1,1-2.1,1.6-3l0,0
		c0.4-0.6,0.8-1.2,1.3-1.7c2.2-2.3,7-3.3,9.8-1.2c2.5,1.9,3,5.6,3.3,8.4v0.2c1,8.1-4.6,17.5-10.7,23.2
		C249.9,117.1,238.3,121.3,225.9,121.3z M183.6,104.5c-0.1,0-0.2,0-0.3,0.1c-0.2,0.2-0.1,0.7,0.2,1.1c0.6,0.7,1.3,1.2,2.2,1.5
		l0.6,0.3c1.2,0.6,2.3,1.1,3.5,1.5l1,0.4c3,1.2,5.9,2.5,8.7,3.7c7.2,3.2,13.9,6.3,22,7c13.7,1.1,27.1-3,35.6-11
		c5.8-5.5,11.3-14.5,10.3-22.3v-0.2c-0.3-2.6-0.8-6.1-2.9-7.7c-2.3-1.7-6.6-0.8-8.5,1.1c-0.4,0.5-0.8,1-1.2,1.5l0,0
		c-0.6,1-1.1,1.9-1.6,3c-4,8.4-10,21.1-22.1,22.8c-7.3,1-15.4,0-24.2-3.1c-2.4-0.8-4.7-2-6.8-3.4c-1.6-1.3-3.1-2.9-4.5-4.5
		c-0.7-0.8-1.4-1.6-2.1-2.3c-0.3-0.3-0.7-0.5-1.1-0.6c-0.1,0-0.1,0-0.2,0.1c-0.1,0.2,0,0.5,0.3,1c1.1,1.8,2.3,3.4,3.7,5
		c0.2,0.2,0.2,0.4,0.1,0.6c-0.1,0.2-0.4,0.3-0.6,0.2c-1.7-0.7-3.5-1.3-5.2-1.8l-0.9-0.3c-1.2-0.4-2.4-0.8-3.7-1
		c-0.2,0-0.4,0.1-0.5,0.2c0,0-0.1,0.1-0.1,0.2c0,0,0.1,0.1,0.2,0.1c0.5,0.4,1.1,0.7,1.7,1c0.7,0.2,1.5,0.5,2.2,0.8
		c0.2,0.1,0.3,0.4,0.2,0.6c-0.1,0.2-0.4,0.4-0.6,0.3c-0.7-0.2-1.4-0.5-2.1-0.8c-0.5-0.1-1.1-0.2-1.6-0.2c-0.4,0-0.9,0.1-1,0.3
		c-0.1,0.2,0.3,0.6,0.7,0.9c0.2,0.2,0.5,0.3,0.7,0.4c1,0.4,2.1,0.8,3,1.3c0.2,0.1,0.3,0.4,0.2,0.6c-0.1,0.2-0.4,0.4-0.6,0.3
		c-1.1-0.3-2.1-0.7-3-1.3l-0.2-0.1c-0.3-0.1-1.2-0.3-1.4,0c-0.1,0.2-0.1,0.5,0.1,0.7c0.2,0.3,0.5,0.6,0.9,0.8c1,0.6,2,1.1,3.1,1.5
		l0.1,0.1c0.3,0.1,0.4,0.4,0.3,0.7c-0.1,0.2-0.3,0.4-0.6,0.3h-0.2l-3.2-1C184.1,104.6,183.8,104.5,183.6,104.5z M254.4,81.3
		L254.4,81.3z"/>
	<path class="st3" d="M150.5,43.6c-0.3,0-0.5-0.2-0.5-0.5V11.7c0-0.3,0.2-0.5,0.5-0.5c0.3,0,0.5,0.2,0.5,0.5v31.5
		C151,43.4,150.8,43.6,150.5,43.6z"/>
	<path class="st3" d="M88.8,38.5c-0.2,0-0.3-0.1-0.4-0.2l-9.1-12.6c-0.2-0.2-0.1-0.5,0.1-0.7c0.2-0.2,0.5-0.1,0.7,0.1l9.1,12.6
		c0.2,0.2,0.1,0.5-0.1,0.7C89,38.5,88.9,38.5,88.8,38.5z"/>
	<path class="st1" d="M30.1,104c-0.2,0-0.3-0.1-0.4-0.2c-3.9-5.2-7-10-7-10.1c-0.1-0.2-0.1-0.6,0.2-0.7c0,0,0,0,0,0
		c0.2-0.2,0.5-0.1,0.7,0.1c0,0,0,0,0,0c0,0,3.1,4.9,7,10c0.2,0.2,0.1,0.5-0.1,0.7C30.4,103.9,30.3,104,30.1,104z"/>
	<path class="st0" d="M277.6,198.1c-0.3,0-0.5-0.2-0.5-0.4c0-0.4-4.6-37.4-6.5-46.4c-0.1-0.3,0.1-0.6,0.4-0.6
		c0.3-0.1,0.6,0.1,0.6,0.4c1.9,9.1,6.4,46.2,6.5,46.5C278.2,197.9,278,198.1,277.6,198.1C277.7,198.1,277.7,198.1,277.6,198.1
		L277.6,198.1z"/>
</g>
</svg>
