<?xml version="1.0" encoding="utf-8"?>
<!-- Generator: Adobe Illustrator 25.4.1, SVG Export Plug-In . SVG Version: 6.00 Build 0)  -->
<svg version="1.1" id="Calque_1" xmlns="http://www.w3.org/2000/svg" xmlns:xlink="http://www.w3.org/1999/xlink" x="0px" y="0px"
	 viewBox="0 0 120 120" style="enable-background:new 0 0 120 120;" xml:space="preserve">
<style type="text/css">
	.st0{fill:#EBCA94;}
	.st1{fill:#FFFFFF;}
</style>
<circle class="st0" cx="60" cy="60" r="60"/>
<path class="st1" d="M58.7,45c0.4,0,0.9-0.1,1.3-0.1c8.3,0,15,6.6,15,15c0,8.3-6.7,15-15,15c-8.4,0-15-6.7-15-15
	c0-0.4,0-0.9,0.1-1.3c1.5,0.7,3.1,1.3,4.9,1.3c5.5,0,10-4.5,10-10C60,48.2,59.4,46.5,58.7,45z M90.1,37.6
	c7.3,6.8,12.2,14.7,14.5,20.5c0.5,1.2,0.5,2.6,0,3.8c-2.3,5.6-7.2,13.5-14.5,20.5C82.7,89.2,72.6,94.9,60,94.9s-22.7-5.7-30.1-12.6
	c-7.3-6.9-12.2-14.9-14.5-20.5c-0.5-1.2-0.5-2.6,0-3.8c2.3-5.7,7.2-13.7,14.5-20.5C37.3,30.7,47.4,25,60,25S82.7,30.7,90.1,37.6z
	 M60,37.5c-12.4,0-22.5,10.1-22.5,22.5c0,12.4,10.1,22.5,22.5,22.5S82.5,72.4,82.5,60C82.5,47.5,72.4,37.5,60,37.5z"/>
</svg>
