<?xml version="1.0" encoding="utf-8"?>
<!-- Generator: Adobe Illustrator 25.4.1, SVG Export Plug-In . SVG Version: 6.00 Build 0)  -->
<svg version="1.1" id="Calque_1" xmlns="http://www.w3.org/2000/svg" xmlns:xlink="http://www.w3.org/1999/xlink" x="0px" y="0px"
	 viewBox="0 0 56.7 56.7" style="enable-background:new 0 0 56.7 56.7;" xml:space="preserve">
<style type="text/css">
	.st0{fill:#0C7189;}
</style>
<g>
	<path class="st0" d="M27.1,0c0.7,0,1.5,0,2.2,0c0,0,0.1,0,0.1,0c1.9,0.2,3.7,0.7,5.3,1.6c3.6,2,6,4.9,7.3,8.7
		c0.4,1.4,0.6,2.8,0.6,4.3c0,1.4-0.1,2.9-0.4,4.3c-0.7,2.8-1.8,5.3-3.2,7.8c-2.4,4.5-4.9,9-7.4,13.5c-0.2,0.3-0.2,0.3,0.2,0.3
		c1.2,0,2.4,0.1,3.5,0.2c2,0.2,4.1,0.4,6.1,0.7c2.9,0.4,5.8,1,8.6,2c1.6,0.5,3.2,1.2,4.6,2.2c0.6,0.5,1.2,1,1.6,1.7
		c0.4,0.6,0.5,1.3,0.3,2c-0.2,0.7-0.6,1.2-1,1.7c-0.7,0.7-1.5,1.2-2.4,1.6c-2.4,1.2-5.1,2-7.7,2.5c-3.2,0.7-6.4,1.1-9.6,1.3
		c-2.1,0.2-4.2,0.3-6.3,0.3c-2,0-3.9,0-5.9-0.1c-1.3-0.1-2.6-0.1-3.9-0.3c-1.6-0.1-3.1-0.3-4.6-0.6c-2.8-0.4-5.7-1-8.4-1.9
		c-1.7-0.6-3.3-1.2-4.7-2.2c-0.9-0.7-1.7-1.4-2-2.6c0-0.3,0-0.6,0-0.9c0.2-0.9,0.8-1.6,1.5-2.2c1-0.9,2.2-1.5,3.5-2
		c3.5-1.4,7.2-2.2,11-2.7c1.5-0.2,2.9-0.4,4.4-0.5c1.4-0.1,2.8-0.2,4.2-0.3c0.4,0,0.4,0,0.2-0.4c-2.4-4.3-4.8-8.6-7.1-12.9
		c-1.2-2.2-2.2-4.4-3-6.7c-0.9-2.7-1.1-5.5-0.7-8.3C14.8,6.8,19,2.1,24.3,0.5C25.3,0.3,26.2,0.1,27.1,0z M28.4,53.4
		c2.6,0,5.2-0.1,7.8-0.4c2.1-0.2,4.1-0.5,6.2-1c2-0.4,3.9-1,5.7-1.9c0.8-0.4,1.6-0.9,2.2-1.5c0.4-0.4,0.7-0.9,0.7-1.5
		c0-0.8-0.4-1.4-0.9-1.9c-0.6-0.5-1.2-0.9-1.9-1.3c-2.3-1.2-4.8-1.8-7.3-2.3c-1.7-0.3-3.4-0.5-5.1-0.7c-1.3-0.1-2.6-0.2-3.8-0.3
		c-0.3,0-0.5,0.1-0.7,0.4c-0.9,1.7-1.9,3.3-2.8,5c-0.2,0.4-0.2,0.4-0.4,0c-0.9-1.6-1.9-3.3-2.8-4.9c-0.2-0.3-0.4-0.4-0.8-0.4
		c-1,0.1-2,0.2-3,0.2c-2.4,0.2-4.8,0.5-7.1,1.1c-2,0.5-4,1-5.9,2c-0.9,0.4-1.7,0.9-2.3,1.7c-0.7,0.9-0.7,1.8,0,2.7
		c0.4,0.5,0.9,0.9,1.4,1.2c1.5,0.9,3.2,1.5,4.9,2c3.3,0.9,6.6,1.4,10,1.6C24.4,53.4,26.4,53.4,28.4,53.4z M34.4,14.7
		c0-3.2-2.5-6.3-6.2-6.3c-3.7,0-6.2,3.1-6.1,6.3c0,3.5,2.7,6.3,6.1,6.3C31.6,21,34.4,18.2,34.4,14.7z"/>
</g>
</svg>
