<?xml version="1.0" encoding="utf-8"?>
<!-- Generator: Adobe Illustrator 25.4.1, SVG Export Plug-In . SVG Version: 6.00 Build 0)  -->
<svg version="1.1" id="Calque_1" xmlns="http://www.w3.org/2000/svg" xmlns:xlink="http://www.w3.org/1999/xlink" x="0px" y="0px"
	 viewBox="0 0 56.7 56.7" style="enable-background:new 0 0 56.7 56.7;" xml:space="preserve">
<style type="text/css">
	.st0{fill:#0C7189;}
</style>
<g>
	<path class="st0" d="M28,0c4.6,0,8.7,0.9,12.6,2.7c3.5,1.6,6.4,3.9,9,6.8c2.2,2.5,3.9,5.2,5.1,8.3c0.9,2.4,1.5,4.8,1.8,7.3
		c0.4,3.5,0.1,7-0.8,10.4c-1.1,4.1-3,7.8-5.7,11c-3.9,4.6-8.8,7.6-14.6,9.2c-2.9,0.8-5.9,1-8.9,0.8c-3.7-0.2-7.2-1.2-10.5-2.8
		c-0.3-0.2-0.7-0.3-1-0.5c-0.4-0.3-0.8-0.3-1.3-0.1c-4.3,1.1-8.6,2.3-13,3.4c-0.5,0.1-0.5,0.1-0.4-0.3c1-3.5,1.9-7,2.9-10.5
		C3.5,44.8,3.7,44,4,43.1c0.1-0.2,0-0.4-0.1-0.6c-1.4-2.4-2.4-5-3.1-7.8c-0.6-2.7-0.9-5.4-0.7-8.2c0.3-4.8,1.7-9.2,4.2-13.2
		C6.5,9.7,9.4,6.8,13,4.5c3.3-2.1,6.8-3.5,10.7-4.1C25.2,0.1,26.8-0.1,28,0z M19.3,15.2c-0.9-0.1-1.7,0-2.3,0.7
		c-2,1.9-2.9,4.3-2.5,7.1c0.2,1.6,0.9,3.1,1.7,4.6c1.1,1.8,2.4,3.6,3.8,5.2c1.7,1.9,3.5,3.7,5.7,5.1c2.3,1.5,4.8,2.4,7.4,3.2
		c1.1,0.3,2.2,0.5,3.3,0.5c1.5,0,2.9-0.5,4.2-1.4c0.8-0.6,1.6-1.2,1.9-2.2c0.3-0.8,0.4-1.6,0.5-2.5c0-0.4-0.1-0.8-0.5-1
		c-1.9-1-3.8-1.9-5.7-2.7c-0.8-0.3-1.1-0.2-1.6,0.5c-0.7,0.9-1.4,1.8-2.1,2.6c-0.4,0.4-0.8,0.5-1.3,0.3c-1.1-0.4-2.1-0.9-3.1-1.5
		c-2.8-1.7-5-4-6.6-6.7c-0.5-0.8-0.4-1.1,0.2-1.7c0.6-0.7,1.3-1.4,1.7-2.3c0.2-0.4,0.2-0.7,0.1-1.1c-0.7-1.8-1.5-3.6-2.2-5.4
		c-0.3-0.8-0.9-1.3-1.8-1.2C19.6,15.2,19.5,15.2,19.3,15.2z"/>
</g>
</svg>
