<?xml version="1.0" encoding="utf-8"?>
<!-- Generator: Adobe Illustrator 25.4.1, SVG Export Plug-In . SVG Version: 6.00 Build 0)  -->
<svg version="1.1" id="Calque_1" xmlns="http://www.w3.org/2000/svg" xmlns:xlink="http://www.w3.org/1999/xlink" x="0px" y="0px"
	 viewBox="0 0 326 263" style="enable-background:new 0 0 326 263;" xml:space="preserve">
<style type="text/css">
	.st0{fill:#FAF1E4;}
	.st1{fill:#D1D3D4;}
	.st2{fill:#FFFFFF;}
	.st3{fill:#231F20;}
	.st4{fill:#A7A9AC;}
	.st5{fill:#EBCA94;}
</style>
<g id="_230_designer_flatline">
	<path class="st0" d="M139.4,249.1c-19.4,1-38.6,7.9-58.1,6.6c-36.2-2.5-65.9-34.3-74.2-69.8c-4.2-18.4-3.4-38.8,7.3-54.4
		c4-5.8,9-10.7,13.1-16.2c12.9-18.2,13.8-42.6,25.8-61.4C67.4,32.1,93.9,22.1,119,15.6c14.8-3.8,29.7-7,44.7-9.4
		c22.4-3.7,47.5-5.3,66.1,8c14,9.9,21.4,26.2,31.1,40.3c12.7,18.7,29.9,33.9,43.3,52c15.3,20.5,19.9,40.1,17.4,61.2l-0.2,1.9
		c-1.4,9.5-3.8,18.9-7.3,28c-10.3,28.5-33.1,53.7-63.5,60.3C214,266.2,176.8,247.1,139.4,249.1z"/>
	<path class="st1" d="M303.1,218h-266c-0.3,0-0.5-0.2-0.5-0.5s0.2-0.5,0.5-0.5H303c0.3,0,0.5,0.2,0.5,0.5
		C303.6,217.8,303.3,218,303.1,218z"/>
	<rect x="221.4" y="127.4" class="st2" width="59.4" height="101.9"/>
	<path class="st3" d="M280.8,229.8h-59.4c-0.3,0-0.5-0.2-0.5-0.5V127.4c0-0.3,0.2-0.5,0.5-0.5h59.4c0.3,0,0.5,0.2,0.5,0.5v101.9
		C281.3,229.5,281.1,229.8,280.8,229.8L280.8,229.8z M221.9,228.8h58.3V127.9h-58.3L221.9,228.8L221.9,228.8z"/>
	<rect x="57.9" y="127.4" class="st2" width="59.4" height="101.9"/>
	<path class="st3" d="M117.3,229.8H57.9c-0.3,0-0.5-0.2-0.5-0.5V127.4c0-0.3,0.2-0.5,0.5-0.5h59.4c0.3,0,0.5,0.2,0.5,0.5v101.9
		C117.8,229.5,117.6,229.8,117.3,229.8L117.3,229.8z M58.4,228.8h58.3V127.9H58.4V228.8z"/>
	<polygon class="st3" points="232.5,97.9 244.2,121.4 212.5,121.4 	"/>
	<path class="st3" d="M244.2,121.9h-31.8c-0.2,0-0.4-0.1-0.5-0.3s-0.1-0.4,0.1-0.5l20.1-23.6c0.1-0.1,0.3-0.2,0.4-0.2
		c0.2,0,0.3,0.1,0.4,0.3l11.7,23.6c0.1,0.2,0.1,0.3,0,0.5C244.6,121.9,244.4,122,244.2,121.9z M213.6,120.9h29.8l-11-22.1
		L213.6,120.9z"/>
	<polygon class="st3" points="142.2,121.4 217.9,121.4 245.4,81.2 173.9,81.2 	"/>
	<path class="st3" d="M217.9,121.9h-75.7c-0.3,0-0.5-0.2-0.5-0.5c0-0.1,0-0.2,0.1-0.3l31.7-40.2c0.1-0.1,0.2-0.2,0.4-0.2h71.4
		c0.2,0,0.4,0.1,0.4,0.3c0.1,0.2,0.1,0.4,0,0.5l-27.5,40.2C218.3,121.9,218.1,122,217.9,121.9z M143.3,120.9h74.3l26.8-39.2h-70.3
		L143.3,120.9z"/>
	<polygon class="st2" points="176.2,85.2 153.6,114.4 209.7,114.4 231,85.2 	"/>
	<path class="st3" d="M209.7,115h-56.1c-0.2,0-0.4-0.1-0.5-0.3s-0.1-0.4,0-0.5l22.6-29.3c0.1-0.1,0.2-0.2,0.4-0.2h54.8
		c0.2,0,0.4,0.1,0.4,0.3c0.1,0.2,0.1,0.4,0,0.5l-21.2,29.2C210,114.9,209.9,114.9,209.7,115z M154.6,113.9h54.8L230,85.6h-53.6
		L154.6,113.9z"/>
	<path class="st1" d="M192.3,109.1c-0.2,0-0.4-0.1-0.5-0.3c-2.7-8-6.5-16.8-7.8-17l0,0c-1.6,0-12.2,8.8-21.6,17.2
		c-0.2,0.2-0.5,0.2-0.7,0s-0.2-0.5,0-0.7l0,0c3.3-3,19.3-17.5,22.3-17.5h0.1c2.6,0.4,7.3,13.6,8.7,17.7c0.1,0.3,0,0.5-0.3,0.6l0,0
		C192.4,109.1,192.3,109.1,192.3,109.1z"/>
	<path class="st1" d="M209.1,110.2c-0.2,0-0.4-0.2-0.5-0.4c-1.8-6.4-4.4-13.3-5.6-13.7s-6.9,4.8-11.5,9.7c-0.2,0.2-0.5,0.2-0.7,0
		s-0.2-0.5,0-0.7c2.3-2.5,10.2-10.7,12.5-10s5.7,12.1,6.3,14.5c0.1,0.3-0.1,0.6-0.3,0.6L209.1,110.2z"/>
	<path class="st4" d="M225.7,101.2c-1.2,0-2.2-0.6-2.2-1.4c0-0.8,1-1.3,2.2-1.3s2.2,0.6,2.2,1.3C228.1,100.5,227,101.2,225.7,101.2z
		 M225.7,98.6c-1.1,0-2,0.5-2,1.1s0.9,1.1,2,1.1s2-0.5,2-1.1S226.8,98.7,225.7,98.6L225.7,98.6z"/>
	<path class="st4" d="M234.8,89.4h-4.6c-0.1,0-0.1-0.1-0.1-0.1c0-0.1,0.1-0.1,0.1-0.1h4.6c0.1,0,0.1,0.1,0.1,0.1l0,0
		C234.9,89.3,234.9,89.4,234.8,89.4z"/>
	<path class="st2" d="M217.9,121.9c-0.1,0-0.2,0-0.3-0.1c-0.2-0.2-0.3-0.5-0.1-0.7l14.7-20.2c0.2-0.2,0.5-0.3,0.7-0.1l0,0
		c0.2,0.2,0.3,0.5,0.1,0.7l-14.7,20.3C218.2,121.9,218.1,122,217.9,121.9z"/>
	<path class="st1" d="M192.3,92.6c-1.2,0-2.2-1-2.2-2.2s1-2.2,2.2-2.2s2.2,1,2.2,2.2l0,0C194.6,91.6,193.5,92.6,192.3,92.6z
		 M192.3,89.1c-0.7,0-1.2,0.5-1.2,1.2s0.5,1.2,1.2,1.2s1.2-0.5,1.2-1.2l0,0C193.5,89.6,192.9,89.1,192.3,89.1L192.3,89.1z"/>
	<rect x="50.1" y="122.3" class="st2" width="233.3" height="9.9"/>
	<path class="st3" d="M283.3,132.7H50.1c-0.3,0-0.5-0.2-0.5-0.5v-9.9c0-0.3,0.2-0.5,0.5-0.5h233.3c0.3,0,0.5,0.2,0.5,0.5v9.9
		C283.8,132.5,283.6,132.7,283.3,132.7z M50.6,131.7h232.2v-8.9H50.6V131.7z"/>
	<path class="st2" d="M137.7,175.8c0.2,0.7-12.8,47.5-12.8,47.5l18.2,3l21.6-64.8L137.7,175.8z"/>
	<path class="st3" d="M143.1,226.9L143.1,226.9l-18.3-3c-0.1,0-0.3-0.1-0.4-0.2c-0.1-0.1-0.1-0.3-0.1-0.4
		c5.1-18.2,12.7-45.8,12.8-47.4c0-0.2,0.1-0.4,0.3-0.5l27-14.3c0.2-0.1,0.4-0.1,0.6,0.1c0.2,0.1,0.2,0.4,0.2,0.5l-21.6,64.8
		C143.6,226.7,143.4,226.9,143.1,226.9z M125.6,223l17.2,2.7l21-63.1l-25.7,13.5C137.6,179.1,133.5,194.8,125.6,223L125.6,223z"/>
	<path class="st3" d="M123.8,221.4l-2.7,8.8l43.7,3.4c-2-4.2-5.6-7.3-9.9-9c-4.6-1.6-9.5-3.5-9.5-3.5l-2.2,5.3L123.8,221.4z"/>
	<path class="st3" d="M164.7,234L164.7,234l-43.7-3.4c-0.3,0-0.5-0.3-0.5-0.5V230l2.7-8.8c0.1-0.3,0.3-0.4,0.6-0.3l18.9,4.9l2-4.9
		c0.1-0.3,0.4-0.4,0.6-0.3l0,0c0.1,0,4.9,1.9,9.4,3.5s8.1,5,10.2,9.3c0.1,0.2,0.1,0.3,0,0.5C165.1,234,164.9,234.1,164.7,234z
		 M121.8,229.6l42.2,3.3c-2-3.7-5.3-6.4-9.2-7.8c-3.7-1.3-7.6-2.9-9-3.3l-2,4.8c-0.1,0.2-0.4,0.4-0.6,0.3l-18.8-4.8L121.8,229.6z"/>
	<path class="st3" d="M93.1,176.5L90,225.9c0,0-10.5,0.4-13.1,2.2c-2.6,1.8-4.8,10.2-4.8,10.2h3.3c0,0,1.9-6.2,4-6.9
		c2.1-0.7,13.9-1,13.9-1s5.7,2.2,6.6,6c0.7,3,0.5,3.7,0.5,3.7h3.7c0-1.7-0.2-3.4-0.7-5c-0.7-2-3.5-4.6-3.5-4.6s6,0.1,7.9,0.1
		s4.1,3.8,4.1,3.8h3.9c0,0-4.1-6.8-6.7-7.3c-2.6-0.5-9.4-1.6-9.4-1.6l-1.8-46L93.1,176.5z"/>
	<path class="st3" d="M104.2,240.4h-3.7c-0.2,0-0.3-0.1-0.4-0.2c-0.1-0.1-0.1-0.3-0.1-0.5c0-1.1-0.2-2.3-0.5-3.4
		c-0.8-3.3-5.5-5.3-6.2-5.6c-3.4,0.1-12,0.4-13.6,1c-1.3,0.5-3,4.3-3.7,6.6c-0.1,0.2-0.3,0.4-0.5,0.4h-3.3c-0.3,0-0.5-0.2-0.5-0.5
		v-0.1c0.1-0.3,2.2-8.6,5-10.5c2.4-1.7,10.8-2.1,12.9-2.2l3.1-48.9c0-0.2,0.1-0.3,0.3-0.4c0.2-0.1,0.3-0.1,0.5,0l4.9,2.9
		c0.2,0.1,0.2,0.2,0.3,0.4l1.8,45.6c1.5,0.3,6.7,1.1,9,1.6c2.7,0.5,6.6,6.8,7,7.6c0.1,0.2,0.1,0.4,0,0.5c-0.1,0.2-0.3,0.3-0.4,0.3
		H112c-0.2,0-0.4-0.1-0.4-0.3c-0.7-1.3-2.4-3.6-3.7-3.6c-1.4,0-4.8-0.1-6.7-0.1c1.1,1.1,2,2.3,2.6,3.8c0.5,1.6,0.7,3.5,0.7,5.2
		C104.8,240.2,104.5,240.4,104.2,240.4z M101.1,239.4h2.5c0-1.4-0.3-3-0.7-4.4c-0.7-1.9-3.3-4.3-3.3-4.3c-0.2-0.1-0.2-0.4-0.1-0.6
		c0.1-0.2,0.3-0.3,0.5-0.3c0.1,0,6,0.1,7.9,0.1s3.8,2.9,4.4,3.8h2.6c-1.4-2.1-4.2-6-5.9-6.3c-2.5-0.5-9.3-1.6-9.4-1.6
		c-0.2,0-0.4-0.2-0.4-0.5l-1.8-45.7l-4-2.2L90.3,226c0,0.3-0.2,0.5-0.5,0.5c-2.9,0.1-10.8,0.7-12.8,2c-1.8,1.3-3.7,6.6-4.4,9.3h2.2
		c0.5-1.4,2.1-6.2,4.2-6.9c1.9-0.7,13.6-1,14.2-1h0.2c0.2,0.1,6,2.3,6.9,6.3C100.9,237.2,101.1,238.3,101.1,239.4L101.1,239.4z
		 M90.1,225.8L90.1,225.8z"/>
	<path class="st2" d="M152.9,144.9c0,0,41.2,2.2,43.9,8c2.6,5.9-16.5,70.6-16.5,70.6s20.2,7,16.9,8.5c-3.3,1.4-36.3-1.4-36.3-1.4
		l15.7-60l-40.8-2.7L152.9,144.9z"/>
	<path class="st3" d="M192,233c-9.7,0-28.5-1.6-31.2-1.8c-0.2,0-0.3-0.1-0.4-0.2c-0.1-0.1-0.1-0.3-0.1-0.4l15.5-59.3l-40.2-2.7
		c-0.2,0-0.3-0.1-0.4-0.3c-0.1-0.2-0.1-0.4,0.1-0.5l17.3-23c0.1-0.1,0.3-0.2,0.4-0.2c0.1,0,10.5,0.5,21,1.8
		c21.6,2.6,22.9,5.6,23.3,6.5c2.5,5.8-14.5,64-16.4,70.5c5.5,1.9,17.1,6.2,17.1,8.3c0,0.4-0.3,0.8-0.7,0.9
		C195.7,232.9,193.8,233.1,192,233z M161.5,230.2c9.6,0.8,33,2.5,35.5,1.4l0,0c-0.7-1.2-9.2-4.8-16.9-7.4c-0.3-0.1-0.4-0.4-0.3-0.6
		c5.3-17.9,18.6-65.5,16.5-70.2c-2-4.7-31.6-7.1-43.2-7.7l-16.5,22l39.9,2.6c0.2,0,0.3,0.1,0.4,0.2c0.1,0.1,0.1,0.3,0.1,0.4
		L161.5,230.2z"/>
	<path class="st2" d="M139,108.2c0,0,21.2,26.5,30.2,25.8s35-33.4,35-33.4c4.7-5.6,10-12.7,6.6-20.5c-0.3-0.7-0.9-1.5-1.7-1.5
		c-0.3,0.1-0.6,0.2-0.9,0.4l-2.9,1.7c0.1-0.8-0.9-1.3-1.7-1.1c-0.7,0.3-1.4,0.8-1.7,1.5c-3.1,4.3-5,8.3-4.8,13.6l-30.3,15.5
		l-12-13.3"/>
	<path class="st3" d="M168.8,134.4c-9.4,0-29.4-24.8-30.3-26c-0.2-0.2-0.1-0.5,0.1-0.7c0.2-0.1,0.5-0.1,0.6,0.1
		c0.2,0.3,20.6,25.6,29.4,25.6h0.3c8.8-0.7,34.4-32.8,34.6-33.2c4.9-5.8,9.8-12.5,6.5-19.9c-0.1-0.3-0.5-1.2-1.2-1.1
		c-0.3,0-0.5,0.2-0.7,0.3l-3,1.7c-0.2,0.1-0.6,0.1-0.7-0.2c-0.1-0.1-0.1-0.2-0.1-0.3c0-0.1-0.1-0.3-0.2-0.4
		c-0.2-0.2-0.5-0.3-0.8-0.2c-0.6,0.3-1.1,0.7-1.5,1.3c-2.5,3.7-4.9,7.7-4.7,13.3c0,0.2-0.1,0.4-0.3,0.5l-30.3,15.5
		c-0.2,0.1-0.5,0.1-0.6-0.1l-11.6-13.3c-0.2-0.2-0.2-0.5,0-0.7l0,0c0.2-0.2,0.5-0.2,0.7,0l11.8,13l29.7-15.2
		c-0.1-5.7,2.2-9.9,4.9-13.6c0.5-0.8,1.2-1.4,2-1.7c0.6-0.2,1.3,0,1.8,0.4c0.1,0.1,0.3,0.3,0.3,0.4l2.3-1.4c0.3-0.2,0.7-0.4,1.2-0.4
		c0.9-0.1,1.7,0.6,2.2,1.8c3.8,8.6-3.1,16.6-6.6,21c-1,1.3-26.2,32.8-35.3,33.5L168.8,134.4z"/>
	<path class="st2" d="M69.5,103.7c0,0-10.9,24.7-6.8,27.4c4.1,2.6,28.7,0,28.7,0L89.3,99"/>
	<path class="st3" d="M72,132.7c-4.4,0-8.2-0.3-9.7-1.2c-0.7-0.4-2.9-1.8,1.7-15.3c2.2-6.4,5-12.7,5-12.7c0.1-0.3,0.4-0.4,0.6-0.3
		c0.3,0.1,0.4,0.4,0.3,0.6v0.1c-4.2,9.4-9.8,24.9-7,26.7c3.1,2,20.7,0.7,27.9,0l-2-31.6c0-0.3,0.2-0.5,0.5-0.5s0.5,0.2,0.5,0.5
		l2.1,32.1c0,0.3-0.2,0.5-0.5,0.5C90.7,131.7,80.3,132.7,72,132.7z"/>
	<path class="st2" d="M78.4,145.6c0,0-5.3,11.9,0.3,19.3c5.6,7.4,84.7,8.3,84.7,8.3l5.7-28.4l-33.1-4.5l-1.9-9.9L78.4,145.6z"/>
	<path class="st3" d="M163.5,174L163.5,174c-0.2,0-20.1-0.2-40.3-1.4c-27.3-1.5-42.5-4-44.9-7.2c-5.8-7.6-0.6-19.3-0.4-19.9
		c0.1-0.1,0.2-0.2,0.3-0.3l55.8-15c0.1,0,0.3,0,0.4,0.1c0.1,0.1,0.2,0.2,0.2,0.3l1.8,9.5l32.7,4.5c0.1,0,0.3,0.1,0.3,0.2
		c0.1,0.1,0.1,0.3,0.1,0.4l-5.6,28.4C164,173.7,163.8,174,163.5,174z M78.8,146.1c-0.7,1.6-4.6,12,0.4,18.6
		c4.4,5.7,56.5,7.8,83.9,8.1l5.5-27.5l-32.5-4.4c-0.2,0-0.4-0.2-0.4-0.4l-1.8-9.3L78.8,146.1z"/>
	<path class="st2" d="M110.8,45.8c-0.8-0.5-1.5-1.1-2-1.8c-0.8-1.1-1.3-2.3-1.6-3.7c-2.9-10.1-2.9-23.1,6.2-30
		c5.4-4.2,12.4-5.4,18.9-3.4c4.4,1.4,8.1,7.4,10.1,11.4c1.6,3.2,2.6,6.6,4.6,9.6c1.9,3,4.9,5.6,8.5,5.8c-2.9,1.6-6.3,1.8-9.3,0.5
		c1.4,1.9,3.9,2.9,6.1,2.3c-2,1.6-5,1.6-7.6,1s-5.2-1.3-7.8-1c-4.2,0.5-6.8,3.5-10.1,5.7C122.6,44.8,115.4,48.4,110.8,45.8z"/>
	<path class="st3" d="M114.7,47.2c-1.4,0-2.9-0.3-4.2-1l0,0c-0.9-0.5-1.6-1.2-2.2-2c-0.8-1.2-1.4-2.4-1.7-3.9
		c-1.3-5-5-21.9,6.3-30.5c5.5-4.3,12.8-5.5,19.4-3.5c4.7,1.5,8.6,7.9,10.4,11.6c0.6,1.2,1.2,2.5,1.7,3.8c0.8,2,1.7,4,2.9,5.8
		c1,1.6,3.9,5.3,8,5.6c0.2,0,0.4,0.2,0.5,0.4s0,0.5-0.2,0.6c-2.3,1.3-5,1.7-7.5,1.2c1.2,0.7,2.6,1,4.1,0.7c0.3-0.1,0.5,0.1,0.6,0.4
		c0.1,0.2,0,0.4-0.2,0.5c-1.8,1.4-4.6,1.8-8,1.2c-0.6-0.1-1.2-0.3-1.8-0.4c-1.9-0.5-3.9-0.8-5.8-0.6c-3,0.3-5.1,2-7.4,3.8
		c-0.8,0.6-1.6,1.2-2.4,1.8C124.5,44.1,119.4,47.2,114.7,47.2z M126,6.3c-4.5,0-8.9,1.5-12.4,4.2c-10.8,8.3-7.3,24.6-6,29.5
		c0.3,1.2,0.8,2.4,1.6,3.6c0.5,0.7,1.2,1.3,1.9,1.7l0,0c5,2.9,13-2,15.4-3.7c0.8-0.5,1.6-1.1,2.3-1.7c2.3-1.8,4.7-3.7,7.9-4
		c2.1-0.1,4.2,0.1,6.2,0.7c0.6,0.1,1.2,0.3,1.8,0.4c1.7,0.4,3.5,0.4,5.2,0c-1.7-0.3-3.3-1.2-4.3-2.5c-0.1-0.2-0.1-0.4,0-0.6
		c0.1-0.2,0.4-0.2,0.6-0.2c2.3,0.9,4.9,1,7.3,0.2c-3.1-0.9-5.6-3.1-7.1-5.8c-1.1-1.9-2.1-3.9-3-5.9c-0.5-1.2-1-2.5-1.7-3.8
		c-1.4-2.9-5.2-9.6-9.8-11.1C130.1,6.6,128.1,6.3,126,6.3L126,6.3z"/>
	<path class="st2" d="M138.8,38.3c0,0,2.9,8.9,1.3,10.1c-1.5,1.2-4.6-0.7-4.6-0.7"/>
	<path class="st3" d="M138.9,49.3c-1.2-0.1-2.4-0.5-3.6-1.2c-0.2-0.1-0.3-0.4-0.2-0.7c0.1-0.2,0.4-0.3,0.7-0.2l0,0
		c0.7,0.4,3,1.6,4,0.7c0.7-0.6-0.2-5.4-1.5-9.5c-0.1-0.3,0.1-0.6,0.3-0.6c0.3-0.1,0.6,0.1,0.6,0.3c0.7,2.1,2.9,9.3,1.2,10.6
		C140.1,49.2,139.5,49.4,138.9,49.3z"/>
	<path class="st2" d="M140.5,28.2c2.4,3.5,0,8.6-1,12.1c-1.4,4.9-3,9.9-4.6,14.7c-1,3.1-9.2,0.8-10.3-0.5l-2.2,12.7l-17.1-5.9
		l5.5-15.5c0,0,5.5,1.6,10.5-3.9s8.5-19.4,8.5-19.4S138.1,24.9,140.5,28.2z"/>
	<path class="st3" d="M122.3,67.8h-0.2l-17.1-6c-0.1,0-0.2-0.1-0.3-0.3c0-0.1,0-0.3,0-0.4l5.5-15.5c0.1-0.3,0.4-0.4,0.6-0.3
		s5.3,1.4,10-3.8s8.2-19.1,8.2-19.2c0-0.1,0.1-0.2,0.2-0.3c0.1-0.1,0.3-0.1,0.4,0c0.4,0.1,8.8,2.4,11.2,5.9l0,0
		c2.1,3.1,0.8,7.2-0.4,10.7c-0.2,0.6-0.4,1.3-0.6,1.8c-1.4,4.9-3,9.9-4.6,14.7c-0.4,1-1.3,1.6-2.3,1.7c-2.7,0.3-5.6-0.2-8-1.5
		l-2,11.9c0,0.1-0.1,0.3-0.2,0.3C122.5,67.8,122.4,67.8,122.3,67.8z M105.9,61l16.1,5.6l2-12.1c0-0.3,0.3-0.5,0.6-0.4
		c0.1,0,0.2,0.1,0.3,0.2c0.7,0.8,5.2,2.2,7.8,1.7c0.9-0.2,1.4-0.5,1.6-1.1c1.6-4.8,3.2-9.8,4.6-14.7c0.2-0.6,0.4-1.2,0.6-1.9
		c1-3.2,2.3-7.1,0.5-9.8c-1.8-2.6-8.2-4.8-10.2-5.4c-0.7,2.6-3.9,14.2-8.5,19.1c-4.4,4.8-9.1,4.4-10.5,4.2L105.9,61z"/>
	<path class="st2" d="M135.8,51.3c0,0-4.5,1.3-5.4-3.3"/>
	<path class="st3" d="M134.4,52c-0.9,0-1.7-0.2-2.5-0.6c-1.1-0.7-1.8-1.8-2-3.2c-0.1-0.3,0.1-0.6,0.4-0.6c0.3,0,0.5,0.1,0.6,0.4
		c0.1,1,0.7,1.9,1.5,2.5c1,0.5,2.1,0.6,3.3,0.3c0.3-0.1,0.6,0.1,0.6,0.4s-0.1,0.6-0.4,0.6C135.4,52,134.9,52,134.4,52z"/>
	<path class="st2" d="M128.5,38.8c0.2-1.3,0.1-2.5-0.4-3.8c-0.2-0.9-0.6-1.9-1.1-2.7s-1.4-1.4-2.4-1.5c-0.9,0-1.7,0.4-2.3,1
		s-1,1.4-1.3,2.2c-1.2,3.8-0.4,7.8,2.2,10.7l-0.2-0.4"/>
	<path class="st3" d="M123,45.4c-0.1,0-0.3-0.1-0.4-0.2c-2.7-3.1-3.7-7.3-2.3-11.3c0.3-0.9,0.8-1.7,1.4-2.4c0.7-0.7,1.7-1.2,2.7-1.1
		c1.1,0.1,2.2,0.8,2.9,1.8c0.5,0.9,0.9,1.8,1.2,2.9c0.5,1.3,0.7,2.6,0.4,4.1c-0.1,0.3-0.4,0.4-0.6,0.4c-0.3-0.1-0.4-0.4-0.4-0.6
		c0.2-1.2,0-2.3-0.4-3.5c-0.2-0.9-0.6-1.8-1.1-2.6c-0.4-0.7-1.2-1.2-2-1.3c-0.7,0-1.4,0.3-1.9,0.8c-0.5,0.6-0.9,1.3-1.2,2
		c-1.1,3.4-0.4,6.9,1.7,9.8c0.1,0,0.3,0.1,0.3,0.3l0.2,0.4c0.1,0.2,0.1,0.5-0.2,0.6C123.2,45.3,123.1,45.4,123,45.4z"/>
	<ellipse transform="matrix(0.2183 -0.9759 0.9759 0.2183 74.99 161.7207)" class="st3" cx="138.4" cy="34.1" rx="1.8" ry="0.7"/>
	<path class="st3" d="M124.5,54.5c-2.2-1.4-4.4-3.1-6.4-4.8c0,0-1,9,5.1,11L124.5,54.5z"/>
	<path class="st3" d="M123.2,61.2c-0.1,0-0.1,0-0.2,0c-6.4-2.1-5.5-11.2-5.4-11.5c0-0.2,0.1-0.3,0.3-0.4s0.4,0,0.5,0.1
		c2,1.7,4.2,3.3,6.4,4.8c0.2,0.1,0.3,0.3,0.2,0.5l-1.3,6.2c0,0.1-0.1,0.3-0.2,0.3C123.4,61.2,123.3,61.2,123.2,61.2z M118.6,50.8
		c0,2.2,0.3,7.5,4.3,9.3l1.1-5.3C122.1,53.5,120.2,52.2,118.6,50.8z"/>
	<path class="st5" d="M75.2,149.6c0,0,0.9-63.2,10.4-77.8s34.1-17.8,45.8-9.2s6.1,75,6.1,75S100.2,149.6,75.2,149.6z"/>
	<path class="st5" d="M123.3,58.9c6.2,2.5,12.1,6,17.3,10.2c8.1,6.7,25.3,35.7,25.3,35.7l-22.6,13.6l-20.3-25L123.3,58.9z"/>
	<path class="st5" d="M95.4,62.8c0,0-11.8,1.3-18.1,14.4c-3.4,7-12.1,29.8-12.1,29.8l26.1,3.1L95.4,62.8z"/>
	<path class="st3" d="M141.5,116.9c-0.2,0-0.3-0.1-0.4-0.2l-20.2-27.5c-0.2-0.2-0.1-0.5,0.1-0.7c0.2-0.2,0.5-0.1,0.7,0.1l20.2,27.5
		c0.2,0.2,0.1,0.5-0.1,0.7C141.8,116.9,141.7,116.9,141.5,116.9L141.5,116.9z"/>
	<path class="st3" d="M201.8,86l5.1-15.7l1.5,0.4l-3.2,15.5C205.1,86.2,202.9,88.3,201.8,86z"/>
	<path class="st3" d="M203.3,87.6H203c-0.7-0.2-1.3-0.7-1.6-1.4c-0.1-0.1-0.1-0.3,0-0.4l5-15.7c0.1-0.3,0.4-0.4,0.6-0.3l1.5,0.4
		c0.3,0.1,0.4,0.3,0.4,0.6l-3.2,15.5c0,0.1-0.1,0.2-0.1,0.3C204.9,87.2,204.1,87.5,203.3,87.6z M202.3,85.9c0.2,0.3,0.5,0.6,0.8,0.6
		c0.6,0,1.1-0.2,1.6-0.6l3.1-14.8l-0.6-0.2L202.3,85.9z"/>
	<path class="st5" d="M106.4,50.4c-9.3-2-19.7-0.6-27.2,5.2c-3.2,2.3-5.6,5.6-6.8,9.3c-1.2,3.8-0.5,7.9,1.9,11.1
		c7.1,8.6,22.8,8.6,32.5,5.7c6.6-1.9,26.2-11.2,20.8-20.3C123.7,55,113.3,52,106.4,50.4z"/>
	<path class="st3" d="M94.6,82.6c-6.2-0.2-12.2-1.9-17.5-5c-0.2-0.1-0.3-0.4-0.2-0.7l0,0c0.2-0.2,0.5-0.3,0.7-0.2
		c0.1,0.1,12.9,8,25,3.5c5.8-2.2,9.3-6.1,12.6-9.9c3.7-4.2,7.1-8,13.2-8.6c0.3,0,0.5,0.2,0.5,0.5l0,0c0,0.3-0.2,0.5-0.4,0.5l0,0
		c-5.6,0.5-8.8,4.2-12.5,8.2c-3.3,3.7-7,7.8-13,10.2C100.3,82.1,97.4,82.6,94.6,82.6z"/>
	<path class="st3" d="M76.1,127L76.1,127c-0.3,0-0.5-0.2-0.5-0.5l0,0c0.7-16.4,4.2-39.9,4.2-40.1c0-0.3,0.3-0.5,0.6-0.4
		c0.3,0,0.5,0.3,0.4,0.6c0,0.2-3.5,23.7-4.2,40C76.6,126.7,76.4,127,76.1,127z"/>
	<path class="st3" d="M155.4,229.4h22c0,0,2.3-5.3,7.5-6c0,0,20.1,8.5,17.1,10.2s-48.2,1.5-48.2,1.5L155.4,229.4z"/>
	<path class="st3" d="M158.4,235.7h-4.6c-0.2,0-0.3-0.1-0.4-0.2c-0.1-0.1-0.1-0.3-0.1-0.4l1.5-5.7c0.1-0.2,0.3-0.4,0.5-0.4H177
		c0.6-1.2,3.1-5.4,7.7-6c0.1,0,0.2,0,0.3,0c4.2,1.7,17.6,7.6,17.7,10.2c0,0.4-0.2,0.8-0.5,0.9C199.7,235.6,170.4,235.7,158.4,235.7z
		 M154.5,234.6c18.1,0.1,45.1-0.3,47.2-1.5c0-1.3-8.8-5.8-16.9-9.3c-4.7,0.8-6.9,5.7-7,5.7c-0.1,0.2-0.3,0.3-0.5,0.3h-21.6
		L154.5,234.6z"/>
	<path class="st3" d="M138.8,178.6c13.9-3,23.3-9.5,17.8-18.3c-5.5-8.9-45-3.1-52.7-9.7c-7.7-6.5-5-41.2-13.4-47.1
		C82,97.6,45.7,91.6,41.6,99c-4.1,7.5,0,62.1,11.8,74.2C65.1,185.4,125.1,181.5,138.8,178.6z"/>
	<path class="st3" d="M97.7,182.1h-2.3c-15.7-0.1-35.8-1.7-42.4-8.5c-11.7-12.1-16.3-66.7-11.9-74.8c0.7-1.4,2.4-2.4,5.2-3.1
		c11.2-2.6,37.2,2.2,44.4,7.2c4.6,3.2,6,14.1,7.3,24.6c1.2,9.6,2.5,19.5,6.1,22.6c3.5,3,13.9,3.4,24.1,3.8c12.5,0.5,25.6,1,28.6,6
		c1.8,2.9,2.1,5.7,1,8.2c-2,4.8-8.9,8.7-19.2,10.8l0,0C131.8,180.6,114.4,182.1,97.7,182.1z M54.2,96.1c-2.5,0-5.1,0.2-7.6,0.7
		c-2.3,0.5-3.9,1.4-4.5,2.5c-4,7.4,0.4,61.9,11.7,73.6c11.6,11.9,71.1,8,84.8,5.2l0,0c9.9-2,16.6-5.8,18.5-10.2
		c1-2.2,0.6-4.8-0.9-7.3c-2.9-4.5-15.5-5-27.8-5.5c-10.9-0.4-21.1-0.8-24.8-4c-3.9-3.4-5.2-13-6.5-23.2c-1.3-10.3-2.7-21-6.9-23.9
		C84.6,100,66.6,96.1,54.2,96.1z M138.8,178.6L138.8,178.6z"/>
	<path class="st1" d="M164.7,150.1L164.7,150.1l-33.4-5.8c-0.3,0-0.5-0.3-0.4-0.6c0-0.3,0.3-0.5,0.6-0.4l33.3,5.8
		c0.3,0,0.5,0.3,0.5,0.6C165.2,149.9,165,150.1,164.7,150.1z"/>
	<path class="st3" d="M260.8,217.9l-1-0.1c0-0.3,3.3-30.2-7.1-43.5l0.8-0.6c4.5,5.7,7,15,7.7,27.3
		C261.4,206.6,261.3,212.3,260.8,217.9z"/>
	<path class="st3" d="M257.3,221.7c0-0.3,0-0.7,0.1-1c2.4-15.7-1.7-22.9-5.7-26.4l0.7-0.8c4.2,3.6,8.6,11.1,6,27.3
		c-0.1,0.4-0.1,0.6-0.1,0.7L257.3,221.7z"/>
	<path class="st3" d="M251.9,187.7c-0.8-0.5-1.7-0.8-2.7-0.8c-1.7-0.2-3.5,0.2-4.9,1.3c-0.3,0.3-0.6,0.9-0.3,1.2
		c0.2,0.2,0.4,0.3,0.6,0.3c1.4,0.4,2.4,1.4,2.9,2.9c-0.7-0.5-1.3-1.2-2-1.7c-0.7-0.6-1.5-0.9-2.4-0.8c-1,0.2-1.8,0.8-2.4,1.6
		c-0.7,0.7-1.2,1.5-1.6,2.4s-0.6,1.9-0.4,2.9c0.9-0.3,1.9-0.3,3-0.2c0.7,0.1,1.3,0.3,1.8,0.8c0.2,0.1,0.3,0.3,0.3,0.5
		c0,0.4-0.2,0.8-0.6,0.9c-0.4,0.1-0.8,0.1-1.2,0c-0.8-0.2-1.7-0.3-2.5-0.4c-0.3,0-0.6,0-0.9,0.1c-0.7,0.4-1.1,1.3-1,2.1
		c0,0.3,0.1,0.7,0.4,0.9c0.4,0.3,1,0.1,1.5-0.1c0.8-0.4,1.8-0.5,2.7-0.6c0.1,0,0.2,0,0.3,0.1c0.2,0.1,0.3,0.4,0.1,0.6l0,0
		c-0.2,0.2-0.4,0.3-0.6,0.4c-0.7,0.2-1.4,0.4-2.1,0.5c-0.4,0.1-0.9,0.2-1.1,0.5c-0.1,0.2-0.1,0.3-0.1,0.5c0,1.4,0.4,2.7,1.1,4
		c0.1,0.2,0.3,0.4,0.5,0.5c0.3,0.1,0.6,0.2,0.9,0.2c2.4,0.2,5-0.1,7.2-1c0.1,0,0.2-0.1,0.3-0.2c0.1-0.2-0.1-0.5-0.3-0.7
		c-0.8-0.9-0.6-2.3-0.4-3.5c0-0.2,0.1-0.4,0.3-0.6c0.3-0.2,0.7-0.1,0.9,0.1c0.2,0.3,0.3,0.6,0.3,1c0.1,1.2,0.1,2.4-0.3,3.7
		c1.2-0.3,2.3-0.7,3.5-1.2c0.9-0.3,1.7-0.8,2.5-1.4c0.8-0.6,1.3-1.4,1.5-2.3c0-0.2,0-0.4-0.1-0.5s-0.2-0.2-0.3-0.3
		c-1.1-0.7-1.9-1.7-2.4-2.9c-0.1-0.2-0.2-0.6,0.1-0.7c0.1,0,0.2,0,0.3,0c1.3,0.2,1.9,1.6,3.1,2.4c0.1,0.1,0.2,0.1,0.3,0.1
		s0.3-0.1,0.3-0.2c0.4-0.4,0.7-0.9,0.8-1.5c0.3-1.1,0.2-2.3-0.2-3.5c-0.4-1.1-1.4-1.9-2.5-2.2c-0.5-0.1-1.1-0.1-1.6-0.1
		c-0.2,0-1.2,0.3-1.3,0.2c-0.1-0.1,0.4-0.9,0.5-1.1C254,190.5,253.1,188.5,251.9,187.7z"/>
	<path class="st3" d="M267.5,178.3c-1.6,0-3.2,0.8-4.2,2.1c-0.6,1.1-0.9,2.3-0.7,3.6c0.2,1.2,0.5,2.4,0.9,3.6c0.8-1.4,2.2-2.4,4-2.5
		c1.7-0.1-0.3,1.5-0.6,1.8c-0.9,1.1-1.8,2.2-2.7,3.5c-0.3,0.3-0.4,0.6-0.5,1c0,0.4,0.1,0.8,0.3,1.1c0.7,1.5,1.7,3,3.1,4
		c0.4,0.3,0.9,0.4,1.3,0.2c0.2-0.2,0.4-0.4,0.4-0.6c0.5-1,1.1-2,1.9-2.9c0.2-0.2,0.5-0.4,0.7-0.3c0.2,0.2,0.2,0.4,0.2,0.6l-0.2,2.3
		c-0.1,0.8-0.1,1.7,0.1,2.4c0.5,1.4,2.2,2.2,3.8,2.4c0.4,0.1,0.8,0.1,1.3,0c0.8-0.3,1.1-1.2,1.3-2.1c0.2-1.1,0.6-2.2,1.3-3.1
		c0.2,1.5,0.7,3,1.4,4.3c0.4,0.7,0.9,1.3,1.5,1.8c0.7,0.5,1.4,0.8,2.2,0.9c1.3,0.2,2.7,0.3,4.2,0.2c0.9,0,1.9-0.1,2.9-0.4
		c0.9-0.3,1.7-0.8,2.2-1.7c0.8-1.4,0.2-3.4-0.9-4.7c-1-1.3-2.4-2.2-3.6-3.6c1.3,0.4,2.6,1,3.8,1.9c0.3,0.3,0.6,0.5,1,0.5
		c0.2,0,0.3-0.1,0.5-0.3c1.6-1.6-0.2-4.4-1.1-5.9c-0.5-1-1.3-1.9-2.3-2.3c-0.6-0.2-1.2-0.2-1.8,0c-0.9,0.2-5.5,2.2-3.6-0.5
		c1.1-1.2,2.6-1.9,4.3-1.8c0.8,0.1,2,0.7,1.9-0.8c-0.1-0.5-0.3-1-0.6-1.4c-0.6-0.9-1.3-1.8-2-2.7c-0.2-0.3-0.5-0.5-0.8-0.5
		s-0.5,0.1-0.8,0.2c-1.9,1.1-4,1.9-6.1,2.3c-0.5,0-1.2-0.2-1.1-0.6c0-0.2,0.2-0.3,0.3-0.4c1.3-1,3.3-0.6,4.6-1.5
		c0.4-0.3,0.7-0.7,0.7-1.1c0-0.7-0.6-1.2-1.1-1.6c-1.4-1.2-3.1-2-4.9-2.2c-2.7-0.2-5.2,1.5-7,3.6c-0.6,0.7-1,2.4-1.9,2.3
		c-0.6-0.2-1.2-0.4-1.7-0.7C268.8,178.4,268.1,178.3,267.5,178.3z"/>
	<path class="st3" d="M254.3,164.1c-0.1-1-0.6-2-1.3-2.7c-1.4-1.2-3.5-1.3-5.3-1c-1.4,0.3-2.7,0.7-4.1,1.2c-1.3,0.4-1.7,0.7-0.5,1.7
		c0.8,0.7,3.1,3.5,2,4.8s-2.7-2-3.5-2.5c-0.9-0.8-2-1.3-3.3-1.4c-1.1,0.2-2,0.7-2.9,1.5c-0.8,0.7-1.5,1.4-2.3,2.2
		c-0.1,0.1-0.2,0.2-0.3,0.4c-0.2,0.6,0.6,0.9,1.2,1c1.7,0.3,3.7,1.2,4.1,3c-1.8,0.4-3.5-1.3-5.3-1.2c-1.3,0.3-2.4,1.3-3,2.6
		c-0.5,1.1-0.6,2.4-0.4,3.7c1.5-0.5,3.3-0.7,4.9-0.4c0.2,0,0.4,0.1,0.5,0.2c0.2,0.3,0,0.6-0.2,0.8c-0.3,0.1-0.6,0.2-0.9,0.2h-3
		c-0.3,0-0.6,0-0.8,0.2c-0.2,0.2-0.3,0.5-0.3,0.8c-0.2,1.3-0.2,2.7-0.1,4.2c0,0.8,0.4,1.6,0.9,2.3c0.5,0.3,1,0.6,1.6,0.7
		c1.5,0.4,3.1,0.5,4.6,0.6c-0.7-1-0.9-2.2-0.5-3.4c0.6-1.4,1.6-0.6,1.7,0.7c0,0.6-0.1,1.2-0.1,1.8c0,0.1,0,0.2,0.1,0.3
		s0.1,0.1,0.2,0.2c0.8,0.4,1.7,0.6,2.6,0.3c0.3,0,0.5-0.2,0.7-0.3c0.5-0.6,0.6-1.3,0.4-2l-0.4-3.8c0-0.2,0-0.4,0.1-0.5
		c0.2-0.2,0.5,0,0.7,0.1c0.8,0.7,1.2,1.7,1.1,2.7c0,0.6-0.2,1.1-0.3,1.7c-0.1,0.6,0.1,1.2,0.6,1.5c0.5,0.2,1.1,0.3,1.6,0.1
		c0.7-0.1,1.3-0.4,1.8-0.9c0.4-0.6,0.5-1.4,0.3-2.2c-0.2-0.7-0.3-1.5-0.4-2.2c0-1.5,1.5-3.8,1.8-1c0,0.9,0,1.7-0.2,2.6
		c0,0.1,0,0.2,0,0.3c0.1,0.2,0.4,0.3,0.6,0.3c1.2,0.1,2.4-0.1,3.6-0.7c0.7-0.4,1.4-0.9,1.9-1.5c0.4-0.5,0.7-1.1,0.9-1.7
		c1.2-2.6,3.3-4.7,0.9-7.5c-0.8-1-2.2-1.2-3.1-2.2c-0.9-1.2,0.5-3.1,0.5-4.5C254.3,164.7,254.3,164.4,254.3,164.1z"/>
	<path class="st2" d="M246.9,214.8h26.4l-2,19.8c-0.3,3.1-2.9,5.3-5.9,5.3h-10.5c-3.1,0-5.6-2.2-5.9-5.3L246.9,214.8z"/>
	<path class="st3" d="M265.3,240.4h-10.6c-3.3,0-6.1-2.4-6.4-5.8l-2-19.8c0-0.1,0-0.3,0.1-0.4c0.1-0.1,0.2-0.2,0.4-0.2h26.4
		c0.1,0,0.3,0.1,0.4,0.2c0.1,0.1,0.2,0.3,0.1,0.4l-2,19.8C271.3,237.9,268.6,240.4,265.3,240.4z M247.5,215.4l1.9,19.1
		c0.3,2.7,2.5,4.8,5.3,4.8h10.6c2.7,0,5.1-2,5.3-4.8l1.9-19.1H247.5z"/>
	<path class="st3" d="M263.7,215.2c0-0.2-2-19.1,7.2-34.4l0.9,0.5c-9.1,15-7.1,33.5-7,33.7L263.7,215.2z"/>
	<path class="st2" d="M239.8,179.2c-0.1,0-0.3-0.1-0.3-0.1c-0.2-0.2-0.2-0.5,0-0.7l0,0c5.4-5.7,13.8-9.2,14.3-9.3
		c0.3-0.1,0.6,0,0.7,0.3s0,0.6-0.3,0.7l0,0c-0.1,0-8.7,3.6-13.8,9.1C240.1,179.2,240,179.2,239.8,179.2z"/>
	<path class="st2" d="M243.4,205.6c-0.3,0-0.5-0.2-0.5-0.5c0-0.1,0-0.2,0.1-0.2c1.9-3.7,4.5-7,7.3-10c0.2-0.2,0.5-0.2,0.7,0l0,0
		c0.2,0.2,0.2,0.5,0,0.7c-2.9,2.9-5.3,6.2-7.1,9.8C243.8,205.5,243.6,205.6,243.4,205.6z"/>
	<path class="st2" d="M287.3,198.3c-0.2,0-0.3-0.1-0.4-0.2c-0.2-0.4-6.2-9.3-13.2-14.6c-0.2-0.2-0.3-0.5-0.1-0.7
		c0.2-0.2,0.5-0.3,0.7-0.1c7,5.3,12.8,13.8,13.5,14.9c0.2,0.2,0.1,0.5-0.1,0.7C287.5,198.3,287.4,198.3,287.3,198.3z"/>
	<rect x="221.8" y="18.8" class="st2" width="62.7" height="44.1"/>
	<path class="st1" d="M284.6,63.4h-62.7c-0.3,0-0.5-0.2-0.5-0.5V18.8c0-0.3,0.2-0.5,0.5-0.5h62.7c0.3,0,0.5,0.2,0.5,0.5v44
		C285.1,63.1,284.9,63.4,284.6,63.4z M222.4,62.3h61.7v-43h-61.7L222.4,62.3L222.4,62.3z"/>
	<path class="st3" d="M262.4,104.6c-0.2,0-0.5-0.2-0.5-0.4l-2.5-16.5l-4.5,1.9c-0.3,0.1-0.6,0-0.7-0.3l0,0c-0.1-0.3,0-0.5,0.3-0.7
		l0,0l5.1-2.2c0.1-0.1,0.3-0.1,0.4,0s0.2,0.2,0.3,0.4l2.6,17.1C262.9,104.2,262.8,104.4,262.4,104.6
		C262.5,104.6,262.5,104.6,262.4,104.6L262.4,104.6z"/>
	<polygon class="st2" points="271.1,122.3 258.2,122.3 257.5,94.4 271.8,94.4 	"/>
	<path class="st3" d="M271.1,122.8h-12.9c-0.3,0-0.5-0.2-0.5-0.5L257,94.5c0-0.1,0-0.3,0.1-0.4s0.2-0.2,0.4-0.2h14.4
		c0.3,0,0.5,0.2,0.5,0.5l-0.7,27.9C271.5,122.6,271.3,122.8,271.1,122.8z M258.7,121.8h11.9l0.7-26.8H258L258.7,121.8z"/>
	<rect x="256.2" y="91.7" class="st2" width="17" height="2.9"/>
	<path class="st3" d="M273.2,95h-17c-0.3,0-0.5-0.2-0.5-0.5v-2.9c0-0.3,0.2-0.5,0.5-0.5h17c0.3,0,0.5,0.2,0.5,0.5v2.9
		C273.7,94.7,273.5,95,273.2,95z M256.7,93.9h16v-1.8h-16V93.9z"/>
	<path class="st1" d="M264.9,113c-3.5,0.3-6.4-2.2-6.7-5.7c-0.3-3.5,2.2-6.4,5.7-6.7s6.4,2.2,6.7,5.7c0,0.2,0,0.3,0,0.5
		C270.7,110,268.2,112.8,264.9,113z M264.9,101.7c-2.9-0.3-5.4,1.7-5.7,4.6c-0.3,2.9,1.7,5.4,4.6,5.7s5.4-1.7,5.7-4.6
		c0-0.2,0-0.3,0-0.5C269.7,104.1,267.7,101.8,264.9,101.7z"/>
	<path class="st1" d="M240.3,54.1c-1.2,0-2.5-0.2-3.8-0.6c-1.5-0.5-3.1-1.1-4.5-1.9l0,0c-0.3-0.2-0.7-0.4-1-0.6c-1.7-1.1-3-3-3.4-5
		c-0.1-0.7,0-1.5,0.3-2.1c0.6-0.8,1.3-1.4,2.2-1.7c0.6-0.2,1.1-0.6,1.6-1c1-1.1,0.6-2.7,0.2-4.4c-0.1-0.4-0.2-0.8-0.3-1.2
		c-0.5-2.6,0.2-5.4,1.9-7.5c1.9-2.1,4.8-3.3,7.6-3c4,0.4,7.1,2.3,8.7,5.3c1.3,2.7,1.2,6-0.4,8.7c-0.5,0.8-0.9,1.7-0.9,2.6
		c0.2,0.8,0.6,1.6,1.3,2.2c0.7,0.7,1.2,1.6,1.5,2.6c0.2,1.7-0.9,3.4-3.4,5C246,53,243.2,53.9,240.3,54.1z M232.5,50.6
		c1.4,0.7,2.9,1.4,4.4,1.8c4.4,1.5,7.7-0.1,10.8-2c2.1-1.4,3.1-2.6,3-4c-0.2-0.8-0.7-1.6-1.3-2.2c-0.8-0.7-1.3-1.7-1.5-2.7
		c0-1.1,0.3-2.2,1-3.3c1.4-2.3,1.6-5.2,0.4-7.7c-1.3-2.5-4.2-4.3-7.8-4.8c-2.5-0.3-5.1,0.7-6.8,2.6c-1.5,1.8-2.2,4.3-1.7,6.6
		c0.1,0.4,0.2,0.8,0.3,1.2c0.4,1.8,0.9,3.9-0.5,5.4c-0.6,0.5-1.2,1-1.9,1.3c-0.7,0.3-1.3,0.7-1.8,1.3c-0.2,0.5-0.3,1-0.2,1.5
		c0.3,1.7,1.4,3.3,3,4.3C231.9,50.2,232.2,50.4,232.5,50.6L232.5,50.6z"/>
	<path class="st1" d="M268.5,53.8c-2.6,0-5.3-0.6-7.7-1.6l-0.5-0.2c-2.2-1.2-4.9-1.1-7,0.3c-1.1,0.6-2.3,1-3.6,1.2
		c-2.9,0.2-5.6-0.9-7.4-3.2l0,0c-1.5-1.6-2.4-3.8-2.9-6c-0.4-2.7,1-5.4,3.5-6.6c2.4-1,5-0.3,7.4,0.4c1.7,0.6,3.7,0.9,5.6,0.8
		c1.4-0.2,2.9-0.7,4.2-1.4c0.8-0.4,1.7-0.8,2.6-1.1c4.2-1.3,12.1,0,15.3,3.5c1.7,1.8,2.3,4.4,1.7,6.8c-0.9,3.2-3.4,5.6-6.5,6.6
		C271.5,53.6,270,53.8,268.5,53.8z M257,50h0.2c1.1,0.1,2.3,0.4,3.4,0.9l0.5,0.2c3.6,1.6,7.6,1.9,11.5,0.9c2.7-0.9,5-3.1,5.8-5.9
		c0.6-2,0-4.3-1.5-5.8c-2.9-3.1-10.4-4.5-14.2-3.2c-0.8,0.3-1.7,0.6-2.4,1c-1.3,0.7-2.9,1.3-4.4,1.5c-2,0.1-4.1-0.2-5.9-0.9
		c-2.4-0.7-4.7-1.3-6.7-0.4c-2,1-3.2,3.4-2.9,5.6c0.3,2,1.2,4,2.6,5.4c1.1,1.2,3.4,3.3,6.5,2.9c1.1-0.2,2.2-0.6,3.3-1.1
		C254.1,50.6,255.5,50.1,257,50z"/>
	<path class="st1" d="M266.9,46.1c-1.4,0.1-2.7-0.5-3.7-1.5c-0.5-0.5-1.1-0.9-1.7-1.2c-0.7-0.4-1.5-0.6-2.4-0.6
		c-1.5,0-3-0.7-3.9-1.8c-1.1-1.4-1.5-3.3-1.1-5c0.4-2.2,1.8-4.3,3.9-5.5c5.4-3.2,15.6,0.1,18.8,4.9c1.1,1.6,2.5,5-1.6,8.3
		c-2.1,1.6-4.8,2.5-7.5,2.5l0,0L266.9,46.1z M263.3,30c-1.6-0.1-3.3,0.3-4.8,1.1c-1.7,1-3,2.9-3.4,4.8c-0.3,1.4,0,3,0.9,4.2
		c0.8,0.9,2,1.4,3.3,1.5c1.8,0.1,3.5,0.9,4.7,2.2c0.9,1,2.2,1.5,3.6,1.2l0,0c2.5-0.1,4.9-0.9,6.9-2.3c2.6-2.1,3.1-4.6,1.4-6.9
		C273.8,32.5,268.1,30,263.3,30z"/>
	<path class="st3" d="M109.2,42.3c0,0,3.4-2.7,0-6.2h-5.4c0,0,1.1,4.5,0,6.2H109.2z"/>
	<path class="st3" d="M109.2,42.8h-5.4c-0.2,0-0.4-0.1-0.5-0.3c-0.1-0.2-0.1-0.4,0-0.5c0.8-1.2,0.2-4.6-0.1-5.8c0-0.2,0-0.3,0.1-0.4
		s0.2-0.2,0.4-0.2h5.4c0.1,0,0.3,0.1,0.4,0.2c1,0.9,1.6,2.3,1.6,3.8c-0.1,1.2-0.7,2.3-1.6,3.2C109.4,42.8,109.3,42.8,109.2,42.8z
		 M104.6,41.8h4.4c0.6-0.6,1-1.4,1.1-2.3c0-1-0.4-2-1.2-2.9h-4.5C105,38.3,105,40.1,104.6,41.8L104.6,41.8z"/>
	<path class="st2" d="M106.3,40.3c0.2-1.2-0.3-2.4-1.1-3.3c-0.4-0.5-0.8-1-1.3-1.4c-1-0.6-2-1-3.2-1.2c-2.5-0.6-5.4,0.2-8,0.2
		c-2.7,0.1-5.5-0.4-8-1.5c-0.9-0.3-1.6-0.8-2.2-1.5c-0.6,3.8-0.5,7.8,1.6,11c1.8,2.3,4.4,4.2,7.2,5c3.9,1.5,8.3,0.9,11.6-1.7
		c1.4-1.1,2.6-2.6,3.3-4.4C106.2,41.1,106.3,40.7,106.3,40.3z"/>
	<path class="st3" d="M95.6,48.9c-1.6,0-3.2-0.3-4.7-0.8c-3-0.9-5.6-2.7-7.4-5.2c-1.9-2.9-2.4-6.6-1.6-11.4c0-0.2,0.2-0.4,0.4-0.4
		c0.2,0,0.4,0,0.5,0.2c0.6,0.6,1.3,1.1,2,1.3c2.5,0.9,5.2,1.4,7.8,1.3c0.8,0,1.7-0.1,2.6-0.2c1.8-0.3,3.7-0.3,5.5,0
		c1.2,0.2,2.3,0.7,3.4,1.3c0.5,0.4,1,0.9,1.4,1.4c1,0.9,1.4,2.3,1.2,3.7l0,0c-0.1,0.5-0.2,0.9-0.4,1.4c-0.7,1.8-1.9,3.4-3.5,4.6
		C100.9,47.9,98.3,48.9,95.6,48.9z M82.7,32.6c-0.5,4.1,0,7.2,1.6,9.7c1.7,2.3,4.2,4,6.9,4.8c3.8,1.5,7.9,0.9,11.1-1.6
		c1.4-1,2.4-2.5,3.1-4.2c0.1-0.4,0.3-0.8,0.3-1.2c0.1-1.1-0.2-2.1-1-2.9c-0.4-0.4-0.8-0.8-1.3-1.2c-0.9-0.6-1.9-1-3.1-1.1
		c-1.7-0.3-3.5-0.3-5.2,0c-0.9,0.1-1.8,0.2-2.7,0.2c-2.9,0-5.6-0.5-8.2-1.5C83.7,33.3,83.2,32.9,82.7,32.6z M106.3,40.3L106.3,40.3z
		"/>
	<rect x="170.1" y="13.3" class="st2" width="43.9" height="29"/>
	<path class="st1" d="M214,42.8h-43.9c-0.3,0-0.5-0.2-0.5-0.5v-29c0-0.3,0.2-0.5,0.5-0.5H214c0.3,0,0.5,0.2,0.5,0.5v29
		C214.5,42.6,214.3,42.8,214,42.8z M170.6,41.8h43v-28h-42.9L170.6,41.8z"/>
	<rect x="170.1" y="42.3" class="st2" width="43.9" height="5.7"/>
	<path class="st1" d="M214,48.5h-43.9c-0.3,0-0.5-0.2-0.5-0.5v-5.7c0-0.3,0.2-0.5,0.5-0.5H214c0.3,0,0.5,0.2,0.5,0.5V48
		C214.5,48.3,214.3,48.5,214,48.5z M170.6,47.5h43v-4.7h-42.9L170.6,47.5z"/>
	<path class="st1" d="M175.1,35.6c-0.3,0-0.5-0.2-0.5-0.5c0-0.1,0-0.2,0.1-0.3c0.5-0.6,12.4-15.3,23.5-14.4c4.4,0.3,7.4,2.6,8,6.2
		c0.6,3.2-1,6.2-3.9,7.6c-3.1,1.4-6,1.4-7.9-0.1c-1.7-1.4-2.6-3.7-2.1-5.9c0.1-1.9,1.4-3.6,3.3-4.2c1.9-0.5,4,0.1,5.3,1.5
		c0.6,0.7,0.7,1.7,0.3,2.5c-0.8,1.5-1.7,2.3-2.7,2.3c-1.7,0-3-1.9-3-2c-0.1-0.2-0.1-0.6,0.2-0.7l0,0c0.2-0.1,0.5-0.1,0.7,0.2l0,0
		c0.3,0.4,1.1,1.5,2,1.5c0.9-0.1,1.4-1,1.8-1.8c0.2-0.5,0.1-1-0.2-1.4c-1.1-1.1-2.6-1.5-4.2-1.1c-1.4,0.4-2.4,1.7-2.4,3.3
		c-0.4,1.8,0.3,3.8,1.7,5c1.7,1.2,4.2,1.2,6.9,0c2.4-1.2,3.8-3.9,3.2-6.5c-0.5-3.1-3.3-5-7.1-5.3c-10.5-0.9-22.5,13.8-22.6,13.9
		C175.4,35.5,175.3,35.6,175.1,35.6z"/>
	<path class="st1" d="M192.3,69.3h-16.9c-0.3,0-0.5-0.2-0.5-0.5V55.2c0-0.3,0.2-0.5,0.5-0.5h16.9c0.3,0,0.5,0.2,0.5,0.5v13.4
		C192.8,69,192.5,69.3,192.3,69.3z M175.9,68.2h15.9V55.8h-15.9V68.2z"/>
	<path class="st1" d="M183.9,57.8c-0.3,0-0.5-0.2-0.5-0.5V54c0-0.3,0.2-0.5,0.5-0.5s0.5,0.2,0.5,0.5v3.2
		C184.4,57.5,184.2,57.7,183.9,57.8L183.9,57.8z"/>
</g>
</svg>
