<?xml version="1.0" encoding="utf-8"?>
<!-- Generator: Adobe Illustrator 25.4.1, SVG Export Plug-In . SVG Version: 6.00 Build 0)  -->
<svg version="1.1" id="Calque_1" xmlns="http://www.w3.org/2000/svg" xmlns:xlink="http://www.w3.org/1999/xlink" x="0px" y="0px"
	 viewBox="0 0 892 217" style="enable-background:new 0 0 892 217;" xml:space="preserve">
<style type="text/css">
	.st0{display:none;}
	.st1{display:inline;fill:#FFFFFF;stroke:#0C7189;stroke-width:3;stroke-miterlimit:10;}
	.st2{fill:#FFFFFF;}
	.st3{fill:#0C7189;}
</style>
<g>
	<g class="st0">
		<path class="st1" d="M39.8,207.5L-5.8,66.9h27.2l33.8,108.2H46L79,66.9h20.4l33,108.2h-9l33.8-108.2H184l-45.6,140.6H118
			l-33.2-108h8.8l-33.2,108H39.8z"/>
		<path class="st1" d="M202.8,207.5V66.9H230v140.6H202.8z M222.8,90.9v-24h76.8v24H222.8z M222.8,147.5v-23.4h71v23.4H222.8z
			 M222.8,207.5v-24h77.8v24H222.8z"/>
		<path class="st1" d="M323.2,207.5V66.9h27v140.6H323.2z M343.2,207.5v-22.2H380c6.4,0,11.4-2,15.1-6c3.7-4,5.5-8.7,5.5-14.2
			c0-3.7-0.8-7.1-2.4-10.1s-4-5.4-7.2-7.3c-3.2-1.9-7-2.8-11.4-2.8h-36.4v-22h33.4c5.7,0,10.3-1.4,13.6-4.2c3.3-2.8,5-7,5-12.6
			c0-5.7-1.7-10-5.1-12.8c-3.4-2.8-7.8-4.2-13.3-4.2h-33.6V66.9h37c9.2,0,16.9,1.7,23.2,5.1c6.3,3.4,11,7.9,14.3,13.4
			c3.3,5.5,4.9,11.6,4.9,18.1c0,8-2.4,14.9-7.3,20.7c-4.9,5.8-12,10.2-21.5,13.1l1.2-9c10.5,2.9,18.7,7.8,24.4,14.5
			c5.7,6.7,8.6,14.8,8.6,24.3c0,7.5-1.9,14.2-5.6,20.3c-3.7,6.1-9.1,10.9-16.1,14.6c-7,3.7-15.4,5.5-25.3,5.5H343.2z"/>
	</g>
</g>
<g>
	<g>
		<polygon class="st2" points="143,160.5 114.4,66.9 94,66.9 65.5,160.2 36.4,66.9 9.2,66.9 54.8,207.5 75.4,207.5 104.2,113.8 
			133,207.5 153.4,207.5 199,66.9 172.2,66.9 		"/>
		<path class="st3" d="M199,66.9L199,66.9 M199,66.9l-45.6,140.6H133l-28.8-93.7l-28.8,93.7H54.8L9.2,66.9h27.2l29.1,93.3L94,66.9
			h20.4l28.6,93.6l29.2-93.6H199 M199,60.9L199,60.9h-26.8c-2.6,0-4.9,1.7-5.7,4.2L143,140.2l-22.9-75c-0.8-2.5-3.1-4.2-5.7-4.2H94
			c-2.6,0-5,1.7-5.7,4.2l-22.8,74.7L42.1,65.1c-0.8-2.5-3.1-4.2-5.7-4.2H9.2c-1.9,0-3.7,0.9-4.9,2.5c-1.1,1.6-1.4,3.6-0.9,5.4
			l45.6,140.6c0.8,2.5,3.1,4.1,5.7,4.1h20.6c2.6,0,5-1.7,5.7-4.2l23.1-75l23.1,75c0.8,2.5,3.1,4.2,5.7,4.2h20.4
			c2.6,0,4.9-1.7,5.7-4.1l45.5-140.4c0.2-0.6,0.4-1.3,0.4-2.1C205,63.6,202.3,60.9,199,60.9L199,60.9z M199,72.9L199,72.9L199,72.9
			L199,72.9z"/>
	</g>
	<g>
		<polygon class="st2" points="245,147.5 308.8,147.5 308.8,124.1 245,124.1 245,90.9 314.6,90.9 314.6,66.9 245,66.9 237.8,66.9 
			217.8,66.9 217.8,207.5 237.8,207.5 245,207.5 315.6,207.5 315.6,183.5 245,183.5 		"/>
		<path class="st3" d="M314.6,66.9v24H245v33.2h63.8v23.4H245v36h70.6v24H245h-7.2h-20V66.9h20h7.2H314.6 M314.6,60.9H245h-7.2h-20
			c-3.3,0-6,2.7-6,6v140.6c0,3.3,2.7,6,6,6h20h7.2h70.6c3.3,0,6-2.7,6-6v-24c0-3.3-2.7-6-6-6H251v-24h57.8c3.3,0,6-2.7,6-6v-23.4
			c0-3.3-2.7-6-6-6H251V96.9h63.6c3.3,0,6-2.7,6-6v-24C320.6,63.6,317.9,60.9,314.6,60.9L314.6,60.9z"/>
	</g>
	<g>
		<path class="st2" d="M434.4,142.8c-3.7-4.3-8.3-7.8-13.9-10.5c3.9-2.3,7.2-5,9.8-8.1c4.9-5.8,7.3-12.7,7.3-20.7
			c0-6.5-1.6-12.6-4.9-18.1c-3.3-5.5-8-10-14.3-13.4c-6.3-3.4-14-5.1-23.2-5.1h-30h-7h-20v140.6h20h7H396c9.9,0,18.3-1.8,25.3-5.5
			c7-3.7,12.4-8.5,16.1-14.6c3.7-6.1,5.6-12.8,5.6-20.3C443,157.6,440.1,149.5,434.4,142.8z M391.8,89.1c5.5,0,9.9,1.4,13.3,4.2
			c3.4,2.8,5.1,7.1,5.1,12.8c0,5.6-1.7,9.8-5,12.6c-3.3,2.8-7.9,4.2-13.6,4.2h-26.4V89.1H391.8z M410.1,179.3c-3.7,4-8.7,6-15.1,6
			h-29.8v-40.4h29.4c4.4,0,8.2,0.9,11.4,2.8c3.2,1.9,5.6,4.3,7.2,7.3s2.4,6.4,2.4,10.1C415.6,170.6,413.8,175.3,410.1,179.3z"/>
		<path class="st3" d="M395.2,66.9c9.2,0,16.9,1.7,23.2,5.1c6.3,3.4,11,7.9,14.3,13.4c3.3,5.5,4.9,11.6,4.9,18.1
			c0,8-2.4,14.9-7.3,20.7c-2.6,3.1-5.9,5.8-9.8,8.1c5.6,2.7,10.2,6.3,13.9,10.5c5.7,6.7,8.6,14.8,8.6,24.3c0,7.5-1.9,14.2-5.6,20.3
			c-3.7,6.1-9.1,10.9-16.1,14.6c-7,3.7-15.4,5.5-25.3,5.5h-30.8h-7h-20V66.9h20h7H395.2 M365.2,122.9h26.4c5.7,0,10.3-1.4,13.6-4.2
			c3.3-2.8,5-7,5-12.6c0-5.7-1.7-10-5.1-12.8c-3.4-2.8-7.8-4.2-13.3-4.2h-26.6V122.9 M365.2,185.3H395c6.4,0,11.4-2,15.1-6
			c3.7-4,5.5-8.7,5.5-14.2c0-3.7-0.8-7.1-2.4-10.1c-1.6-3-4-5.4-7.2-7.3c-3.2-1.9-7-2.8-11.4-2.8h-29.4V185.3 M395.2,60.9h-30h-7
			h-20c-3.3,0-6,2.7-6,6v140.6c0,3.3,2.7,6,6,6h20h7H396c10.8,0,20.3-2.1,28.1-6.2c7.9-4.2,14.1-9.8,18.4-16.8
			c4.3-7,6.5-14.9,6.5-23.4c0-10.9-3.4-20.4-10-28.2c-2.2-2.6-4.8-5-7.7-7.1c1.3-1.2,2.5-2.4,3.6-3.7c5.8-6.9,8.7-15.1,8.7-24.6
			c0-7.6-1.9-14.7-5.7-21.1c-3.8-6.5-9.4-11.7-16.6-15.6C414.1,62.8,405.4,60.9,395.2,60.9L395.2,60.9z M371.2,95.1h20.6
			c4.1,0,7.2,0.9,9.5,2.8c0.7,0.6,2.9,2.4,2.9,8.2c0,5.6-2.2,7.4-2.9,8c-2.2,1.9-5.5,2.8-9.7,2.8h-20.4V95.1L371.2,95.1z
			 M371.2,150.9h23.4c3.3,0,6.1,0.6,8.4,2c2.2,1.3,3.9,2.9,4.9,4.9c1.1,2.1,1.7,4.5,1.7,7.3c0,3.9-1.3,7.3-3.9,10.1
			c-2.5,2.7-6,4.1-10.7,4.1h-23.8V150.9L371.2,150.9z"/>
	</g>
</g>
</svg>
