<?xml version="1.0" encoding="utf-8"?>
<!-- Generator: Adobe Illustrator 25.4.1, SVG Export Plug-In . SVG Version: 6.00 Build 0)  -->
<svg version="1.1" id="Calque_1" xmlns="http://www.w3.org/2000/svg" xmlns:xlink="http://www.w3.org/1999/xlink" x="0px" y="0px"
	 viewBox="0 0 350 263.8" style="enable-background:new 0 0 350 263.8;" xml:space="preserve">
<style type="text/css">
	.st0{fill:#E6E7E8;}
	.st1{fill:#231F20;}
	.st2{fill:#FFFFFF;}
	.st3{fill:#D1D3D4;}
	.st4{fill:#EBCA94;}
</style>
<g id="_519_analytics_process_flatline">
	<path class="st0" d="M217.3,84c0,0,11.1,0.5,27.3,14.1c16.2,13.6,22.1,23,22.1,23V67.3c0,0-20.6-23.8-47.7-32.9L217.3,84z"/>
	<path class="st1" d="M266.7,121.6c-0.2,0-0.3-0.1-0.4-0.2c-0.1-0.1-6.1-9.5-22-22.9s-26.9-14-27-14c-0.3,0-0.5-0.3-0.5-0.5
		l1.6-49.5c0-0.2,0.1-0.3,0.2-0.4c0.1-0.1,0.3-0.1,0.4-0.1c27,9,47.8,32.8,48,33c0.1,0.1,0.1,0.2,0.1,0.3v53.8
		c0,0.2-0.1,0.4-0.4,0.5L266.7,121.6z M217.8,83.5c2.4,0.3,12.7,2,27.1,14.2c12.6,10.6,19,18.7,21.3,21.8v-52
		c-1.7-2-21.4-23.7-46.8-32.4L217.8,83.5z"/>
	<path class="st0" d="M100.8,102.8V54.9c18.6-6.5,38.3-9.1,58-7.8V93C158.7,93,123.3,94,100.8,102.8z"/>
	<path class="st1" d="M100.8,103.3c-0.1,0-0.2,0-0.3-0.1c-0.1-0.1-0.2-0.3-0.2-0.4V54.9c0-0.2,0.1-0.4,0.3-0.5
		c18.7-6.5,38.5-9.1,58.2-7.9c0.3,0,0.5,0.2,0.5,0.5V93c0,0.3-0.2,0.5-0.5,0.5c0,0,0,0,0,0c-0.4,0-35.7,1.1-57.9,9.7
		C100.9,103.3,100.8,103.3,100.8,103.3z M101.3,55.3v46.8c20.9-7.9,52.6-9.4,57-9.5v-45C139,46.4,119.6,49,101.3,55.3z"/>
	<path class="st1" d="M107.7,94.9c-0.1,0-0.2,0-0.3-0.1c-0.1-0.1-0.2-0.2-0.2-0.4v-34c0-0.3,0.2-0.5,0.5-0.5c0.3,0,0.5,0.2,0.5,0.5
		v33.3c4.6-1.4,30.6-9.3,40.3-7.3c0.3,0.1,0.5,0.3,0.4,0.6c-0.1,0.3-0.3,0.5-0.6,0.4c-10.2-2.1-40.1,7.4-40.4,7.5H107.7z"/>
	<path class="st0" d="M78.6,129.4c0,0-17.3,7.2-23.8,28.3v-42.3c0,0-0.4-20.5,23.8-33.6V129.4z"/>
	<path class="st1" d="M54.7,158.3L54.7,158.3c-0.3,0-0.5-0.2-0.5-0.5v-42.4c0-0.2,0-21,24-34c0.2-0.1,0.3-0.1,0.5,0
		c0.2,0.1,0.2,0.3,0.2,0.4v47.6c0,0.2-0.1,0.4-0.3,0.5c-11.4,5.7-19.9,15.8-23.5,28C55.1,158.1,54.9,158.3,54.7,158.3z M78,82.7
		c-22.8,12.7-22.8,32.5-22.8,32.7v39.3c4.1-11.1,12.2-20.2,22.8-25.6L78,82.7z M78.5,129.4L78.5,129.4z"/>
	<path class="st2" d="M54.7,115.4c0,0,4.2,18.4,20.5,24.5v49.6c0,0-18.6-12.8-20.5-31.7V115.4z"/>
	<path class="st1" d="M75.2,190c-0.1,0-0.2,0-0.3-0.1c-0.2-0.1-18.8-13.2-20.7-32.1v-42.4c0-0.3,0.2-0.5,0.5-0.6
		c0.3,0,0.5,0.2,0.6,0.5c0,0.2,4.4,18.2,20.2,24.2c0.2,0.1,0.3,0.3,0.3,0.5v49.6c0,0.2-0.1,0.4-0.3,0.4C75.4,190,75.3,190,75.2,190z
		 M55.2,118.7v39.1c1.7,16.2,16,28,19.5,30.7v-48.2C62.8,135.6,57.2,124.3,55.2,118.7z"/>
	<path class="st2" d="M273.9,155.2c-1.9,0.4-84.6,38.6-84.6,38.6S157,182,156.2,182.3c-0.8,0.4,81.5-33.9,81.5-33.9L273.9,155.2z"/>
	<path class="st1" d="M189.3,194.3c-0.1,0-0.1,0-0.2,0c-12.5-4.6-31.6-11.4-32.9-11.4v-0.1c-0.4,0.1-0.4,0-0.5-0.2
		c-0.1-0.2,0-0.5,0.2-0.7h0.1l0,0c1.1-0.4,80.7-33.6,81.5-33.9c0.1,0,0.2,0,0.3,0l36.2,6.8c0.2,0.1,0.4,0.3,0.4,0.5
		c0,0.2-0.2,0.5-0.4,0.5c-1.8,0.5-56.1,25.4-84.5,38.6C189.5,194.3,189.4,194.3,189.3,194.3z M157.9,182.2c2.9,0.8,10.6,3.4,31.5,11
		c8.6-4,71.5-33,82.8-37.8l-34.3-6.4l-40.6,16.9l-28,11.7l-9.2,3.8L157.9,182.2z"/>
	<path class="st3" d="M189.3,189.1h-0.2l-22-6.7c-0.2-0.1-0.3-0.2-0.4-0.5c0-0.2,0.1-0.4,0.3-0.5l62.2-26.1c0.2-0.1,0.5,0,0.6,0.2
		l6.5,11.4c0.1,0.1,0.1,0.3,0,0.4c0,0.1-0.1,0.3-0.3,0.3l-46.7,21.4C189.4,189.1,189.4,189.1,189.3,189.1z M168.8,181.8l20.5,6.3
		l46-21.1l-6-10.6L168.8,181.8z"/>
	<path class="st2" d="M154.3,24c-2.6,0.6-5,1.7-7.1,3.4c-2,1.5-4.1,3.7-3.4,6.1c0.3,0.9,0.9,1.9,0.3,2.7c-0.4,0.5-1.1,0.5-1.7,0.6
		c-3.6,0.5-6.1,3.9-5.5,7.5c0.2,1.4,0.8,2.6,1.8,3.6c-4.4,0.2-7.8,4-7.5,8.4c0,0.2,0,0.3,0,0.5c0.2,1.1,0.6,2.3,1.1,3.3
		c0.8,1.8,1.9,3.6,1.6,5.5c-2-0.4-3.9,1.7-3.8,3.8c0.3,2.1,1.6,3.9,3.4,4.9c-2,0.3-3.3,2.7-2.9,4.7c0.5,2,1.8,3.8,3.5,4.9
		c4.2,2.9,9.5,3.6,14.2,1.8c0.4,1.9,1.8,3.5,3.7,4.2c1.9,0.6,3.8,0.9,5.8,0.7c3.6,0,7.6-0.3,10.3-2.8c0.6-0.5,1.2-1.4,0.8-2.1
		c-0.5-0.9-2.1-0.9-2.2-1.9c2.7-0.2,5.3-1.1,7.5-2.8c1.6-1.1,2.7-2.7,3-4.6c0.1-1.5-0.6-3-1.9-3.9c1.5-1.3,3.2-3.3,2.4-5.1
		c-0.6-1.5-2.7-2.5-2.3-4c3.7-1.6,5.4-5.8,3.8-9.5c-0.4-0.9-0.9-1.7-1.6-2.4c3.8-1.4,5.7-5.5,4.3-9.3c-0.8-2.1-2.4-3.7-4.5-4.4
		c1.5-2.5,0.7-5.7-1.8-7.3c-0.8-0.5-1.8-0.8-2.8-0.8c0.8-1.4,0.4-3.1-0.9-4c-1.3-0.8-2.9-1-4.4-0.7c-2.5,0.4-4.2,1.1-6.5,0
		S156.8,23.6,154.3,24z"/>
	<path class="st1" d="M157.3,91.2c-1.9,0.1-3.7-0.2-5.5-0.8c-1.8-0.7-3.3-2.1-3.9-4c-4.8,1.6-10,0.8-14.1-2
		c-1.9-1.2-3.2-3.1-3.7-5.2c-0.3-2,0.6-3.9,2.3-5c-1.6-1.1-2.6-2.8-2.8-4.7c-0.1-1.4,0.5-2.7,1.6-3.5c0.6-0.6,1.4-0.9,2.3-0.9
		c-0.1-1.5-0.6-3-1.3-4.2l-0.2-0.5c-0.6-1.1-1-2.2-1.2-3.4c-0.3-2.3,0.4-4.7,1.9-6.5c1.3-1.6,3.1-2.6,5.1-2.9
		c-2.3-3.2-1.6-7.6,1.6-9.9c0.9-0.7,2-1.1,3.1-1.3h0.2c0.5-0.1,1-0.1,1.2-0.4s0.1-0.8-0.2-1.6c-0.1-0.2-0.2-0.4-0.2-0.7
		c-0.9-2.9,1.9-5.4,3.6-6.7c2.1-1.7,4.6-2.9,7.3-3.5l0,0c2.6-0.5,4.5,0.1,7,1.2c1.7,0.8,3,0.5,4.7,0.2c0.5-0.1,1-0.2,1.5-0.3
		c1.6-0.4,3.4-0.1,4.8,0.8c0.8,0.6,1.4,1.5,1.6,2.5c0.1,0.5,0,0.9-0.2,1.4c3.2,0.4,5.4,3.3,5,6.5c-0.1,0.6-0.3,1.2-0.5,1.7
		c3.9,1.6,5.8,6.2,4.1,10.1c-0.7,1.8-2.1,3.2-3.8,4c2.8,3.3,2.4,8.2-0.9,10.9c-0.5,0.4-1.1,0.8-1.7,1.1c0,0.5,0.4,1,1,1.7
		c0.5,0.5,0.9,1,1.2,1.6c0.7,1.6,0,3.3-2,5.3c1.1,1,1.7,2.5,1.6,4c-0.3,2-1.5,3.9-3.2,5c-2,1.5-4.4,2.5-6.9,2.8l0.4,0.2
		c0.5,0.2,1,0.6,1.3,1c0.4,1,0,2.2-0.9,2.8c-2.8,2.5-6.7,2.9-10.6,2.9L157.3,91.2z M148.4,85.3c0.3,0,0.5,0.2,0.5,0.4
		c0.4,1.8,1.7,3.2,3.4,3.8c1.8,0.6,3.7,0.8,5.6,0.7c3.7,0,7.4-0.4,10-2.6c0.5-0.4,0.9-1.1,0.6-1.5c-0.2-0.3-0.5-0.5-0.9-0.6
		c-0.6-0.3-1.3-0.6-1.4-1.5c0-0.1,0-0.3,0.1-0.4c0.1-0.1,0.2-0.2,0.4-0.2c2.6-0.2,5.1-1.1,7.2-2.7c1-0.7,2.6-2.3,2.8-4.3
		c0.1-1.4-0.5-2.7-1.6-3.5c-0.1-0.1-0.2-0.2-0.2-0.4c0-0.2,0.1-0.3,0.2-0.4c2-1.8,2.8-3.3,2.3-4.5c-0.3-0.5-0.6-1-1-1.4
		c-0.7-0.8-1.6-1.7-1.2-2.9c0-0.2,0.1-0.3,0.3-0.3c3.4-1.5,5-5.4,3.6-8.8c-0.4-0.8-0.9-1.6-1.5-2.2c-0.1-0.1-0.2-0.3-0.2-0.5
		c0-0.2,0.2-0.3,0.3-0.4c3.5-1.3,5.3-5.1,4-8.6c-0.7-1.9-2.2-3.4-4.2-4.1c-0.1,0-0.3-0.2-0.3-0.3c-0.1-0.1-0.1-0.3,0-0.4
		c1.4-2.3,0.6-5.2-1.6-6.6c-0.7-0.4-1.6-0.7-2.4-0.7l0,0c-0.2,0-0.4-0.1-0.5-0.3c-0.1-0.2-0.1-0.4,0.1-0.5c0.3-0.4,0.4-0.9,0.3-1.4
		c-0.1-0.7-0.5-1.4-1.1-1.8c-1.2-0.7-2.7-0.9-4.1-0.6c-0.5,0.1-1,0.2-1.5,0.2c-1.8,0.3-3.4,0.6-5.3-0.3c-2.3-1.1-4.1-1.6-6.4-1.2
		c-2.5,0.6-4.9,1.7-6.9,3.3c-1.2,0.9-3.9,3.2-3.2,5.6c0.1,0.2,0.1,0.4,0.2,0.6c0.4,0.8,0.4,1.7,0,2.5c-0.5,0.5-1.1,0.8-1.8,0.8h-0.2
		c-3.3,0.5-5.6,3.6-5.1,6.9c0.2,1.2,0.8,2.4,1.6,3.3c0.1,0.1,0.2,0.4,0.1,0.5c-0.1,0.2-0.3,0.3-0.5,0.3c-4.1,0.2-7.3,3.8-7,7.9
		c0,0.1,0,0.3,0,0.4c0.2,1.1,0.6,2.2,1.1,3.1l0.2,0.5c0.8,1.7,1.7,3.4,1.4,5.3c0,0.1-0.1,0.3-0.2,0.3c-0.1,0.1-0.3,0.1-0.4,0.1
		c-0.7-0.1-1.5,0.1-2,0.6c-0.8,0.7-1.2,1.6-1.2,2.7c0.3,1.9,1.4,3.6,3.2,4.4c0.2,0.1,0.3,0.4,0.2,0.7c-0.1,0.1-0.2,0.2-0.4,0.3
		c-1.8,0.3-2.8,2.4-2.5,4.2c0.5,1.9,1.7,3.5,3.3,4.5c4,2.8,9.2,3.5,13.8,1.8C148.2,85.3,148.3,85.3,148.4,85.3z M154.3,24.1
		L154.3,24.1z"/>
	<path class="st2" d="M181.9,87.8c0,0,29.2,37.6,30.9,37.8c0,0,30.8-4.3,32.7-7.4c1.9-3,4.1-2.2,4.1-2.2s1.9-3.7,4.3-4.1
		c2.4-0.4,9.8,4.1,5.5,7c-4.3,2.9-42.7,27.1-47.9,27.6c-16.5,1.7-32.3-37.8-30.4-43.1L181.9,87.8z"/>
	<path class="st1" d="M210.5,147.1c-4.9,0-10.2-3.4-15.4-10c-9-11.4-15.8-29.7-14.5-33.7l0.8-15.5c0-0.2,0.2-0.4,0.4-0.5
		c0.2-0.1,0.4,0,0.5,0.2c11.3,14.5,28.6,36.3,30.6,37.6c11.8-1.7,30.9-5.1,32.2-7.1c1.6-2.6,3.4-2.6,4.3-2.5c0.6-1,2.3-3.6,4.4-4.1
		c1.9-0.4,6.2,1.9,7.2,4.3c0.6,1.3,0,2.9-1.3,3.5c-3.3,2.2-42.6,27.1-48.1,27.7C211.2,147,210.9,147.1,210.5,147.1z M182.3,89.2
		l-0.8,14.2c0,0,0,0.1,0,0.1c-1.1,3.2,5.1,21.2,14.3,32.9c3.7,4.7,9.5,10.1,15.6,9.6c5-0.5,42.1-23.9,47.7-27.5
		c1-0.7,1.3-1.4,0.9-2.3c-0.8-2-4.6-4-6.1-3.7c-1.8,0.3-3.4,2.9-3.9,3.8c-0.1,0.2-0.4,0.3-0.6,0.2c-0.1,0-1.8-0.6-3.5,2
		c-2,3.1-29.9,7.1-33.1,7.6c0,0-0.1,0-0.1,0C211.1,125.9,191.5,101.1,182.3,89.2L182.3,89.2z M181.1,103.4L181.1,103.4z"/>
	<path class="st4" d="M160.2,77.7c0,0-13.2-5.3-29.3,8.5c-7.3,6.2-8.7,12.9-11.8,19.8c2.4,23.1,10.9,63.2,10.9,63.2h55.2
		c0,0,4.5-33.6,6.1-53.8c1-12.6-4.7-22-7.7-27C178.5,79.8,160.2,77.7,160.2,77.7z"/>
	<path class="st1" d="M151.6,80.7c1,1.9,17.8,46,17.8,46V85.5L151.6,80.7z"/>
	<path class="st1" d="M169.5,127.2c-0.2,0-0.4-0.1-0.5-0.3c-0.2-0.4-16.8-44.1-17.8-46c-0.1-0.2,0-0.6,0.2-0.7
		c0.1-0.1,0.2-0.1,0.4,0l17.8,4.8c0.2,0.1,0.4,0.3,0.4,0.5v41.2C170,127,169.8,127.2,169.5,127.2L169.5,127.2z M152.5,81.5
		c2.4,5.8,13.1,33.7,16.4,42.5V85.9L152.5,81.5z"/>
	<path class="st2" d="M176.1,44l0.8,2.8c0.4,1.2,1.4,1.7,1.9,2.7c0.5,1,0.3,3.3,0.4,4.5c0.2,3.1,0,6.2-0.6,9.2
		c-0.9,4-4.2,7.1-8.2,7.8l-0.4,12.5c0,0-0.1,6.4-8,5.2c-4.6-0.7-8.5-3.8-10.3-8.1l-0.1-16.2c0-1.7-0.7-5,0-6.6
		c0.7-1.6,3.7-2.7,5-4.2c1.8-2,2.8-4.6,2.9-7.3c2.9,0.1,5.6-1.4,7-3.9c2.4,2.9,6.6,3.3,9.5,1.1L176.1,44z"/>
	<path class="st1" d="M163.8,89.5c-0.7,0-1.4-0.1-2-0.2c-4.8-0.7-8.8-3.9-10.7-8.4c0-0.1,0-0.1,0-0.2L151,64.4
		c0-0.5-0.1-1.2-0.1-1.9c-0.2-1.7-0.4-3.7,0.1-4.9c0.4-1.1,1.7-1.9,2.9-2.6c0.8-0.5,1.6-1,2.2-1.7c1.7-2,2.7-4.4,2.8-7
		c0-0.1,0.1-0.3,0.2-0.4c0.1-0.1,0.2-0.2,0.4-0.1c2.7,0.1,5.2-1.3,6.5-3.7c0.1-0.2,0.2-0.3,0.4-0.3c0.2,0,0.3,0.1,0.4,0.2
		c2.2,2.6,6,3.1,8.8,1c0.1-0.1,0.3-0.2,0.5-0.1c0.2,0.1,0.3,0.2,0.3,0.3l0.2,0.6l0,0l0.8,2.8c0.2,0.5,0.5,1,0.9,1.4
		c0.4,0.4,0.8,0.8,1,1.3c0.4,1.2,0.5,2.4,0.4,3.6c0,0.4,0,0.8,0,1.1c0.2,3.1,0,6.3-0.7,9.4c-1,4-4.2,7.2-8.2,8.1l-0.4,12.1
		c-0.1,1.7-0.9,3.3-2.1,4.4C167,89,165.4,89.5,163.8,89.5z M152.2,80.6c1.8,4.1,5.5,7,9.9,7.7c2.4,0.4,4.3,0,5.6-1
		c1-0.9,1.7-2.3,1.8-3.7l0.4-12.6c0-0.3,0.2-0.5,0.4-0.5c3.8-0.7,6.9-3.6,7.8-7.4c0.7-3,0.9-6,0.6-9.1c0-0.3,0-0.8,0-1.2
		c0.1-1.1,0-2.1-0.3-3.2c-0.2-0.4-0.5-0.7-0.8-1c-0.5-0.5-0.9-1.1-1.2-1.8l-0.8-2.8c-2.9,1.8-6.7,1.4-9.1-1c-1.5,2.2-4,3.5-6.6,3.5
		c-0.2,2.6-1.3,5.1-3,7.1c-0.7,0.8-1.5,1.5-2.4,2c-1,0.7-2.2,1.4-2.5,2.2c-0.3,1.5-0.3,3-0.1,4.5c0.1,0.7,0.1,1.4,0.1,2L152.2,80.6z
		"/>
	<path class="st2" d="M155.9,58c0,0-3.6-8.8-8.1-3.5s1.6,11.6,5.5,11.2"/>
	<path class="st1" d="M152.9,66.2c-2.3,0-5.1-1.9-6.4-4.4c-1.4-2.4-1-5.5,0.9-7.6c1.2-1.4,2.5-2,3.9-1.9c3,0.5,5,5.3,5.1,5.5
		c0.1,0.2,0,0.6-0.2,0.7c-0.2,0.1-0.6,0-0.7-0.2c0,0,0-0.1,0-0.1c0,0-1.8-4.4-4.3-4.8c-1-0.2-1.9,0.4-2.9,1.5
		c-1.6,1.8-1.9,4.4-0.8,6.4c1.2,2.3,3.8,4.1,5.8,3.9c0.3,0,0.5,0.2,0.6,0.5c0,0.3-0.2,0.5-0.5,0.6C153.2,66.2,153,66.2,152.9,66.2z"
		/>
	<path class="st1" d="M172.2,63.5c-0.9,0-1.8-0.2-2.6-0.4c-0.3-0.1-0.4-0.4-0.4-0.7c0.1-0.3,0.4-0.4,0.7-0.4l0,0
		c0.7,0.2,2.6,0.6,3.6,0.1c0.2-0.5-1.3-3.5-3.4-6.4c-0.2-0.2-0.1-0.5,0.1-0.7c0.2-0.2,0.5-0.1,0.7,0.1c0,0,0,0,0,0
		c0.9,1.3,3.9,5.7,3.5,7.3c-0.1,0.3-0.3,0.5-0.5,0.6C173.4,63.4,172.8,63.5,172.2,63.5z"/>
	<path class="st1" d="M169.1,67.3c-0.7,0-1.5-0.1-2.2-0.3c-2.1-0.6-4-2-5.2-3.8c-0.1-0.3,0-0.6,0.3-0.7c0,0,0,0,0,0
		c0.3-0.1,0.5,0,0.7,0.3c1.1,1.6,2.8,2.8,4.7,3.2c2.4,0.6,5-0.1,7.6-2c0.2-0.2,0.5-0.1,0.7,0.1c0.1,0.2,0.1,0.5-0.1,0.7
		C173.8,66.3,171.5,67.2,169.1,67.3z"/>
	<path class="st1" d="M170.3,71.1c0,0-6.7,0.6-10.5-0.5c0,0,3.9,10,10.2,10.2L170.3,71.1z"/>
	<path class="st1" d="M170,81.3L170,81.3c-6.6-0.2-10.5-10-10.7-10.5c-0.1-0.2,0-0.4,0.1-0.5c0.1-0.1,0.3-0.2,0.5-0.2
		c3.7,1.1,10.3,0.5,10.3,0.5c0.1,0,0.3,0,0.4,0.1c0.1,0.1,0.2,0.2,0.2,0.4l-0.3,9.7C170.5,81.1,170.3,81.3,170,81.3
		C170,81.3,170,81.3,170,81.3z M160.6,71.4c1.1,2.3,4.3,8.4,8.9,8.9l0.3-8.6C166.7,71.9,163.7,71.8,160.6,71.4z"/>
	
		<ellipse transform="matrix(0.9998 -1.999600e-02 1.999600e-02 0.9998 -1.0574 3.3319)" class="st1" cx="166.1" cy="54.5" rx="1" ry="1.7"/>
	
		<ellipse transform="matrix(0.9998 -1.999600e-02 1.999600e-02 0.9998 -1.052 3.5128)" class="st1" cx="175.1" cy="54.4" rx="1" ry="1.7"/>
	<path class="st1" d="M163.8,58c-3,0-3.1-0.2-3.2-0.4c-0.1-0.2-0.4-0.5-0.5-5.9c0-0.3,0.2-0.5,0.5-0.5c9.9-0.5,10.2-0.4,10.3-0.4
		c0.2,0.1,0.4,0.3,0.4,0.5l-0.4,6c0,0.3-0.2,0.5-0.5,0.5C167.3,57.9,165.2,58,163.8,58z M161.3,56.9c1,0.1,4.8,0.1,8.5-0.1l0.3-5.1
		c-1.5,0-5.9,0.2-9.1,0.4C161.1,53.7,161.2,55.3,161.3,56.9z"/>
	<path class="st1" d="M182.4,57.8h-9.4c-0.3,0-0.5-0.2-0.5-0.5c0,0,0,0,0,0l-0.1-6c0-0.3,0.2-0.5,0.5-0.5c9.6-0.1,9.9,0,10,0
		c0.2,0.1,0.4,0.3,0.4,0.5l-0.4,6C182.9,57.6,182.7,57.8,182.4,57.8C182.4,57.8,182.4,57.8,182.4,57.8z M173.6,56.8h8.4l0.3-5.1
		c-1.4,0-5.7,0-8.8,0L173.6,56.8z"/>
	<path class="st1" d="M173,54.3h-2.3c-0.3,0-0.5-0.2-0.5-0.5s0.2-0.5,0.5-0.5h2.3c0.3,0,0.5,0.2,0.5,0.5S173.3,54.3,173,54.3z"/>
	<path class="st2" d="M142.5,115.4c0,0-2.8,27.6-1.4,34.2l46.3,6.5c0,0,11.9-0.5,17.6,1.6c3.5,1.2,9.9,6.7,8.7,8.4s-4.3,3.9-7.1,3
		c-2.8-0.8-10.8-3.3-10.8-3.3s6.2,5.6,2.5,5.2c-3.7-0.4-7.8-3-7.8-3s-25.7,4.9-42.2,4.1c-20.3-1-28.9-5.8-31.2-17.8
		c-2.3-12,0.1-43.3,2.1-48.3"/>
	<path class="st1" d="M152.3,172.8c-1.4,0-2.8,0-4.1-0.1c-20.8-1.1-29.4-6-31.7-18.3c-2.3-12.3,0.2-43.7,2.2-48.6
		c0.1-0.3,0.4-0.4,0.6-0.3c0,0,0,0,0,0c0.3,0.1,0.4,0.4,0.3,0.6c0,0,0,0,0,0c-1.9,4.8-4.4,36-2.1,48c2.2,11.7,10.6,16.4,30.8,17.4
		c16.2,0.8,41.8-4,42.1-4.1c0.1,0,0.3,0,0.4,0.1c0,0,4.1,2.5,7.6,2.9c0.2,0.1,0.4,0.1,0.6,0c0.1-0.5-1.5-2.5-3.5-4.3
		c-0.2-0.2-0.2-0.4-0.1-0.6c0.1-0.2,0.4-0.3,0.6-0.2c0.1,0,7.9,2.5,10.7,3.3c2.5,0.7,5.5-1.2,6.6-2.9c0.1-0.2,0.1-0.4,0-0.6
		c-0.7-2-5.5-6.1-8.4-7.1c-5.6-2-17.3-1.5-17.4-1.5l-46.4-6.5c-0.2,0-0.4-0.2-0.4-0.4c-1.4-6.6,1.3-33.2,1.4-34.4
		c0-0.3,0.3-0.5,0.6-0.5c0.3,0,0.5,0.3,0.5,0.6c0,0.3-2.7,26.7-1.5,33.7l45.9,6.5c0.4,0,11.9-0.5,17.7,1.6c3,1.1,8.2,5.3,9.1,7.7
		c0.2,0.5,0.2,1-0.1,1.4c-1.3,1.9-4.7,4.1-7.7,3.3c-1.9-0.5-6.2-1.9-8.7-2.7c1.3,1.3,2.6,3,2.2,4c-0.2,0.5-0.8,0.7-1.7,0.6
		c-2.8-0.5-5.5-1.5-7.9-2.9C188.2,169.1,167.7,172.8,152.3,172.8z"/>
	<path class="st1" d="M142.5,115.9L142.5,115.9c-0.3-0.1-0.5-0.3-0.5-0.6l3.6-20.1c0.1-0.3,0.3-0.5,0.6-0.4c0.3,0.1,0.5,0.3,0.4,0.6
		l0,0l-3.6,20.1C143.1,115.8,142.8,115.9,142.5,115.9z"/>
	<path class="st4" d="M216.1,187.5v-73.2c0,0,63.2-2.4,89.3-28.6v75.6C305.4,161.4,279.3,182.7,216.1,187.5z"/>
	<path class="st1" d="M216.1,188c-0.1,0-0.2,0-0.3-0.1c-0.1-0.1-0.2-0.2-0.2-0.4v-73.2c0-0.3,0.2-0.5,0.5-0.5
		c0.6,0,63.3-2.7,89-28.4c0.1-0.1,0.4-0.2,0.6-0.1c0.2,0.1,0.3,0.3,0.3,0.5v75.6c0,0.2-0.1,0.3-0.2,0.4
		C305.4,162,278.7,183.3,216.1,188L216.1,188z M216.6,114.9V187c59.2-4.6,85.8-24,88.3-25.9V87C279.7,111,222.5,114.6,216.6,114.9
		L216.6,114.9z"/>
	<path class="st2" d="M85.4,214.6v-50.2c0,0,28.1,18.5,70,14.4v48.9C155.5,227.8,128,236.1,85.4,214.6z"/>
	<path class="st1" d="M140.8,229.8c-12.3,0-31.6-2.6-55.6-14.8c-0.2-0.1-0.3-0.3-0.3-0.5v-50.2c0-0.2,0.1-0.4,0.3-0.4
		c0.2-0.1,0.4-0.1,0.5,0c0.3,0.2,28.4,18.4,69.7,14.3c0.1,0,0.3,0,0.4,0.1c0.1,0.1,0.2,0.2,0.2,0.4v48.9c0,0.2-0.1,0.4-0.4,0.5
		C155.5,228.3,150.2,229.8,140.8,229.8z M86,214.3c39.1,19.7,65.6,13.9,69,13.1v-48c-37.5,3.5-64.2-11.2-69-14.1V214.3z"/>
	<path class="st1" d="M230.8,174c-0.1,0-0.3,0-0.3-0.1c-0.1-0.1-0.2-0.2-0.2-0.4v-52.1c0-0.3,0.2-0.5,0.5-0.5
		c3.3-0.3,15.9-1.8,16-1.8c0.1,0,0.3,0,0.4,0.1c0.1,0.1,0.2,0.2,0.2,0.4v51.1c0,0.2-0.1,0.4-0.3,0.5
		C242.3,173.2,231.3,174,230.8,174L230.8,174z M231.3,121.9V173c2.3-0.2,10.9-1,15-2.6v-50.2C243.9,120.4,234.6,121.5,231.3,121.9
		L231.3,121.9z"/>
	<path class="st1" d="M256.7,168.7c-0.1,0-0.2,0-0.3-0.1c-0.1-0.1-0.2-0.2-0.2-0.4v-40.4c0-0.2,0.2-0.5,0.4-0.5
		c5.4-1,10.8-2.5,15.9-4.5c0.1-0.1,0.3-0.1,0.5,0c0.1,0.1,0.2,0.3,0.2,0.4v39.6c0,0.2-0.1,0.4-0.3,0.4
		C267.8,165.8,262.4,167.6,256.7,168.7L256.7,168.7z M257.2,128.2v39.4c5.2-1.1,10.2-2.8,15-5.2v-38.5
		C267.3,125.8,262.3,127.2,257.2,128.2L257.2,128.2z"/>
	<path class="st1" d="M281.8,159.6c-0.1,0-0.2,0-0.3-0.1c-0.1-0.1-0.2-0.2-0.2-0.4v-28.7c0-0.2,0.2-0.4,0.4-0.5
		c5-1.3,9.8-3.4,14.2-6.2c0.2-0.1,0.4-0.1,0.5,0c0.2,0.1,0.3,0.3,0.3,0.5v29c0,0.2-0.1,0.3-0.2,0.4c-4.5,2.7-9.4,4.7-14.5,6
		L281.8,159.6z M282.3,130.8v27.7c4.7-1.2,9.2-3.1,13.4-5.6v-27.8C291.5,127.6,287,129.5,282.3,130.8z"/>
	<path class="st2" d="M276.8,111.8c-0.3,0-0.5-0.2-0.6-0.4c0-0.3,0.2-0.5,0.4-0.6c0.1,0,11.6-3,20.3-9.6c0.2-0.2,0.5-0.1,0.7,0.1
		c0.2,0.2,0.1,0.5-0.1,0.7c-8.9,6.7-20.6,9.7-20.7,9.8L276.8,111.8z"/>
	<path class="st2" d="M285.5,114.4c-0.3,0.1-0.6-0.1-0.6-0.4c-0.1-0.3,0.1-0.6,0.4-0.6l1.8-0.8c3.5-1.4,6.9-3.2,9.9-5.6
		c0.2-0.2,0.5-0.1,0.7,0.1c0.1,0.2,0.1,0.5-0.1,0.6c-3.1,2.4-6.5,4.3-10.1,5.8l-1.8,0.8C285.7,114.4,285.6,114.4,285.5,114.4z"/>
	<path class="st3" d="M70.8,148.9c-0.1,0-0.2,0-0.3-0.1c-5.1-3.6-9.6-7.9-13.3-12.9c-0.2-0.2-0.1-0.5,0.1-0.7
		c0.2-0.2,0.5-0.1,0.7,0.1c3.6,4.9,8,9.1,13,12.6c0.2,0.2,0.3,0.5,0.1,0.7C71.1,148.9,71,148.9,70.8,148.9z"/>
	<path class="st3" d="M70.8,158.3c-0.1,0-0.2,0-0.3-0.1c-5.1-3.6-9.6-7.9-13.3-12.9c-0.2-0.2-0.1-0.5,0.1-0.7
		c0.2-0.2,0.5-0.1,0.7,0.1c3.6,4.9,8,9.2,13,12.6c0.2,0.2,0.3,0.5,0.1,0.7C71.1,158.2,71,158.3,70.8,158.3z"/>
	<path class="st3" d="M70.8,167.6c-0.1,0-0.2,0-0.3-0.1c-5.1-3.6-9.6-7.9-13.3-12.9c-0.2-0.2-0.1-0.5,0.1-0.7
		c0.2-0.2,0.5-0.1,0.7,0.1c3.6,4.9,8,9.1,13,12.6c0.2,0.2,0.3,0.5,0.1,0.7C71.1,167.5,71,167.6,70.8,167.6z"/>
	<path class="st1" d="M258.3,103.3c-0.1,0-0.3-0.1-0.4-0.2c-10.7-12.3-31.4-24.8-31.6-24.9c-0.2-0.1-0.2-0.3-0.2-0.4V44.7
		c0-0.3,0.2-0.5,0.5-0.5c0.3,0,0.5,0.2,0.5,0.5v32.8c2.4,1.5,21.4,13.3,31.6,25c0.2,0.2,0.2,0.5,0,0.7
		C258.6,103.3,258.4,103.3,258.3,103.3z"/>
	<path class="st1" d="M247.1,81.6c-0.4,0-0.7-0.1-1-0.2c-1.8-0.9-2.3-4.2-2.9-7.7c-0.4-2.5-0.8-5.1-1.7-6.7
		c-0.2-0.4-0.5-0.6-0.9-0.6c-2.8-0.1-8.7,7.6-10.8,10.6c-0.2,0.2-0.5,0.2-0.7,0c-0.2-0.2-0.2-0.4-0.1-0.6c0.8-1.1,7.7-11,11.6-11
		h0.1c0.7,0,1.4,0.5,1.7,1.1c1,1.7,1.4,4.4,1.8,7c0.5,3,1,6.3,2.3,6.9c0.6,0.2,1.3,0.1,1.8-0.2c2.2-1.2,4.1-2.8,5.7-4.7
		c1.8-2.1,4-4,6.5-5.3c0.2-0.1,0.6-0.1,0.7,0.2c0.1,0.2,0,0.6-0.2,0.7c-2.3,1.3-4.4,3.1-6.2,5.1c-1.7,2-3.7,3.7-6,4.9
		C248.3,81.4,247.7,81.6,247.1,81.6z"/>
	<path class="st1" d="M117,92.2c-0.3,0-0.5-0.2-0.5-0.5V63c0-0.2,0.1-0.4,0.4-0.5c1.9-0.6,3.9-1,5.9-1.3c0.1,0,0.3,0,0.4,0.1
		c0.1,0.1,0.2,0.2,0.2,0.4v28.1c0,0.3-0.2,0.5-0.5,0.5c-0.3,0-0.5-0.2-0.5-0.5V62.3c-1.6,0.3-3.2,0.6-4.8,1.1v28.3
		C117.5,91.9,117.3,92.2,117,92.2z"/>
	<path class="st3" d="M141,220.3L141,220.3c-0.2,0-0.4-0.1-0.5-0.3l-11.2-31.1l-12.3,24c-0.1,0.2-0.2,0.3-0.4,0.3
		c-0.2,0-0.3-0.1-0.4-0.2l-12.2-15.9l-7.7,12.2c-0.1,0.2-0.5,0.3-0.7,0.2l-6.5-3.9c-0.2-0.1-0.3-0.4-0.2-0.7c0,0,0,0,0,0
		c0.1-0.2,0.5-0.3,0.7-0.2c0,0,0,0,0,0l6.1,3.7l7.8-12.4c0.1-0.1,0.2-0.2,0.4-0.2c0.2,0,0.3,0.1,0.4,0.2l12.2,15.9l12.5-24.3
		c0.1-0.2,0.4-0.3,0.7-0.2c0.1,0.1,0.2,0.2,0.2,0.3l11.2,31.1l5.4-11.4c0.1-0.3,0.4-0.4,0.7-0.3c0.3,0.1,0.4,0.4,0.3,0.7
		c0,0,0,0,0,0.1l-5.9,12.5C141.4,220.2,141.2,220.3,141,220.3z"/>
	<circle class="st2" cx="96" cy="208.9" r="1.6"/>
	<path class="st3" d="M96,210.9c-1.1,0-2-0.9-2-2s0.9-2,2-2c1.1,0,2,0.9,2,2S97.1,210.9,96,210.9z M96,207.8c-0.6,0-1,0.5-1,1
		s0.5,1,1,1s1-0.5,1-1S96.5,207.8,96,207.8z"/>
	<circle class="st2" cx="104" cy="196" r="1.6"/>
	<path class="st3" d="M104,198.1c-1.1,0-2-0.9-2-2c0-1.1,0.9-2,2-2c1.1,0,2,0.9,2,2C106,197.2,105.1,198.1,104,198.1z M104,195
		c-0.6,0-1,0.5-1,1s0.5,1,1,1c0.6,0,1-0.5,1-1S104.6,195,104,195z"/>
	<circle class="st2" cx="129.5" cy="187.5" r="1.6"/>
	<path class="st3" d="M129.5,189.6c-1.1,0-2-0.9-2-2s0.9-2,2-2c1.1,0,2,0.9,2,2S130.6,189.6,129.5,189.6z M129.5,186.5
		c-0.6,0-1,0.5-1,1s0.5,1,1,1c0.6,0,1-0.5,1-1S130,186.5,129.5,186.5z"/>
	<circle class="st2" cx="141" cy="219.8" r="1.6"/>
	<path class="st3" d="M141,221.8c-1.1,0-2-0.9-2-2c0-1.1,0.9-2,2-2s2,0.9,2,2C143.1,220.9,142.2,221.8,141,221.8z M141,218.7
		c-0.6,0-1,0.5-1,1s0.5,1,1,1s1-0.5,1-1S141.6,218.7,141,218.7z"/>
	<circle class="st2" cx="116.6" cy="212.5" r="1.6"/>
	<path class="st3" d="M116.6,214.6c-1.1,0-2-0.9-2-2s0.9-2,2-2c1.1,0,2,0.9,2,2S117.7,214.6,116.6,214.6z M116.6,211.5
		c-0.6,0-1,0.5-1,1s0.5,1,1,1c0.6,0,1-0.5,1-1S117.2,211.5,116.6,211.5z"/>
	<path class="st2" d="M223.4,196.4c-20.7,10.3-43.4,10.4-43.4,10.4V240c15,0.5,29.9-2.8,43.4-9.4L223.4,196.4z"/>
	<path class="st1" d="M182.7,240.6c-0.9,0-1.8,0-2.7,0c-0.3,0-0.5-0.2-0.5-0.5v-33.3c0-0.3,0.2-0.5,0.5-0.5
		c0.2,0,22.7-0.3,43.1-10.4c0.2-0.1,0.3-0.1,0.5,0c0.1,0.1,0.2,0.3,0.2,0.4v34.2c0,0.2-0.1,0.4-0.3,0.5
		C210.9,237.3,196.9,240.6,182.7,240.6z M180.6,239.6c14.6,0.4,29.2-2.8,42.3-9.2v-33.1c-18.7,9-38.9,10-42.3,10.2V239.6z"/>
	<path class="st4" d="M190.2,220.8c-0.2,6.8,5.1,12.4,11.9,12.6c6.8,0.2,12.4-5.1,12.6-11.9c0-0.2,0-0.5,0-0.7h-12.3v-12.2
		C195.7,208.6,190.2,214.1,190.2,220.8z"/>
	<path class="st0" d="M204.4,206.8V219h12.2C216.6,212.3,211.2,206.8,204.4,206.8z"/>
	<path class="st3" d="M244,197.4c-0.2,0-0.5-0.2-0.5-0.4c0-0.3,0.1-0.5,0.4-0.6c0.2,0,24.1-4.5,37.7-12c0.2-0.2,0.5-0.1,0.7,0.1
		c0.2,0.2,0.1,0.5-0.1,0.7c0,0-0.1,0-0.1,0.1C268.3,192.9,244.3,197.4,244,197.4L244,197.4z"/>
	<path class="st3" d="M244,206.4c-0.3,0-0.5-0.2-0.6-0.5c0-0.3,0.2-0.5,0.5-0.6c0.2-0.1,24.1-4.5,37.7-12.1c0.2-0.2,0.5-0.1,0.7,0.1
		c0.2,0.2,0.1,0.5-0.1,0.7c0,0-0.1,0-0.1,0.1C268.3,201.9,244.3,206.3,244,206.4L244,206.4z"/>
	<path class="st3" d="M244,215.4c-0.3,0-0.5-0.2-0.6-0.5c0-0.3,0.2-0.5,0.5-0.6c0.2,0,24.1-4.5,37.7-12.1c0.2-0.1,0.5,0,0.7,0.2
		c0.1,0.2,0,0.6-0.2,0.7c0,0,0,0,0,0C268.3,210.9,244.3,215.3,244,215.4L244,215.4z"/>
	<path class="st3" d="M244,224.4c-0.3,0-0.5-0.2-0.6-0.5c0-0.3,0.2-0.5,0.5-0.6l0,0c6.9-1.3,13.8-3.1,20.5-5.1
		c0.3-0.1,0.6,0.1,0.6,0.3c0.1,0.3-0.1,0.5-0.3,0.6C258,221.3,251.1,223,244,224.4L244,224.4z"/>
	<path class="st3" d="M89.4,120.1c-0.2,0-0.3-0.1-0.4-0.2c-0.1-0.2-0.1-0.6,0.2-0.7c6.9-4.1,20.9-7,21.5-7.2
		c0.3-0.1,0.5,0.1,0.6,0.4c0,0,0,0,0,0c0.1,0.3-0.1,0.5-0.4,0.6c0,0,0,0,0,0c-0.2,0-14.5,3-21.3,7C89.6,120.1,89.5,120.1,89.4,120.1
		z"/>
	<path class="st3" d="M89.4,125.2c-0.3,0-0.5-0.2-0.5-0.5c0-0.2,0.1-0.3,0.2-0.4c6.9-4.1,20.9-7,21.5-7.1c0.3-0.1,0.6,0.1,0.6,0.4
		c0.1,0.3-0.1,0.6-0.4,0.6c-0.2,0-14.5,3-21.3,7C89.6,125.2,89.5,125.2,89.4,125.2z"/>
	<path class="st3" d="M89.4,130.3c-0.2,0-0.3-0.1-0.4-0.3c-0.1-0.2-0.1-0.6,0.2-0.7c6.9-4.1,20.9-7,21.5-7.1
		c0.3-0.1,0.5,0.1,0.6,0.4c0.1,0.3-0.1,0.5-0.4,0.6c0,0,0,0,0,0c-0.2,0-14.5,3-21.3,7C89.6,130.3,89.5,130.3,89.4,130.3z"/>
	<path class="st3" d="M89.4,135.4c-0.3,0-0.5-0.2-0.5-0.5c0-0.2,0.1-0.3,0.2-0.4c4-2.1,8.3-3.8,12.7-4.9c0.3-0.1,0.6,0.1,0.6,0.4
		c0.1,0.3-0.1,0.6-0.4,0.6c-4.3,1.1-8.5,2.7-12.5,4.8C89.6,135.3,89.5,135.4,89.4,135.4z"/>
</g>
</svg>
