<svg width="90" height="70" viewBox="0 0 90 70" fill="none" xmlns="http://www.w3.org/2000/svg">
<path d="M43.6954 20.0352C44.1329 19.9884 44.5704 19.9728 45.0078 19.9728C53.2883 19.9728 60.0065 26.5419 60.0065 34.9523C60.0065 43.2223 53.2883 49.9319 45.0078 49.9319C36.5867 49.9319 30.0091 43.2223 30.0091 34.9523C30.0091 34.5154 30.0247 34.0785 30.0716 33.6416C31.5246 34.3438 33.212 34.9523 35.0087 34.9523C40.5238 34.9523 45.0078 30.474 45.0078 24.9659C45.0078 23.1715 44.3985 21.4863 43.6954 20.0352ZM75.099 12.5766C82.4108 19.3486 87.301 27.3221 89.6133 33.0331C90.1289 34.2658 90.1289 35.6389 89.6133 36.8716C87.301 42.4421 82.4108 50.4156 75.099 57.328C67.7402 64.1625 57.6317 69.9046 45.0078 69.9046C32.3839 69.9046 22.2754 64.1625 14.9167 57.328C7.60481 50.4156 2.71461 42.4421 0.386685 36.8716C-0.128895 35.6389 -0.128895 34.2658 0.386685 33.0331C2.71461 27.3221 7.60481 19.3486 14.9167 12.5766C22.2754 5.74217 32.3839 0 45.0078 0C57.6317 0 67.7402 5.74217 75.099 12.5766ZM45.0078 12.483C32.587 12.483 22.5098 22.5474 22.5098 34.9523C22.5098 47.3573 32.587 57.4217 45.0078 57.4217C57.4286 57.4217 67.5059 47.3573 67.5059 34.9523C67.5059 22.5474 57.4286 12.483 45.0078 12.483Z" fill="#0B7189"/>
</svg>
