<?xml version="1.0" encoding="utf-8"?>
<!-- Generator: Adobe Illustrator 25.4.1, SVG Export Plug-In . SVG Version: 6.00 Build 0)  -->
<svg version="1.1" xmlns="http://www.w3.org/2000/svg" xmlns:xlink="http://www.w3.org/1999/xlink" x="0px" y="0px"
	 viewBox="0 0 62.7 45.2" style="enable-background:new 0 0 62.7 45.2;" xml:space="preserve">
<style type="text/css">
	.st0{fill:#EBCA94;}
	.st1{fill:#FFFFFF;}
	.st2{display:none;}
</style>
<g id="Calque_1">
	<g id="ardabel_00000136377052940624317870000014759726589963172536_">
		<path class="st0" d="M58.3,24.8C57,23.1,54.9,22,52.7,22c-3.9,0-7.1,3.2-7.1,7.1s3.1,7.1,7.1,7.1h5.6h1.5v-7.1
			C59.7,27.5,59.2,26,58.3,24.8z M56.9,29.1h-0.4h-1.7c-1.2,0-2.1-0.9-2.1-2.1s0.9-2.1,2.1-2.1c0.7,0,1.3,0.3,1.7,0.8
			c0.3,0.4,0.4,0.8,0.4,1.3V29.1z"/>
	</g>
	<path id="K_00000025400954016292412730000008614040802157610163_" class="st1" d="M42.2,29.1c0-6.4,4.1-7.2,18.1-20.6
		c-15,10.9-17,10.7-18.1,10.4c-1.7-0.6-3.4-10.4-3.4-10.4V20v16.1l14.3,7.1C53.1,43.3,42.2,35.2,42.2,29.1z"/>
	<g id="trio">
		<path class="st1" d="M25,3.9c-1.6,0.6-2.6,1.5-3,2.8c-0.8,2.3,0.8,5.1,0.8,5.1l12.8,22.3V8.4c0,0,0-3.2-1.9-4.8
			c-0.7-0.6-1.7-1-2.9-1c-0.4,0-0.8,0-1.2,0.1l-2.1,0.5L25,3.9z"/>
		<path class="st1" d="M3.3,25.7l-0.7,2.4L2,30.3c-0.3,1.7,0,3.1,0.9,4c1.4,1.6,4,1.8,4.8,1.9l0,0l25.6,0L11.1,23.4c0,0-1.7-1-3.6-1
			c-0.5,0-1,0.1-1.5,0.2C4.8,23,3.9,24.1,3.3,25.7z"/>
		<path class="st1" d="M10.1,14.1c-1.1,1.3-1.5,2.6-1.2,3.9c0.5,2.4,3.2,4,3.2,4l22.2,12.9L21.4,12.7c0,0-1.6-2.8-4-3.2h0
			c-0.2,0-0.5-0.1-0.7-0.1c-1.1,0-2.2,0.5-3.3,1.4l-1.5,1.5L10.1,14.1z"/>
	</g>
</g>
<g id="Calque_3" class="st2">
</g>
</svg>
