<svg width="120" height="120" viewBox="0 0 120 120" fill="none" xmlns="http://www.w3.org/2000/svg">
<circle cx="60" cy="60" r="60" fill="#0B7189"/>
<path d="M73.0309 49.549C71.5823 48.3876 69.4585 48.5835 68.2771 50.0248C67.0956 51.4521 67.3066 53.579 68.7553 54.7404C70.3446 56.0417 71.2588 57.9168 71.2588 59.7778C71.2588 61.7648 70.3446 63.6399 68.7553 64.9272C67.3066 66.1027 67.0956 68.2156 68.2771 69.6429C68.9381 70.4545 69.9086 70.8742 70.8931 70.8742C71.6385 70.8742 72.4121 70.6224 73.0309 70.1186C76.1955 67.6559 78.0098 63.8918 78.0098 59.7639C78.0098 55.6359 76.1955 52.1237 73.0309 49.549ZM81.5401 39.2222C80.1055 38.0608 77.9817 38.2567 76.7862 39.684C75.6048 41.1113 75.8157 43.2382 77.2503 44.3996C82.0183 48.1497 84.7468 53.9148 84.7468 59.7639C84.7468 65.6129 82.0183 71.2521 77.2503 75.254C75.8157 76.4294 75.5907 78.5424 76.7862 79.9697C77.4613 80.7812 78.4177 81.201 79.4022 81.201C80.1617 81.201 80.9212 80.9492 81.5401 80.4454C87.8833 75.408 91.5119 67.8658 91.5119 59.7639C91.5119 51.6619 87.8833 44.3716 81.5401 39.2222ZM90.1617 28.7555C88.7271 27.5941 86.6034 27.79 85.4079 29.2173C84.2264 30.6446 84.4374 32.7715 85.872 33.9329C93.7342 40.3417 98.2489 49.8009 98.2489 59.7639C98.2489 69.7268 93.7342 79.312 85.8579 85.7208C84.4233 86.8962 84.1983 89.0091 85.3938 90.4364C86.0548 91.3739 87.0253 91.7937 88.0098 91.7937C88.7693 91.7937 89.5288 91.5418 90.1477 91.0381C99.5851 83.342 105 71.9937 105 59.7639C105 47.534 99.5992 36.4376 90.1617 28.7555ZM57.3629 28.9794C55.7454 28.2518 53.8467 28.5456 52.5246 29.721L33.5373 46.4846H21.7511C18.0239 46.4846 15 49.493 15 53.2012V66.6204C15 70.3285 18.0239 73.337 21.7511 73.337H33.5373L52.5105 90.1005C53.3544 90.8422 54.4233 91.234 55.5063 91.234C56.1252 91.234 56.7722 91.108 57.3629 90.8422C58.9803 90.1145 60.007 88.5193 60.007 86.7702V33.0513C60.007 31.2882 58.9803 29.693 57.3629 28.9794Z" fill="white"/>
</svg>
