<?xml version="1.0" encoding="utf-8"?>
<!-- Generator: Adobe Illustrator 25.4.1, SVG Export Plug-In . SVG Version: 6.00 Build 0)  -->
<svg version="1.1" id="Calque_1" xmlns="http://www.w3.org/2000/svg" xmlns:xlink="http://www.w3.org/1999/xlink" x="0px" y="0px"
	 viewBox="0 0 120 120" style="enable-background:new 0 0 120 120;" xml:space="preserve">
<style type="text/css">
	.st0{fill:#EBCA94;}
	.st1{fill:#FFFFFF;}
</style>
<circle class="st0" cx="60" cy="60" r="60"/>
<path class="st1" d="M73,49.5c-1.4-1.2-3.6-1-4.8,0.5c-1.2,1.4-1,3.6,0.5,4.7c1.6,1.3,2.5,3.2,2.5,5c0,2-0.9,3.9-2.5,5.1
	c-1.4,1.2-1.7,3.3-0.5,4.7c0.7,0.8,1.6,1.2,2.6,1.2c0.7,0,1.5-0.3,2.1-0.8c3.2-2.5,5-6.2,5-10.4C78,55.6,76.2,52.1,73,49.5z
	 M81.5,39.2c-1.4-1.2-3.6-1-4.8,0.5c-1.2,1.4-1,3.6,0.5,4.7c4.8,3.8,7.5,9.5,7.5,15.4c0,5.8-2.7,11.5-7.5,15.5
	c-1.4,1.2-1.7,3.3-0.5,4.7c0.7,0.8,1.6,1.2,2.6,1.2c0.8,0,1.5-0.3,2.1-0.8c6.3-5,10-12.6,10-20.7C91.5,51.7,87.9,44.4,81.5,39.2z
	 M90.2,28.8c-1.4-1.2-3.6-1-4.8,0.5c-1.2,1.4-1,3.6,0.5,4.7c7.9,6.4,12.4,15.9,12.4,25.8c0,10-4.5,19.5-12.4,26
	c-1.4,1.2-1.7,3.3-0.5,4.7c0.7,0.9,1.6,1.4,2.6,1.4c0.8,0,1.5-0.3,2.1-0.8c9.4-7.7,14.9-19,14.9-31.3C105,47.5,99.6,36.4,90.2,28.8z
	 M57.4,29c-1.6-0.7-3.5-0.4-4.8,0.7l-19,16.8H21.8c-3.7,0-6.8,3-6.8,6.7v13.4c0,3.7,3,6.7,6.8,6.7h11.8l19,16.8
	c0.8,0.7,1.9,1.1,3,1.1c0.6,0,1.3-0.1,1.9-0.4c1.6-0.7,2.6-2.3,2.6-4.1V33.1C60,31.3,59,29.7,57.4,29z"/>
</svg>
