<svg width="120" height="120" viewBox="0 0 120 120" fill="none" xmlns="http://www.w3.org/2000/svg">
<circle cx="60" cy="60" r="60" fill="#0B7189"/>
<path d="M111.762 59.2795C111.762 65.4695 108.037 70.4862 103.441 70.4862C97.8187 70.4862 97.9418 64.8829 93.795 64.8829C91.4615 64.8829 89.5718 66.7915 89.5718 69.1554V92.8996C89.5718 95.9937 87.0875 98.5029 84.0242 98.5029H71.6043C69.2709 98.5029 67.3812 96.5943 67.3812 94.2304C67.3812 89.9403 72.9289 90.168 72.9289 84.4946C72.9289 79.8525 67.962 76.0896 61.8336 76.0896C55.7051 76.0896 50.7383 79.8525 50.7383 84.4946C50.7383 90.1732 56.2859 90.0489 56.2859 94.2374C56.2859 96.5943 54.3962 98.5029 52.0558 98.5029H28.5477C25.4843 98.5029 23 95.9937 23 92.8996V69.1554C23 66.7915 24.8914 64.8829 27.2231 64.8829C31.3301 64.8829 31.2521 70.4862 36.8691 70.4862C41.4633 70.4862 45.1906 65.4607 45.1906 59.2795C45.1906 53.0983 41.4633 47.9152 36.8691 47.9152C31.2469 47.9152 31.37 53.5186 27.2231 53.5186C24.8914 53.5186 23 51.7675 23 49.4036V36.8591C23 33.765 25.4843 31.4134 28.5477 31.4134H52.0558C54.3962 31.1052 56.2859 29.3542 56.2859 26.9902C56.2859 22.842 50.7383 22.9208 50.7383 17.2474C50.7383 12.6054 55.7051 9 61.8336 9C67.962 9 72.9289 12.763 72.9289 17.2474C72.9289 22.9261 67.3812 22.8017 67.3812 26.9902C67.3812 29.3454 69.2726 31.2558 71.6043 31.2558H84.0242C87.0875 31.2558 89.5718 33.765 89.5718 36.7015V49.246C89.5718 51.6012 91.4632 53.5116 93.795 53.5116C97.9019 53.5116 97.8239 47.9082 103.441 47.9082C108.035 47.9152 111.762 53.0983 111.762 59.2795Z" fill="white"/>
</svg>
