<?xml version="1.0" encoding="utf-8"?>
<!-- Generator: Adobe Illustrator 25.4.1, SVG Export Plug-In . SVG Version: 6.00 Build 0)  -->
<svg version="1.1" id="Calque_1" xmlns="http://www.w3.org/2000/svg" xmlns:xlink="http://www.w3.org/1999/xlink" x="0px" y="0px"
	 viewBox="0 0 1440 1872" style="enable-background:new 0 0 1440 1872;" xml:space="preserve">
<style type="text/css">
	.st0{fill:#FAF1E4;}
	.st1{fill:#F0D7AF;}
	.st2{fill:#F5E5CA;}
	.st3{fill:#EBCA94;}
</style>
<path class="st0" d="M0,859.1c144,230.6,315.9,480.2,328.6,722.6l1110.9,155.1V101C864,261.8,527.6-154.1,23.1,95.5
	c-8,3.9-15.7,7.9-23.1,12V859.1z"/>
<path class="st1" d="M1439.5,78.9c-394.7-12.9-598.9,382-795.2,788.3c-88.3,182.9,446.5,348.1,795.2,434.6V78.9z"/>
<path class="st2" d="M1439.5,1367.4c-128-22.1-268-56.6-358.3-91.4c-200.7-77.5-436.9-408.5-436.9-408.5
	C379.3,1051.6,151.7,882,0,690.7v1014.2c219,47.6,446.4-5.6,450.9-5.6c3.7,0,567.3-15.2,988.6-26.5V1367.4z"/>
<path class="st3" d="M1439.5,1139.5c-262-285.7-795.2-272-795.2-272c392.4,787.4-197.8,831.2-197.8,831.2s696.6,251.5,993,129.6
	V1139.5z"/>
</svg>
