<svg width="1440" height="2114" viewBox="0 0 1440 2114" fill="none" xmlns="http://www.w3.org/2000/svg">
<mask id="mask0_25_219" style="mask-type:alpha" maskUnits="userSpaceOnUse" x="0" y="0" width="1440" height="2114">
<rect width="1440" height="2114" fill="#C4C4C4"/>
</mask>
<g mask="url(#mask0_25_219)">
<path d="M1351.74 1944.42L342.732 1769.51C316.083 1139.69 -490.706 466.405 69.9705 121.86C525.357 -157.885 827.38 316.523 1351.74 121.86V1944.42Z" fill="#FFEEAD"/>
<path d="M1588.45 1529.54C1588.45 1529.54 509.158 1274.56 624.637 977.428C841.488 420.044 1069.05 -117.847 1616.4 195.879C2052.72 446.122 1930.7 537.79 1930.7 537.79L2038.61 1475.54L1588.45 1529.54Z" fill="#BBD89E"/>
<path d="M-128.591 413.986C-128.591 413.986 191.982 1350.68 624.637 977.691C624.637 977.691 835.479 1344.63 1014.71 1430.5C1193.94 1516.37 1592.63 1600.4 1604.91 1535.6C1617.19 1470.54 1738.94 1856.97 1738.94 1856.97C1738.94 1856.97 457.166 1899.9 451.941 1899.9C446.716 1899.9 103.413 2000 -120.753 1822.46C-376.271 1619.89 -128.591 413.986 -128.591 413.986Z" fill="#F8C5D5"/>
<path d="M448.022 1899.11C448.022 1899.11 974.995 1850.64 624.638 977.691C624.638 977.691 1584.01 947.135 1448.15 1878.83C1384.14 2318.73 448.022 1899.11 448.022 1899.11Z" fill="#B7DDF6"/>
</g>
</svg>
