<?xml version="1.0" encoding="utf-8"?>
<!-- Generator: Adobe Illustrator 25.4.1, SVG Export Plug-In . SVG Version: 6.00 Build 0)  -->
<svg version="1.1" id="Calque_1" xmlns="http://www.w3.org/2000/svg" xmlns:xlink="http://www.w3.org/1999/xlink" x="0px" y="0px"
	 viewBox="0 0 1440 2114" style="enable-background:new 0 0 1440 2114;" xml:space="preserve">
<style type="text/css">
	.st0{fill:#FFEEAD;}
	.st1{fill:#F8C5D5;}
	.st2{fill:#B7DDF6;}
	.st3{fill:#BBD89E;}
</style>
<path class="st0" d="M70,121.9c-26.2,16.1-49.5,33-70,50.5v695.8c134.9,282.6,329.9,597,342.7,901.3l1009,174.9V121.9
	C827.4,316.5,525.4-157.9,70,121.9z"/>
<path class="st1" d="M1439.9,1550.8c-134.4-18.8-318.6-69.3-425.2-120.3c-179.2-85.9-390.1-452.8-390.1-452.8
	C357.2,1208.3,132.5,938.3,0,698.6v1191.6c209.1,79.1,447.6,9.7,451.9,9.7c3.6,0,608.9-20.2,988-32.9V1550.8z"/>
<path class="st2" d="M1439.9,1510.8c-130.7-554.9-815.3-533.1-815.3-533.1C975,1850.6,448,1899.1,448,1899.1s879.9,394.4,991.9,17.6
	V1510.8z"/>
<path class="st3" d="M1439.9,120.2C1016.9,6,816.6,484.1,624.6,977.4c-88.1,226.6,521.2,454.5,815.3,549.9V120.2z"/>
</svg>
